<svg width="1400" height="326" viewBox="0 0 1400 326" fill="none" xmlns="http://www.w3.org/2000/svg">
<g clip-path="url(#clip0_766_59432)">
<rect width="1881" height="976" fill="#262626"/>
<path d="M-0.278787 -0.592567L1813.99 2.30127L1813.05 673.538L-1.221 670.644L-0.278787 -0.592567Z" fill="url(#paint0_linear_766_59432)" fill-opacity="0.5"/>
<path d="M268.079 96.5163L1350.27 1099.77L341.72 2034.75L-740.474 1031.5L268.079 96.5163Z" fill="url(#paint1_linear_766_59432)" fill-opacity="0.3"/>
<path d="M566.69 41L1648.88 1044.25L605.194 2011.81L-477 1008.56L566.69 41Z" fill="url(#paint2_linear_766_59432)" fill-opacity="0.3"/>
<path d="M1310.69 81L2392.88 1084.25L1349.19 2051.81L267 1048.56L1310.69 81Z" fill="url(#paint3_linear_766_59432)" fill-opacity="0.3"/>
<path d="M808.553 135L1890.75 1217.4L882.194 2226.15L-200 1143.75L808.553 135Z" fill="url(#paint4_linear_766_59432)" fill-opacity="0.3"/>
<path d="M1109.55 57L2191.75 1139.4L1183.19 2148.15L101 1065.75L1109.55 57Z" fill="url(#paint5_linear_766_59432)" fill-opacity="0.3"/>
</g>
<defs>
<linearGradient id="paint0_linear_766_59432" x1="133.308" y1="321.374" x2="1753.79" y2="390.484" gradientUnits="userSpaceOnUse">
<stop stop-color="#4E0014"/>
<stop offset="1" stop-color="#B10DFF" stop-opacity="0"/>
</linearGradient>
<linearGradient id="paint1_linear_766_59432" x1="-135.411" y1="618.814" x2="742.619" y2="1597.46" gradientUnits="userSpaceOnUse">
<stop stop-color="#E12353"/>
<stop offset="1" stop-color="#B10DFF" stop-opacity="0"/>
</linearGradient>
<linearGradient id="paint2_linear_766_59432" x1="146.356" y1="578.913" x2="1024.97" y2="1557.13" gradientUnits="userSpaceOnUse">
<stop stop-color="#E12353"/>
<stop offset="1" stop-color="#B10DFF" stop-opacity="0"/>
</linearGradient>
<linearGradient id="paint3_linear_766_59432" x1="890.356" y1="618.913" x2="1768.97" y2="1597.13" gradientUnits="userSpaceOnUse">
<stop stop-color="#E12353"/>
<stop offset="1" stop-color="#B10DFF" stop-opacity="0"/>
</linearGradient>
<linearGradient id="paint4_linear_766_59432" x1="405.063" y1="698.503" x2="1357.44" y2="1682.4" gradientUnits="userSpaceOnUse">
<stop stop-color="#E12353"/>
<stop offset="1" stop-color="#B10DFF" stop-opacity="0"/>
</linearGradient>
<linearGradient id="paint5_linear_766_59432" x1="706.063" y1="620.503" x2="1658.44" y2="1604.4" gradientUnits="userSpaceOnUse">
<stop stop-color="#E12353"/>
<stop offset="1" stop-color="#B10DFF" stop-opacity="0"/>
</linearGradient>
<clipPath id="clip0_766_59432">
<rect width="1881" height="976" fill="white"/>
</clipPath>
</defs>
</svg>
