<svg width="353" height="84" viewBox="0 0 353 84" fill="none" xmlns="http://www.w3.org/2000/svg">
<path fill-rule="evenodd" clip-rule="evenodd" d="M121.521 14.6719C125.858 14.6729 130.141 15.5733 134.07 17.3098C137.999 19.0462 141.478 21.5765 144.263 24.7226C147.048 27.8687 149.071 31.5543 150.189 35.5199C151.308 39.4856 151.494 43.6351 150.736 47.6764C149.978 51.7178 148.294 55.5529 145.802 58.9118C143.31 62.2708 140.07 65.072 136.312 67.1184C132.553 69.1649 128.366 70.4069 124.046 70.757C119.725 71.1071 115.376 70.5569 111.305 69.145V29.0124C110.491 29.5253 109.721 30.0985 109.003 30.7268C107.292 32.1396 105.925 33.888 104.999 35.8508C104.073 37.8136 103.609 39.9436 103.64 42.0931V65.1668C99.2286 62.0158 95.8344 57.7615 93.8395 52.8831C91.8447 48.0048 91.3283 42.6961 92.3486 37.5549C93.3689 32.4138 95.8854 27.6444 99.6146 23.7839C103.344 19.9234 108.138 17.1252 113.456 15.7043V47.4163C113.456 58.9437 125.244 60.1561 131.148 56.8883C133.722 55.4346 135.856 53.3757 137.342 50.9115C138.699 48.3559 139.363 45.5206 139.273 42.6615C139.266 38.4873 137.605 34.4675 134.618 31.3966C131.632 28.3257 127.537 26.4271 123.142 26.0761V33.3884C125.222 33.6811 127.147 34.5974 128.636 36.0027C129.593 36.838 130.354 37.8535 130.871 38.984C131.388 40.1145 131.649 41.3349 131.638 42.5667C131.638 45.7872 130.637 48.2499 128.516 50.0306C124.894 53.0995 121.141 51.2904 121.141 47.4163V14.6814L121.521 14.6719Z" fill="#D93865"/>
<path d="M108.733 9.41513L112.075 5.72105V5.73053L115.417 2.04596L117.258 0L119.11 2.04596L122.452 5.73053V5.72105L125.794 9.41513L122.102 11.9252L118.759 8.24059V8.23113L117.258 6.57354L115.767 8.23113V8.24059L112.415 11.9252L108.733 9.41513Z" fill="#D93865"/>
<path d="M73.4504 69.0504L60.1917 68.9841V39.7347C60.0883 35.7327 60.9723 31.7631 62.7734 28.1411C64.6941 24.6676 67.5398 21.7291 71.0287 19.6163C73.0374 18.2861 75.2248 17.2157 77.533 16.4338C79.6846 15.7745 81.9361 15.4545 84.1973 15.4866C84.8077 15.4866 85.5382 15.4866 86.3888 15.5908C87.2393 15.6949 88.1999 15.7802 89.2906 15.9602V27.8664C88.092 27.5488 86.8529 27.3895 85.6082 27.3928C83.0466 27.4303 80.5673 28.2547 78.5436 29.7418C77.0088 30.7316 75.7184 32.0241 74.7612 33.5306C73.8663 35.0386 73.4138 36.7457 73.4504 38.4749V69.0409V69.0504Z" fill="#262626"/>
<path d="M167.051 83.3816H155.574V41.5441C155.522 38.3227 156.211 35.1292 157.594 32.1851C158.976 29.241 161.018 26.6169 163.579 24.4946C168.732 19.944 175.546 17.4591 182.592 17.5611C189.573 17.5686 196.267 20.196 201.206 24.8674C206.145 29.5387 208.925 35.873 208.939 42.4818C209.07 46.7521 208.069 50.9855 206.027 54.7953C203.809 58.4911 200.612 61.576 196.751 63.7463C192.558 66.4201 187.637 67.8874 182.582 67.9708C178.276 67.9031 174.05 66.8639 170.254 64.9397V51.9538C171.658 53.5798 173.472 54.8466 175.527 55.6384C177.709 56.5341 180.063 56.992 182.441 56.9834C186.231 57.1087 189.93 55.8661 192.788 53.5072C195.9 50.8645 197.461 47.1515 197.461 42.3397C197.483 40.4942 197.097 38.6647 196.328 36.9684C195.56 35.2722 194.425 33.7465 192.998 32.4889C190.1 29.8602 186.237 28.3997 182.223 28.4156C178.209 28.4315 174.359 29.9225 171.484 32.5741C170.038 33.8879 168.895 35.4708 168.127 37.2232C167.359 38.9756 166.983 40.8596 167.021 42.7565V83.3816H167.051Z" fill="#262626"/>
<path d="M259.121 38.9581C258.243 35.5942 256.156 32.6241 253.218 30.5565C250.21 28.5061 246.576 27.4418 242.871 27.5255C240.721 27.5086 238.59 27.9016 236.604 28.6811C234.619 29.4606 232.819 30.6106 231.313 32.0626C229.752 33.4249 228.508 35.0803 227.66 36.9232C226.813 38.7661 226.38 40.7559 226.39 42.7659C226.39 43.4763 226.39 44.0162 226.46 44.3761C226.631 46.4105 227.242 48.39 228.254 50.192C229.266 51.994 230.658 53.5801 232.344 54.8521C235.402 57.1446 239.211 58.354 243.111 58.2715C245.393 58.2821 247.655 57.8769 249.775 57.078C251.82 56.3114 253.642 55.0936 255.089 53.526L263.164 61.473C260.599 64.0352 257.516 66.0837 254.098 67.4971C250.598 68.8142 246.857 69.4582 243.091 69.3915C239.386 69.4403 235.708 68.7895 232.271 67.477C228.835 66.1645 225.71 64.2168 223.078 61.7476C220.384 59.3782 218.245 56.4998 216.801 53.2985C215.356 50.0972 214.638 46.6444 214.692 43.1637C214.622 39.6507 215.304 36.1606 216.699 32.9045C218.094 29.6484 220.172 26.6939 222.808 24.2198C225.346 21.6974 228.409 19.7007 231.804 18.3557C235.199 17.0107 238.851 16.3466 242.531 16.4054C246.351 16.3865 250.136 17.1058 253.653 18.5195C257.17 19.9332 260.345 22.0115 262.984 24.6271C268.814 30.1145 271.733 36.5081 271.74 43.8078V46.1379C271.6 46.8104 271.5 47.3029 271.449 47.606H231.554C231.201 47.6436 230.845 47.5639 230.548 47.3808C230.25 47.1977 230.029 46.9224 229.922 46.602C229.655 45.7125 229.537 44.7888 229.572 43.8646C229.551 43.5081 229.551 43.1508 229.572 42.7943C229.572 42.2196 229.572 41.7745 229.572 41.4588C229.546 40.8166 229.641 40.1751 229.852 39.5644C230.043 39.1571 230.493 38.9392 231.203 38.9392L259.121 38.9581Z" fill="#262626"/>
<path d="M278.564 1.85645H290.632V68.8894H278.564V1.85645Z" fill="#262626"/>
<path d="M323.904 68.9749C315.231 68.9749 308.333 66.269 303.21 60.8574C298.627 55.9825 296.336 49.9836 296.336 42.8607C296.148 36.1428 298.65 29.606 303.34 24.5609C308.583 18.9598 315.648 16.1656 324.534 16.1783C333.206 16.1783 340.101 18.8809 345.217 24.2862C349.835 29.2441 352.292 35.6763 352.092 42.2829C352.275 49.0058 349.773 55.547 345.087 60.6017C339.844 66.1901 332.783 68.9843 323.904 68.9843V68.9749ZM325.094 27.1278C319.951 27.1278 315.872 28.7381 312.856 31.9586C310.11 34.8825 308.64 38.6845 308.744 42.5955C308.625 46.3537 310.02 50.0141 312.646 52.8347C315.558 55.9225 319.531 57.4665 324.534 57.4665C329.537 57.4665 333.75 55.8562 336.772 52.6358C339.519 49.7089 340.989 45.9034 340.885 41.9893C340.995 38.2325 339.601 34.5751 336.982 31.7501C334.06 28.6749 330.097 27.1341 325.094 27.1278Z" fill="#262626"/>
<path d="M11.4802 83.3818H0.00271596V41.5442C-0.0490652 38.3228 0.640137 35.1293 2.02246 32.1852C3.40479 29.2412 5.44715 26.617 8.00793 24.4947C13.1592 19.9424 19.9739 17.4572 27.0203 17.5612C34.002 17.5663 40.6964 20.1931 45.6341 24.8653C50.5719 29.5375 53.3495 35.8732 53.3575 42.4819C53.4857 46.7509 52.4884 50.9828 50.4556 54.7955C48.2345 58.4891 45.0382 61.5734 41.1796 63.7465C36.986 66.4193 32.0651 67.8864 27.0103 67.9709C22.7045 67.905 18.4777 66.8658 14.6823 64.9399V51.9539C16.0832 53.5798 17.893 54.8467 19.9457 55.6385C22.1282 56.5324 24.4822 56.9902 26.8602 56.9835C30.6504 57.1108 34.3497 55.8679 37.2069 53.5073C40.329 50.8646 41.88 47.1516 41.88 42.3398C41.905 40.4938 41.5207 38.6632 40.752 36.9665C39.9833 35.2697 38.8472 33.7444 37.4171 32.489C34.5207 29.8609 30.659 28.4007 26.6469 28.4166C22.6348 28.4325 18.7861 29.9233 15.9131 32.5743C14.4651 33.8866 13.3207 35.4693 12.5525 37.222C11.7842 38.9748 11.4089 40.8594 11.4502 42.7566V83.3818H11.4802Z" fill="#262626"/>
</svg>
