<svg width="1608" height="900" viewBox="0 0 1608 900" fill="none" xmlns="http://www.w3.org/2000/svg">
<rect width="1908.26" height="1873.09" transform="translate(-548 -396)" fill="#262626"/>
<rect width="1308.33" height="1219.3" transform="matrix(-0.707107 -0.707107 -0.707107 0.707107 1333.3 472.128)" fill="url(#paint0_linear_446_10532)" fill-opacity="0.5"/>
<g clip-path="url(#clip0_446_10532)">
<rect width="1308.33" height="1219.3" transform="matrix(-0.707107 -0.707107 -0.707107 0.707107 1154.3 1014.13)" fill="url(#paint1_linear_446_10532)" fill-opacity="0.5"/>
<rect width="1290" height="668" transform="matrix(-0.707107 -0.707107 -0.707107 0.707107 1153.52 1298.17)" fill="url(#paint2_linear_446_10532)" fill-opacity="0.5"/>
</g>
<rect width="1308.33" height="1261.78" transform="matrix(-0.707107 -0.707107 -0.707107 0.707107 1621.34 1069.13)" fill="url(#paint3_linear_446_10532)" fill-opacity="0.5"/>
<defs>
<linearGradient id="paint0_linear_446_10532" x1="1211.67" y1="584.463" x2="41.3507" y2="603.624" gradientUnits="userSpaceOnUse">
<stop stop-color="#E12353"/>
<stop offset="1" stop-color="#B10DFF" stop-opacity="0"/>
</linearGradient>
<linearGradient id="paint1_linear_446_10532" x1="1211.67" y1="584.463" x2="41.3507" y2="603.624" gradientUnits="userSpaceOnUse">
<stop stop-color="#E12353"/>
<stop offset="1" stop-color="#B10DFF" stop-opacity="0"/>
</linearGradient>
<linearGradient id="paint2_linear_446_10532" x1="1194.69" y1="320.202" x2="41.4634" y2="354.183" gradientUnits="userSpaceOnUse">
<stop stop-color="#E12353"/>
<stop offset="1" stop-color="#B10DFF" stop-opacity="0"/>
</linearGradient>
<linearGradient id="paint3_linear_446_10532" x1="1211.67" y1="604.827" x2="41.33" y2="623.343" gradientUnits="userSpaceOnUse">
<stop stop-color="#E12353"/>
<stop offset="1" stop-color="#B10DFF" stop-opacity="0"/>
</linearGradient>
<clipPath id="clip0_446_10532">
<rect width="1308.33" height="1219.3" fill="white" transform="matrix(-0.707107 -0.707107 -0.707107 0.707107 1154.3 1014.13)"/>
</clipPath>
</defs>
</svg>
