<svg width="110" height="16" viewBox="0 0 110 16" fill="none" xmlns="http://www.w3.org/2000/svg">
<g id="Broadcom_Ltd_Logo 1" clip-path="url(#clip0_12_2278)">
<path id="path4" d="M108.772 4.16604C108.286 4.16604 107.887 3.77187 107.887 3.28604C107.887 2.8002 108.286 2.40145 108.772 2.40145C109.257 2.40145 109.656 2.8002 109.656 3.28604C109.656 3.77187 109.257 4.16604 108.772 4.16604ZM108.772 2.18604C108.167 2.18604 107.672 2.68104 107.672 3.28604C107.672 3.89104 108.167 4.38603 108.772 4.38603C109.377 4.38603 109.872 3.89104 109.872 3.28604C109.872 2.68104 109.377 2.18604 108.772 2.18604Z" fill="#D9DAE5"/>
<path id="path6" d="M108.845 3.24034L108.611 3.24492L108.607 2.96076H108.84C108.927 2.95617 108.996 3.01117 108.996 3.09826C109.001 3.18534 108.932 3.24034 108.845 3.24034ZM109.225 3.09367C109.221 2.90117 109.088 2.76367 108.872 2.76367L108.382 2.77284L108.396 3.80867H108.62L108.616 3.43742H108.776L108.987 3.80409L109.239 3.7995L109.001 3.40534C109.111 3.37784 109.225 3.27701 109.225 3.09367Z" fill="#D9DAE5"/>
<path id="path10" d="M23.7574 10.6241H21.0078V4.28356H23.6822C24.4036 4.28356 24.8541 4.74923 24.8541 5.38035C24.8541 6.01148 24.4036 6.46202 23.6822 6.46202H20.6251V8.29535H23.7574C24.5989 8.29535 25.0494 8.83618 25.0494 9.46685C25.0494 10.1883 24.5686 10.6241 23.7574 10.6241ZM25.3047 7.30352C26.2516 7.10827 27.0331 6.26677 27.0331 5.00498C27.0331 3.66756 26.0564 2.45068 24.1479 2.45068H18.8743V12.4721H24.3133C26.2214 12.4721 27.2279 11.2699 27.2279 9.76752C27.2279 8.50527 26.3717 7.46898 25.3047 7.30352Z" fill="#D9DAE5"/>
<path id="path12" d="M33.4733 7.0331H31.1667V8.91135H32.7973L34.7654 12.4721H37.2142L34.9606 8.6556C36.0427 8.40031 37.1542 7.45385 37.1542 5.68102M37.1542 5.68102C37.1542 3.81789 35.8773 2.45068 33.7887 2.45068H29.1008V12.4721H31.2344V4.32893H33.4733C34.33 4.32893 34.9757 4.83952 34.9757 5.68102C34.9757 6.52252 34.33 7.0331 33.4733 7.0331" fill="#D9DAE5"/>
<path id="path14" d="M53.3745 8.89622L54.9369 4.58422L56.4998 8.89622H53.3745ZM53.6 2.45068L49.7234 12.4721H52.1571L52.7883 10.7745H57.0856L57.7016 12.4721H60.1358L56.2743 2.45068H53.6Z" fill="#D9DAE5"/>
<path id="path16" d="M65.9308 10.5944H64.1125V4.32896H65.9308C67.9891 4.32896 69.0708 5.69617 69.0708 7.46946C69.0708 9.16713 67.914 10.5944 65.9308 10.5944ZM65.9308 2.45117H61.979V12.4726H65.9308C69.0708 12.4726 71.2493 10.4894 71.2493 7.46946C71.2493 4.44951 69.0708 2.45117 65.9308 2.45117Z" fill="#D9DAE5"/>
<path id="path18" d="M103.572 2.44873L100.944 6.69748L98.3161 2.44873H95.9575V12.472H98.0915V5.92106L100.389 9.41448C100.652 9.81369 101.237 9.81369 101.5 9.41448L103.797 5.92106V12.472H105.931V2.44873H103.572Z" fill="#D9DAE5"/>
<path id="path20" d="M43.92 10.6993C42.1458 10.6993 40.708 9.26103 40.708 7.48728C40.708 5.71307 42.1458 4.27482 43.92 4.27482C45.6938 4.27482 47.132 5.71307 47.132 7.48728C47.132 9.26103 45.6938 10.6993 43.92 10.6993ZM43.92 2.20361C41.0018 2.20361 38.6364 4.56907 38.6364 7.48728C38.6364 10.405 41.0018 12.7705 43.92 12.7705C46.8378 12.7705 49.2037 10.405 49.2037 7.48728C49.2037 4.56907 46.8378 2.20361 43.92 2.20361Z" fill="#D9DAE5"/>
<path id="path22" d="M80.8518 9.04149C80.3041 10.0297 79.2513 10.6993 78.0413 10.6993C76.2675 10.6993 74.8293 9.26103 74.8293 7.48728C74.8293 5.71307 76.2675 4.27528 78.0413 4.27528C79.2412 4.27528 80.2857 4.93436 80.8371 5.90924L82.3358 4.41095C81.377 3.07491 79.8113 2.20361 78.0413 2.20361C75.1231 2.20361 72.7581 4.56907 72.7581 7.48728C72.7581 10.405 75.1231 12.7709 78.0413 12.7709C79.821 12.7709 81.3944 11.89 82.3514 10.5412L80.8518 9.04149Z" fill="#D9DAE5"/>
<path id="use8" d="M89.1659 10.6993C87.3917 10.6993 85.9539 9.26103 85.9539 7.48728C85.9539 5.71307 87.3917 4.27482 89.1659 4.27482C90.9396 4.27482 92.3779 5.71307 92.3779 7.48728C92.3779 9.26103 90.9396 10.6993 89.1659 10.6993ZM89.1659 2.20361C86.2477 2.20361 83.8822 4.56907 83.8822 7.48728C83.8822 10.405 86.2477 12.7705 89.1659 12.7705C92.0836 12.7705 94.4495 10.405 94.4495 7.48728C94.4495 4.56907 92.0836 2.20361 89.1659 2.20361Z" fill="#D9DAE5"/>
<path id="ellipse24" d="M7.57141 15.002C11.6813 15.002 15.0131 11.6705 15.0131 7.56083C15.0131 3.45117 11.6813 0.119629 7.57141 0.119629C3.4615 0.119629 0.129761 3.45117 0.129761 7.56083C0.129761 11.6705 3.4615 15.002 7.57141 15.002Z" fill="#D9DAE5"/>
<path id="path26" d="M14.1284 9.57143C13.2773 9.23227 12.4981 9.34593 11.7171 9.81939C11.7171 9.81939 11.4325 9.9931 11.3473 10.0467C10.9833 10.275 10.6401 10.4913 10.3101 10.4913C9.99518 10.4913 9.68535 10.407 9.55426 9.79785C9.34985 8.84772 8.85118 6.51297 8.63347 5.3566C8.5056 4.67689 8.43547 4.31068 8.3626 4.06181C8.23426 3.62456 7.9996 3.38668 7.66639 3.34864C7.66639 3.34864 7.61414 3.34131 7.57151 3.34131C7.52935 3.34131 7.4716 3.34956 7.4716 3.34956C7.1416 3.38898 6.90831 3.62685 6.78089 4.06181C6.70801 4.31068 6.63789 4.67689 6.51001 5.3566C6.29231 6.51297 5.79364 8.84772 5.58922 9.79785C5.45814 10.407 5.1483 10.4913 4.83343 10.4913C4.50343 10.4913 4.16014 10.275 3.79622 10.0467C3.71097 9.9931 3.42589 9.81939 3.42589 9.81939C2.64535 9.34593 1.86572 9.23227 1.01506 9.57143C0.831263 9.64477 0.650239 9.72689 0.477905 9.80985C0.595697 10.1793 0.742332 10.5428 0.913291 10.8843C1.10167 10.7917 1.29922 10.6999 1.50089 10.6403C1.79147 10.5546 2.08939 10.55 2.37814 10.6467C2.65864 10.7406 2.90843 10.907 3.15731 11.0633C3.62618 11.358 4.15739 11.6921 4.83343 11.6921C5.83535 11.6921 6.53843 11.094 6.76301 10.0508C6.93718 9.24235 7.3231 7.43743 7.57105 6.1926C7.57105 6.1926 8.20631 9.24235 8.38001 10.0508C8.6046 11.094 9.30814 11.6921 10.3101 11.6921C10.9861 11.6921 11.5173 11.358 11.9862 11.0633C12.2351 10.907 12.4848 10.7406 12.7653 10.6467C13.0536 10.55 13.352 10.5546 13.6426 10.6403C13.8443 10.6999 14.0415 10.7918 14.2299 10.8844C14.4013 10.5429 14.5476 10.1792 14.6654 9.80978C14.493 9.72682 14.3122 9.64477 14.1284 9.57143Z" fill="white"/>
</g>
<defs>
<clipPath id="clip0_12_2278">
<rect width="110" height="15.125" fill="white"/>
</clipPath>
</defs>
</svg>
