<svg width="408" height="341" viewBox="0 0 408 341" fill="none" xmlns="http://www.w3.org/2000/svg">
<g filter="url(#filter0_dd_15_50949)">
<g filter="url(#filter1_dd_15_50949)">
<path fill-rule="evenodd" clip-rule="evenodd" d="M43.6948 54.1477C43.6948 51.4244 45.9025 49.2168 48.6257 49.2168H95.0113C97.7346 49.2168 99.9422 51.4244 99.9422 54.1477V101.939C99.9422 104.663 97.7346 106.87 95.0113 106.87H48.6257C45.9025 106.87 43.6948 104.663 43.6948 101.939V54.1477Z" fill="white"/>
</g>
<g clip-path="url(#clip0_15_50949)">
<path d="M87.9957 74.6823C87.2357 74.155 85.4942 73.9573 84.1326 74.2209C83.9743 72.9027 83.246 71.7492 81.9794 70.7276L81.2511 70.2003L80.7445 70.9583C80.1112 71.9469 79.7945 73.3311 79.8895 74.6494C79.9212 75.1107 80.0795 75.9346 80.5545 76.6597C80.1112 76.9233 79.1929 77.2529 77.9896 77.2529H55.0961L55.0328 77.5165C54.8111 78.8348 54.8111 82.9543 57.4076 86.1181C59.3708 88.5239 62.284 89.7433 66.1154 89.7433C74.4115 89.7433 80.5545 85.7556 83.436 78.5382C84.5759 78.5711 87.0141 78.5382 88.249 76.0665C88.2807 76.0006 88.344 75.8687 88.5656 75.3744L88.6923 75.1107L87.9957 74.6823ZM73.3983 65.3887H69.9151V68.6843H73.3983V65.3887ZM73.3983 69.3434H69.9151V72.639H73.3983V69.3434ZM69.2819 69.3434H65.7987V72.639H69.2819V69.3434ZM65.1654 69.3434H61.6823V72.639H65.1654V69.3434ZM61.049 73.2981H57.5659V76.5938H61.049V73.2981ZM65.1654 73.2981H61.6823V76.5938H65.1654V73.2981ZM69.2819 73.2981H65.7987V76.5938H69.2819V73.2981ZM73.3983 73.2981H69.9151V76.5938H73.3983V73.2981ZM77.5147 73.2981H74.0316V76.5938H77.5147V73.2981Z" fill="#2396ED"/>
</g>
</g>
<g filter="url(#filter2_dd_15_50949)">
<g filter="url(#filter3_dd_15_50949)">
<path fill-rule="evenodd" clip-rule="evenodd" d="M43.6948 145.55C43.6948 142.827 45.9025 140.619 48.6257 140.619H95.0113C97.7346 140.619 99.9422 142.827 99.9422 145.55V193.342C99.9422 196.065 97.7346 198.273 95.0113 198.273H48.6257C45.9025 198.273 43.6948 196.065 43.6948 193.342V145.55Z" fill="white"/>
</g>
<path d="M63.6766 173.147C63.6766 174.782 62.351 176.107 60.7162 176.107C59.0813 176.107 57.7557 174.782 57.7557 173.147C57.7557 171.512 59.0813 170.187 60.7162 170.187H63.6766V173.147Z" fill="#E01E5A"/>
<path d="M65.1567 173.147C65.1567 171.512 66.4823 170.187 68.1172 170.187C69.752 170.187 71.0776 171.512 71.0776 173.147V180.548C71.0776 182.183 69.752 183.508 68.1172 183.508C66.4823 183.508 65.1567 182.183 65.1567 180.548V173.147Z" fill="#E01E5A"/>
<path d="M68.1174 161.306C66.4826 161.306 65.157 159.98 65.157 158.345C65.157 156.71 66.4826 155.385 68.1174 155.385C69.7522 155.385 71.0778 156.71 71.0778 158.345V161.306H68.1174Z" fill="#36C5F0"/>
<path d="M68.1172 162.786C69.752 162.786 71.0776 164.112 71.0776 165.747C71.0776 167.381 69.752 168.707 68.1172 168.707H60.7162C59.0813 168.707 57.7557 167.381 57.7557 165.747C57.7557 164.112 59.0813 162.786 60.7162 162.786H68.1172Z" fill="#36C5F0"/>
<path d="M79.9586 165.747C79.9586 164.112 81.2842 162.786 82.919 162.786C84.5538 162.786 85.8795 164.112 85.8795 165.747C85.8795 167.381 84.5538 168.707 82.919 168.707H79.9586V165.747Z" fill="#2EB67D"/>
<path d="M78.4785 165.746C78.4785 167.381 77.1528 168.707 75.518 168.707C73.8832 168.707 72.5576 167.381 72.5576 165.746V158.345C72.5576 156.71 73.8832 155.385 75.518 155.385C77.1528 155.385 78.4785 156.71 78.4785 158.345V165.746Z" fill="#2EB67D"/>
<path d="M75.5178 177.588C77.1526 177.588 78.4782 178.914 78.4782 180.548C78.4782 182.183 77.1526 183.509 75.5178 183.509C73.883 183.509 72.5574 182.183 72.5574 180.548V177.588H75.5178Z" fill="#ECB22E"/>
<path d="M75.5188 176.107C73.884 176.107 72.5583 174.782 72.5583 173.147C72.5583 171.512 73.884 170.187 75.5188 170.187H82.9198C84.5546 170.187 85.8802 171.512 85.8802 173.147C85.8802 174.782 84.5546 176.107 82.9198 176.107H75.5188Z" fill="#ECB22E"/>
</g>
<g filter="url(#filter4_dd_15_50949)">
<g filter="url(#filter5_dd_15_50949)">
<path fill-rule="evenodd" clip-rule="evenodd" d="M43.6948 236.952C43.6948 234.229 45.9025 232.021 48.6257 232.021H95.0113C97.7346 232.021 99.9422 234.229 99.9422 236.952V284.744C99.9422 287.467 97.7346 289.675 95.0113 289.675H48.6257C45.9025 289.675 43.6948 287.467 43.6948 284.744V236.952Z" fill="white"/>
</g>
<g clip-path="url(#clip1_15_50949)">
<path d="M85.9414 263.117H78.9409C78.4843 263.112 78.0937 263.444 78.0252 263.896C77.6276 266.741 75.193 268.857 72.3204 268.854L74.2159 277.512C81.0833 276.615 86.369 271.006 86.8571 264.097C86.8749 263.843 86.7864 263.594 86.6127 263.408C86.439 263.222 86.1958 263.117 85.9414 263.117Z" fill="#2684FF"/>
<path d="M73.8268 262.898L83.8994 254.24C84.0965 254.066 84.2094 253.816 84.2094 253.553C84.2094 253.29 84.0965 253.04 83.8994 252.866L73.8268 244.194C73.555 243.965 73.1749 243.914 72.8521 244.063C72.5292 244.212 72.3219 244.535 72.3204 244.89V262.202C72.3219 262.557 72.5292 262.88 72.8521 263.029C73.1749 263.178 73.555 263.127 73.8268 262.898Z" fill="#2684FF"/>
<path d="M57.8936 265.008C58.8569 272.241 65.0238 277.644 72.3204 277.649V268.854C69.1498 268.854 66.5774 266.288 66.5698 263.117L57.8936 265.008Z" fill="url(#paint0_linear_15_50949)"/>
<path d="M57.7562 262.98V263.117H66.5698C66.5774 259.947 69.1498 257.381 72.3204 257.381L70.4295 248.723C63.2455 249.659 57.8436 255.736 57.7562 262.98Z" fill="url(#paint1_linear_15_50949)"/>
</g>
</g>
<g filter="url(#filter6_dd_15_50949)">
<g filter="url(#filter7_dd_15_50949)">
<path fill-rule="evenodd" clip-rule="evenodd" d="M114.004 99.8489C114.004 97.1256 116.212 94.918 118.935 94.918H165.321C168.044 94.918 170.252 97.1256 170.252 99.8489V147.641C170.252 150.364 168.044 152.572 165.321 152.572H118.935C116.212 152.572 114.004 150.364 114.004 147.641V99.8489Z" fill="white"/>
</g>
<g clip-path="url(#clip2_15_50949)">
<path d="M146.669 117.162H147.698L150.632 114.228L150.777 112.983C145.318 108.165 136.984 108.684 132.166 114.143C130.826 115.66 129.854 117.463 129.325 119.415C129.652 119.281 130.014 119.26 130.355 119.353L136.222 118.386C136.222 118.386 136.52 117.892 136.674 117.923C139.284 115.057 143.677 114.723 146.69 117.162H146.669Z" fill="#EA4335"/>
<path d="M154.811 119.416C154.136 116.933 152.753 114.701 150.827 112.993L146.711 117.11C148.449 118.53 149.44 120.67 149.397 122.915V123.647C151.421 123.647 153.061 125.288 153.061 127.31C153.061 129.335 151.42 130.974 149.397 130.974H142.068L141.337 131.716V136.111L142.068 136.842H149.397C153.599 136.875 157.326 134.152 158.574 130.14C159.819 126.126 158.291 121.769 154.811 119.416Z" fill="#4285F4"/>
<path d="M134.729 136.801H142.058V130.934H134.729C134.207 130.934 133.691 130.822 133.216 130.604L132.186 130.923L129.232 133.857L128.975 134.887C130.631 136.137 132.653 136.809 134.729 136.801Z" fill="#34A853"/>
<path d="M134.729 117.77C130.658 117.794 127.052 120.401 125.753 124.258C124.455 128.116 125.749 132.374 128.976 134.855L133.227 130.604C131.382 129.771 130.563 127.601 131.396 125.756C132.23 123.912 134.4 123.093 136.244 123.926C137.056 124.294 137.707 124.945 138.075 125.756L142.326 121.506C140.516 119.142 137.706 117.76 134.729 117.77Z" fill="#FBBC05"/>
</g>
</g>
<g filter="url(#filter8_dd_15_50949)">
<g filter="url(#filter9_dd_15_50949)">
<path fill-rule="evenodd" clip-rule="evenodd" d="M114.004 191.251C114.004 188.528 116.212 186.32 118.935 186.32H165.321C168.044 186.32 170.252 188.528 170.252 191.251V239.043C170.252 241.766 168.044 243.974 165.321 243.974H118.935C116.212 243.974 114.004 241.766 114.004 239.043V191.251Z" fill="white"/>
</g>
<g clip-path="url(#clip3_15_50949)">
<path fill-rule="evenodd" clip-rule="evenodd" d="M154.041 214.536C154.041 221.222 148.741 226.643 142.205 226.643C135.668 226.643 130.369 221.222 130.369 214.536C130.369 207.85 135.668 202.429 142.205 202.429C148.741 202.429 154.041 207.85 154.041 214.536Z" fill="#D33833"/>
<path d="M130.85 217.534C130.85 217.534 129.994 204.909 141.627 204.548L140.815 203.195L134.501 205.305L132.709 207.379L131.131 210.401L130.229 213.918L130.5 216.262" fill="#EF3D3A"/>
<path d="M134.098 206.278C132.02 208.403 130.735 211.337 130.735 214.583C130.735 217.828 132.022 220.763 134.098 222.886C136.173 225.009 139.039 226.321 142.205 226.321C145.371 226.321 148.234 225.01 150.312 222.886C152.389 220.762 153.674 217.827 153.674 214.583C153.674 211.338 152.387 208.402 150.312 206.278C148.236 204.154 145.371 202.843 142.205 202.843C139.039 202.843 136.175 204.154 134.098 206.278ZM133.572 223.4C131.365 221.143 130.001 218.024 130.001 214.584C130.001 211.143 131.366 208.024 133.572 205.767C135.779 203.51 138.833 202.109 142.205 202.11C145.576 202.111 148.63 203.51 150.837 205.767C153.043 208.024 154.409 211.143 154.409 214.584C154.409 218.024 153.044 221.143 150.837 223.4C148.629 225.657 145.576 227.057 142.205 227.057C138.833 227.057 135.779 225.657 133.572 223.4Z" fill="#231F20"/>
<path fill-rule="evenodd" clip-rule="evenodd" d="M147.187 214.604L145.394 214.875L142.958 215.146L141.38 215.192L139.846 215.146L138.674 214.786L137.637 213.657L136.825 211.358L136.646 210.862L135.564 210.502L134.931 209.465L134.472 207.977L134.968 206.669L136.14 206.263L137.088 206.715L137.539 207.706L138.08 207.615L138.259 207.39L138.08 206.353L138.035 205.045L138.306 203.252L138.295 202.222L139.118 200.908L140.56 199.871L143.083 198.777L145.878 199.183L148.314 200.941L149.443 202.734L150.164 204.042L150.343 207.288L149.802 210.083L148.811 212.561L147.864 213.869" fill="#F0D6B7"/>
<path fill-rule="evenodd" clip-rule="evenodd" d="M145.653 222.404L139.205 222.675V223.757L139.746 227.544L139.475 227.86L134.968 226.328L134.651 225.786L134.2 220.693L133.163 217.627L132.938 216.905L136.544 214.427L137.673 213.976L138.664 215.193L139.521 215.959L140.512 216.276L140.962 216.411L141.503 218.755L141.909 219.251L142.946 218.89L142.225 220.288L146.148 222.136L145.652 222.407" fill="#335061"/>
<path fill-rule="evenodd" clip-rule="evenodd" d="M134.968 206.669L136.14 206.263L137.088 206.715L137.539 207.706L138.08 207.615L138.215 207.074L137.944 206.038L138.215 203.557L137.989 202.204L138.801 201.257L140.559 199.86L140.064 199.185L137.583 200.402L136.546 201.214L135.96 202.476L135.058 203.693L134.787 205.136L134.967 206.669" fill="#6D6B6D"/>
<path fill-rule="evenodd" clip-rule="evenodd" d="M136.815 202.429C136.815 202.429 137.49 200.761 140.198 199.951C142.905 199.141 140.333 199.364 140.333 199.364L137.401 200.493L136.272 201.621L135.777 202.523L136.813 202.432L136.815 202.429ZM135.463 206.352C135.463 206.352 134.516 203.196 138.124 202.745L137.989 202.204L135.511 202.791L134.789 205.135L134.969 206.669L135.464 206.352" fill="#DCD9D8"/>
<path fill-rule="evenodd" clip-rule="evenodd" d="M136.906 210.546L137.497 209.975C137.503 210.059 137.536 210.139 137.593 210.202C137.649 210.265 137.725 210.307 137.808 210.322C137.853 210.638 137.987 213.478 139.917 215.012C140.094 215.152 138.474 214.786 138.474 214.786L137.032 212.531L136.906 210.546ZM145.192 209.689C145.192 209.689 145.298 208.322 145.667 208.428C146.036 208.533 146.036 208.902 146.036 208.902C146.036 208.902 145.142 209.48 145.195 209.691" fill="#F7E4CD"/>
<path d="M148.946 204.683C148.946 204.683 148.202 204.841 148.134 205.495C148.065 206.149 148.946 205.63 149.081 205.585L148.946 204.683ZM143.5 204.728C143.5 204.728 142.508 204.863 142.508 205.495C142.508 206.126 143.637 206.081 143.951 205.811" fill="#F7E4CD"/>
<path fill-rule="evenodd" clip-rule="evenodd" d="M137.356 207.659C137.356 207.659 135.643 206.622 135.463 207.614C135.284 208.607 134.877 209.328 135.734 210.365L135.148 210.185L134.607 208.788L134.428 207.435L135.464 206.353L136.637 206.443L137.312 206.984L137.357 207.659H137.356ZM138.169 204.818C138.169 204.818 138.936 200.851 142.814 200.072C146.006 199.442 147.683 200.207 148.315 200.929C148.315 200.929 145.474 197.548 142.768 198.584C140.061 199.621 138.079 201.537 138.121 202.743L138.166 204.817L138.169 204.818ZM148.628 201.39C148.628 201.39 147.321 201.344 147.275 202.518C147.28 202.643 147.31 202.766 147.365 202.879C147.365 202.879 148.403 201.706 149.033 202.338L148.628 201.39ZM142.903 203C142.903 203 142.678 201.201 141.144 202.247C140.152 202.922 140.242 203.871 140.422 204.04C140.603 204.209 140.554 204.583 140.691 204.335C140.828 204.087 140.783 203.274 141.28 203.049C141.776 202.823 142.587 202.571 142.904 202.991" fill="#F7E4CD"/>
<path fill-rule="evenodd" clip-rule="evenodd" d="M138.664 215.189L134.424 217.083C134.424 217.083 136.183 224.073 135.281 226.238L134.648 226.012L134.603 223.351L133.434 218.311L132.938 216.914L137.368 213.938L138.676 215.2L138.664 215.189ZM139.102 219.055L139.703 219.789V222.494H138.982L138.892 220.385C138.892 220.159 138.982 219.348 138.982 219.348L139.102 219.055ZM139.115 222.899L137.086 222.988L137.673 223.394L139.115 223.62" fill="#49728B"/>
<path fill-rule="evenodd" clip-rule="evenodd" d="M146.059 222.448L147.728 222.402L148.134 226.551L146.42 226.777L146.059 222.449" fill="#335061"/>
<path fill-rule="evenodd" clip-rule="evenodd" d="M146.511 222.448L149.035 222.313L150.072 219.563C150.072 219.428 150.974 215.776 150.974 215.776L148.945 213.657L148.539 213.296L147.457 214.378V218.571L146.51 222.449" fill="#335061"/>
<path fill-rule="evenodd" clip-rule="evenodd" d="M147.638 222.134L146.06 222.45L146.286 223.712C146.872 223.984 147.864 223.261 147.864 223.261L147.638 222.134ZM147.682 214.244L150.839 216.588L150.93 215.506L148.54 213.297L147.683 214.244" fill="#49728B"/>
<path fill-rule="evenodd" clip-rule="evenodd" d="M140.681 231.332L139.747 227.544L139.283 224.749L139.206 222.675L143.431 222.45H146.06L145.821 227.196L146.227 230.848L146.182 231.523L142.754 231.794L140.68 231.343" fill="white"/>
<path fill-rule="evenodd" clip-rule="evenodd" d="M145.472 222.404C145.472 222.404 145.246 227.094 145.923 230.419C145.923 230.419 144.57 231.275 142.586 231.501L146.372 231.366L146.824 231.095L146.283 223.7L146.148 222.121" fill="#DCD9D8"/>
<path fill-rule="evenodd" clip-rule="evenodd" d="M148.211 226.192L149.969 225.696L153.306 225.517L153.801 223.983L152.9 221.322L151.863 221.188L150.42 221.639L149.035 222.314L148.3 222.179L147.728 222.403" fill="white"/>
<path fill-rule="evenodd" clip-rule="evenodd" d="M148.179 225.289C148.179 225.289 149.352 224.748 149.532 224.793L149.036 222.313L149.623 222.087L150.029 224.702L152.779 224.837C152.779 224.837 153.32 223.801 153.185 222.728L153.681 224.171L153.726 224.983L153.005 226.065L152.193 226.244L150.84 226.199L150.389 225.613L148.811 225.838L148.315 226.018" fill="#DCD9D8"/>
<path d="M146.406 222.087L145.415 219.562L144.378 218.075C144.378 218.075 144.604 217.442 144.919 217.442H145.956L146.947 217.803L146.858 219.472L146.406 222.087Z" fill="white"/>
<path fill-rule="evenodd" clip-rule="evenodd" d="M146.6 221.233C146.6 221.233 145.338 218.797 145.338 218.439C145.338 218.439 145.564 217.898 145.879 218.033C146.194 218.168 146.87 218.528 146.87 218.528V217.672L145.337 217.355L144.3 217.49L146.058 221.639L146.419 221.685" fill="#DCD9D8"/>
<path d="M141.085 215.279L139.836 215.142L138.663 214.781V215.187L139.236 215.82L141.029 216.632" fill="white"/>
<path fill-rule="evenodd" clip-rule="evenodd" d="M139.07 215.415C139.07 215.415 140.468 216.001 140.919 215.866L140.964 216.407L139.702 216.137L138.935 215.596L139.07 215.417" fill="#DCD9D8"/>
<path fill-rule="evenodd" clip-rule="evenodd" d="M148.205 217.597C147.441 217.576 146.75 217.484 146.144 217.312C146.186 217.064 146.108 216.821 146.17 216.641C146.339 216.52 146.621 216.522 146.877 216.494C146.655 216.385 146.346 216.343 146.092 216.405C146.086 216.233 146.008 216.127 145.962 215.992C146.393 215.838 147.407 214.832 147.979 215.165C148.251 215.323 148.367 216.23 148.388 216.669C148.406 217.034 148.356 217.403 148.205 217.597Z" fill="#D33833"/>
<path d="M148.205 217.598C147.441 217.577 146.75 217.485 146.144 217.313C146.186 217.065 146.108 216.822 146.17 216.642C146.339 216.521 146.621 216.523 146.877 216.495C146.655 216.386 146.346 216.344 146.092 216.406C146.086 216.234 146.008 216.128 145.962 215.993C146.393 215.839 147.407 214.833 147.979 215.166C148.251 215.324 148.367 216.231 148.388 216.67C148.406 217.035 148.356 217.404 148.205 217.598V217.598Z" stroke="#D33833" stroke-width="0.36139"/>
<path fill-rule="evenodd" clip-rule="evenodd" d="M144.547 216.347L144.541 216.522C144.301 216.68 143.916 216.677 143.655 216.809C144.041 216.825 144.345 216.918 144.609 217.051L144.592 217.489C144.155 217.788 143.755 218.235 143.239 218.516C142.997 218.649 142.14 218.991 141.881 218.93C141.733 218.897 141.72 218.714 141.662 218.542C141.538 218.173 141.251 217.59 141.225 217.036C141.193 216.337 141.122 215.166 141.875 215.31C142.498 215.442 143.099 215.662 143.66 215.963C143.948 216.121 144.113 216.314 144.55 216.348" fill="#D33833"/>
<path d="M144.547 216.347L144.541 216.522C144.301 216.68 143.916 216.677 143.655 216.809C144.041 216.825 144.345 216.918 144.609 217.051L144.592 217.489C144.155 217.788 143.755 218.235 143.239 218.516C142.997 218.649 142.14 218.991 141.881 218.93C141.733 218.897 141.72 218.714 141.662 218.542C141.538 218.173 141.251 217.59 141.225 217.036C141.193 216.337 141.122 215.166 141.875 215.31C142.498 215.442 143.099 215.662 143.66 215.963C143.948 216.121 144.113 216.314 144.55 216.348L144.547 216.347Z" stroke="#D33833" stroke-width="0.36139"/>
<path fill-rule="evenodd" clip-rule="evenodd" d="M144.981 217.181C144.915 216.801 144.837 216.691 144.868 216.358C145.883 215.681 146.073 217.52 144.981 217.181Z" fill="#D33833"/>
<path d="M144.981 217.181C144.915 216.801 144.837 216.691 144.868 216.358C145.883 215.681 146.073 217.52 144.981 217.181Z" stroke="#D33833" stroke-width="0.36139"/>
<path fill-rule="evenodd" clip-rule="evenodd" d="M146.453 217.489C146.453 217.489 146.136 217.038 146.362 216.903C146.588 216.768 146.813 216.903 146.948 216.677C147.083 216.452 146.948 216.317 146.994 216.045C147.039 215.772 147.265 215.728 147.489 215.684C147.714 215.64 148.346 215.549 148.436 215.775L148.165 214.962L147.624 214.783L145.911 215.775L145.82 216.27V217.262L146.453 217.489ZM141.707 218.976L141.532 216.867C141.426 215.818 141.785 216 142.694 216C142.833 216 143.538 216.166 143.601 216.271C143.847 216.773 143.179 216.662 143.886 217.041C144.472 217.361 145.508 216.847 145.27 216.136C145.137 215.978 144.58 216.087 144.379 215.983L143.322 215.435C142.874 215.203 141.839 214.863 141.361 215.188C140.15 216.011 141.437 218.069 141.869 218.928" fill="#EF3D3A"/>
<path fill-rule="evenodd" clip-rule="evenodd" d="M142.904 203.001C141.675 202.716 141.065 203.515 140.691 204.345C140.359 204.265 140.48 203.813 140.586 203.582C140.797 202.977 141.693 202.172 142.417 202.28C142.729 202.328 143.151 202.613 142.914 203.001H142.904ZM148.892 204.39L148.95 204.392C149.227 204.969 149.477 205.58 149.818 206.079C149.583 206.626 148.041 207.11 148.064 206.128C148.397 205.982 148.973 206.098 149.27 205.912C149.099 205.442 148.852 205.043 148.89 204.379L148.892 204.39ZM143.532 204.415C143.796 204.898 143.88 205.406 144.256 205.77C144.425 205.935 144.752 206.135 144.59 206.593C144.475 206.769 144.31 206.907 144.116 206.988C143.53 207.161 142.165 207.024 142.639 206.294C143.124 206.315 143.774 206.609 144.137 206.257C143.858 205.815 143.364 204.934 143.546 204.416L143.532 204.415ZM148.682 209.325C147.801 209.892 146.818 210.507 145.373 210.365C145.064 210.097 144.947 209.501 145.246 209.105C145.402 209.373 145.304 209.868 145.74 209.941C146.559 210.082 147.514 209.44 148.102 209.216C148.468 208.599 148.071 208.372 147.741 207.975C147.067 207.163 146.163 206.155 146.195 204.938C146.467 204.741 146.491 205.24 146.531 205.33C146.883 206.153 147.769 207.208 148.415 207.914C148.574 208.088 148.837 208.255 148.865 208.37C148.949 208.704 148.646 209.104 148.681 209.326L148.682 209.325ZM137.048 208.729C136.772 208.57 136.707 207.876 136.382 207.856C135.918 207.828 136.002 208.758 136.004 209.301C135.685 209.011 135.629 208.12 135.863 207.661C135.596 207.53 135.476 207.806 135.328 207.904C135.518 206.52 137.353 207.271 137.047 208.73L137.048 208.729ZM149.234 209.89C148.812 210.67 148.242 211.531 147.038 211.556C147.014 211.303 146.996 210.92 147.039 210.768C147.96 210.68 148.528 210.211 149.233 209.89H149.234ZM143.464 210.396C144.232 210.8 145.644 210.843 146.688 210.812C146.744 211.041 146.743 211.324 146.745 211.603C145.402 211.67 143.816 211.34 143.475 210.396H143.464ZM143.328 211.149C143.859 212.483 145.685 212.33 147.225 212.292C147.157 212.465 147.01 212.67 146.827 212.744C146.334 212.954 144.973 213.097 144.289 212.733C143.854 212.501 143.576 211.98 143.337 211.674C143.232 211.526 142.65 211.149 143.329 211.147" fill="#231F20"/>
<path fill-rule="evenodd" clip-rule="evenodd" d="M148.608 218.518L146.649 221.624C146.959 220.713 147.092 219.188 147.138 218.024C147.787 217.72 148.343 218.092 148.608 218.52" fill="#81B0C4"/>
<path fill-rule="evenodd" clip-rule="evenodd" d="M151.962 222.355C151.264 222.495 150.774 223.174 150.093 223.13C150.468 222.602 151.123 222.391 151.962 222.355ZM152.27 223.448C151.701 223.508 151.033 223.6 150.456 223.554C150.73 223.136 151.782 223.279 152.27 223.448ZM152.467 224.389C151.828 224.403 151.033 224.39 150.425 224.339C150.784 223.953 152.053 224.196 152.467 224.389Z" fill="#231F20"/>
<path fill-rule="evenodd" clip-rule="evenodd" d="M147.405 226.966C147.497 227.768 147.816 228.583 147.774 229.461C147.421 229.58 147.217 229.685 146.744 229.683L146.64 227.081C146.872 227.097 147.217 226.914 147.404 226.975" fill="#DCD9D8"/>
<path fill-rule="evenodd" clip-rule="evenodd" d="M146.375 215.133C146.054 215.344 145.78 215.604 145.472 215.829C144.788 215.863 144.415 215.781 143.913 215.389C143.922 215.357 143.972 215.371 143.973 215.333C144.705 215.66 145.635 215.2 146.375 215.133Z" fill="#F0D6B7"/>
<path fill-rule="evenodd" clip-rule="evenodd" d="M142.532 220.121C142.733 219.25 143.522 218.798 144.237 218.317C144.975 219.256 145.424 220.458 145.919 221.623C144.75 221.27 143.557 220.699 142.534 220.12" fill="#81B0C4"/>
<path fill-rule="evenodd" clip-rule="evenodd" d="M146.642 227.081C146.613 227.793 146.712 228.937 146.746 229.683C147.22 229.684 147.423 229.58 147.776 229.462C147.816 228.582 147.498 227.769 147.407 226.966C147.22 226.917 146.877 227.098 146.643 227.072L146.642 227.081ZM139.268 223.031C139.581 225.902 140.033 228.305 140.863 230.857C142.704 231.416 144.923 231.464 146.552 230.96C146.253 229.526 146.383 227.778 146.209 226.246L145.964 222.762C143.992 222.351 141.205 222.668 139.269 223.028L139.268 223.031ZM146.44 222.784C146.423 224.017 146.495 225.232 146.59 226.467L147.824 226.252C147.681 225.064 147.697 223.726 147.407 222.675C147.07 222.678 146.775 222.671 146.44 222.784ZM148.841 222.585C148.617 222.533 148.356 222.583 148.14 222.587L148.562 225.757C148.899 225.767 149.079 225.609 149.358 225.554C149.373 224.628 149.277 223.352 148.831 222.585H148.841ZM152.478 225.907C153.182 225.737 153.624 224.874 153.427 223.988C153.295 223.393 153.06 222.272 152.808 221.891C152.622 221.61 152.117 221.241 151.714 221.499C151.058 221.919 149.903 222.041 149.426 222.548C149.665 223.347 149.74 224.443 149.839 225.454C150.658 225.505 151.666 225.228 152.347 225.521C151.872 225.675 151.254 225.676 150.844 225.901C151.179 226.063 151.966 226.031 152.479 225.906L152.478 225.907ZM145.931 221.626C145.435 220.462 144.987 219.257 144.248 218.32C143.533 218.8 142.746 219.252 142.544 220.124C143.567 220.704 144.762 221.273 145.929 221.627L145.931 221.626ZM147.15 218.024C147.103 219.187 146.97 220.713 146.66 221.625C147.399 220.683 147.997 219.586 148.62 218.519C148.354 218.093 147.797 217.721 147.15 218.024ZM145.779 217.533C145.498 217.501 145.262 217.854 144.896 217.701L144.651 217.984C145.456 218.954 145.811 220.329 146.444 221.468C146.777 220.374 146.739 219.175 146.813 217.98C146.356 218.009 146.101 217.565 145.78 217.531L145.779 217.533ZM144.89 216.36C144.86 216.692 144.937 216.801 145.003 217.182C146.095 217.524 145.904 215.685 144.89 216.36ZM143.679 215.962C143.118 215.661 142.517 215.441 141.894 215.309C141.141 215.165 141.212 216.337 141.244 217.036C141.269 217.589 141.557 218.175 141.681 218.542C141.74 218.714 141.753 218.895 141.9 218.93C142.159 218.99 143.014 218.648 143.258 218.515C143.775 218.234 144.173 217.777 144.611 217.488L144.628 217.051C144.364 216.92 144.061 216.826 143.674 216.808C143.937 216.676 144.321 216.678 144.559 216.521L144.566 216.346C144.129 216.312 143.965 216.118 143.676 215.961L143.679 215.962ZM139.186 215.146C138.796 215.542 140.281 216.082 140.754 216.112C140.751 215.861 140.898 215.625 140.868 215.444C140.306 215.345 139.567 215.411 139.186 215.146ZM143.995 215.331C143.993 215.371 143.943 215.356 143.935 215.387C144.437 215.78 144.81 215.862 145.494 215.827L146.397 215.131C145.658 215.198 144.727 215.656 143.995 215.331ZM148.41 216.671C148.389 216.23 148.273 215.325 148.001 215.167C147.429 214.834 146.414 215.84 145.984 215.994C146.031 216.129 146.109 216.236 146.114 216.407C146.367 216.344 146.678 216.386 146.899 216.496C146.643 216.524 146.371 216.522 146.192 216.643C146.129 216.823 146.207 217.065 146.166 217.314C146.771 217.485 147.463 217.576 148.228 217.599C148.375 217.406 148.428 217.037 148.41 216.671ZM138.528 215.53C138.406 215.442 137.576 214.363 137.473 214.408C135.973 214.998 134.57 216.021 133.316 216.991C134.512 219.556 134.993 222.7 135.079 225.729C136.45 226.369 137.653 227.293 139.509 227.389L138.975 223.078C138.508 222.881 137.838 223.086 137.402 223.017C137.397 222.489 138.069 222.785 138.125 222.432C138.167 222.164 137.756 222.144 137.89 221.723C138.232 221.847 138.411 222.121 138.776 222.224C139.109 221.496 138.772 220.207 138.818 219.587C138.829 219.473 138.875 218.954 139.131 219.045C139.358 219.125 139.119 220.426 139.142 221.001C139.163 221.532 139.079 222.056 139.293 222.379C141.089 222.134 142.913 221.976 144.856 221.923C144.429 221.739 143.92 221.564 143.364 221.252C143.062 221.083 142.111 220.728 142.024 220.44C141.885 219.983 142.389 219.74 142.474 219.349C141.567 219.844 141.391 218.874 141.177 218.188C140.983 217.566 140.871 217.102 140.825 216.744C140.045 216.371 139.209 216.005 138.536 215.517L138.528 215.53ZM147.616 214.538C148.867 213.932 149.092 216.806 148.602 217.73C148.678 218.006 148.939 218.112 149.045 218.359L146.862 222.012C147.391 221.681 148.148 221.953 148.76 221.695C148.988 221.606 149.152 221.083 149.325 220.667C149.8 219.519 150.298 218.072 150.519 216.976C150.569 216.726 150.706 216.183 150.675 215.96C150.621 215.562 150.082 215.267 149.806 215.011L148.456 213.733C148.242 214.049 147.784 214.26 147.608 214.517L147.616 214.538ZM135.648 203.449C135.052 204.105 135.176 205.332 135.249 206.207C136.325 205.53 137.755 206.259 137.742 207.412C138.257 207.398 137.934 206.769 137.841 206.365C137.538 205.042 138.354 203.606 137.878 202.396C136.956 202.466 136.197 202.843 135.648 203.449ZM139.911 199.644C138.561 200.026 136.833 201.006 136.28 202.217C136.709 202.154 137.007 201.939 137.429 201.901C137.589 201.89 137.798 201.968 137.983 201.922C138.349 201.831 138.658 201.009 138.935 200.704C139.205 200.405 139.529 200.278 139.75 200.005C139.893 199.937 140.104 199.942 140.111 199.728C140.048 199.662 139.984 199.623 139.9 199.623L139.911 199.644ZM146.931 200.002C145.532 199.214 143.162 198.621 141.673 199.362C140.471 199.961 138.847 200.953 138.293 202.21C138.81 203.422 138.14 204.533 138.097 205.764C138.073 206.418 138.405 206.99 138.43 207.704C138.253 207.996 137.713 208.031 137.337 208.012C137.211 207.382 136.989 206.673 136.342 206.601C135.424 206.501 134.751 207.261 134.709 208.057C134.66 208.991 135.426 210.54 136.515 210.433C136.934 210.39 137.038 209.969 137.496 209.974C137.743 210.47 137.113 210.625 137.048 210.978C137.031 211.07 137.101 211.427 137.141 211.595C137.338 212.411 137.779 213.467 138.213 214.088C138.763 214.876 139.843 214.995 141.007 215.072C141.215 214.625 141.98 214.661 142.479 214.779C141.882 214.543 141.326 213.969 140.865 213.461C140.338 212.878 139.8 212.253 139.774 211.492C140.772 212.877 141.598 214.088 143.414 214.698C144.788 215.159 146.395 214.487 147.45 213.744C147.889 213.436 148.151 212.947 148.463 212.5C149.628 210.812 150.171 208.429 150.053 206.109C150.004 205.152 150.006 204.2 149.684 203.556C149.349 202.884 148.214 202.28 147.549 202.89C147.426 202.236 148.102 201.831 148.895 202.067C148.33 201.337 147.735 200.46 146.931 200.007V200.002ZM149.54 221.588C150.633 221.043 152.677 220.124 153.364 221.59C153.617 222.13 153.914 223.043 154.045 223.601C154.231 224.388 153.834 226.041 153.036 226.306C152.322 226.538 151.487 226.525 150.627 226.352C150.526 226.268 150.413 226.12 150.334 225.969C149.719 225.944 149.144 226 148.659 226.253C148.705 226.707 148.397 226.781 148.11 226.876C147.896 227.722 148.538 228.829 148.385 229.601C148.275 230.151 147.598 230.236 147.101 230.339C147.085 230.655 147.122 230.9 147.157 231.158C147.043 231.577 146.533 231.817 146.05 231.876C144.459 232.065 142.044 232.153 140.513 231.601C140.086 230.554 139.749 229.281 139.395 228.084C137.903 228.242 136.695 227.441 135.558 226.914C135.164 226.731 134.609 226.629 134.472 226.317C134.329 226.013 134.387 225.431 134.353 224.882C134.263 223.48 134.184 222.124 133.825 220.687C133.659 220.042 133.369 219.474 133.166 218.852C132.98 218.276 132.653 217.565 132.567 216.989C132.441 216.138 133.242 216.091 133.755 215.722C134.546 215.152 135.168 214.836 136.027 214.321C136.281 214.168 137.048 213.794 137.135 213.604C137.308 213.252 136.837 212.755 136.713 212.479C136.513 212.042 136.41 211.671 136.382 211.239C135.662 211.126 135.116 210.697 134.786 210.214C134.241 209.415 133.862 207.936 134.335 206.811C134.372 206.722 134.546 206.547 134.584 206.412C134.636 206.145 134.482 205.788 134.473 205.503C134.423 204.041 134.721 202.782 135.705 202.339C136.106 200.757 137.535 200.22 138.882 199.426C139.386 199.131 139.941 198.941 140.515 198.73C142.571 197.973 145.729 198.116 147.437 199.407C148.16 199.956 149.318 201.111 149.731 201.949C150.825 204.159 150.747 207.852 149.982 210.54C149.88 210.901 149.729 211.431 149.523 211.865C149.377 212.168 148.927 212.772 148.982 213.041C149.037 213.317 150.01 214.055 150.219 214.257C150.594 214.619 151.307 215.101 151.365 215.556C151.428 216.041 151.151 216.708 151.011 217.177L149.555 221.585" fill="#231F20"/>
<path fill-rule="evenodd" clip-rule="evenodd" d="M142.241 210.75C142.301 210.671 142.627 210.549 143.085 210.771C143.085 210.771 142.544 210.861 142.59 211.762L142.364 211.717C142.364 211.717 142.132 210.898 142.244 210.749" fill="#F7E4CD"/>
<path fill-rule="evenodd" clip-rule="evenodd" d="M146.195 218.504C146.195 218.641 146.085 218.752 145.947 218.752C145.81 218.752 145.7 218.641 145.7 218.504C145.7 218.367 145.81 218.256 145.947 218.256C146.085 218.256 146.195 218.367 146.195 218.504ZM146.442 219.664C146.442 219.801 146.331 219.912 146.194 219.912C146.057 219.912 145.946 219.801 145.946 219.664C145.946 219.527 146.057 219.416 146.194 219.416C146.331 219.416 146.442 219.527 146.442 219.664Z" fill="#1D1919"/>
</g>
</g>
<g filter="url(#filter10_dd_15_50949)">
<g filter="url(#filter11_dd_15_50949)">
<path fill-rule="evenodd" clip-rule="evenodd" d="M184.313 54.1477C184.313 51.4244 186.521 49.2168 189.244 49.2168H235.63C238.353 49.2168 240.561 51.4244 240.561 54.1477V101.939C240.561 104.663 238.353 106.87 235.63 106.87H189.244C186.521 106.87 184.313 104.663 184.313 101.939V54.1477Z" fill="white"/>
</g>
<g clip-path="url(#clip4_15_50949)">
<path d="M214.001 63.9834L204.052 72.611L195.562 87.8497H203.217L214.001 63.9834ZM215.325 66.002L211.079 77.9696L219.22 88.1983L203.426 90.912H229.311L215.325 66.002Z" fill="#0072C6"/>
</g>
</g>
<g filter="url(#filter12_dd_15_50949)">
<g filter="url(#filter13_dd_15_50949)">
<path fill-rule="evenodd" clip-rule="evenodd" d="M184.313 145.55C184.313 142.827 186.521 140.619 189.244 140.619H235.63C238.353 140.619 240.561 142.827 240.561 145.55V193.342C240.561 196.065 238.353 198.273 235.63 198.273H189.244C186.521 198.273 184.313 196.065 184.313 193.342V145.55Z" fill="white"/>
</g>
<g clip-path="url(#clip5_15_50949)">
<path d="M225.683 167.594C225.343 167.091 224.891 166.674 224.363 166.375C223.835 166.076 223.245 165.904 222.639 165.871C222.033 165.838 221.428 165.946 220.871 166.186C220.314 166.426 219.82 166.792 219.427 167.255C219.161 167.542 218.937 167.865 218.761 168.216C218.588 168.553 218.453 168.909 218.36 169.277H215.942C215.889 169.187 215.85 169.09 215.828 168.989C215.499 167.697 214.692 166.773 213.47 166.264C211.116 165.284 208.561 166.584 207.903 169.063C207.86 169.226 207.892 169.41 207.617 169.448C206.476 169.605 205.188 168.952 204.647 167.91C204.282 167.208 204.302 167.147 205.085 167.049C208.339 166.64 210.996 163.337 209.871 159.506C209.056 156.73 206.014 154.929 203.165 155.519C200.479 156.076 198.583 158.315 198.443 161.096C198.313 163.655 200.083 166.101 202.653 166.861C203.04 166.975 203.127 167.147 203.125 167.518C203.112 170.112 203.1 172.707 203.129 175.301C203.155 177.7 204.915 179.653 207.273 179.906C207.717 179.954 207.868 180.111 207.979 180.523C208.418 182.149 209.879 183.306 211.58 183.435C212.396 183.501 213.212 183.317 213.922 182.909C214.631 182.501 215.2 181.888 215.554 181.149C216.593 178.921 215.564 176.376 213.281 175.533C211.02 174.697 208.56 175.992 207.936 178.378C207.829 178.787 207.65 178.812 207.308 178.755C205.556 178.465 204.34 177.069 204.291 175.248C204.271 174.517 204.286 173.785 204.286 173.053C204.286 171.894 204.286 170.735 204.286 169.442C204.85 169.874 205.325 170.2 205.884 170.389C206.44 170.567 207.023 170.641 207.605 170.608C207.886 170.598 207.862 170.809 207.906 170.974C208.207 172.105 208.842 172.986 209.864 173.567C210.407 173.88 211.014 174.062 211.638 174.101C212.263 174.14 212.888 174.034 213.465 173.792C214.042 173.549 214.555 173.177 214.964 172.703C215.373 172.23 215.667 171.668 215.823 171.062C215.846 170.962 215.885 170.867 215.94 170.78H218.398C218.413 170.913 218.441 171.044 218.481 171.172C218.989 173 220.665 174.165 222.582 174.1C224.12 174.048 225.853 173.08 226.382 170.916C226.519 170.345 226.527 169.751 226.406 169.176C226.285 168.602 226.038 168.061 225.683 167.594ZM211.889 176.465C212.272 176.461 212.652 176.534 213.007 176.679C213.362 176.824 213.685 177.038 213.956 177.308C214.227 177.579 214.442 177.901 214.587 178.256C214.732 178.611 214.806 178.991 214.803 179.374C214.804 179.952 214.635 180.517 214.315 180.998C213.995 181.479 213.54 181.854 213.007 182.076C212.473 182.299 211.886 182.357 211.32 182.245C210.753 182.134 210.232 181.856 209.823 181.448C209.414 181.04 209.136 180.519 209.023 179.953C208.91 179.386 208.968 178.799 209.189 178.265C209.411 177.732 209.785 177.276 210.266 176.955C210.746 176.635 211.311 176.464 211.889 176.465ZM199.644 161.234C199.655 160.005 200.152 158.83 201.026 157.965C201.899 157.1 203.08 156.616 204.309 156.619C205.538 156.621 206.717 157.109 207.587 157.976C208.458 158.844 208.951 160.021 208.957 161.25C208.961 161.865 208.843 162.474 208.61 163.043C208.377 163.611 208.034 164.128 207.601 164.564C207.167 165 206.651 165.345 206.084 165.58C205.516 165.816 204.907 165.936 204.293 165.935C203.678 165.934 203.07 165.811 202.503 165.574C201.936 165.337 201.421 164.989 200.989 164.552C200.557 164.115 200.216 163.597 199.985 163.028C199.754 162.458 199.638 161.848 199.644 161.234ZM211.869 172.934C211.295 172.928 210.735 172.753 210.26 172.43C209.785 172.107 209.417 171.65 209.201 171.118C208.986 170.585 208.933 170.001 209.049 169.439C209.166 168.876 209.446 168.361 209.855 167.958C210.264 167.554 210.783 167.281 211.347 167.173C211.911 167.065 212.495 167.126 213.024 167.349C213.553 167.572 214.005 167.947 214.321 168.426C214.638 168.905 214.805 169.468 214.802 170.042C214.801 170.425 214.723 170.803 214.575 171.156C214.427 171.509 214.21 171.829 213.937 172.098C213.665 172.367 213.341 172.579 212.987 172.722C212.632 172.866 212.252 172.938 211.869 172.934ZM221.115 172.646C220.467 172.335 219.955 171.797 219.678 171.133C219.401 170.47 219.378 169.727 219.613 169.048C219.849 168.368 220.325 167.799 220.953 167.449C221.581 167.098 222.316 166.991 223.018 167.147C223.719 167.304 224.339 167.713 224.759 168.297C225.178 168.881 225.368 169.598 225.293 170.313C225.217 171.028 224.881 171.691 224.349 172.174C223.816 172.657 223.124 172.927 222.406 172.933C222.378 172.934 222.351 172.932 222.324 172.932C221.906 172.919 221.495 172.822 221.115 172.646V172.646Z" fill="#2671E5"/>
<path d="M206.696 160.279C205.74 159.648 204.77 159.037 203.787 158.446C202.921 157.923 201.988 158.451 201.963 159.465C201.949 160.063 201.96 160.661 201.961 161.259C201.962 161.874 201.95 162.489 201.965 163.103C201.987 164.056 202.901 164.604 203.719 164.128C204.723 163.543 205.711 162.932 206.685 162.295C207.495 161.766 207.497 160.807 206.696 160.279ZM205.9 161.418C205.065 161.933 204.231 162.45 203.397 162.966C203.253 163.056 203.141 163.065 203.141 162.85C203.139 161.741 203.14 160.633 203.14 159.419C204.117 160.033 205.012 160.595 205.906 161.158C206.041 161.244 206.037 161.332 205.9 161.418Z" fill="#2671E5"/>
<path d="M210.707 179.943C211.061 179.92 211.277 179.72 211.29 179.388C211.299 179.313 211.291 179.237 211.267 179.166C211.244 179.094 211.205 179.029 211.154 178.974C211.103 178.919 211.04 178.875 210.971 178.846C210.901 178.818 210.826 178.804 210.751 178.807C210.381 178.793 210.158 179 210.153 179.375C210.148 179.734 210.375 179.899 210.707 179.943Z" fill="#2671E5"/>
<path d="M213.077 179.935C213.419 179.885 213.639 179.701 213.62 179.343C213.603 178.991 213.379 178.791 213.028 178.808C212.68 178.824 212.466 179.04 212.481 179.391C212.496 179.742 212.728 179.915 213.077 179.935Z" fill="#2671E5"/>
<path d="M223.915 169.7C224.049 169.567 224.156 169.424 224.142 169.207C224.149 169.1 224.122 168.994 224.065 168.904C224.009 168.813 223.925 168.742 223.826 168.702C223.723 168.645 223.603 168.625 223.486 168.644C223.37 168.662 223.263 168.72 223.182 168.806C222.873 169.084 222.579 169.378 222.301 169.687C221.986 170.057 221.727 170.231 221.341 169.75C221.114 169.468 220.77 169.474 220.507 169.749C220.259 170.008 220.299 170.302 220.528 170.555C220.773 170.826 221.035 171.083 221.301 171.333C221.671 171.678 221.922 171.679 222.291 171.32C222.839 170.788 223.374 170.24 223.915 169.7Z" fill="#2671E5"/>
<path d="M213.344 168.713C213.243 168.651 213.125 168.624 213.008 168.637C212.89 168.65 212.781 168.702 212.696 168.784C212.397 169.047 212.112 169.326 211.842 169.619C211.515 169.986 211.235 170.273 210.797 169.724C210.583 169.455 210.247 169.493 210.002 169.743C209.753 169.998 209.778 170.29 210.012 170.545C210.269 170.826 210.547 171.089 210.819 171.357C211.144 171.677 211.462 171.646 211.774 171.334C212.313 170.794 212.853 170.254 213.394 169.715C213.539 169.571 213.663 169.418 213.64 169.199C213.644 169.098 213.618 168.998 213.565 168.912C213.512 168.825 213.435 168.756 213.344 168.713Z" fill="#2671E5"/>
</g>
</g>
<g filter="url(#filter14_dd_15_50949)">
<g filter="url(#filter15_dd_15_50949)">
<path fill-rule="evenodd" clip-rule="evenodd" d="M184.313 236.952C184.313 234.229 186.521 232.021 189.244 232.021H235.63C238.353 232.021 240.561 234.229 240.561 236.952V284.744C240.561 287.467 238.353 289.675 235.63 289.675H189.244C186.521 289.675 184.313 287.467 184.313 284.744V236.952Z" fill="white"/>
</g>
<path d="M224.641 260.278L214.204 250.042C213.603 249.452 212.628 249.452 212.027 250.042L209.86 252.168L212.609 254.864C213.248 254.653 213.98 254.795 214.49 255.294C215.002 255.797 215.145 256.522 214.924 257.15L217.574 259.749C218.215 259.533 218.955 259.673 219.467 260.176C220.182 260.877 220.182 262.015 219.467 262.717C218.751 263.419 217.591 263.419 216.875 262.717C216.337 262.188 216.204 261.413 216.477 260.762L214.006 258.339L214.005 264.717C214.18 264.802 214.345 264.915 214.49 265.057C215.205 265.758 215.205 266.895 214.49 267.598C213.774 268.3 212.614 268.3 211.899 267.598C211.184 266.895 211.184 265.758 211.899 265.057C212.076 264.884 212.281 264.753 212.499 264.665V258.227C212.281 258.14 212.076 258.009 211.899 257.835C211.357 257.304 211.227 256.524 211.505 255.871L208.795 253.212L201.638 260.231C201.037 260.821 201.037 261.778 201.638 262.367L212.075 272.604C212.676 273.194 213.651 273.194 214.253 272.604L224.641 262.415C225.242 261.825 225.242 260.868 224.641 260.278Z" fill="#DE4C36"/>
</g>
<g filter="url(#filter16_dd_15_50949)">
<g filter="url(#filter17_dd_15_50949)">
<path fill-rule="evenodd" clip-rule="evenodd" d="M254.623 99.8489C254.623 97.1256 256.83 94.918 259.554 94.918H305.939C308.662 94.918 310.87 97.1256 310.87 99.8489V147.641C310.87 150.364 308.662 152.572 305.939 152.572H259.554C256.83 152.572 254.623 150.364 254.623 147.641V99.8489Z" fill="white"/>
</g>
<g clip-path="url(#clip6_15_50949)">
<mask id="mask0_15_50949" style="mask-type:alpha" maskUnits="userSpaceOnUse" x="265" y="106" width="36" height="38">
<path d="M300.043 106.871H265.925V143.256H300.043V106.871Z" fill="white"/>
</mask>
<g mask="url(#mask0_15_50949)">
<path d="M296.302 124.651L297.132 135.25L282.431 137.888L281.165 127.289L283.265 126.996C283.607 127.142 283.852 127.191 284.242 127.289C284.877 127.436 285.61 127.631 286.684 127.045C286.928 126.898 287.465 126.458 287.661 126.166L296.302 124.651ZM273.588 137.254C273.344 136.863 272.904 136.423 272.221 135.886C271.243 135.104 271.586 133.736 272.172 132.906C272.91 131.49 276.763 129.634 276.568 127.338C276.47 126.507 276.373 125.433 275.591 124.651C275.542 124.944 275.591 125.238 275.591 125.238C275.591 125.238 275.249 124.847 275.102 124.261C274.956 124.065 274.809 123.967 274.663 123.674C274.565 124.016 274.565 124.358 274.565 124.358C274.565 124.358 274.321 123.723 274.272 123.235C274.125 123.479 274.077 123.919 274.077 123.919C274.077 123.919 273.735 122.942 273.833 122.405C273.686 121.966 273.198 121.038 273.344 118.986C274.175 119.573 276.031 119.426 276.763 118.351C277.008 118.01 277.154 117.033 276.666 115.127C276.324 113.906 275.494 112.099 275.152 111.415L275.103 111.464C275.299 112.002 275.641 113.174 275.787 113.76C276.178 115.47 276.325 116.056 276.129 116.837C275.982 117.521 275.591 117.961 274.566 118.449C273.589 118.938 272.222 117.711 272.172 117.668C271.195 116.886 270.462 115.611 270.365 115.03C270.267 114.346 270.755 113.956 271 113.418C270.658 113.516 270.262 113.711 270.262 113.711C270.262 113.711 270.701 113.223 271.287 112.832C271.51 112.703 271.722 112.555 271.922 112.393H271.294C271.294 112.393 271.88 112.051 272.515 111.855H271.636L273.981 110.829C274.719 110.536 275.397 110.634 275.788 111.171C276.326 111.909 276.863 112.294 277.986 112.587C278.67 112.294 278.914 112.099 279.793 111.849C280.574 110.97 281.209 110.872 281.209 110.872C281.209 110.872 280.769 111.262 280.721 111.702C281.161 111.361 281.649 111.068 281.649 111.068C281.649 111.068 281.454 111.312 281.307 111.654L281.356 111.703C281.894 111.41 282.48 111.165 282.48 111.165C282.48 111.165 282.284 111.36 282.089 111.653C282.48 111.653 283.262 111.653 283.555 111.702C285.362 111.751 285.753 109.797 286.437 109.505C287.316 109.211 287.707 109.016 289.172 110.482C290.442 111.751 291.419 113.95 290.931 114.438C290.541 114.828 289.71 114.292 288.782 113.168C288.293 112.582 287.951 111.85 287.756 110.97C287.658 110.232 287.121 109.798 287.121 109.798C287.121 109.798 287.463 110.536 287.463 111.166C287.463 111.508 287.512 112.778 288.049 113.511C288 113.608 287.952 114.048 287.903 114.097C287.268 113.315 285.846 112.779 285.656 112.584C286.438 113.218 288.196 114.64 288.88 116.003C289.515 117.321 289.124 118.494 289.467 118.787C289.564 118.884 290.834 120.448 291.079 121.278C291.518 122.694 291.128 124.16 290.541 125.039L288.978 125.283C288.774 125.248 288.576 125.182 288.391 125.087C288.489 124.892 288.733 124.403 288.733 124.306L288.635 124.159C288.147 124.843 287.317 125.527 286.633 125.918C285.754 126.406 284.728 126.358 284.049 126.113C282.144 125.527 280.337 124.257 279.946 123.915C279.946 123.915 279.946 124.159 279.995 124.257C280.786 125.089 281.672 125.827 282.633 126.455L280.387 126.699L281.461 135.003C280.973 135.052 280.923 135.1 280.387 135.198C279.947 133.586 279.068 132.56 278.091 131.925C277.26 131.387 276.088 131.241 274.965 131.485L274.916 131.583C275.697 131.485 276.625 131.632 277.553 132.218C278.481 132.804 279.214 134.318 279.507 135.197C279.849 136.369 280.093 137.591 279.165 138.909C278.481 139.838 276.528 140.375 274.965 139.251C275.405 139.935 275.942 140.472 276.723 140.569C277.847 140.716 278.921 140.52 279.703 139.788C280.338 139.153 280.68 137.785 280.582 136.32L281.607 136.173L281.949 138.757L298.598 136.77L297.132 123.484L296.302 123.631L294.641 106.871L266.897 110.095L270.316 137.741L273.588 137.254Z" fill="#5C2D90"/>
<path d="M286.789 122.723C287.527 123.261 288.157 123.602 288.792 123.553C289.182 123.504 289.573 122.87 289.817 122.284C290.012 121.893 290.012 121.453 289.72 121.307C289.573 121.257 288.981 121.257 288.547 121.307C287.717 121.404 286.886 121.697 286.691 121.844C286.398 122.04 286.545 122.528 286.789 122.723V122.723ZM286.984 117.007V117.056L287.033 117.154C287.228 117.544 287.423 117.935 287.814 118.131C287.912 118.131 288.01 118.082 288.108 118.082C288.449 118.082 288.645 118.131 288.792 118.18V117.886C288.743 117.398 288.889 116.518 287.913 116.03C287.522 115.835 287.033 115.933 286.838 116.128H286.935C287.18 116.225 287.033 116.323 286.984 116.421C286.935 116.616 286.887 116.665 286.984 117.007" fill="#5C2D90"/>
<path d="M282.588 117.105C282.832 116.91 281.464 116.617 280.39 117.3C279.608 117.838 279.608 118.961 280.341 119.596C280.414 119.633 280.48 119.682 280.536 119.743C280.731 119.645 281.024 119.548 281.274 119.449C281.762 119.303 282.153 119.205 282.495 119.156C282.642 118.961 282.837 118.668 282.789 118.131C282.739 117.392 282.154 117.544 282.593 117.105H282.588ZM290.555 128.97L288.21 132.872L285.475 132.041L283.081 135.705L283.179 136.877L296.269 134.483L295.488 126.325L293.339 130.819L290.555 128.97Z" fill="#5C2D90"/>
</g>
</g>
</g>
<g filter="url(#filter18_dd_15_50949)">
<g filter="url(#filter19_dd_15_50949)">
<path fill-rule="evenodd" clip-rule="evenodd" d="M254.623 191.251C254.623 188.528 256.83 186.32 259.554 186.32H305.939C308.663 186.32 310.87 188.528 310.87 191.251V239.043C310.87 241.766 308.663 243.974 305.939 243.974H259.554C256.83 243.974 254.623 241.766 254.623 239.043V191.251Z" fill="white"/>
</g>
<path fill-rule="evenodd" clip-rule="evenodd" d="M284.193 199.72L298.657 214.183C299.139 214.666 299.139 215.63 298.657 216.112L293.836 220.933L293.595 221.174L282.747 232.022L276.721 225.995L266.837 216.112C266.355 215.63 266.355 214.666 266.837 214.183L271.899 209.121L282.747 198.273L284.193 199.72ZM277.685 215.148L282.747 220.21L287.809 215.148L282.747 210.085L277.685 215.148Z" fill="#2684FF"/>
<path d="M282.747 210.085C279.372 206.952 279.372 201.648 282.747 198.273L271.899 209.121L277.685 215.148L282.747 210.085Z" fill="url(#paint2_linear_15_50949)"/>
<path d="M287.809 215.147L282.747 220.21C286.122 223.585 286.122 228.888 282.747 232.022L293.595 221.174L287.809 215.147Z" fill="url(#paint3_linear_15_50949)"/>
</g>
<g filter="url(#filter20_dd_15_50949)">
<g filter="url(#filter21_dd_15_50949)">
<path fill-rule="evenodd" clip-rule="evenodd" d="M324.932 54.8508C324.932 52.1276 327.14 49.9199 329.863 49.9199H376.248C378.972 49.9199 381.179 52.1276 381.179 54.8508V102.643C381.179 105.366 378.972 107.574 376.248 107.574H329.863C327.14 107.574 324.932 105.366 324.932 102.643V54.8508Z" fill="white"/>
</g>
<g clip-path="url(#clip7_15_50949)">
<path d="M345.772 76.2637C345.772 76.6738 345.817 77.0063 345.895 77.2501C345.983 77.494 346.094 77.76 346.25 78.0481C346.305 78.1368 346.328 78.2255 346.328 78.303C346.328 78.4139 346.261 78.5247 346.117 78.6355L345.417 79.101C345.317 79.1675 345.217 79.2008 345.129 79.2008C345.018 79.2008 344.907 79.1454 344.796 79.0456C344.64 78.8794 344.507 78.702 344.396 78.5247C344.285 78.3363 344.174 78.1257 344.052 77.8708C343.186 78.8904 342.098 79.4003 340.788 79.4003C339.855 79.4003 339.112 79.1343 338.568 78.6023C338.024 78.0703 337.746 77.361 337.746 76.4743C337.746 75.5322 338.079 74.7675 338.756 74.1912C339.434 73.6148 340.333 73.3267 341.476 73.3267C341.854 73.3267 342.242 73.3599 342.653 73.4153C343.064 73.4707 343.486 73.5594 343.93 73.6592V72.8501C343.93 72.0078 343.752 71.4203 343.408 71.0768C343.053 70.7332 342.453 70.5669 341.598 70.5669C341.21 70.5669 340.81 70.6113 340.399 70.711C339.989 70.8108 339.589 70.9327 339.2 71.0878C339.023 71.1654 338.89 71.2098 338.812 71.2319C338.734 71.2541 338.679 71.2652 338.634 71.2652C338.479 71.2652 338.401 71.1543 338.401 70.9216V70.3785C338.401 70.2012 338.423 70.0682 338.479 69.9906C338.534 69.913 338.634 69.8354 338.79 69.7579C339.178 69.5584 339.644 69.3921 340.188 69.2591C340.732 69.115 341.31 69.0485 341.92 69.0485C343.241 69.0485 344.207 69.3478 344.829 69.9463C345.439 70.5448 345.75 71.4536 345.75 72.6728V76.2637H345.772ZM341.265 77.9484C341.632 77.9484 342.009 77.8819 342.409 77.7489C342.808 77.6159 343.164 77.372 343.463 77.0395C343.641 76.829 343.774 76.5962 343.841 76.3302C343.907 76.0642 343.952 75.7428 343.952 75.366V74.9005C343.63 74.8229 343.286 74.7564 342.93 74.7121C342.575 74.6677 342.231 74.6456 341.887 74.6456C341.143 74.6456 340.599 74.7896 340.233 75.0889C339.866 75.3881 339.689 75.8093 339.689 76.3635C339.689 76.8844 339.822 77.2723 340.1 77.5383C340.366 77.8154 340.755 77.9484 341.265 77.9484ZM350.18 79.1454C349.98 79.1454 349.847 79.1121 349.758 79.0345C349.669 78.968 349.591 78.8129 349.525 78.6023L346.916 70.0349C346.849 69.8133 346.816 69.6692 346.816 69.5916C346.816 69.4143 346.905 69.3145 347.082 69.3145H348.17C348.381 69.3145 348.526 69.3478 348.603 69.4254C348.692 69.4919 348.759 69.647 348.825 69.8576L350.69 77.1947L352.422 69.8576C352.478 69.6359 352.544 69.4919 352.633 69.4254C352.722 69.3589 352.877 69.3145 353.077 69.3145H353.965C354.176 69.3145 354.321 69.3478 354.409 69.4254C354.498 69.4919 354.576 69.647 354.62 69.8576L356.374 77.2834L358.295 69.8576C358.362 69.6359 358.439 69.4919 358.517 69.4254C358.606 69.3589 358.75 69.3145 358.95 69.3145H359.982C360.16 69.3145 360.26 69.4032 360.26 69.5916C360.26 69.647 360.249 69.7024 360.238 69.7689C360.227 69.8354 360.204 69.9241 360.16 70.046L357.484 78.6134C357.418 78.835 357.34 78.9791 357.251 79.0456C357.163 79.1121 357.018 79.1564 356.83 79.1564H355.875C355.664 79.1564 355.52 79.1232 355.431 79.0456C355.342 78.968 355.264 78.8239 355.22 78.6023L353.499 71.4536L351.789 78.5912C351.734 78.8129 351.667 78.9569 351.579 79.0345C351.49 79.1121 351.334 79.1454 351.134 79.1454H350.18ZM364.445 79.4446C363.868 79.4446 363.291 79.3781 362.735 79.2451C362.18 79.1121 361.747 78.968 361.459 78.8018C361.281 78.702 361.159 78.5912 361.115 78.4915C361.07 78.3917 361.048 78.2809 361.048 78.1811V77.6159C361.048 77.3831 361.137 77.2723 361.303 77.2723C361.37 77.2723 361.437 77.2834 361.503 77.3055C361.57 77.3277 361.67 77.372 361.781 77.4164C362.158 77.5826 362.569 77.7156 363.002 77.8043C363.446 77.893 363.879 77.9373 364.323 77.9373C365.022 77.9373 365.566 77.8154 365.944 77.5715C366.321 77.3277 366.521 76.973 366.521 76.5186C366.521 76.2083 366.421 75.9534 366.221 75.7428C366.022 75.5322 365.644 75.3438 365.1 75.1665L363.49 74.6677C362.68 74.4128 362.081 74.036 361.714 73.5372C361.348 73.0496 361.159 72.5065 361.159 71.9302C361.159 71.4647 361.259 71.0546 361.459 70.6999C361.659 70.3453 361.925 70.0349 362.258 69.7911C362.591 69.5362 362.969 69.3478 363.413 69.2148C363.857 69.0818 364.323 69.0264 364.811 69.0264C365.056 69.0264 365.311 69.0375 365.555 69.0707C365.811 69.1039 366.044 69.1483 366.277 69.1926C366.499 69.248 366.71 69.3034 366.91 69.3699C367.109 69.4364 367.265 69.5029 367.376 69.5694C367.531 69.6581 367.642 69.7468 367.709 69.8465C367.776 69.9352 367.809 70.0571 367.809 70.2123V70.7332C367.809 70.9659 367.72 71.0878 367.554 71.0878C367.465 71.0878 367.32 71.0435 367.132 70.9549C366.499 70.6667 365.788 70.5226 365 70.5226C364.367 70.5226 363.868 70.6224 363.524 70.8329C363.18 71.0435 363.002 71.3649 363.002 71.8193C363.002 72.1297 363.113 72.3957 363.335 72.6063C363.557 72.8168 363.968 73.0274 364.556 73.2158L366.133 73.7146C366.932 73.9695 367.509 74.3242 367.853 74.7786C368.197 75.233 368.364 75.7539 368.364 76.3302C368.364 76.8068 368.264 77.239 368.075 77.6159C367.875 77.9927 367.609 78.3252 367.265 78.5912C366.921 78.8683 366.51 79.0678 366.033 79.2119C365.533 79.367 365.011 79.4446 364.445 79.4446Z" fill="#252F3E"/>
<path fill-rule="evenodd" clip-rule="evenodd" d="M366.543 84.8301C362.891 87.5233 357.584 88.9531 353.022 88.9531C346.627 88.9531 340.866 86.5923 336.514 82.6689C336.17 82.3586 336.481 81.9374 336.891 82.1812C341.598 84.9077 347.404 86.5591 353.41 86.5591C357.462 86.5591 361.914 85.7168 366.01 83.9878C366.621 83.7107 367.143 84.3868 366.543 84.8301Z" fill="#FF9900"/>
<path fill-rule="evenodd" clip-rule="evenodd" d="M368.064 83.1015C367.598 82.503 364.978 82.8133 363.79 82.9574C363.435 83.0017 363.379 82.6914 363.701 82.4587C365.788 80.9957 369.219 81.4168 369.618 81.9045C370.018 82.4032 369.507 85.828 367.554 87.4683C367.254 87.7232 366.965 87.5902 367.098 87.2577C367.542 86.1605 368.53 83.6889 368.064 83.1015Z" fill="#FF9900"/>
</g>
</g>
<g filter="url(#filter22_dd_15_50949)">
<g filter="url(#filter23_dd_15_50949)">
<path fill-rule="evenodd" clip-rule="evenodd" d="M324.932 145.55C324.932 142.827 327.139 140.619 329.863 140.619H376.248C378.972 140.619 381.179 142.827 381.179 145.55V193.342C381.179 196.065 378.972 198.273 376.248 198.273H329.863C327.139 198.273 324.932 196.065 324.932 193.342V145.55Z" fill="white"/>
</g>
<g clip-path="url(#clip8_15_50949)">
<path d="M347.394 155.388C346.962 157.668 346.434 161.053 346.146 164.486C345.641 170.535 345.954 174.593 345.954 174.593L337.431 182.683C337.431 182.683 336.783 178.145 336.447 173.032C336.255 169.863 336.183 167.079 336.183 165.398C336.183 165.302 336.231 165.206 336.231 165.11C336.231 164.99 336.375 163.862 337.479 162.805C338.68 161.653 347.538 154.715 347.394 155.388Z" fill="#1496FF"/>
<path d="M347.394 155.388C346.962 157.669 346.434 161.053 346.146 164.486C346.146 164.486 336.711 163.358 336.183 165.639C336.183 165.519 336.351 164.126 337.455 163.07C338.656 161.918 347.538 154.716 347.394 155.388Z" fill="#1284EA"/>
<path d="M336.183 165.086V165.614C336.279 165.206 336.447 164.918 336.783 164.462C337.479 163.574 338.608 163.334 339.064 163.286C341.368 162.974 344.777 162.613 348.21 162.517C354.284 162.325 358.293 162.83 358.293 162.83L366.815 154.739C366.815 154.739 362.35 153.899 357.26 153.299C353.924 152.891 350.995 152.675 349.338 152.579C349.218 152.579 348.042 152.435 346.938 153.491C345.737 154.643 339.64 160.429 337.191 162.758C336.087 163.814 336.183 164.99 336.183 165.086Z" fill="#B4DC00"/>
<path d="M366.503 175.433C364.198 175.745 360.789 176.129 357.356 176.249C351.283 176.441 347.25 175.937 347.25 175.937L338.728 184.051C338.728 184.051 343.241 184.94 348.33 185.516C351.451 185.876 354.212 186.068 355.892 186.164C356.012 186.164 356.204 186.068 356.324 186.068C356.444 186.068 357.62 185.852 358.725 184.796C359.925 183.643 367.175 175.361 366.503 175.433Z" fill="#6F2DA8"/>
<path d="M366.503 175.433C364.198 175.745 360.789 176.129 357.356 176.249C357.356 176.249 358.004 185.732 355.724 186.14C355.844 186.14 357.404 186.068 358.509 185.012C359.709 183.859 367.175 175.361 366.503 175.433Z" fill="#591F91"/>
<path d="M356.228 186.188C356.06 186.188 355.892 186.164 355.7 186.164C356.132 186.092 356.42 185.948 356.876 185.612C357.788 184.963 358.077 183.835 358.173 183.379C358.581 181.098 359.133 177.714 359.397 174.281C359.877 168.231 359.589 164.198 359.589 164.198L368.111 156.084C368.111 156.084 368.735 160.597 369.095 165.71C369.311 169.047 369.384 172 369.408 173.633C369.408 173.753 369.504 174.929 368.399 175.985C367.199 177.137 361.101 182.947 358.677 185.276C357.524 186.332 356.348 186.188 356.228 186.188Z" fill="#73BE28"/>
</g>
</g>
<g filter="url(#filter24_dd_15_50949)">
<g filter="url(#filter25_dd_15_50949)">
<path fill-rule="evenodd" clip-rule="evenodd" d="M324.932 236.249C324.932 233.526 327.139 231.318 329.863 231.318H376.248C378.972 231.318 381.179 233.526 381.179 236.249V284.041C381.179 286.764 378.972 288.972 376.248 288.972H329.863C327.139 288.972 324.932 286.764 324.932 284.041V236.249Z" fill="white"/>
</g>
<path d="M349.639 257.92L356.646 261.113L363.712 254.918C363.817 254.406 363.866 253.884 363.861 253.362C363.862 251.676 363.323 250.033 362.324 248.676C361.324 247.318 359.915 246.316 358.304 245.817C356.693 245.317 354.965 245.347 353.373 245.902C351.78 246.456 350.407 247.506 349.455 248.898L348.273 254.999L349.639 257.92Z" fill="#FED10A"/>
<path d="M342.388 265.334C342.284 265.854 342.234 266.385 342.24 266.916C342.242 268.609 342.787 270.257 343.793 271.618C344.8 272.979 346.217 273.982 347.835 274.479C349.453 274.977 351.189 274.943 352.786 274.383C354.384 273.823 355.76 272.766 356.714 271.366L357.874 265.293L356.324 262.317L349.29 259.111L342.388 265.334Z" fill="#24BBB1"/>
<path d="M342.348 253.212L347.149 254.345L348.204 248.894C347.551 248.397 346.756 248.125 345.936 248.119C345.117 248.113 344.317 248.373 343.658 248.859C342.998 249.346 342.514 250.033 342.278 250.818C342.042 251.602 342.067 252.443 342.348 253.212Z" fill="#EF5098"/>
<path d="M341.929 254.363C340.89 254.705 339.983 255.359 339.332 256.238C338.68 257.116 338.317 258.174 338.292 259.267C338.267 260.36 338.581 261.434 339.191 262.341C339.801 263.248 340.677 263.944 341.699 264.333L348.436 258.248L347.205 255.611L341.929 254.363Z" fill="#17A8E0"/>
<path d="M357.932 271.366C358.583 271.86 359.377 272.131 360.196 272.136C361.014 272.142 361.812 271.882 362.47 271.396C363.128 270.91 363.611 270.224 363.846 269.44C364.081 268.657 364.057 267.818 363.775 267.05L358.986 265.927L357.932 271.366Z" fill="#93C83E"/>
<path d="M358.905 264.67L364.178 265.9C365.218 265.56 366.127 264.906 366.78 264.028C367.433 263.149 367.797 262.09 367.823 260.996C367.848 259.902 367.534 258.827 366.923 257.919C366.312 257.011 365.434 256.315 364.411 255.927L357.513 261.973L358.905 264.67Z" fill="#0779A1"/>
</g>
<rect x="0.806152" width="406.388" height="341" fill="url(#paint4_linear_15_50949)"/>
<defs>
<filter id="filter0_dd_15_50949" x="21.1959" y="40.7797" width="101.245" height="102.651" filterUnits="userSpaceOnUse" color-interpolation-filters="sRGB">
<feFlood flood-opacity="0" result="BackgroundImageFix"/>
<feColorMatrix in="SourceAlpha" type="matrix" values="0 0 0 0 0 0 0 0 0 0 0 0 0 0 0 0 0 0 127 0" result="hardAlpha"/>
<feOffset dy="14.0619"/>
<feGaussianBlur stdDeviation="11.2495"/>
<feColorMatrix type="matrix" values="0 0 0 0 0.376471 0 0 0 0 0.380392 0 0 0 0 0.439216 0 0 0 0.24 0"/>
<feBlend mode="normal" in2="BackgroundImageFix" result="effect1_dropShadow_15_50949"/>
<feColorMatrix in="SourceAlpha" type="matrix" values="0 0 0 0 0 0 0 0 0 0 0 0 0 0 0 0 0 0 127 0" result="hardAlpha"/>
<feOffset dy="1.40619"/>
<feGaussianBlur stdDeviation="2.81237"/>
<feColorMatrix type="matrix" values="0 0 0 0 0.156863 0 0 0 0 0.160784 0 0 0 0 0.239216 0 0 0 0.08 0"/>
<feBlend mode="normal" in2="effect1_dropShadow_15_50949" result="effect2_dropShadow_15_50949"/>
<feBlend mode="normal" in="SourceGraphic" in2="effect2_dropShadow_15_50949" result="shape"/>
</filter>
<filter id="filter1_dd_15_50949" x="41.2294" y="47.9841" width="61.1784" height="62.5842" filterUnits="userSpaceOnUse" color-interpolation-filters="sRGB">
<feFlood flood-opacity="0" result="BackgroundImageFix"/>
<feColorMatrix in="SourceAlpha" type="matrix" values="0 0 0 0 0 0 0 0 0 0 0 0 0 0 0 0 0 0 127 0" result="hardAlpha"/>
<feOffset dy="1.23273"/>
<feGaussianBlur stdDeviation="1.23273"/>
<feColorMatrix type="matrix" values="0 0 0 0 0.376471 0 0 0 0 0.380392 0 0 0 0 0.439216 0 0 0 0.16 0"/>
<feBlend mode="normal" in2="BackgroundImageFix" result="effect1_dropShadow_15_50949"/>
<feColorMatrix in="SourceAlpha" type="matrix" values="0 0 0 0 0 0 0 0 0 0 0 0 0 0 0 0 0 0 127 0" result="hardAlpha"/>
<feOffset/>
<feGaussianBlur stdDeviation="0.308182"/>
<feColorMatrix type="matrix" values="0 0 0 0 0.156863 0 0 0 0 0.160784 0 0 0 0 0.239216 0 0 0 0.04 0"/>
<feBlend mode="normal" in2="effect1_dropShadow_15_50949" result="effect2_dropShadow_15_50949"/>
<feBlend mode="normal" in="SourceGraphic" in2="effect2_dropShadow_15_50949" result="shape"/>
</filter>
<filter id="filter2_dd_15_50949" x="21.1959" y="132.182" width="101.245" height="102.651" filterUnits="userSpaceOnUse" color-interpolation-filters="sRGB">
<feFlood flood-opacity="0" result="BackgroundImageFix"/>
<feColorMatrix in="SourceAlpha" type="matrix" values="0 0 0 0 0 0 0 0 0 0 0 0 0 0 0 0 0 0 127 0" result="hardAlpha"/>
<feOffset dy="14.0619"/>
<feGaussianBlur stdDeviation="11.2495"/>
<feColorMatrix type="matrix" values="0 0 0 0 0.376471 0 0 0 0 0.380392 0 0 0 0 0.439216 0 0 0 0.24 0"/>
<feBlend mode="normal" in2="BackgroundImageFix" result="effect1_dropShadow_15_50949"/>
<feColorMatrix in="SourceAlpha" type="matrix" values="0 0 0 0 0 0 0 0 0 0 0 0 0 0 0 0 0 0 127 0" result="hardAlpha"/>
<feOffset dy="1.40619"/>
<feGaussianBlur stdDeviation="2.81237"/>
<feColorMatrix type="matrix" values="0 0 0 0 0.156863 0 0 0 0 0.160784 0 0 0 0 0.239216 0 0 0 0.08 0"/>
<feBlend mode="normal" in2="effect1_dropShadow_15_50949" result="effect2_dropShadow_15_50949"/>
<feBlend mode="normal" in="SourceGraphic" in2="effect2_dropShadow_15_50949" result="shape"/>
</filter>
<filter id="filter3_dd_15_50949" x="41.2294" y="139.386" width="61.1784" height="62.5842" filterUnits="userSpaceOnUse" color-interpolation-filters="sRGB">
<feFlood flood-opacity="0" result="BackgroundImageFix"/>
<feColorMatrix in="SourceAlpha" type="matrix" values="0 0 0 0 0 0 0 0 0 0 0 0 0 0 0 0 0 0 127 0" result="hardAlpha"/>
<feOffset dy="1.23273"/>
<feGaussianBlur stdDeviation="1.23273"/>
<feColorMatrix type="matrix" values="0 0 0 0 0.376471 0 0 0 0 0.380392 0 0 0 0 0.439216 0 0 0 0.16 0"/>
<feBlend mode="normal" in2="BackgroundImageFix" result="effect1_dropShadow_15_50949"/>
<feColorMatrix in="SourceAlpha" type="matrix" values="0 0 0 0 0 0 0 0 0 0 0 0 0 0 0 0 0 0 127 0" result="hardAlpha"/>
<feOffset/>
<feGaussianBlur stdDeviation="0.308182"/>
<feColorMatrix type="matrix" values="0 0 0 0 0.156863 0 0 0 0 0.160784 0 0 0 0 0.239216 0 0 0 0.04 0"/>
<feBlend mode="normal" in2="effect1_dropShadow_15_50949" result="effect2_dropShadow_15_50949"/>
<feBlend mode="normal" in="SourceGraphic" in2="effect2_dropShadow_15_50949" result="shape"/>
</filter>
<filter id="filter4_dd_15_50949" x="21.1959" y="223.584" width="101.245" height="102.651" filterUnits="userSpaceOnUse" color-interpolation-filters="sRGB">
<feFlood flood-opacity="0" result="BackgroundImageFix"/>
<feColorMatrix in="SourceAlpha" type="matrix" values="0 0 0 0 0 0 0 0 0 0 0 0 0 0 0 0 0 0 127 0" result="hardAlpha"/>
<feOffset dy="14.0619"/>
<feGaussianBlur stdDeviation="11.2495"/>
<feColorMatrix type="matrix" values="0 0 0 0 0.376471 0 0 0 0 0.380392 0 0 0 0 0.439216 0 0 0 0.24 0"/>
<feBlend mode="normal" in2="BackgroundImageFix" result="effect1_dropShadow_15_50949"/>
<feColorMatrix in="SourceAlpha" type="matrix" values="0 0 0 0 0 0 0 0 0 0 0 0 0 0 0 0 0 0 127 0" result="hardAlpha"/>
<feOffset dy="1.40619"/>
<feGaussianBlur stdDeviation="2.81237"/>
<feColorMatrix type="matrix" values="0 0 0 0 0.156863 0 0 0 0 0.160784 0 0 0 0 0.239216 0 0 0 0.08 0"/>
<feBlend mode="normal" in2="effect1_dropShadow_15_50949" result="effect2_dropShadow_15_50949"/>
<feBlend mode="normal" in="SourceGraphic" in2="effect2_dropShadow_15_50949" result="shape"/>
</filter>
<filter id="filter5_dd_15_50949" x="41.2294" y="230.789" width="61.1784" height="62.5842" filterUnits="userSpaceOnUse" color-interpolation-filters="sRGB">
<feFlood flood-opacity="0" result="BackgroundImageFix"/>
<feColorMatrix in="SourceAlpha" type="matrix" values="0 0 0 0 0 0 0 0 0 0 0 0 0 0 0 0 0 0 127 0" result="hardAlpha"/>
<feOffset dy="1.23273"/>
<feGaussianBlur stdDeviation="1.23273"/>
<feColorMatrix type="matrix" values="0 0 0 0 0.376471 0 0 0 0 0.380392 0 0 0 0 0.439216 0 0 0 0.16 0"/>
<feBlend mode="normal" in2="BackgroundImageFix" result="effect1_dropShadow_15_50949"/>
<feColorMatrix in="SourceAlpha" type="matrix" values="0 0 0 0 0 0 0 0 0 0 0 0 0 0 0 0 0 0 127 0" result="hardAlpha"/>
<feOffset/>
<feGaussianBlur stdDeviation="0.308182"/>
<feColorMatrix type="matrix" values="0 0 0 0 0.156863 0 0 0 0 0.160784 0 0 0 0 0.239216 0 0 0 0.04 0"/>
<feBlend mode="normal" in2="effect1_dropShadow_15_50949" result="effect2_dropShadow_15_50949"/>
<feBlend mode="normal" in="SourceGraphic" in2="effect2_dropShadow_15_50949" result="shape"/>
</filter>
<filter id="filter6_dd_15_50949" x="91.5052" y="86.4809" width="101.245" height="102.651" filterUnits="userSpaceOnUse" color-interpolation-filters="sRGB">
<feFlood flood-opacity="0" result="BackgroundImageFix"/>
<feColorMatrix in="SourceAlpha" type="matrix" values="0 0 0 0 0 0 0 0 0 0 0 0 0 0 0 0 0 0 127 0" result="hardAlpha"/>
<feOffset dy="14.0619"/>
<feGaussianBlur stdDeviation="11.2495"/>
<feColorMatrix type="matrix" values="0 0 0 0 0.376471 0 0 0 0 0.380392 0 0 0 0 0.439216 0 0 0 0.24 0"/>
<feBlend mode="normal" in2="BackgroundImageFix" result="effect1_dropShadow_15_50949"/>
<feColorMatrix in="SourceAlpha" type="matrix" values="0 0 0 0 0 0 0 0 0 0 0 0 0 0 0 0 0 0 127 0" result="hardAlpha"/>
<feOffset dy="1.40619"/>
<feGaussianBlur stdDeviation="2.81237"/>
<feColorMatrix type="matrix" values="0 0 0 0 0.156863 0 0 0 0 0.160784 0 0 0 0 0.239216 0 0 0 0.08 0"/>
<feBlend mode="normal" in2="effect1_dropShadow_15_50949" result="effect2_dropShadow_15_50949"/>
<feBlend mode="normal" in="SourceGraphic" in2="effect2_dropShadow_15_50949" result="shape"/>
</filter>
<filter id="filter7_dd_15_50949" x="111.539" y="93.6852" width="61.1784" height="62.5842" filterUnits="userSpaceOnUse" color-interpolation-filters="sRGB">
<feFlood flood-opacity="0" result="BackgroundImageFix"/>
<feColorMatrix in="SourceAlpha" type="matrix" values="0 0 0 0 0 0 0 0 0 0 0 0 0 0 0 0 0 0 127 0" result="hardAlpha"/>
<feOffset dy="1.23273"/>
<feGaussianBlur stdDeviation="1.23273"/>
<feColorMatrix type="matrix" values="0 0 0 0 0.376471 0 0 0 0 0.380392 0 0 0 0 0.439216 0 0 0 0.16 0"/>
<feBlend mode="normal" in2="BackgroundImageFix" result="effect1_dropShadow_15_50949"/>
<feColorMatrix in="SourceAlpha" type="matrix" values="0 0 0 0 0 0 0 0 0 0 0 0 0 0 0 0 0 0 127 0" result="hardAlpha"/>
<feOffset/>
<feGaussianBlur stdDeviation="0.308182"/>
<feColorMatrix type="matrix" values="0 0 0 0 0.156863 0 0 0 0 0.160784 0 0 0 0 0.239216 0 0 0 0.04 0"/>
<feBlend mode="normal" in2="effect1_dropShadow_15_50949" result="effect2_dropShadow_15_50949"/>
<feBlend mode="normal" in="SourceGraphic" in2="effect2_dropShadow_15_50949" result="shape"/>
</filter>
<filter id="filter8_dd_15_50949" x="91.5054" y="177.883" width="101.245" height="102.651" filterUnits="userSpaceOnUse" color-interpolation-filters="sRGB">
<feFlood flood-opacity="0" result="BackgroundImageFix"/>
<feColorMatrix in="SourceAlpha" type="matrix" values="0 0 0 0 0 0 0 0 0 0 0 0 0 0 0 0 0 0 127 0" result="hardAlpha"/>
<feOffset dy="14.0619"/>
<feGaussianBlur stdDeviation="11.2495"/>
<feColorMatrix type="matrix" values="0 0 0 0 0.376471 0 0 0 0 0.380392 0 0 0 0 0.439216 0 0 0 0.24 0"/>
<feBlend mode="normal" in2="BackgroundImageFix" result="effect1_dropShadow_15_50949"/>
<feColorMatrix in="SourceAlpha" type="matrix" values="0 0 0 0 0 0 0 0 0 0 0 0 0 0 0 0 0 0 127 0" result="hardAlpha"/>
<feOffset dy="1.40619"/>
<feGaussianBlur stdDeviation="2.81237"/>
<feColorMatrix type="matrix" values="0 0 0 0 0.156863 0 0 0 0 0.160784 0 0 0 0 0.239216 0 0 0 0.08 0"/>
<feBlend mode="normal" in2="effect1_dropShadow_15_50949" result="effect2_dropShadow_15_50949"/>
<feBlend mode="normal" in="SourceGraphic" in2="effect2_dropShadow_15_50949" result="shape"/>
</filter>
<filter id="filter9_dd_15_50949" x="111.539" y="185.088" width="61.1784" height="62.5842" filterUnits="userSpaceOnUse" color-interpolation-filters="sRGB">
<feFlood flood-opacity="0" result="BackgroundImageFix"/>
<feColorMatrix in="SourceAlpha" type="matrix" values="0 0 0 0 0 0 0 0 0 0 0 0 0 0 0 0 0 0 127 0" result="hardAlpha"/>
<feOffset dy="1.23273"/>
<feGaussianBlur stdDeviation="1.23273"/>
<feColorMatrix type="matrix" values="0 0 0 0 0.376471 0 0 0 0 0.380392 0 0 0 0 0.439216 0 0 0 0.16 0"/>
<feBlend mode="normal" in2="BackgroundImageFix" result="effect1_dropShadow_15_50949"/>
<feColorMatrix in="SourceAlpha" type="matrix" values="0 0 0 0 0 0 0 0 0 0 0 0 0 0 0 0 0 0 127 0" result="hardAlpha"/>
<feOffset/>
<feGaussianBlur stdDeviation="0.308182"/>
<feColorMatrix type="matrix" values="0 0 0 0 0.156863 0 0 0 0 0.160784 0 0 0 0 0.239216 0 0 0 0.04 0"/>
<feBlend mode="normal" in2="effect1_dropShadow_15_50949" result="effect2_dropShadow_15_50949"/>
<feBlend mode="normal" in="SourceGraphic" in2="effect2_dropShadow_15_50949" result="shape"/>
</filter>
<filter id="filter10_dd_15_50949" x="161.814" y="40.7797" width="101.245" height="102.651" filterUnits="userSpaceOnUse" color-interpolation-filters="sRGB">
<feFlood flood-opacity="0" result="BackgroundImageFix"/>
<feColorMatrix in="SourceAlpha" type="matrix" values="0 0 0 0 0 0 0 0 0 0 0 0 0 0 0 0 0 0 127 0" result="hardAlpha"/>
<feOffset dy="14.0619"/>
<feGaussianBlur stdDeviation="11.2495"/>
<feColorMatrix type="matrix" values="0 0 0 0 0.376471 0 0 0 0 0.380392 0 0 0 0 0.439216 0 0 0 0.24 0"/>
<feBlend mode="normal" in2="BackgroundImageFix" result="effect1_dropShadow_15_50949"/>
<feColorMatrix in="SourceAlpha" type="matrix" values="0 0 0 0 0 0 0 0 0 0 0 0 0 0 0 0 0 0 127 0" result="hardAlpha"/>
<feOffset dy="1.40619"/>
<feGaussianBlur stdDeviation="2.81237"/>
<feColorMatrix type="matrix" values="0 0 0 0 0.156863 0 0 0 0 0.160784 0 0 0 0 0.239216 0 0 0 0.08 0"/>
<feBlend mode="normal" in2="effect1_dropShadow_15_50949" result="effect2_dropShadow_15_50949"/>
<feBlend mode="normal" in="SourceGraphic" in2="effect2_dropShadow_15_50949" result="shape"/>
</filter>
<filter id="filter11_dd_15_50949" x="181.848" y="47.9841" width="61.1784" height="62.5842" filterUnits="userSpaceOnUse" color-interpolation-filters="sRGB">
<feFlood flood-opacity="0" result="BackgroundImageFix"/>
<feColorMatrix in="SourceAlpha" type="matrix" values="0 0 0 0 0 0 0 0 0 0 0 0 0 0 0 0 0 0 127 0" result="hardAlpha"/>
<feOffset dy="1.23273"/>
<feGaussianBlur stdDeviation="1.23273"/>
<feColorMatrix type="matrix" values="0 0 0 0 0.376471 0 0 0 0 0.380392 0 0 0 0 0.439216 0 0 0 0.16 0"/>
<feBlend mode="normal" in2="BackgroundImageFix" result="effect1_dropShadow_15_50949"/>
<feColorMatrix in="SourceAlpha" type="matrix" values="0 0 0 0 0 0 0 0 0 0 0 0 0 0 0 0 0 0 127 0" result="hardAlpha"/>
<feOffset/>
<feGaussianBlur stdDeviation="0.308182"/>
<feColorMatrix type="matrix" values="0 0 0 0 0.156863 0 0 0 0 0.160784 0 0 0 0 0.239216 0 0 0 0.04 0"/>
<feBlend mode="normal" in2="effect1_dropShadow_15_50949" result="effect2_dropShadow_15_50949"/>
<feBlend mode="normal" in="SourceGraphic" in2="effect2_dropShadow_15_50949" result="shape"/>
</filter>
<filter id="filter12_dd_15_50949" x="161.814" y="132.182" width="101.245" height="102.651" filterUnits="userSpaceOnUse" color-interpolation-filters="sRGB">
<feFlood flood-opacity="0" result="BackgroundImageFix"/>
<feColorMatrix in="SourceAlpha" type="matrix" values="0 0 0 0 0 0 0 0 0 0 0 0 0 0 0 0 0 0 127 0" result="hardAlpha"/>
<feOffset dy="14.0619"/>
<feGaussianBlur stdDeviation="11.2495"/>
<feColorMatrix type="matrix" values="0 0 0 0 0.376471 0 0 0 0 0.380392 0 0 0 0 0.439216 0 0 0 0.24 0"/>
<feBlend mode="normal" in2="BackgroundImageFix" result="effect1_dropShadow_15_50949"/>
<feColorMatrix in="SourceAlpha" type="matrix" values="0 0 0 0 0 0 0 0 0 0 0 0 0 0 0 0 0 0 127 0" result="hardAlpha"/>
<feOffset dy="1.40619"/>
<feGaussianBlur stdDeviation="2.81237"/>
<feColorMatrix type="matrix" values="0 0 0 0 0.156863 0 0 0 0 0.160784 0 0 0 0 0.239216 0 0 0 0.08 0"/>
<feBlend mode="normal" in2="effect1_dropShadow_15_50949" result="effect2_dropShadow_15_50949"/>
<feBlend mode="normal" in="SourceGraphic" in2="effect2_dropShadow_15_50949" result="shape"/>
</filter>
<filter id="filter13_dd_15_50949" x="181.848" y="139.386" width="61.1784" height="62.5842" filterUnits="userSpaceOnUse" color-interpolation-filters="sRGB">
<feFlood flood-opacity="0" result="BackgroundImageFix"/>
<feColorMatrix in="SourceAlpha" type="matrix" values="0 0 0 0 0 0 0 0 0 0 0 0 0 0 0 0 0 0 127 0" result="hardAlpha"/>
<feOffset dy="1.23273"/>
<feGaussianBlur stdDeviation="1.23273"/>
<feColorMatrix type="matrix" values="0 0 0 0 0.376471 0 0 0 0 0.380392 0 0 0 0 0.439216 0 0 0 0.16 0"/>
<feBlend mode="normal" in2="BackgroundImageFix" result="effect1_dropShadow_15_50949"/>
<feColorMatrix in="SourceAlpha" type="matrix" values="0 0 0 0 0 0 0 0 0 0 0 0 0 0 0 0 0 0 127 0" result="hardAlpha"/>
<feOffset/>
<feGaussianBlur stdDeviation="0.308182"/>
<feColorMatrix type="matrix" values="0 0 0 0 0.156863 0 0 0 0 0.160784 0 0 0 0 0.239216 0 0 0 0.04 0"/>
<feBlend mode="normal" in2="effect1_dropShadow_15_50949" result="effect2_dropShadow_15_50949"/>
<feBlend mode="normal" in="SourceGraphic" in2="effect2_dropShadow_15_50949" result="shape"/>
</filter>
<filter id="filter14_dd_15_50949" x="161.814" y="223.584" width="101.245" height="102.651" filterUnits="userSpaceOnUse" color-interpolation-filters="sRGB">
<feFlood flood-opacity="0" result="BackgroundImageFix"/>
<feColorMatrix in="SourceAlpha" type="matrix" values="0 0 0 0 0 0 0 0 0 0 0 0 0 0 0 0 0 0 127 0" result="hardAlpha"/>
<feOffset dy="14.0619"/>
<feGaussianBlur stdDeviation="11.2495"/>
<feColorMatrix type="matrix" values="0 0 0 0 0.376471 0 0 0 0 0.380392 0 0 0 0 0.439216 0 0 0 0.24 0"/>
<feBlend mode="normal" in2="BackgroundImageFix" result="effect1_dropShadow_15_50949"/>
<feColorMatrix in="SourceAlpha" type="matrix" values="0 0 0 0 0 0 0 0 0 0 0 0 0 0 0 0 0 0 127 0" result="hardAlpha"/>
<feOffset dy="1.40619"/>
<feGaussianBlur stdDeviation="2.81237"/>
<feColorMatrix type="matrix" values="0 0 0 0 0.156863 0 0 0 0 0.160784 0 0 0 0 0.239216 0 0 0 0.08 0"/>
<feBlend mode="normal" in2="effect1_dropShadow_15_50949" result="effect2_dropShadow_15_50949"/>
<feBlend mode="normal" in="SourceGraphic" in2="effect2_dropShadow_15_50949" result="shape"/>
</filter>
<filter id="filter15_dd_15_50949" x="181.848" y="230.789" width="61.1784" height="62.5842" filterUnits="userSpaceOnUse" color-interpolation-filters="sRGB">
<feFlood flood-opacity="0" result="BackgroundImageFix"/>
<feColorMatrix in="SourceAlpha" type="matrix" values="0 0 0 0 0 0 0 0 0 0 0 0 0 0 0 0 0 0 127 0" result="hardAlpha"/>
<feOffset dy="1.23273"/>
<feGaussianBlur stdDeviation="1.23273"/>
<feColorMatrix type="matrix" values="0 0 0 0 0.376471 0 0 0 0 0.380392 0 0 0 0 0.439216 0 0 0 0.16 0"/>
<feBlend mode="normal" in2="BackgroundImageFix" result="effect1_dropShadow_15_50949"/>
<feColorMatrix in="SourceAlpha" type="matrix" values="0 0 0 0 0 0 0 0 0 0 0 0 0 0 0 0 0 0 127 0" result="hardAlpha"/>
<feOffset/>
<feGaussianBlur stdDeviation="0.308182"/>
<feColorMatrix type="matrix" values="0 0 0 0 0.156863 0 0 0 0 0.160784 0 0 0 0 0.239216 0 0 0 0.04 0"/>
<feBlend mode="normal" in2="effect1_dropShadow_15_50949" result="effect2_dropShadow_15_50949"/>
<feBlend mode="normal" in="SourceGraphic" in2="effect2_dropShadow_15_50949" result="shape"/>
</filter>
<filter id="filter16_dd_15_50949" x="232.124" y="86.4809" width="101.245" height="102.651" filterUnits="userSpaceOnUse" color-interpolation-filters="sRGB">
<feFlood flood-opacity="0" result="BackgroundImageFix"/>
<feColorMatrix in="SourceAlpha" type="matrix" values="0 0 0 0 0 0 0 0 0 0 0 0 0 0 0 0 0 0 127 0" result="hardAlpha"/>
<feOffset dy="14.0619"/>
<feGaussianBlur stdDeviation="11.2495"/>
<feColorMatrix type="matrix" values="0 0 0 0 0.376471 0 0 0 0 0.380392 0 0 0 0 0.439216 0 0 0 0.24 0"/>
<feBlend mode="normal" in2="BackgroundImageFix" result="effect1_dropShadow_15_50949"/>
<feColorMatrix in="SourceAlpha" type="matrix" values="0 0 0 0 0 0 0 0 0 0 0 0 0 0 0 0 0 0 127 0" result="hardAlpha"/>
<feOffset dy="1.40619"/>
<feGaussianBlur stdDeviation="2.81237"/>
<feColorMatrix type="matrix" values="0 0 0 0 0.156863 0 0 0 0 0.160784 0 0 0 0 0.239216 0 0 0 0.08 0"/>
<feBlend mode="normal" in2="effect1_dropShadow_15_50949" result="effect2_dropShadow_15_50949"/>
<feBlend mode="normal" in="SourceGraphic" in2="effect2_dropShadow_15_50949" result="shape"/>
</filter>
<filter id="filter17_dd_15_50949" x="252.157" y="93.6852" width="61.1784" height="62.5842" filterUnits="userSpaceOnUse" color-interpolation-filters="sRGB">
<feFlood flood-opacity="0" result="BackgroundImageFix"/>
<feColorMatrix in="SourceAlpha" type="matrix" values="0 0 0 0 0 0 0 0 0 0 0 0 0 0 0 0 0 0 127 0" result="hardAlpha"/>
<feOffset dy="1.23273"/>
<feGaussianBlur stdDeviation="1.23273"/>
<feColorMatrix type="matrix" values="0 0 0 0 0.376471 0 0 0 0 0.380392 0 0 0 0 0.439216 0 0 0 0.16 0"/>
<feBlend mode="normal" in2="BackgroundImageFix" result="effect1_dropShadow_15_50949"/>
<feColorMatrix in="SourceAlpha" type="matrix" values="0 0 0 0 0 0 0 0 0 0 0 0 0 0 0 0 0 0 127 0" result="hardAlpha"/>
<feOffset/>
<feGaussianBlur stdDeviation="0.308182"/>
<feColorMatrix type="matrix" values="0 0 0 0 0.156863 0 0 0 0 0.160784 0 0 0 0 0.239216 0 0 0 0.04 0"/>
<feBlend mode="normal" in2="effect1_dropShadow_15_50949" result="effect2_dropShadow_15_50949"/>
<feBlend mode="normal" in="SourceGraphic" in2="effect2_dropShadow_15_50949" result="shape"/>
</filter>
<filter id="filter18_dd_15_50949" x="232.124" y="177.883" width="101.245" height="102.651" filterUnits="userSpaceOnUse" color-interpolation-filters="sRGB">
<feFlood flood-opacity="0" result="BackgroundImageFix"/>
<feColorMatrix in="SourceAlpha" type="matrix" values="0 0 0 0 0 0 0 0 0 0 0 0 0 0 0 0 0 0 127 0" result="hardAlpha"/>
<feOffset dy="14.0619"/>
<feGaussianBlur stdDeviation="11.2495"/>
<feColorMatrix type="matrix" values="0 0 0 0 0.376471 0 0 0 0 0.380392 0 0 0 0 0.439216 0 0 0 0.24 0"/>
<feBlend mode="normal" in2="BackgroundImageFix" result="effect1_dropShadow_15_50949"/>
<feColorMatrix in="SourceAlpha" type="matrix" values="0 0 0 0 0 0 0 0 0 0 0 0 0 0 0 0 0 0 127 0" result="hardAlpha"/>
<feOffset dy="1.40619"/>
<feGaussianBlur stdDeviation="2.81237"/>
<feColorMatrix type="matrix" values="0 0 0 0 0.156863 0 0 0 0 0.160784 0 0 0 0 0.239216 0 0 0 0.08 0"/>
<feBlend mode="normal" in2="effect1_dropShadow_15_50949" result="effect2_dropShadow_15_50949"/>
<feBlend mode="normal" in="SourceGraphic" in2="effect2_dropShadow_15_50949" result="shape"/>
</filter>
<filter id="filter19_dd_15_50949" x="252.157" y="185.088" width="61.1784" height="62.5842" filterUnits="userSpaceOnUse" color-interpolation-filters="sRGB">
<feFlood flood-opacity="0" result="BackgroundImageFix"/>
<feColorMatrix in="SourceAlpha" type="matrix" values="0 0 0 0 0 0 0 0 0 0 0 0 0 0 0 0 0 0 127 0" result="hardAlpha"/>
<feOffset dy="1.23273"/>
<feGaussianBlur stdDeviation="1.23273"/>
<feColorMatrix type="matrix" values="0 0 0 0 0.376471 0 0 0 0 0.380392 0 0 0 0 0.439216 0 0 0 0.16 0"/>
<feBlend mode="normal" in2="BackgroundImageFix" result="effect1_dropShadow_15_50949"/>
<feColorMatrix in="SourceAlpha" type="matrix" values="0 0 0 0 0 0 0 0 0 0 0 0 0 0 0 0 0 0 127 0" result="hardAlpha"/>
<feOffset/>
<feGaussianBlur stdDeviation="0.308182"/>
<feColorMatrix type="matrix" values="0 0 0 0 0.156863 0 0 0 0 0.160784 0 0 0 0 0.239216 0 0 0 0.04 0"/>
<feBlend mode="normal" in2="effect1_dropShadow_15_50949" result="effect2_dropShadow_15_50949"/>
<feBlend mode="normal" in="SourceGraphic" in2="effect2_dropShadow_15_50949" result="shape"/>
</filter>
<filter id="filter20_dd_15_50949" x="302.433" y="41.4828" width="101.245" height="102.651" filterUnits="userSpaceOnUse" color-interpolation-filters="sRGB">
<feFlood flood-opacity="0" result="BackgroundImageFix"/>
<feColorMatrix in="SourceAlpha" type="matrix" values="0 0 0 0 0 0 0 0 0 0 0 0 0 0 0 0 0 0 127 0" result="hardAlpha"/>
<feOffset dy="14.0619"/>
<feGaussianBlur stdDeviation="11.2495"/>
<feColorMatrix type="matrix" values="0 0 0 0 0.376471 0 0 0 0 0.380392 0 0 0 0 0.439216 0 0 0 0.24 0"/>
<feBlend mode="normal" in2="BackgroundImageFix" result="effect1_dropShadow_15_50949"/>
<feColorMatrix in="SourceAlpha" type="matrix" values="0 0 0 0 0 0 0 0 0 0 0 0 0 0 0 0 0 0 127 0" result="hardAlpha"/>
<feOffset dy="1.40619"/>
<feGaussianBlur stdDeviation="2.81237"/>
<feColorMatrix type="matrix" values="0 0 0 0 0.156863 0 0 0 0 0.160784 0 0 0 0 0.239216 0 0 0 0.08 0"/>
<feBlend mode="normal" in2="effect1_dropShadow_15_50949" result="effect2_dropShadow_15_50949"/>
<feBlend mode="normal" in="SourceGraphic" in2="effect2_dropShadow_15_50949" result="shape"/>
</filter>
<filter id="filter21_dd_15_50949" x="322.466" y="48.6872" width="61.1784" height="62.5842" filterUnits="userSpaceOnUse" color-interpolation-filters="sRGB">
<feFlood flood-opacity="0" result="BackgroundImageFix"/>
<feColorMatrix in="SourceAlpha" type="matrix" values="0 0 0 0 0 0 0 0 0 0 0 0 0 0 0 0 0 0 127 0" result="hardAlpha"/>
<feOffset dy="1.23273"/>
<feGaussianBlur stdDeviation="1.23273"/>
<feColorMatrix type="matrix" values="0 0 0 0 0.376471 0 0 0 0 0.380392 0 0 0 0 0.439216 0 0 0 0.16 0"/>
<feBlend mode="normal" in2="BackgroundImageFix" result="effect1_dropShadow_15_50949"/>
<feColorMatrix in="SourceAlpha" type="matrix" values="0 0 0 0 0 0 0 0 0 0 0 0 0 0 0 0 0 0 127 0" result="hardAlpha"/>
<feOffset/>
<feGaussianBlur stdDeviation="0.308182"/>
<feColorMatrix type="matrix" values="0 0 0 0 0.156863 0 0 0 0 0.160784 0 0 0 0 0.239216 0 0 0 0.04 0"/>
<feBlend mode="normal" in2="effect1_dropShadow_15_50949" result="effect2_dropShadow_15_50949"/>
<feBlend mode="normal" in="SourceGraphic" in2="effect2_dropShadow_15_50949" result="shape"/>
</filter>
<filter id="filter22_dd_15_50949" x="302.433" y="132.182" width="101.245" height="102.651" filterUnits="userSpaceOnUse" color-interpolation-filters="sRGB">
<feFlood flood-opacity="0" result="BackgroundImageFix"/>
<feColorMatrix in="SourceAlpha" type="matrix" values="0 0 0 0 0 0 0 0 0 0 0 0 0 0 0 0 0 0 127 0" result="hardAlpha"/>
<feOffset dy="14.0619"/>
<feGaussianBlur stdDeviation="11.2495"/>
<feColorMatrix type="matrix" values="0 0 0 0 0.376471 0 0 0 0 0.380392 0 0 0 0 0.439216 0 0 0 0.24 0"/>
<feBlend mode="normal" in2="BackgroundImageFix" result="effect1_dropShadow_15_50949"/>
<feColorMatrix in="SourceAlpha" type="matrix" values="0 0 0 0 0 0 0 0 0 0 0 0 0 0 0 0 0 0 127 0" result="hardAlpha"/>
<feOffset dy="1.40619"/>
<feGaussianBlur stdDeviation="2.81237"/>
<feColorMatrix type="matrix" values="0 0 0 0 0.156863 0 0 0 0 0.160784 0 0 0 0 0.239216 0 0 0 0.08 0"/>
<feBlend mode="normal" in2="effect1_dropShadow_15_50949" result="effect2_dropShadow_15_50949"/>
<feBlend mode="normal" in="SourceGraphic" in2="effect2_dropShadow_15_50949" result="shape"/>
</filter>
<filter id="filter23_dd_15_50949" x="322.466" y="139.386" width="61.1784" height="62.5842" filterUnits="userSpaceOnUse" color-interpolation-filters="sRGB">
<feFlood flood-opacity="0" result="BackgroundImageFix"/>
<feColorMatrix in="SourceAlpha" type="matrix" values="0 0 0 0 0 0 0 0 0 0 0 0 0 0 0 0 0 0 127 0" result="hardAlpha"/>
<feOffset dy="1.23273"/>
<feGaussianBlur stdDeviation="1.23273"/>
<feColorMatrix type="matrix" values="0 0 0 0 0.376471 0 0 0 0 0.380392 0 0 0 0 0.439216 0 0 0 0.16 0"/>
<feBlend mode="normal" in2="BackgroundImageFix" result="effect1_dropShadow_15_50949"/>
<feColorMatrix in="SourceAlpha" type="matrix" values="0 0 0 0 0 0 0 0 0 0 0 0 0 0 0 0 0 0 127 0" result="hardAlpha"/>
<feOffset/>
<feGaussianBlur stdDeviation="0.308182"/>
<feColorMatrix type="matrix" values="0 0 0 0 0.156863 0 0 0 0 0.160784 0 0 0 0 0.239216 0 0 0 0.04 0"/>
<feBlend mode="normal" in2="effect1_dropShadow_15_50949" result="effect2_dropShadow_15_50949"/>
<feBlend mode="normal" in="SourceGraphic" in2="effect2_dropShadow_15_50949" result="shape"/>
</filter>
<filter id="filter24_dd_15_50949" x="302.433" y="222.881" width="101.245" height="102.651" filterUnits="userSpaceOnUse" color-interpolation-filters="sRGB">
<feFlood flood-opacity="0" result="BackgroundImageFix"/>
<feColorMatrix in="SourceAlpha" type="matrix" values="0 0 0 0 0 0 0 0 0 0 0 0 0 0 0 0 0 0 127 0" result="hardAlpha"/>
<feOffset dy="14.0619"/>
<feGaussianBlur stdDeviation="11.2495"/>
<feColorMatrix type="matrix" values="0 0 0 0 0.376471 0 0 0 0 0.380392 0 0 0 0 0.439216 0 0 0 0.24 0"/>
<feBlend mode="normal" in2="BackgroundImageFix" result="effect1_dropShadow_15_50949"/>
<feColorMatrix in="SourceAlpha" type="matrix" values="0 0 0 0 0 0 0 0 0 0 0 0 0 0 0 0 0 0 127 0" result="hardAlpha"/>
<feOffset dy="1.40619"/>
<feGaussianBlur stdDeviation="2.81237"/>
<feColorMatrix type="matrix" values="0 0 0 0 0.156863 0 0 0 0 0.160784 0 0 0 0 0.239216 0 0 0 0.08 0"/>
<feBlend mode="normal" in2="effect1_dropShadow_15_50949" result="effect2_dropShadow_15_50949"/>
<feBlend mode="normal" in="SourceGraphic" in2="effect2_dropShadow_15_50949" result="shape"/>
</filter>
<filter id="filter25_dd_15_50949" x="322.466" y="230.086" width="61.1784" height="62.5842" filterUnits="userSpaceOnUse" color-interpolation-filters="sRGB">
<feFlood flood-opacity="0" result="BackgroundImageFix"/>
<feColorMatrix in="SourceAlpha" type="matrix" values="0 0 0 0 0 0 0 0 0 0 0 0 0 0 0 0 0 0 127 0" result="hardAlpha"/>
<feOffset dy="1.23273"/>
<feGaussianBlur stdDeviation="1.23273"/>
<feColorMatrix type="matrix" values="0 0 0 0 0.376471 0 0 0 0 0.380392 0 0 0 0 0.439216 0 0 0 0.16 0"/>
<feBlend mode="normal" in2="BackgroundImageFix" result="effect1_dropShadow_15_50949"/>
<feColorMatrix in="SourceAlpha" type="matrix" values="0 0 0 0 0 0 0 0 0 0 0 0 0 0 0 0 0 0 127 0" result="hardAlpha"/>
<feOffset/>
<feGaussianBlur stdDeviation="0.308182"/>
<feColorMatrix type="matrix" values="0 0 0 0 0.156863 0 0 0 0 0.160784 0 0 0 0 0.239216 0 0 0 0.04 0"/>
<feBlend mode="normal" in2="effect1_dropShadow_15_50949" result="effect2_dropShadow_15_50949"/>
<feBlend mode="normal" in="SourceGraphic" in2="effect2_dropShadow_15_50949" result="shape"/>
</filter>
<linearGradient id="paint0_linear_15_50949" x1="65.1093" y1="248.832" x2="65.1093" y2="268.671" gradientUnits="userSpaceOnUse">
<stop stop-color="#0052CC"/>
<stop offset="1" stop-color="#2684FF"/>
</linearGradient>
<linearGradient id="paint1_linear_15_50949" x1="65.0406" y1="248.833" x2="65.0406" y2="268.671" gradientUnits="userSpaceOnUse">
<stop stop-color="#0052CC"/>
<stop offset="1" stop-color="#2684FF"/>
</linearGradient>
<linearGradient id="paint2_linear_15_50949" x1="279.615" y1="199.69" x2="271.205" y2="203.166" gradientUnits="userSpaceOnUse">
<stop offset="0.18" stop-color="#0052CC"/>
<stop offset="1" stop-color="#2684FF"/>
</linearGradient>
<linearGradient id="paint3_linear_15_50949" x1="285.936" y1="230.534" x2="294.329" y2="227.065" gradientUnits="userSpaceOnUse">
<stop offset="0.18" stop-color="#0052CC"/>
<stop offset="1" stop-color="#2684FF"/>
</linearGradient>
<linearGradient id="paint4_linear_15_50949" x1="195.5" y1="46" x2="204" y2="380.5" gradientUnits="userSpaceOnUse">
<stop stop-color="white" stop-opacity="0"/>
<stop offset="1" stop-color="white"/>
</linearGradient>
<clipPath id="clip0_15_50949">
<rect width="33.7485" height="24.3885" fill="white" transform="translate(54.9438 65.3887)"/>
</clipPath>
<clipPath id="clip1_15_50949">
<rect width="29.1879" height="33.7485" fill="white" transform="translate(57.7562 243.975)"/>
</clipPath>
<clipPath id="clip2_15_50949">
<rect width="33.7485" height="27.1592" fill="white" transform="translate(125.254 109.684)"/>
</clipPath>
<clipPath id="clip3_15_50949">
<rect width="33.7485" height="33.7485" fill="white" transform="translate(125.254 198.273)"/>
</clipPath>
<clipPath id="clip4_15_50949">
<rect width="33.7485" height="26.9313" fill="white" transform="translate(195.562 63.9824)"/>
</clipPath>
<clipPath id="clip5_15_50949">
<rect width="28.1237" height="28.1237" fill="white" transform="translate(198.375 155.383)"/>
</clipPath>
<clipPath id="clip6_15_50949">
<rect width="33.7485" height="33.7485" fill="white" transform="translate(265.873 106.871)"/>
</clipPath>
<clipPath id="clip7_15_50949">
<rect width="33.7485" height="20.1715" fill="white" transform="translate(336.181 68.9043)"/>
</clipPath>
<clipPath id="clip8_15_50949">
<rect width="33.2292" height="33.7485" fill="white" transform="translate(336.181 152.572)"/>
</clipPath>
</defs>
</svg>
