<svg width="47" height="40" viewBox="0 0 47 40" fill="none" xmlns="http://www.w3.org/2000/svg">
<g id="Group 23079">
<g id="Group">
<path id="Vector" d="M37.2137 15.7184L37.1132 21.4156C42.0361 20.9826 43.3061 19.8024 44.7001 18.1937L44.6129 13.6804L40.6448 15.6277L37.2137 15.7184Z" fill="#FF479F"/>
<g id="Group_2">
<path id="Vector (Stroke)" fill-rule="evenodd" clip-rule="evenodd" d="M36.3311 22.0013C36.3564 21.842 36.5061 21.7332 36.6655 21.7585C37.2292 21.8479 38.78 21.958 40.4028 21.5444C42.0203 21.1322 43.6757 20.2103 44.5328 18.2604C44.5978 18.1126 44.7702 18.0455 44.9179 18.1105C45.0656 18.1754 45.1327 18.3478 45.0678 18.4955C44.1142 20.6647 42.2713 21.6712 40.5471 22.1107C38.8282 22.5488 37.194 22.434 36.574 22.3357C36.4146 22.3104 36.3059 22.1607 36.3311 22.0013Z" fill="black"/>
<path id="Vector (Stroke)_2" fill-rule="evenodd" clip-rule="evenodd" d="M37.0581 15.9972C37.2193 16.0031 37.3453 16.1387 37.3394 16.2999C37.2739 18.0863 37.2865 19.3136 37.3026 20.878C37.3085 21.4524 37.3149 22.0722 37.3181 22.7818C37.3188 22.9431 37.1885 23.0745 37.0272 23.0752C36.8658 23.076 36.7344 22.9457 36.7337 22.7844C36.7306 22.0822 36.7242 21.4662 36.7184 20.8935C36.7022 19.3239 36.6894 18.0795 36.7554 16.2785C36.7613 16.1173 36.8968 15.9913 37.0581 15.9972Z" fill="black"/>
<path id="Vector (Stroke)_3" fill-rule="evenodd" clip-rule="evenodd" d="M36.2908 16.2504C36.3229 16.0922 36.477 15.9899 36.6352 16.022C39.3303 16.5675 41.5893 15.9697 44.3909 14.189C44.5271 14.1024 44.7077 14.1426 44.7942 14.2788C44.8808 14.415 44.8406 14.5956 44.7044 14.6821C41.8169 16.5175 39.4046 17.1787 36.5193 16.5947C36.3611 16.5627 36.2588 16.4085 36.2908 16.2504Z" fill="black"/>
<path id="Vector (Stroke)_4" fill-rule="evenodd" clip-rule="evenodd" d="M44.2838 13.9185C44.4448 13.9077 44.5841 14.0294 44.595 14.1904C44.6536 15.0624 44.6868 15.8878 44.7197 16.7088L44.7198 16.7105C44.7528 17.533 44.7857 18.3513 44.8438 19.2148C44.8546 19.3758 44.7329 19.5151 44.5719 19.526C44.4109 19.5368 44.2716 19.415 44.2608 19.254C44.2021 18.382 44.169 17.5566 44.136 16.7356L44.1359 16.7339C44.1029 15.9114 44.07 15.0932 44.0119 14.2296C44.0011 14.0686 44.1228 13.9293 44.2838 13.9185Z" fill="black"/>
</g>
</g>
<g id="Group_3">
<path id="Vector_2" d="M10.3684 32.7651L13.2083 37.705C17.2099 34.805 17.6934 33.14 18.0632 31.0438L15.6703 27.216L13.2657 30.9249L10.3684 32.7651Z" fill="#00A390"/>
<g id="Group_4">
<path id="Vector (Stroke)_5" fill-rule="evenodd" clip-rule="evenodd" d="M12.8405 38.6074C12.7803 38.4576 12.8529 38.2875 13.0027 38.2273C13.5323 38.0145 14.9195 37.3124 16.0994 36.1241C17.2755 34.9396 18.2223 33.2983 17.9563 31.185C17.9361 31.0249 18.0496 30.8788 18.2097 30.8586C18.3698 30.8385 18.5159 30.9519 18.5361 31.112C18.832 33.463 17.7677 35.2732 16.5141 36.5358C15.2642 37.7946 13.8031 38.5354 13.2206 38.7695C13.0709 38.8297 12.9007 38.7571 12.8405 38.6074Z" fill="black"/>
<path id="Vector (Stroke)_6" fill-rule="evenodd" clip-rule="evenodd" d="M10.3807 33.0835C10.5221 33.0058 10.6998 33.0574 10.7775 33.1988C11.6389 34.7652 12.2801 35.8117 13.0974 37.1457C13.3975 37.6355 13.7213 38.164 14.0884 38.7713C14.1719 38.9094 14.1277 39.089 13.9896 39.1725C13.8515 39.256 13.6719 39.2117 13.5884 39.0736C13.2251 38.4728 12.9032 37.9475 12.604 37.4591C11.784 36.1207 11.1339 35.0596 10.2655 33.4804C10.1877 33.339 10.2393 33.1613 10.3807 33.0835Z" fill="black"/>
<path id="Vector (Stroke)_7" fill-rule="evenodd" clip-rule="evenodd" d="M9.85053 33.6934C9.79677 33.5413 9.87652 33.3744 10.0287 33.3206C12.6213 32.4044 14.2526 30.7312 15.7418 27.7644C15.8142 27.6202 15.9898 27.5619 16.134 27.6343C16.2782 27.7067 16.3364 27.8823 16.264 28.0265C14.7292 31.0843 12.999 32.8907 10.2234 33.8716C10.0712 33.9253 9.9043 33.8456 9.85053 33.6934Z" fill="black"/>
<path id="Vector (Stroke)_8" fill-rule="evenodd" clip-rule="evenodd" d="M15.5118 27.5873C15.6444 27.4954 15.8264 27.5283 15.9184 27.6609C16.4166 28.3789 16.869 29.0701 17.319 29.7576L17.3199 29.759C17.7707 30.4478 18.2192 31.133 18.7126 31.8441C18.8045 31.9767 18.7716 32.1587 18.6391 32.2507C18.5065 32.3427 18.3244 32.3098 18.2324 32.1772C17.7342 31.4591 17.2819 30.768 16.8319 30.0804L16.831 30.079C16.3801 29.3902 15.9317 28.7051 15.4383 27.994C15.3463 27.8614 15.3792 27.6793 15.5118 27.5873Z" fill="black"/>
</g>
</g>
<g id="Group_5">
<path id="Vector_3" d="M29.5381 1.60107C29.2531 2.47971 30.5306 6.6412 31.4964 8.48871C29.3539 9.19817 23.981 10.4619 22.4784 11.5058C24.9504 7.83811 29.8231 0.722421 29.5381 1.60107Z" fill="#00ADE4"/>
<path id="Vector (Stroke)_9" fill-rule="evenodd" clip-rule="evenodd" d="M32.4018 8.80283C32.2519 8.86257 32.0819 8.78947 32.0222 8.63957C31.258 6.72209 30.1825 3.53401 29.6558 0.904985C29.6241 0.746762 29.7267 0.592803 29.8849 0.561108C30.0431 0.529413 30.1971 0.631984 30.2288 0.790207C30.7462 3.37283 31.8087 6.52529 32.565 8.42324C32.6248 8.57314 32.5517 8.74309 32.4018 8.80283Z" fill="black"/>
<path id="Vector (Stroke)_10" fill-rule="evenodd" clip-rule="evenodd" d="M32.6679 8.45011C32.689 8.6101 32.5763 8.75686 32.4164 8.77791C30.8319 8.98642 28.9693 9.33923 27.2718 9.85168C25.5649 10.367 24.0631 11.0327 23.167 11.8477C23.0476 11.9562 22.8628 11.9475 22.7542 11.8281C22.6457 11.7087 22.6544 11.5239 22.7738 11.4153C23.7701 10.5093 25.3767 9.81337 27.1029 9.29226C28.8385 8.76831 30.7336 8.40996 32.3401 8.19855C32.5001 8.1775 32.6469 8.29012 32.6679 8.45011Z" fill="black"/>
<path id="Vector (Stroke)_11" fill-rule="evenodd" clip-rule="evenodd" d="M22.5693 12.0388C22.4482 11.9322 22.4365 11.7475 22.5432 11.6265C23.9887 9.98541 25.257 8.13132 26.4836 6.22728C26.851 5.65703 27.2152 5.08138 27.5794 4.50581C28.427 3.16601 29.2744 1.82664 30.161 0.556811C30.2534 0.424502 30.4355 0.392131 30.5678 0.484509C30.7001 0.576886 30.7325 0.75903 30.6401 0.891338C29.7614 2.14986 28.9256 3.47092 28.0813 4.80545C27.7155 5.38369 27.3481 5.96445 26.9749 6.54376C25.7444 8.45368 24.4571 10.3378 22.9817 12.0127C22.875 12.1338 22.6904 12.1455 22.5693 12.0388Z" fill="black"/>
</g>
<g id="Group_6">
<path id="Vector_4" d="M24.8649 26.9264C25.4852 27.6107 29.7307 28.573 31.8138 28.6544C31.3633 30.8659 29.7863 36.1553 29.9442 37.9782C27.9926 34.0091 24.2445 26.242 24.8649 26.9264Z" fill="#E5B800"/>
<path id="Vector (Stroke)_12" fill-rule="evenodd" clip-rule="evenodd" d="M32.5352 28.0228C32.5124 28.1826 32.3645 28.2936 32.2047 28.2709C30.1612 27.9797 26.8606 27.3265 24.3181 26.4753C24.165 26.4241 24.0825 26.2585 24.1337 26.1055C24.185 25.9525 24.3506 25.87 24.5036 25.9212C27.0013 26.7574 30.2645 27.4042 32.2872 27.6923C32.4469 27.7151 32.558 27.8631 32.5352 28.0228Z" fill="black"/>
<path id="Vector (Stroke)_13" fill-rule="evenodd" clip-rule="evenodd" d="M32.3623 27.6196C32.5116 27.6809 32.5829 27.8516 32.5215 28.0009C31.9141 29.479 31.2934 31.2703 30.8934 32.9978C30.4911 34.7348 30.3214 36.3688 30.5825 37.5515C30.6173 37.7091 30.5177 37.865 30.3602 37.8998C30.2026 37.9346 30.0467 37.835 30.0119 37.6775C29.7216 36.3624 29.9173 34.6225 30.3241 32.8659C30.7331 31.0997 31.3651 29.2776 31.981 27.7788C32.0424 27.6295 32.2131 27.5582 32.3623 27.6196Z" fill="black"/>
<path id="Vector (Stroke)_14" fill-rule="evenodd" clip-rule="evenodd" d="M30.4517 38.1621C30.2989 38.2141 30.1329 38.1324 30.081 37.9796C29.3767 35.9092 28.3993 33.8866 27.358 31.8752C27.0461 31.2728 26.728 30.6705 26.4099 30.0682C25.6694 28.6664 24.9292 27.2649 24.2688 25.8641C24.1999 25.7181 24.2625 25.544 24.4085 25.4752C24.5544 25.4064 24.7285 25.4689 24.7973 25.6149C25.4518 27.0033 26.182 28.3855 26.9195 29.7819C27.2391 30.3869 27.5601 30.9946 27.8769 31.6065C28.9215 33.6241 29.9153 35.6782 30.6342 37.7914C30.6862 37.9442 30.6044 38.1102 30.4517 38.1621Z" fill="black"/>
</g>
<g id="Group 4915">
<path id="Vector 8616" d="M9.8877 10.5404C11.3533 10.012 13.0989 10.0052 16.3101 11.3432C12.5637 14.5544 10.5391 15.5572 9.8877 17.2303H5.60612C5.60612 17.2303 6.94412 14.0192 9.8877 10.5404Z" fill="#EE8625"/>
<g id="Group 4919">
<path id="Vector 8589 (Stroke)" fill-rule="evenodd" clip-rule="evenodd" d="M18.6853 10.7356C18.6388 10.6134 18.5019 10.552 18.3797 10.5986C16.8826 11.1689 15.2465 12.3659 13.8531 13.7971C12.4595 15.2286 11.2864 16.9173 10.7348 18.4901C10.6915 18.6135 10.7565 18.7487 10.8799 18.792C11.0033 18.8352 11.1385 18.7703 11.1818 18.6468C11.7033 17.16 12.8288 15.5284 14.1926 14.1276C15.5566 12.7265 17.1368 11.579 18.5483 11.0413C18.6706 10.9947 18.7319 10.8578 18.6853 10.7356Z" fill="black"/>
<path id="Vector 8590 (Stroke)" fill-rule="evenodd" clip-rule="evenodd" d="M11.7655 10.252C11.7321 10.3784 11.8074 10.5081 11.9339 10.5416C13.5914 10.9803 15.2516 11.4091 16.9111 11.8377C17.3666 11.9554 17.822 12.073 18.2772 12.1908C18.4039 12.2236 18.5331 12.1475 18.5659 12.0209C18.5986 11.8942 18.5226 11.765 18.3959 11.7322C17.9402 11.6143 17.4844 11.4966 17.0288 11.3789C15.3695 10.9503 13.7111 10.522 12.0551 10.0836C11.9287 10.0502 11.799 10.1255 11.7655 10.252Z" fill="black"/>
<path id="Vector 8591 (Stroke)" fill-rule="evenodd" clip-rule="evenodd" d="M12.7653 9.59151C12.6845 9.48865 12.5356 9.47078 12.4327 9.5516C9.115 12.1584 7.35374 15.3248 6.27922 17.832C6.22769 17.9523 6.28339 18.0915 6.40362 18.143C6.52385 18.1946 6.66309 18.1389 6.71462 18.0186C7.77194 15.5515 9.49312 12.4637 12.7254 9.92408C12.8282 9.84326 12.8461 9.69436 12.7653 9.59151Z" fill="black"/>
<path id="Vector 8592 (Stroke)" fill-rule="evenodd" clip-rule="evenodd" d="M5.2725 17.6534C7.89322 17.6534 10.5001 17.7717 13.1245 17.9068C13.2551 17.9135 13.3665 17.813 13.3732 17.6824C13.3799 17.5518 13.2795 17.4404 13.1488 17.4337C10.5237 17.2986 7.90635 17.1797 5.2725 17.1797C5.1417 17.1797 5.03565 17.2857 5.03565 17.4165C5.03565 17.5473 5.1417 17.6534 5.2725 17.6534Z" fill="black"/>
</g>
</g>
<g id="Group 23006">
<path id="Vector 11809 (Stroke)" fill-rule="evenodd" clip-rule="evenodd" d="M20.1395 18.6544C20.1476 18.5387 20.2848 18.4496 20.4459 18.4553C21.4579 18.4917 22.4675 18.5085 23.4813 18.5085C23.6427 18.5085 23.7735 18.6024 23.7735 18.7183C23.7735 18.8341 23.6427 18.928 23.4813 18.928C22.4585 18.928 21.4391 18.9111 20.4168 18.8744C20.2556 18.8686 20.1315 18.7701 20.1395 18.6544Z" fill="black"/>
<path id="Vector 11810 (Stroke)" fill-rule="evenodd" clip-rule="evenodd" d="M24.426 16.7038C24.5783 16.6654 24.745 16.7229 24.7984 16.8323C25.0327 17.3117 25.1869 17.7656 25.1869 18.2903C25.1869 18.4061 25.056 18.5 24.8947 18.5C24.7333 18.5 24.6025 18.4061 24.6025 18.2903C24.6025 17.8295 24.4688 17.4249 24.247 16.9712C24.1936 16.8619 24.2737 16.7421 24.426 16.7038Z" fill="black"/>
<path id="Vector 11811 (Stroke)" fill-rule="evenodd" clip-rule="evenodd" d="M25.8682 18.6495C25.88 18.534 26.0201 18.4472 26.181 18.4557C26.9164 18.4944 27.6504 18.5085 28.3913 18.5085C28.5527 18.5085 28.6835 18.6024 28.6835 18.7183C28.6835 18.8341 28.5527 18.928 28.3913 18.928C27.6403 18.928 26.8915 18.9137 26.1382 18.8741C25.9773 18.8656 25.8564 18.765 25.8682 18.6495Z" fill="black"/>
<path id="Vector 11812 (Stroke)" fill-rule="evenodd" clip-rule="evenodd" d="M24.6885 19.1535C24.8468 19.1308 25.0007 19.2045 25.0324 19.3181C25.1934 19.8961 25.2684 20.4398 25.1854 21.0357C25.1693 21.151 25.0261 21.2351 24.8656 21.2235C24.705 21.212 24.5878 21.1092 24.6039 20.9939C24.6794 20.4516 24.6129 19.9515 24.4593 19.4004C24.4277 19.2868 24.5303 19.1762 24.6885 19.1535Z" fill="black"/>
</g>
<g id="Group 23058">
<path id="Vector 11809 (Stroke)_2" fill-rule="evenodd" clip-rule="evenodd" d="M0.0003712 28.0045C0.00842945 27.8888 0.145612 27.7997 0.306777 27.8054C1.31875 27.8418 2.32836 27.8586 3.34213 27.8586C3.50349 27.8586 3.63431 27.9525 3.63431 28.0684C3.63431 28.1842 3.50349 28.2781 3.34213 28.2781C2.31934 28.2781 1.29997 28.2611 0.277595 28.2244C0.11643 28.2187 -0.00768705 28.1202 0.0003712 28.0045Z" fill="black"/>
<path id="Vector 11810 (Stroke)_2" fill-rule="evenodd" clip-rule="evenodd" d="M4.28707 26.0539C4.43934 26.0155 4.60609 26.073 4.65951 26.1824C4.89383 26.6618 5.04794 27.1157 5.04794 27.6404C5.04794 27.7562 4.91712 27.8501 4.75576 27.8501C4.59439 27.8501 4.46358 27.7562 4.46358 27.6404C4.46358 27.1796 4.32985 26.775 4.10811 26.3213C4.05468 26.2119 4.13481 26.0922 4.28707 26.0539Z" fill="black"/>
<path id="Vector 11811 (Stroke)_2" fill-rule="evenodd" clip-rule="evenodd" d="M5.72907 27.9996C5.74088 27.8841 5.88092 27.7973 6.04185 27.8057C6.77729 27.8445 7.51128 27.8586 8.25213 27.8586C8.41349 27.8586 8.54431 27.9525 8.54431 28.0684C8.54431 28.1842 8.41349 28.2781 8.25213 28.2781C7.50115 28.2781 6.75236 28.2638 5.99908 28.2242C5.83814 28.2157 5.71726 28.1151 5.72907 27.9996Z" fill="black"/>
<path id="Vector 11812 (Stroke)_2" fill-rule="evenodd" clip-rule="evenodd" d="M4.54939 28.5036C4.70762 28.4809 4.86155 28.5546 4.89319 28.6682C5.05421 29.2462 5.12919 29.7899 5.0462 30.3858C5.03014 30.5011 4.88696 30.5852 4.72639 30.5736C4.56583 30.5621 4.44868 30.4593 4.46474 30.344C4.54027 29.8017 4.47373 29.3016 4.32018 28.7505C4.28854 28.6369 4.39116 28.5263 4.54939 28.5036Z" fill="black"/>
</g>
<g id="Group 23057">
<path id="Vector 11809 (Stroke)_3" fill-rule="evenodd" clip-rule="evenodd" d="M37.3991 29.4434C37.4071 29.3277 37.5443 29.2386 37.7055 29.2444C38.7174 29.2807 39.727 29.2976 40.7408 29.2976C40.9022 29.2976 41.033 29.3915 41.033 29.5073C41.033 29.6232 40.9022 29.7171 40.7408 29.7171C39.718 29.7171 38.6987 29.7001 37.6763 29.6634C37.5151 29.6576 37.391 29.5591 37.3991 29.4434Z" fill="black"/>
<path id="Vector 11810 (Stroke)_3" fill-rule="evenodd" clip-rule="evenodd" d="M41.6858 27.4928C41.838 27.4545 42.0048 27.512 42.0582 27.6213C42.2925 28.1008 42.4466 28.5547 42.4466 29.0793C42.4466 29.1952 42.3158 29.2891 42.1544 29.2891C41.9931 29.2891 41.8623 29.1952 41.8623 29.0793C41.8623 28.6185 41.7285 28.2139 41.5068 27.7602C41.4534 27.6509 41.5335 27.5312 41.6858 27.4928Z" fill="black"/>
<path id="Vector 11811 (Stroke)_3" fill-rule="evenodd" clip-rule="evenodd" d="M43.1278 29.4386C43.1396 29.323 43.2796 29.2362 43.4405 29.2447C44.176 29.2835 44.91 29.2976 45.6508 29.2976C45.8122 29.2976 45.943 29.3915 45.943 29.5073C45.943 29.6232 45.8122 29.7171 45.6508 29.7171C44.8998 29.7171 44.151 29.7028 43.3978 29.6631C43.2368 29.6546 43.1159 29.5541 43.1278 29.4386Z" fill="black"/>
<path id="Vector 11812 (Stroke)_3" fill-rule="evenodd" clip-rule="evenodd" d="M41.9481 29.9426C42.1063 29.9199 42.2602 29.9935 42.2919 30.1071C42.4529 30.6851 42.5279 31.2289 42.4449 31.8247C42.4288 31.94 42.2856 32.0241 42.1251 32.0126C41.9645 32.0011 41.8474 31.8983 41.8634 31.783C41.939 31.2407 41.8724 30.7406 41.7189 30.1894C41.6872 30.0758 41.7898 29.9653 41.9481 29.9426Z" fill="black"/>
</g>
<g id="Group 23005">
<path id="Vector 11813 (Stroke)" fill-rule="evenodd" clip-rule="evenodd" d="M12.9459 3.81099C12.9608 3.65032 13.1032 3.53221 13.2639 3.54718C13.9548 3.61155 14.6174 3.62031 15.3197 3.62031C15.481 3.62031 15.6118 3.75112 15.6118 3.91249C15.6118 4.07385 15.481 4.20467 15.3197 4.20467C14.6143 4.20467 13.929 4.19604 13.2097 4.12902C13.049 4.11405 12.9309 3.97166 12.9459 3.81099Z" fill="black"/>
<path id="Vector 11814 (Stroke)" fill-rule="evenodd" clip-rule="evenodd" d="M17.4236 0.873378C17.5821 0.843184 17.7351 0.94721 17.7653 1.10573C17.9101 1.86584 17.9936 2.61256 17.9936 3.39206C17.9936 3.55343 17.8628 3.68424 17.7014 3.68424C17.5401 3.68424 17.4093 3.55343 17.4093 3.39206C17.4093 2.6555 17.3304 1.94585 17.1912 1.21507C17.1611 1.05655 17.2651 0.903571 17.4236 0.873378Z" fill="black"/>
<path id="Vector 11815 (Stroke)" fill-rule="evenodd" clip-rule="evenodd" d="M19.2712 3.95132C19.2907 3.79114 19.4363 3.67704 19.5965 3.6965C20.2867 3.78031 20.9774 3.8494 21.6732 3.91898C21.8338 3.93504 21.9509 4.07822 21.9349 4.23878C21.9188 4.39935 21.7756 4.5165 21.6151 4.50044L21.615 4.50044C20.9203 4.43096 20.2234 4.36127 19.526 4.27659C19.3658 4.25714 19.2518 4.11151 19.2712 3.95132Z" fill="black"/>
<path id="Vector 11816 (Stroke)" fill-rule="evenodd" clip-rule="evenodd" d="M17.4813 4.88675C17.6426 4.88904 17.7716 5.02169 17.7693 5.18304C17.7609 5.77156 17.7005 6.29707 17.6174 6.85827C17.5937 7.01789 17.4452 7.12813 17.2855 7.10448C17.1259 7.08083 17.0157 6.93226 17.0393 6.77263C17.1207 6.22363 17.1772 5.72666 17.185 5.17475C17.1873 5.0134 17.3199 4.88446 17.4813 4.88675Z" fill="black"/>
</g>
<g id="Group 23007">
<path id="Vector 11817 (Stroke)" fill-rule="evenodd" clip-rule="evenodd" d="M38.4799 3.79581C38.5435 3.94413 38.4748 4.1159 38.3264 4.17946L36.3702 5.01784C36.2219 5.0814 36.0502 5.01269 35.9866 4.86438C35.923 4.71606 35.9917 4.54429 36.14 4.48072L38.0963 3.64235C38.2446 3.57879 38.4163 3.64749 38.4799 3.79581Z" fill="black"/>
<path id="Vector 11818 (Stroke)" fill-rule="evenodd" clip-rule="evenodd" d="M37.7417 0.935016C37.8661 0.832296 38.0503 0.849911 38.153 0.97436C38.4887 1.381 38.7669 1.7988 39.0462 2.21823C39.0649 2.24629 39.0836 2.27435 39.1023 2.30242C39.1918 2.43668 39.1555 2.61809 39.0213 2.7076C38.887 2.79711 38.7056 2.76083 38.6161 2.62656C38.5986 2.60027 38.5811 2.57409 38.5638 2.54803C38.2809 2.12338 38.0182 1.72902 37.7024 1.34634C37.5996 1.22189 37.6172 1.03774 37.7417 0.935016Z" fill="black"/>
<path id="Vector 11819 (Stroke)" fill-rule="evenodd" clip-rule="evenodd" d="M41.3104 2.73426C41.0938 2.82513 40.8724 2.91801 40.6803 2.98282C40.5274 3.0344 40.3617 2.95226 40.3101 2.79936C40.2585 2.64646 40.3406 2.4807 40.4935 2.42912C40.673 2.36858 40.8523 2.29293 41.0476 2.21054C41.1851 2.15256 41.3304 2.09124 41.4893 2.02949C41.847 1.89049 42.248 1.76172 42.6363 1.76172C42.7977 1.76172 42.9285 1.89253 42.9285 2.0539C42.9285 2.21526 42.7977 2.34608 42.6363 2.34608C42.3633 2.34608 42.0483 2.43921 41.701 2.57417C41.5781 2.62192 41.4452 2.6777 41.3104 2.73426Z" fill="black"/>
<path id="Vector 11820 (Stroke)" fill-rule="evenodd" clip-rule="evenodd" d="M39.9902 4.14231C40.1191 4.04523 40.3023 4.07101 40.3994 4.1999C40.7316 4.64095 40.9916 5.07463 41.2572 5.53344C41.3381 5.67309 41.2904 5.85184 41.1507 5.93269C41.0111 6.01354 40.8323 5.96587 40.7515 5.82622C40.4879 5.37095 40.2424 4.96284 39.9326 4.55148C39.8355 4.42259 39.8613 4.2394 39.9902 4.14231Z" fill="black"/>
</g>
</g>
</svg>
