<svg width="24" height="24" viewBox="0 0 24 24" fill="none" xmlns="http://www.w3.org/2000/svg">
<path d="M12.9531 10.5781C12.5922 10.5781 12.3125 10.8578 12.3125 11.2031C12.3125 11.5484 12.5922 11.8281 12.9531 11.8281C13.2828 11.8281 13.5625 11.5484 13.5625 11.2031C13.5625 10.8578 13.2828 10.5781 12.9531 10.5781ZM8.57812 10.5781C8.21719 10.5781 7.9375 10.8578 7.9375 11.2031C7.9375 11.5484 8.21719 11.8281 8.57812 11.8281C8.90781 11.8281 9.1875 11.5484 9.1875 11.2031C9.1875 10.8578 8.90781 10.5781 8.57812 10.5781Z" fill="#595959"/>
<path d="M17.9692 9.3901C17.2176 8.35885 16.1676 7.66979 15.016 7.35885V7.36042C14.7488 7.06354 14.4473 6.7901 14.1098 6.54635C11.552 4.68698 7.96134 5.25417 6.09415 7.81198C4.58946 9.8901 4.65353 12.6854 6.1879 14.6714L6.2004 16.7432C6.2004 16.7932 6.20821 16.8432 6.22384 16.8901C6.30665 17.1542 6.5879 17.2995 6.8504 17.2167L8.82853 16.5932C9.35196 16.7792 9.89259 16.8854 10.4301 16.9151L10.4223 16.9214C11.8145 17.9354 13.6395 18.2401 15.3129 17.687L17.2988 18.3339C17.3488 18.3495 17.4004 18.3589 17.4535 18.3589C17.7301 18.3589 17.9535 18.1354 17.9535 17.8589V15.7651C19.3301 13.8964 19.366 11.3135 17.9692 9.3901ZM9.04728 15.4839L8.85978 15.4057L7.3129 15.8901L7.29728 14.2651L7.17228 14.1245C5.8504 12.512 5.7629 10.1885 7.0004 8.48385C8.50665 6.41823 11.3942 5.96198 13.4535 7.4526C15.5192 8.95417 15.977 11.837 14.4848 13.8901C13.2332 15.6073 10.9926 16.2417 9.04728 15.4839ZM16.9379 15.2182L16.8129 15.3745L16.8285 16.9995L15.2973 16.4839L15.1098 16.562C14.2348 16.887 13.302 16.9135 12.4379 16.6714L12.4348 16.6698C13.5895 16.3151 14.6363 15.5964 15.391 14.562C16.5848 12.9167 16.7785 10.8495 16.0848 9.08698L16.0942 9.09323C16.4535 9.35104 16.7832 9.67292 17.0629 10.062C18.1973 11.6182 18.1332 13.737 16.9379 15.2182Z" fill="#262626"/>
<path d="M10.7656 10.5781C10.4047 10.5781 10.125 10.8578 10.125 11.2031C10.125 11.5484 10.4047 11.8281 10.7656 11.8281C11.0953 11.8281 11.375 11.5484 11.375 11.2031C11.375 10.8578 11.0953 10.5781 10.7656 10.5781Z" fill="#262626"/>
</svg>
