<svg width="306" height="110" viewBox="0 0 306 110" fill="none" xmlns="http://www.w3.org/2000/svg">
    <rect width="306" height="34" fill="#F5F5F5" />
    <circle cx="18.9583" cy="17.9583" r="7.95833" fill="#D9D9D9" />
    <line x1="44.9167" y1="16.9583" x2="82.1774" y2="16.9583" stroke="#D9D9D9" stroke-width="6" stroke-linecap="round"
          stroke-linejoin="round" />
    <line x1="97.1774" y1="16.9583" x2="134.438" y2="16.9583" stroke="#D9D9D9" stroke-width="6" stroke-linecap="round"
          stroke-linejoin="round" />
    <line x1="149.438" y1="16.9583" x2="186.699" y2="16.9583" stroke="#D9D9D9" stroke-width="6" stroke-linecap="round"
          stroke-linejoin="round" />
    <line x1="201.699" y1="16.9583" x2="290.699" y2="16.9583" stroke="#D9D9D9" stroke-width="6" stroke-linecap="round"
          stroke-linejoin="round" />
    <rect y="38" width="306" height="34" fill="#F5F5F5" />
    <circle cx="18.9583" cy="55.9583" r="7.95833" fill="#D9D9D9" />
    <line x1="44.9167" y1="54.9583" x2="82.1774" y2="54.9583" stroke="#D9D9D9" stroke-width="6" stroke-linecap="round"
          stroke-linejoin="round" />
    <line x1="97.1774" y1="54.9583" x2="134.438" y2="54.9583" stroke="#D9D9D9" stroke-width="6" stroke-linecap="round"
          stroke-linejoin="round" />
    <line x1="149.438" y1="54.9583" x2="186.699" y2="54.9583" stroke="#D9D9D9" stroke-width="6" stroke-linecap="round"
          stroke-linejoin="round" />
    <line x1="201.699" y1="54.9583" x2="290.699" y2="54.9583" stroke="#D9D9D9" stroke-width="6" stroke-linecap="round"
          stroke-linejoin="round" />
    <rect y="76" width="306" height="34" fill="#F5F5F5" />
    <circle cx="18.9583" cy="93.9583" r="7.95833" fill="#D9D9D9" />
    <line x1="44.9167" y1="92.9583" x2="82.1774" y2="92.9583" stroke="#D9D9D9" stroke-width="6" stroke-linecap="round"
          stroke-linejoin="round" />
    <line x1="97.1774" y1="92.9583" x2="134.438" y2="92.9583" stroke="#D9D9D9" stroke-width="6" stroke-linecap="round"
          stroke-linejoin="round" />
    <line x1="149.438" y1="92.9583" x2="186.699" y2="92.9583" stroke="#D9D9D9" stroke-width="6" stroke-linecap="round"
          stroke-linejoin="round" />
    <line x1="201.699" y1="92.9583" x2="290.699" y2="92.9583" stroke="#D9D9D9" stroke-width="6" stroke-linecap="round"
          stroke-linejoin="round" />
</svg>
