<svg width="180" height="142" viewBox="0 0 180 142" fill="none" xmlns="http://www.w3.org/2000/svg">
    <g clip-path="url(#clip0)">
        <g opacity="0.5">
            <path opacity="0.5" d="M128.556 0.0183844C127.851 0.00729329 126.96 0.203236 126.415 1.17741C125.348 3.09247 127.065 4.97612 126.18 7.01689C125.928 7.57224 125.531 8.04982 125.031 8.39958C124.175 9.01514 123.303 9.19814 122.438 9.566C121.398 9.97925 120.538 10.7451 120.009 11.7288C119.483 12.7914 119.304 13.992 119.498 15.1615C119.668 16.1819 120.07 16.9915 120.402 17.864C120.805 18.9444 121.096 20.063 121.271 21.2024C121.37 21.7337 121.398 22.2756 121.356 22.8144C121.259 23.5006 121.092 24.1751 120.858 24.8274L118.953 30.7778C118.679 31.553 118.475 32.351 118.342 33.1624C118.259 34.0093 118.283 34.8634 118.416 35.7041C118.624 37.4454 118.855 39.2569 119.681 40.3457C120.508 41.4345 122.128 41.5047 123.314 39.9612C124.442 38.4824 124.733 36.2457 125.767 34.6375C127.395 32.1013 129.999 32.3213 131.744 29.9459C133.412 27.6686 133.386 24.3819 134.432 21.5795C135.173 19.572 136.47 17.8825 137.344 15.9323C138.606 13.1207 138.895 9.96343 138.456 7.47162C138.063 5.28111 137.095 3.23396 135.649 1.53972C135.108 0.885342 134.519 0.277178 133.769 0.060901C132.971 -0.17571 132.174 0.430604 131.352 0.48606C130.401 0.534122 129.514 0.0331726 128.556 0.0183844Z" fill="black"/>
            <path opacity="0.5" d="M133.032 0.0368652C133.032 0.0368652 128.438 26.5909 120.806 41.0888" stroke="#535461" stroke-width="2" stroke-miterlimit="10"/>
            <path opacity="0.5" d="M126.363 1.29932C126.363 1.29932 131.969 7.02973 129.823 14.9488" stroke="#535461" stroke-width="2" stroke-miterlimit="10"/>
            <path opacity="0.5" d="M119.755 12.3147C119.755 12.3147 129.62 16.2373 128.316 20.6959" stroke="#535461" stroke-width="2" stroke-miterlimit="10"/>
            <path opacity="0.5" d="M138.485 7.41235C138.485 7.41235 134.088 9.19987 129.531 16.1207" stroke="#535461" stroke-width="2" stroke-miterlimit="10"/>
            <path opacity="0.5" d="M131.68 29.9735C131.68 29.9735 128.703 31.005 127.182 24.6128" stroke="#535461" stroke-width="2" stroke-miterlimit="10"/>
            <path opacity="0.5" d="M119.296 30.5819C119.296 30.5819 125.024 31.3435 125.876 28.7334" stroke="#535461" stroke-width="2" stroke-miterlimit="10"/>
        </g>
        <g opacity="0.5">
            <path opacity="0.5" d="M18.7502 32.885C18.3538 33.4692 18.0278 34.3176 18.5465 35.3066C19.5653 37.2475 22.0846 36.8482 23.3091 38.706C23.6362 39.2208 23.8186 39.814 23.837 40.4233C23.8833 41.4751 23.5573 42.3032 23.3887 43.2293C23.1661 44.3215 23.336 45.4569 23.8685 46.4365C24.4696 47.458 25.3766 48.2655 26.4619 48.7453C27.4103 49.1631 28.3143 49.2703 29.222 49.4736C30.348 49.7313 31.4448 50.103 32.4952 50.5828C32.9945 50.7917 33.4641 51.0651 33.892 51.3961C34.4138 51.8531 34.8874 52.3623 35.3054 52.9156L39.2455 57.7698C39.7461 58.4242 40.304 59.0329 40.9126 59.5888C41.5767 60.1232 42.3062 60.5711 43.0837 60.9215C44.6564 61.7035 46.3013 62.5039 47.6666 62.4133C49.0318 62.3227 49.9803 61.0084 49.3338 59.171C48.7225 57.4223 46.9997 55.949 46.218 54.204C44.9861 51.4534 46.5996 49.3979 45.5678 46.6436C44.5786 43.9965 41.8055 42.2219 40.0346 39.804C38.7638 38.0775 38.0562 36.0774 36.9021 34.2751C35.235 31.6872 32.7527 29.7074 30.4187 28.7055C28.3677 27.8306 26.1206 27.5155 23.9074 27.7923C23.0627 27.8848 22.2309 28.0419 21.6308 28.5465C20.9935 29.0826 21.075 30.0845 20.6601 30.7962C20.197 31.628 19.2893 32.0939 18.7502 32.885Z" fill="black"/>
            <path opacity="0.5" d="M21.2232 29.1621C21.2232 29.1621 40.9478 47.5641 48.9022 61.892" stroke="#535461" stroke-width="2" stroke-miterlimit="10"/>
            <path opacity="0.5" d="M18.6224 35.4175C18.6224 35.4175 26.5045 33.8888 31.9599 40.0203" stroke="#535461" stroke-width="2" stroke-miterlimit="10"/>
            <path opacity="0.5" d="M24.2242 46.9707C24.2242 46.9707 32.9306 40.8946 35.9426 44.429" stroke="#535461" stroke-width="2" stroke-miterlimit="10"/>
            <path opacity="0.5" d="M30.3964 28.6704C30.3964 28.6704 29.4795 33.3213 32.7787 40.9187" stroke="#535461" stroke-width="2" stroke-miterlimit="10"/>
            <path opacity="0.5" d="M45.5622 46.7139C45.5622 46.7139 44.7916 49.7639 38.5971 47.5217" stroke="#535461" stroke-width="2" stroke-miterlimit="10"/>
            <path opacity="0.5" d="M39.2751 57.3816C39.2751 57.3816 43.0559 53.021 41.3368 50.8804" stroke="#535461" stroke-width="2" stroke-miterlimit="10"/>
        </g>
        <path d="M15.0436 11.5403C14.1173 12.6327 13.2504 14.1448 13.9321 15.6366C15.2547 18.5591 20.1062 17.1339 21.8382 19.8586C22.3569 20.6738 22.4273 21.6701 22.3069 22.5593C22.0735 24.2987 21.2103 25.7757 20.6138 27.3654C20.0173 28.9552 19.708 30.8776 20.549 32.5561C21.3585 34.1809 23.0645 35.2069 24.7169 35.6154C26.3693 36.0239 28.0253 35.9315 29.6758 35.9851C31.6367 36.0618 33.5836 36.3481 35.4832 36.8391C36.3191 37.0189 37.1208 37.331 37.858 37.7634C38.7009 38.3013 39.3825 39.0906 40.0494 39.867L45.9772 46.7601C46.7645 47.6844 47.5684 48.6086 48.5446 49.287C49.6709 50.069 50.9528 50.4664 52.2143 50.849C54.9281 51.6772 57.7716 52.5127 60.3649 51.9452C62.9583 51.3777 65.1349 48.9044 64.4866 46.041C63.8697 43.3145 61.0874 41.3809 60.1501 38.7098C58.6681 34.5007 62.3267 30.5967 61.2282 26.3136C60.176 22.2062 55.5116 20.0878 52.9182 16.6107C51.0658 14.1189 50.3359 11.0023 48.7169 8.35156C46.3847 4.53251 42.3168 1.99819 38.2507 1.03696C34.1847 0.0757291 30.0963 0.539707 26.2915 1.49724C24.6799 1.90576 23.0683 2.4215 21.7901 3.44188C20.4323 4.52697 20.2748 6.17215 19.2856 7.48275C18.139 9.00963 16.2921 10.0596 15.0436 11.5403Z" fill="black"/>
        <path d="M20.8138 4.58984C20.8138 4.58984 52.2439 29.2676 62.8194 50.7215" stroke="#535461" stroke-width="2" stroke-miterlimit="10"/>
        <path d="M14.0321 15.7973C14.0321 15.7973 29.2905 10.8655 37.6598 19.4278" stroke="#535461" stroke-width="2" stroke-miterlimit="10"/>
        <path d="M21.0343 33.3473C21.0343 33.3473 39.2084 20.5925 43.8024 25.5669" stroke="#535461" stroke-width="2" stroke-miterlimit="10"/>
        <path d="M38.1859 0.981445C38.1859 0.981445 35.0534 9.00218 38.9269 20.6608" stroke="#535461" stroke-width="2" stroke-miterlimit="10"/>
        <path d="M61.1652 26.4524C61.1652 26.4524 58.7922 31.7632 47.8463 29.9054" stroke="#535461" stroke-width="2" stroke-miterlimit="10"/>
        <path d="M46.1216 46.1261C46.1216 46.1261 54.5446 37.719 51.9698 34.6653" stroke="#535461" stroke-width="2" stroke-miterlimit="10"/>
        <path opacity="0.1" d="M90 141.266C139.706 141.266 180 137.866 180 133.672C180 129.478 139.706 126.078 90 126.078C40.2944 126.078 0 129.478 0 133.672C0 137.866 40.2944 141.266 90 141.266Z" fill="black"/>
        <path d="M159.87 73.8005C159.486 72.6803 158.932 71.2606 158.495 70.926C158.469 70.9046 158.439 70.8866 158.408 70.8724H158.354V69.4879L157.321 69.6524C157.157 69.1523 157.033 68.6398 156.95 68.12C157.05 68.2194 157.177 68.2873 157.315 68.3149C157.453 68.3426 157.596 68.3287 157.726 68.2752C157.71 68.2475 157.695 68.2179 157.68 68.1884L157.726 68.168C157.564 67.8816 157.478 67.5582 157.476 67.229C157.485 66.9282 157.533 66.6299 157.619 66.3417C157.804 65.7039 158.117 65.1087 158.291 64.4673C158.403 64.0546 158.455 63.6283 158.447 63.201C158.453 62.4767 158.288 61.7612 157.965 61.1122C157.884 60.9248 157.757 60.7608 157.595 60.6353C157.449 60.5548 157.3 60.4819 157.147 60.4172C156.89 60.2445 156.668 60.0243 156.495 59.7683C155.76 58.8759 154.777 58.221 153.67 57.8865C153.381 57.7789 153.068 57.754 152.766 57.8145C152.071 57.9993 151.819 58.8589 151.256 59.3099C150.759 59.7073 150.078 59.748 149.454 59.8811C148.829 60.0142 148.201 60.2785 147.775 60.7591C147.482 61.0941 147.322 61.5249 147.325 61.9699C147.308 62.1778 147.345 62.3866 147.432 62.5762C147.519 62.7659 147.653 62.9301 147.822 63.0532C148.014 63.1789 148.232 63.2607 148.459 63.2927C148.687 63.3247 148.919 63.306 149.139 63.238C148.967 63.8297 148.92 64.4504 149 65.0612C149.08 65.672 149.286 66.2596 149.604 66.7873C149.923 67.3149 150.347 67.7712 150.851 68.1275C151.354 68.4837 151.926 68.7323 152.53 68.8575L152.651 69.0738C153.023 69.7654 153.306 70.5015 153.492 71.2643C152.54 71.8022 151.5 72.3069 150.872 72.3549C150.847 72.5999 150.801 72.8422 150.735 73.0795C150.589 73.6746 150.307 74.228 149.911 74.697C149.057 75.6545 145.217 82.8933 145.217 82.8933C145.217 82.8933 145.097 83.1817 144.898 83.6734C142.514 83.9655 138.622 84.3869 137.537 84.1707L133.276 80.1261C133.276 80.1261 131.898 81.1761 132.019 82.4515L131.261 81.7232C131.261 81.7232 127.208 84.8103 133.608 86.8325L143.346 87.9601C142.42 90.7532 141.553 94.0048 141.822 95.7738H141.901C142.087 95.7737 142.273 95.7595 142.457 95.7313L142.44 96.0456L141.497 112.81C141.497 112.81 141.284 115.897 144.165 117.28C144.165 117.28 147.684 127.604 146.299 128.775C146.299 128.775 146.464 128.862 146.742 128.983L143.846 131.543C143.846 131.543 141.712 132.075 140.54 131.968C140.334 131.94 140.124 131.988 139.952 132.104C139.779 132.22 139.656 132.395 139.604 132.596C139.604 132.619 139.604 132.641 139.593 132.663V132.691C139.593 132.713 139.593 132.735 139.593 132.759C139.593 132.783 139.593 132.776 139.593 132.785C139.593 132.794 139.593 132.824 139.593 132.844C139.593 132.864 139.593 132.861 139.593 132.868C139.593 132.875 139.593 132.914 139.606 132.936V132.962C139.612 132.987 139.62 133.012 139.63 133.036L139.639 133.059C139.649 133.083 139.66 133.107 139.673 133.131V133.147C139.686 133.171 139.701 133.193 139.715 133.217L139.728 133.238C139.746 133.262 139.765 133.287 139.786 133.312L139.802 133.33C139.825 133.356 139.849 133.38 139.873 133.404L139.884 133.413L139.964 133.482L139.98 133.495C140.01 133.519 140.043 133.541 140.077 133.563L140.099 133.578C140.134 133.6 140.171 133.622 140.21 133.643H140.227L140.347 133.702H140.364L140.504 133.757L140.534 133.768L140.688 133.818H140.714L140.882 133.863H140.895L141.081 133.9H141.118L141.318 133.929H141.357L141.583 133.951C142.022 133.985 142.613 133.998 143.296 133.994C143.296 133.994 143.296 134.01 143.296 134.02C143.296 134.029 143.296 134.059 143.296 134.079V134.103C143.296 134.125 143.296 134.149 143.309 134.171V134.197C143.315 134.222 143.323 134.246 143.333 134.271L143.342 134.293C143.352 134.317 143.363 134.341 143.376 134.365V134.382C143.389 134.406 143.404 134.428 143.418 134.452L143.431 134.473C143.449 134.497 143.468 134.522 143.489 134.547L143.505 134.565C143.528 134.591 143.552 134.615 143.576 134.639L143.587 134.648L143.667 134.717L143.683 134.73C143.713 134.754 143.746 134.776 143.78 134.798L143.804 134.813C143.839 134.835 143.876 134.857 143.915 134.877H143.931L144.052 134.937H144.069L144.209 134.992L144.239 135.003L144.393 135.053H144.419L144.587 135.097H144.6L144.785 135.134H144.822L145.023 135.164H145.061L145.287 135.186C148.066 135.399 156.913 134.761 156.913 134.761V134.737V134.706C157 134.293 157.426 131.898 155.915 130.127C155.959 130.081 156.004 130.031 156.044 129.979C156.044 129.979 154.872 127.957 155.511 127.317C156.15 126.677 152.312 115.608 152.312 115.608C152.312 115.608 150.285 112.416 151.458 108.797C152.63 105.177 151.35 101.24 151.35 101.24C151.35 101.24 154.148 100.41 154.205 96.9735C154.205 96.87 154.205 96.7628 154.205 96.6537C154.266 96.6625 154.328 96.6662 154.39 96.6648C154.43 96.6676 154.469 96.6676 154.509 96.6648C154.509 96.6648 153.975 94.7497 154.616 93.3652C155.257 91.9807 156.643 93.258 157.923 87.6182C158.849 83.5366 159.664 78.8414 160.044 76.5566C160.208 75.6372 160.148 74.692 159.87 73.8005ZM135.527 85.7752L134.554 84.8509C134.877 84.984 135.234 85.1153 135.634 85.241L139.302 85.6661C137.665 85.814 136.144 85.8972 135.527 85.7752Z" fill="url(#paint0_linear)"/>
        <path d="M144.811 85.2352C144.811 85.2352 137.266 86.2815 135.694 85.9747L131.494 81.9893C131.494 81.9893 127.512 85.0227 133.801 87.008L145.545 88.3777L144.811 85.2352Z" fill="#FDC2CC"/>
        <path opacity="0.05" d="M144.811 85.2352C144.811 85.2352 137.266 86.2815 135.694 85.9747L131.494 81.9893C131.494 81.9893 127.512 85.0227 133.801 87.008L145.545 88.3777L144.811 85.2352Z" fill="black"/>
        <path d="M147.536 127.687L143.868 130.929C143.868 130.929 141.773 131.452 140.619 131.347C139.465 131.241 138.943 133.125 141.668 133.334C144.393 133.543 153.09 132.916 153.09 132.916C153.09 132.916 153.929 129.57 151.413 127.687H147.536Z" fill="#47465A"/>
        <path opacity="0.05" d="M147.536 127.687L143.868 130.929C143.868 130.929 141.773 131.452 140.619 131.347C139.465 131.241 138.943 133.125 141.668 133.334C144.393 133.543 153.09 132.916 153.09 132.916C153.09 132.916 153.929 129.57 151.413 127.687H147.536Z" fill="black"/>
        <path opacity="0.3" d="M153.221 131.469C153.215 131.85 153.171 132.229 153.09 132.602C153.09 132.602 144.383 133.229 141.668 133.02C140.358 132.92 139.801 132.432 139.701 131.964C139.582 132.5 140.056 133.21 141.668 133.334C144.393 133.543 153.09 132.916 153.09 132.916C153.192 132.441 153.236 131.955 153.221 131.469Z" fill="white"/>
        <path d="M151.832 68.3953C151.832 68.3953 154.138 71.6376 153.299 73.8337C152.46 76.0297 157.701 71.5323 157.701 71.5323C157.701 71.5323 156.024 68.6042 156.861 65.4673L151.832 68.3953Z" fill="#FDC2CC"/>
        <path d="M151.204 128.942L147.536 132.188C147.536 132.188 145.441 132.711 144.287 132.605C143.133 132.5 142.609 134.38 145.336 134.591C148.062 134.801 156.758 134.173 156.758 134.173C156.758 134.173 157.597 130.827 155.081 128.944L151.204 128.942Z" fill="#47465A"/>
        <path d="M152.253 128.21C151.706 128.883 150.935 129.134 150.13 129.18C148.298 129.267 146.28 128.21 146.28 128.21C147.642 127.06 144.185 116.915 144.185 116.915C141.357 115.557 141.566 112.523 141.566 112.523L142.492 96.0584L142.724 91.9233L145.658 90.145L147.972 91.9159L150.165 93.5962C150.307 94.1305 150.399 94.677 150.439 95.2285C150.693 99.0715 147.649 99.9755 147.649 99.9755C147.649 99.9755 148.907 103.844 147.755 107.399C146.603 110.954 148.594 114.091 148.594 114.091C148.594 114.091 152.367 124.966 151.743 125.594C151.119 126.223 152.253 128.21 152.253 128.21Z" fill="#565171"/>
        <path opacity="0.05" d="M152.253 128.21C151.706 128.883 150.935 129.134 150.13 129.18C148.298 129.267 146.28 128.21 146.28 128.21C147.642 127.06 144.185 116.915 144.185 116.915C141.357 115.557 141.566 112.523 141.566 112.523L142.492 96.0584L142.724 91.9233L145.658 90.145L147.972 91.9159L150.165 93.5962C150.307 94.1305 150.399 94.677 150.439 95.2285C150.693 99.0715 147.649 99.9755 147.649 99.9755C147.649 99.9755 148.907 103.844 147.755 107.399C146.603 110.954 148.594 114.091 148.594 114.091C148.594 114.091 152.367 124.966 151.743 125.594C151.119 126.223 152.253 128.21 152.253 128.21Z" fill="black"/>
        <path d="M155.92 129.465C154.138 131.661 149.948 129.465 149.948 129.465C150.033 129.387 150.097 129.289 150.133 129.18C150.902 127.095 147.54 117.126 147.54 117.126C144.711 115.767 144.391 112.525 144.391 112.525L143.65 95.7681L143.554 93.5979L147.962 91.9176L149.316 91.4019L153.823 94.8475C154.019 95.56 154.116 96.2957 154.112 97.0343C154.057 100.415 151.315 101.23 151.315 101.23C151.315 101.23 152.573 105.099 151.421 108.654C150.269 112.209 152.26 115.346 152.26 115.346C152.26 115.346 156.033 126.221 155.409 126.849C154.785 127.478 155.92 129.465 155.92 129.465Z" fill="#565171"/>
        <path opacity="0.1" d="M154.112 97.0382C153.207 96.9088 151.373 95.82 150.43 95.2285C150.07 95.003 149.841 94.8588 149.841 94.8588C149.841 94.8588 148.898 92.245 146.382 94.2322C145.564 94.8944 144.641 95.4149 143.65 95.772C143.271 95.9057 142.88 96.0035 142.483 96.0641L142.714 91.9289L145.649 90.1506L147.962 91.9215L149.316 91.4058L153.823 94.8477C154.019 95.5614 154.116 96.2983 154.112 97.0382Z" fill="black"/>
        <path d="M159.784 76.978C159.414 79.2221 158.61 83.8341 157.701 87.8454C156.443 93.391 155.081 92.1321 154.451 93.4927C153.822 94.8532 154.346 96.735 154.346 96.735C153.297 96.8403 149.839 94.5389 149.839 94.5389C149.839 94.5389 148.896 91.9251 146.38 93.9123C143.865 95.8994 141.873 95.7941 141.873 95.7941C141.349 92.3429 145.226 83.1409 145.226 83.1409C145.226 83.1409 149.003 76.0297 149.833 75.0888C150.222 74.6279 150.499 74.0839 150.643 73.4991C150.707 73.266 150.752 73.0279 150.776 72.7874C152.138 72.682 155.492 70.3843 155.492 70.3843L158.112 69.9666V71.3252C158.142 71.3389 158.171 71.3563 158.197 71.377C158.629 71.706 159.171 73.1016 159.547 74.2015C159.854 75.0934 159.936 76.0471 159.784 76.978Z" fill="#E8EAF1"/>
        <path opacity="0.1" d="M157.701 72.6839C157.701 72.6839 154.976 70.4879 150.889 77.5991C146.803 84.7104 145.86 83.5588 145.86 83.5588C145.86 83.5588 146.699 86.7012 146.278 87.3242C146.278 87.3242 149.107 87.1153 150.156 87.3242C151.204 87.5331 157.701 79.3755 157.701 79.3755C157.701 79.3755 161.055 74.7746 157.701 72.6839Z" fill="black"/>
        <path opacity="0.1" d="M157.597 72.2642C157.597 72.2642 154.872 70.0774 150.785 77.1794C146.699 84.2814 145.758 83.1409 145.758 83.1409C145.758 83.1409 149.003 86.6956 150.052 86.8989C151.1 87.1022 157.597 78.9503 157.597 78.9503C157.597 78.9503 160.948 74.3567 157.597 72.2642Z" fill="black"/>
        <path opacity="0.1" d="M146.182 86.6438C146.225 85.8692 145.932 84.5069 145.764 83.8007C146.401 83.7176 146.803 83.6621 146.803 83.6621L147.544 86.8046L146.182 86.6438Z" fill="black"/>
        <path opacity="0.1" d="M156.967 65.676L151.938 68.5985C152.149 68.9073 152.345 69.2269 152.523 69.5561C152.813 69.615 153.109 69.6448 153.405 69.6448C154.748 69.6448 155.374 68.2381 156.183 67.2916C156.132 66.5374 156.743 66.519 156.967 65.676Z" fill="black"/>
        <path d="M153.301 69.4414C155.732 69.4414 157.702 67.475 157.702 65.0493C157.702 62.6236 155.732 60.6572 153.301 60.6572C150.87 60.6572 148.9 62.6236 148.9 65.0493C148.9 67.475 150.87 69.4414 153.301 69.4414Z" fill="#FDC2CC"/>
        <path opacity="0.1" d="M147.733 61.4964C148.177 61.0419 148.754 60.7397 149.381 60.6332C149.993 60.5019 150.663 60.4613 151.152 60.0786C151.708 59.6368 151.952 58.7976 152.634 58.6109C152.931 58.5514 153.238 58.5757 153.521 58.6811C154.611 59.009 155.578 59.6524 156.3 60.5296C156.47 60.781 156.687 60.9975 156.939 61.1674C157.09 61.231 157.237 61.3026 157.38 61.3818C157.537 61.5054 157.661 61.6662 157.739 61.8495C158.231 62.8396 158.344 63.9745 158.058 65.0419C157.888 65.6722 157.58 66.2564 157.399 66.8904C157.217 67.5245 157.171 68.2287 157.504 68.7888C157.182 68.9534 156.774 68.7463 156.578 68.4469C156.382 68.1474 156.315 67.7777 156.207 67.432C155.998 66.7521 155.605 66.1427 155.072 65.6704C154.742 65.3783 154.146 65.1824 153.922 65.5595C153.833 65.7055 153.838 65.8904 153.762 66.0419C153.612 66.3377 153.179 66.3969 152.892 66.2268C152.615 66.0361 152.42 65.7483 152.347 65.4208C151.915 63.9642 151.18 63.0473 149.618 63.6703C149.037 63.9032 148.351 64.0603 147.792 63.661C147.055 63.1342 147.205 62.0916 147.733 61.4964Z" fill="black"/>
        <path d="M147.733 61.3892C148.177 60.9348 148.754 60.6325 149.381 60.526C149.993 60.3947 150.663 60.3541 151.152 59.9714C151.708 59.5296 151.952 58.6904 152.634 58.5037C152.931 58.4442 153.238 58.4686 153.521 58.5739C154.611 58.9018 155.578 59.5452 156.3 60.4225C156.47 60.6739 156.687 60.8903 156.939 61.0602C157.09 61.1239 157.237 61.1954 157.38 61.2746C157.537 61.3982 157.661 61.559 157.739 61.7423C158.231 62.7324 158.344 63.8673 158.058 64.9347C157.888 65.5651 157.58 66.1492 157.399 66.7832C157.217 67.4173 157.171 68.1216 157.504 68.6817C157.182 68.8462 156.774 68.6392 156.578 68.3397C156.382 68.0402 156.315 67.6705 156.207 67.3248C155.998 66.6449 155.605 66.0355 155.072 65.5632C154.742 65.2711 154.146 65.0752 153.922 65.4523C153.833 65.5983 153.838 65.7832 153.762 65.9348C153.612 66.2305 153.179 66.2897 152.892 66.1196C152.615 65.929 152.42 65.6412 152.347 65.3137C151.915 63.857 151.18 62.9402 149.618 63.5631C149.037 63.796 148.351 63.9531 147.792 63.5539C147.055 63.0289 147.205 61.9882 147.733 61.3892Z" fill="#B96B6B"/>
        <path opacity="0.05" d="M158.206 71.3715H156.076C156.076 71.3715 151.884 73.4621 151.78 73.3586C151.71 73.2884 151.061 73.4085 150.65 73.4954C150.715 73.2623 150.759 73.0242 150.784 72.7837C152.145 72.6783 155.5 70.3807 155.5 70.3807L158.119 69.9629V71.3215C158.15 71.3345 158.179 71.3512 158.206 71.3715Z" fill="black"/>
        <path opacity="0.3" d="M156.889 132.724C156.883 133.105 156.839 133.485 156.758 133.857C156.758 133.857 148.051 134.484 145.336 134.275C144.026 134.175 143.468 133.687 143.368 133.219C143.25 133.755 143.724 134.465 145.336 134.589C148.061 134.798 156.758 134.171 156.758 134.171C156.86 133.696 156.904 133.21 156.889 132.724Z" fill="white"/>
        <g opacity="0.05">
            <path opacity="0.05" d="M145.387 93.8069C143.974 94.916 142.724 95.38 141.903 95.5649C141.903 95.6425 141.918 95.7201 141.929 95.7941C141.929 95.7941 143.92 95.8995 146.436 93.9123C146.826 93.5791 147.286 93.3389 147.783 93.2098C147.24 92.9492 146.451 92.9658 145.387 93.8069Z" fill="black"/>
            <path opacity="0.05" d="M159.609 74.1995C159.238 73.0904 158.682 71.704 158.258 71.375C158.232 71.3543 158.203 71.3369 158.173 71.3232C158.173 71.3232 157.306 71.3528 157.334 71.375C157.765 71.704 158.184 72.9943 158.56 74.0942C158.863 74.9857 158.941 75.9381 158.788 76.867C158.417 79.1111 157.613 83.7231 156.704 87.7344C155.446 93.28 154.085 92.0212 153.455 93.3817C152.94 94.4908 153.197 95.9585 153.308 96.4521C153.757 96.6369 154.146 96.7534 154.398 96.7275C154.398 96.7275 153.873 94.8457 154.503 93.4852C155.133 92.1247 156.495 93.3798 157.752 87.8379C158.662 83.8285 159.462 79.2146 159.836 76.9705C159.99 76.0422 159.911 75.0905 159.609 74.1995Z" fill="black"/>
        </g>
        <path d="M52.6477 132.336C52.6477 132.336 50.2396 132.502 48.7391 129.933C48.4481 129.414 48.1042 128.926 47.7129 128.478C47.2323 127.692 46.9827 126.787 46.9923 125.866C47.0756 123.958 45.0806 113.503 45.0806 113.503C45.0806 113.503 45.3307 109.519 43.3338 107.033C42.0204 105.395 40.1309 100.7 38.9917 97.6834C39.0684 97.7514 39.1606 97.7996 39.2603 97.8239L39.214 97.5632L39.2603 97.5743L38.6786 94.3376C37.8213 93.3534 37.0987 92.26 36.5298 91.086L36.6632 91.0583L38.4285 90.6886C38.4285 90.6886 41.2979 86.6218 41.4739 84.618L41.7073 84.6291H42.0371C45.6882 84.5496 49.9858 85.045 49.9858 85.045C49.9858 85.0321 49.9654 84.9804 49.9432 84.899C49.8317 84.4963 49.7457 84.087 49.6857 83.6735L49.8506 83.6624L51.4844 83.5533C51.4844 83.5533 57.138 77.248 55.0596 76.0853C52.9812 74.9226 50.8194 81.3129 50.8194 81.3129L50.121 81.4404L49.9358 81.4756C49.9543 81.4478 49.9728 81.422 49.9951 81.3961C50.0173 81.3702 40.7644 80.982 39.351 78.7416C39.351 78.7416 35.2757 75.5048 35.1109 73.3476C35.0219 72.2034 34.3032 71.5952 33.6456 71.2773C33.1427 71.0381 32.5858 70.9342 32.0303 70.976L30.1223 71.1072L30.2575 71.3475H30.2038C30.0842 71.0739 29.9839 70.7922 29.9037 70.5046H29.9426C29.9296 70.4454 29.9167 70.3863 29.9055 70.3197C30.4902 70.182 31.0413 69.9286 31.5261 69.5746C32.0109 69.2205 32.4195 68.7729 32.7279 68.2584C33.0362 67.7439 33.2379 67.1729 33.3211 66.5792C33.4043 65.9854 33.3672 65.3811 33.2121 64.8019C33.397 64.8258 33.5845 64.8208 33.7678 64.7871C34.4681 64.6429 34.9664 63.9331 34.9849 63.2196C34.9849 63.1734 34.9849 63.1271 34.9849 63.0809C34.9849 63.0809 34.9849 63.0625 34.9849 63.0532C34.978 62.6957 34.8913 62.3443 34.7311 62.0245C34.5709 61.7047 34.3411 61.4246 34.0587 61.2047C33.6771 60.8886 33.2232 60.6631 32.8768 60.3119C32.4656 59.8922 32.2415 59.3303 31.921 58.833C31.3867 58.0153 30.5938 57.3991 29.6684 57.0825C28.9793 56.8496 28.1365 56.8237 27.6085 57.3228C27.3362 57.5797 27.1788 57.9476 26.8676 58.1639C26.4285 58.4763 25.8321 58.3838 25.2949 58.4467C24.3205 58.5613 23.4647 59.2545 23.0349 60.1362C22.7714 60.6931 22.6444 61.3046 22.6644 61.9201C22.6586 62.3426 22.709 62.7641 22.8145 63.1734C22.9182 63.5819 23.072 63.9756 23.185 64.3804C23.4184 65.2234 23.4721 66.1107 23.7407 66.9443C23.9227 67.5611 24.2852 68.1096 24.7817 68.5193L24.7021 68.8631C24.6502 68.8742 23.3554 69.1515 22.4588 71.1035C21.7512 72.6415 19.3579 74.2312 18.3057 74.8726C18.1094 74.9925 17.939 75.1502 17.8044 75.3365C17.6699 75.5228 17.5739 75.734 17.5221 75.9577C17.4211 76.4102 17.3763 76.8733 17.3887 77.3367C17.3702 78.3368 17.574 79.7195 18.3853 81.4737C20.2155 85.4573 21.5456 87.2041 21.5456 87.2041C21.5456 87.2041 21.6474 88.4242 21.653 89.7107C21.653 90.6683 21.5826 91.6221 21.3788 92.099C21.2066 92.502 21.1528 93.5316 21.1566 94.7054C21.1566 96.9588 21.3788 99.8998 21.3788 99.8998C21.3788 99.8998 22.0142 100.02 22.9997 100.164L23.6129 110.921C23.6899 112.223 23.2711 113.507 22.4403 114.514C22.0086 115.043 21.5105 115.514 20.9583 115.915C19.2115 117.159 15.4696 130.271 15.4696 130.271C15.4696 130.271 15.6549 130.282 15.9549 130.306L14.8046 133.508C14.8046 133.508 19.3986 137.02 22.1958 136.061C22.4945 135.963 22.8079 135.919 23.122 135.929C23.6777 135.929 24.854 135.495 24.1964 134.92C23.0016 133.877 21.5696 132.299 20.6119 131.201C20.7022 131.244 20.789 131.295 20.8713 131.352V131.326L20.9102 131.352C20.9102 131.352 20.9194 131.223 20.9398 131.014L20.8991 131.001C20.9843 130.138 21.251 127.968 21.7827 127.702C22.4477 127.369 27.3529 117.662 27.3529 117.662L32.2581 105.05C32.2581 105.05 36.1667 111.771 39.4918 112.932V115.736C39.4918 115.736 41.322 124.034 41.987 124.947C42.6521 125.86 41.987 129.511 41.987 129.511C42.1185 129.662 42.2692 129.794 42.4353 129.905L41.9037 132.912C41.9037 132.912 45.7289 132.746 52.2143 134.739C52.2309 134.743 54.7262 133.667 52.6477 132.336ZM37.3467 88.9325L36.5372 89.134L36.3779 89.1746C36.3612 89.0748 36.3501 89.0157 36.3501 89.0157C36.1648 89.0987 35.9657 89.147 35.7629 89.158C35.4759 88.2508 35.3103 87.3098 35.2702 86.3594C35.2702 86.3594 34.7996 84.4424 34.7737 82.8934C34.783 82.2889 34.8737 81.7621 35.1034 81.4645L35.3739 81.4867L35.5591 81.6715L35.5721 81.6844L35.6684 81.7713L35.7685 81.8619L35.7851 81.8767L35.8944 81.971L35.913 81.9876L36.0241 82.0819L36.0352 82.0911L36.1593 82.1928L36.1871 82.215L36.3186 82.3203H36.3297L36.4594 82.422L36.4891 82.4442L36.6317 82.5532L36.6613 82.5754L36.7984 82.6753L36.8225 82.6919L36.9781 82.8028L37.0151 82.8287L37.1782 82.9414L37.193 82.9507L37.3523 83.0561L37.3912 83.0819L37.5635 83.191L37.6005 83.2132L37.7617 83.3111L37.7913 83.3296L37.9766 83.4368L38.021 83.4627L38.2063 83.5699H38.2211L38.4063 83.6679L38.4526 83.6919L38.649 83.7899L38.6897 83.8084L38.875 83.8934L38.9102 83.9101L39.1158 83.9988L39.1658 84.0191L39.3807 84.1042C38.0284 85.5442 37.3467 88.9325 37.3467 88.9325Z" fill="url(#paint1_linear)"/>
        <path d="M16.8385 128.328L15.2955 132.622C15.2955 132.622 19.5208 135.855 22.2661 135.186C22.6796 135.083 23.101 135.015 23.5258 134.983C24.0945 134.94 25.0726 134.528 24.4687 134.001C22.5199 132.3 19.9228 129.141 19.9228 129.141L16.8385 128.328Z" fill="#4F4D59"/>
        <path d="M42.4909 127.921L41.761 132.053C41.761 132.053 45.4955 131.89 51.8271 133.835C51.8271 133.835 54.2631 132.781 52.2328 131.485C52.2328 131.485 49.8784 131.648 48.4168 129.136C46.9552 126.624 46.0624 126.949 46.0624 126.949L42.4909 127.921Z" fill="#4F4D59"/>
        <path d="M23.1701 97.9495L23.8852 110.519C23.9618 111.859 23.5164 113.177 22.6422 114.196C22.247 114.664 21.7967 115.083 21.301 115.444C19.5968 116.658 15.9438 129.458 15.9438 129.458C15.9438 129.458 20.084 129.7 21.2195 130.511C21.2195 130.511 21.4622 127.271 22.1124 126.947C22.7626 126.624 27.5511 117.15 27.5511 117.15L32.3433 104.83C32.3433 104.83 36.1593 111.392 39.4066 112.525V115.279C39.4066 115.279 41.1924 123.38 41.8426 124.271C42.4928 125.162 41.8426 128.726 41.8426 128.726C41.8426 128.726 43.7098 131.075 48.0111 128.563C48.0111 128.563 46.6311 127.023 46.7144 125.16C46.7978 123.296 44.8472 113.091 44.8472 113.091C44.8472 113.091 45.0898 109.209 43.143 106.772C41.1961 104.336 37.9469 95.0325 37.9469 95.0325L35.7129 90.2356L23.1701 97.9495Z" fill="#787C9C"/>
        <g opacity="0.1">
            <path opacity="0.1" d="M16.7163 129.461C16.7163 129.461 20.3692 116.662 22.0735 115.448C22.5974 115.065 23.071 114.619 23.4832 114.119C24.3171 113.113 24.7363 111.828 24.6557 110.525L23.9407 97.9551L35.9092 90.5869L35.7462 90.2375L23.2072 97.9496L23.9222 110.52C24.0058 111.823 23.5892 113.109 22.757 114.117C22.3449 114.617 21.8712 115.064 21.3473 115.446C19.6431 116.66 15.9901 129.459 15.9901 129.459C15.9901 129.459 20.1303 129.702 21.2658 130.513C21.2658 130.513 21.2751 130.387 21.2955 130.182C19.695 129.637 16.7163 129.461 16.7163 129.461Z" fill="black"/>
            <path opacity="0.1" d="M42.6131 128.733C42.6131 128.733 43.2633 125.169 42.6131 124.278C41.9629 123.387 40.1698 115.285 40.1698 115.285V112.531C36.9299 111.398 33.1139 104.83 33.1139 104.83L32.8305 105.569C33.9308 107.311 36.8669 111.634 39.4455 112.534V115.289C39.4455 115.289 41.2312 123.389 41.8814 124.28C42.5316 125.171 41.8814 128.735 41.8814 128.735C41.8814 128.735 42.7873 129.872 44.7879 129.718C43.2967 129.6 42.6131 128.733 42.6131 128.733Z" fill="black"/>
        </g>
        <path d="M51.0991 83.8544L49.5042 83.9598L48.6632 84.0153V81.9819L49.7746 81.7822L50.4582 81.6584C50.4582 81.6584 52.5681 75.4215 54.5983 76.5546C56.6286 77.6878 51.0991 83.8544 51.0991 83.8544Z" fill="#714B4F"/>
        <path d="M25.5246 67.1677C25.5246 67.1677 24.4687 71.2178 24.1445 73.73C23.8203 76.2421 31.6931 74.2161 31.6931 74.2161C31.6931 74.2161 28.6904 70.5708 30.3964 68.6262L25.5246 67.1677Z" fill="#714B4F"/>
        <path d="M34.0568 84.0172L34.2198 85.557L31.7042 85.3943L29.1775 83.202L26.6619 76.1591L25.0392 73.6488L23.8203 72.1109L24.3075 70.2476C24.3075 70.2476 24.5298 70.4324 24.9058 70.7282C26.1414 71.6728 29.0423 73.634 31.1615 73.0924C31.2595 73.068 31.356 73.0378 31.4504 73.0019L34.6125 78.4273L34.0568 84.0172Z" fill="#E6E6F0"/>
        <path opacity="0.1" d="M24.9559 69.7595C24.9559 69.7595 23.6592 70.0017 22.7644 71.9463C22.0772 73.4418 19.7598 74.9834 18.7243 75.6175C18.5269 75.738 18.3557 75.8967 18.2208 76.0844C18.0859 76.272 17.99 76.4847 17.9389 76.71C17.7296 77.6342 17.6499 79.3533 18.7873 81.8304C20.573 85.7123 21.8716 87.4203 21.8716 87.4203C21.8716 87.4203 22.1957 91.3022 21.7086 92.4427C21.2214 93.5833 21.7086 99.8146 21.7086 99.8146C21.7086 99.8146 30.2297 101.434 33.0732 99.8146C35.9166 98.1953 35.5091 91.9566 35.5091 91.9566C35.5091 91.9566 38.1877 97.6204 39.1621 97.7886L38.5934 94.6295C38.5934 94.6295 35.4276 91.2264 35.259 86.8528C35.259 86.8528 34.2847 82.884 35.096 81.8304C35.096 81.8304 48.8151 82.9654 49.6264 81.993C49.6264 81.993 40.6162 81.5882 39.2362 79.4051C39.2362 79.4051 35.259 76.246 35.096 74.1405C35.0722 73.7456 34.948 73.3632 34.7351 73.0294C34.5222 72.6956 34.2275 72.4215 33.879 72.2328C33.3268 71.9196 32.6932 71.7786 32.0599 71.828L30.226 71.9537C30.226 71.9537 33.3918 77.5436 33.2288 78.272C33.0658 79.0003 33.3918 84.9137 33.3918 84.9137C33.3918 84.9137 29.7462 77.0501 28.1291 76.1591C26.5119 75.2681 24.6391 71.6099 24.6391 71.6099L24.9633 69.7614" fill="black"/>
        <path opacity="0.1" d="M34.0568 84.0172L34.2198 85.557L31.7042 85.3943L29.1775 83.202L26.6619 76.1591L25.0392 73.6488L23.8203 72.1109L24.3075 70.2476C24.3075 70.2476 24.5298 70.4324 24.9058 70.7282L24.7947 71.3715C24.7947 71.3715 26.6619 75.0297 28.2847 75.9207C29.9074 76.8117 33.5604 84.6697 33.5604 84.6697C33.5604 84.6697 33.2362 78.7545 33.3973 78.028C33.5085 77.5326 32.0858 74.8023 31.1615 73.0961C31.2595 73.0717 31.356 73.0415 31.4504 73.0056L34.6125 78.4273L34.0568 84.0172Z" fill="black"/>
        <path opacity="0.1" d="M49.5005 83.9618L48.6595 84.0172V81.9838L49.7709 81.7842C49.38 82.2999 49.393 83.202 49.5005 83.9618Z" fill="black"/>
        <path d="M24.9559 69.5229C24.9559 69.5229 23.6592 69.7651 22.7644 71.7097C22.0772 73.2052 19.7598 74.7469 18.7243 75.3809C18.5269 75.5014 18.3557 75.6602 18.2208 75.8478C18.0859 76.0355 17.99 76.2482 17.9389 76.4734C17.7296 77.3977 17.6499 79.1168 18.7873 81.5938C20.573 85.4757 21.8716 87.1837 21.8716 87.1837C21.8716 87.1837 22.1957 91.0656 21.7086 92.2062C21.2214 93.3467 21.7086 99.5781 21.7086 99.5781C21.7086 99.5781 30.2297 101.197 33.0732 99.5781C35.9166 97.9588 35.5091 91.7052 35.5091 91.7052C35.5091 91.7052 38.1877 97.3765 39.1621 97.5373L38.5934 94.3782C38.5934 94.3782 35.4276 90.9751 35.259 86.6015C35.259 86.6015 34.2847 82.6327 35.096 81.579C35.096 81.579 38.2618 84.9821 41.8333 84.9063C45.4048 84.8306 49.6264 85.3112 49.6264 85.3112C49.6264 85.3112 48.8151 82.7232 49.6264 81.7472C49.6264 81.7472 40.6162 81.3424 39.2362 79.1593C39.2362 79.1593 35.259 76.0002 35.096 73.8947C35.0722 73.4997 34.948 73.1174 34.7351 72.7836C34.5222 72.4498 34.2275 72.1757 33.879 71.987C33.3268 71.6737 32.6932 71.5327 32.0599 71.5822L30.226 71.7079C30.226 71.7079 33.3992 77.2867 33.2362 78.0262C33.0732 78.7656 33.3992 84.6679 33.3992 84.6679C33.3992 84.6679 29.7462 76.808 28.1291 75.917C26.5119 75.026 24.6317 71.3715 24.6317 71.3715L24.9559 69.5229Z" fill="#787C9C"/>
        <path opacity="0.1" d="M23.1701 78.0259C23.1701 78.0259 25.1189 84.5881 26.2544 85.3978C27.3899 86.2074 34.2902 90.3389 36.3205 89.3666C36.3205 89.3666 36.8077 91.7974 36.0778 92.363C36.0778 92.363 28.5088 92.0673 28.4477 92.0395C28.4477 92.0395 23.4961 91.3907 22.6848 88.9617C21.8734 86.5328 20.899 82.3995 20.899 82.3995L23.1701 78.0259Z" fill="black"/>
        <path d="M33.5622 85.4349C33.7187 85.4349 33.8456 85.2536 33.8456 85.0301C33.8456 84.8065 33.7187 84.6252 33.5622 84.6252C33.4057 84.6252 33.2788 84.8065 33.2788 85.0301C33.2788 85.2536 33.4057 85.4349 33.5622 85.4349Z" fill="#BA7855"/>
        <path d="M34.3736 88.2706C34.5301 88.2706 34.657 88.0893 34.657 87.8658C34.657 87.6422 34.5301 87.4609 34.3736 87.4609C34.217 87.4609 34.0901 87.6422 34.0901 87.8658C34.0901 88.0893 34.217 88.2706 34.3736 88.2706Z" fill="#BA7855"/>
        <g opacity="0.1">
            <path opacity="0.1" d="M22.2772 99.4892C22.2772 99.4892 21.7901 93.2523 22.2772 92.1173C22.7644 90.9823 22.4402 87.0949 22.4402 87.0949C22.4402 87.0949 21.1436 85.3942 19.356 81.505C18.2186 79.0279 18.3001 77.3088 18.5076 76.3845C18.5589 76.1592 18.6551 75.9464 18.7903 75.7587C18.9255 75.5711 19.0971 75.4124 19.2948 75.2921C20.3303 74.658 22.6477 73.1164 23.3331 71.6209C23.837 70.5247 24.4687 69.9683 24.9262 69.6929L24.9577 69.5081C24.9577 69.5081 23.661 69.7502 22.7663 71.6949C22.079 73.1903 19.7616 74.732 18.728 75.366C18.5302 75.4863 18.3587 75.645 18.2234 75.8327C18.0882 76.0203 17.9921 76.2331 17.9407 76.4585C17.7314 77.3827 17.6517 79.1019 18.7891 81.5789C20.5749 85.4608 21.8734 87.1688 21.8734 87.1688C21.8734 87.1688 22.1976 91.0507 21.7104 92.1912C21.2232 93.3318 21.7104 99.5632 21.7104 99.5632C21.7104 99.5632 27.7993 100.72 31.4004 100.101C27.7586 100.532 22.2772 99.4892 22.2772 99.4892Z" fill="black"/>
            <path opacity="0.1" d="M33.2362 78.026C33.125 78.5251 33.2362 81.4605 33.327 83.2573C33.7197 84.0577 33.966 84.5863 33.966 84.5863C33.966 84.5863 33.6419 78.6711 33.803 77.9446C33.9568 77.2514 31.1059 72.168 30.8225 71.6597L30.2316 71.7003C30.2316 71.7003 33.3992 77.2866 33.2362 78.026Z" fill="black"/>
            <path opacity="0.1" d="M42.4094 84.8266C38.8379 84.9079 35.6721 81.4993 35.6721 81.4993C35.5764 81.6317 35.5066 81.7809 35.4665 81.9392C36.3927 82.8099 38.9861 84.9671 41.8407 84.8968C45.4122 84.8155 49.6338 85.3017 49.6338 85.3017C49.6338 85.3017 49.6172 85.248 49.5912 85.1556C47.2052 84.913 44.8076 84.8032 42.4094 84.8266Z" fill="black"/>
            <path opacity="0.1" d="M36.0778 91.6311C36.0778 91.6311 36.1111 92.1376 36.0926 92.8973C36.9373 94.561 38.4748 97.4299 39.1621 97.5445L39.0417 96.8791C37.8561 95.4021 36.0778 91.6311 36.0778 91.6311Z" fill="black"/>
        </g>
        <path d="M38.3507 90.8215L36.6261 91.1912L35.2664 91.4778L35.9963 89.4444L36.5039 89.3169L37.2949 89.1209C37.2949 89.1209 38.4322 83.4496 40.7052 83.8563C42.9781 84.263 38.3507 90.8215 38.3507 90.8215Z" fill="#714B4F"/>
        <path opacity="0.1" d="M36.6261 91.184L35.2664 91.4705L35.9963 89.4371L36.5039 89.3096C36.6174 89.9275 36.6584 90.5566 36.6261 91.184Z" fill="black"/>
        <path d="M23.1701 77.8599C23.1701 77.8599 25.1189 84.4221 26.2544 85.2317C27.3899 86.0414 34.2902 90.1728 36.3205 89.2005C36.3205 89.2005 36.8077 91.6313 36.0778 92.1969C36.0778 92.1969 28.5088 91.9012 28.4477 91.8735C28.4477 91.8735 23.4961 91.2246 22.6848 88.7957C21.8734 86.3667 20.899 82.2335 20.899 82.2335L23.1701 77.8599Z" fill="#787C9C"/>
        <path opacity="0.1" d="M25.606 67.3306C25.606 67.3306 25.4412 67.9646 25.2207 68.887C25.6711 69.7358 26.389 70.4129 27.2635 70.8138C28.1381 71.2148 29.1206 71.3172 30.0593 71.1052C29.8648 70.2734 29.9074 69.4416 30.4779 68.7817L25.606 67.3306Z" fill="black"/>
        <path d="M29.0164 71.0553C31.4369 71.0553 33.3992 69.0972 33.3992 66.6817C33.3992 64.2662 31.4369 62.3081 29.0164 62.3081C26.5958 62.3081 24.6335 64.2662 24.6335 66.6817C24.6335 69.0972 26.5958 71.0553 29.0164 71.0553Z" fill="#714B4F"/>
        <path opacity="0.1" d="M32.8212 65.4784C33.1395 65.5665 33.4727 65.5867 33.7993 65.5375C34.4829 65.397 34.97 64.7038 34.9867 64.0069C34.9799 63.6578 34.8952 63.3146 34.7388 63.0022C34.5825 62.6898 34.3583 62.4161 34.0827 62.2009C33.7122 61.8922 33.2677 61.6723 32.9287 61.3284C32.5267 60.9199 32.3081 60.3691 32.0025 59.8884C31.4788 59.0892 30.7021 58.4879 29.7962 58.1804C29.1238 57.953 28.3013 57.9272 27.7845 58.4152C27.5196 58.6647 27.364 59.0252 27.0676 59.2359C26.6378 59.5409 26.0562 59.4503 25.5319 59.5113C25.0568 59.5842 24.6069 59.7728 24.2221 60.0604C23.8373 60.348 23.5295 60.7257 23.3257 61.1602C22.9276 62.0405 22.8516 63.0322 23.1108 63.9626C23.2127 64.36 23.3609 64.7463 23.4702 65.1419C23.698 65.9664 23.7518 66.8315 24.0148 67.6448C24.2778 68.4582 24.8206 69.253 25.6412 69.4933C25.5763 68.5815 25.7567 67.6689 26.1636 66.85C26.231 66.6715 26.3633 66.525 26.5341 66.4396C26.6805 66.4021 26.8341 66.4021 26.9805 66.4396C28.0083 66.5917 29.0569 66.3798 29.9444 65.8407C30.2556 65.6558 30.741 65.007 31.0744 64.9423C31.5004 64.8665 32.3766 65.3785 32.8212 65.4784Z" fill="black"/>
        <path d="M32.8212 65.3155C33.1395 65.4037 33.4728 65.4239 33.7993 65.3747C34.4829 65.2342 34.97 64.541 34.9867 63.8441C34.9799 63.495 34.8952 63.1518 34.7388 62.8394C34.5825 62.527 34.3584 62.2533 34.0827 62.0381C33.7123 61.7294 33.2677 61.5094 32.9287 61.1656C32.5267 60.7571 32.3081 60.2062 32.0025 59.7256C31.4788 58.9264 30.7021 58.3251 29.7962 58.0176C29.1238 57.7902 28.3013 57.7643 27.7845 58.2523C27.5196 58.5019 27.364 58.8623 27.0676 59.0731C26.6378 59.3781 26.0562 59.2875 25.5319 59.3485C25.0568 59.4214 24.6069 59.61 24.2221 59.8975C23.8373 60.1851 23.5295 60.5629 23.3257 60.9974C22.9294 61.8755 22.8534 62.8642 23.1108 63.7924C23.2127 64.1898 23.3609 64.5761 23.4702 64.9717C23.6981 65.7962 23.7518 66.6613 24.0148 67.4746C24.2779 68.288 24.8206 69.0828 25.6412 69.3231C25.5763 68.4113 25.7567 67.4987 26.1636 66.6797C26.231 66.5013 26.3633 66.3548 26.5341 66.2694C26.6806 66.2319 26.8341 66.2319 26.9805 66.2694C28.0083 66.4215 29.0569 66.2096 29.9444 65.6705C30.2556 65.4856 30.741 64.8368 31.0744 64.7721C31.5005 64.7037 32.3767 65.2176 32.8212 65.3155Z" fill="#503F43"/>
        <path d="M137.65 19.9343H41.9259V134.173H137.65V19.9343Z" fill="#FAFBFC"/>
        <path d="M137.65 19.9343H41.9259V23.807H137.65V19.9343Z" fill="#7983A6"/>
        <path d="M54.8614 66.4858H124.714" stroke="#7983A6" stroke-miterlimit="10"/>
        <g opacity="0.5">
            <path opacity="0.5" d="M54.8614 58.9011H55.9728" stroke="#7983A6" stroke-miterlimit="10"/>
            <path opacity="0.5" d="M58.155 58.9011H122.512" stroke="#7983A6" stroke-miterlimit="10" stroke-dasharray="11.78 11.78"/>
            <path opacity="0.5" d="M123.603 58.9011H124.714" stroke="#7983A6" stroke-miterlimit="10"/>
        </g>
        <g opacity="0.5">
            <path opacity="0.5" d="M54.8614 51.3186H55.9728" stroke="#7983A6" stroke-miterlimit="10"/>
            <path opacity="0.5" d="M58.155 51.3186H122.512" stroke="#7983A6" stroke-miterlimit="10" stroke-dasharray="11.78 11.78"/>
            <path opacity="0.5" d="M123.603 51.3186H124.714" stroke="#7983A6" stroke-miterlimit="10"/>
        </g>
        <g opacity="0.5">
            <path opacity="0.5" d="M54.8614 43.7341H55.9728" stroke="#7983A6" stroke-miterlimit="10"/>
            <path opacity="0.5" d="M58.155 43.7341H122.512" stroke="#7983A6" stroke-miterlimit="10" stroke-dasharray="11.78 11.78"/>
            <path opacity="0.5" d="M123.603 43.7341H124.714" stroke="#7983A6" stroke-miterlimit="10"/>
        </g>
        <g opacity="0.5">
            <path opacity="0.5" d="M54.8614 36.1514H55.9728" stroke="#7983A6" stroke-miterlimit="10"/>
            <path opacity="0.5" d="M58.155 36.1514H122.512" stroke="#7983A6" stroke-miterlimit="10" stroke-dasharray="11.78 11.78"/>
            <path opacity="0.5" d="M123.603 36.1514H124.714" stroke="#7983A6" stroke-miterlimit="10"/>
        </g>
        <g opacity="0.3">
            <path opacity="0.3" d="M63.351 51.3186H58.3384V66.4857H63.351V51.3186Z" fill="black"/>
        </g>
        <path d="M77.3368 43.6528H72.3242V66.5653H77.3368V43.6528Z" fill="black"/>
        <g opacity="0.3">
            <path opacity="0.3" d="M91.3245 58.8201H86.3118V66.6449H91.3245V58.8201Z" fill="black"/>
        </g>
        <path d="M105.31 35.9094H100.298V66.5671H105.31V35.9094Z" fill="black"/>
        <g opacity="0.3">
            <path opacity="0.3" d="M119.296 43.3313H114.283V66.4859H119.296V43.3313Z" fill="black"/>
        </g>
        <path d="M60.8447 71.2439C61.5588 71.2439 62.1377 70.6662 62.1377 69.9536C62.1377 69.241 61.5588 68.6633 60.8447 68.6633C60.1306 68.6633 59.5517 69.241 59.5517 69.9536C59.5517 70.6662 60.1306 71.2439 60.8447 71.2439Z" fill="black"/>
        <path d="M74.912 71.2439C75.6261 71.2439 76.205 70.6662 76.205 69.9536C76.205 69.241 75.6261 68.6633 74.912 68.6633C74.1979 68.6633 73.619 69.241 73.619 69.9536C73.619 70.6662 74.1979 71.2439 74.912 71.2439Z" fill="black"/>
        <path d="M88.9793 71.2439C89.6934 71.2439 90.2723 70.6662 90.2723 69.9536C90.2723 69.241 89.6934 68.6633 88.9793 68.6633C88.2652 68.6633 87.6863 69.241 87.6863 69.9536C87.6863 70.6662 88.2652 71.2439 88.9793 71.2439Z" fill="black"/>
        <path d="M103.047 71.2439C103.761 71.2439 104.34 70.6662 104.34 69.9536C104.34 69.241 103.761 68.6633 103.047 68.6633C102.333 68.6633 101.754 69.241 101.754 69.9536C101.754 70.6662 102.333 71.2439 103.047 71.2439Z" fill="black"/>
        <path d="M117.114 71.2439C117.828 71.2439 118.407 70.6662 118.407 69.9536C118.407 69.241 117.828 68.6633 117.114 68.6633C116.4 68.6633 115.821 69.241 115.821 69.9536C115.821 70.6662 116.4 71.2439 117.114 71.2439Z" fill="black"/>
        <path d="M54.8614 115.215H124.714" stroke="#7983A6" stroke-miterlimit="10"/>
        <g opacity="0.5">
            <path opacity="0.5" d="M54.8614 107.63H55.9728" stroke="#7983A6" stroke-miterlimit="10"/>
            <path opacity="0.5" d="M58.155 107.63H122.512" stroke="#7983A6" stroke-miterlimit="10" stroke-dasharray="11.78 11.78"/>
            <path opacity="0.5" d="M123.603 107.63H124.714" stroke="#7983A6" stroke-miterlimit="10"/>
        </g>
        <g opacity="0.5">
            <path opacity="0.5" d="M54.8614 100.048H55.9728" stroke="#7983A6" stroke-miterlimit="10"/>
            <path opacity="0.5" d="M58.155 100.048H122.512" stroke="#7983A6" stroke-miterlimit="10" stroke-dasharray="11.78 11.78"/>
            <path opacity="0.5" d="M123.603 100.048H124.714" stroke="#7983A6" stroke-miterlimit="10"/>
        </g>
        <g opacity="0.5">
            <path opacity="0.5" d="M54.8614 92.4631H55.9728" stroke="#7983A6" stroke-miterlimit="10"/>
            <path opacity="0.5" d="M58.155 92.4631H122.512" stroke="#7983A6" stroke-miterlimit="10" stroke-dasharray="11.78 11.78"/>
            <path opacity="0.5" d="M123.603 92.4631H124.714" stroke="#7983A6" stroke-miterlimit="10"/>
        </g>
        <g opacity="0.5">
            <path opacity="0.5" d="M54.8614 84.8804H55.9728" stroke="#7983A6" stroke-miterlimit="10"/>
            <path opacity="0.5" d="M58.155 84.8804H122.512" stroke="#7983A6" stroke-miterlimit="10" stroke-dasharray="11.78 11.78"/>
            <path opacity="0.5" d="M123.603 84.8804H124.714" stroke="#7983A6" stroke-miterlimit="10"/>
        </g>
        <path d="M63.351 100.048H58.3384V115.215H63.351V100.048Z" fill="black"/>
        <path d="M77.3368 99.9661H72.3242V115.294H77.3368V99.9661Z" fill="black"/>
        <path d="M91.3245 107.551H86.3118V115.375H91.3245V107.551Z" fill="black"/>
        <path d="M105.31 84.6382H100.298V115.296H105.31V84.6382Z" fill="black"/>
        <path d="M138.376 66.5505H133.363V89.7051H138.376V66.5505Z" fill="black"/>
        <g opacity="0.7">
            <path opacity="0.7" d="M60.8447 119.973C61.5588 119.973 62.1377 119.395 62.1377 118.682C62.1377 117.97 61.5588 117.392 60.8447 117.392C60.1306 117.392 59.5517 117.97 59.5517 118.682C59.5517 119.395 60.1306 119.973 60.8447 119.973Z" fill="black"/>
        </g>
        <g opacity="0.7">
            <path opacity="0.7" d="M74.912 119.973C75.6261 119.973 76.205 119.395 76.205 118.682C76.205 117.97 75.6261 117.392 74.912 117.392C74.1979 117.392 73.619 117.97 73.619 118.682C73.619 119.395 74.1979 119.973 74.912 119.973Z" fill="black"/>
        </g>
        <g opacity="0.7">
            <path opacity="0.7" d="M88.9793 119.973C89.6934 119.973 90.2723 119.395 90.2723 118.682C90.2723 117.97 89.6934 117.392 88.9793 117.392C88.2652 117.392 87.6863 117.97 87.6863 118.682C87.6863 119.395 88.2652 119.973 88.9793 119.973Z" fill="black"/>
        </g>
        <g opacity="0.7">
            <path opacity="0.7" d="M103.047 119.973C103.761 119.973 104.34 119.395 104.34 118.682C104.34 117.97 103.761 117.392 103.047 117.392C102.333 117.392 101.754 117.97 101.754 118.682C101.754 119.395 102.333 119.973 103.047 119.973Z" fill="black"/>
        </g>
        <g opacity="0.7">
            <path opacity="0.7" d="M117.114 119.973C117.828 119.973 118.407 119.395 118.407 118.682C118.407 117.97 117.828 117.392 117.114 117.392C116.4 117.392 115.821 117.97 115.821 118.682C115.821 119.395 116.4 119.973 117.114 119.973Z" fill="black"/>
        </g>
        <path d="M34.8348 133.755C35.1743 133.479 35.4218 133.106 35.5443 132.687C35.6369 132.262 35.4554 131.753 35.0479 131.598C34.5922 131.424 34.105 131.739 33.7363 132.058C33.3677 132.378 32.9435 132.74 32.46 132.672C32.7085 132.447 32.8944 132.162 32.9996 131.844C33.1048 131.526 33.1257 131.187 33.0602 130.859C33.0393 130.723 32.9817 130.595 32.8935 130.489C32.6397 130.219 32.1822 130.335 31.8784 130.548C30.9151 131.225 30.6465 132.53 30.6409 133.705C30.5446 133.282 30.6261 132.84 30.6224 132.411C30.6187 131.983 30.5002 131.487 30.1334 131.262C29.9059 131.14 29.6505 131.079 29.3924 131.086C28.9589 131.069 28.4773 131.114 28.1809 131.43C27.8104 131.822 27.9086 132.482 28.2291 132.909C28.5496 133.336 29.0349 133.611 29.4832 133.911C29.8425 134.124 30.1489 134.415 30.3797 134.763C30.4069 134.811 30.4292 134.862 30.4464 134.914H33.1602C33.7683 134.605 34.3316 134.215 34.8348 133.755Z" fill="black"/>
        <path d="M166.727 131.537C167.067 131.261 167.314 130.888 167.437 130.469C167.529 130.043 167.348 129.535 166.94 129.38C166.485 129.206 165.998 129.52 165.629 129.84C165.26 130.16 164.836 130.522 164.353 130.454C164.601 130.229 164.787 129.944 164.892 129.626C164.997 129.308 165.018 128.969 164.953 128.64C164.932 128.504 164.874 128.377 164.786 128.271C164.532 128.001 164.075 128.117 163.771 128.33C162.808 129.006 162.539 130.311 162.533 131.487C162.437 131.064 162.519 130.622 162.515 130.193C162.511 129.764 162.393 129.269 162.026 129.043C161.798 128.921 161.543 128.861 161.285 128.868C160.852 128.851 160.37 128.895 160.073 129.212C159.703 129.603 159.801 130.263 160.122 130.69C160.442 131.117 160.927 131.393 161.376 131.692C161.735 131.905 162.041 132.197 162.272 132.544C162.299 132.593 162.322 132.643 162.339 132.696H165.053C165.661 132.387 166.224 131.997 166.727 131.537Z" fill="black"/>
        <path d="M147.536 86.7992L146.182 86.6421L135.809 85.4387C129.512 83.4534 133.495 80.4292 133.495 80.4292L137.687 84.4035C138.897 84.6457 143.639 84.0819 145.764 83.8101C146.401 83.727 146.803 83.6715 146.803 83.6715L147.536 86.7992Z" fill="#FDC2CC"/>
        <path d="M157.701 72.4805C157.701 72.4805 154.976 70.2845 150.889 77.3958C146.803 84.507 145.86 83.3554 145.86 83.3554C145.86 83.3554 146.699 86.4979 146.278 87.1208C146.278 87.1208 149.107 86.912 150.156 87.1208C151.204 87.3297 157.701 79.1722 157.701 79.1722C157.701 79.1722 161.055 74.5657 157.701 72.4805Z" fill="#E8EAF1"/>
    </g>
    <defs>
        <linearGradient id="paint0_linear" x1="145.087" y1="135.314" x2="145.087" y2="57.7812" gradientUnits="userSpaceOnUse">
            <stop stop-color="#808080" stop-opacity="0.25"/>
            <stop offset="0.54" stop-color="#808080" stop-opacity="0.12"/>
            <stop offset="1" stop-color="#808080" stop-opacity="0.1"/>
        </linearGradient>
        <linearGradient id="paint1_linear" x1="12391.1" y1="63880.3" x2="12391.1" y2="29861.9" gradientUnits="userSpaceOnUse">
            <stop stop-color="#808080" stop-opacity="0.25"/>
            <stop offset="0.54" stop-color="#808080" stop-opacity="0.12"/>
            <stop offset="1" stop-color="#808080" stop-opacity="0.1"/>
        </linearGradient>
        <clipPath id="clip0">
            <rect width="180" height="141.266" fill="white"/>
        </clipPath>
    </defs>
</svg>
