<svg width="109" height="109" viewBox="0 0 109 109" fill="none" xmlns="http://www.w3.org/2000/svg">
    <circle cx="54.5" cy="54.5" r="54.5" fill="#D9D9D9" />
    <path d="M58.1017 52.8641L54.1233 57.5141L52.0216 55.0578C51.9833 55.013 51.9344 54.9767 51.8786 54.9518C51.8228 54.9269 51.7615 54.9139 51.6994 54.9139C51.6373 54.9139 51.5761 54.9269 51.5203 54.9518C51.4644 54.9767 51.4155 55.013 51.3773 55.0578L46.2739 61.0203C46.2266 61.0756 46.1974 61.1419 46.1893 61.2117C46.1813 61.2815 46.1949 61.352 46.2285 61.4151C46.2621 61.4782 46.3144 61.5313 46.3794 61.5684C46.4444 61.6055 46.5194 61.6252 46.596 61.625H65.4091C65.7517 61.625 65.9409 61.2641 65.7312 61.0203L58.7511 52.8641C58.7124 52.8192 58.663 52.7829 58.6068 52.758C58.5505 52.733 58.4889 52.7201 58.4264 52.7201C58.364 52.7201 58.3023 52.733 58.2461 52.758C58.1898 52.7829 58.1405 52.8192 58.1017 52.8641ZM48.2273 49.7188C48.2273 50.216 48.4428 50.6929 48.8264 51.0446C49.21 51.3962 49.7302 51.5938 50.2727 51.5938C50.8152 51.5938 51.3355 51.3962 51.7191 51.0446C52.1027 50.6929 52.3182 50.216 52.3182 49.7188C52.3182 49.2215 52.1027 48.7446 51.7191 48.3929C51.3355 48.0413 50.8152 47.8438 50.2727 47.8438C49.7302 47.8438 49.21 48.0413 48.8264 48.3929C48.4428 48.7446 48.2273 49.2215 48.2273 49.7188ZM73.5193 42.5281L62.5148 32.4406C62.208 32.1594 61.7937 32 61.3591 32H39.6364C38.7312 32 38 32.6703 38 33.5V72.5C38 73.3297 38.7312 74 39.6364 74H72.3636C73.2687 74 74 73.3297 74 72.5V43.5922C74 43.1937 73.8261 42.8094 73.5193 42.5281ZM70.2261 44.2812H60.6023V35.4594L70.2261 44.2812ZM70.3182 70.625H41.6818V35.375H57.125V45.5C57.125 46.0221 57.3513 46.5229 57.7541 46.8921C58.1568 47.2613 58.7031 47.4688 59.2727 47.4688H70.3182V70.625Z"
          fill="white" />
</svg>
