<svg xmlns="http://www.w3.org/2000/svg" width="24" height="24" viewBox="0 0 24 24" fill="none">
<path fill-rule="evenodd" clip-rule="evenodd" d="M5.33521 6.0249C4.92525 6.0249 4.59125 6.35408 4.58529 6.76399L4.58505 17.2704C4.57896 17.6888 4.91648 18.0313 5.33497 18.0313L18.8059 18.0313C19.2202 18.0313 19.5559 17.6955 19.5559 17.2813L19.5565 13.4503C19.5565 13.0361 19.8923 12.7003 20.3065 12.7003C20.7207 12.7003 21.0565 13.0361 21.0565 13.4503L21.0559 17.2813C21.0559 18.5239 20.0486 19.5313 18.8059 19.5313L5.33497 19.5313C4.07952 19.5313 3.06694 18.5039 3.0852 17.2486L3.08545 6.74217C3.10334 5.51243 4.10533 4.5249 5.33521 4.5249H9.76327C10.1775 4.5249 10.5133 4.86069 10.5133 5.2749C10.5133 5.68912 10.1775 6.0249 9.76327 6.0249H5.33521Z" fill="#4F5162"/>
<path fill-rule="evenodd" clip-rule="evenodd" d="M16.5032 5.5415C15.4263 5.5415 14.5532 6.41455 14.5532 7.4915C14.5532 8.56846 15.4263 9.4415 16.5032 9.4415C17.5802 9.4415 18.4532 8.56846 18.4532 7.4915C18.4532 6.41455 17.5802 5.5415 16.5032 5.5415ZM13.0532 7.4915C13.0532 5.58612 14.5978 4.0415 16.5032 4.0415C18.4086 4.0415 19.9532 5.58612 19.9532 7.4915C19.9532 9.39689 18.4086 10.9415 16.5032 10.9415C14.5978 10.9415 13.0532 9.39689 13.0532 7.4915Z" fill="#4F5162"/>
<path fill-rule="evenodd" clip-rule="evenodd" d="M15.7529 4.42352V2.99414H17.2529V4.42352H15.7529ZM15.7529 12V10.4696H17.2529V12H15.7529Z" fill="#4F5162"/>
<path fill-rule="evenodd" clip-rule="evenodd" d="M19.5765 6.74707L21.0059 6.74707L21.0059 8.24707L19.5765 8.24707L19.5765 6.74707ZM12 6.74707L13.5304 6.74707L13.5304 8.24707L12 8.24707L12 6.74707Z" fill="#4F5162"/>
<path fill-rule="evenodd" clip-rule="evenodd" d="M19.207 9.14064L20.2178 10.1514L19.1571 11.212L18.1464 10.2013L19.207 9.14064ZM13.8497 3.78326L14.9318 4.86541L13.8712 5.92607L12.789 4.84392L13.8497 3.78326Z" fill="#4F5162"/>
<path fill-rule="evenodd" clip-rule="evenodd" d="M18.1465 4.79442L19.1572 3.78369L20.2179 4.84435L19.2072 5.85508L18.1465 4.79442ZM12.7891 10.1518L13.8713 9.06965L14.9319 10.1303L13.8498 11.2125L12.7891 10.1518Z" fill="#4F5162"/>
</svg>