<svg id="svg" version="1.1" xmlns="http://www.w3.org/2000/svg" xmlns:xlink="http://www.w3.org/1999/xlink" width="400" height="193.54838709677418" viewBox="0, 0, 400,193.54838709677418"><g id="svgg"><path id="path0" d="M181.026 58.180 C 181.026 58.411,180.746 58.470,179.671 58.470 C 178.896 58.470,178.316 58.553,178.316 58.664 C 178.316 58.775,177.735 58.858,176.960 58.858 C 175.885 58.858,175.605 58.918,175.605 59.148 C 175.605 59.383,175.293 59.439,173.959 59.439 C 172.626 59.439,172.314 59.494,172.314 59.729 C 172.314 59.963,172.012 60.019,170.765 60.019 C 169.517 60.019,169.216 60.076,169.216 60.310 C 169.216 60.549,168.872 60.600,167.280 60.600 C 166.201 60.600,165.344 60.681,165.344 60.782 C 165.344 60.882,165.017 60.991,164.618 61.024 C 163.987 61.076,163.884 61.154,163.830 61.617 C 163.795 61.921,163.650 62.149,163.491 62.149 C 163.284 62.149,163.214 62.418,163.214 63.214 C 163.214 64.031,163.281 64.279,163.504 64.279 C 163.745 64.279,163.795 64.645,163.795 66.409 C 163.795 68.173,163.845 68.538,164.085 68.538 C 164.333 68.538,164.376 69.087,164.376 72.314 C 164.376 74.702,164.447 76.089,164.569 76.089 C 164.697 76.089,164.763 85.286,164.763 103.291 C 164.763 127.342,164.796 130.494,165.053 130.494 C 165.213 130.494,165.344 130.581,165.344 130.687 C 165.344 130.812,167.344 130.881,170.958 130.881 C 174.572 130.881,176.573 130.812,176.573 130.687 C 176.573 130.564,178.108 130.494,180.789 130.494 C 185.910 130.494,185.673 130.616,185.673 127.975 C 185.673 126.943,185.594 126.234,185.479 126.234 C 185.353 126.234,185.286 122.878,185.286 116.554 C 185.286 108.078,185.249 106.873,184.995 106.873 C 184.744 106.873,184.706 106.150,184.711 101.500 C 184.717 96.059,184.792 95.450,185.452 95.450 C 185.573 95.450,185.673 95.319,185.673 95.160 C 185.673 95.000,185.803 94.869,185.963 94.869 C 186.123 94.869,186.254 94.739,186.254 94.579 C 186.254 94.356,186.501 94.288,187.318 94.288 C 187.904 94.288,188.383 94.201,188.383 94.095 C 188.383 93.984,188.964 93.901,189.739 93.901 C 190.513 93.901,191.094 93.984,191.094 94.095 C 191.094 94.201,191.181 94.288,191.288 94.288 C 191.539 94.288,192.256 95.005,192.256 95.257 C 192.256 95.363,192.386 95.450,192.546 95.450 C 192.706 95.450,192.836 95.581,192.836 95.741 C 192.836 95.900,192.924 96.031,193.030 96.031 C 193.136 96.031,193.224 96.469,193.224 97.005 C 193.224 97.692,193.309 98.012,193.514 98.091 C 193.766 98.187,193.804 99.271,193.804 106.216 C 193.804 113.185,193.842 114.230,194.093 114.230 C 194.343 114.230,194.388 115.307,194.432 122.314 L 194.482 130.397 195.015 130.458 C 195.307 130.492,195.547 130.601,195.547 130.700 C 195.547 130.800,196.026 130.881,196.612 130.881 C 197.197 130.881,197.677 130.794,197.677 130.687 C 197.677 130.561,200.534 130.494,205.862 130.494 C 213.823 130.494,214.057 130.483,214.381 130.104 C 214.767 129.654,214.897 123.524,214.521 123.524 C 214.394 123.524,214.327 120.198,214.327 113.934 C 214.327 105.588,214.290 104.330,214.037 104.233 C 213.786 104.136,213.746 103.106,213.746 96.591 C 213.746 90.027,213.709 89.061,213.456 89.061 C 213.233 89.061,213.166 88.814,213.166 87.996 C 213.166 87.179,213.098 86.931,212.875 86.931 C 212.682 86.931,212.585 86.738,212.585 86.350 C 212.585 85.963,212.488 85.770,212.294 85.770 C 212.114 85.770,212.004 85.587,212.004 85.286 C 212.004 85.019,211.917 84.802,211.810 84.802 C 211.704 84.802,211.617 84.614,211.617 84.385 C 211.617 83.966,210.454 82.672,210.077 82.672 C 209.966 82.672,209.874 82.580,209.874 82.469 C 209.874 82.092,208.580 80.929,208.160 80.929 C 207.920 80.929,207.744 80.807,207.744 80.639 C 207.744 80.479,207.614 80.348,207.454 80.348 C 207.294 80.348,207.164 80.261,207.164 80.155 C 207.164 80.048,206.955 79.961,206.700 79.961 C 206.445 79.961,206.187 79.831,206.126 79.671 C 206.056 79.491,205.762 79.380,205.351 79.380 C 204.940 79.380,204.646 79.270,204.577 79.090 C 204.491 78.866,204.116 78.800,202.931 78.800 C 201.746 78.800,201.371 78.734,201.285 78.509 C 201.199 78.285,200.824 78.219,199.633 78.219 C 198.521 78.219,198.011 78.300,197.801 78.509 C 197.591 78.719,197.079 78.800,195.948 78.800 C 194.688 78.800,194.385 78.856,194.385 79.090 C 194.385 79.313,194.138 79.380,193.320 79.380 C 192.503 79.380,192.256 79.448,192.256 79.671 C 192.256 79.881,192.040 79.961,191.481 79.961 C 191.055 79.961,190.707 80.048,190.707 80.155 C 190.707 80.261,190.445 80.348,190.126 80.348 C 189.739 80.348,189.545 80.445,189.545 80.639 C 189.545 80.842,189.340 80.929,188.861 80.929 C 188.432 80.929,188.136 81.037,188.066 81.220 C 188.005 81.379,187.743 81.510,187.485 81.510 C 187.227 81.510,186.966 81.641,186.904 81.801 C 186.843 81.960,186.672 82.091,186.523 82.091 C 186.375 82.091,186.254 82.222,186.254 82.381 C 186.254 82.562,186.071 82.672,185.770 82.672 C 185.503 82.672,185.286 82.749,185.286 82.843 C 185.286 82.938,185.024 83.053,184.705 83.100 L 184.124 83.186 184.124 70.828 C 184.124 59.973,184.089 58.470,183.833 58.470 C 183.674 58.470,183.543 58.340,183.543 58.180 C 183.543 57.952,183.274 57.890,182.285 57.890 C 181.295 57.890,181.026 57.952,181.026 58.180 M137.851 58.664 C 137.851 58.776,137.236 58.858,136.393 58.858 C 135.275 58.858,134.909 58.926,134.823 59.148 C 134.737 59.372,134.363 59.439,133.177 59.439 C 131.992 59.439,131.618 59.505,131.532 59.729 C 131.446 59.953,131.074 60.019,129.913 60.019 C 128.752 60.019,128.380 60.086,128.294 60.310 C 128.211 60.527,127.863 60.600,126.918 60.600 C 126.204 60.600,125.653 60.684,125.653 60.794 C 125.653 60.908,124.976 60.987,124.008 60.987 C 122.674 60.987,122.362 61.042,122.362 61.278 C 122.362 61.488,122.147 61.568,121.588 61.568 C 121.028 61.568,120.813 61.649,120.813 61.859 C 120.813 62.018,120.682 62.149,120.523 62.149 C 120.329 62.149,120.232 62.343,120.232 62.730 C 120.232 63.117,120.136 63.311,119.942 63.311 C 119.765 63.311,119.652 63.491,119.652 63.774 C 119.652 64.029,119.521 64.288,119.361 64.349 C 119.177 64.419,119.071 64.716,119.071 65.158 C 119.071 65.541,118.940 65.986,118.780 66.146 C 118.621 66.305,118.490 66.691,118.490 67.003 C 118.490 67.315,118.403 67.570,118.296 67.570 C 118.190 67.570,118.103 67.909,118.103 68.324 C 118.103 68.815,118.002 69.116,117.812 69.189 C 117.607 69.268,117.522 69.587,117.522 70.275 C 117.522 71.011,117.451 71.249,117.231 71.249 C 117.016 71.249,116.941 71.475,116.941 72.120 C 116.941 72.765,116.866 72.991,116.651 72.991 C 116.441 72.991,116.360 73.206,116.360 73.766 C 116.360 74.192,116.273 74.540,116.167 74.540 C 116.060 74.540,115.973 74.889,115.973 75.315 C 115.973 75.874,115.892 76.089,115.682 76.089 C 115.467 76.089,115.392 76.315,115.392 76.960 C 115.392 77.606,115.317 77.832,115.102 77.832 C 114.892 77.832,114.811 78.047,114.811 78.606 C 114.811 79.165,114.731 79.380,114.521 79.380 C 114.312 79.380,114.230 79.593,114.230 80.134 C 114.230 80.626,114.129 80.927,113.940 80.999 C 113.748 81.073,113.650 81.376,113.650 81.891 C 113.650 82.321,113.562 82.672,113.456 82.672 C 113.349 82.672,113.262 83.020,113.262 83.446 C 113.262 84.006,113.182 84.221,112.972 84.221 C 112.764 84.221,112.682 84.434,112.682 84.974 C 112.682 85.466,112.580 85.767,112.391 85.840 C 112.201 85.912,112.101 86.214,112.101 86.711 C 112.101 87.208,112.000 87.509,111.810 87.582 C 111.628 87.652,111.520 87.948,111.520 88.377 C 111.520 88.753,111.433 89.061,111.326 89.061 C 111.220 89.061,111.133 89.409,111.133 89.835 C 111.133 90.395,111.052 90.610,110.842 90.610 C 110.627 90.610,110.552 90.836,110.552 91.481 C 110.552 92.126,110.476 92.352,110.261 92.352 C 110.053 92.352,109.971 92.565,109.971 93.106 C 109.971 93.597,109.870 93.899,109.681 93.971 C 109.506 94.038,109.388 94.336,109.384 94.718 C 109.381 95.067,109.250 95.522,109.094 95.729 C 108.937 95.936,108.809 96.350,108.809 96.649 C 108.809 96.948,108.722 97.193,108.616 97.193 C 108.509 97.193,108.422 97.672,108.422 98.258 C 108.422 99.075,108.355 99.322,108.132 99.322 C 107.922 99.322,107.841 99.537,107.841 100.097 C 107.841 100.656,107.761 100.871,107.551 100.871 C 107.342 100.871,107.260 101.084,107.260 101.625 C 107.260 102.116,107.159 102.417,106.970 102.490 C 106.778 102.564,106.680 102.867,106.680 103.382 C 106.680 103.811,106.592 104.163,106.486 104.163 C 106.379 104.163,106.292 104.511,106.292 104.937 C 106.292 105.496,106.212 105.712,106.002 105.712 C 105.794 105.712,105.712 105.924,105.712 106.465 C 105.712 106.957,105.610 107.258,105.421 107.330 C 105.229 107.404,105.131 107.707,105.131 108.222 C 105.131 108.787,105.050 109.003,104.840 109.003 C 104.631 109.003,104.550 109.218,104.550 109.777 C 104.550 110.203,104.463 110.552,104.356 110.552 C 104.250 110.552,104.163 110.891,104.163 111.306 C 104.163 111.797,104.062 112.098,103.872 112.171 C 103.681 112.244,103.582 112.547,103.582 113.063 C 103.582 113.627,103.502 113.843,103.291 113.843 C 103.083 113.843,103.001 114.056,103.001 114.597 C 103.001 115.088,102.900 115.389,102.711 115.462 C 102.531 115.531,102.420 115.825,102.420 116.234 C 102.420 116.597,102.289 117.002,102.130 117.135 C 101.970 117.267,101.839 117.670,101.839 118.030 C 101.839 118.389,101.752 118.683,101.646 118.683 C 101.539 118.683,101.452 119.023,101.452 119.437 C 101.452 119.929,101.351 120.230,101.162 120.302 C 100.970 120.376,100.871 120.679,100.871 121.194 C 100.871 121.759,100.791 121.975,100.581 121.975 C 100.372 121.975,100.290 122.188,100.290 122.729 C 100.290 123.220,100.189 123.521,100.000 123.594 C 99.818 123.664,99.710 123.960,99.710 124.389 C 99.710 124.765,99.622 125.073,99.516 125.073 C 99.409 125.073,99.322 125.417,99.322 125.837 C 99.322 126.325,99.214 126.663,99.024 126.769 C 98.783 126.904,98.736 127.268,98.782 128.667 L 98.838 130.397 107.802 130.447 C 117.073 130.499,117.522 130.465,117.522 129.712 C 117.522 129.503,117.652 129.332,117.812 129.332 C 118.035 129.332,118.103 129.085,118.103 128.267 C 118.103 127.682,118.190 127.202,118.296 127.202 C 118.403 127.202,118.490 126.723,118.490 126.137 C 118.490 125.320,118.557 125.073,118.780 125.073 C 119.011 125.073,119.071 124.793,119.071 123.717 C 119.071 122.642,119.131 122.362,119.361 122.362 C 119.583 122.362,119.652 122.117,119.652 121.318 C 119.652 120.568,119.733 120.242,119.942 120.162 C 120.147 120.084,120.232 119.764,120.232 119.077 C 120.232 118.541,120.319 118.103,120.426 118.103 C 120.537 118.103,120.620 117.522,120.620 116.747 C 120.620 115.672,120.679 115.392,120.910 115.392 C 121.070 115.392,121.200 115.261,121.200 115.102 C 121.200 114.908,121.394 114.811,121.781 114.811 C 122.168 114.811,122.362 114.714,122.362 114.521 C 122.362 114.361,122.493 114.230,122.652 114.230 C 122.812 114.230,122.943 114.361,122.943 114.521 C 122.943 114.773,123.814 114.811,129.622 114.811 C 135.431 114.811,136.302 114.773,136.302 114.521 C 136.302 114.327,136.496 114.230,136.883 114.230 C 137.270 114.230,137.464 114.327,137.464 114.521 C 137.464 114.681,137.563 114.811,137.684 114.811 C 138.073 114.811,138.419 115.467,138.426 116.215 C 138.430 116.728,138.517 116.941,138.722 116.941 C 138.945 116.941,139.013 117.188,139.013 118.006 C 139.013 118.823,139.080 119.071,139.303 119.071 C 139.533 119.071,139.593 119.350,139.593 120.426 C 139.593 121.502,139.653 121.781,139.884 121.781 C 140.107 121.781,140.174 122.029,140.174 122.846 C 140.174 123.432,140.261 123.911,140.368 123.911 C 140.477 123.911,140.561 124.462,140.561 125.175 C 140.561 126.121,140.635 126.468,140.852 126.551 C 141.068 126.635,141.142 126.980,141.142 127.907 C 141.142 128.834,141.216 129.179,141.433 129.262 C 141.592 129.323,141.723 129.584,141.723 129.842 C 141.723 130.207,141.851 130.335,142.304 130.426 C 142.623 130.490,142.885 130.618,142.885 130.712 C 142.885 130.805,143.451 130.881,144.143 130.881 C 144.845 130.881,145.402 130.796,145.402 130.689 C 145.402 130.566,148.577 130.480,154.259 130.447 L 163.117 130.397 163.174 129.090 C 163.221 128.016,163.178 127.783,162.932 127.783 C 162.712 127.783,162.633 127.578,162.633 127.009 C 162.633 126.449,162.552 126.234,162.343 126.234 C 162.120 126.234,162.052 125.989,162.052 125.190 C 162.052 124.441,161.970 124.115,161.762 124.035 C 161.570 123.961,161.471 123.658,161.471 123.143 C 161.471 122.713,161.384 122.362,161.278 122.362 C 161.171 122.362,161.084 122.014,161.084 121.588 C 161.084 121.028,161.004 120.813,160.794 120.813 C 160.584 120.813,160.503 120.597,160.503 120.033 C 160.503 119.517,160.405 119.214,160.213 119.141 C 160.011 119.063,159.923 118.748,159.923 118.103 C 159.923 117.458,159.834 117.142,159.632 117.065 C 159.440 116.991,159.342 116.688,159.342 116.173 C 159.342 115.743,159.255 115.392,159.148 115.392 C 159.042 115.392,158.955 115.044,158.955 114.618 C 158.955 114.058,158.874 113.843,158.664 113.843 C 158.444 113.843,158.374 113.606,158.374 112.869 C 158.374 112.182,158.288 111.862,158.083 111.783 C 157.893 111.711,157.793 111.409,157.793 110.912 C 157.793 110.415,157.692 110.114,157.502 110.041 C 157.313 109.968,157.212 109.667,157.212 109.176 C 157.212 108.635,157.130 108.422,156.922 108.422 C 156.712 108.422,156.631 108.207,156.631 107.648 C 156.631 107.222,156.544 106.873,156.438 106.873 C 156.331 106.873,156.244 106.435,156.244 105.899 C 156.244 105.212,156.158 104.892,155.954 104.813 C 155.756 104.738,155.663 104.429,155.663 103.852 C 155.663 103.225,155.587 103.001,155.373 103.001 C 155.163 103.001,155.082 102.786,155.082 102.227 C 155.082 101.667,155.002 101.452,154.792 101.452 C 154.577 101.452,154.501 101.226,154.501 100.581 C 154.501 100.102,154.414 99.710,154.308 99.710 C 154.201 99.710,154.114 99.367,154.114 98.949 C 154.114 98.531,153.984 98.058,153.824 97.898 C 153.664 97.738,153.533 97.294,153.533 96.910 C 153.533 96.469,153.427 96.172,153.243 96.101 C 153.054 96.028,152.953 95.727,152.953 95.236 C 152.953 94.695,152.871 94.482,152.662 94.482 C 152.447 94.482,152.372 94.256,152.372 93.611 C 152.372 92.965,152.296 92.740,152.081 92.740 C 151.862 92.740,151.791 92.504,151.791 91.783 C 151.791 91.257,151.704 90.772,151.597 90.707 C 151.491 90.641,151.404 90.244,151.404 89.824 C 151.404 89.275,151.322 89.061,151.113 89.061 C 150.904 89.061,150.823 88.846,150.823 88.287 C 150.823 87.727,150.742 87.512,150.532 87.512 C 150.310 87.512,150.242 87.267,150.242 86.468 C 150.242 85.718,150.160 85.392,149.952 85.312 C 149.760 85.239,149.661 84.936,149.661 84.420 C 149.661 83.991,149.574 83.640,149.468 83.640 C 149.361 83.640,149.274 83.332,149.274 82.956 C 149.274 82.527,149.166 82.231,148.984 82.161 C 148.794 82.088,148.693 81.787,148.693 81.290 C 148.693 80.793,148.593 80.491,148.403 80.419 C 148.199 80.340,148.112 80.023,148.112 79.360 C 148.112 78.647,148.040 78.412,147.822 78.412 C 147.607 78.412,147.531 78.187,147.531 77.541 C 147.531 76.896,147.456 76.670,147.241 76.670 C 147.031 76.670,146.951 76.455,146.951 75.895 C 146.951 75.470,146.864 75.121,146.757 75.121 C 146.651 75.121,146.563 74.683,146.563 74.147 C 146.563 73.460,146.478 73.140,146.273 73.061 C 146.083 72.988,145.983 72.687,145.983 72.190 C 145.983 71.693,145.882 71.392,145.692 71.319 C 145.503 71.246,145.402 70.945,145.402 70.454 C 145.402 69.913,145.320 69.700,145.111 69.700 C 144.902 69.700,144.821 69.485,144.821 68.925 C 144.821 68.500,144.734 68.151,144.627 68.151 C 144.521 68.151,144.434 67.765,144.434 67.294 C 144.434 66.790,144.314 66.316,144.143 66.146 C 143.984 65.986,143.853 65.541,143.853 65.158 C 143.853 64.716,143.746 64.419,143.562 64.349 C 143.373 64.276,143.272 63.975,143.272 63.484 C 143.272 62.943,143.190 62.730,142.982 62.730 C 142.759 62.730,142.691 62.483,142.691 61.665 C 142.691 60.848,142.624 60.600,142.401 60.600 C 142.207 60.600,142.110 60.407,142.110 60.019 C 142.110 59.700,142.023 59.439,141.917 59.439 C 141.810 59.439,141.723 59.308,141.723 59.148 C 141.723 58.988,141.592 58.858,141.433 58.858 C 141.273 58.858,141.142 58.771,141.142 58.664 C 141.142 58.550,140.465 58.470,139.497 58.470 C 138.529 58.470,137.851 58.550,137.851 58.664 M287.318 58.664 C 287.318 58.776,286.703 58.858,285.860 58.858 C 284.743 58.858,284.376 58.926,284.291 59.148 C 284.204 59.374,283.820 59.439,282.554 59.439 C 281.239 59.439,280.929 59.494,280.929 59.729 C 280.929 59.963,280.627 60.019,279.374 60.019 C 278.171 60.019,277.794 60.085,277.708 60.310 C 277.622 60.534,277.248 60.600,276.068 60.600 C 275.179 60.600,274.540 60.681,274.540 60.794 C 274.540 60.900,274.068 60.987,273.491 60.987 C 272.140 60.987,271.830 61.118,271.830 61.686 C 271.830 61.969,271.716 62.149,271.539 62.149 C 271.316 62.149,271.249 62.396,271.249 63.214 C 271.249 64.031,271.316 64.279,271.539 64.279 C 271.786 64.279,271.830 64.763,271.830 67.473 C 271.830 70.184,271.874 70.668,272.120 70.668 C 272.367 70.668,272.410 71.184,272.410 74.153 C 272.410 76.347,272.482 77.638,272.604 77.638 C 272.727 77.638,272.798 79.092,272.798 81.613 C 272.798 84.968,272.843 85.606,273.088 85.700 C 273.336 85.795,273.379 86.569,273.379 91.024 C 273.379 95.479,273.421 96.253,273.669 96.348 C 273.916 96.443,273.959 97.169,273.959 101.236 C 273.959 106.250,274.036 106.680,274.930 106.680 C 275.035 106.680,275.121 106.810,275.121 106.970 C 275.121 107.208,275.454 107.260,276.960 107.260 C 278.466 107.260,278.800 107.208,278.800 106.970 C 278.800 106.719,279.520 106.680,284.124 106.680 C 287.544 106.680,289.448 106.610,289.448 106.486 C 289.448 106.379,289.579 106.292,289.739 106.292 C 289.988 106.292,290.029 105.679,290.029 101.936 C 290.029 98.193,290.070 97.580,290.319 97.580 C 290.572 97.580,290.610 96.762,290.610 91.384 C 290.610 86.006,290.648 85.189,290.900 85.189 C 291.150 85.189,291.191 84.586,291.191 80.929 C 291.191 78.219,291.261 76.670,291.384 76.670 C 291.508 76.670,291.578 75.089,291.578 72.314 C 291.578 68.571,291.619 67.957,291.868 67.957 C 292.109 67.957,292.159 67.592,292.159 65.828 C 292.159 64.064,292.209 63.698,292.449 63.698 C 292.692 63.698,292.740 63.300,292.740 61.278 C 292.740 59.256,292.692 58.858,292.449 58.858 C 292.289 58.858,292.159 58.771,292.159 58.664 C 292.159 58.545,291.223 58.470,289.739 58.470 C 288.254 58.470,287.318 58.545,287.318 58.664 M235.888 79.090 C 235.801 79.316,235.417 79.380,234.152 79.380 C 232.836 79.380,232.527 79.436,232.527 79.671 C 232.527 79.901,232.247 79.961,231.171 79.961 C 230.397 79.961,229.816 80.044,229.816 80.155 C 229.816 80.261,229.343 80.348,228.765 80.348 C 228.089 80.348,227.610 80.452,227.424 80.639 C 227.251 80.811,226.778 80.929,226.262 80.929 C 225.746 80.929,225.272 81.048,225.100 81.220 C 224.941 81.379,224.499 81.510,224.118 81.510 C 223.633 81.510,223.427 81.597,223.427 81.801 C 223.427 81.978,223.246 82.091,222.964 82.091 C 222.471 82.091,222.265 82.410,222.265 83.172 C 222.265 83.429,222.178 83.640,222.072 83.640 C 221.947 83.640,221.878 85.737,221.878 89.545 L 221.878 95.450 223.427 95.450 C 224.675 95.450,224.976 95.394,224.976 95.160 C 224.976 94.950,225.191 94.869,225.750 94.869 C 226.310 94.869,226.525 94.789,226.525 94.579 C 226.525 94.370,226.739 94.288,227.288 94.288 C 227.707 94.288,228.105 94.201,228.170 94.095 C 228.236 93.988,228.593 93.901,228.962 93.901 C 229.381 93.901,229.677 93.792,229.746 93.611 C 229.819 93.422,230.120 93.320,230.611 93.320 C 231.152 93.320,231.365 93.238,231.365 93.030 C 231.365 92.808,231.610 92.740,232.409 92.740 C 233.159 92.740,233.485 92.658,233.565 92.449 C 233.648 92.232,233.995 92.159,234.941 92.159 C 235.655 92.159,236.205 92.074,236.205 91.965 C 236.205 91.846,237.173 91.772,238.722 91.772 C 240.271 91.772,241.239 91.846,241.239 91.965 C 241.239 92.072,241.718 92.159,242.304 92.159 C 243.121 92.159,243.369 92.226,243.369 92.449 C 243.369 92.609,243.456 92.740,243.562 92.740 C 243.669 92.740,243.756 92.870,243.756 93.030 C 243.756 93.190,243.887 93.320,244.046 93.320 C 244.269 93.320,244.337 93.568,244.337 94.385 L 244.337 95.450 243.562 95.450 C 243.003 95.450,242.788 95.531,242.788 95.741 C 242.788 95.976,242.476 96.031,241.142 96.031 C 239.809 96.031,239.497 96.086,239.497 96.321 C 239.497 96.550,239.227 96.612,238.232 96.612 C 237.287 96.612,236.939 96.685,236.856 96.902 C 236.776 97.111,236.450 97.193,235.700 97.193 C 235.126 97.193,234.656 97.280,234.656 97.386 C 234.656 97.493,234.324 97.580,233.919 97.580 C 233.513 97.580,233.012 97.708,232.806 97.864 C 232.599 98.020,232.103 98.151,231.704 98.155 C 231.190 98.159,230.978 98.246,230.978 98.451 C 230.978 98.645,230.784 98.742,230.397 98.742 C 230.010 98.742,229.816 98.838,229.816 99.032 C 229.816 99.242,229.601 99.322,229.042 99.322 C 228.616 99.322,228.267 99.409,228.267 99.516 C 228.267 99.622,228.047 99.710,227.777 99.710 C 227.508 99.710,227.237 99.840,227.176 100.000 C 227.114 100.160,226.856 100.290,226.601 100.290 C 226.318 100.290,226.137 100.404,226.137 100.581 C 226.137 100.754,225.959 100.871,225.696 100.871 C 225.264 100.871,224.589 101.463,224.589 101.842 C 224.589 101.947,224.327 102.033,224.008 102.033 C 223.688 102.033,223.427 102.120,223.427 102.227 C 223.427 102.333,223.296 102.420,223.136 102.420 C 222.977 102.420,222.846 102.551,222.846 102.711 C 222.846 102.873,222.673 103.001,222.453 103.001 C 222.236 103.001,222.009 103.132,221.948 103.291 C 221.887 103.451,221.715 103.582,221.567 103.582 C 221.419 103.582,221.297 103.712,221.297 103.872 C 221.297 104.032,221.203 104.163,221.089 104.163 C 220.829 104.163,219.748 105.227,219.748 105.482 C 219.748 105.586,219.618 105.720,219.458 105.782 C 219.298 105.843,219.167 106.114,219.167 106.383 C 219.167 106.690,219.059 106.873,218.877 106.873 C 218.717 106.873,218.587 106.995,218.587 107.143 C 218.587 107.291,218.456 107.463,218.296 107.524 C 218.136 107.585,218.006 107.803,218.006 108.008 C 218.006 108.213,217.875 108.431,217.715 108.492 C 217.533 108.562,217.425 108.858,217.425 109.287 C 217.425 109.663,217.338 109.971,217.231 109.971 C 217.125 109.971,217.038 110.363,217.038 110.842 C 217.038 111.488,216.962 111.713,216.747 111.713 C 216.498 111.713,216.457 112.316,216.457 115.973 C 216.457 119.630,216.498 120.232,216.747 120.232 C 216.970 120.232,217.038 120.480,217.038 121.297 C 217.038 121.883,217.125 122.362,217.231 122.362 C 217.338 122.362,217.425 122.670,217.425 123.046 C 217.425 123.475,217.533 123.771,217.715 123.841 C 217.875 123.902,218.006 124.164,218.006 124.422 C 218.006 124.680,218.136 124.941,218.296 125.003 C 218.456 125.064,218.587 125.323,218.587 125.577 C 218.587 125.860,218.700 126.041,218.877 126.041 C 219.037 126.041,219.167 126.171,219.167 126.331 C 219.167 126.491,219.298 126.621,219.458 126.621 C 219.618 126.621,219.748 126.752,219.748 126.912 C 219.748 127.072,219.835 127.202,219.942 127.202 C 220.048 127.202,220.136 127.333,220.136 127.493 C 220.136 127.652,220.266 127.783,220.426 127.783 C 220.586 127.783,220.716 127.870,220.716 127.977 C 220.716 128.083,220.847 128.170,221.007 128.170 C 221.167 128.170,221.297 128.301,221.297 128.461 C 221.297 128.621,221.428 128.751,221.588 128.751 C 221.747 128.751,221.878 128.882,221.878 129.042 C 221.878 129.222,222.061 129.332,222.362 129.332 C 222.663 129.332,222.846 129.442,222.846 129.622 C 222.846 129.816,223.040 129.913,223.427 129.913 C 223.814 129.913,224.008 130.010,224.008 130.203 C 224.008 130.382,224.189 130.494,224.480 130.494 C 224.740 130.494,225.007 130.581,225.073 130.687 C 225.138 130.794,225.536 130.881,225.955 130.881 C 226.504 130.881,226.718 130.962,226.718 131.171 C 226.718 131.418,227.225 131.462,230.113 131.462 C 232.951 131.462,233.525 131.414,233.618 131.171 C 233.698 130.963,234.024 130.881,234.774 130.881 C 235.348 130.881,235.818 130.794,235.818 130.687 C 235.818 130.581,236.126 130.494,236.502 130.494 C 236.931 130.494,237.227 130.386,237.297 130.203 C 237.370 130.014,237.671 129.913,238.162 129.913 C 238.703 129.913,238.916 129.831,238.916 129.622 C 238.916 129.429,239.109 129.332,239.497 129.332 C 239.884 129.332,240.077 129.235,240.077 129.042 C 240.077 128.861,240.260 128.751,240.561 128.751 C 240.863 128.751,241.045 128.641,241.045 128.461 C 241.045 128.267,241.239 128.170,241.626 128.170 C 241.946 128.170,242.207 128.083,242.207 127.977 C 242.207 127.870,242.428 127.783,242.697 127.783 C 242.967 127.783,243.238 127.652,243.299 127.493 C 243.360 127.333,243.619 127.202,243.874 127.202 C 244.156 127.202,244.337 127.089,244.337 126.912 C 244.337 126.752,244.468 126.621,244.627 126.621 C 244.787 126.621,244.918 126.491,244.918 126.331 C 244.918 126.171,245.048 126.041,245.208 126.041 C 245.449 126.041,245.499 126.417,245.499 128.267 C 245.499 130.117,245.548 130.494,245.789 130.494 C 245.949 130.494,246.079 130.581,246.079 130.687 C 246.079 130.811,247.886 130.881,251.113 130.881 C 254.340 130.881,256.147 130.811,256.147 130.687 C 256.147 130.564,257.682 130.494,260.364 130.494 C 265.440 130.494,265.247 130.586,265.247 128.168 C 265.247 127.266,265.166 126.621,265.053 126.621 C 264.927 126.621,264.860 123.980,264.860 119.084 C 264.860 112.643,264.817 111.505,264.569 111.257 C 264.318 111.006,264.279 109.555,264.279 100.589 C 264.279 91.542,264.242 90.196,263.988 90.099 C 263.785 90.021,263.698 89.703,263.698 89.034 C 263.698 88.365,263.611 88.048,263.408 87.969 C 263.248 87.908,263.117 87.649,263.117 87.395 C 263.117 87.140,263.030 86.931,262.924 86.931 C 262.817 86.931,262.730 86.711,262.730 86.441 C 262.730 86.172,262.599 85.901,262.439 85.840 C 262.280 85.778,262.149 85.561,262.149 85.356 C 262.149 85.151,262.018 84.933,261.859 84.872 C 261.699 84.810,261.568 84.639,261.568 84.490 C 261.568 84.342,261.438 84.221,261.278 84.221 C 261.118 84.221,260.987 84.090,260.987 83.930 C 260.987 83.771,260.857 83.640,260.697 83.640 C 260.537 83.640,260.407 83.509,260.407 83.349 C 260.407 83.190,260.276 83.059,260.116 83.059 C 259.956 83.059,259.826 82.972,259.826 82.865 C 259.826 82.759,259.608 82.672,259.342 82.672 C 259.041 82.672,258.858 82.562,258.858 82.381 C 258.858 82.222,258.727 82.091,258.567 82.091 C 258.408 82.091,258.277 81.960,258.277 81.801 C 258.277 81.620,258.094 81.510,257.793 81.510 C 257.492 81.510,257.309 81.400,257.309 81.220 C 257.309 81.026,257.115 80.929,256.728 80.929 C 256.341 80.929,256.147 80.833,256.147 80.639 C 256.147 80.445,255.954 80.348,255.566 80.348 C 255.247 80.348,254.985 80.261,254.985 80.155 C 254.985 80.048,254.559 79.961,254.038 79.961 C 253.375 79.961,253.057 79.874,252.979 79.671 C 252.893 79.446,252.517 79.380,251.313 79.380 C 250.060 79.380,249.758 79.324,249.758 79.090 C 249.758 78.837,248.865 78.800,242.879 78.800 C 236.942 78.800,235.984 78.839,235.888 79.090 M130.697 82.091 C 130.798 82.091,130.881 82.564,130.881 83.142 C 130.881 83.818,130.985 84.297,131.171 84.483 C 131.354 84.666,131.462 85.142,131.462 85.762 C 131.462 86.461,131.547 86.782,131.752 86.861 C 131.961 86.941,132.043 87.267,132.043 88.017 C 132.043 88.816,132.111 89.061,132.333 89.061 C 132.561 89.061,132.623 89.330,132.623 90.319 C 132.623 91.029,132.708 91.578,132.817 91.578 C 132.924 91.578,133.011 92.060,133.011 92.649 C 133.011 93.422,133.091 93.751,133.301 93.831 C 133.514 93.913,133.591 94.249,133.591 95.090 C 133.591 95.931,133.669 96.266,133.882 96.348 C 134.091 96.428,134.172 96.755,134.172 97.510 C 134.172 98.265,134.254 98.591,134.463 98.672 C 134.622 98.733,134.753 98.991,134.753 99.246 L 134.753 99.710 129.913 99.710 L 125.073 99.710 125.073 99.226 C 125.073 98.959,125.160 98.742,125.266 98.742 C 125.373 98.742,125.460 98.349,125.460 97.870 C 125.460 97.225,125.535 96.999,125.750 96.999 C 125.973 96.999,126.041 96.752,126.041 95.934 C 126.041 95.117,126.108 94.869,126.331 94.869 C 126.554 94.869,126.621 94.622,126.621 93.804 C 126.621 92.987,126.689 92.740,126.912 92.740 C 127.134 92.740,127.202 92.495,127.202 91.695 C 127.202 90.946,127.284 90.620,127.493 90.540 C 127.698 90.461,127.783 90.142,127.783 89.454 C 127.783 88.919,127.870 88.480,127.977 88.480 C 128.083 88.480,128.170 88.088,128.170 87.609 C 128.170 86.964,128.246 86.738,128.461 86.738 C 128.683 86.738,128.751 86.493,128.751 85.694 C 128.751 84.944,128.833 84.618,129.042 84.538 C 129.245 84.460,129.332 84.142,129.332 83.473 C 129.332 82.804,129.419 82.486,129.622 82.408 C 129.827 82.330,129.913 82.010,129.913 81.323 C 129.913 80.787,130.000 80.348,130.106 80.348 C 130.213 80.348,130.317 80.196,130.337 80.010 C 130.358 79.823,130.406 80.215,130.443 80.881 C 130.481 81.546,130.595 82.091,130.697 82.091 M244.918 111.036 L 244.918 115.392 244.428 115.392 C 244.158 115.392,243.887 115.523,243.826 115.682 C 243.753 115.872,243.452 115.973,242.961 115.973 C 242.420 115.973,242.207 116.055,242.207 116.263 C 242.207 116.486,241.960 116.554,241.142 116.554 C 240.557 116.554,240.077 116.641,240.077 116.747 C 240.077 116.854,239.734 116.941,239.314 116.941 C 238.895 116.941,238.498 116.854,238.432 116.747 C 238.366 116.641,238.109 116.554,237.860 116.554 C 237.612 116.554,237.358 116.423,237.297 116.263 C 237.236 116.104,236.965 115.973,236.695 115.973 C 236.310 115.973,236.205 115.876,236.205 115.517 C 236.205 115.266,235.987 114.826,235.721 114.539 C 235.130 113.901,234.983 111.271,235.528 111.063 C 235.687 111.001,235.818 110.731,235.818 110.461 C 235.818 110.192,235.905 109.971,236.012 109.971 C 236.118 109.971,236.205 109.840,236.205 109.681 C 236.205 109.521,236.336 109.390,236.496 109.390 C 236.655 109.390,236.786 109.259,236.786 109.100 C 236.786 108.940,236.917 108.809,237.076 108.809 C 237.236 108.809,237.367 108.722,237.367 108.616 C 237.367 108.509,237.587 108.422,237.857 108.422 C 238.127 108.422,238.397 108.291,238.459 108.132 C 238.531 107.942,238.832 107.841,239.324 107.841 C 239.865 107.841,240.077 107.759,240.077 107.551 C 240.077 107.320,240.357 107.260,241.433 107.260 C 242.508 107.260,242.788 107.200,242.788 106.970 C 242.788 106.747,243.035 106.680,243.853 106.680 L 244.918 106.680 244.918 111.036 M272.168 114.210 C 271.687 114.698,271.640 129.913,272.120 129.913 C 272.280 129.913,272.410 130.044,272.410 130.203 C 272.410 130.363,272.541 130.494,272.701 130.494 C 272.861 130.494,272.991 130.581,272.991 130.687 C 272.991 130.794,273.427 130.881,273.959 130.881 C 274.492 130.881,274.927 130.794,274.927 130.687 C 274.927 130.561,277.642 130.494,282.685 130.494 C 287.662 130.494,290.576 130.422,290.816 130.293 C 291.175 130.101,291.191 129.820,291.191 123.517 C 291.191 119.262,291.259 116.941,291.384 116.941 C 291.491 116.941,291.578 116.462,291.578 115.876 C 291.578 115.290,291.491 114.811,291.384 114.811 C 291.278 114.811,291.191 114.593,291.191 114.327 L 291.191 113.843 281.849 113.855 C 273.168 113.865,272.483 113.891,272.168 114.210 " stroke="none" fill="#0474cc" fill-rule="evenodd"></path><path id="path1" d="" stroke="none" fill="#0874cc" fill-rule="evenodd"></path><path id="path2" d="" stroke="none" fill="#0874cc" fill-rule="evenodd"></path><path id="path3" d="" stroke="none" fill="#0874cc" fill-rule="evenodd"></path><path id="path4" d="" stroke="none" fill="#0874cc" fill-rule="evenodd"></path></g></svg>