<svg width="24" height="24" viewBox="0 0 24 24" fill="none" xmlns="http://www.w3.org/2000/svg">
<path d="M19.224 6.50025C18.994 6.20125 18.75 5.91025 18.476 5.63625C14.961 2.12125 9.263 2.12125 5.748 5.63625C5.474 5.91025 5.231 6.20125 5 6.50025" stroke="#595959" stroke-width="1.5" stroke-linecap="round" stroke-linejoin="round"/>
<path d="M5 17.5002C5.23 17.7992 5.474 18.0902 5.748 18.3642C9.263 21.8792 14.961 21.8792 18.476 18.3642C18.75 18.0902 18.993 17.7992 19.224 17.5002" stroke="#595959" stroke-width="1.5" stroke-linecap="round" stroke-linejoin="round"/>
<path d="M19.21 9.50024V14.5002" stroke="#595959" stroke-width="1.5" stroke-linecap="round" stroke-linejoin="round"/>
<path d="M12.5801 9.50024V14.5002" stroke="#595959" stroke-width="1.5" stroke-linecap="round" stroke-linejoin="round"/>
<path d="M12.5791 9.50024H14.8061C15.6691 9.50024 16.3681 10.2002 16.3681 11.0622C16.3681 11.9252 15.6681 12.6242 14.8061 12.6242H12.5791" stroke="#595959" stroke-width="1.5" stroke-linecap="round" stroke-linejoin="round"/>
<path d="M9.737 14.5002L7.369 9.50024L5 14.5002" stroke="#595959" stroke-width="1.5" stroke-linecap="round" stroke-linejoin="round"/>
<path d="M5.47363 13.5002H9.26263" stroke="#595959" stroke-width="1.5" stroke-linecap="round" stroke-linejoin="round"/>
</svg>
