<svg xmlns="http://www.w3.org/2000/svg" width="32" height="32" viewBox="0 0 32 32">
    <defs>
        <style>
            .cls-1 {
            fill: rgba(0,0,0,0);
            }

            .cls-2 {
            fill: #2967dd;
            }
        </style>
    </defs>
    <g id="_assessment" data-name=" assessment" transform="translate(-576 -154)">
        <rect id="Path" class="cls-1" width="32" height="32" transform="translate(576 154)"/>
        <path id="Icon" class="cls-2" d="M21.334,24H2.666A2.669,2.669,0,0,1,0,21.334V2.668A2.67,2.67,0,0,1,2.666,0H21.334A2.67,2.67,0,0,1,24,2.668V21.334A2.669,2.669,0,0,1,21.334,24Zm-4-10.667A1.335,1.335,0,0,0,16,14.666v2.668a1.333,1.333,0,0,0,2.666,0V14.666A1.335,1.335,0,0,0,17.334,13.333ZM12,5.334a1.335,1.335,0,0,0-1.333,1.333V17.334a1.333,1.333,0,0,0,2.666,0V6.667A1.335,1.335,0,0,0,12,5.334Zm-5.333,4a1.335,1.335,0,0,0-1.333,1.333v6.667a1.333,1.333,0,1,0,2.666,0V10.667A1.335,1.335,0,0,0,6.667,9.334Z" transform="translate(580 157.999)"/>
    </g>
</svg>
