<svg xmlns="http://www.w3.org/2000/svg" width="24" height="24" viewBox="0 0 24 24">
  <defs>
    <style>
      .cls-1-sidebar {
        fill: rgba(0,0,0,0);
      }

      .cls-2-sidebar {
        fill: #fff;
      }
    </style>
  </defs>
  <g id="_assessment" data-name=" assessment" transform="translate(-576 -154)">
    <rect id="Path" class="cls-1-sidebar" width="24" height="24" transform="translate(576 154)"/>
    <path id="Icon" class="cls-2-sidebar" d="M16,18H2a2,2,0,0,1-2-2V2A2,2,0,0,1,2,0H16a2,2,0,0,1,2,2V16A2,2,0,0,1,16,18Zm-3-8a1,1,0,0,0-1,1v2a1,1,0,0,0,2,0V11A1,1,0,0,0,13,10ZM9,4A1,1,0,0,0,8,5v8a1,1,0,0,0,2,0V5A1,1,0,0,0,9,4ZM5,7A1,1,0,0,0,4,8v5a1,1,0,1,0,2,0V8A1,1,0,0,0,5,7Z" transform="translate(579 157)"/>
  </g>
</svg>
