<svg width="22" height="20" viewBox="0 0 22 20" fill="none" xmlns="http://www.w3.org/2000/svg">
<path d="M7.89516 4.0769L4.79745 6.78929L4.8054 6.78929L1.71566 9.50168L3.0244e-07 10.9959L1.71566 12.4983L4.8054 15.2107L4.79745 15.2107L7.89516 17.9231L10 14.9264L6.91024 12.2141L6.90231 12.2141L5.51232 10.9959L6.90231 9.7859L6.91024 9.7859L10 7.06541L7.89516 4.0769Z" fill="#D93865"/>
<path d="M19.8952 4.0769L16.7974 6.78929L16.8054 6.78929L13.7157 9.50168L12 10.9959L13.7157 12.4983L16.8054 15.2107L16.7974 15.2107L19.8952 17.9231L22 14.9264L18.9102 12.2141L18.9023 12.2141L17.5123 10.9959L18.9023 9.7859L18.9102 9.7859L22 7.06541L19.8952 4.0769Z" fill="#D93865"/>
</svg>
