<svg width="24" height="24" viewBox="0 0 24 24" fill="none" xmlns="http://www.w3.org/2000/svg">
<path d="M21.4292 16.0039V8.00393C21.4288 7.65321 21.3363 7.30874 21.1607 7.00509C20.9852 6.70145 20.7329 6.44929 20.4292 6.27393L13.4292 2.27393C13.1252 2.09839 12.7803 2.00598 12.4292 2.00598C12.0781 2.00598 11.7332 2.09839 11.4292 2.27393L4.4292 6.27393C4.12546 6.44929 3.87318 6.70145 3.69766 7.00509C3.52214 7.30874 3.42956 7.65321 3.4292 8.00393V16.0039C3.42956 16.3547 3.52214 16.6991 3.69766 17.0028C3.87318 17.3064 4.12546 17.5586 4.4292 17.7339L11.4292 21.7339C11.7332 21.9095 12.0781 22.0019 12.4292 22.0019C12.7803 22.0019 13.1252 21.9095 13.4292 21.7339L20.4292 17.7339C20.7329 17.5586 20.9852 17.3064 21.1607 17.0028C21.3363 16.6991 21.4288 16.3547 21.4292 16.0039Z" stroke="#2967DD" stroke-width="2" stroke-linecap="round" stroke-linejoin="round"/>
<path d="M3.69922 6.96387L12.4292 12.0139L21.1592 6.96387" stroke="#2967DD" stroke-width="2" stroke-linecap="round" stroke-linejoin="round"/>
<path d="M12.4292 22.0839V12.0039" stroke="#2967DD" stroke-width="1.5" stroke-linecap="round" stroke-linejoin="round"/>
</svg>
