<svg width="13" height="16" viewBox="0 0 13 16" class="icon" xmlns="http://www.w3.org/2000/svg" fill="#262626">
<path d="M11.6475 11.4094V2.37603C11.6475 2.22134 11.5244 2.09478 11.374 2.09478H8.46875V0.885402C8.46875 0.779934 8.34912 0.720168 8.2688 0.785207L6.08813 2.55708C6.07338 2.56881 6.06143 2.58386 6.05321 2.60108C6.04499 2.61829 6.04072 2.63722 6.04072 2.6564C6.04072 2.67558 6.04499 2.6945 6.05321 2.71172C6.06143 2.72894 6.07338 2.74399 6.08813 2.75571L8.26709 4.52759C8.34741 4.59263 8.46704 4.53462 8.46704 4.42739V3.21978H10.4153V11.4094C9.65991 11.6731 9.11646 12.4096 9.11646 13.2745C9.11646 14.3608 9.97436 15.2432 11.0305 15.2432C12.0867 15.2432 12.9446 14.3608 12.9446 13.2745C12.9463 12.4096 12.4028 11.6749 11.6475 11.4094ZM11.0322 14.1182C10.8176 14.1137 10.6132 14.0228 10.4629 13.8651C10.3126 13.7073 10.2285 13.4953 10.2285 13.2745C10.2285 13.0536 10.3126 12.8416 10.4629 12.6838C10.6132 12.5261 10.8176 12.4352 11.0322 12.4307C11.2469 12.4352 11.4513 12.5261 11.6015 12.6838C11.7518 12.8416 11.836 13.0536 11.836 13.2745C11.836 13.4953 11.7518 13.7073 11.6015 13.8651C11.4513 14.0228 11.2469 14.1137 11.0322 14.1182ZM4.74316 2.72759C4.74316 1.64126 3.88525 0.75884 2.8291 0.75884C1.77295 0.75884 0.915039 1.64126 0.915039 2.72759C0.915039 3.59243 1.4585 4.3272 2.21387 4.59263V11.4112C1.4585 11.6749 0.915039 12.4114 0.915039 13.2762C0.915039 14.3625 1.77295 15.245 2.8291 15.245C3.88525 15.245 4.74316 14.3625 4.74316 13.2762C4.74316 12.4114 4.19971 11.6766 3.44434 11.4112V4.59263C4.19971 4.3272 4.74316 3.59243 4.74316 2.72759ZM2.00879 2.72759C2.01317 2.5068 2.10152 2.29656 2.25488 2.14201C2.40824 1.98745 2.6144 1.90089 2.8291 1.90089C3.04381 1.90089 3.24996 1.98745 3.40332 2.14201C3.55668 2.29656 3.64503 2.5068 3.64941 2.72759C3.64503 2.94838 3.55668 3.15861 3.40332 3.31317C3.24996 3.46773 3.04381 3.55429 2.8291 3.55429C2.6144 3.55429 2.40824 3.46773 2.25488 3.31317C2.10152 3.15861 2.01317 2.94838 2.00879 2.72759ZM3.64941 13.2745C3.64503 13.4953 3.55668 13.7055 3.40332 13.86C3.24996 14.0146 3.04381 14.1012 2.8291 14.1012C2.6144 14.1012 2.40824 14.0146 2.25488 13.86C2.10152 13.7055 2.01317 13.4953 2.00879 13.2745C2.01317 13.0537 2.10152 12.8434 2.25488 12.6889C2.40824 12.5343 2.6144 12.4478 2.8291 12.4478C3.04381 12.4478 3.24996 12.5343 3.40332 12.6889C3.55668 12.8434 3.64503 13.0537 3.64941 13.2745Z" />
</svg>
