<svg width="575" height="44" viewBox="0 0 575 44" fill="none" xmlns="http://www.w3.org/2000/svg">
<g clip-path="url(#clip0_29_62535)">
<path d="M9.99984 30.3337C14.6022 30.3337 18.3332 26.6027 18.3332 22.0003C18.3332 17.398 14.6022 13.667 9.99984 13.667C5.39746 13.667 1.6665 17.398 1.6665 22.0003C1.6665 26.6027 5.39746 30.3337 9.99984 30.3337Z" stroke="#448FF7" stroke-width="2" stroke-linecap="round" stroke-linejoin="round"/>
<path d="M10 25.3333V22" stroke="#448FF7" stroke-width="2" stroke-linecap="round" stroke-linejoin="round"/>
<path d="M10 18.667H10.0083" stroke="#448FF7" stroke-width="2" stroke-linecap="round" stroke-linejoin="round"/>
</g>
<path d="M37.5753 20.1293H36.0241C35.9645 19.7978 35.8535 19.5062 35.6911 19.2543C35.5286 19.0024 35.3298 18.7886 35.0945 18.6129C34.8591 18.4373 34.5956 18.3047 34.304 18.2152C34.0156 18.1257 33.709 18.081 33.3842 18.081C32.7976 18.081 32.2723 18.2285 31.8082 18.5234C31.3475 18.8184 30.983 19.2509 30.7145 19.821C30.4493 20.3911 30.3168 21.0871 30.3168 21.9091C30.3168 22.7377 30.4493 23.437 30.7145 24.0071C30.983 24.5772 31.3492 25.008 31.8132 25.2997C32.2772 25.5914 32.7992 25.7372 33.3793 25.7372C33.7008 25.7372 34.0057 25.6941 34.294 25.608C34.5857 25.5185 34.8492 25.3875 35.0845 25.2152C35.3198 25.0429 35.5187 24.8324 35.6811 24.5838C35.8468 24.3319 35.9612 24.0436 36.0241 23.7188L37.5753 23.7237C37.4924 24.2242 37.3317 24.6849 37.093 25.1058C36.8577 25.5234 36.5545 25.8847 36.1832 26.1896C35.8153 26.4912 35.3944 26.7249 34.9205 26.8906C34.4465 27.0563 33.9295 27.1392 33.3693 27.1392C32.4877 27.1392 31.7022 26.9304 31.0128 26.5128C30.3234 26.0919 29.7798 25.4903 29.3821 24.7081C28.9877 23.9259 28.7905 22.9929 28.7905 21.9091C28.7905 20.822 28.9893 19.889 29.3871 19.1101C29.7848 18.3279 30.3284 17.728 31.0178 17.3104C31.7071 16.8894 32.491 16.679 33.3693 16.679C33.9096 16.679 34.4134 16.7569 34.8807 16.9126C35.3513 17.0651 35.7739 17.2905 36.1484 17.5888C36.523 17.8838 36.8329 18.245 37.0781 18.6726C37.3234 19.0968 37.4891 19.5824 37.5753 20.1293ZM40.7807 22.4659V27H39.2942V16.8182H40.7608V20.6065H40.8553C41.0343 20.1955 41.3077 19.8691 41.6756 19.6271C42.0435 19.3852 42.5241 19.2642 43.1174 19.2642C43.641 19.2642 44.0984 19.3719 44.4895 19.5874C44.8839 19.8028 45.1889 20.1243 45.4043 20.5518C45.623 20.9761 45.7324 21.5064 45.7324 22.1428V27H44.2459V22.3217C44.2459 21.7616 44.1017 21.3274 43.8134 21.0192C43.525 20.7076 43.124 20.5518 42.6103 20.5518C42.2589 20.5518 41.9441 20.6264 41.6657 20.7756C41.3906 20.9247 41.1735 21.1435 41.0144 21.4318C40.8586 21.7169 40.7807 22.0616 40.7807 22.4659ZM49.9384 27.169C49.4545 27.169 49.017 27.0795 48.6259 26.9006C48.2348 26.7183 47.9249 26.4548 47.6962 26.1101C47.4708 25.7654 47.3581 25.3428 47.3581 24.8423C47.3581 24.4115 47.441 24.0568 47.6067 23.7784C47.7724 23.5 47.9962 23.2796 48.2779 23.1172C48.5596 22.9548 48.8745 22.8321 49.2225 22.7493C49.5705 22.6664 49.9251 22.6035 50.2864 22.5604C50.7438 22.5073 51.115 22.4643 51.4 22.4311C51.6851 22.3946 51.8922 22.3366 52.0215 22.2571C52.1507 22.1776 52.2154 22.0483 52.2154 21.8693V21.8345C52.2154 21.4003 52.0927 21.0639 51.8475 20.8253C51.6055 20.5866 51.2443 20.4673 50.7637 20.4673C50.2632 20.4673 49.8688 20.5784 49.5804 20.8004C49.2954 21.0192 49.0982 21.2628 48.9888 21.5312L47.5918 21.2131C47.7575 20.7491 47.9995 20.3745 48.3176 20.0895C48.6391 19.8011 49.0087 19.5923 49.4263 19.4631C49.8439 19.3305 50.2831 19.2642 50.7438 19.2642C51.0487 19.2642 51.3719 19.3007 51.7132 19.3736C52.0579 19.4432 52.3794 19.5724 52.6777 19.7614C52.9793 19.9503 53.2263 20.2204 53.4185 20.5717C53.6107 20.9197 53.7069 21.3722 53.7069 21.929V27H52.2551V25.956H52.1955C52.0994 26.1482 51.9552 26.3371 51.763 26.5227C51.5707 26.7083 51.3238 26.8625 51.0222 26.9851C50.7206 27.1077 50.3593 27.169 49.9384 27.169ZM50.2615 25.9759C50.6725 25.9759 51.0239 25.8946 51.3155 25.7322C51.6105 25.5698 51.8342 25.3577 51.9867 25.0959C52.1425 24.8307 52.2203 24.5473 52.2203 24.2457V23.2614C52.1673 23.3144 52.0646 23.3641 51.9121 23.4105C51.763 23.4536 51.5923 23.4917 51.4 23.5249C51.2078 23.5547 51.0205 23.5829 50.8382 23.6094C50.656 23.6326 50.5035 23.6525 50.3809 23.669C50.0925 23.7055 49.829 23.7668 49.5904 23.853C49.3551 23.9392 49.1661 24.0634 49.0236 24.2259C48.8844 24.3849 48.8148 24.5971 48.8148 24.8622C48.8148 25.2301 48.9507 25.5085 49.2225 25.6974C49.4943 25.883 49.8406 25.9759 50.2615 25.9759ZM57.1733 22.4659V27H55.6868V19.3636H57.1136V20.6065H57.2081C57.3838 20.2022 57.6589 19.8774 58.0334 19.6321C58.4112 19.3868 58.8868 19.2642 59.4602 19.2642C59.9806 19.2642 60.4363 19.3736 60.8274 19.5923C61.2185 19.8078 61.5218 20.1293 61.7372 20.5568C61.9527 20.9844 62.0604 21.513 62.0604 22.1428V27H60.5739V22.3217C60.5739 21.7682 60.4297 21.3357 60.1413 21.0241C59.853 20.7093 59.4569 20.5518 58.9531 20.5518C58.6084 20.5518 58.3018 20.6264 58.0334 20.7756C57.7682 20.9247 57.5578 21.1435 57.402 21.4318C57.2495 21.7169 57.1733 22.0616 57.1733 22.4659ZM67.2557 30.0227C66.6491 30.0227 66.1271 29.9432 65.6896 29.7841C65.2554 29.625 64.9008 29.4145 64.6257 29.1527C64.3506 28.8909 64.1451 28.6042 64.0092 28.2926L65.2869 27.7656C65.3764 27.9115 65.4957 28.0656 65.6449 28.228C65.7973 28.3937 66.0028 28.5346 66.2614 28.6506C66.5232 28.7666 66.8596 28.8246 67.2706 28.8246C67.834 28.8246 68.2997 28.687 68.6676 28.4119C69.0355 28.1402 69.2195 27.706 69.2195 27.1094V25.608H69.125C69.0355 25.7704 68.9063 25.951 68.7372 26.1499C68.5715 26.3487 68.3428 26.5211 68.0511 26.6669C67.7595 26.8127 67.38 26.8857 66.9126 26.8857C66.3094 26.8857 65.7659 26.7448 65.282 26.4631C64.8014 26.178 64.4202 25.7588 64.1385 25.2053C63.8601 24.6484 63.7209 23.964 63.7209 23.152C63.7209 22.34 63.8584 21.6439 64.1335 21.0639C64.4119 20.4839 64.7931 20.0398 65.277 19.7315C65.7609 19.42 66.3094 19.2642 66.9226 19.2642C67.3965 19.2642 67.7794 19.3438 68.071 19.5028C68.3627 19.6586 68.5897 19.8409 68.7521 20.0497C68.9179 20.2585 69.0455 20.4425 69.1349 20.6016H69.2443V19.3636H70.701V27.169C70.701 27.8253 70.5485 28.3639 70.2436 28.7848C69.9387 29.2057 69.526 29.5173 69.0057 29.7195C68.4886 29.9216 67.9053 30.0227 67.2557 30.0227ZM67.2408 25.6527C67.6683 25.6527 68.0296 25.5533 68.3246 25.3544C68.6229 25.1522 68.8482 24.8639 69.0007 24.4893C69.1565 24.1115 69.2344 23.6591 69.2344 23.1321C69.2344 22.6184 69.1581 22.166 69.0057 21.7749C68.8532 21.3838 68.6295 21.0788 68.3345 20.8601C68.0395 20.638 67.675 20.527 67.2408 20.527C66.7933 20.527 66.4205 20.643 66.1222 20.875C65.8239 21.1037 65.5985 21.4152 65.446 21.8097C65.2969 22.2041 65.2223 22.6449 65.2223 23.1321C65.2223 23.6326 65.2985 24.0717 65.451 24.4496C65.6035 24.8274 65.8288 25.1224 66.1271 25.3345C66.4287 25.5466 66.8 25.6527 67.2408 25.6527ZM75.9858 27.1541C75.2334 27.1541 74.5855 26.9934 74.0419 26.6719C73.5017 26.3471 73.084 25.8913 72.7891 25.3047C72.4974 24.7147 72.3516 24.0237 72.3516 23.2315C72.3516 22.4493 72.4974 21.7599 72.7891 21.1634C73.084 20.5668 73.495 20.1011 74.022 19.7663C74.5523 19.4316 75.1721 19.2642 75.8814 19.2642C76.3123 19.2642 76.7299 19.3355 77.1342 19.478C77.5386 19.6205 77.9015 19.8442 78.223 20.1491C78.5445 20.4541 78.7981 20.8501 78.9837 21.3374C79.1693 21.8213 79.2621 22.4096 79.2621 23.1023V23.6293H73.1918V22.5156H77.8054C77.8054 22.1245 77.7259 21.7782 77.5668 21.4766C77.4077 21.1716 77.1839 20.9313 76.8956 20.7557C76.6106 20.58 76.2758 20.4922 75.8913 20.4922C75.4737 20.4922 75.1091 20.5949 74.7976 20.8004C74.4893 21.0026 74.2507 21.2678 74.0817 21.5959C73.916 21.9207 73.8331 22.2737 73.8331 22.6548V23.5249C73.8331 24.0353 73.9226 24.4695 74.1016 24.8274C74.2839 25.1854 74.5374 25.4588 74.8622 25.6477C75.187 25.8333 75.5665 25.9261 76.0007 25.9261C76.2824 25.9261 76.5393 25.8864 76.7713 25.8068C77.0033 25.724 77.2038 25.6013 77.3729 25.4389C77.5419 25.2765 77.6712 25.076 77.7607 24.8374L79.1676 25.0909C79.0549 25.5052 78.8527 25.8681 78.5611 26.1797C78.2727 26.4879 77.9098 26.7282 77.4723 26.9006C77.0381 27.0696 76.5426 27.1541 75.9858 27.1541ZM88.2507 19.3636V20.5568H83.9354V19.3636H88.2507ZM85.1186 27V18.4787C85.1186 18.0014 85.223 17.6053 85.4318 17.2905C85.6406 16.9723 85.9174 16.7353 86.2621 16.5795C86.6068 16.4205 86.9813 16.3409 87.3857 16.3409C87.6839 16.3409 87.9392 16.3658 88.1513 16.4155C88.3634 16.4619 88.5208 16.505 88.6236 16.5447L88.2756 17.7479C88.206 17.728 88.1165 17.7048 88.0071 17.6783C87.8977 17.6484 87.7652 17.6335 87.6094 17.6335C87.2481 17.6335 86.9896 17.723 86.8338 17.902C86.6813 18.081 86.6051 18.3395 86.6051 18.6776V27H85.1186ZM91.7743 27.169C91.2904 27.169 90.8529 27.0795 90.4618 26.9006C90.0707 26.7183 89.7608 26.4548 89.5321 26.1101C89.3068 25.7654 89.1941 25.3428 89.1941 24.8423C89.1941 24.4115 89.2769 24.0568 89.4426 23.7784C89.6084 23.5 89.8321 23.2796 90.1138 23.1172C90.3955 22.9548 90.7104 22.8321 91.0584 22.7493C91.4064 22.6664 91.7611 22.6035 92.1223 22.5604C92.5797 22.5073 92.9509 22.4643 93.236 22.4311C93.521 22.3946 93.7282 22.3366 93.8574 22.2571C93.9867 22.1776 94.0513 22.0483 94.0513 21.8693V21.8345C94.0513 21.4003 93.9287 21.0639 93.6834 20.8253C93.4415 20.5866 93.0802 20.4673 92.5996 20.4673C92.0991 20.4673 91.7047 20.5784 91.4164 20.8004C91.1313 21.0192 90.9341 21.2628 90.8248 21.5312L89.4277 21.2131C89.5935 20.7491 89.8354 20.3745 90.1536 20.0895C90.4751 19.8011 90.8446 19.5923 91.2623 19.4631C91.6799 19.3305 92.119 19.2642 92.5797 19.2642C92.8846 19.2642 93.2078 19.3007 93.5492 19.3736C93.8939 19.4432 94.2154 19.5724 94.5137 19.7614C94.8153 19.9503 95.0622 20.2204 95.2544 20.5717C95.4467 20.9197 95.5428 21.3722 95.5428 21.929V27H94.0911V25.956H94.0314C93.9353 26.1482 93.7911 26.3371 93.5989 26.5227C93.4067 26.7083 93.1597 26.8625 92.8581 26.9851C92.5565 27.1077 92.1953 27.169 91.7743 27.169ZM92.0975 25.9759C92.5085 25.9759 92.8598 25.8946 93.1515 25.7322C93.4464 25.5698 93.6702 25.3577 93.8226 25.0959C93.9784 24.8307 94.0563 24.5473 94.0563 24.2457V23.2614C94.0033 23.3144 93.9005 23.3641 93.748 23.4105C93.5989 23.4536 93.4282 23.4917 93.236 23.5249C93.0437 23.5547 92.8565 23.5829 92.6742 23.6094C92.4919 23.6326 92.3394 23.6525 92.2168 23.669C91.9284 23.7055 91.665 23.7668 91.4263 23.853C91.191 23.9392 91.0021 24.0634 90.8596 24.2259C90.7203 24.3849 90.6507 24.5971 90.6507 24.8622C90.6507 25.2301 90.7866 25.5085 91.0584 25.6974C91.3302 25.883 91.6766 25.9759 92.0975 25.9759ZM97.5227 27V19.3636H99.0092V27H97.5227ZM98.2734 18.1854C98.0149 18.1854 97.7929 18.0992 97.6072 17.9268C97.425 17.7512 97.3338 17.5424 97.3338 17.3004C97.3338 17.0552 97.425 16.8464 97.6072 16.674C97.7929 16.4983 98.0149 16.4105 98.2734 16.4105C98.532 16.4105 98.7524 16.4983 98.9347 16.674C99.1203 16.8464 99.2131 17.0552 99.2131 17.3004C99.2131 17.5424 99.1203 17.7512 98.9347 17.9268C98.7524 18.0992 98.532 18.1854 98.2734 18.1854ZM102.496 16.8182V27H101.009V16.8182H102.496ZM109.333 23.8331V19.3636H110.824V27H109.363V25.6776H109.283C109.107 26.0852 108.826 26.425 108.438 26.6967C108.053 26.9652 107.574 27.0994 107.001 27.0994C106.511 27.0994 106.076 26.9917 105.699 26.7763C105.324 26.5575 105.029 26.2344 104.814 25.8068C104.601 25.3793 104.495 24.8506 104.495 24.2209V19.3636H105.982V24.0419C105.982 24.5623 106.126 24.9766 106.414 25.2848C106.703 25.593 107.077 25.7472 107.538 25.7472C107.816 25.7472 108.093 25.6776 108.368 25.5384C108.647 25.3991 108.877 25.1887 109.059 24.907C109.245 24.6252 109.336 24.2673 109.333 23.8331ZM112.822 27V19.3636H114.258V20.5767H114.338C114.477 20.1657 114.722 19.8426 115.074 19.6072C115.428 19.3686 115.829 19.2493 116.277 19.2493C116.37 19.2493 116.479 19.2526 116.605 19.2592C116.734 19.2659 116.835 19.2741 116.908 19.2841V20.706C116.849 20.6894 116.742 20.6712 116.59 20.6513C116.438 20.6281 116.285 20.6165 116.133 20.6165C115.781 20.6165 115.468 20.6911 115.193 20.8402C114.921 20.986 114.706 21.1899 114.547 21.4517C114.388 21.7102 114.308 22.0052 114.308 22.3366V27H112.822ZM121.212 27.1541C120.46 27.1541 119.812 26.9934 119.268 26.6719C118.728 26.3471 118.311 25.8913 118.016 25.3047C117.724 24.7147 117.578 24.0237 117.578 23.2315C117.578 22.4493 117.724 21.7599 118.016 21.1634C118.311 20.5668 118.722 20.1011 119.249 19.7663C119.779 19.4316 120.399 19.2642 121.108 19.2642C121.539 19.2642 121.956 19.3355 122.361 19.478C122.765 19.6205 123.128 19.8442 123.45 20.1491C123.771 20.4541 124.025 20.8501 124.21 21.3374C124.396 21.8213 124.489 22.4096 124.489 23.1023V23.6293H118.418V22.5156H123.032C123.032 22.1245 122.952 21.7782 122.793 21.4766C122.634 21.1716 122.411 20.9313 122.122 20.7557C121.837 20.58 121.502 20.4922 121.118 20.4922C120.7 20.4922 120.336 20.5949 120.024 20.8004C119.716 21.0026 119.477 21.2678 119.308 21.5959C119.143 21.9207 119.06 22.2737 119.06 22.6548V23.5249C119.06 24.0353 119.149 24.4695 119.328 24.8274C119.51 25.1854 119.764 25.4588 120.089 25.6477C120.414 25.8333 120.793 25.9261 121.227 25.9261C121.509 25.9261 121.766 25.8864 121.998 25.8068C122.23 25.724 122.43 25.6013 122.599 25.4389C122.768 25.2765 122.898 25.076 122.987 24.8374L124.394 25.0909C124.281 25.5052 124.079 25.8681 123.788 26.1797C123.499 26.4879 123.136 26.7282 122.699 26.9006C122.265 27.0696 121.769 27.1541 121.212 27.1541ZM129.843 27V19.3636H131.28V20.5767H131.359C131.499 20.1657 131.744 19.8426 132.095 19.6072C132.45 19.3686 132.851 19.2493 133.298 19.2493C133.391 19.2493 133.5 19.2526 133.626 19.2592C133.756 19.2659 133.857 19.2741 133.93 19.2841V20.706C133.87 20.6894 133.764 20.6712 133.612 20.6513C133.459 20.6281 133.307 20.6165 133.154 20.6165C132.803 20.6165 132.49 20.6911 132.214 20.8402C131.943 20.986 131.727 21.1899 131.568 21.4517C131.409 21.7102 131.33 22.0052 131.33 22.3366V27H129.843ZM137.37 27.169C136.886 27.169 136.449 27.0795 136.058 26.9006C135.666 26.7183 135.357 26.4548 135.128 26.1101C134.902 25.7654 134.79 25.3428 134.79 24.8423C134.79 24.4115 134.873 24.0568 135.038 23.7784C135.204 23.5 135.428 23.2796 135.71 23.1172C135.991 22.9548 136.306 22.8321 136.654 22.7493C137.002 22.6664 137.357 22.6035 137.718 22.5604C138.175 22.5073 138.547 22.4643 138.832 22.4311C139.117 22.3946 139.324 22.3366 139.453 22.2571C139.582 22.1776 139.647 22.0483 139.647 21.8693V21.8345C139.647 21.4003 139.524 21.0639 139.279 20.8253C139.037 20.5866 138.676 20.4673 138.195 20.4673C137.695 20.4673 137.3 20.5784 137.012 20.8004C136.727 21.0192 136.53 21.2628 136.42 21.5312L135.023 21.2131C135.189 20.7491 135.431 20.3745 135.749 20.0895C136.071 19.8011 136.44 19.5923 136.858 19.4631C137.276 19.3305 137.715 19.2642 138.175 19.2642C138.48 19.2642 138.804 19.3007 139.145 19.3736C139.49 19.4432 139.811 19.5724 140.109 19.7614C140.411 19.9503 140.658 20.2204 140.85 20.5717C141.042 20.9197 141.138 21.3722 141.138 21.929V27H139.687V25.956H139.627C139.531 26.1482 139.387 26.3371 139.195 26.5227C139.002 26.7083 138.755 26.8625 138.454 26.9851C138.152 27.1077 137.791 27.169 137.37 27.169ZM137.693 25.9759C138.104 25.9759 138.455 25.8946 138.747 25.7322C139.042 25.5698 139.266 25.3577 139.418 25.0959C139.574 24.8307 139.652 24.5473 139.652 24.2457V23.2614C139.599 23.3144 139.496 23.3641 139.344 23.4105C139.195 23.4536 139.024 23.4917 138.832 23.5249C138.639 23.5547 138.452 23.5829 138.27 23.6094C138.088 23.6326 137.935 23.6525 137.812 23.669C137.524 23.7055 137.261 23.7668 137.022 23.853C136.787 23.9392 136.598 24.0634 136.455 24.2259C136.316 24.3849 136.246 24.5971 136.246 24.8622C136.246 25.2301 136.382 25.5085 136.654 25.6974C136.926 25.883 137.272 25.9759 137.693 25.9759ZM146.683 19.3636V20.5568H142.512V19.3636H146.683ZM143.631 17.5341H145.117V24.7578C145.117 25.0462 145.16 25.2633 145.246 25.4091C145.332 25.5516 145.443 25.6494 145.579 25.7024C145.719 25.7521 145.869 25.777 146.032 25.777C146.151 25.777 146.256 25.7687 146.345 25.7521C146.434 25.7356 146.504 25.7223 146.554 25.7124L146.822 26.9403C146.736 26.9735 146.613 27.0066 146.454 27.0398C146.295 27.0762 146.096 27.0961 145.858 27.0994C145.467 27.1061 145.102 27.0365 144.764 26.8906C144.426 26.7448 144.153 26.5194 143.944 26.2145C143.735 25.9096 143.631 25.5268 143.631 25.0661V17.5341ZM151.537 27.1541C150.784 27.1541 150.136 26.9934 149.593 26.6719C149.052 26.3471 148.635 25.8913 148.34 25.3047C148.048 24.7147 147.902 24.0237 147.902 23.2315C147.902 22.4493 148.048 21.7599 148.34 21.1634C148.635 20.5668 149.046 20.1011 149.573 19.7663C150.103 19.4316 150.723 19.2642 151.432 19.2642C151.863 19.2642 152.281 19.3355 152.685 19.478C153.089 19.6205 153.452 19.8442 153.774 20.1491C154.095 20.4541 154.349 20.8501 154.534 21.3374C154.72 21.8213 154.813 22.4096 154.813 23.1023V23.6293H148.743V22.5156H153.356C153.356 22.1245 153.277 21.7782 153.118 21.4766C152.958 21.1716 152.735 20.9313 152.446 20.7557C152.161 20.58 151.827 20.4922 151.442 20.4922C151.025 20.4922 150.66 20.5949 150.348 20.8004C150.04 21.0026 149.801 21.2678 149.632 21.5959C149.467 21.9207 149.384 22.2737 149.384 22.6548V23.5249C149.384 24.0353 149.473 24.4695 149.652 24.8274C149.835 25.1854 150.088 25.4588 150.413 25.6477C150.738 25.8333 151.117 25.9261 151.551 25.9261C151.833 25.9261 152.09 25.8864 152.322 25.8068C152.554 25.724 152.755 25.6013 152.924 25.4389C153.093 25.2765 153.222 25.076 153.311 24.8374L154.718 25.0909C154.606 25.5052 154.404 25.8681 154.112 26.1797C153.824 26.4879 153.461 26.7282 153.023 26.9006C152.589 27.0696 152.093 27.1541 151.537 27.1541Z" fill="#404040"/>
<path d="M172.667 22.1129V20.8054H179.036V22.1129H172.667ZM172.667 25.1754V23.8679H179.036V25.1754H172.667Z" fill="#404040"/>
<path d="M225.174 16H222.032V5.81818H225.313C226.301 5.81818 227.146 6.02202 227.849 6.42969C228.551 6.83404 229.09 7.41572 229.464 8.17472C229.839 8.9304 230.026 9.83523 230.026 10.8892C230.026 11.9498 229.837 12.8629 229.459 13.6286C229.081 14.3909 228.531 14.9775 227.809 15.3885C227.086 15.7962 226.208 16 225.174 16ZM223.265 14.9062H225.094C225.936 14.9062 226.634 14.7438 227.187 14.419C227.741 14.0942 228.153 13.6319 228.425 13.032C228.697 12.4321 228.833 11.7178 228.833 10.8892C228.833 10.0672 228.699 9.35961 228.43 8.76633C228.162 8.16974 227.761 7.71236 227.227 7.39418C226.693 7.07268 226.029 6.91193 225.233 6.91193H223.265V14.9062ZM235.137 16.1591C234.401 16.1591 233.766 15.9967 233.233 15.6719C232.702 15.3438 232.293 14.8864 232.005 14.2997C231.72 13.7098 231.577 13.0237 231.577 12.2415C231.577 11.4593 231.72 10.7699 232.005 10.1733C232.293 9.57339 232.694 9.10606 233.208 8.77131C233.725 8.43324 234.328 8.2642 235.018 8.2642C235.415 8.2642 235.808 8.33049 236.196 8.46307C236.584 8.59564 236.937 8.81108 237.255 9.10938C237.573 9.40436 237.827 9.79545 238.015 10.2827C238.204 10.7699 238.299 11.3698 238.299 12.0824V12.5795H232.412V11.5653H237.106C237.106 11.1345 237.019 10.75 236.847 10.4119C236.678 10.0739 236.436 9.80705 236.121 9.61151C235.81 9.41596 235.442 9.31818 235.018 9.31818C234.55 9.31818 234.146 9.43419 233.805 9.66619C233.466 9.89489 233.206 10.1932 233.024 10.5611C232.842 10.929 232.751 11.3234 232.751 11.7443V12.4205C232.751 12.9972 232.85 13.486 233.049 13.8871C233.251 14.2848 233.531 14.5881 233.889 14.7969C234.247 15.0024 234.663 15.1051 235.137 15.1051C235.445 15.1051 235.724 15.062 235.972 14.9759C236.224 14.8864 236.441 14.7538 236.623 14.5781C236.806 14.3991 236.947 14.1771 237.046 13.9119L238.18 14.2301C238.06 14.6146 237.86 14.9527 237.578 15.2443C237.296 15.5327 236.948 15.758 236.534 15.9205C236.12 16.0795 235.654 16.1591 235.137 16.1591ZM240.084 18.8636V8.36364H241.217V9.5767H241.356C241.443 9.44413 241.562 9.27509 241.714 9.0696C241.87 8.8608 242.092 8.67519 242.381 8.51278C242.672 8.34706 243.067 8.2642 243.564 8.2642C244.207 8.2642 244.773 8.42495 245.264 8.74645C245.755 9.06794 246.137 9.52367 246.412 10.1136C246.688 10.7036 246.825 11.3996 246.825 12.2017C246.825 13.0104 246.688 13.7114 246.412 14.3047C246.137 14.8946 245.756 15.352 245.269 15.6768C244.782 15.9983 244.22 16.1591 243.584 16.1591C243.093 16.1591 242.7 16.0779 242.405 15.9155C242.11 15.7498 241.883 15.5625 241.724 15.3537C241.565 15.1416 241.443 14.9659 241.356 14.8267H241.257V18.8636H240.084ZM241.237 12.1818C241.237 12.7585 241.322 13.2673 241.491 13.7081C241.66 14.1456 241.907 14.4886 242.231 14.7372C242.556 14.9825 242.954 15.1051 243.425 15.1051C243.915 15.1051 244.324 14.9759 244.653 14.7173C244.984 14.4555 245.233 14.1042 245.398 13.6634C245.567 13.2192 245.652 12.7254 245.652 12.1818C245.652 11.6449 245.569 11.161 245.403 10.7301C245.241 10.2959 244.994 9.95289 244.662 9.70099C244.334 9.44579 243.922 9.31818 243.425 9.31818C242.947 9.31818 242.546 9.43916 242.221 9.68111C241.897 9.91974 241.651 10.2545 241.486 10.6854C241.32 11.1129 241.237 11.6117 241.237 12.1818ZM249.788 5.81818V16H248.615V5.81818H249.788ZM255.039 16.1591C254.35 16.1591 253.745 15.995 253.225 15.6669C252.708 15.3388 252.303 14.8797 252.012 14.2898C251.723 13.6998 251.579 13.0104 251.579 12.2216C251.579 11.4261 251.723 10.7318 252.012 10.1385C252.303 9.54522 252.708 9.08452 253.225 8.75639C253.745 8.42827 254.35 8.2642 255.039 8.2642C255.729 8.2642 256.332 8.42827 256.849 8.75639C257.369 9.08452 257.774 9.54522 258.062 10.1385C258.354 10.7318 258.5 11.4261 258.5 12.2216C258.5 13.0104 258.354 13.6998 258.062 14.2898C257.774 14.8797 257.369 15.3388 256.849 15.6669C256.332 15.995 255.729 16.1591 255.039 16.1591ZM255.039 15.1051C255.563 15.1051 255.994 14.9709 256.332 14.7024C256.67 14.4339 256.92 14.081 257.083 13.6435C257.245 13.206 257.326 12.732 257.326 12.2216C257.326 11.7112 257.245 11.2356 257.083 10.7947C256.92 10.3539 256.67 9.99763 256.332 9.72585C255.994 9.45407 255.563 9.31818 255.039 9.31818C254.516 9.31818 254.085 9.45407 253.747 9.72585C253.409 9.99763 253.158 10.3539 252.996 10.7947C252.834 11.2356 252.752 11.7112 252.752 12.2216C252.752 12.732 252.834 13.206 252.996 13.6435C253.158 14.081 253.409 14.4339 253.747 14.7024C254.085 14.9709 254.516 15.1051 255.039 15.1051ZM260.773 18.8636C260.574 18.8636 260.397 18.8471 260.241 18.8139C260.085 18.7841 259.977 18.7543 259.918 18.7244L260.216 17.6903C260.501 17.7633 260.753 17.7898 260.972 17.7699C261.191 17.75 261.384 17.6522 261.553 17.4766C261.726 17.3042 261.883 17.0241 262.026 16.6364L262.244 16.0398L259.421 8.36364H260.693L262.801 14.4489H262.881L264.989 8.36364H266.262L263.02 17.1136C262.874 17.508 262.694 17.8345 262.478 18.093C262.263 18.3549 262.012 18.5488 261.727 18.6747C261.446 18.8007 261.128 18.8636 260.773 18.8636ZM267.81 16V8.36364H268.944V9.55682H269.043C269.202 9.14915 269.459 8.83262 269.814 8.60724C270.168 8.37855 270.594 8.2642 271.091 8.2642C271.595 8.2642 272.015 8.37855 272.349 8.60724C272.687 8.83262 272.951 9.14915 273.14 9.55682H273.219C273.415 9.16241 273.708 8.84919 274.099 8.61719C274.49 8.38187 274.959 8.2642 275.506 8.2642C276.189 8.2642 276.747 8.47798 277.182 8.90554C277.616 9.32978 277.833 9.991 277.833 10.8892V16H276.66V10.8892C276.66 10.3258 276.506 9.92306 276.197 9.68111C275.889 9.43916 275.526 9.31818 275.108 9.31818C274.572 9.31818 274.156 9.48059 273.861 9.8054C273.566 10.1269 273.418 10.5346 273.418 11.0284V16H272.225V10.7699C272.225 10.3357 272.084 9.98603 271.802 9.72088C271.521 9.45241 271.158 9.31818 270.714 9.31818C270.409 9.31818 270.124 9.39938 269.858 9.56179C269.597 9.72419 269.385 9.94957 269.222 10.2379C269.063 10.523 268.983 10.8527 268.983 11.2273V16H267.81ZM283.18 16.1591C282.444 16.1591 281.809 15.9967 281.276 15.6719C280.745 15.3438 280.336 14.8864 280.048 14.2997C279.763 13.7098 279.62 13.0237 279.62 12.2415C279.62 11.4593 279.763 10.7699 280.048 10.1733C280.336 9.57339 280.737 9.10606 281.251 8.77131C281.768 8.43324 282.371 8.2642 283.061 8.2642C283.458 8.2642 283.851 8.33049 284.239 8.46307C284.627 8.59564 284.98 8.81108 285.298 9.10938C285.616 9.40436 285.869 9.79545 286.058 10.2827C286.247 10.7699 286.342 11.3698 286.342 12.0824V12.5795H280.455V11.5653H285.149C285.149 11.1345 285.062 10.75 284.89 10.4119C284.721 10.0739 284.479 9.80705 284.164 9.61151C283.853 9.41596 283.485 9.31818 283.061 9.31818C282.593 9.31818 282.189 9.43419 281.847 9.66619C281.509 9.89489 281.249 10.1932 281.067 10.5611C280.885 10.929 280.794 11.3234 280.794 11.7443V12.4205C280.794 12.9972 280.893 13.486 281.092 13.8871C281.294 14.2848 281.574 14.5881 281.932 14.7969C282.29 15.0024 282.706 15.1051 283.18 15.1051C283.488 15.1051 283.767 15.062 284.015 14.9759C284.267 14.8864 284.484 14.7538 284.666 14.5781C284.849 14.3991 284.99 14.1771 285.089 13.9119L286.222 14.2301C286.103 14.6146 285.903 14.9527 285.621 15.2443C285.339 15.5327 284.991 15.758 284.577 15.9205C284.163 16.0795 283.697 16.1591 283.18 16.1591ZM289.3 11.4062V16H288.127V8.36364H289.26V9.55682H289.36C289.539 9.16903 289.81 8.85748 290.175 8.62216C290.539 8.38352 291.01 8.2642 291.587 8.2642C292.104 8.2642 292.556 8.37027 292.944 8.58239C293.332 8.79119 293.633 9.10938 293.849 9.53693C294.064 9.96117 294.172 10.4981 294.172 11.1477V16H292.999V11.2273C292.999 10.6274 292.843 10.16 292.531 9.82528C292.22 9.48722 291.792 9.31818 291.249 9.31818C290.874 9.31818 290.539 9.39938 290.244 9.56179C289.953 9.72419 289.722 9.96117 289.553 10.2727C289.384 10.5843 289.3 10.9621 289.3 11.4062ZM299.637 8.36364V9.35795H295.68V8.36364H299.637ZM296.833 6.53409H298.006V13.8125C298.006 14.1439 298.054 14.3925 298.151 14.5582C298.25 14.7206 298.376 14.83 298.528 14.8864C298.684 14.9394 298.848 14.9659 299.021 14.9659C299.15 14.9659 299.256 14.9593 299.339 14.946C299.422 14.9295 299.488 14.9162 299.538 14.9062L299.776 15.9602C299.697 15.9901 299.586 16.0199 299.443 16.0497C299.301 16.0829 299.12 16.0994 298.901 16.0994C298.57 16.0994 298.245 16.0282 297.927 15.8857C297.612 15.7431 297.35 15.526 297.141 15.2344C296.936 14.9427 296.833 14.5748 296.833 14.1307V6.53409ZM306.674 10.0739L305.62 10.3722C305.554 10.1965 305.456 10.0258 305.327 9.86009C305.201 9.69105 305.029 9.55185 304.81 9.44247C304.591 9.3331 304.311 9.27841 303.97 9.27841C303.502 9.27841 303.113 9.38613 302.801 9.60156C302.493 9.81368 302.339 10.0838 302.339 10.4119C302.339 10.7036 302.445 10.9339 302.657 11.103C302.869 11.272 303.201 11.4129 303.652 11.5256L304.785 11.804C305.468 11.9697 305.977 12.2232 306.311 12.5646C306.646 12.9027 306.814 13.3385 306.814 13.8722C306.814 14.3097 306.688 14.7008 306.436 15.0455C306.187 15.3902 305.839 15.6619 305.392 15.8608C304.944 16.0597 304.424 16.1591 303.831 16.1591C303.052 16.1591 302.407 15.9901 301.897 15.652C301.386 15.3139 301.063 14.8201 300.927 14.1705L302.041 13.892C302.147 14.303 302.347 14.6113 302.642 14.8168C302.941 15.0223 303.33 15.125 303.811 15.125C304.358 15.125 304.792 15.009 305.113 14.777C305.438 14.5417 305.6 14.2599 305.6 13.9318C305.6 13.6667 305.508 13.4446 305.322 13.2656C305.136 13.0833 304.851 12.9474 304.467 12.858L303.194 12.5597C302.495 12.3939 301.981 12.1371 301.653 11.7891C301.328 11.4377 301.166 10.9986 301.166 10.4716C301.166 10.0407 301.287 9.65956 301.529 9.32812C301.774 8.99669 302.107 8.73651 302.528 8.54758C302.952 8.35866 303.433 8.2642 303.97 8.2642C304.725 8.2642 305.319 8.42992 305.75 8.76136C306.184 9.0928 306.492 9.5303 306.674 10.0739ZM315.619 16.1591C314.904 16.1591 314.287 15.9901 313.77 15.652C313.253 15.3139 312.855 14.8482 312.577 14.255C312.298 13.6617 312.159 12.9839 312.159 12.2216C312.159 11.446 312.302 10.7616 312.587 10.1683C312.875 9.57173 313.276 9.10606 313.79 8.77131C314.307 8.43324 314.91 8.2642 315.6 8.2642C316.137 8.2642 316.62 8.36364 317.051 8.5625C317.482 8.76136 317.835 9.03977 318.11 9.39773C318.385 9.75568 318.556 10.1733 318.622 10.6506H317.449C317.36 10.3026 317.161 9.99432 316.852 9.72585C316.548 9.45407 316.137 9.31818 315.619 9.31818C315.162 9.31818 314.761 9.4375 314.416 9.67614C314.075 9.91146 313.808 10.2446 313.616 10.6754C313.427 11.103 313.333 11.6051 313.333 12.1818C313.333 12.7718 313.425 13.2855 313.611 13.723C313.8 14.1605 314.065 14.5002 314.406 14.7422C314.751 14.9841 315.155 15.1051 315.619 15.1051C315.924 15.1051 316.201 15.0521 316.45 14.946C316.698 14.84 316.909 14.6875 317.081 14.4886C317.253 14.2898 317.376 14.0511 317.449 13.7727H318.622C318.556 14.2235 318.392 14.6295 318.13 14.9908C317.872 15.3487 317.529 15.6338 317.101 15.8459C316.677 16.0547 316.183 16.1591 315.619 16.1591ZM322.585 16.179C322.101 16.179 321.662 16.0878 321.267 15.9055C320.873 15.7199 320.56 15.4531 320.328 15.1051C320.096 14.7538 319.98 14.3295 319.98 13.8324C319.98 13.3949 320.066 13.0402 320.238 12.7685C320.41 12.4934 320.641 12.2779 320.929 12.1222C321.218 11.9664 321.536 11.8504 321.884 11.7741C322.235 11.6946 322.588 11.6316 322.943 11.5852C323.407 11.5256 323.783 11.4808 324.071 11.451C324.363 11.4179 324.575 11.3632 324.708 11.2869C324.843 11.2107 324.911 11.0781 324.911 10.8892V10.8494C324.911 10.3589 324.777 9.97775 324.509 9.70597C324.244 9.43419 323.841 9.2983 323.301 9.2983C322.74 9.2983 322.301 9.42093 321.983 9.66619C321.665 9.91146 321.441 10.1733 321.312 10.4517L320.198 10.054C320.397 9.58996 320.662 9.22869 320.994 8.97017C321.329 8.70833 321.693 8.52604 322.088 8.4233C322.485 8.31723 322.876 8.2642 323.261 8.2642C323.506 8.2642 323.788 8.29403 324.106 8.35369C324.427 8.41004 324.737 8.5277 325.036 8.70668C325.337 8.88565 325.588 9.15578 325.786 9.51705C325.985 9.87831 326.085 10.3622 326.085 10.9688V16H324.911V14.9659H324.852C324.772 15.1316 324.64 15.3089 324.454 15.4979C324.268 15.6868 324.021 15.8475 323.713 15.9801C323.405 16.1127 323.029 16.179 322.585 16.179ZM322.764 15.125C323.228 15.125 323.619 15.0339 323.937 14.8516C324.258 14.6693 324.5 14.4339 324.663 14.1456C324.829 13.8572 324.911 13.554 324.911 13.2358V12.1619C324.862 12.2216 324.752 12.2763 324.583 12.326C324.418 12.3724 324.225 12.4138 324.007 12.4503C323.791 12.4834 323.581 12.5133 323.375 12.5398C323.173 12.563 323.009 12.5829 322.883 12.5994C322.578 12.6392 322.293 12.7038 322.028 12.7933C321.766 12.8795 321.554 13.0104 321.392 13.1861C321.232 13.3584 321.153 13.5937 321.153 13.892C321.153 14.2997 321.304 14.608 321.605 14.8168C321.91 15.0223 322.296 15.125 322.764 15.125ZM333.039 12.8778V8.36364H334.212V16H333.039V14.7074H332.959C332.78 15.0952 332.502 15.425 332.124 15.6967C331.746 15.9652 331.269 16.0994 330.692 16.0994C330.215 16.0994 329.791 15.995 329.419 15.7862C329.048 15.5741 328.757 15.2559 328.544 14.8317C328.332 14.4041 328.226 13.8655 328.226 13.2159V8.36364H329.4V13.1364C329.4 13.6932 329.555 14.1373 329.867 14.4688C330.182 14.8002 330.583 14.9659 331.07 14.9659C331.362 14.9659 331.658 14.8913 331.96 14.7422C332.265 14.593 332.52 14.3643 332.725 14.0561C332.934 13.7479 333.039 13.3551 333.039 12.8778ZM341.77 10.0739L340.716 10.3722C340.65 10.1965 340.552 10.0258 340.423 9.86009C340.297 9.69105 340.124 9.55185 339.906 9.44247C339.687 9.3331 339.407 9.27841 339.066 9.27841C338.598 9.27841 338.209 9.38613 337.897 9.60156C337.589 9.81368 337.435 10.0838 337.435 10.4119C337.435 10.7036 337.541 10.9339 337.753 11.103C337.965 11.272 338.297 11.4129 338.747 11.5256L339.881 11.804C340.564 11.9697 341.072 12.2232 341.407 12.5646C341.742 12.9027 341.909 13.3385 341.909 13.8722C341.909 14.3097 341.783 14.7008 341.531 15.0455C341.283 15.3902 340.935 15.6619 340.487 15.8608C340.04 16.0597 339.52 16.1591 338.926 16.1591C338.147 16.1591 337.503 15.9901 336.992 15.652C336.482 15.3139 336.159 14.8201 336.023 14.1705L337.137 13.892C337.243 14.303 337.443 14.6113 337.738 14.8168C338.036 15.0223 338.426 15.125 338.906 15.125C339.453 15.125 339.887 15.009 340.209 14.777C340.534 14.5417 340.696 14.2599 340.696 13.9318C340.696 13.6667 340.603 13.4446 340.418 13.2656C340.232 13.0833 339.947 12.9474 339.563 12.858L338.29 12.5597C337.591 12.3939 337.077 12.1371 336.749 11.7891C336.424 11.4377 336.262 10.9986 336.262 10.4716C336.262 10.0407 336.383 9.65956 336.624 9.32812C336.87 8.99669 337.203 8.73651 337.624 8.54758C338.048 8.35866 338.529 8.2642 339.066 8.2642C339.821 8.2642 340.414 8.42992 340.845 8.76136C341.28 9.0928 341.588 9.5303 341.77 10.0739ZM343.675 16V8.36364H344.849V16H343.675ZM344.272 7.09091C344.043 7.09091 343.846 7.01302 343.68 6.85724C343.518 6.70147 343.437 6.5142 343.437 6.29545C343.437 6.0767 343.518 5.88944 343.68 5.73366C343.846 5.57789 344.043 5.5 344.272 5.5C344.501 5.5 344.696 5.57789 344.859 5.73366C345.024 5.88944 345.107 6.0767 345.107 6.29545C345.107 6.5142 345.024 6.70147 344.859 6.85724C344.696 7.01302 344.501 7.09091 344.272 7.09091ZM348.171 11.4062V16H346.998V8.36364H348.131V9.55682H348.231C348.41 9.16903 348.681 8.85748 349.046 8.62216C349.411 8.38352 349.881 8.2642 350.458 8.2642C350.975 8.2642 351.427 8.37027 351.815 8.58239C352.203 8.79119 352.505 9.10938 352.72 9.53693C352.935 9.96117 353.043 10.4981 353.043 11.1477V16H351.87V11.2273C351.87 10.6274 351.714 10.16 351.403 9.82528C351.091 9.48722 350.663 9.31818 350.12 9.31818C349.745 9.31818 349.411 9.39938 349.116 9.56179C348.824 9.72419 348.594 9.96117 348.425 10.2727C348.256 10.5843 348.171 10.9621 348.171 11.4062ZM358.27 19.0227C357.703 19.0227 357.216 18.9498 356.808 18.804C356.4 18.6615 356.06 18.4725 355.789 18.2372C355.52 18.0052 355.306 17.7566 355.147 17.4915L356.082 16.8352C356.188 16.9744 356.322 17.1335 356.485 17.3125C356.647 17.4948 356.869 17.6522 357.151 17.7848C357.436 17.9207 357.809 17.9886 358.27 17.9886C358.886 17.9886 359.395 17.8395 359.796 17.5412C360.197 17.2429 360.397 16.7756 360.397 16.1392V14.5881H360.298C360.212 14.7273 360.089 14.8996 359.93 15.1051C359.774 15.3073 359.549 15.4879 359.254 15.647C358.962 15.8028 358.568 15.8807 358.071 15.8807C357.454 15.8807 356.901 15.7348 356.41 15.4432C355.923 15.1515 355.537 14.7273 355.252 14.1705C354.97 13.6136 354.829 12.9375 354.829 12.142C354.829 11.3598 354.967 10.6787 355.242 10.0987C355.517 9.51539 355.9 9.06463 356.39 8.74645C356.881 8.42495 357.448 8.2642 358.091 8.2642C358.588 8.2642 358.982 8.34706 359.274 8.51278C359.569 8.67519 359.794 8.8608 359.95 9.0696C360.109 9.27509 360.232 9.44413 360.318 9.5767H360.437V8.36364H361.571V16.2188C361.571 16.875 361.422 17.4086 361.123 17.8196C360.828 18.2339 360.431 18.5372 359.93 18.7294C359.433 18.925 358.879 19.0227 358.27 19.0227ZM358.23 14.8267C358.7 14.8267 359.098 14.719 359.423 14.5036C359.748 14.2881 359.995 13.9782 360.164 13.5739C360.333 13.1695 360.417 12.6856 360.417 12.1222C360.417 11.572 360.334 11.0864 360.169 10.6655C360.003 10.2446 359.758 9.91477 359.433 9.67614C359.108 9.4375 358.707 9.31818 358.23 9.31818C357.733 9.31818 357.318 9.44413 356.987 9.69602C356.659 9.94792 356.412 10.286 356.246 10.7102C356.084 11.1345 356.002 11.6051 356.002 12.1222C356.002 12.6525 356.085 13.1214 356.251 13.5291C356.42 13.9335 356.669 14.2517 356.997 14.4837C357.328 14.7124 357.739 14.8267 358.23 14.8267ZM371.056 8.36364V9.35795H366.94V8.36364H371.056ZM368.173 16V7.30966C368.173 6.87216 368.276 6.50758 368.481 6.21591C368.687 5.92424 368.953 5.70549 369.282 5.55966C369.61 5.41383 369.956 5.34091 370.321 5.34091C370.609 5.34091 370.844 5.36411 371.027 5.41051C371.209 5.45691 371.345 5.5 371.434 5.53977L371.096 6.55398C371.037 6.53409 370.954 6.50923 370.848 6.4794C370.745 6.44957 370.609 6.43466 370.44 6.43466C370.052 6.43466 369.772 6.53243 369.6 6.72798C369.431 6.92353 369.346 7.21023 369.346 7.58807V16H368.173ZM374.729 16.179C374.245 16.179 373.806 16.0878 373.412 15.9055C373.017 15.7199 372.704 15.4531 372.472 15.1051C372.24 14.7538 372.124 14.3295 372.124 13.8324C372.124 13.3949 372.21 13.0402 372.383 12.7685C372.555 12.4934 372.785 12.2779 373.074 12.1222C373.362 11.9664 373.68 11.8504 374.028 11.7741C374.38 11.6946 374.733 11.6316 375.087 11.5852C375.551 11.5256 375.927 11.4808 376.216 11.451C376.507 11.4179 376.72 11.3632 376.852 11.2869C376.988 11.2107 377.056 11.0781 377.056 10.8892V10.8494C377.056 10.3589 376.922 9.97775 376.653 9.70597C376.388 9.43419 375.985 9.2983 375.445 9.2983C374.885 9.2983 374.446 9.42093 374.128 9.66619C373.809 9.91146 373.586 10.1733 373.456 10.4517L372.343 10.054C372.542 9.58996 372.807 9.22869 373.138 8.97017C373.473 8.70833 373.838 8.52604 374.232 8.4233C374.63 8.31723 375.021 8.2642 375.405 8.2642C375.651 8.2642 375.932 8.29403 376.251 8.35369C376.572 8.41004 376.882 8.5277 377.18 8.70668C377.482 8.88565 377.732 9.15578 377.931 9.51705C378.13 9.87831 378.229 10.3622 378.229 10.9688V16H377.056V14.9659H376.996C376.917 15.1316 376.784 15.3089 376.599 15.4979C376.413 15.6868 376.166 15.8475 375.858 15.9801C375.55 16.1127 375.173 16.179 374.729 16.179ZM374.908 15.125C375.372 15.125 375.763 15.0339 376.081 14.8516C376.403 14.6693 376.645 14.4339 376.807 14.1456C376.973 13.8572 377.056 13.554 377.056 13.2358V12.1619C377.006 12.2216 376.897 12.2763 376.728 12.326C376.562 12.3724 376.37 12.4138 376.151 12.4503C375.936 12.4834 375.725 12.5133 375.52 12.5398C375.318 12.563 375.153 12.5829 375.028 12.5994C374.723 12.6392 374.438 12.7038 374.172 12.7933C373.911 12.8795 373.698 13.0104 373.536 13.1861C373.377 13.3584 373.297 13.5937 373.297 13.892C373.297 14.2997 373.448 14.608 373.75 14.8168C374.055 15.0223 374.441 15.125 374.908 15.125ZM380.371 16V8.36364H381.544V16H380.371ZM380.967 7.09091C380.739 7.09091 380.541 7.01302 380.376 6.85724C380.213 6.70147 380.132 6.5142 380.132 6.29545C380.132 6.0767 380.213 5.88944 380.376 5.73366C380.541 5.57789 380.739 5.5 380.967 5.5C381.196 5.5 381.392 5.57789 381.554 5.73366C381.72 5.88944 381.803 6.0767 381.803 6.29545C381.803 6.5142 381.72 6.70147 381.554 6.85724C381.392 7.01302 381.196 7.09091 380.967 7.09091ZM384.866 5.81818V16H383.693V5.81818H384.866ZM391.828 12.8778V8.36364H393.001V16H391.828V14.7074H391.748C391.569 15.0952 391.291 15.425 390.913 15.6967C390.535 15.9652 390.058 16.0994 389.481 16.0994C389.004 16.0994 388.58 15.995 388.208 15.7862C387.837 15.5741 387.546 15.2559 387.333 14.8317C387.121 14.4041 387.015 13.8655 387.015 13.2159V8.36364H388.189V13.1364C388.189 13.6932 388.344 14.1373 388.656 14.4688C388.971 14.8002 389.372 14.9659 389.859 14.9659C390.151 14.9659 390.447 14.8913 390.749 14.7422C391.054 14.593 391.309 14.3643 391.515 14.0561C391.723 13.7479 391.828 13.3551 391.828 12.8778ZM395.15 16V8.36364H396.284V9.51705H396.363C396.502 9.1392 396.754 8.83262 397.119 8.5973C397.483 8.36198 397.894 8.24432 398.352 8.24432C398.438 8.24432 398.546 8.24597 398.675 8.24929C398.804 8.2526 398.902 8.25758 398.968 8.2642V9.45739C398.928 9.44744 398.837 9.43253 398.695 9.41264C398.556 9.38944 398.408 9.37784 398.252 9.37784C397.881 9.37784 397.55 9.45573 397.258 9.61151C396.97 9.76397 396.741 9.97609 396.572 10.2479C396.406 10.5163 396.323 10.8229 396.323 11.1676V16H395.15ZM403.328 16.1591C402.593 16.1591 401.958 15.9967 401.424 15.6719C400.894 15.3438 400.485 14.8864 400.196 14.2997C399.911 13.7098 399.769 13.0237 399.769 12.2415C399.769 11.4593 399.911 10.7699 400.196 10.1733C400.485 9.57339 400.886 9.10606 401.399 8.77131C401.916 8.43324 402.52 8.2642 403.209 8.2642C403.607 8.2642 403.999 8.33049 404.387 8.46307C404.775 8.59564 405.128 8.81108 405.446 9.10938C405.764 9.40436 406.018 9.79545 406.207 10.2827C406.396 10.7699 406.49 11.3698 406.49 12.0824V12.5795H400.604V11.5653H405.297C405.297 11.1345 405.211 10.75 405.039 10.4119C404.869 10.0739 404.628 9.80705 404.313 9.61151C404.001 9.41596 403.633 9.31818 403.209 9.31818C402.742 9.31818 402.337 9.43419 401.996 9.66619C401.658 9.89489 401.398 10.1932 401.215 10.5611C401.033 10.929 400.942 11.3234 400.942 11.7443V12.4205C400.942 12.9972 401.041 13.486 401.24 13.8871C401.442 14.2848 401.722 14.5881 402.08 14.7969C402.438 15.0024 402.854 15.1051 403.328 15.1051C403.637 15.1051 403.915 15.062 404.164 14.9759C404.415 14.8864 404.633 14.7538 404.815 14.5781C404.997 14.3991 405.138 14.1771 405.237 13.9119L406.371 14.2301C406.252 14.6146 406.051 14.9527 405.769 15.2443C405.488 15.5327 405.14 15.758 404.725 15.9205C404.311 16.0795 403.845 16.1591 403.328 16.1591Z" fill="#404040"/>
<path d="M192 22L436 22" stroke="#999999"/>
<path d="M253.775 28.9119V27.8182H261.411V28.9119H258.209V38H256.976V28.9119H253.775ZM265.15 38.1591C264.46 38.1591 263.855 37.995 263.335 37.6669C262.818 37.3388 262.414 36.8797 262.122 36.2898C261.834 35.6998 261.69 35.0104 261.69 34.2216C261.69 33.4261 261.834 32.7318 262.122 32.1385C262.414 31.5452 262.818 31.0845 263.335 30.7564C263.855 30.4283 264.46 30.2642 265.15 30.2642C265.839 30.2642 266.442 30.4283 266.959 30.7564C267.48 31.0845 267.884 31.5452 268.172 32.1385C268.464 32.7318 268.61 33.4261 268.61 34.2216C268.61 35.0104 268.464 35.6998 268.172 36.2898C267.884 36.8797 267.48 37.3388 266.959 37.6669C266.442 37.995 265.839 38.1591 265.15 38.1591ZM265.15 37.1051C265.673 37.1051 266.104 36.9709 266.442 36.7024C266.78 36.4339 267.031 36.081 267.193 35.6435C267.355 35.206 267.437 34.732 267.437 34.2216C267.437 33.7112 267.355 33.2356 267.193 32.7947C267.031 32.3539 266.78 31.9976 266.442 31.7259C266.104 31.4541 265.673 31.3182 265.15 31.3182C264.626 31.3182 264.195 31.4541 263.857 31.7259C263.519 31.9976 263.269 32.3539 263.106 32.7947C262.944 33.2356 262.863 33.7112 262.863 34.2216C262.863 34.732 262.944 35.206 263.106 35.6435C263.269 36.081 263.519 36.4339 263.857 36.7024C264.195 36.9709 264.626 37.1051 265.15 37.1051ZM273.722 30.3636V31.358H269.765V30.3636H273.722ZM270.918 28.5341H272.091V35.8125C272.091 36.1439 272.139 36.3925 272.236 36.5582C272.335 36.7206 272.461 36.83 272.613 36.8864C272.769 36.9394 272.933 36.9659 273.106 36.9659C273.235 36.9659 273.341 36.9593 273.424 36.946C273.507 36.9295 273.573 36.9162 273.623 36.9062L273.861 37.9602C273.782 37.9901 273.671 38.0199 273.528 38.0497C273.386 38.0829 273.205 38.0994 272.986 38.0994C272.655 38.0994 272.33 38.0282 272.012 37.8857C271.697 37.7431 271.435 37.526 271.226 37.2344C271.021 36.9427 270.918 36.5748 270.918 36.1307V28.5341ZM277.734 38.179C277.25 38.179 276.811 38.0878 276.417 37.9055C276.022 37.7199 275.709 37.4531 275.477 37.1051C275.245 36.7538 275.129 36.3295 275.129 35.8324C275.129 35.3949 275.215 35.0402 275.388 34.7685C275.56 34.4934 275.79 34.2779 276.079 34.1222C276.367 33.9664 276.685 33.8504 277.033 33.7741C277.384 33.6946 277.737 33.6316 278.092 33.5852C278.556 33.5256 278.932 33.4808 279.221 33.451C279.512 33.4179 279.724 33.3632 279.857 33.2869C279.993 33.2107 280.061 33.0781 280.061 32.8892V32.8494C280.061 32.3589 279.927 31.9777 279.658 31.706C279.393 31.4342 278.99 31.2983 278.45 31.2983C277.89 31.2983 277.451 31.4209 277.133 31.6662C276.814 31.9115 276.591 32.1733 276.461 32.4517L275.348 32.054C275.547 31.59 275.812 31.2287 276.143 30.9702C276.478 30.7083 276.843 30.526 277.237 30.4233C277.635 30.3172 278.026 30.2642 278.41 30.2642C278.656 30.2642 278.937 30.294 279.255 30.3537C279.577 30.41 279.887 30.5277 280.185 30.7067C280.487 30.8857 280.737 31.1558 280.936 31.517C281.135 31.8783 281.234 32.3622 281.234 32.9688V38H280.061V36.9659H280.001C279.922 37.1316 279.789 37.3089 279.603 37.4979C279.418 37.6868 279.171 37.8475 278.863 37.9801C278.554 38.1127 278.178 38.179 277.734 38.179ZM277.913 37.125C278.377 37.125 278.768 37.0339 279.086 36.8516C279.408 36.6693 279.65 36.4339 279.812 36.1456C279.978 35.8572 280.061 35.554 280.061 35.2358V34.1619C280.011 34.2216 279.902 34.2763 279.733 34.326C279.567 34.3724 279.375 34.4138 279.156 34.4503C278.941 34.4834 278.73 34.5133 278.525 34.5398C278.322 34.563 278.158 34.5829 278.032 34.5994C277.727 34.6392 277.442 34.7038 277.177 34.7933C276.915 34.8795 276.703 35.0104 276.541 35.1861C276.382 35.3584 276.302 35.5937 276.302 35.892C276.302 36.2997 276.453 36.608 276.755 36.8168C277.06 37.0223 277.446 37.125 277.913 37.125ZM284.549 27.8182V38H283.376V27.8182H284.549ZM293.519 38.1591C292.883 38.1591 292.321 37.9983 291.834 37.6768C291.346 37.352 290.965 36.8946 290.69 36.3047C290.415 35.7114 290.277 35.0104 290.277 34.2017C290.277 33.3996 290.415 32.7036 290.69 32.1136C290.965 31.5237 291.348 31.0679 291.839 30.7464C292.329 30.425 292.896 30.2642 293.539 30.2642C294.036 30.2642 294.429 30.3471 294.717 30.5128C295.009 30.6752 295.231 30.8608 295.383 31.0696C295.539 31.2751 295.66 31.4441 295.746 31.5767H295.846V27.8182H297.019V38H295.885V36.8267H295.746C295.66 36.9659 295.537 37.1416 295.378 37.3537C295.219 37.5625 294.992 37.7498 294.697 37.9155C294.402 38.0779 294.009 38.1591 293.519 38.1591ZM293.678 37.1051C294.149 37.1051 294.546 36.9825 294.871 36.7372C295.196 36.4886 295.443 36.1456 295.612 35.7081C295.781 35.2673 295.866 34.7585 295.866 34.1818C295.866 33.6117 295.783 33.1129 295.617 32.6854C295.451 32.2545 295.206 31.9197 294.881 31.6811C294.556 31.4392 294.155 31.3182 293.678 31.3182C293.181 31.3182 292.767 31.4458 292.435 31.701C292.107 31.9529 291.86 32.2959 291.694 32.7301C291.532 33.161 291.451 33.6449 291.451 34.1818C291.451 34.7254 291.534 35.2192 291.699 35.6634C291.868 36.1042 292.117 36.4555 292.445 36.7173C292.776 36.9759 293.187 37.1051 293.678 37.1051ZM302.532 38.1591C301.797 38.1591 301.162 37.9967 300.628 37.6719C300.098 37.3438 299.689 36.8864 299.4 36.2997C299.115 35.7098 298.973 35.0237 298.973 34.2415C298.973 33.4593 299.115 32.7699 299.4 32.1733C299.689 31.5734 300.09 31.1061 300.603 30.7713C301.12 30.4332 301.724 30.2642 302.413 30.2642C302.811 30.2642 303.204 30.3305 303.591 30.4631C303.979 30.5956 304.332 30.8111 304.65 31.1094C304.968 31.4044 305.222 31.7955 305.411 32.2827C305.6 32.7699 305.694 33.3698 305.694 34.0824V34.5795H299.808V33.5653H304.501C304.501 33.1345 304.415 32.75 304.243 32.4119C304.074 32.0739 303.832 31.8071 303.517 31.6115C303.205 31.416 302.837 31.3182 302.413 31.3182C301.946 31.3182 301.541 31.4342 301.2 31.6662C300.862 31.8949 300.602 32.1932 300.419 32.5611C300.237 32.929 300.146 33.3234 300.146 33.7443V34.4205C300.146 34.9972 300.245 35.486 300.444 35.8871C300.647 36.2848 300.927 36.5881 301.285 36.7969C301.642 37.0024 302.058 37.1051 302.532 37.1051C302.841 37.1051 303.119 37.062 303.368 36.9759C303.62 36.8864 303.837 36.7538 304.019 36.5781C304.201 36.3991 304.342 36.1771 304.441 35.9119L305.575 36.2301C305.456 36.6146 305.255 36.9527 304.973 37.2443C304.692 37.5327 304.344 37.758 303.929 37.9205C303.515 38.0795 303.049 38.1591 302.532 38.1591ZM307.479 40.8636V30.3636H308.613V31.5767H308.752C308.838 31.4441 308.957 31.2751 309.11 31.0696C309.266 30.8608 309.488 30.6752 309.776 30.5128C310.068 30.3471 310.462 30.2642 310.959 30.2642C311.602 30.2642 312.169 30.425 312.66 30.7464C313.15 31.0679 313.533 31.5237 313.808 32.1136C314.083 32.7036 314.221 33.3996 314.221 34.2017C314.221 35.0104 314.083 35.7114 313.808 36.3047C313.533 36.8946 313.152 37.352 312.665 37.6768C312.177 37.9983 311.616 38.1591 310.979 38.1591C310.489 38.1591 310.096 38.0779 309.801 37.9155C309.506 37.7498 309.279 37.5625 309.12 37.3537C308.961 37.1416 308.838 36.9659 308.752 36.8267H308.652V40.8636H307.479ZM308.633 34.1818C308.633 34.7585 308.717 35.2673 308.886 35.7081C309.055 36.1456 309.302 36.4886 309.627 36.7372C309.952 36.9825 310.349 37.1051 310.82 37.1051C311.311 37.1051 311.72 36.9759 312.048 36.7173C312.379 36.4555 312.628 36.1042 312.794 35.6634C312.963 35.2192 313.047 34.7254 313.047 34.1818C313.047 33.6449 312.964 33.161 312.799 32.7301C312.636 32.2959 312.389 31.9529 312.058 31.701C311.73 31.4458 311.317 31.3182 310.82 31.3182C310.343 31.3182 309.942 31.4392 309.617 31.6811C309.292 31.9197 309.047 32.2545 308.881 32.6854C308.715 33.1129 308.633 33.6117 308.633 34.1818ZM317.184 27.8182V38H316.01V27.8182H317.184ZM322.435 38.1591C321.746 38.1591 321.141 37.995 320.62 37.6669C320.103 37.3388 319.699 36.8797 319.407 36.2898C319.119 35.6998 318.975 35.0104 318.975 34.2216C318.975 33.4261 319.119 32.7318 319.407 32.1385C319.699 31.5452 320.103 31.0845 320.62 30.7564C321.141 30.4283 321.746 30.2642 322.435 30.2642C323.124 30.2642 323.728 30.4283 324.245 30.7564C324.765 31.0845 325.169 31.5452 325.458 32.1385C325.749 32.7318 325.895 33.4261 325.895 34.2216C325.895 35.0104 325.749 35.6998 325.458 36.2898C325.169 36.8797 324.765 37.3388 324.245 37.6669C323.728 37.995 323.124 38.1591 322.435 38.1591ZM322.435 37.1051C322.959 37.1051 323.389 36.9709 323.728 36.7024C324.066 36.4339 324.316 36.081 324.478 35.6435C324.641 35.206 324.722 34.732 324.722 34.2216C324.722 33.7112 324.641 33.2356 324.478 32.7947C324.316 32.3539 324.066 31.9976 323.728 31.7259C323.389 31.4541 322.959 31.3182 322.435 31.3182C321.911 31.3182 321.48 31.4541 321.142 31.7259C320.804 31.9976 320.554 32.3539 320.392 32.7947C320.229 33.2356 320.148 33.7112 320.148 34.2216C320.148 34.732 320.229 35.206 320.392 35.6435C320.554 36.081 320.804 36.4339 321.142 36.7024C321.48 36.9709 321.911 37.1051 322.435 37.1051ZM328.168 40.8636C327.97 40.8636 327.792 40.8471 327.636 40.8139C327.481 40.7841 327.373 40.7543 327.313 40.7244L327.612 39.6903C327.897 39.7633 328.149 39.7898 328.367 39.7699C328.586 39.75 328.78 39.6522 328.949 39.4766C329.121 39.3042 329.279 39.0241 329.421 38.6364L329.64 38.0398L326.816 30.3636H328.089L330.197 36.4489H330.276L332.384 30.3636H333.657L330.416 39.1136C330.27 39.508 330.089 39.8345 329.874 40.093C329.658 40.3549 329.408 40.5488 329.123 40.6747C328.841 40.8007 328.523 40.8636 328.168 40.8636ZM335.206 38V30.3636H336.339V31.5568H336.439C336.598 31.1491 336.855 30.8326 337.209 30.6072C337.564 30.3786 337.99 30.2642 338.487 30.2642C338.991 30.2642 339.41 30.3786 339.745 30.6072C340.083 30.8326 340.346 31.1491 340.535 31.5568H340.615C340.81 31.1624 341.104 30.8492 341.495 30.6172C341.886 30.3819 342.355 30.2642 342.902 30.2642C343.584 30.2642 344.143 30.478 344.577 30.9055C345.011 31.3298 345.228 31.991 345.228 32.8892V38H344.055V32.8892C344.055 32.3258 343.901 31.9231 343.593 31.6811C343.285 31.4392 342.922 31.3182 342.504 31.3182C341.967 31.3182 341.551 31.4806 341.256 31.8054C340.961 32.1269 340.814 32.5346 340.814 33.0284V38H339.62V32.7699C339.62 32.3357 339.48 31.986 339.198 31.7209C338.916 31.4524 338.553 31.3182 338.109 31.3182C337.804 31.3182 337.519 31.3994 337.254 31.5618C336.992 31.7242 336.78 31.9496 336.618 32.2379C336.459 32.523 336.379 32.8527 336.379 33.2273V38H335.206ZM350.575 38.1591C349.84 38.1591 349.205 37.9967 348.671 37.6719C348.141 37.3438 347.732 36.8864 347.443 36.2997C347.158 35.7098 347.016 35.0237 347.016 34.2415C347.016 33.4593 347.158 32.7699 347.443 32.1733C347.732 31.5734 348.133 31.1061 348.646 30.7713C349.163 30.4332 349.767 30.2642 350.456 30.2642C350.854 30.2642 351.247 30.3305 351.634 30.4631C352.022 30.5956 352.375 30.8111 352.693 31.1094C353.011 31.4044 353.265 31.7955 353.454 32.2827C353.643 32.7699 353.737 33.3698 353.737 34.0824V34.5795H347.851V33.5653H352.544C352.544 33.1345 352.458 32.75 352.286 32.4119C352.117 32.0739 351.875 31.8071 351.56 31.6115C351.248 31.416 350.88 31.3182 350.456 31.3182C349.989 31.3182 349.584 31.4342 349.243 31.6662C348.905 31.8949 348.645 32.1932 348.462 32.5611C348.28 32.929 348.189 33.3234 348.189 33.7443V34.4205C348.189 34.9972 348.288 35.486 348.487 35.8871C348.689 36.2848 348.97 36.5881 349.328 36.7969C349.685 37.0024 350.101 37.1051 350.575 37.1051C350.884 37.1051 351.162 37.062 351.411 36.9759C351.662 36.8864 351.88 36.7538 352.062 36.5781C352.244 36.3991 352.385 36.1771 352.484 35.9119L353.618 36.2301C353.499 36.6146 353.298 36.9527 353.016 37.2443C352.735 37.5327 352.387 37.758 351.972 37.9205C351.558 38.0795 351.092 38.1591 350.575 38.1591ZM356.695 33.4062V38H355.522V30.3636H356.656V31.5568H356.755C356.934 31.169 357.206 30.8575 357.57 30.6222C357.935 30.3835 358.406 30.2642 358.982 30.2642C359.499 30.2642 359.952 30.3703 360.34 30.5824C360.727 30.7912 361.029 31.1094 361.244 31.5369C361.46 31.9612 361.568 32.4981 361.568 33.1477V38H360.394V33.2273C360.394 32.6274 360.238 32.16 359.927 31.8253C359.615 31.4872 359.188 31.3182 358.644 31.3182C358.27 31.3182 357.935 31.3994 357.64 31.5618C357.348 31.7242 357.118 31.9612 356.949 32.2727C356.78 32.5843 356.695 32.9621 356.695 33.4062ZM367.033 30.3636V31.358H363.075V30.3636H367.033ZM364.229 28.5341H365.402V35.8125C365.402 36.1439 365.45 36.3925 365.546 36.5582C365.646 36.7206 365.771 36.83 365.924 36.8864C366.08 36.9394 366.244 36.9659 366.416 36.9659C366.545 36.9659 366.651 36.9593 366.734 36.946C366.817 36.9295 366.883 36.9162 366.933 36.9062L367.172 37.9602C367.092 37.9901 366.981 38.0199 366.839 38.0497C366.696 38.0829 366.516 38.0994 366.297 38.0994C365.965 38.0994 365.641 38.0282 365.322 37.8857C365.007 37.7431 364.746 37.526 364.537 37.2344C364.331 36.9427 364.229 36.5748 364.229 36.1307V28.5341ZM374.07 32.0739L373.016 32.3722C372.95 32.1965 372.852 32.0258 372.723 31.8601C372.597 31.6911 372.424 31.5518 372.206 31.4425C371.987 31.3331 371.707 31.2784 371.365 31.2784C370.898 31.2784 370.509 31.3861 370.197 31.6016C369.889 31.8137 369.735 32.0838 369.735 32.4119C369.735 32.7036 369.841 32.9339 370.053 33.103C370.265 33.272 370.596 33.4129 371.047 33.5256L372.181 33.804C372.863 33.9697 373.372 34.2232 373.707 34.5646C374.042 34.9027 374.209 35.3385 374.209 35.8722C374.209 36.3097 374.083 36.7008 373.831 37.0455C373.583 37.3902 373.235 37.6619 372.787 37.8608C372.34 38.0597 371.819 38.1591 371.226 38.1591C370.447 38.1591 369.803 37.9901 369.292 37.652C368.782 37.3139 368.459 36.8201 368.323 36.1705L369.436 35.892C369.542 36.303 369.743 36.6113 370.038 36.8168C370.336 37.0223 370.726 37.125 371.206 37.125C371.753 37.125 372.187 37.009 372.509 36.777C372.834 36.5417 372.996 36.2599 372.996 35.9318C372.996 35.6667 372.903 35.4446 372.718 35.2656C372.532 35.0833 372.247 34.9474 371.862 34.858L370.59 34.5597C369.89 34.3939 369.377 34.1371 369.049 33.7891C368.724 33.4377 368.561 32.9986 368.561 32.4716C368.561 32.0407 368.682 31.6596 368.924 31.3281C369.17 30.9967 369.503 30.7365 369.924 30.5476C370.348 30.3587 370.828 30.2642 371.365 30.2642C372.121 30.2642 372.714 30.4299 373.145 30.7614C373.579 31.0928 373.888 31.5303 374.07 32.0739Z" fill="#404040"/>
<defs>
<clipPath id="clip0_29_62535">
<rect width="20" height="20" fill="white" transform="translate(0 12)"/>
</clipPath>
</defs>
</svg>
