<svg width="575" height="22" viewBox="0 0 575 22" fill="none" xmlns="http://www.w3.org/2000/svg">
<g clip-path="url(#clip0_41_65566)">
<path d="M10.0003 19.3337C14.6027 19.3337 18.3337 15.6027 18.3337 11.0003C18.3337 6.39795 14.6027 2.66699 10.0003 2.66699C5.39795 2.66699 1.66699 6.39795 1.66699 11.0003C1.66699 15.6027 5.39795 19.3337 10.0003 19.3337Z" stroke="#448FF7" stroke-width="2" stroke-linecap="round" stroke-linejoin="round"/>
<path d="M10 14.3333V11" stroke="#448FF7" stroke-width="2" stroke-linecap="round" stroke-linejoin="round"/>
<path d="M10 7.66699H10.0083" stroke="#448FF7" stroke-width="2" stroke-linecap="round" stroke-linejoin="round"/>
</g>
<path d="M37.5753 9.12926H36.0241C35.9645 8.79782 35.8535 8.50615 35.6911 8.25426C35.5286 8.00237 35.3298 7.78859 35.0945 7.61293C34.8591 7.43726 34.5956 7.30469 34.304 7.2152C34.0156 7.12571 33.709 7.08097 33.3842 7.08097C32.7976 7.08097 32.2723 7.22846 31.8082 7.52344C31.3475 7.81842 30.983 8.25095 30.7145 8.82102C30.4493 9.3911 30.3168 10.0871 30.3168 10.9091C30.3168 11.7377 30.4493 12.437 30.7145 13.0071C30.983 13.5772 31.3492 14.008 31.8132 14.2997C32.2772 14.5914 32.7992 14.7372 33.3793 14.7372C33.7008 14.7372 34.0057 14.6941 34.294 14.608C34.5857 14.5185 34.8492 14.3875 35.0845 14.2152C35.3198 14.0429 35.5187 13.8324 35.6811 13.5838C35.8468 13.3319 35.9612 13.0436 36.0241 12.7188L37.5753 12.7237C37.4924 13.2242 37.3317 13.6849 37.093 14.1058C36.8577 14.5234 36.5545 14.8847 36.1832 15.1896C35.8153 15.4912 35.3944 15.7249 34.9205 15.8906C34.4465 16.0563 33.9295 16.1392 33.3693 16.1392C32.4877 16.1392 31.7022 15.9304 31.0128 15.5128C30.3234 15.0919 29.7798 14.4903 29.3821 13.7081C28.9877 12.9259 28.7905 11.9929 28.7905 10.9091C28.7905 9.82197 28.9893 8.88897 29.3871 8.11008C29.7848 7.32789 30.3284 6.72798 31.0178 6.31037C31.7071 5.88944 32.491 5.67898 33.3693 5.67898C33.9096 5.67898 34.4134 5.75687 34.8807 5.91264C35.3513 6.0651 35.7739 6.29048 36.1484 6.58878C36.523 6.88376 36.8329 7.24503 37.0781 7.67258C37.3234 8.09683 37.4891 8.58239 37.5753 9.12926ZM40.7807 11.4659V16H39.2942V5.81818H40.7608V9.60653H40.8553C41.0343 9.19555 41.3077 8.86908 41.6756 8.62713C42.0435 8.38518 42.5241 8.2642 43.1174 8.2642C43.641 8.2642 44.0984 8.37192 44.4895 8.58736C44.8839 8.80279 45.1889 9.12429 45.4043 9.55185C45.623 9.97609 45.7324 10.5064 45.7324 11.1428V16H44.2459V11.3217C44.2459 10.7616 44.1017 10.3274 43.8134 10.0192C43.525 9.70762 43.124 9.55185 42.6103 9.55185C42.2589 9.55185 41.9441 9.62642 41.6657 9.77557C41.3906 9.92472 41.1735 10.1435 41.0144 10.4318C40.8586 10.7169 40.7807 11.0616 40.7807 11.4659ZM49.9384 16.169C49.4545 16.169 49.017 16.0795 48.6259 15.9006C48.2348 15.7183 47.9249 15.4548 47.6962 15.1101C47.4708 14.7654 47.3581 14.3428 47.3581 13.8423C47.3581 13.4115 47.441 13.0568 47.6067 12.7784C47.7724 12.5 47.9962 12.2796 48.2779 12.1172C48.5596 11.9548 48.8745 11.8321 49.2225 11.7493C49.5705 11.6664 49.9251 11.6035 50.2864 11.5604C50.7438 11.5073 51.115 11.4643 51.4 11.4311C51.6851 11.3946 51.8922 11.3366 52.0215 11.2571C52.1507 11.1776 52.2154 11.0483 52.2154 10.8693V10.8345C52.2154 10.4003 52.0927 10.0639 51.8475 9.82528C51.6055 9.58665 51.2443 9.46733 50.7637 9.46733C50.2632 9.46733 49.8688 9.57836 49.5804 9.80043C49.2954 10.0192 49.0982 10.2628 48.9888 10.5312L47.5918 10.2131C47.7575 9.74905 47.9995 9.37453 48.3176 9.08949C48.6391 8.80114 49.0087 8.59233 49.4263 8.46307C49.8439 8.33049 50.2831 8.2642 50.7438 8.2642C51.0487 8.2642 51.3719 8.30066 51.7132 8.37358C52.0579 8.44318 52.3794 8.57244 52.6777 8.76136C52.9793 8.95028 53.2263 9.22041 53.4185 9.57173C53.6107 9.91974 53.7069 10.3722 53.7069 10.929V16H52.2551V14.956H52.1955C52.0994 15.1482 51.9552 15.3371 51.763 15.5227C51.5707 15.7083 51.3238 15.8625 51.0222 15.9851C50.7206 16.1077 50.3593 16.169 49.9384 16.169ZM50.2615 14.9759C50.6725 14.9759 51.0239 14.8946 51.3155 14.7322C51.6105 14.5698 51.8342 14.3577 51.9867 14.0959C52.1425 13.8307 52.2203 13.5473 52.2203 13.2457V12.2614C52.1673 12.3144 52.0646 12.3641 51.9121 12.4105C51.763 12.4536 51.5923 12.4917 51.4 12.5249C51.2078 12.5547 51.0205 12.5829 50.8382 12.6094C50.656 12.6326 50.5035 12.6525 50.3809 12.669C50.0925 12.7055 49.829 12.7668 49.5904 12.853C49.3551 12.9392 49.1661 13.0634 49.0236 13.2259C48.8844 13.3849 48.8148 13.5971 48.8148 13.8622C48.8148 14.2301 48.9507 14.5085 49.2225 14.6974C49.4943 14.883 49.8406 14.9759 50.2615 14.9759ZM57.1733 11.4659V16H55.6868V8.36364H57.1136V9.60653H57.2081C57.3838 9.20218 57.6589 8.87737 58.0334 8.6321C58.4112 8.38684 58.8868 8.2642 59.4602 8.2642C59.9806 8.2642 60.4363 8.37358 60.8274 8.59233C61.2185 8.80777 61.5218 9.12926 61.7372 9.55682C61.9527 9.98437 62.0604 10.513 62.0604 11.1428V16H60.5739V11.3217C60.5739 10.7682 60.4297 10.3357 60.1413 10.0241C59.853 9.70928 59.4569 9.55185 58.9531 9.55185C58.6084 9.55185 58.3018 9.62642 58.0334 9.77557C57.7682 9.92472 57.5578 10.1435 57.402 10.4318C57.2495 10.7169 57.1733 11.0616 57.1733 11.4659ZM67.2557 19.0227C66.6491 19.0227 66.1271 18.9432 65.6896 18.7841C65.2554 18.625 64.9008 18.4145 64.6257 18.1527C64.3506 17.8909 64.1451 17.6042 64.0092 17.2926L65.2869 16.7656C65.3764 16.9115 65.4957 17.0656 65.6449 17.228C65.7973 17.3937 66.0028 17.5346 66.2614 17.6506C66.5232 17.7666 66.8596 17.8246 67.2706 17.8246C67.834 17.8246 68.2997 17.687 68.6676 17.4119C69.0355 17.1402 69.2195 16.706 69.2195 16.1094V14.608H69.125C69.0355 14.7704 68.9063 14.951 68.7372 15.1499C68.5715 15.3487 68.3428 15.5211 68.0511 15.6669C67.7595 15.8127 67.38 15.8857 66.9126 15.8857C66.3094 15.8857 65.7659 15.7448 65.282 15.4631C64.8014 15.178 64.4202 14.7588 64.1385 14.2053C63.8601 13.6484 63.7209 12.964 63.7209 12.152C63.7209 11.34 63.8584 10.6439 64.1335 10.0639C64.4119 9.4839 64.7931 9.03977 65.277 8.73153C65.7609 8.41998 66.3094 8.2642 66.9226 8.2642C67.3965 8.2642 67.7794 8.34375 68.071 8.50284C68.3627 8.65862 68.5897 8.84091 68.7521 9.04972C68.9179 9.25852 69.0455 9.44247 69.1349 9.60156H69.2443V8.36364H70.701V16.169C70.701 16.8253 70.5485 17.3639 70.2436 17.7848C69.9387 18.2057 69.526 18.5173 69.0057 18.7195C68.4886 18.9216 67.9053 19.0227 67.2557 19.0227ZM67.2408 14.6527C67.6683 14.6527 68.0296 14.5533 68.3246 14.3544C68.6229 14.1522 68.8482 13.8639 69.0007 13.4893C69.1565 13.1115 69.2344 12.6591 69.2344 12.1321C69.2344 11.6184 69.1581 11.166 69.0057 10.7749C68.8532 10.3838 68.6295 10.0788 68.3345 9.86009C68.0395 9.63802 67.675 9.52699 67.2408 9.52699C66.7933 9.52699 66.4205 9.64299 66.1222 9.875C65.8239 10.1037 65.5985 10.4152 65.446 10.8097C65.2969 11.2041 65.2223 11.6449 65.2223 12.1321C65.2223 12.6326 65.2985 13.0717 65.451 13.4496C65.6035 13.8274 65.8288 14.1224 66.1271 14.3345C66.4287 14.5466 66.8 14.6527 67.2408 14.6527ZM75.9858 16.1541C75.2334 16.1541 74.5855 15.9934 74.0419 15.6719C73.5017 15.3471 73.084 14.8913 72.7891 14.3047C72.4974 13.7147 72.3516 13.0237 72.3516 12.2315C72.3516 11.4493 72.4974 10.7599 72.7891 10.1634C73.084 9.56676 73.495 9.10109 74.022 8.76633C74.5523 8.43158 75.1721 8.2642 75.8814 8.2642C76.3123 8.2642 76.7299 8.33546 77.1342 8.47798C77.5386 8.6205 77.9015 8.84422 78.223 9.14915C78.5445 9.45407 78.7981 9.85014 78.9837 10.3374C79.1693 10.8213 79.2621 11.4096 79.2621 12.1023V12.6293H73.1918V11.5156H77.8054C77.8054 11.1245 77.7259 10.7782 77.5668 10.4766C77.4077 10.1716 77.1839 9.93134 76.8956 9.75568C76.6106 9.58002 76.2758 9.49219 75.8913 9.49219C75.4737 9.49219 75.1091 9.59493 74.7976 9.80043C74.4893 10.0026 74.2507 10.2678 74.0817 10.5959C73.916 10.9207 73.8331 11.2737 73.8331 11.6548V12.5249C73.8331 13.0353 73.9226 13.4695 74.1016 13.8274C74.2839 14.1854 74.5374 14.4588 74.8622 14.6477C75.187 14.8333 75.5665 14.9261 76.0007 14.9261C76.2824 14.9261 76.5393 14.8864 76.7713 14.8068C77.0033 14.724 77.2038 14.6013 77.3729 14.4389C77.5419 14.2765 77.6712 14.076 77.7607 13.8374L79.1676 14.0909C79.0549 14.5052 78.8527 14.8681 78.5611 15.1797C78.2727 15.4879 77.9098 15.7282 77.4723 15.9006C77.0381 16.0696 76.5426 16.1541 75.9858 16.1541ZM88.2507 8.36364V9.55682H83.9354V8.36364H88.2507ZM85.1186 16V7.47869C85.1186 7.00142 85.223 6.60535 85.4318 6.29048C85.6406 5.9723 85.9174 5.73532 86.2621 5.57955C86.6068 5.42045 86.9813 5.34091 87.3857 5.34091C87.6839 5.34091 87.9392 5.36577 88.1513 5.41548C88.3634 5.46188 88.5208 5.50497 88.6236 5.54474L88.2756 6.74787C88.206 6.72798 88.1165 6.70478 88.0071 6.67827C87.8977 6.64844 87.7652 6.63352 87.6094 6.63352C87.2481 6.63352 86.9896 6.72301 86.8338 6.90199C86.6813 7.08097 86.6051 7.33949 86.6051 7.67756V16H85.1186ZM91.7743 16.169C91.2904 16.169 90.8529 16.0795 90.4618 15.9006C90.0707 15.7183 89.7608 15.4548 89.5321 15.1101C89.3068 14.7654 89.1941 14.3428 89.1941 13.8423C89.1941 13.4115 89.2769 13.0568 89.4426 12.7784C89.6084 12.5 89.8321 12.2796 90.1138 12.1172C90.3955 11.9548 90.7104 11.8321 91.0584 11.7493C91.4064 11.6664 91.7611 11.6035 92.1223 11.5604C92.5797 11.5073 92.9509 11.4643 93.236 11.4311C93.521 11.3946 93.7282 11.3366 93.8574 11.2571C93.9867 11.1776 94.0513 11.0483 94.0513 10.8693V10.8345C94.0513 10.4003 93.9287 10.0639 93.6834 9.82528C93.4415 9.58665 93.0802 9.46733 92.5996 9.46733C92.0991 9.46733 91.7047 9.57836 91.4164 9.80043C91.1313 10.0192 90.9341 10.2628 90.8248 10.5312L89.4277 10.2131C89.5935 9.74905 89.8354 9.37453 90.1536 9.08949C90.4751 8.80114 90.8446 8.59233 91.2623 8.46307C91.6799 8.33049 92.119 8.2642 92.5797 8.2642C92.8846 8.2642 93.2078 8.30066 93.5492 8.37358C93.8939 8.44318 94.2154 8.57244 94.5137 8.76136C94.8153 8.95028 95.0622 9.22041 95.2544 9.57173C95.4467 9.91974 95.5428 10.3722 95.5428 10.929V16H94.0911V14.956H94.0314C93.9353 15.1482 93.7911 15.3371 93.5989 15.5227C93.4067 15.7083 93.1597 15.8625 92.8581 15.9851C92.5565 16.1077 92.1953 16.169 91.7743 16.169ZM92.0975 14.9759C92.5085 14.9759 92.8598 14.8946 93.1515 14.7322C93.4464 14.5698 93.6702 14.3577 93.8226 14.0959C93.9784 13.8307 94.0563 13.5473 94.0563 13.2457V12.2614C94.0033 12.3144 93.9005 12.3641 93.748 12.4105C93.5989 12.4536 93.4282 12.4917 93.236 12.5249C93.0437 12.5547 92.8565 12.5829 92.6742 12.6094C92.4919 12.6326 92.3394 12.6525 92.2168 12.669C91.9284 12.7055 91.665 12.7668 91.4263 12.853C91.191 12.9392 91.0021 13.0634 90.8596 13.2259C90.7203 13.3849 90.6507 13.5971 90.6507 13.8622C90.6507 14.2301 90.7866 14.5085 91.0584 14.6974C91.3302 14.883 91.6766 14.9759 92.0975 14.9759ZM97.5227 16V8.36364H99.0092V16H97.5227ZM98.2734 7.18537C98.0149 7.18537 97.7929 7.09919 97.6072 6.92685C97.425 6.75118 97.3338 6.54238 97.3338 6.30043C97.3338 6.05516 97.425 5.84635 97.6072 5.67401C97.7929 5.49834 98.0149 5.41051 98.2734 5.41051C98.532 5.41051 98.7524 5.49834 98.9347 5.67401C99.1203 5.84635 99.2131 6.05516 99.2131 6.30043C99.2131 6.54238 99.1203 6.75118 98.9347 6.92685C98.7524 7.09919 98.532 7.18537 98.2734 7.18537ZM102.496 5.81818V16H101.009V5.81818H102.496ZM109.333 12.8331V8.36364H110.824V16H109.363V14.6776H109.283C109.107 15.0852 108.826 15.425 108.438 15.6967C108.053 15.9652 107.574 16.0994 107.001 16.0994C106.511 16.0994 106.076 15.9917 105.699 15.7763C105.324 15.5575 105.029 15.2344 104.814 14.8068C104.601 14.3793 104.495 13.8506 104.495 13.2209V8.36364H105.982V13.0419C105.982 13.5623 106.126 13.9766 106.414 14.2848C106.703 14.593 107.077 14.7472 107.538 14.7472C107.816 14.7472 108.093 14.6776 108.368 14.5384C108.647 14.3991 108.877 14.1887 109.059 13.907C109.245 13.6252 109.336 13.2673 109.333 12.8331ZM112.822 16V8.36364H114.258V9.5767H114.338C114.477 9.16572 114.722 8.84257 115.074 8.60724C115.428 8.36861 115.829 8.24929 116.277 8.24929C116.37 8.24929 116.479 8.2526 116.605 8.25923C116.734 8.26586 116.835 8.27415 116.908 8.28409V9.70597C116.849 9.68939 116.742 9.67116 116.59 9.65128C116.438 9.62808 116.285 9.61648 116.133 9.61648C115.781 9.61648 115.468 9.69105 115.193 9.8402C114.921 9.98603 114.706 10.1899 114.547 10.4517C114.388 10.7102 114.308 11.0052 114.308 11.3366V16H112.822ZM121.212 16.1541C120.46 16.1541 119.812 15.9934 119.268 15.6719C118.728 15.3471 118.311 14.8913 118.016 14.3047C117.724 13.7147 117.578 13.0237 117.578 12.2315C117.578 11.4493 117.724 10.7599 118.016 10.1634C118.311 9.56676 118.722 9.10109 119.249 8.76633C119.779 8.43158 120.399 8.2642 121.108 8.2642C121.539 8.2642 121.956 8.33546 122.361 8.47798C122.765 8.6205 123.128 8.84422 123.45 9.14915C123.771 9.45407 124.025 9.85014 124.21 10.3374C124.396 10.8213 124.489 11.4096 124.489 12.1023V12.6293H118.418V11.5156H123.032C123.032 11.1245 122.952 10.7782 122.793 10.4766C122.634 10.1716 122.411 9.93134 122.122 9.75568C121.837 9.58002 121.502 9.49219 121.118 9.49219C120.7 9.49219 120.336 9.59493 120.024 9.80043C119.716 10.0026 119.477 10.2678 119.308 10.5959C119.143 10.9207 119.06 11.2737 119.06 11.6548V12.5249C119.06 13.0353 119.149 13.4695 119.328 13.8274C119.51 14.1854 119.764 14.4588 120.089 14.6477C120.414 14.8333 120.793 14.9261 121.227 14.9261C121.509 14.9261 121.766 14.8864 121.998 14.8068C122.23 14.724 122.43 14.6013 122.599 14.4389C122.768 14.2765 122.898 14.076 122.987 13.8374L124.394 14.0909C124.281 14.5052 124.079 14.8681 123.788 15.1797C123.499 15.4879 123.136 15.7282 122.699 15.9006C122.265 16.0696 121.769 16.1541 121.212 16.1541ZM129.843 16V8.36364H131.28V9.5767H131.359C131.499 9.16572 131.744 8.84257 132.095 8.60724C132.45 8.36861 132.851 8.24929 133.298 8.24929C133.391 8.24929 133.5 8.2526 133.626 8.25923C133.756 8.26586 133.857 8.27415 133.93 8.28409V9.70597C133.87 9.68939 133.764 9.67116 133.612 9.65128C133.459 9.62808 133.307 9.61648 133.154 9.61648C132.803 9.61648 132.49 9.69105 132.214 9.8402C131.943 9.98603 131.727 10.1899 131.568 10.4517C131.409 10.7102 131.33 11.0052 131.33 11.3366V16H129.843ZM137.37 16.169C136.886 16.169 136.449 16.0795 136.058 15.9006C135.666 15.7183 135.357 15.4548 135.128 15.1101C134.902 14.7654 134.79 14.3428 134.79 13.8423C134.79 13.4115 134.873 13.0568 135.038 12.7784C135.204 12.5 135.428 12.2796 135.71 12.1172C135.991 11.9548 136.306 11.8321 136.654 11.7493C137.002 11.6664 137.357 11.6035 137.718 11.5604C138.175 11.5073 138.547 11.4643 138.832 11.4311C139.117 11.3946 139.324 11.3366 139.453 11.2571C139.582 11.1776 139.647 11.0483 139.647 10.8693V10.8345C139.647 10.4003 139.524 10.0639 139.279 9.82528C139.037 9.58665 138.676 9.46733 138.195 9.46733C137.695 9.46733 137.3 9.57836 137.012 9.80043C136.727 10.0192 136.53 10.2628 136.42 10.5312L135.023 10.2131C135.189 9.74905 135.431 9.37453 135.749 9.08949C136.071 8.80114 136.44 8.59233 136.858 8.46307C137.276 8.33049 137.715 8.2642 138.175 8.2642C138.48 8.2642 138.804 8.30066 139.145 8.37358C139.49 8.44318 139.811 8.57244 140.109 8.76136C140.411 8.95028 140.658 9.22041 140.85 9.57173C141.042 9.91974 141.138 10.3722 141.138 10.929V16H139.687V14.956H139.627C139.531 15.1482 139.387 15.3371 139.195 15.5227C139.002 15.7083 138.755 15.8625 138.454 15.9851C138.152 16.1077 137.791 16.169 137.37 16.169ZM137.693 14.9759C138.104 14.9759 138.455 14.8946 138.747 14.7322C139.042 14.5698 139.266 14.3577 139.418 14.0959C139.574 13.8307 139.652 13.5473 139.652 13.2457V12.2614C139.599 12.3144 139.496 12.3641 139.344 12.4105C139.195 12.4536 139.024 12.4917 138.832 12.5249C138.639 12.5547 138.452 12.5829 138.27 12.6094C138.088 12.6326 137.935 12.6525 137.812 12.669C137.524 12.7055 137.261 12.7668 137.022 12.853C136.787 12.9392 136.598 13.0634 136.455 13.2259C136.316 13.3849 136.246 13.5971 136.246 13.8622C136.246 14.2301 136.382 14.5085 136.654 14.6974C136.926 14.883 137.272 14.9759 137.693 14.9759ZM146.683 8.36364V9.55682H142.512V8.36364H146.683ZM143.631 6.53409H145.117V13.7578C145.117 14.0462 145.16 14.2633 145.246 14.4091C145.332 14.5516 145.443 14.6494 145.579 14.7024C145.719 14.7521 145.869 14.777 146.032 14.777C146.151 14.777 146.256 14.7687 146.345 14.7521C146.434 14.7356 146.504 14.7223 146.554 14.7124L146.822 15.9403C146.736 15.9735 146.613 16.0066 146.454 16.0398C146.295 16.0762 146.096 16.0961 145.858 16.0994C145.467 16.1061 145.102 16.0365 144.764 15.8906C144.426 15.7448 144.153 15.5194 143.944 15.2145C143.735 14.9096 143.631 14.5268 143.631 14.0661V6.53409ZM151.537 16.1541C150.784 16.1541 150.136 15.9934 149.593 15.6719C149.052 15.3471 148.635 14.8913 148.34 14.3047C148.048 13.7147 147.902 13.0237 147.902 12.2315C147.902 11.4493 148.048 10.7599 148.34 10.1634C148.635 9.56676 149.046 9.10109 149.573 8.76633C150.103 8.43158 150.723 8.2642 151.432 8.2642C151.863 8.2642 152.281 8.33546 152.685 8.47798C153.089 8.6205 153.452 8.84422 153.774 9.14915C154.095 9.45407 154.349 9.85014 154.534 10.3374C154.72 10.8213 154.813 11.4096 154.813 12.1023V12.6293H148.743V11.5156H153.356C153.356 11.1245 153.277 10.7782 153.118 10.4766C152.958 10.1716 152.735 9.93134 152.446 9.75568C152.161 9.58002 151.827 9.49219 151.442 9.49219C151.025 9.49219 150.66 9.59493 150.348 9.80043C150.04 10.0026 149.801 10.2678 149.632 10.5959C149.467 10.9207 149.384 11.2737 149.384 11.6548V12.5249C149.384 13.0353 149.473 13.4695 149.652 13.8274C149.835 14.1854 150.088 14.4588 150.413 14.6477C150.738 14.8333 151.117 14.9261 151.551 14.9261C151.833 14.9261 152.09 14.8864 152.322 14.8068C152.554 14.724 152.755 14.6013 152.924 14.4389C153.093 14.2765 153.222 14.076 153.311 13.8374L154.718 14.0909C154.606 14.5052 154.404 14.8681 154.112 15.1797C153.824 15.4879 153.461 15.7282 153.023 15.9006C152.589 16.0696 152.093 16.1541 151.537 16.1541Z" fill="#404040"/>
<path d="M172.667 11.1129V9.8054H179.036V11.1129H172.667ZM172.667 14.1754V12.8679H179.036V14.1754H172.667Z" fill="#404040"/>
<path d="M196.375 16H193.233V5.81818H196.514C197.502 5.81818 198.347 6.02202 199.05 6.42969C199.752 6.83404 200.291 7.41572 200.665 8.17472C201.04 8.9304 201.227 9.83523 201.227 10.8892C201.227 11.9498 201.038 12.8629 200.661 13.6286C200.283 14.3909 199.732 14.9775 199.01 15.3885C198.287 15.7962 197.409 16 196.375 16ZM194.466 14.9062H196.295C197.137 14.9062 197.835 14.7438 198.388 14.419C198.942 14.0942 199.355 13.6319 199.626 13.032C199.898 12.4321 200.034 11.7178 200.034 10.8892C200.034 10.0672 199.9 9.35961 199.631 8.76633C199.363 8.16974 198.962 7.71236 198.428 7.39418C197.895 7.07268 197.23 6.91193 196.435 6.91193H194.466V14.9062ZM206.338 16.1591C205.602 16.1591 204.968 15.9967 204.434 15.6719C203.904 15.3438 203.494 14.8864 203.206 14.2997C202.921 13.7098 202.778 13.0237 202.778 12.2415C202.778 11.4593 202.921 10.7699 203.206 10.1733C203.494 9.57339 203.895 9.10606 204.409 8.77131C204.926 8.43324 205.529 8.2642 206.219 8.2642C206.616 8.2642 207.009 8.33049 207.397 8.46307C207.785 8.59564 208.138 8.81108 208.456 9.10938C208.774 9.40436 209.028 9.79545 209.217 10.2827C209.406 10.7699 209.5 11.3698 209.5 12.0824V12.5795H203.614V11.5653H208.307C208.307 11.1345 208.221 10.75 208.048 10.4119C207.879 10.0739 207.637 9.80705 207.322 9.61151C207.011 9.41596 206.643 9.31818 206.219 9.31818C205.751 9.31818 205.347 9.43419 205.006 9.66619C204.668 9.89489 204.407 10.1932 204.225 10.5611C204.043 10.929 203.952 11.3234 203.952 11.7443V12.4205C203.952 12.9972 204.051 13.486 204.25 13.8871C204.452 14.2848 204.732 14.5881 205.09 14.7969C205.448 15.0024 205.864 15.1051 206.338 15.1051C206.646 15.1051 206.925 15.062 207.173 14.9759C207.425 14.8864 207.642 14.7538 207.825 14.5781C208.007 14.3991 208.148 14.1771 208.247 13.9119L209.381 14.2301C209.261 14.6146 209.061 14.9527 208.779 15.2443C208.497 15.5327 208.149 15.758 207.735 15.9205C207.321 16.0795 206.855 16.1591 206.338 16.1591ZM211.285 18.8636V8.36364H212.418V9.5767H212.558C212.644 9.44413 212.763 9.27509 212.915 9.0696C213.071 8.8608 213.293 8.67519 213.582 8.51278C213.873 8.34706 214.268 8.2642 214.765 8.2642C215.408 8.2642 215.975 8.42495 216.465 8.74645C216.956 9.06794 217.339 9.52367 217.614 10.1136C217.889 10.7036 218.026 11.3996 218.026 12.2017C218.026 13.0104 217.889 13.7114 217.614 14.3047C217.339 14.8946 216.957 15.352 216.47 15.6768C215.983 15.9983 215.421 16.1591 214.785 16.1591C214.294 16.1591 213.902 16.0779 213.607 15.9155C213.312 15.7498 213.085 15.5625 212.925 15.3537C212.766 15.1416 212.644 14.9659 212.558 14.8267H212.458V18.8636H211.285ZM212.438 12.1818C212.438 12.7585 212.523 13.2673 212.692 13.7081C212.861 14.1456 213.108 14.4886 213.433 14.7372C213.757 14.9825 214.155 15.1051 214.626 15.1051C215.116 15.1051 215.526 14.9759 215.854 14.7173C216.185 14.4555 216.434 14.1042 216.599 13.6634C216.768 13.2192 216.853 12.7254 216.853 12.1818C216.853 11.6449 216.77 11.161 216.604 10.7301C216.442 10.2959 216.195 9.95289 215.864 9.70099C215.536 9.44579 215.123 9.31818 214.626 9.31818C214.148 9.31818 213.747 9.43916 213.423 9.68111C213.098 9.91974 212.853 10.2545 212.687 10.6854C212.521 11.1129 212.438 11.6117 212.438 12.1818ZM220.989 5.81818V16H219.816V5.81818H220.989ZM226.241 16.1591C225.551 16.1591 224.946 15.995 224.426 15.6669C223.909 15.3388 223.505 14.8797 223.213 14.2898C222.925 13.6998 222.78 13.0104 222.78 12.2216C222.78 11.4261 222.925 10.7318 223.213 10.1385C223.505 9.54522 223.909 9.08452 224.426 8.75639C224.946 8.42827 225.551 8.2642 226.241 8.2642C226.93 8.2642 227.533 8.42827 228.05 8.75639C228.571 9.08452 228.975 9.54522 229.263 10.1385C229.555 10.7318 229.701 11.4261 229.701 12.2216C229.701 13.0104 229.555 13.6998 229.263 14.2898C228.975 14.8797 228.571 15.3388 228.05 15.6669C227.533 15.995 226.93 16.1591 226.241 16.1591ZM226.241 15.1051C226.764 15.1051 227.195 14.9709 227.533 14.7024C227.871 14.4339 228.122 14.081 228.284 13.6435C228.446 13.206 228.528 12.732 228.528 12.2216C228.528 11.7112 228.446 11.2356 228.284 10.7947C228.122 10.3539 227.871 9.99763 227.533 9.72585C227.195 9.45407 226.764 9.31818 226.241 9.31818C225.717 9.31818 225.286 9.45407 224.948 9.72585C224.61 9.99763 224.36 10.3539 224.197 10.7947C224.035 11.2356 223.954 11.7112 223.954 12.2216C223.954 12.732 224.035 13.206 224.197 13.6435C224.36 14.081 224.61 14.4339 224.948 14.7024C225.286 14.9709 225.717 15.1051 226.241 15.1051ZM231.974 18.8636C231.775 18.8636 231.598 18.8471 231.442 18.8139C231.286 18.7841 231.179 18.7543 231.119 18.7244L231.417 17.6903C231.702 17.7633 231.954 17.7898 232.173 17.7699C232.392 17.75 232.586 17.6522 232.755 17.4766C232.927 17.3042 233.084 17.0241 233.227 16.6364L233.446 16.0398L230.622 8.36364H231.895L234.002 14.4489H234.082L236.19 8.36364H237.463L234.221 17.1136C234.075 17.508 233.895 17.8345 233.679 18.093C233.464 18.3549 233.214 18.5488 232.929 18.6747C232.647 18.8007 232.329 18.8636 231.974 18.8636ZM239.011 16V8.36364H240.145V9.55682H240.244C240.403 9.14915 240.66 8.83262 241.015 8.60724C241.37 8.37855 241.795 8.2642 242.293 8.2642C242.796 8.2642 243.216 8.37855 243.55 8.60724C243.888 8.83262 244.152 9.14915 244.341 9.55682H244.42C244.616 9.16241 244.909 8.84919 245.3 8.61719C245.692 8.38187 246.161 8.2642 246.707 8.2642C247.39 8.2642 247.949 8.47798 248.383 8.90554C248.817 9.32978 249.034 9.991 249.034 10.8892V16H247.861V10.8892C247.861 10.3258 247.707 9.92306 247.398 9.68111C247.09 9.43916 246.727 9.31818 246.31 9.31818C245.773 9.31818 245.357 9.48059 245.062 9.8054C244.767 10.1269 244.619 10.5346 244.619 11.0284V16H243.426V10.7699C243.426 10.3357 243.285 9.98603 243.004 9.72088C242.722 9.45241 242.359 9.31818 241.915 9.31818C241.61 9.31818 241.325 9.39938 241.06 9.56179C240.798 9.72419 240.586 9.94957 240.423 10.2379C240.264 10.523 240.185 10.8527 240.185 11.2273V16H239.011ZM254.381 16.1591C253.645 16.1591 253.011 15.9967 252.477 15.6719C251.947 15.3438 251.537 14.8864 251.249 14.2997C250.964 13.7098 250.821 13.0237 250.821 12.2415C250.821 11.4593 250.964 10.7699 251.249 10.1733C251.537 9.57339 251.938 9.10606 252.452 8.77131C252.969 8.43324 253.572 8.2642 254.262 8.2642C254.659 8.2642 255.052 8.33049 255.44 8.46307C255.828 8.59564 256.181 8.81108 256.499 9.10938C256.817 9.40436 257.071 9.79545 257.26 10.2827C257.449 10.7699 257.543 11.3698 257.543 12.0824V12.5795H251.657V11.5653H256.35C256.35 11.1345 256.264 10.75 256.091 10.4119C255.922 10.0739 255.68 9.80705 255.365 9.61151C255.054 9.41596 254.686 9.31818 254.262 9.31818C253.794 9.31818 253.39 9.43419 253.049 9.66619C252.711 9.89489 252.45 10.1932 252.268 10.5611C252.086 10.929 251.995 11.3234 251.995 11.7443V12.4205C251.995 12.9972 252.094 13.486 252.293 13.8871C252.495 14.2848 252.775 14.5881 253.133 14.7969C253.491 15.0024 253.907 15.1051 254.381 15.1051C254.689 15.1051 254.968 15.062 255.216 14.9759C255.468 14.8864 255.685 14.7538 255.868 14.5781C256.05 14.3991 256.191 14.1771 256.29 13.9119L257.424 14.2301C257.304 14.6146 257.104 14.9527 256.822 15.2443C256.54 15.5327 256.192 15.758 255.778 15.9205C255.364 16.0795 254.898 16.1591 254.381 16.1591ZM260.501 11.4062V16H259.328V8.36364H260.461V9.55682H260.561C260.74 9.16903 261.011 8.85748 261.376 8.62216C261.741 8.38352 262.211 8.2642 262.788 8.2642C263.305 8.2642 263.757 8.37027 264.145 8.58239C264.533 8.79119 264.835 9.10938 265.05 9.53693C265.266 9.96117 265.373 10.4981 265.373 11.1477V16H264.2V11.2273C264.2 10.6274 264.044 10.16 263.733 9.82528C263.421 9.48722 262.993 9.31818 262.45 9.31818C262.075 9.31818 261.741 9.39938 261.446 9.56179C261.154 9.72419 260.924 9.96117 260.755 10.2727C260.586 10.5843 260.501 10.9621 260.501 11.4062ZM270.838 8.36364V9.35795H266.881V8.36364H270.838ZM268.034 6.53409H269.208V13.8125C269.208 14.1439 269.256 14.3925 269.352 14.5582C269.451 14.7206 269.577 14.83 269.73 14.8864C269.885 14.9394 270.049 14.9659 270.222 14.9659C270.351 14.9659 270.457 14.9593 270.54 14.946C270.623 14.9295 270.689 14.9162 270.739 14.9062L270.977 15.9602C270.898 15.9901 270.787 16.0199 270.644 16.0497C270.502 16.0829 270.321 16.0994 270.102 16.0994C269.771 16.0994 269.446 16.0282 269.128 15.8857C268.813 15.7431 268.551 15.526 268.343 15.2344C268.137 14.9427 268.034 14.5748 268.034 14.1307V6.53409ZM277.876 10.0739L276.822 10.3722C276.755 10.1965 276.657 10.0258 276.528 9.86009C276.402 9.69105 276.23 9.55185 276.011 9.44247C275.792 9.3331 275.512 9.27841 275.171 9.27841C274.704 9.27841 274.314 9.38613 274.003 9.60156C273.694 9.81368 273.54 10.0838 273.54 10.4119C273.54 10.7036 273.646 10.9339 273.858 11.103C274.071 11.272 274.402 11.4129 274.853 11.5256L275.986 11.804C276.669 11.9697 277.178 12.2232 277.513 12.5646C277.847 12.9027 278.015 13.3385 278.015 13.8722C278.015 14.3097 277.889 14.7008 277.637 15.0455C277.388 15.3902 277.04 15.6619 276.593 15.8608C276.145 16.0597 275.625 16.1591 275.032 16.1591C274.253 16.1591 273.608 15.9901 273.098 15.652C272.587 15.3139 272.264 14.8201 272.128 14.1705L273.242 13.892C273.348 14.303 273.549 14.6113 273.844 14.8168C274.142 15.0223 274.531 15.125 275.012 15.125C275.559 15.125 275.993 15.009 276.314 14.777C276.639 14.5417 276.802 14.2599 276.802 13.9318C276.802 13.6667 276.709 13.4446 276.523 13.2656C276.338 13.0833 276.053 12.9474 275.668 12.858L274.395 12.5597C273.696 12.3939 273.182 12.1371 272.854 11.7891C272.529 11.4377 272.367 10.9986 272.367 10.4716C272.367 10.0407 272.488 9.65956 272.73 9.32812C272.975 8.99669 273.308 8.73651 273.729 8.54758C274.153 8.35866 274.634 8.2642 275.171 8.2642C275.927 8.2642 276.52 8.42992 276.951 8.76136C277.385 9.0928 277.693 9.5303 277.876 10.0739ZM286.821 16.1591C286.105 16.1591 285.488 15.9901 284.971 15.652C284.454 15.3139 284.056 14.8482 283.778 14.255C283.5 13.6617 283.36 12.9839 283.36 12.2216C283.36 11.446 283.503 10.7616 283.788 10.1683C284.076 9.57173 284.477 9.10606 284.991 8.77131C285.508 8.43324 286.111 8.2642 286.801 8.2642C287.338 8.2642 287.822 8.36364 288.252 8.5625C288.683 8.76136 289.036 9.03977 289.311 9.39773C289.587 9.75568 289.757 10.1733 289.824 10.6506H288.65C288.561 10.3026 288.362 9.99432 288.054 9.72585C287.749 9.45407 287.338 9.31818 286.821 9.31818C286.363 9.31818 285.962 9.4375 285.618 9.67614C285.276 9.91146 285.009 10.2446 284.817 10.6754C284.628 11.103 284.534 11.6051 284.534 12.1818C284.534 12.7718 284.627 13.2855 284.812 13.723C285.001 14.1605 285.266 14.5002 285.608 14.7422C285.952 14.9841 286.357 15.1051 286.821 15.1051C287.126 15.1051 287.402 15.0521 287.651 14.946C287.9 14.84 288.11 14.6875 288.282 14.4886C288.455 14.2898 288.577 14.0511 288.65 13.7727H289.824C289.757 14.2235 289.593 14.6295 289.331 14.9908C289.073 15.3487 288.73 15.6338 288.302 15.8459C287.878 16.0547 287.384 16.1591 286.821 16.1591ZM293.786 16.179C293.302 16.179 292.863 16.0878 292.468 15.9055C292.074 15.7199 291.761 15.4531 291.529 15.1051C291.297 14.7538 291.181 14.3295 291.181 13.8324C291.181 13.3949 291.267 13.0402 291.439 12.7685C291.612 12.4934 291.842 12.2779 292.13 12.1222C292.419 11.9664 292.737 11.8504 293.085 11.7741C293.436 11.6946 293.789 11.6316 294.144 11.5852C294.608 11.5256 294.984 11.4808 295.272 11.451C295.564 11.4179 295.776 11.3632 295.909 11.2869C296.045 11.2107 296.113 11.0781 296.113 10.8892V10.8494C296.113 10.3589 295.978 9.97775 295.71 9.70597C295.445 9.43419 295.042 9.2983 294.502 9.2983C293.942 9.2983 293.502 9.42093 293.184 9.66619C292.866 9.91146 292.642 10.1733 292.513 10.4517L291.4 10.054C291.598 9.58996 291.864 9.22869 292.195 8.97017C292.53 8.70833 292.894 8.52604 293.289 8.4233C293.686 8.31723 294.078 8.2642 294.462 8.2642C294.707 8.2642 294.989 8.29403 295.307 8.35369C295.629 8.41004 295.939 8.5277 296.237 8.70668C296.538 8.88565 296.789 9.15578 296.988 9.51705C297.186 9.87831 297.286 10.3622 297.286 10.9688V16H296.113V14.9659H296.053C295.973 15.1316 295.841 15.3089 295.655 15.4979C295.47 15.6868 295.223 15.8475 294.914 15.9801C294.606 16.1127 294.23 16.179 293.786 16.179ZM293.965 15.125C294.429 15.125 294.82 15.0339 295.138 14.8516C295.46 14.6693 295.702 14.4339 295.864 14.1456C296.03 13.8572 296.113 13.554 296.113 13.2358V12.1619C296.063 12.2216 295.953 12.2763 295.784 12.326C295.619 12.3724 295.426 12.4138 295.208 12.4503C294.992 12.4834 294.782 12.5133 294.576 12.5398C294.374 12.563 294.21 12.5829 294.084 12.5994C293.779 12.6392 293.494 12.7038 293.229 12.7933C292.967 12.8795 292.755 13.0104 292.593 13.1861C292.434 13.3584 292.354 13.5937 292.354 13.892C292.354 14.2997 292.505 14.608 292.806 14.8168C293.111 15.0223 293.498 15.125 293.965 15.125ZM304.24 12.8778V8.36364H305.413V16H304.24V14.7074H304.16C303.981 15.0952 303.703 15.425 303.325 15.6967C302.947 15.9652 302.47 16.0994 301.893 16.0994C301.416 16.0994 300.992 15.995 300.621 15.7862C300.249 15.5741 299.958 15.2559 299.746 14.8317C299.533 14.4041 299.427 13.8655 299.427 13.2159V8.36364H300.601V13.1364C300.601 13.6932 300.756 14.1373 301.068 14.4688C301.383 14.8002 301.784 14.9659 302.271 14.9659C302.563 14.9659 302.859 14.8913 303.161 14.7422C303.466 14.593 303.721 14.3643 303.927 14.0561C304.135 13.7479 304.24 13.3551 304.24 12.8778ZM312.971 10.0739L311.917 10.3722C311.851 10.1965 311.753 10.0258 311.624 9.86009C311.498 9.69105 311.326 9.55185 311.107 9.44247C310.888 9.3331 310.608 9.27841 310.267 9.27841C309.799 9.27841 309.41 9.38613 309.098 9.60156C308.79 9.81368 308.636 10.0838 308.636 10.4119C308.636 10.7036 308.742 10.9339 308.954 11.103C309.166 11.272 309.498 11.4129 309.949 11.5256L311.082 11.804C311.765 11.9697 312.274 12.2232 312.608 12.5646C312.943 12.9027 313.11 13.3385 313.11 13.8722C313.11 14.3097 312.984 14.7008 312.733 15.0455C312.484 15.3902 312.136 15.6619 311.689 15.8608C311.241 16.0597 310.721 16.1591 310.127 16.1591C309.349 16.1591 308.704 15.9901 308.194 15.652C307.683 15.3139 307.36 14.8201 307.224 14.1705L308.338 13.892C308.444 14.303 308.644 14.6113 308.939 14.8168C309.238 15.0223 309.627 15.125 310.108 15.125C310.654 15.125 311.089 15.009 311.41 14.777C311.735 14.5417 311.897 14.2599 311.897 13.9318C311.897 13.6667 311.805 13.4446 311.619 13.2656C311.433 13.0833 311.148 12.9474 310.764 12.858L309.491 12.5597C308.792 12.3939 308.278 12.1371 307.95 11.7891C307.625 11.4377 307.463 10.9986 307.463 10.4716C307.463 10.0407 307.584 9.65956 307.826 9.32812C308.071 8.99669 308.404 8.73651 308.825 8.54758C309.249 8.35866 309.73 8.2642 310.267 8.2642C311.022 8.2642 311.616 8.42992 312.047 8.76136C312.481 9.0928 312.789 9.5303 312.971 10.0739ZM314.877 16V8.36364H316.05V16H314.877ZM315.473 7.09091C315.244 7.09091 315.047 7.01302 314.882 6.85724C314.719 6.70147 314.638 6.5142 314.638 6.29545C314.638 6.0767 314.719 5.88944 314.882 5.73366C315.047 5.57789 315.244 5.5 315.473 5.5C315.702 5.5 315.897 5.57789 316.06 5.73366C316.226 5.88944 316.308 6.0767 316.308 6.29545C316.308 6.5142 316.226 6.70147 316.06 6.85724C315.897 7.01302 315.702 7.09091 315.473 7.09091ZM319.372 11.4062V16H318.199V8.36364H319.332V9.55682H319.432C319.611 9.16903 319.883 8.85748 320.247 8.62216C320.612 8.38352 321.082 8.2642 321.659 8.2642C322.176 8.2642 322.629 8.37027 323.016 8.58239C323.404 8.79119 323.706 9.10938 323.921 9.53693C324.137 9.96117 324.244 10.4981 324.244 11.1477V16H323.071V11.2273C323.071 10.6274 322.915 10.16 322.604 9.82528C322.292 9.48722 321.865 9.31818 321.321 9.31818C320.946 9.31818 320.612 9.39938 320.317 9.56179C320.025 9.72419 319.795 9.96117 319.626 10.2727C319.457 10.5843 319.372 10.9621 319.372 11.4062ZM329.471 19.0227C328.904 19.0227 328.417 18.9498 328.009 18.804C327.601 18.6615 327.262 18.4725 326.99 18.2372C326.721 18.0052 326.508 17.7566 326.349 17.4915L327.283 16.8352C327.389 16.9744 327.523 17.1335 327.686 17.3125C327.848 17.4948 328.07 17.6522 328.352 17.7848C328.637 17.9207 329.01 17.9886 329.471 17.9886C330.087 17.9886 330.596 17.8395 330.997 17.5412C331.398 17.2429 331.599 16.7756 331.599 16.1392V14.5881H331.499C331.413 14.7273 331.29 14.8996 331.131 15.1051C330.975 15.3073 330.75 15.4879 330.455 15.647C330.163 15.8028 329.769 15.8807 329.272 15.8807C328.655 15.8807 328.102 15.7348 327.611 15.4432C327.124 15.1515 326.738 14.7273 326.453 14.1705C326.171 13.6136 326.03 12.9375 326.03 12.142C326.03 11.3598 326.168 10.6787 326.443 10.0987C326.718 9.51539 327.101 9.06463 327.591 8.74645C328.082 8.42495 328.649 8.2642 329.292 8.2642C329.789 8.2642 330.183 8.34706 330.475 8.51278C330.77 8.67519 330.995 8.8608 331.151 9.0696C331.31 9.27509 331.433 9.44413 331.519 9.5767H331.638V8.36364H332.772V16.2188C332.772 16.875 332.623 17.4086 332.324 17.8196C332.029 18.2339 331.632 18.5372 331.131 18.7294C330.634 18.925 330.081 19.0227 329.471 19.0227ZM329.431 14.8267C329.902 14.8267 330.299 14.719 330.624 14.5036C330.949 14.2881 331.196 13.9782 331.365 13.5739C331.534 13.1695 331.618 12.6856 331.618 12.1222C331.618 11.572 331.536 11.0864 331.37 10.6655C331.204 10.2446 330.959 9.91477 330.634 9.67614C330.309 9.4375 329.908 9.31818 329.431 9.31818C328.934 9.31818 328.519 9.44413 328.188 9.69602C327.86 9.94792 327.613 10.286 327.447 10.7102C327.285 11.1345 327.204 11.6051 327.204 12.1222C327.204 12.6525 327.287 13.1214 327.452 13.5291C327.621 13.9335 327.87 14.2517 328.198 14.4837C328.529 14.7124 328.94 14.8267 329.431 14.8267ZM342.258 8.36364V9.35795H338.141V8.36364H342.258ZM339.374 16V7.30966C339.374 6.87216 339.477 6.50758 339.682 6.21591C339.888 5.92424 340.155 5.70549 340.483 5.55966C340.811 5.41383 341.157 5.34091 341.522 5.34091C341.81 5.34091 342.046 5.36411 342.228 5.41051C342.41 5.45691 342.546 5.5 342.635 5.53977L342.297 6.55398C342.238 6.53409 342.155 6.50923 342.049 6.4794C341.946 6.44957 341.81 6.43466 341.641 6.43466C341.253 6.43466 340.973 6.53243 340.801 6.72798C340.632 6.92353 340.547 7.21023 340.547 7.58807V16H339.374ZM345.93 16.179C345.446 16.179 345.007 16.0878 344.613 15.9055C344.219 15.7199 343.905 15.4531 343.673 15.1051C343.441 14.7538 343.325 14.3295 343.325 13.8324C343.325 13.3949 343.411 13.0402 343.584 12.7685C343.756 12.4934 343.987 12.2779 344.275 12.1222C344.563 11.9664 344.881 11.8504 345.229 11.7741C345.581 11.6946 345.934 11.6316 346.288 11.5852C346.752 11.5256 347.129 11.4808 347.417 11.451C347.709 11.4179 347.921 11.3632 348.053 11.2869C348.189 11.2107 348.257 11.0781 348.257 10.8892V10.8494C348.257 10.3589 348.123 9.97775 347.854 9.70597C347.589 9.43419 347.187 9.2983 346.646 9.2983C346.086 9.2983 345.647 9.42093 345.329 9.66619C345.011 9.91146 344.787 10.1733 344.658 10.4517L343.544 10.054C343.743 9.58996 344.008 9.22869 344.339 8.97017C344.674 8.70833 345.039 8.52604 345.433 8.4233C345.831 8.31723 346.222 8.2642 346.607 8.2642C346.852 8.2642 347.134 8.29403 347.452 8.35369C347.773 8.41004 348.083 8.5277 348.381 8.70668C348.683 8.88565 348.933 9.15578 349.132 9.51705C349.331 9.87831 349.43 10.3622 349.43 10.9688V16H348.257V14.9659H348.197C348.118 15.1316 347.985 15.3089 347.8 15.4979C347.614 15.6868 347.367 15.8475 347.059 15.9801C346.751 16.1127 346.375 16.179 345.93 16.179ZM346.109 15.125C346.573 15.125 346.964 15.0339 347.283 14.8516C347.604 14.6693 347.846 14.4339 348.009 14.1456C348.174 13.8572 348.257 13.554 348.257 13.2358V12.1619C348.207 12.2216 348.098 12.2763 347.929 12.326C347.763 12.3724 347.571 12.4138 347.352 12.4503C347.137 12.4834 346.926 12.5133 346.721 12.5398C346.519 12.563 346.355 12.5829 346.229 12.5994C345.924 12.6392 345.639 12.7038 345.374 12.7933C345.112 12.8795 344.9 13.0104 344.737 13.1861C344.578 13.3584 344.499 13.5937 344.499 13.892C344.499 14.2997 344.649 14.608 344.951 14.8168C345.256 15.0223 345.642 15.125 346.109 15.125ZM351.572 16V8.36364H352.745V16H351.572ZM352.169 7.09091C351.94 7.09091 351.743 7.01302 351.577 6.85724C351.414 6.70147 351.333 6.5142 351.333 6.29545C351.333 6.0767 351.414 5.88944 351.577 5.73366C351.743 5.57789 351.94 5.5 352.169 5.5C352.397 5.5 352.593 5.57789 352.755 5.73366C352.921 5.88944 353.004 6.0767 353.004 6.29545C353.004 6.5142 352.921 6.70147 352.755 6.85724C352.593 7.01302 352.397 7.09091 352.169 7.09091ZM356.067 5.81818V16H354.894V5.81818H356.067ZM363.029 12.8778V8.36364H364.202V16H363.029V14.7074H362.949C362.77 15.0952 362.492 15.425 362.114 15.6967C361.736 15.9652 361.259 16.0994 360.682 16.0994C360.205 16.0994 359.781 15.995 359.41 15.7862C359.038 15.5741 358.747 15.2559 358.535 14.8317C358.323 14.4041 358.216 13.8655 358.216 13.2159V8.36364H359.39V13.1364C359.39 13.6932 359.546 14.1373 359.857 14.4688C360.172 14.8002 360.573 14.9659 361.06 14.9659C361.352 14.9659 361.648 14.8913 361.95 14.7422C362.255 14.593 362.51 14.3643 362.716 14.0561C362.925 13.7479 363.029 13.3551 363.029 12.8778ZM366.351 16V8.36364H367.485V9.51705H367.564C367.703 9.1392 367.955 8.83262 368.32 8.5973C368.685 8.36198 369.096 8.24432 369.553 8.24432C369.639 8.24432 369.747 8.24597 369.876 8.24929C370.005 8.2526 370.103 8.25758 370.169 8.2642V9.45739C370.13 9.44744 370.038 9.43253 369.896 9.41264C369.757 9.38944 369.609 9.37784 369.453 9.37784C369.082 9.37784 368.751 9.45573 368.459 9.61151C368.171 9.76397 367.942 9.97609 367.773 10.2479C367.607 10.5163 367.525 10.8229 367.525 11.1676V16H366.351ZM374.529 16.1591C373.794 16.1591 373.159 15.9967 372.625 15.6719C372.095 15.3438 371.686 14.8864 371.397 14.2997C371.112 13.7098 370.97 13.0237 370.97 12.2415C370.97 11.4593 371.112 10.7699 371.397 10.1733C371.686 9.57339 372.087 9.10606 372.6 8.77131C373.118 8.43324 373.721 8.2642 374.41 8.2642C374.808 8.2642 375.201 8.33049 375.588 8.46307C375.976 8.59564 376.329 8.81108 376.647 9.10938C376.966 9.40436 377.219 9.79545 377.408 10.2827C377.597 10.7699 377.691 11.3698 377.691 12.0824V12.5795H371.805V11.5653H376.498C376.498 11.1345 376.412 10.75 376.24 10.4119C376.071 10.0739 375.829 9.80705 375.514 9.61151C375.202 9.41596 374.834 9.31818 374.41 9.31818C373.943 9.31818 373.538 9.43419 373.197 9.66619C372.859 9.89489 372.599 10.1932 372.417 10.5611C372.234 10.929 372.143 11.3234 372.143 11.7443V12.4205C372.143 12.9972 372.243 13.486 372.441 13.8871C372.644 14.2848 372.924 14.5881 373.282 14.7969C373.64 15.0024 374.056 15.1051 374.529 15.1051C374.838 15.1051 375.116 15.062 375.365 14.9759C375.617 14.8864 375.834 14.7538 376.016 14.5781C376.198 14.3991 376.339 14.1771 376.439 13.9119L377.572 14.2301C377.453 14.6146 377.252 14.9527 376.971 15.2443C376.689 15.5327 376.341 15.758 375.926 15.9205C375.512 16.0795 375.047 16.1591 374.529 16.1591Z" fill="#404040"/>
<defs>
<clipPath id="clip0_41_65566">
<rect width="20" height="20" fill="white" transform="translate(0 1)"/>
</clipPath>
</defs>
</svg>
