<svg width="147" height="147" viewBox="0 0 147 147" fill="none" xmlns="http://www.w3.org/2000/svg">
<path d="M73.5 9.1875C37.9846 9.1875 9.1875 37.9846 9.1875 73.5C9.1875 109.015 37.9846 137.812 73.5 137.812C109.015 137.812 137.812 109.015 137.812 73.5C137.812 37.9846 109.015 9.1875 73.5 9.1875ZM73.5 126.902C44.0139 126.902 20.0977 102.986 20.0977 73.5C20.0977 44.0139 44.0139 20.0977 73.5 20.0977C102.986 20.0977 126.902 44.0139 126.902 73.5C126.902 102.986 102.986 126.902 73.5 126.902Z" fill="#7CB305"/>
<path d="M73.5 20.0977C44.0139 20.0977 20.0977 44.0139 20.0977 73.5C20.0977 102.986 44.0139 126.902 73.5 126.902C102.986 126.902 126.902 102.986 126.902 73.5C126.902 44.0139 102.986 20.0977 73.5 20.0977ZM101.263 52.498L71.0309 94.4159C70.6083 95.0057 70.0513 95.4863 69.4059 95.8178C68.7606 96.1493 68.0455 96.3222 67.32 96.3222C66.5945 96.3222 65.8794 96.1493 65.234 95.8178C64.5887 95.4863 64.0316 95.0057 63.6091 94.4159L45.7222 69.6097C45.1767 68.8488 45.7222 67.7865 46.6553 67.7865H53.388C54.8666 67.7865 56.2447 68.5043 57.1061 69.6958L67.3271 83.879L89.8939 52.5841C90.7553 51.3782 92.1478 50.6748 93.612 50.6748H100.345C101.278 50.6748 101.823 51.7371 101.263 52.498Z" fill="#F6FFED"/>
<path d="M100.339 50.6748H93.6067C92.1424 50.6748 90.7499 51.3782 89.8886 52.5841L67.3217 83.879L57.1006 69.6958C56.2393 68.5043 54.8611 67.7865 53.3825 67.7865H46.6498C45.7167 67.7865 45.1712 68.8488 45.7167 69.6097L63.6036 94.4159C64.0262 95.0057 64.5832 95.4863 65.2286 95.8178C65.8739 96.1493 66.589 96.3222 67.3145 96.3222C68.0401 96.3222 68.7551 96.1493 69.4005 95.8178C70.0458 95.4863 70.6029 95.0057 71.0254 94.4159L101.258 52.498C101.818 51.7371 101.273 50.6748 100.339 50.6748Z" fill="#7CB305"/>
</svg>
