<svg width="15" height="16" viewBox="0 0 15 16" fill="none" xmlns="http://www.w3.org/2000/svg">
<path d="M14.8438 11.2812H13.7891V8.54688H8.16406V6.75H12.8125C12.9844 6.75 13.125 6.60938 13.125 6.4375V1.28125C13.125 1.10938 12.9844 0.96875 12.8125 0.96875H2.1875C2.01562 0.96875 1.875 1.10938 1.875 1.28125V6.4375C1.875 6.60938 2.01562 6.75 2.1875 6.75H6.83594V8.54688H1.21094V11.2812H0.15625C0.0703125 11.2812 0 11.3516 0 11.4375V14.875C0 14.9609 0.0703125 15.0312 0.15625 15.0312H3.59375C3.67969 15.0312 3.75 14.9609 3.75 14.875V11.4375C3.75 11.3516 3.67969 11.2812 3.59375 11.2812H2.53906V9.875H6.83594V11.2812H5.78125C5.69531 11.2812 5.625 11.3516 5.625 11.4375V14.875C5.625 14.9609 5.69531 15.0312 5.78125 15.0312H9.21875C9.30469 15.0312 9.375 14.9609 9.375 14.875V11.4375C9.375 11.3516 9.30469 11.2812 9.21875 11.2812H8.16406V9.875H12.4609V11.2812H11.4062C11.3203 11.2812 11.25 11.3516 11.25 11.4375V14.875C11.25 14.9609 11.3203 15.0312 11.4062 15.0312H14.8438C14.9297 15.0312 15 14.9609 15 14.875V11.4375C15 11.3516 14.9297 11.2812 14.8438 11.2812ZM2.5 13.7285C2.5 13.7578 2.47656 13.7812 2.44727 13.7812H1.30078C1.27148 13.7812 1.24805 13.7578 1.24805 13.7285V12.582C1.24805 12.5527 1.27148 12.5293 1.30078 12.5293H2.44727C2.47656 12.5293 2.5 12.5527 2.5 12.582V13.7285ZM8.125 13.7285C8.125 13.7578 8.10156 13.7812 8.07227 13.7812H6.92578C6.89648 13.7812 6.87305 13.7578 6.87305 13.7285V12.582C6.87305 12.5527 6.89648 12.5293 6.92578 12.5293H8.07227C8.10156 12.5293 8.125 12.5527 8.125 12.582V13.7285ZM3.125 5.5V2.21875H11.875V5.5H3.125ZM13.75 13.7285C13.75 13.7578 13.7266 13.7812 13.6973 13.7812H12.5508C12.5215 13.7812 12.498 13.7578 12.498 13.7285V12.582C12.498 12.5527 12.5215 12.5293 12.5508 12.5293H13.6973C13.7266 12.5293 13.75 12.5527 13.75 12.582V13.7285ZM4.53125 3.85938C4.53125 4.06658 4.61356 4.26529 4.76007 4.4118C4.90659 4.55832 5.1053 4.64062 5.3125 4.64062C5.5197 4.64062 5.71841 4.55832 5.86493 4.4118C6.01144 4.26529 6.09375 4.06658 6.09375 3.85938C6.09375 3.65217 6.01144 3.45346 5.86493 3.30695C5.71841 3.16043 5.5197 3.07812 5.3125 3.07812C5.1053 3.07812 4.90659 3.16043 4.76007 3.30695C4.61356 3.45346 4.53125 3.65217 4.53125 3.85938Z" fill="#595959"/>
</svg>
