<svg xmlns="http://www.w3.org/2000/svg" width="24" height="24" viewBox="0 -2 20 24" fill="none"><path fill-rule="evenodd" clip-rule="evenodd" d="M7.741 4.418a2.34 2.34 0 114.68 0 2.34 2.34 0 01-4.68 0zm2.34-3.54A3.54 3.54 0 007.92 7.222L5.96 10.947 4.937 8.345a2.468 2.468 0 10-2.78-.037L.448 12.784a.6.6 0 00.56.814h3.557l-.579 1.1a.6.6 0 00.531.88h11.126a.6.6 0 00.526-.888l-.597-1.092h3.547a.6.6 0 00.558-.822L17.92 8.346a2.469 2.469 0 10-2.778-.034l-.994 2.682-2.016-3.688a3.54 3.54 0 00-2.05-6.427zm.967 6.947a3.543 3.543 0 01-2.069-.041l-3.467 6.594h9.12l-3.584-6.553zm4.24-1.538a1.268 1.268 0 112.536 0 1.268 1.268 0 01-2.537 0zm-.377 6.101l.006.01h3.32l-1.45-3.653a2.498 2.498 0 01-.524-.007l-1.352 3.65zM3.805 8.745l1.419 3.604-.026.049H1.881l1.396-3.66a2.494 2.494 0 00.527.007zM2.305 6.287a1.269 1.269 0 112.537 0 1.269 1.269 0 01-2.537 0z" fill="#F53693"></path></svg>