<svg width="14" height="8" viewBox="0 0 14 8" fill="none" xmlns="http://www.w3.org/2000/svg">
<path d="M10.875 4.5625C10.9438 4.5625 11 4.50625 11 4.4375V3.5625C11 3.49375 10.9438 3.4375 10.875 3.4375H3.125C3.05625 3.4375 3 3.49375 3 3.5625V4.4375C3 4.50625 3.05625 4.5625 3.125 4.5625H10.875ZM8.82753 6.75H5.16809C5.09934 6.75 5.05531 6.80625 5.05531 6.875V7.75C5.05531 7.81875 5.09934 7.875 5.16809 7.875H8.82753C8.89628 7.875 8.9442 7.81875 8.9442 7.75V6.875C8.9442 6.80625 8.89628 6.75 8.82753 6.75ZM13.125 0.125H0.875C0.80625 0.125 0.75 0.18125 0.75 0.25V1.125C0.75 1.19375 0.80625 1.25 0.875 1.25H13.125C13.1938 1.25 13.25 1.19375 13.25 1.125V0.25C13.25 0.18125 13.1938 0.125 13.125 0.125Z" fill="#595959"/>
</svg>
