<svg width="24" height="24" viewBox="0 0 24 24" fill="none" xmlns="http://www.w3.org/2000/svg">
<path d="M21.4292 16.0048V8.00479C21.4288 7.65406 21.3363 7.30959 21.1607 7.00595C20.9852 6.7023 20.7329 6.45015 20.4292 6.27479L13.4292 2.27479C13.1252 2.09925 12.7803 2.00684 12.4292 2.00684C12.0781 2.00684 11.7332 2.09925 11.4292 2.27479L4.4292 6.27479C4.12546 6.45015 3.87318 6.7023 3.69766 7.00595C3.52214 7.30959 3.42956 7.65406 3.4292 8.00479V16.0048C3.42956 16.3555 3.52214 16.7 3.69766 17.0036C3.87318 17.3073 4.12546 17.5594 4.4292 17.7348L11.4292 21.7348C11.7332 21.9103 12.0781 22.0027 12.4292 22.0027C12.7803 22.0027 13.1252 21.9103 13.4292 21.7348L20.4292 17.7348C20.7329 17.5594 20.9852 17.3073 21.1607 17.0036C21.3363 16.7 21.4288 16.3555 21.4292 16.0048Z" stroke="#595959" stroke-width="2" stroke-linecap="round" stroke-linejoin="round"/>
<path d="M3.69922 6.96484L12.4292 12.0148L21.1592 6.96484" stroke="#595959" stroke-width="2" stroke-linecap="round" stroke-linejoin="round"/>
<path d="M12.4292 22.0849V12.0049" stroke="#595959" stroke-width="1.5" stroke-linecap="round" stroke-linejoin="round"/>
</svg>
