<svg width="18" height="18" viewBox="0 0 18 18" fill="none" xmlns="http://www.w3.org/2000/svg">
<path d="M8.87328 11.9897C8.88831 12.0089 8.90752 12.0244 8.92945 12.0351C8.95138 12.0458 8.97545 12.0513 8.99984 12.0513C9.02424 12.0513 9.04831 12.0458 9.07024 12.0351C9.09216 12.0244 9.11137 12.0089 9.12641 11.9897L11.3764 9.14301C11.4588 9.03854 11.3844 8.88386 11.2498 8.88386H9.76123V2.08564C9.76123 1.99725 9.68891 1.92493 9.60051 1.92493H8.39516C8.30676 1.92493 8.23444 1.99725 8.23444 2.08564V8.88185H6.74984C6.61525 8.88185 6.54092 9.03653 6.62328 9.141L8.87328 11.9897ZM16.3525 11.2865H15.1472C15.0588 11.2865 14.9865 11.3589 14.9865 11.4472V14.541H3.01324V11.4472C3.01324 11.3589 2.94091 11.2865 2.85252 11.2865H1.64716C1.55877 11.2865 1.48645 11.3589 1.48645 11.4472V15.4249C1.48645 15.7805 1.77373 16.0678 2.12931 16.0678H15.8704C16.226 16.0678 16.5132 15.7805 16.5132 15.4249V11.4472C16.5132 11.3589 16.4409 11.2865 16.3525 11.2865Z" fill="#595959"/>
</svg>
