<svg width="317" height="146" viewBox="0 0 317 146" fill="none" xmlns="http://www.w3.org/2000/svg">
    <g clip-path="url(#clip0)">
        <path d="M28.4517 138.993L28.025 138.834C27.9312 138.799 18.599 135.238 14.2274 127.165C9.85563 119.092 11.9963 109.372 12.0184 109.275L12.1192 108.832L12.5457 108.991C12.6394 109.026 21.9714 112.587 26.3432 120.66C30.715 128.733 28.5744 138.454 28.5522 138.551L28.4517 138.993ZM14.9274 126.79C18.6235 133.615 25.9981 137.114 27.8666 137.913C28.2218 135.919 29.3359 127.855 25.6432 121.036C21.9509 114.217 14.5734 110.713 12.7041 109.912C12.3486 111.908 11.2349 119.971 14.9274 126.79Z" fill="#3F3D56"/>
        <path d="M17.5683 124.334C25.4246 129.04 28.4503 138.389 28.4503 138.389C28.4503 138.389 18.7384 140.107 10.8821 135.4C3.02572 130.693 0 121.345 0 121.345C0 121.345 9.71193 119.627 17.5683 124.334Z" fill="#D0CDE1"/>
        <path d="M268.998 1.79803H181.391V0H141.666V1.79803H53.6977C52.9195 1.79803 52.1489 1.95066 51.4299 2.24721C50.711 2.54376 50.0577 2.97842 49.5074 3.52637C48.9571 4.07433 48.5206 4.72484 48.2228 5.44077C47.925 6.15671 47.7717 6.92404 47.7717 7.69896V127.153C47.7717 128.718 48.3961 130.219 49.5074 131.326C50.6187 132.432 52.126 133.054 53.6977 133.054H268.998C269.776 133.054 270.546 132.902 271.265 132.605C271.984 132.308 272.638 131.874 273.188 131.326C273.738 130.778 274.175 130.127 274.473 129.411C274.77 128.696 274.924 127.928 274.924 127.153V7.69896C274.924 6.92404 274.77 6.1567 274.473 5.44077C274.175 4.72483 273.738 4.07432 273.188 3.52637C272.638 2.97842 271.984 2.54376 271.265 2.24721C270.546 1.95066 269.776 1.79803 268.998 1.79803Z" fill="#3F3D56"/>
        <path d="M266.979 12.2266H55.7168V130.897H266.979V12.2266Z" fill="#FF9510"/>
        <path d="M161.167 8.99007C162.364 8.99007 163.334 8.02407 163.334 6.83244C163.334 5.64081 162.364 4.6748 161.167 4.6748C159.971 4.6748 159 5.64081 159 6.83244C159 8.02407 159.971 8.99007 161.167 8.99007Z" fill="#FF9510"/>
        <path d="M254.851 27.3298H244.836V17.3578H254.851V27.3298ZM245.272 26.8963H254.415V17.7914H245.272V26.8963Z" fill="#3F3D56"/>
        <path d="M280.855 128.739H260.238V127.26C260.238 127.221 260.23 127.183 260.215 127.147C260.2 127.112 260.179 127.08 260.151 127.052C260.124 127.025 260.092 127.003 260.056 126.989C260.02 126.974 259.982 126.966 259.943 126.966H252.874C252.835 126.966 252.797 126.974 252.761 126.989C252.726 127.003 252.693 127.025 252.666 127.052C252.638 127.08 252.617 127.112 252.602 127.147C252.587 127.183 252.58 127.221 252.58 127.26V128.739H248.161V127.26C248.161 127.221 248.154 127.183 248.139 127.147C248.124 127.112 248.103 127.08 248.075 127.052C248.048 127.025 248.015 127.003 247.98 126.989C247.944 126.974 247.906 126.966 247.867 126.966H240.798C240.759 126.966 240.721 126.974 240.685 126.989C240.65 127.003 240.617 127.025 240.59 127.052C240.562 127.08 240.541 127.112 240.526 127.147C240.511 127.183 240.503 127.221 240.503 127.26V128.739H236.085V127.26C236.085 127.221 236.078 127.183 236.063 127.147C236.048 127.112 236.026 127.08 235.999 127.052C235.972 127.025 235.939 127.003 235.903 126.989C235.868 126.974 235.829 126.966 235.791 126.966H228.722C228.683 126.966 228.645 126.974 228.609 126.989C228.573 127.003 228.541 127.025 228.514 127.052C228.486 127.08 228.464 127.112 228.45 127.147C228.435 127.183 228.427 127.221 228.427 127.26V128.739H224.009V127.26C224.009 127.221 224.002 127.183 223.987 127.147C223.972 127.112 223.95 127.08 223.923 127.052C223.896 127.025 223.863 127.003 223.827 126.989C223.792 126.974 223.753 126.966 223.715 126.966H216.646C216.607 126.966 216.569 126.974 216.533 126.989C216.497 127.003 216.465 127.025 216.437 127.052C216.41 127.08 216.388 127.112 216.374 127.147C216.359 127.183 216.351 127.221 216.351 127.26V128.739H211.933V127.26C211.933 127.221 211.925 127.183 211.911 127.147C211.896 127.112 211.874 127.08 211.847 127.052C211.819 127.025 211.787 127.003 211.751 126.989C211.715 126.974 211.677 126.966 211.638 126.966H204.57C204.531 126.966 204.493 126.974 204.457 126.989C204.421 127.003 204.389 127.025 204.361 127.052C204.334 127.08 204.312 127.112 204.297 127.147C204.283 127.183 204.275 127.221 204.275 127.26V128.739H199.857V127.26C199.857 127.221 199.849 127.183 199.834 127.147C199.82 127.112 199.798 127.08 199.771 127.052C199.743 127.025 199.711 127.003 199.675 126.989C199.639 126.974 199.601 126.966 199.562 126.966H192.493C192.455 126.966 192.416 126.974 192.381 126.989C192.345 127.003 192.312 127.025 192.285 127.052C192.258 127.08 192.236 127.112 192.221 127.147C192.206 127.183 192.199 127.221 192.199 127.26V128.739H187.781V127.26C187.781 127.221 187.773 127.183 187.758 127.147C187.743 127.112 187.722 127.08 187.694 127.052C187.667 127.025 187.635 127.003 187.599 126.989C187.563 126.974 187.525 126.966 187.486 126.966H132.113C132.074 126.966 132.036 126.974 132 126.989C131.964 127.003 131.932 127.025 131.904 127.052C131.877 127.08 131.855 127.112 131.841 127.147C131.826 127.183 131.818 127.221 131.818 127.26V128.739H127.4V127.26C127.4 127.221 127.392 127.183 127.378 127.147C127.363 127.112 127.341 127.08 127.314 127.052C127.286 127.025 127.254 127.003 127.218 126.989C127.182 126.974 127.144 126.966 127.105 126.966H120.036C119.998 126.966 119.96 126.974 119.924 126.989C119.888 127.003 119.856 127.025 119.828 127.052C119.801 127.08 119.779 127.112 119.764 127.147C119.75 127.183 119.742 127.221 119.742 127.26V128.739H115.324V127.26C115.324 127.221 115.316 127.183 115.301 127.147C115.287 127.112 115.265 127.08 115.238 127.052C115.21 127.025 115.178 127.003 115.142 126.989C115.106 126.974 115.068 126.966 115.029 126.966H107.96C107.922 126.966 107.883 126.974 107.848 126.989C107.812 127.003 107.779 127.025 107.752 127.052C107.725 127.08 107.703 127.112 107.688 127.147C107.673 127.183 107.666 127.221 107.666 127.26V128.739H103.248V127.26C103.248 127.221 103.24 127.183 103.225 127.147C103.21 127.112 103.189 127.08 103.161 127.052C103.134 127.025 103.102 127.003 103.066 126.989C103.03 126.974 102.992 126.966 102.953 126.966H95.8842C95.8455 126.966 95.8072 126.974 95.7715 126.989C95.7357 127.003 95.7033 127.025 95.6759 127.052C95.6486 127.08 95.6269 127.112 95.6121 127.147C95.5973 127.183 95.5897 127.221 95.5897 127.26V128.739H91.1716V127.26C91.1716 127.221 91.1639 127.183 91.1491 127.147C91.1343 127.112 91.1126 127.08 91.0853 127.052C91.0579 127.025 91.0255 127.003 90.9897 126.989C90.954 126.974 90.9157 126.966 90.877 126.966H83.808C83.7694 126.966 83.7311 126.974 83.6953 126.989C83.6596 127.003 83.6271 127.025 83.5998 127.052C83.5724 127.08 83.5507 127.112 83.5359 127.147C83.5211 127.183 83.5135 127.221 83.5135 127.26V128.739H79.0954V127.26C79.0954 127.221 79.0878 127.183 79.073 127.147C79.0582 127.112 79.0365 127.08 79.0091 127.052C78.9818 127.025 78.9493 127.003 78.9136 126.989C78.8778 126.974 78.8395 126.966 78.8009 126.966H71.7319C71.6932 126.966 71.6549 126.974 71.6192 126.989C71.5835 127.003 71.551 127.025 71.5236 127.052C71.4963 127.08 71.4746 127.112 71.4598 127.147C71.445 127.183 71.4374 127.221 71.4374 127.26V128.739H67.0193V127.26C67.0193 127.221 67.0116 127.183 66.9968 127.147C66.982 127.112 66.9603 127.08 66.933 127.052C66.9056 127.025 66.8732 127.003 66.8374 126.989C66.8017 126.974 66.7634 126.966 66.7247 126.966H59.6558C59.6171 126.966 59.5788 126.974 59.543 126.989C59.5073 127.003 59.4748 127.025 59.4475 127.052C59.4201 127.08 59.3984 127.112 59.3836 127.147C59.3688 127.183 59.3612 127.221 59.3612 127.26V128.739H45.8124C43.9376 128.739 42.1395 129.481 40.8139 130.801C39.4882 132.121 38.7434 133.911 38.7434 135.778V138.961C38.7434 140.828 39.4882 142.618 40.8139 143.938C42.1396 145.258 43.9376 146 45.8124 146H280.855C282.73 146 284.528 145.258 285.854 143.938C287.18 142.618 287.924 140.828 287.924 138.961V135.778C287.924 133.911 287.18 132.121 285.854 130.801C284.528 129.481 282.73 128.739 280.855 128.739Z" fill="#3F3D56"/>
        <path d="M317 138.779H9.66797V139.713H317V138.779Z" fill="#3F3D56"/>
        <path d="M253.919 78.3516H185.9V39.7911H253.919V78.3516ZM186.573 77.681H253.246V40.4618H186.573V77.681Z" fill="#3F3D56"/>
        <path d="M129.329 86.0637H68.7173V48.5092H129.329V86.0637ZM69.3907 85.3931H128.655V49.1798H69.3907V85.3931Z" fill="#3F3D56"/>
        <path d="M97.0344 71.6456L96.9763 70.8957C96.8027 69.3387 97.3239 67.6372 98.7718 65.9073C100.075 64.3788 100.799 63.2543 100.799 61.9567C100.799 60.4861 99.8722 59.5057 98.0478 59.4769C97.0044 59.4727 95.9844 59.7844 95.123 60.3708L94.428 58.5541C95.3838 57.8619 97.0344 57.4005 98.5691 57.4005C101.899 57.4005 103.405 59.4481 103.405 61.6393C103.405 63.6004 102.305 65.0134 100.915 66.6569C99.6406 68.1562 99.1772 69.4251 99.264 70.8957L99.293 71.6455L97.0344 71.6456ZM96.3972 75.6827C96.3817 75.4474 96.4153 75.2115 96.4959 74.9898C96.5766 74.7682 96.7025 74.5655 96.8658 74.3948C97.0291 74.2241 97.2261 74.0889 97.4445 73.9979C97.6629 73.9069 97.8979 73.862 98.1347 73.866C99.1483 73.866 99.8433 74.6155 99.8433 75.6827C99.8529 75.9139 99.8154 76.1447 99.7331 76.3612C99.6509 76.5777 99.5255 76.7754 99.3646 76.9424C99.2036 77.1094 99.0104 77.2423 98.7966 77.333C98.5828 77.4238 98.3527 77.4706 98.1203 77.4706C97.8878 77.4706 97.6578 77.4238 97.444 77.333C97.2301 77.2423 97.037 77.1094 96.876 76.9424C96.7151 76.7754 96.5897 76.5777 96.5074 76.3612C96.4252 76.1447 96.3877 75.9139 96.3972 75.6827Z" fill="#D0CDE1"/>
        <path d="M217.921 63.2629L217.863 62.513C217.689 60.956 218.21 59.2546 219.658 57.5246C220.961 55.9961 221.685 54.8716 221.685 53.574C221.685 52.1034 220.759 51.123 218.934 51.0942C217.891 51.09 216.871 51.4017 216.009 51.9881L215.314 50.1714C216.27 49.4792 217.921 49.0178 219.456 49.0178C222.786 49.0178 224.292 51.0654 224.292 53.2567C224.292 55.2177 223.191 56.6307 221.801 58.2742C220.527 59.7735 220.064 61.0424 220.151 62.513L220.179 63.2628L217.921 63.2629ZM217.284 67.3C217.268 67.0647 217.302 66.8288 217.382 66.6071C217.463 66.3855 217.589 66.1829 217.752 66.0121C217.916 65.8414 218.113 65.7062 218.331 65.6152C218.549 65.5242 218.784 65.4793 219.021 65.4833C220.035 65.4833 220.73 66.2328 220.73 67.3C220.739 67.5312 220.702 67.762 220.62 67.9785C220.537 68.195 220.412 68.3927 220.251 68.5597C220.09 68.7267 219.897 68.8596 219.683 68.9503C219.469 69.0411 219.239 69.0879 219.007 69.0879C218.774 69.0879 218.544 69.0411 218.33 68.9503C218.117 68.8596 217.923 68.7267 217.762 68.5597C217.602 68.3927 217.476 68.195 217.394 67.9785C217.312 67.762 217.274 67.5312 217.284 67.3Z" fill="#D0CDE1"/>
        <path d="M162.538 116.399C178.586 116.399 191.595 103.445 191.595 87.4647C191.595 71.4846 178.586 58.5302 162.538 58.5302C146.49 58.5302 133.48 71.4846 133.48 87.4647C133.48 103.445 146.49 116.399 162.538 116.399Z" fill="#2F2E41"/>
        <path d="M151.315 127.088L142.628 125.522L145.446 107.461L154.132 109.027L151.315 127.088Z" fill="#2F2E41"/>
        <path d="M171.505 112.158L162.819 110.593L160.001 126.09L168.688 127.656L171.505 112.158Z" fill="#2F2E41"/>
        <path d="M174.494 128.5C174.795 127.013 171.811 125.158 167.829 124.358C163.846 123.557 160.373 124.114 160.072 125.601C159.771 127.088 162.755 128.943 166.737 129.743C170.719 130.544 174.192 129.987 174.494 128.5Z" fill="#2F2E41"/>
        <path d="M156.401 128.033C156.602 126.529 153.499 124.879 149.471 124.348C145.444 123.816 142.016 124.605 141.816 126.109C141.616 127.613 144.719 129.263 148.747 129.794C152.774 130.325 156.201 129.537 156.401 128.033Z" fill="#2F2E41"/>
        <path d="M164.572 90.2762C170.057 90.2762 174.503 85.8487 174.503 80.3872C174.503 74.9256 170.057 70.4982 164.572 70.4982C159.087 70.4982 154.641 74.9256 154.641 80.3872C154.641 85.8487 159.087 90.2762 164.572 90.2762Z" fill="white"/>
        <path d="M168.654 80.1388C170.482 80.1388 171.964 78.663 171.964 76.8425C171.964 75.022 170.482 73.5461 168.654 73.5461C166.825 73.5461 165.343 75.022 165.343 76.8425C165.343 78.663 166.825 80.1388 168.654 80.1388Z" fill="#3F3D56"/>
        <path d="M139.616 55.9871C139.179 45.2752 148.45 36.202 160.324 35.7218C172.198 35.2415 182.177 43.5359 182.614 54.2479C183.051 64.9599 174.798 67.3937 162.924 67.874C151.05 68.3543 140.053 66.6991 139.616 55.9871Z" fill="white"/>
        <path d="M190.387 86.6202C198.208 84.835 204.092 81.4059 203.53 78.961C202.967 76.516 196.17 75.9812 188.349 77.7664C180.528 79.5515 174.644 82.9806 175.207 85.4256C175.77 87.8705 182.566 88.4053 190.387 86.6202Z" fill="#2F2E41"/>
        <path d="M133.349 96.0655C141.17 94.2803 147.054 90.8512 146.491 88.4063C145.928 85.9614 139.132 85.4265 131.311 87.2117C123.49 88.9968 117.606 92.426 118.168 94.8709C118.731 97.3158 125.528 97.8506 133.349 96.0655Z" fill="#2F2E41"/>
        <path d="M154.557 98.8674C154.402 99.7193 154.417 100.593 154.602 101.439C154.786 102.285 155.136 103.087 155.631 103.799C156.127 104.51 156.758 105.117 157.489 105.586C158.22 106.054 159.037 106.375 159.892 106.529C160.748 106.683 161.626 106.668 162.475 106.485C163.325 106.301 164.13 105.953 164.845 105.459C165.559 104.966 166.169 104.337 166.639 103.609C167.11 102.881 167.432 102.068 167.587 101.216C168.238 97.6333 165.456 96.3655 161.858 95.7169C158.26 95.0683 155.208 95.2846 154.557 98.8674Z" fill="white"/>
        <path d="M99.8144 4.40015H52.0366V49.6558H99.8144V4.40015Z" fill="#D0CDE1"/>
        <path d="M94.385 9.8064H57.4658V37.9194H94.385V9.8064Z" fill="white"/>
        <path d="M77.511 41.2361H57.4294V42.2885H77.511V41.2361Z" fill="#F2F2F2"/>
        <path d="M77.511 44.3934H57.4294V45.4459H77.511V44.3934Z" fill="#F2F2F2"/>
        <path d="M64.0351 28.0804C66.37 28.0804 68.2628 26.1956 68.2628 23.8706C68.2628 21.5456 66.37 19.6608 64.0351 19.6608C61.7002 19.6608 59.8074 21.5456 59.8074 23.8706C59.8074 26.1956 61.7002 28.0804 64.0351 28.0804Z" fill="#3F3D56"/>
        <path d="M75.9254 28.0804C78.2603 28.0804 80.1531 26.1956 80.1531 23.8706C80.1531 21.5456 78.2603 19.6608 75.9254 19.6608C73.5906 19.6608 71.6978 21.5456 71.6978 23.8706C71.6978 26.1956 73.5906 28.0804 75.9254 28.0804Z" fill="#FF9510"/>
        <path d="M87.8161 28.0804C90.151 28.0804 92.0438 26.1956 92.0438 23.8706C92.0438 21.5456 90.151 19.6608 87.8161 19.6608C85.4812 19.6608 83.5884 21.5456 83.5884 23.8706C83.5884 26.1956 85.4812 28.0804 87.8161 28.0804Z" fill="#E6E6E6"/>
        <path d="M75.9256 9.13622C77.0931 9.13622 78.0395 8.19382 78.0395 7.03131C78.0395 5.86879 77.0931 4.92639 75.9256 4.92639C74.7582 4.92639 73.8118 5.86879 73.8118 7.03131C73.8118 8.19382 74.7582 9.13622 75.9256 9.13622Z" fill="#3F3D56"/>
        <path d="M122.539 92.0282H74.7617V137.284H122.539V92.0282Z" fill="#D0CDE1"/>
        <path d="M117.11 97.4347H80.1912V125.548H117.11V97.4347Z" fill="white"/>
        <path d="M101.258 102.055H88.3149V114.943H101.258V102.055Z" fill="#FF9510"/>
        <path d="M93.2698 105.278V120.928H108.986V105.278H93.2698ZM108.305 120.249H93.9515V105.956H108.305V120.249Z" fill="#3F3D56"/>
        <path d="M100.236 128.338H80.1545V129.39H100.236V128.338Z" fill="#F2F2F2"/>
        <path d="M98.6507 96.7643C99.8181 96.7643 100.765 95.8219 100.765 94.6594C100.765 93.4969 99.8181 92.5544 98.6507 92.5544C97.4833 92.5544 96.5369 93.4969 96.5369 94.6594C96.5369 95.8219 97.4833 96.7643 98.6507 96.7643Z" fill="#3F3D56"/>
        <path d="M246.933 78.4799H199.155V123.736H246.933V78.4799Z" fill="#D0CDE1"/>
        <path d="M241.503 83.8861H204.584V111.999H241.503V83.8861Z" fill="white"/>
        <path d="M227.015 105.894H219.073V108.238H227.015V105.894Z" fill="#3F3D56"/>
        <path d="M236.617 87.647H209.471V88.6514H236.617V87.647Z" fill="#3F3D56"/>
        <path d="M236.617 90.828H209.471V91.8325H236.617V90.828Z" fill="#3F3D56"/>
        <path d="M236.617 94.0087H209.471V95.0131H236.617V94.0087Z" fill="#3F3D56"/>
        <path d="M236.617 97.1893H209.471V98.1938H236.617V97.1893Z" fill="#3F3D56"/>
        <path d="M236.617 100.37H209.471V101.374H236.617V100.37Z" fill="#3F3D56"/>
        <path d="M224.629 114.79H204.548V115.842H224.629V114.79Z" fill="#F2F2F2"/>
        <path d="M232.556 117.421H204.548V118.473H232.556V117.421Z" fill="#F2F2F2"/>
        <path d="M223.044 83.2158C224.211 83.2158 225.158 82.2734 225.158 81.1109C225.158 79.9484 224.211 79.006 223.044 79.006C221.876 79.006 220.93 79.9484 220.93 81.1109C220.93 82.2734 221.876 83.2158 223.044 83.2158Z" fill="#3F3D56"/>
    </g>
    <defs>
        <clipPath id="clip0">
            <rect width="317" height="146" fill="white"/>
        </clipPath>
    </defs>
</svg>
