<svg width="18" height="18" viewBox="0 0 18 18" fill="none" xmlns="http://www.w3.org/2000/svg">
<path class="fill-color" d="M13.7803 5.28033C14.0732 4.98744 14.0732 4.51256 13.7803 4.21967C13.4874 3.92678 13.0126 3.92678 12.7197 4.21967L8.21967 8.71967C7.92678 9.01256 7.92678 9.48744 8.21967 9.78033L12.7197 14.2803C13.0126 14.5732 13.4874 14.5732 13.7803 14.2803C14.0732 13.9874 14.0732 13.5126 13.7803 13.2197L9.81066 9.25L13.7803 5.28033Z" fill="#4F4F4F"/>
<path class="fill-color" d="M9.78033 5.28033C10.0732 4.98744 10.0732 4.51256 9.78033 4.21967C9.48744 3.92678 9.01256 3.92678 8.71967 4.21967L4.21967 8.71967C3.92678 9.01256 3.92678 9.48744 4.21967 9.78033L8.71967 14.2803C9.01256 14.5732 9.48744 14.5732 9.78033 14.2803C10.0732 13.9874 10.0732 13.5126 9.78033 13.2197L5.81066 9.25L9.78033 5.28033Z" fill="#4F4F4F"/>
</svg>
