<svg xmlns="http://www.w3.org/2000/svg" width="32" height="32" viewBox="0 0 32 32">
  <defs>
    <style>
      .cls-1 {
        fill: rgba(0,0,0,0);
      }

      .cls-2 {
        fill: #2967dd;
      }
    </style>
  </defs>
  <g id="_group" data-name=" group" transform="translate(-610 -4098)">
    <rect id="Path" class="cls-1" width="32" height="32" transform="translate(610 4098)"/>
    <path id="Icon" class="cls-2" d="M28,18.653H21.093a4.014,4.014,0,0,0,.24-1.333v-2a5.523,5.523,0,0,0-2.573-4.546l-.008-.009a.146.146,0,0,0-.045-.044c.532-.046.954-.066,1.292-.066a17.334,17.334,0,0,1,5.832,1.168c2.894,1.159,3.5,2.542,3.5,3.5v2A1.335,1.335,0,0,1,28,18.653Zm-10.666,0h-16A1.335,1.335,0,0,1,0,17.32v-2c0-.956.608-2.339,3.5-3.5a17.334,17.334,0,0,1,5.832-1.168,17.333,17.333,0,0,1,5.832,1.168c2.894,1.159,3.5,2.542,3.5,3.5v2A1.335,1.335,0,0,1,17.333,18.653ZM20,7.974a3.987,3.987,0,1,1,4-3.987A4,4,0,0,1,20,7.974Zm-10.666,0a3.987,3.987,0,1,1,4-3.987A4,4,0,0,1,9.334,7.974Z" transform="translate(611.333 4104.68)"/>
  </g>
</svg>
