<svg width="23" height="22" viewBox="0 0 23 22" fill="none" xmlns="http://www.w3.org/2000/svg">
<path fill-rule="evenodd" clip-rule="evenodd" d="M19.2268 11.4727C19.0059 12.0616 18.6376 12.5769 18.564 12.5769L16.9437 14.1965L13.7031 11.031L16.87 7.86542L18.4903 9.485C19.0059 9.9267 19.4478 10.5156 19.2268 11.4727ZM11.0514 18.7607C10.4622 18.5398 9.94669 18.1717 9.94669 18.0981L8.32638 16.4785L11.4933 13.313L14.6603 16.4785L13.04 18.0981C12.5981 18.5398 11.9352 18.9815 11.0514 18.7607ZM3.76009 10.5893C3.98104 10.0003 4.34929 9.485 4.42294 9.485L6.04325 7.86542L9.21021 11.031L6.04325 14.1965L4.34929 12.5769C3.90739 12.1352 3.46549 11.4727 3.76009 10.5893ZM11.9352 3.30111C12.5244 3.52196 13.04 3.89005 13.04 3.96366L14.6603 5.58325L11.4933 8.74879L8.32638 5.58325L9.94669 3.96366C10.3886 3.52196 10.9778 3.00664 11.9352 3.30111ZM20.8471 7.20291L15.3233 1.68161C15.2496 1.60799 14.3658 0.724585 13.0401 0.282881C11.1252 -0.379675 9.28396 0.135646 7.7373 1.68161L2.13988 7.20291C2.06623 7.27653 1.18243 8.15994 0.740527 9.48505C0.0776746 11.3991 0.593226 13.2395 2.13988 14.7855L7.66365 20.3068C7.7373 20.3804 8.62111 21.2638 9.94681 21.7055C10.4624 21.8528 11.0516 22 11.5671 22C12.8928 22 14.1449 21.4111 15.2496 20.3804L20.7734 14.8591C20.8471 14.7855 21.7309 13.9021 22.1728 12.577C22.8356 10.6629 22.3201 8.74888 20.8471 7.20291Z" fill="#00ADE4"/>
</svg>
