<svg width="44" height="44" viewBox="0 0 44 44" fill="none" xmlns="http://www.w3.org/2000/svg">
<path d="M0 12C0 5.37258 5.37258 0 12 0H32C38.6274 0 44 5.37258 44 12V32C44 38.6274 38.6274 44 32 44H12C5.37258 44 0 38.6274 0 32V12Z" fill="#262626"/>
<path d="M22 17C22 15.9391 21.5786 14.9217 20.8284 14.1716C20.0783 13.4214 19.0609 13 18 13H12V28H19C19.7956 28 20.5587 28.3161 21.1213 28.8787C21.6839 29.4413 22 30.2044 22 31M22 17V31M22 17C22 15.9391 22.4214 14.9217 23.1716 14.1716C23.9217 13.4214 24.9391 13 26 13H32V28H25C24.2044 28 23.4413 28.3161 22.8787 28.8787C22.3161 29.4413 22 30.2044 22 31" stroke="#7E7E7E" stroke-width="1.5" stroke-linecap="round" stroke-linejoin="round"/>
</svg>
