<svg
        width="18"
        height="18"
        viewBox="0 0 18 18"
        fill="none"
        xmlns="http://www.w3.org/2000/svg">
    <path d="M12.0059 12.0234H13.3594C13.4367 12.0234 13.5 11.9602 13.5 11.8828V11.0391C13.5 10.9617 13.4367 10.8984 13.3594 10.8984H12.0059C12.0639 11.076 12.0938 11.2641 12.0938 11.4609C12.0938 11.6578 12.0621 11.8459 12.0059 12.0234ZM8.52539 10.8984H4.64062C4.56328 10.8984 4.5 10.9617 4.5 11.0391V11.8828C4.5 11.9602 4.56328 12.0234 4.64062 12.0234H8.52539C8.46738 11.8459 8.4375 11.6578 8.4375 11.4609C8.4375 11.2641 8.46914 11.076 8.52539 10.8984ZM12.0059 12.0234C12.0639 11.8459 12.0938 11.6578 12.0938 11.4609C12.0938 11.2641 12.0621 11.076 12.0059 10.8984C11.7686 10.1637 11.0795 9.63281 10.2656 9.63281C9.45176 9.63281 8.7627 10.1637 8.52539 10.8984C8.46738 11.076 8.4375 11.2641 8.4375 11.4609C8.4375 11.6578 8.46914 11.8459 8.52539 12.0234C8.7627 12.7582 9.45176 13.2891 10.2656 13.2891C11.0795 13.2891 11.7686 12.7582 12.0059 12.0234ZM9.97207 12.0217C9.96152 12.0164 9.95098 12.0094 9.94043 12.0041H9.93867L9.90703 11.983C9.90351 11.9813 9.90176 11.9795 9.89824 11.9777C9.88945 11.9725 9.88242 11.9654 9.87363 11.9602L9.8666 11.9549C9.85605 11.9461 9.84727 11.9391 9.83848 11.9303L9.8332 11.925L9.81211 11.9039L9.80508 11.8969C9.79629 11.8881 9.78926 11.8793 9.78047 11.8688C9.77168 11.8582 9.76465 11.8494 9.75762 11.8389C9.75586 11.8354 9.7541 11.8336 9.75234 11.8301C9.74707 11.8213 9.74004 11.8143 9.73477 11.8055L9.72949 11.7984C9.72246 11.7879 9.71719 11.7773 9.71016 11.765L9.70664 11.758C9.70137 11.7492 9.69785 11.7404 9.69258 11.7299L9.6873 11.7193C9.68203 11.707 9.67676 11.6965 9.67324 11.6842C9.66797 11.6719 9.66445 11.6596 9.66094 11.6473C9.65918 11.6438 9.65918 11.6402 9.65742 11.6367C9.65391 11.6262 9.65215 11.6174 9.65039 11.6068C9.65039 11.6033 9.64863 11.6016 9.64863 11.598C9.64512 11.5857 9.64336 11.5717 9.6416 11.5594C9.6416 11.5559 9.6416 11.5541 9.63984 11.5506C9.63809 11.54 9.63809 11.5295 9.63633 11.5189V11.5084C9.63633 11.4943 9.63457 11.482 9.63457 11.468C9.63457 11.4539 9.63457 11.4416 9.63633 11.4275V11.417C9.63633 11.4064 9.63809 11.3959 9.63984 11.3854C9.63984 11.3818 9.63984 11.3801 9.6416 11.3766C9.64336 11.3643 9.64512 11.3502 9.64863 11.3379C9.64863 11.3344 9.65039 11.3326 9.65039 11.3291C9.65215 11.3186 9.65566 11.308 9.65742 11.2992C9.65918 11.2957 9.65918 11.2922 9.66094 11.2887C9.66445 11.2764 9.66797 11.2641 9.67324 11.2518C9.67676 11.2395 9.68203 11.2289 9.6873 11.2166L9.69258 11.2061C9.69609 11.1973 9.70137 11.1867 9.70664 11.1779L9.71016 11.1709C9.71543 11.1604 9.72246 11.148 9.72949 11.1375L9.73477 11.1305C9.74004 11.1217 9.74531 11.1129 9.75234 11.1059C9.7541 11.1023 9.75586 11.1006 9.75762 11.0971C9.76465 11.0865 9.77344 11.076 9.78047 11.0672C9.7875 11.0584 9.79629 11.0479 9.80508 11.0391L9.81211 11.032L9.8332 11.0109L9.83848 11.0057C9.84727 10.9969 9.85781 10.9881 9.8666 10.9811L9.87363 10.9758C9.88066 10.9687 9.88945 10.9635 9.89824 10.9582C9.90176 10.9564 9.90351 10.9547 9.90703 10.9529L9.93867 10.9318L9.94043 10.9301C10.0388 10.8715 10.1511 10.8405 10.2656 10.8404C10.3711 10.8404 10.4713 10.8668 10.5592 10.9125C10.5697 10.9178 10.5803 10.9248 10.5908 10.9301L10.5926 10.9318L10.6242 10.9529C10.6277 10.9547 10.6295 10.9564 10.633 10.9582C10.6418 10.9635 10.6488 10.9705 10.6576 10.9758L10.6646 10.9811C10.6752 10.9898 10.684 10.9969 10.6928 11.0057L10.698 11.0109L10.7191 11.032L10.7262 11.0391C10.735 11.0479 10.742 11.0566 10.7508 11.0672C10.7596 11.0777 10.7666 11.0865 10.7736 11.0971C10.7754 11.1006 10.7771 11.1023 10.7789 11.1059C10.7842 11.1146 10.7912 11.1217 10.7965 11.1305L10.8018 11.1375C10.8088 11.148 10.8141 11.1586 10.8211 11.1709L10.8246 11.1779C10.8299 11.1867 10.8334 11.1955 10.8387 11.2061L10.8439 11.2166C10.8492 11.2289 10.8545 11.2395 10.858 11.2518C10.8633 11.2641 10.8668 11.2764 10.8703 11.2887C10.8721 11.2922 10.8721 11.2957 10.8738 11.2992C10.8773 11.3098 10.8791 11.3186 10.8809 11.3291C10.8809 11.3326 10.8826 11.3344 10.8826 11.3379C10.8861 11.3502 10.8879 11.3643 10.8896 11.3766C10.8896 11.3801 10.8896 11.3818 10.8914 11.3854C10.8932 11.3959 10.8932 11.4064 10.8949 11.417V11.4275C10.8949 11.4416 10.8967 11.4539 10.8967 11.468C10.8967 11.482 10.8967 11.4943 10.8949 11.5084V11.5189C10.8949 11.5295 10.8932 11.54 10.8914 11.5506C10.8914 11.5541 10.8914 11.5559 10.8896 11.5594C10.8879 11.5717 10.8861 11.5857 10.8826 11.598C10.8826 11.6016 10.8809 11.6033 10.8809 11.6068C10.8791 11.6174 10.8756 11.6279 10.8738 11.6367C10.8721 11.6402 10.8721 11.6438 10.8703 11.6473C10.8668 11.6596 10.8633 11.6719 10.858 11.6842C10.8545 11.6965 10.8492 11.707 10.8439 11.7193L10.8387 11.7299C10.8352 11.7387 10.8299 11.7492 10.8246 11.758L10.8211 11.765C10.8158 11.7756 10.8088 11.7879 10.8018 11.7984L10.7965 11.8055C10.7912 11.8143 10.7859 11.823 10.7789 11.8301C10.7771 11.8336 10.7754 11.8354 10.7736 11.8389C10.7666 11.8494 10.7578 11.86 10.7508 11.8688C10.7437 11.8775 10.735 11.8881 10.7262 11.8969L10.7191 11.9039L10.698 11.925L10.6928 11.9303C10.684 11.9391 10.6734 11.9479 10.6646 11.9549L10.6576 11.9602C10.6506 11.9672 10.6418 11.9725 10.633 11.9777C10.6295 11.9795 10.6277 11.9813 10.6242 11.983L10.5926 12.0041H10.5908C10.5803 12.0111 10.5697 12.0164 10.5592 12.0217C10.4713 12.0674 10.3711 12.0938 10.2656 12.0938C10.1602 12.0938 10.06 12.0674 9.97207 12.0217ZM9.47461 7.10156L13.3594 7.10156C13.4367 7.10156 13.5 7.03828 13.5 6.96094V6.11719C13.5 6.03984 13.4367 5.97656 13.3594 5.97656L9.47461 5.97656C9.53262 6.1541 9.5625 6.34219 9.5625 6.53906C9.5625 6.73594 9.53086 6.92402 9.47461 7.10156ZM5.99414 5.97656H4.64062C4.56328 5.97656 4.5 6.03984 4.5 6.11719V6.96094C4.5 7.03828 4.56328 7.10156 4.64062 7.10156H5.99414C5.93613 6.92402 5.90625 6.73594 5.90625 6.53906C5.90625 6.34219 5.93789 6.1541 5.99414 5.97656ZM9.47461 7.10156C9.53262 6.92402 9.5625 6.73594 9.5625 6.53906C9.5625 6.34219 9.53086 6.1541 9.47461 5.97656C9.2373 5.2418 8.54824 4.71094 7.73438 4.71094C6.92051 4.71094 6.23145 5.2418 5.99414 5.97656C5.93613 6.1541 5.90625 6.34219 5.90625 6.53906C5.90625 6.73594 5.93789 6.92402 5.99414 7.10156C6.23145 7.83633 6.92051 8.36719 7.73438 8.36719C8.54824 8.36719 9.2373 7.83633 9.47461 7.10156ZM7.44082 7.09981C7.43027 7.09453 7.41973 7.0875 7.40918 7.08223H7.40742L7.37578 7.06113C7.37227 7.05938 7.37051 7.05762 7.36699 7.05586C7.3582 7.05059 7.35117 7.04356 7.34238 7.03828L7.33535 7.03301C7.3248 7.02422 7.31602 7.01719 7.30723 7.0084L7.30195 7.00313L7.28086 6.98203L7.27383 6.975C7.26504 6.96621 7.25801 6.95742 7.24922 6.94688C7.24043 6.93633 7.2334 6.92754 7.22637 6.91699C7.22461 6.91348 7.22285 6.91172 7.22109 6.9082C7.21582 6.89941 7.20879 6.89238 7.20352 6.88359L7.19824 6.87656C7.19121 6.86602 7.18594 6.85547 7.17891 6.84316L7.17539 6.83613C7.17012 6.82734 7.1666 6.81855 7.16133 6.80801L7.15605 6.79746C7.15078 6.78516 7.14551 6.77461 7.14199 6.76231C7.13672 6.75 7.1332 6.73769 7.12969 6.72539C7.12793 6.72187 7.12793 6.71836 7.12617 6.71484C7.12266 6.7043 7.1209 6.69551 7.11914 6.68496C7.11914 6.68145 7.11738 6.67969 7.11738 6.67617C7.11387 6.66387 7.11211 6.6498 7.11035 6.6375C7.11035 6.63398 7.11035 6.63223 7.10859 6.62871C7.10684 6.61816 7.10684 6.60762 7.10508 6.59707V6.58652C7.10508 6.57246 7.10332 6.56016 7.10332 6.54609C7.10332 6.53203 7.10332 6.51973 7.10508 6.50566V6.49512C7.10508 6.48457 7.10684 6.47402 7.10859 6.46348C7.10859 6.45996 7.10859 6.4582 7.11035 6.45469C7.11211 6.44238 7.11387 6.42832 7.11738 6.41602C7.11738 6.4125 7.11914 6.41074 7.11914 6.40723C7.1209 6.39668 7.12441 6.38613 7.12617 6.37734C7.12793 6.37383 7.12793 6.37031 7.12969 6.3668C7.1332 6.35449 7.13672 6.34219 7.14199 6.32988C7.14551 6.31758 7.15078 6.30703 7.15605 6.29473L7.16133 6.28418C7.16484 6.27539 7.17012 6.26484 7.17539 6.25606L7.17891 6.24902C7.18418 6.23848 7.19121 6.22617 7.19824 6.21562L7.20352 6.20859C7.20879 6.19981 7.21406 6.19102 7.22109 6.18398C7.22285 6.18047 7.22461 6.17871 7.22637 6.1752C7.2334 6.16465 7.24219 6.1541 7.24922 6.14531C7.25625 6.13652 7.26504 6.12598 7.27383 6.11719L7.28086 6.11016L7.30195 6.08906L7.30723 6.08379C7.31602 6.075 7.32656 6.06621 7.33535 6.05918L7.34238 6.05391C7.34941 6.04688 7.3582 6.0416 7.36699 6.03633C7.37051 6.03457 7.37227 6.03281 7.37578 6.03105L7.40742 6.00996H7.40918C7.50753 5.95135 7.61988 5.92038 7.73438 5.92031C7.83984 5.92031 7.94004 5.94668 8.02793 5.99238C8.03848 5.99766 8.04902 6.00469 8.05957 6.00996H8.06133L8.09297 6.03105C8.09648 6.03281 8.09824 6.03457 8.10176 6.03633C8.11055 6.0416 8.11758 6.04863 8.12637 6.05391L8.1334 6.05918C8.14395 6.06797 8.15273 6.075 8.16152 6.08379L8.1668 6.08906L8.18789 6.11016L8.19492 6.11719C8.20371 6.12598 8.21074 6.13477 8.21953 6.14531C8.22832 6.15586 8.23535 6.16465 8.24238 6.1752C8.24414 6.17871 8.2459 6.18047 8.24766 6.18398C8.25293 6.19277 8.25996 6.19981 8.26523 6.20859L8.27051 6.21562C8.27754 6.22617 8.28281 6.23672 8.28984 6.24902L8.29336 6.25606C8.29863 6.26484 8.30215 6.27363 8.30742 6.28418L8.3127 6.29473C8.31797 6.30703 8.32324 6.31758 8.32676 6.32988C8.33203 6.34219 8.33555 6.35449 8.33906 6.3668C8.34082 6.37031 8.34082 6.37383 8.34258 6.37734C8.34609 6.38789 8.34785 6.39668 8.34961 6.40723C8.34961 6.41074 8.35137 6.4125 8.35137 6.41602C8.35488 6.42832 8.35664 6.44238 8.3584 6.45469C8.3584 6.4582 8.3584 6.45996 8.36016 6.46348C8.36191 6.47402 8.36191 6.48457 8.36367 6.49512V6.50566C8.36367 6.51973 8.36543 6.53203 8.36543 6.54609C8.36543 6.56016 8.36543 6.57246 8.36367 6.58652V6.59707C8.36367 6.60762 8.36191 6.61816 8.36016 6.62871C8.36016 6.63223 8.36016 6.63398 8.3584 6.6375C8.35664 6.6498 8.35488 6.66387 8.35137 6.67617C8.35137 6.67969 8.34961 6.68145 8.34961 6.68496C8.34785 6.69551 8.34434 6.70605 8.34258 6.71484C8.34082 6.71836 8.34082 6.72187 8.33906 6.72539C8.33555 6.73769 8.33203 6.75 8.32676 6.76231C8.32324 6.77461 8.31797 6.78516 8.3127 6.79746L8.30742 6.80801C8.30391 6.8168 8.29863 6.82734 8.29336 6.83613L8.28984 6.84316C8.28457 6.85371 8.27754 6.86602 8.27051 6.87656L8.26523 6.88359C8.25996 6.89238 8.25469 6.90117 8.24766 6.9082C8.2459 6.91172 8.24414 6.91348 8.24238 6.91699C8.23535 6.92754 8.22656 6.93809 8.21953 6.94688C8.2125 6.95566 8.20371 6.96621 8.19492 6.975L8.18789 6.98203L8.1668 7.00313L8.16152 7.0084C8.15273 7.01719 8.14219 7.02598 8.1334 7.03301L8.12637 7.03828C8.11934 7.04531 8.11055 7.05059 8.10176 7.05586C8.09824 7.05762 8.09648 7.05938 8.09297 7.06113L8.06133 7.08223H8.05957C8.04902 7.08926 8.03848 7.09453 8.02793 7.09981C7.94004 7.14551 7.83984 7.17188 7.73438 7.17188C7.62891 7.17188 7.52871 7.14551 7.44082 7.09981Z" fill="#595959" fill-opacity="0.65"/>
</svg>
