<svg xmlns="http://www.w3.org/2000/svg" xmlns:xlink="http://www.w3.org/1999/xlink" version="1.1"
	style="enable-background:new 0 0 301.333 301.333;" viewBox="0 0 10000 10000" xml:space="preserve" width="300.333"
	height="300.333">
	<rect id="backgroundrect" width="100%" height="100%" x="0" y="0" fill="none" stroke="none" />
	<g class="currentLayer" style="">
		<g id="svg_1" class="" fill-opacity="1" fill="#3294f3">
			<g id="svg_2" fill="#3294f3">
				<path
					d="M250.667,0C112,0,0,112,0,250.667s112,250.667,250.667,250.667s250.667-112,250.667-250.667S389.333,0,250.667,0z     M250.667,459.733c-115.2,0-209.067-93.867-209.067-209.067S135.467,41.6,250.667,41.6s209.067,93.867,209.067,209.067    S365.867,459.733,250.667,459.733z"
					id="svg_3" fill="#3294f3" />
			</g>
		</g>
		<g id="svg_4" class="" fill-opacity="1" fill="#3294f3">
			<g id="svg_5" fill="#3294f3">
				<path
					d="M251.733,192C240,192,230.4,201.6,230.4,213.333v172.8c0,11.733,9.6,21.333,21.333,21.333    c11.733,0,21.333-9.6,21.333-20.267V213.334C273.067,201.6,263.467,192,251.733,192z"
					id="svg_6" fill="#3294f3" />
			</g>
		</g>
		<g id="svg_7" class="" fill-opacity="1" fill="#3294f3">
			<g id="svg_8" fill="#3294f3">
				<path
					d="M249.6,92.8c-11.733,0-21.333,9.6-21.333,21.333V134.4c0,11.733,9.6,21.333,21.333,21.333    c11.733,0,20.267-9.6,21.333-21.333v-20.267C270.933,102.4,261.333,92.8,249.6,92.8z"
					id="svg_9" fill="#3294f3" />
			</g>
		</g>
		<g id="svg_10">
		</g>
		<g id="svg_11">
		</g>
		<g id="svg_12">
		</g>
		<g id="svg_13">
		</g>
		<g id="svg_14">
		</g>
		<g id="svg_15">
		</g>
		<g id="svg_16">
		</g>
		<g id="svg_17">
		</g>
		<g id="svg_18">
		</g>
		<g id="svg_19">
		</g>
		<g id="svg_20">
		</g>
		<g id="svg_21">
		</g>
		<g id="svg_22">
		</g>
		<g id="svg_23">
		</g>
		<g id="svg_24">
		</g>
	</g>
</svg>