<svg xmlns="http://www.w3.org/2000/svg" width="24" height="24" viewBox="0 0 24 24">
  <defs>
    <style>
      .cls-1 {
        fill: rgba(0,0,0,0);
      }

      .cls-2 {
        fill: #2967dd;
      }
    </style>
  </defs>
  <g id="_extension" data-name=" extension" transform="translate(-0.5)">
    <rect id="Path" class="cls-1" width="24" height="24" transform="translate(0.5)"/>
    <path id="Icon" class="cls-2" d="M394,298.9a2.382,2.382,0,0,1-2.381,2.381H390.19V305.1a1.91,1.91,0,0,1-1.9,1.9h-3.619v-1.428a2.571,2.571,0,1,0-5.143,0V307H375.9a1.91,1.91,0,0,1-1.9-1.9v-3.619h1.429a2.571,2.571,0,0,0,0-5.143h-1.419v-3.619a1.9,1.9,0,0,1,1.9-1.9h3.81v-1.428a2.381,2.381,0,0,1,4.762,0v1.428h3.81a1.911,1.911,0,0,1,1.9,1.9v3.81h1.429A2.382,2.382,0,0,1,394,298.9Z" transform="translate(-371.333 -285.667)"/>
  </g>
</svg>
