<svg width="22" height="22" viewBox="0 0 22 22" fill="none" xmlns="http://www.w3.org/2000/svg">
<path d="M21.8658 1.27534L20.7301 0.139625C20.6872 0.0967683 20.6337 0.0780182 20.5774 0.0780182C20.5212 0.0780182 20.4676 0.0994468 20.4247 0.139625L18.3863 2.17802C17.5002 1.57762 16.454 1.25752 15.3837 1.25927C14.0122 1.25927 12.6408 1.78159 11.5935 2.82891L8.86401 5.55838C8.82413 5.59865 8.80176 5.65304 8.80176 5.70971C8.80176 5.76639 8.82413 5.82078 8.86401 5.86105L16.1417 13.1387C16.1845 13.1816 16.2381 13.2003 16.2944 13.2003C16.3479 13.2003 16.4042 13.1789 16.447 13.1387L19.1765 10.4093C21.022 8.56105 21.239 5.70302 19.8274 3.61909L21.8658 1.5807C21.9488 1.49498 21.9488 1.35838 21.8658 1.27534ZM17.8854 9.12088L16.2944 10.7119L11.2908 5.70838L12.8819 4.1173C13.5488 3.45034 14.4381 3.0807 15.3837 3.0807C16.3292 3.0807 17.2158 3.44766 17.8854 4.1173C18.5524 4.78427 18.922 5.67355 18.922 6.61909C18.922 7.56463 18.5524 8.45123 17.8854 9.12088ZM12.7908 11.9334C12.7505 11.8935 12.6961 11.8711 12.6395 11.8711C12.5828 11.8711 12.5284 11.8935 12.4881 11.9334L10.7042 13.7173L8.28544 11.2986L10.072 9.51195C10.1551 9.42891 10.1551 9.2923 10.072 9.20927L9.09705 8.23427C9.05677 8.19439 9.00239 8.17202 8.94571 8.17202C8.88903 8.17202 8.83464 8.19439 8.79437 8.23427L7.00776 10.0209L5.85598 8.86909C5.83598 8.84908 5.81215 8.83331 5.78592 8.82272C5.75968 8.81214 5.73158 8.80695 5.7033 8.80748C5.64972 8.80748 5.59348 8.82891 5.55062 8.86909L2.82383 11.5986C0.978296 13.4468 0.761332 16.3048 2.17294 18.3887L0.134546 20.4271C0.0946671 20.4674 0.0722961 20.5218 0.0722961 20.5785C0.0722961 20.6351 0.0946671 20.6895 0.134546 20.7298L1.27026 21.8655C1.31312 21.9084 1.36669 21.9271 1.42294 21.9271C1.47919 21.9271 1.53276 21.9057 1.57562 21.8655L3.61401 19.8271C4.51669 20.4405 5.56669 20.7459 6.61669 20.7459C7.98812 20.7459 9.35955 20.2236 10.4069 19.1762L13.1363 16.4468C13.2194 16.3637 13.2194 16.2271 13.1363 16.1441L11.9845 14.9923L13.7712 13.2057C13.8542 13.1227 13.8542 12.9861 13.7712 12.903L12.7908 11.9334ZM9.1158 17.8905C8.78796 18.22 8.39807 18.4813 7.96866 18.6592C7.53925 18.8372 7.07882 18.9282 6.61401 18.9271C5.66847 18.9271 4.78187 18.5602 4.11223 17.8905C3.78271 17.5627 3.52144 17.1728 3.34352 16.7434C3.16559 16.314 3.07454 15.8535 3.07562 15.3887C3.07562 14.4432 3.44258 13.5566 4.11223 12.8869L5.7033 11.2959L10.7069 16.2994L9.1158 17.8905Z" fill="#595959"/>
</svg>
