<svg width="25" height="25" viewBox="0 0 25 25" fill="none" xmlns="http://www.w3.org/2000/svg">
<path class="cls-2-sidebar" d="M20.3375 7.82374H4.33746C3.23289 7.82374 2.33746 8.71917 2.33746 9.82374V19.8237C2.33746 20.9283 3.23289 21.8237 4.33746 21.8237H20.3375C21.442 21.8237 22.3375 20.9283 22.3375 19.8237V9.82374C22.3375 8.71917 21.442 7.82374 20.3375 7.82374Z" stroke="#7E7E7E" stroke-width="1.5" stroke-linecap="round" stroke-linejoin="round"/>
<path d="M16.3375 21.8237V5.82374C16.3375 5.29331 16.1267 4.7846 15.7517 4.40952C15.3766 4.03445 14.8679 3.82374 14.3375 3.82374H10.3375C9.80703 3.82374 9.29832 4.03445 8.92325 4.40952C8.54818 4.7846 8.33746 5.29331 8.33746 5.82374V21.8237" stroke="#7E7E7E" stroke-width="1.5" stroke-linecap="round" stroke-linejoin="round"/>
</svg>
