<svg xmlns="http://www.w3.org/2000/svg" width="32" height="32" viewBox="0 0 32 32">
    <defs>
        <style>
            .cls-1 {
            fill: #2967dd;
            }

            .cls-2 {
            fill: rgba(0,0,0,0);
            }

            .cls-3 {
            fill: #fff;
            }
        </style>
    </defs>
    <g id="_list_alt" data-name=" list_alt" transform="translate(-100 -1304)">
        <path id="Op_component_7" data-name="Op component 7" class="cls-1" d="M127,1308.333v21.333a1.337,1.337,0,0,1-1.333,1.333H104.333a1.337,1.337,0,0,1-1.333-1.333v-21.333a1.337,1.337,0,0,1,1.333-1.333h21.333A1.337,1.337,0,0,1,127,1308.333Z" transform="translate(1 1)"/>
        <rect id="Path" class="cls-2" width="32" height="32" transform="translate(100 1304)"/>
        <rect id="Op_component_1" data-name="Op component 1" class="cls-3" width="8" height="2.667" rx="1" transform="translate(114.667 1313.333)"/>
        <rect id="Op_component_2" data-name="Op component 2" class="cls-3" width="8" height="2.667" rx="1" transform="translate(114.667 1318.667)"/>
        <rect id="Op_component_3" data-name="Op component 3" class="cls-3" width="8" height="2.667" rx="1" transform="translate(114.667 1324)"/>
        <rect id="Op_component_4" data-name="Op component 4" class="cls-3" width="2.667" height="2.667" transform="translate(109.333 1313.333)"/>
        <rect id="Op_component_5" data-name="Op component 5" class="cls-3" width="2.667" height="2.667" transform="translate(109.333 1318.667)"/>
        <rect id="Op_component_6" data-name="Op component 6" class="cls-3" width="2.667" height="2.667" transform="translate(109.333 1324)"/>
    </g>
</svg>
