<svg width="18" height="18" viewBox="0 0 18 18" fill="none" xmlns="http://www.w3.org/2000/svg">
<path class="fill-color" d="M4.21967 13.2197C3.92678 13.5126 3.92678 13.9874 4.21967 14.2803C4.51256 14.5732 4.98744 14.5732 5.28033 14.2803L9.78033 9.78033C10.0732 9.48744 10.0732 9.01256 9.78033 8.71967L5.28033 4.21967C4.98744 3.92678 4.51256 3.92678 4.21967 4.21967C3.92678 4.51256 3.92678 4.98744 4.21967 5.28033L8.18934 9.25L4.21967 13.2197Z" fill="#4F4F4F"/>
<path class="fill-color" d="M8.21967 13.2197C7.92678 13.5126 7.92678 13.9874 8.21967 14.2803C8.51256 14.5732 8.98744 14.5732 9.28033 14.2803L13.7803 9.78033C14.0732 9.48744 14.0732 9.01256 13.7803 8.71967L9.28033 4.21967C8.98744 3.92678 8.51256 3.92678 8.21967 4.21967C7.92678 4.51256 7.92678 4.98744 8.21967 5.28033L12.1893 9.25L8.21967 13.2197Z" fill="#4F4F4F"/>
</svg>
