<svg width="24" height="24" viewBox="0 0 24 24" fill="none" xmlns="http://www.w3.org/2000/svg">
<g id="Loader/Loading 2/* Primary">
<path id="Combined Shape" fill-rule="evenodd" clip-rule="evenodd" d="M10.3743 8.11111C11.2603 8.11111 11.9786 7.41467 11.9786 6.55556C11.9786 5.69645 11.2603 5 10.3743 5C9.48831 5 8.77005 5.69645 8.77005 6.55556C8.77005 7.41467 9.48831 8.11111 10.3743 8.11111ZM16.5936 15.1111C17.9226 15.1111 19 14.0664 19 12.7778C19 11.4891 17.9226 10.4444 16.5936 10.4444C15.2646 10.4444 14.1872 11.4891 14.1872 12.7778C14.1872 14.0664 15.2646 15.1111 16.5936 15.1111ZM7.80749 9.58889C7.80749 10.2332 7.26879 10.7556 6.60428 10.7556C5.93976 10.7556 5.40107 10.2332 5.40107 9.58889C5.40107 8.94456 5.93976 8.42222 6.60428 8.42222C7.26879 8.42222 7.80749 8.94456 7.80749 9.58889ZM6.20321 15.1889C6.86772 15.1889 7.40642 14.6666 7.40642 14.0222C7.40642 13.3779 6.86772 12.8556 6.20321 12.8556C5.53869 12.8556 5 13.3779 5 14.0222C5 14.6666 5.53869 15.1889 6.20321 15.1889ZM10.3743 17.3667C10.3743 18.011 9.83564 18.5333 9.17112 18.5333C8.50661 18.5333 7.96791 18.011 7.96791 17.3667C7.96791 16.7223 8.50661 16.2 9.17112 16.2C9.83564 16.2 10.3743 16.7223 10.3743 17.3667ZM13.7433 19C14.4078 19 14.9465 18.4777 14.9465 17.8333C14.9465 17.189 14.4078 16.6667 13.7433 16.6667C13.0788 16.6667 12.5401 17.189 12.5401 17.8333C12.5401 18.4777 13.0788 19 13.7433 19ZM17.0936 7.53333C17.0936 8.60722 16.1958 9.47778 15.0882 9.47778C13.9807 9.47778 13.0829 8.60722 13.0829 7.53333C13.0829 6.45945 13.9807 5.58889 15.0882 5.58889C16.1958 5.58889 17.0936 6.45945 17.0936 7.53333Z" fill="#6563F0"/>
</g>
</svg>
