<svg width="14" height="4" viewBox="0 0 14 4" fill="none" xmlns="http://www.w3.org/2000/svg">
<path class="fill-color" d="M2.00001 0.333328C1.08334 0.333328 0.333344 1.08333 0.333344 1.99999C0.333344 2.91666 1.08334 3.66666 2.00001 3.66666C2.91668 3.66666 3.66668 2.91666 3.66668 1.99999C3.66668 1.08333 2.91668 0.333328 2.00001 0.333328ZM12 0.333328C11.0833 0.333328 10.3333 1.08333 10.3333 1.99999C10.3333 2.91666 11.0833 3.66666 12 3.66666C12.9167 3.66666 13.6667 2.91666 13.6667 1.99999C13.6667 1.08333 12.9167 0.333328 12 0.333328ZM7.00001 0.333328C6.08334 0.333328 5.33334 1.08333 5.33334 1.99999C5.33334 2.91666 6.08334 3.66666 7.00001 3.66666C7.91668 3.66666 8.66668 2.91666 8.66668 1.99999C8.66668 1.08333 7.91668 0.333328 7.00001 0.333328Z"/>
</svg>
