<svg width="43" height="18" viewBox="0 0 43 18" fill="none" xmlns="http://www.w3.org/2000/svg">
<path d="M2.73629 -4.48641e-07L6.76332 3.52609L6.75298 3.52609L10.7696 7.05221L13 8.99472L10.7696 10.9478L6.75298 14.4739L6.76332 14.4739L2.73629 18L9.18335e-08 14.1044L4.01669 10.5783L4.027 10.5783L5.83398 8.99472L4.027 7.4217L4.01669 7.4217L5.38535e-07 3.88505L2.73629 -4.48641e-07Z" fill="#D93865"/>
<path d="M17.7363 -4.48641e-07L21.7633 3.52609L21.753 3.52609L25.7696 7.05221L28 8.99472L25.7696 10.9478L21.753 14.4739L21.7633 14.4739L17.7363 18L15 14.1044L19.0167 10.5783L19.027 10.5783L20.834 8.99472L19.027 7.4217L19.0167 7.4217L15 3.88505L17.7363 -4.48641e-07Z" fill="#D93865"/>
<path d="M32.7363 -4.48641e-07L36.7633 3.52609L36.753 3.52609L40.7696 7.05221L43 8.99472L40.7696 10.9478L36.753 14.4739L36.7633 14.4739L32.7363 18L30 14.1044L34.0167 10.5783L34.027 10.5783L35.834 8.99472L34.027 7.4217L34.0167 7.4217L30 3.88505L32.7363 -4.48641e-07Z" fill="#D93865"/>
</svg>
