<svg width="14" height="14" viewBox="0 0 14 14" fill="none" xmlns="http://www.w3.org/2000/svg">
<path d="M7.37618 3.26563H6.62461C6.55586 3.26563 6.49961 3.32188 6.49961 3.39063V7.69219C6.49961 7.73282 6.51836 7.77032 6.55118 7.79375L9.13399 9.67969C9.19024 9.72032 9.26836 9.70938 9.30899 9.65313L9.75587 9.04375C9.79805 8.98594 9.78555 8.90781 9.7293 8.86875L7.50118 7.25782V3.39063C7.50118 3.32188 7.44493 3.26563 7.37618 3.26563ZM10.8106 4.44063L13.2606 5.03906C13.3387 5.05782 13.4152 4.99844 13.4152 4.91875L13.4277 2.39531C13.4277 2.29063 13.3074 2.23125 13.2262 2.29688L10.7637 4.22031C10.7451 4.23471 10.7309 4.25407 10.7228 4.27616C10.7147 4.29825 10.713 4.32218 10.7179 4.3452C10.7228 4.36821 10.7341 4.38938 10.7505 4.40626C10.7669 4.42314 10.7877 4.43505 10.8106 4.44063ZM13.4309 9.14532L12.5449 8.84063C12.514 8.83004 12.4802 8.83196 12.4507 8.84597C12.4212 8.85999 12.3984 8.88499 12.3871 8.91563C12.3574 8.99531 12.3262 9.07344 12.2934 9.15157C12.0152 9.80938 11.6168 10.4016 11.1074 10.9094C10.6037 11.4147 10.0067 11.8174 9.34962 12.0953C8.66888 12.3831 7.93713 12.5309 7.19805 12.5297C6.45118 12.5297 5.72774 12.3844 5.04649 12.0953C4.38936 11.8174 3.7924 11.4147 3.28868 10.9094C2.78086 10.4016 2.38243 9.80938 2.10274 9.15157C1.81652 8.47045 1.66987 7.73882 1.67149 7C1.67149 6.25313 1.8168 5.52813 2.10586 4.84688C2.38399 4.18906 2.78243 3.59688 3.2918 3.08906C3.79552 2.58378 4.39249 2.18103 5.04961 1.90313C5.72774 1.61406 6.45274 1.46875 7.19961 1.46875C7.94649 1.46875 8.66993 1.61406 9.35118 1.90313C10.0083 2.18103 10.6053 2.58378 11.109 3.08906C11.2684 3.25 11.4184 3.41719 11.5559 3.59375L12.4902 2.8625C11.2606 1.29063 9.34649 0.279689 7.19649 0.281252C3.45274 0.282814 0.44649 3.32344 0.48399 7.06875C0.52149 10.7484 3.51368 13.7188 7.19961 13.7188C10.0981 13.7188 12.5668 11.8813 13.5074 9.30782C13.5309 9.24219 13.4965 9.16875 13.4309 9.14532Z" fill="#262626"/>
</svg>
