<svg xmlns="http://www.w3.org/2000/svg" width="24" height="24" viewBox="0 0 24 24">
  <defs>
    <style>
      .cls-1-sidebar {
        fill: rgba(0,0,0,0);
      }

      .cls-2-sidebar {
        fill: #fff;
      }
    </style>
  </defs>
  <g id="_dashboard" data-name=" dashboard" transform="translate(-338 -242)">
    <rect id="Path" class="cls-1-sidebar" width="24" height="24" transform="translate(338 242)"/>
    <path id="Icon" class="cls-2-sidebar" d="M358,263h-6a1,1,0,0,1-1-1v-8a1,1,0,0,1,1-1h6a1,1,0,0,1,1,1v8A1,1,0,0,1,358,263Zm-10,0h-6a1,1,0,0,1-1-1v-4a1,1,0,0,1,1-1h6a1,1,0,0,1,1,1v4A1,1,0,0,1,348,263Zm0-8h-6a1,1,0,0,1-1-1v-8a1,1,0,0,1,1-1h6a1,1,0,0,1,1,1v8A1,1,0,0,1,348,255Zm10-4h-6a1,1,0,0,1-1-1v-4a1,1,0,0,1,1-1h6a1,1,0,0,1,1,1v4A1,1,0,0,1,358,251Z"/>
  </g>
</svg>
