<svg id="svg" version="1.1" xmlns="http://www.w3.org/2000/svg" xmlns:xlink="http://www.w3.org/1999/xlink" width="400" height="400" viewBox="0, 0, 400,400"><g id="svgg"><path id="path0" d="M325.466 67.927 C 324.859 68.598,324.800 71.008,324.800 95.309 L 324.800 121.955 323.911 122.577 C 323.123 123.129,319.022 123.201,287.811 123.210 C 264.030 123.216,252.081 123.358,251.000 123.648 C 250.120 123.884,248.320 124.254,247.000 124.470 C 245.680 124.685,243.880 125.200,243.000 125.614 C 242.120 126.028,240.860 126.490,240.200 126.642 C 239.540 126.793,238.522 127.250,237.938 127.658 C 237.354 128.066,236.624 128.400,236.316 128.400 C 236.008 128.400,235.145 128.850,234.400 129.400 C 233.655 129.950,232.818 130.400,232.542 130.400 C 232.266 130.400,231.896 130.629,231.720 130.910 C 231.544 131.190,230.926 131.720,230.347 132.088 C 227.930 133.623,221.867 140.159,220.600 142.595 C 220.160 143.441,219.465 144.778,219.055 145.567 C 218.646 146.355,218.156 147.058,217.968 147.129 C 217.779 147.200,217.509 147.920,217.368 148.729 C 217.226 149.538,216.854 150.609,216.540 151.109 C 216.226 151.609,215.787 153.049,215.564 154.309 C 215.341 155.569,214.853 157.500,214.479 158.600 C 213.858 160.429,213.800 164.018,213.800 200.600 L 213.800 240.600 214.700 243.102 C 215.195 244.477,215.606 246.187,215.613 246.902 C 215.620 247.616,215.893 248.554,216.221 248.988 C 216.548 249.421,217.009 250.501,217.245 251.388 C 217.481 252.274,217.910 253.270,218.197 253.600 C 218.485 253.930,219.015 254.830,219.375 255.600 C 220.436 257.871,221.302 259.373,221.798 259.800 C 222.053 260.020,222.874 261.010,223.624 262.000 C 225.335 264.260,226.522 265.449,228.800 267.185 C 229.790 267.939,230.922 268.881,231.316 269.278 C 231.709 269.675,232.266 270.000,232.554 270.000 C 232.841 270.000,233.402 270.360,233.800 270.800 C 234.198 271.240,234.832 271.600,235.208 271.600 C 235.584 271.600,236.336 271.949,236.878 272.375 C 237.420 272.802,238.389 273.280,239.032 273.439 C 239.674 273.598,240.830 274.044,241.600 274.430 C 242.370 274.817,243.972 275.258,245.161 275.412 C 246.350 275.566,247.970 275.979,248.761 276.331 C 251.795 277.678,319.652 277.443,321.308 276.080 C 321.579 275.857,322.700 275.551,323.800 275.399 C 324.900 275.247,326.430 274.809,327.200 274.425 C 327.970 274.042,329.129 273.597,329.776 273.437 C 330.422 273.278,331.440 272.799,332.037 272.373 C 332.635 271.948,333.386 271.600,333.708 271.600 C 334.029 271.600,334.721 271.265,335.246 270.855 C 335.771 270.445,336.605 269.983,337.100 269.828 C 337.595 269.673,338.000 269.383,338.000 269.183 C 338.000 268.984,338.585 268.522,339.300 268.156 C 340.015 267.791,340.744 267.246,340.920 266.946 C 341.096 266.646,341.407 266.400,341.611 266.400 C 342.095 266.400,346.400 262.095,346.400 261.611 C 346.400 261.407,346.671 261.088,347.002 260.903 C 347.334 260.717,348.229 259.583,348.991 258.383 C 349.754 257.182,350.653 255.848,350.989 255.419 C 351.325 254.989,351.600 254.314,351.600 253.919 C 351.600 253.523,351.950 252.850,352.378 252.422 C 352.805 251.995,353.283 250.963,353.439 250.130 C 353.596 249.298,354.055 248.073,354.460 247.408 C 354.865 246.744,355.198 245.703,355.199 245.096 C 355.199 244.488,355.560 242.373,356.001 240.396 C 356.790 236.853,356.800 235.560,356.701 152.100 L 356.600 67.400 341.366 67.295 C 327.006 67.197,326.094 67.233,325.466 67.927 M80.200 123.208 C 78.880 123.388,77.260 123.819,76.600 124.165 C 75.940 124.512,74.947 124.796,74.394 124.798 C 73.841 124.799,72.761 125.136,71.994 125.547 C 71.227 125.957,69.985 126.428,69.233 126.593 C 68.482 126.758,67.503 127.232,67.058 127.646 C 66.613 128.061,65.951 128.400,65.587 128.400 C 65.222 128.400,64.401 128.850,63.762 129.400 C 63.123 129.949,62.404 130.399,62.164 130.400 C 60.726 130.401,50.932 140.466,50.246 142.647 C 50.099 143.113,49.624 143.816,49.190 144.209 C 48.755 144.602,48.400 145.157,48.400 145.441 C 48.400 145.725,47.950 146.804,47.400 147.838 C 46.850 148.873,46.400 149.980,46.400 150.298 C 46.400 150.616,46.146 151.354,45.835 151.938 C 45.524 152.522,44.971 154.530,44.605 156.400 C 44.239 158.270,43.773 160.612,43.569 161.605 C 43.346 162.691,43.238 197.165,43.299 248.005 L 43.400 332.600 58.753 332.705 C 69.753 332.780,74.261 332.681,74.653 332.356 C 75.106 331.980,75.200 327.284,75.200 305.151 C 75.200 278.933,75.216 278.384,76.000 277.600 C 76.788 276.812,77.333 276.800,112.786 276.800 C 142.900 276.800,149.052 276.707,150.486 276.229 C 151.429 275.915,153.231 275.472,154.490 275.244 C 155.750 275.017,157.316 274.554,157.970 274.215 C 158.625 273.877,159.412 273.600,159.721 273.600 C 160.029 273.600,161.127 273.150,162.162 272.600 C 163.196 272.050,164.232 271.600,164.463 271.600 C 164.695 271.600,165.419 271.150,166.073 270.600 C 166.727 270.050,167.498 269.600,167.788 269.600 C 168.077 269.600,168.418 269.330,168.545 269.000 C 168.671 268.670,169.018 268.400,169.315 268.400 C 169.613 268.400,170.236 267.995,170.701 267.500 C 171.166 267.005,172.115 266.150,172.811 265.600 C 174.277 264.440,179.200 258.664,179.200 258.103 C 179.200 257.895,179.544 257.413,179.964 257.033 C 180.384 256.652,180.845 255.874,180.989 255.302 C 181.132 254.731,181.598 253.820,182.025 253.278 C 182.451 252.736,182.801 251.911,182.801 251.446 C 182.802 250.981,183.136 250.054,183.543 249.386 C 183.950 248.719,184.416 247.285,184.579 246.201 C 184.741 245.117,185.173 243.503,185.537 242.615 C 186.552 240.142,186.553 158.044,185.539 156.195 C 185.175 155.532,184.744 154.098,184.580 153.008 C 184.417 151.919,183.950 150.481,183.543 149.814 C 183.136 149.146,182.802 148.237,182.801 147.793 C 182.801 147.349,182.350 146.323,181.800 145.514 C 181.250 144.705,180.800 143.823,180.800 143.555 C 180.800 143.287,180.523 142.782,180.185 142.434 C 179.847 142.085,178.992 140.903,178.286 139.807 C 176.869 137.608,172.096 132.762,169.809 131.200 C 169.004 130.650,167.836 129.795,167.215 129.300 C 166.593 128.805,165.820 128.400,165.496 128.400 C 165.173 128.400,164.450 128.040,163.891 127.600 C 163.331 127.160,162.632 126.798,162.337 126.796 C 162.042 126.794,160.900 126.350,159.800 125.809 C 158.700 125.268,157.402 124.819,156.915 124.813 C 156.428 124.806,155.078 124.396,153.915 123.902 L 151.800 123.004 117.200 122.942 C 98.170 122.907,81.520 123.027,80.200 123.208 M148.185 155.500 C 149.056 155.995,149.963 156.400,150.199 156.400 C 150.821 156.400,153.194 159.609,153.447 160.793 C 153.565 161.347,153.873 162.232,154.131 162.761 C 154.787 164.104,154.807 235.618,154.152 236.439 C 153.906 236.747,153.589 237.630,153.448 238.400 C 153.295 239.238,152.672 240.282,151.896 241.001 C 147.657 244.929,149.282 244.783,109.699 244.809 L 76.600 244.831 75.891 243.959 C 74.978 242.838,75.028 165.729,75.944 162.342 C 76.408 160.628,79.659 156.400,80.514 156.400 C 80.685 156.400,81.495 156.095,82.313 155.722 C 83.131 155.349,84.160 154.914,84.600 154.756 C 85.040 154.597,99.170 154.497,116.000 154.534 L 146.600 154.600 148.185 155.500 M323.971 155.854 C 324.952 157.101,325.299 230.009,324.351 235.567 C 323.926 238.057,321.953 242.000,321.133 242.000 C 320.950 242.000,320.463 242.337,320.051 242.749 C 319.639 243.161,318.064 243.926,316.551 244.449 L 313.800 245.400 285.400 245.513 C 261.472 245.608,256.717 245.535,255.200 245.047 C 254.210 244.728,252.643 244.267,251.718 244.023 C 249.534 243.446,247.489 240.989,246.332 237.554 C 244.136 231.032,245.436 161.479,247.786 159.761 C 248.124 159.514,248.400 159.113,248.400 158.870 C 248.400 158.627,248.801 158.213,249.292 157.951 C 249.782 157.688,250.410 157.248,250.686 156.971 C 250.962 156.695,252.046 156.285,253.094 156.059 C 254.142 155.834,255.450 155.470,256.000 155.250 C 256.636 154.996,269.043 154.841,290.071 154.825 L 323.142 154.800 323.971 155.854 " stroke="none" fill="#f9fbfa" fill-rule="evenodd"></path><path id="path1" d="M0.000 200.000 L 0.000 400.000 200.000 400.000 L 400.000 400.000 400.000 200.000 L 400.000 0.000 200.000 0.000 L 0.000 0.000 0.000 200.000 M357.400 64.400 C 357.400 64.921,355.349 65.015,341.800 65.115 C 325.153 65.238,323.224 65.136,324.023 64.172 C 324.759 63.285,357.400 63.508,357.400 64.400 M323.200 92.885 C 323.373 69.900,323.480 66.320,324.000 65.991 C 325.109 65.291,357.191 65.491,357.413 66.200 C 358.007 68.103,358.139 68.185,358.379 66.800 C 358.608 65.479,358.648 65.448,359.096 66.247 C 359.804 67.509,359.873 242.190,359.166 243.041 C 358.301 244.084,358.017 242.881,357.930 237.800 L 357.847 233.000 357.624 238.116 C 357.451 242.053,357.262 243.317,356.800 243.604 C 356.292 243.920,356.338 244.075,357.100 244.611 C 358.295 245.453,358.359 248.281,357.213 249.656 L 356.427 250.600 356.357 247.600 C 356.290 244.716,356.278 244.680,356.036 246.667 C 355.897 247.804,355.473 249.078,355.092 249.498 C 354.114 250.579,354.233 251.121,355.400 250.898 C 356.248 250.736,356.400 250.857,356.400 251.695 C 356.400 252.238,355.950 253.169,355.400 253.762 C 354.850 254.356,354.400 255.239,354.400 255.724 C 354.400 256.210,354.040 256.832,353.600 257.107 C 352.850 257.576,352.800 257.507,352.800 256.003 C 352.800 254.667,352.933 254.400,353.600 254.400 C 354.262 254.400,354.396 254.142,354.375 252.900 C 354.352 251.570,354.307 251.505,353.978 252.325 C 353.774 252.834,353.336 253.521,353.004 253.853 C 352.672 254.185,352.400 254.900,352.400 255.441 C 352.400 255.982,352.146 256.522,351.837 256.641 C 351.527 256.760,351.053 257.389,350.784 258.038 C 350.515 258.688,350.004 259.389,349.648 259.597 C 349.099 259.918,349.133 259.978,349.872 259.988 C 350.477 259.996,350.784 259.724,350.872 259.100 C 351.034 257.962,352.800 257.557,352.800 258.658 C 352.800 259.051,352.395 259.792,351.900 260.306 C 349.747 262.540,347.782 264.390,347.555 264.395 C 346.947 264.407,347.763 262.451,348.440 262.274 C 348.875 262.160,349.200 261.724,349.200 261.256 C 349.200 260.325,347.586 261.617,347.071 262.960 C 346.936 263.312,346.570 263.600,346.259 263.600 C 345.948 263.600,345.596 263.973,345.476 264.430 C 345.357 264.886,344.886 265.357,344.430 265.476 C 343.973 265.596,343.600 265.947,343.600 266.257 C 343.600 266.566,343.175 266.982,342.655 267.179 C 342.135 267.377,341.600 267.823,341.467 268.169 C 341.334 268.516,340.956 268.800,340.627 268.800 C 340.297 268.800,339.837 269.158,339.603 269.595 C 339.368 270.033,338.687 270.512,338.088 270.660 C 337.490 270.808,336.779 271.239,336.510 271.618 C 336.240 271.997,335.385 272.426,334.610 272.572 C 333.834 272.717,333.200 272.981,333.200 273.157 C 333.200 273.333,332.795 273.673,332.300 273.912 L 331.400 274.346 332.276 274.373 C 334.099 274.429,333.347 276.400,331.503 276.400 C 331.041 276.400,330.359 276.676,329.986 277.012 C 328.777 278.107,325.200 278.289,325.200 277.256 C 325.200 276.469,325.410 276.400,327.800 276.400 C 330.096 276.400,330.400 276.310,330.400 275.633 C 330.400 275.212,330.625 274.776,330.900 274.665 C 331.175 274.554,331.004 274.449,330.520 274.432 C 330.036 274.414,329.487 274.674,329.299 275.008 C 329.103 275.358,327.970 275.777,326.624 275.996 C 325.340 276.205,323.996 276.642,323.637 276.967 C 323.249 277.318,321.933 277.616,320.392 277.701 C 318.043 277.832,318.128 277.853,321.300 277.923 C 326.750 278.043,325.600 279.584,319.970 279.704 C 316.856 279.770,314.877 279.005,316.599 278.400 C 316.913 278.290,302.676 278.200,284.961 278.200 C 267.246 278.200,253.168 278.311,253.676 278.447 C 255.861 279.030,251.821 280.052,248.478 279.762 C 242.971 279.283,242.849 278.027,248.300 277.932 L 252.200 277.865 249.000 277.613 C 247.167 277.469,245.287 277.072,244.600 276.683 C 243.940 276.310,242.723 276.004,241.896 276.002 C 240.889 276.001,240.166 275.736,239.707 275.200 C 238.754 274.087,238.070 274.184,238.302 275.400 C 238.541 276.650,236.912 276.829,235.861 275.668 C 235.077 274.801,235.351 274.409,236.767 274.375 L 237.800 274.349 236.875 273.978 C 236.366 273.774,235.679 273.336,235.347 273.004 C 235.015 272.672,234.397 272.400,233.975 272.400 C 233.552 272.400,232.982 272.040,232.707 271.600 C 232.432 271.160,231.960 270.800,231.657 270.800 C 231.091 270.800,229.412 269.496,226.612 266.882 C 224.137 264.571,223.600 264.232,223.600 264.977 C 223.600 265.333,223.943 265.600,224.400 265.600 C 224.933 265.600,225.200 265.867,225.200 266.400 C 225.200 266.937,225.467 267.200,226.010 267.200 C 226.506 267.200,226.967 267.588,227.200 268.200 C 227.433 268.812,227.894 269.200,228.390 269.200 C 228.915 269.200,229.200 269.464,229.200 269.950 C 229.200 270.456,229.574 270.775,230.348 270.930 C 231.051 271.070,231.579 271.477,231.711 271.980 C 231.875 272.610,232.250 272.800,233.325 272.800 C 234.528 272.800,234.696 272.913,234.516 273.600 C 234.225 274.713,232.879 274.608,231.929 273.400 C 231.496 272.850,230.801 272.400,230.385 272.400 C 229.969 272.400,229.435 272.040,229.200 271.600 C 228.965 271.160,228.418 270.800,227.986 270.800 C 227.549 270.800,227.200 270.530,227.200 270.191 C 227.200 269.857,226.750 269.378,226.200 269.127 C 225.650 268.877,225.200 268.414,225.200 268.098 C 225.200 267.783,224.840 267.431,224.400 267.316 C 223.960 267.201,223.600 266.841,223.600 266.516 C 223.600 266.191,223.226 265.827,222.769 265.708 C 222.312 265.588,221.777 265.065,221.579 264.545 C 221.382 264.025,220.945 263.600,220.610 263.600 C 220.274 263.600,220.000 263.328,220.000 262.996 C 220.000 262.664,219.640 262.084,219.200 261.707 C 218.265 260.906,218.101 258.800,218.975 258.800 C 219.331 258.800,219.597 259.295,219.675 260.100 C 219.773 261.122,220.005 261.429,220.757 261.535 L 221.714 261.671 220.857 260.581 C 220.386 259.982,220.000 259.290,220.000 259.042 C 220.000 258.795,219.640 258.368,219.200 258.093 C 218.760 257.818,218.400 257.259,218.400 256.851 C 218.400 256.442,218.067 255.679,217.660 255.154 C 217.253 254.629,216.817 253.930,216.691 253.600 C 216.553 253.235,216.451 253.405,216.432 254.033 C 216.388 255.451,215.998 255.723,215.132 254.939 C 213.971 253.888,214.150 252.259,215.400 252.498 C 216.533 252.715,216.691 252.184,215.789 251.188 C 215.452 250.816,215.022 249.722,214.833 248.756 L 214.488 247.000 214.431 249.600 L 214.373 252.200 213.587 251.256 C 213.081 250.649,212.800 249.715,212.800 248.645 C 212.800 247.520,212.560 246.772,212.062 246.346 C 210.664 245.149,210.572 237.200,211.957 237.200 C 212.164 237.200,212.393 237.380,212.467 237.599 C 212.540 237.819,212.600 221.276,212.600 200.837 C 212.600 180.399,212.472 163.882,212.317 164.135 C 211.261 165.843,210.472 159.197,211.336 155.872 C 211.932 153.577,212.596 154.988,212.823 159.032 L 213.045 163.000 213.123 159.329 C 213.178 156.680,213.367 155.490,213.800 155.057 C 214.582 154.275,214.558 154.135,213.600 153.884 C 212.496 153.596,212.488 150.863,213.587 149.544 L 214.373 148.600 214.434 151.200 L 214.494 153.800 214.824 151.829 C 215.006 150.745,215.434 149.701,215.777 149.509 C 216.667 149.011,216.547 148.436,215.605 148.683 C 214.052 149.089,214.055 146.345,215.610 144.790 C 216.045 144.355,216.400 143.766,216.400 143.480 C 216.400 142.904,217.182 142.000,217.680 142.000 C 218.429 142.000,217.988 144.310,217.200 144.516 C 216.594 144.674,216.406 145.049,216.425 146.063 C 216.448 147.265,216.487 147.309,216.812 146.500 C 217.011 146.005,217.352 145.600,217.569 145.600 C 217.786 145.600,218.083 144.965,218.228 144.189 C 218.374 143.413,218.832 142.597,219.247 142.375 C 219.661 142.153,220.000 141.706,220.000 141.382 C 220.000 141.058,220.360 140.484,220.800 140.107 C 221.240 139.730,221.600 139.222,221.600 138.978 C 221.600 137.876,230.734 129.600,231.950 129.600 C 232.121 129.600,232.683 129.150,233.200 128.600 C 233.717 128.050,234.530 127.600,235.008 127.600 C 235.485 127.600,236.193 127.250,236.580 126.823 C 236.967 126.395,237.759 125.972,238.342 125.882 C 239.035 125.776,238.814 125.699,237.700 125.660 C 235.170 125.571,235.627 124.534,238.500 123.848 C 239.478 123.614,239.600 123.696,239.600 124.592 C 239.600 125.756,239.868 125.843,240.814 124.988 C 241.186 124.651,242.429 124.264,243.576 124.128 C 244.723 123.992,245.950 123.593,246.302 123.241 C 246.772 122.769,248.060 122.539,251.171 122.368 L 255.400 122.136 250.414 122.068 C 245.666 122.003,245.462 121.967,246.128 121.300 C 247.285 120.142,254.119 120.041,255.631 121.160 C 256.764 121.997,256.881 122.000,288.976 122.000 L 321.184 122.000 321.292 94.461 C 321.385 70.680,321.482 66.824,322.000 66.200 C 322.535 65.555,322.622 68.400,322.800 92.438 L 323.000 119.400 323.200 92.885 M147.300 119.385 C 151.234 120.179,146.490 120.326,116.300 120.343 C 85.008 120.361,80.907 120.228,83.200 119.264 C 84.361 118.775,144.848 118.889,147.300 119.385 M80.893 121.200 C 81.490 122.157,81.940 122.192,83.454 121.402 C 85.181 120.502,144.107 120.500,146.262 121.400 C 148.268 122.238,149.462 122.169,149.716 121.200 C 150.103 119.721,156.800 120.175,156.800 121.680 C 156.800 121.856,155.225 122.030,153.300 122.066 L 149.800 122.132 152.830 122.366 C 154.947 122.529,156.071 122.811,156.559 123.300 C 156.943 123.685,157.649 123.975,158.129 123.946 C 158.993 123.892,158.992 123.890,158.100 123.718 C 157.064 123.518,156.898 122.601,157.833 122.243 C 159.011 121.791,160.307 121.997,161.256 122.787 L 162.200 123.573 160.924 123.587 C 160.222 123.594,159.536 123.780,159.400 124.000 C 159.259 124.227,159.600 124.400,160.189 124.400 C 160.759 124.400,161.329 124.670,161.455 125.000 C 161.788 125.867,162.400 125.737,162.400 124.800 C 162.400 124.221,162.667 124.000,163.367 124.000 C 165.734 124.000,166.641 125.580,164.300 125.625 C 163.031 125.650,163.024 125.660,163.997 126.048 C 164.545 126.267,165.139 126.706,165.317 127.023 C 165.833 127.946,166.306 127.690,166.098 126.600 C 165.856 125.333,167.060 125.224,168.456 126.387 L 169.400 127.173 168.045 127.187 L 166.690 127.200 168.245 128.369 C 169.100 129.012,170.179 129.912,170.642 130.369 C 171.105 130.826,171.684 131.200,171.928 131.200 C 172.172 131.200,172.565 131.560,172.800 132.000 C 173.035 132.440,173.480 132.800,173.787 132.800 C 174.095 132.800,174.457 133.151,174.594 133.580 C 174.730 134.008,175.192 134.470,175.620 134.606 C 176.049 134.743,176.400 135.046,176.400 135.281 C 176.400 135.516,176.850 136.125,177.400 136.635 C 178.169 137.348,178.400 137.419,178.400 136.943 C 178.400 136.603,178.058 136.236,177.640 136.126 C 176.937 135.943,176.262 134.271,176.710 133.823 C 177.000 133.534,180.400 136.878,180.400 137.453 C 180.400 137.724,180.760 138.060,181.200 138.200 C 181.711 138.362,182.000 138.805,182.000 139.427 C 182.000 139.962,182.189 140.400,182.420 140.400 C 182.652 140.400,183.112 141.048,183.443 141.841 C 183.774 142.633,184.395 143.657,184.822 144.116 C 185.888 145.260,185.874 147.200,184.800 147.200 C 184.120 147.200,184.000 146.933,184.000 145.428 C 184.000 143.895,183.879 143.638,183.100 143.528 C 182.377 143.425,182.176 143.105,182.076 141.900 C 181.980 140.745,181.780 140.400,181.202 140.400 C 180.682 140.400,180.414 140.063,180.327 139.300 C 180.234 138.500,179.946 138.164,179.268 138.068 C 178.391 137.944,178.374 137.979,178.993 138.668 C 179.916 139.696,181.600 142.364,181.600 142.797 C 181.600 142.996,182.050 143.644,182.600 144.238 C 183.150 144.831,183.600 145.716,183.600 146.204 C 183.600 146.693,183.946 147.532,184.369 148.070 C 184.792 148.607,185.213 149.667,185.305 150.424 C 185.431 151.460,185.488 151.282,185.536 149.700 C 185.609 147.310,186.186 146.991,186.984 148.900 C 187.689 150.588,187.363 152.400,186.353 152.400 C 185.447 152.400,185.380 152.920,186.200 153.600 C 186.530 153.874,186.803 154.571,186.806 155.149 C 186.809 155.727,186.987 156.470,187.200 156.800 C 187.475 157.225,187.590 156.715,187.594 155.051 C 187.599 153.062,187.688 152.775,188.171 153.176 C 188.823 153.717,189.420 158.270,189.038 159.791 C 188.621 161.453,187.666 161.026,187.493 159.100 C 187.341 157.413,187.339 157.415,187.287 159.400 C 187.259 160.500,187.495 162.120,187.812 163.000 C 188.534 165.006,188.699 233.493,187.985 234.829 C 187.756 235.255,187.509 236.728,187.436 238.102 C 187.362 239.476,187.378 239.944,187.472 239.141 C 187.591 238.118,187.875 237.621,188.421 237.479 C 189.186 237.279,189.200 236.600,189.200 199.557 C 189.200 169.383,189.300 161.940,189.700 162.340 C 190.383 163.023,190.436 236.780,189.754 237.639 C 189.509 237.947,189.203 239.770,189.075 241.688 C 188.738 246.711,187.875 248.051,187.586 244.000 L 187.372 241.000 187.035 243.093 C 186.850 244.244,186.452 245.391,186.149 245.642 C 185.375 246.285,185.467 246.800,186.357 246.800 C 187.719 246.800,187.577 250.858,186.173 252.022 C 185.858 252.284,185.600 252.898,185.600 253.387 C 185.600 254.919,184.103 255.952,183.776 254.646 L 183.514 253.602 182.782 254.532 C 182.379 255.044,181.928 255.946,181.780 256.537 C 181.632 257.127,181.216 257.782,180.855 257.993 C 180.305 258.314,180.351 258.378,181.143 258.388 C 182.206 258.402,182.108 260.028,180.974 261.186 C 180.473 261.697,180.396 261.569,180.368 260.186 C 180.351 259.314,180.236 258.870,180.113 259.200 C 179.479 260.904,172.731 267.955,170.700 269.035 C 170.095 269.357,169.600 269.796,169.600 270.010 C 169.600 270.225,169.285 270.414,168.900 270.432 C 168.465 270.451,168.623 270.617,169.316 270.870 L 170.433 271.278 169.555 272.039 C 168.278 273.146,167.462 273.032,167.702 271.779 L 167.897 270.757 167.023 271.579 C 166.542 272.030,165.762 272.400,165.290 272.400 C 164.818 272.400,164.109 272.735,163.716 273.145 C 163.322 273.555,162.730 273.991,162.400 274.114 C 162.051 274.244,162.248 274.350,162.873 274.368 C 163.612 274.390,164.025 274.151,164.200 273.600 C 164.455 272.796,167.600 272.352,167.600 273.120 C 167.600 273.752,166.621 274.400,165.666 274.400 C 165.130 274.400,164.275 274.850,163.765 275.400 C 162.479 276.788,160.894 276.748,160.727 275.324 C 160.608 274.316,160.558 274.291,159.930 274.923 C 159.561 275.294,158.301 275.757,157.130 275.952 L 155.000 276.306 157.800 276.367 L 160.600 276.427 159.656 277.213 C 158.289 278.352,154.800 278.343,154.800 277.200 C 154.800 276.285,154.384 276.175,153.661 276.900 C 153.387 277.175,151.776 277.505,150.081 277.634 L 147.000 277.868 150.000 277.940 C 151.650 277.980,153.249 278.170,153.554 278.363 C 155.369 279.512,146.821 280.310,144.800 279.181 L 143.800 278.622 145.200 278.363 C 145.970 278.221,131.210 278.126,112.400 278.150 L 78.200 278.195 110.322 278.300 C 131.480 278.369,142.360 278.540,142.199 278.802 C 142.039 279.060,130.954 279.200,110.626 279.200 L 79.300 279.200 79.050 280.450 C 78.913 281.137,78.800 293.096,78.800 307.024 C 78.800 322.510,78.648 332.747,78.410 333.374 C 77.290 336.320,77.191 333.905,77.295 306.038 C 77.353 290.439,77.265 277.760,77.100 277.862 C 76.935 277.964,76.800 290.422,76.800 305.547 C 76.800 326.917,76.689 333.199,76.300 333.729 C 75.841 334.355,74.451 334.402,59.200 334.305 L 42.600 334.200 42.499 246.046 L 42.398 157.891 43.269 156.148 C 43.747 155.190,44.018 154.284,43.869 154.136 C 43.721 153.988,43.600 154.077,43.600 154.333 C 43.600 154.590,43.240 154.800,42.800 154.800 C 42.002 154.800,42.000 155.067,42.000 244.600 C 42.000 293.990,41.849 334.400,41.664 334.400 C 40.431 334.400,40.400 332.236,40.400 244.728 C 40.400 159.808,40.423 157.056,41.149 155.847 C 41.560 155.161,42.006 153.621,42.139 152.424 C 42.513 149.048,43.588 148.325,43.639 151.414 L 43.679 153.800 44.139 152.151 C 44.393 151.245,44.847 150.210,45.149 149.851 C 45.614 149.299,45.614 149.199,45.149 149.194 C 43.906 149.180,43.605 148.614,44.028 147.082 C 44.608 144.984,45.588 145.116,45.641 147.300 L 45.682 149.000 46.003 147.637 C 46.180 146.887,46.612 146.113,46.962 145.917 C 47.313 145.721,47.600 145.119,47.600 144.580 C 47.600 144.041,47.944 143.256,48.365 142.835 C 49.119 142.081,49.117 142.066,48.202 141.836 C 47.082 141.555,47.246 140.186,48.437 139.874 C 49.042 139.716,49.207 139.896,49.232 140.737 C 49.251 141.378,49.355 141.562,49.495 141.200 C 49.622 140.870,50.058 140.365,50.463 140.077 C 50.868 139.790,51.200 139.365,51.200 139.134 C 51.200 138.626,52.274 137.376,55.200 134.479 C 58.114 131.594,58.584 131.200,59.119 131.200 C 59.368 131.200,59.765 130.840,60.000 130.400 C 60.235 129.960,60.666 129.600,60.956 129.600 C 61.246 129.600,61.969 129.150,62.562 128.600 C 63.156 128.050,64.039 127.600,64.524 127.600 C 65.010 127.600,65.624 127.253,65.889 126.830 C 66.153 126.406,66.781 125.981,67.285 125.884 C 67.870 125.772,67.659 125.689,66.700 125.654 C 64.340 125.569,65.079 124.000,67.480 124.000 C 68.533 124.000,68.800 124.162,68.800 124.800 C 68.800 125.737,69.412 125.867,69.745 125.000 C 69.871 124.670,70.441 124.400,71.011 124.400 C 71.600 124.400,71.941 124.227,71.800 124.000 C 71.664 123.780,70.985 123.600,70.291 123.600 C 68.300 123.600,69.842 122.365,72.159 122.103 C 74.215 121.872,75.071 123.338,73.100 123.718 C 72.283 123.875,72.296 123.896,73.238 123.946 C 73.817 123.976,74.589 123.654,74.984 123.218 C 75.504 122.643,76.343 122.398,78.146 122.295 C 80.467 122.162,80.427 122.149,77.400 122.064 L 74.200 121.973 75.144 121.187 C 76.495 120.062,80.187 120.070,80.893 121.200 M245.200 122.800 C 245.200 123.519,244.933 123.600,242.551 123.600 C 240.291 123.600,239.972 123.515,240.380 123.024 C 241.379 121.821,245.200 121.643,245.200 122.800 M65.200 126.400 C 65.200 127.066,64.933 127.200,63.608 127.200 C 62.243 127.200,61.979 127.343,61.764 128.200 C 61.584 128.918,61.243 129.200,60.557 129.200 C 59.867 129.200,59.600 129.423,59.600 130.000 C 59.600 130.660,59.338 130.798,58.100 130.787 L 56.600 130.773 57.600 129.991 C 58.150 129.560,58.966 128.846,59.414 128.404 C 59.862 127.962,60.421 127.600,60.656 127.600 C 60.891 127.600,61.569 127.150,62.162 126.600 C 63.503 125.357,65.200 125.246,65.200 126.400 M236.000 126.400 C 236.000 127.081,235.733 127.200,234.200 127.200 C 232.547 127.200,232.400 127.281,232.400 128.200 C 232.400 129.044,232.213 129.200,231.200 129.200 C 230.540 129.200,230.000 129.125,230.000 129.033 C 230.000 128.435,230.562 127.600,230.965 127.600 C 231.229 127.600,232.055 127.150,232.800 126.600 C 234.481 125.360,236.000 125.265,236.000 126.400 M171.200 128.259 C 171.200 128.570,171.515 128.935,171.900 129.069 C 172.576 129.305,175.726 132.409,175.508 132.624 C 175.066 133.057,173.200 132.191,173.200 131.553 C 173.200 131.016,172.913 130.800,172.200 130.800 C 171.467 130.800,171.200 130.587,171.200 130.000 C 171.200 129.475,170.933 129.200,170.424 129.200 C 169.516 129.200,169.041 128.592,169.340 127.812 C 169.611 127.107,171.200 127.489,171.200 128.259 M229.200 130.200 C 229.200 130.573,228.822 130.800,228.200 130.800 C 227.400 130.800,227.200 131.000,227.200 131.800 C 227.200 132.530,226.986 132.800,226.408 132.800 C 225.896 132.800,225.526 133.154,225.364 133.800 C 225.207 134.426,224.830 134.800,224.357 134.800 C 223.867 134.800,223.600 135.082,223.600 135.600 C 223.600 136.187,223.333 136.400,222.600 136.400 C 221.800 136.400,221.600 136.600,221.600 137.400 C 221.600 138.004,221.372 138.400,221.024 138.400 C 220.046 138.400,219.925 137.656,220.783 136.922 C 221.232 136.537,221.600 135.931,221.600 135.575 C 221.600 135.220,222.050 134.723,222.600 134.473 C 223.150 134.222,223.600 133.743,223.600 133.409 C 223.600 133.074,223.939 132.800,224.353 132.800 C 224.770 132.800,225.200 132.443,225.315 132.002 C 225.430 131.563,225.856 131.082,226.262 130.932 C 226.668 130.783,227.144 130.422,227.320 130.130 C 227.757 129.405,229.200 129.459,229.200 130.200 M56.400 132.000 C 56.400 132.533,56.133 132.800,55.600 132.800 C 54.693 132.800,54.575 132.385,55.280 131.680 C 55.985 130.975,56.400 131.093,56.400 132.000 M54.400 133.600 C 54.400 134.133,54.133 134.400,53.600 134.400 C 52.693 134.400,52.575 133.985,53.280 133.280 C 53.985 132.575,54.400 132.693,54.400 133.600 M52.800 135.600 C 52.800 136.133,52.533 136.400,52.000 136.400 C 51.119 136.400,51.091 136.350,51.443 135.433 C 51.791 134.526,52.800 134.651,52.800 135.600 M50.800 138.200 C 50.800 139.178,50.619 139.600,50.200 139.600 C 49.474 139.600,49.390 137.970,50.080 137.280 C 50.764 136.596,50.800 136.643,50.800 138.200 M219.600 140.400 C 219.600 141.333,219.422 141.600,218.800 141.600 C 217.843 141.600,217.756 140.701,218.629 139.829 C 219.495 138.962,219.600 139.024,219.600 140.400 M47.200 143.800 C 47.200 144.933,47.048 145.200,46.400 145.200 C 45.518 145.200,45.364 144.389,46.014 143.174 C 46.657 141.972,47.200 142.259,47.200 143.800 M86.800 156.066 C 86.250 156.295,84.900 156.621,83.800 156.791 C 82.700 156.961,96.920 157.101,115.400 157.101 C 136.034 157.102,148.074 156.968,146.600 156.754 C 145.280 156.563,143.678 156.225,143.040 156.003 C 141.429 155.443,88.156 155.503,86.800 156.066 M270.530 157.100 C 280.172 157.160,295.832 157.160,305.330 157.100 C 314.829 157.040,306.940 156.991,287.800 156.991 C 268.660 156.991,260.889 157.040,270.530 157.100 M80.493 158.000 C 80.218 158.440,79.725 158.800,79.397 158.800 C 79.068 158.800,78.800 159.132,78.800 159.538 C 78.800 159.944,78.440 160.602,78.000 161.000 C 76.993 161.911,76.981 162.400,77.965 162.400 C 78.543 162.400,78.794 162.016,78.996 160.825 C 79.220 159.499,79.447 159.209,80.431 158.993 C 81.228 158.818,81.600 158.492,81.600 157.968 C 81.600 156.975,81.124 156.989,80.493 158.000 M149.200 157.984 C 149.200 158.464,149.462 158.800,149.837 158.800 C 150.188 158.800,150.565 159.143,150.674 159.563 C 150.784 159.983,151.234 160.420,151.674 160.535 C 152.452 160.739,152.454 160.721,151.749 159.872 C 149.832 157.567,149.200 157.099,149.200 157.984 M251.656 158.033 C 250.734 158.782,250.731 158.800,251.556 158.800 C 252.769 158.800,252.605 159.369,250.900 161.073 L 249.400 162.573 249.400 200.322 L 249.400 238.071 250.248 238.758 C 251.663 239.903,251.864 241.200,250.627 241.200 C 249.788 241.200,249.600 241.010,249.600 240.163 C 249.600 239.471,249.340 239.057,248.821 238.922 C 248.393 238.810,247.964 238.421,247.868 238.059 C 247.747 237.605,247.678 237.675,247.646 238.286 C 247.620 238.797,247.939 239.353,248.400 239.600 C 248.840 239.835,249.200 240.247,249.200 240.514 C 249.200 240.781,249.875 241.540,250.700 242.200 L 252.200 243.400 280.800 243.533 C 313.813 243.686,317.049 243.569,318.681 242.160 C 319.296 241.630,320.115 241.094,320.500 240.971 C 321.333 240.703,321.437 240.000,320.643 240.000 C 320.336 240.000,319.982 240.270,319.855 240.600 C 319.729 240.930,319.243 241.200,318.775 241.200 C 318.262 241.200,317.842 241.517,317.716 242.000 C 317.409 243.175,251.600 243.275,251.600 242.100 C 251.600 241.438,253.210 241.407,280.900 241.535 C 309.673 241.668,317.600 241.498,317.600 240.749 C 317.600 240.239,320.270 237.600,320.787 237.600 C 321.014 237.600,321.200 238.064,321.200 238.631 L 321.200 239.661 322.229 238.439 C 322.887 237.657,323.195 236.889,323.083 236.308 C 322.936 235.540,322.901 235.574,322.854 236.529 C 322.814 237.375,322.624 237.625,322.100 237.524 C 321.440 237.397,321.394 235.153,321.298 198.095 L 321.196 158.800 287.185 158.800 C 254.035 158.800,253.167 158.781,252.887 158.033 C 252.604 157.278,252.586 157.278,251.656 158.033 M85.400 158.498 C 82.081 159.027,82.282 158.922,80.554 161.030 L 79.000 162.926 79.000 201.963 L 79.000 241.000 113.100 241.102 C 146.867 241.203,147.200 241.212,147.200 242.002 C 147.200 242.793,146.901 242.800,112.424 242.800 C 86.516 242.800,77.574 242.918,77.361 243.263 C 77.160 243.588,77.363 243.649,78.037 243.468 C 78.567 243.327,94.338 243.208,113.084 243.205 C 145.998 243.200,147.193 243.174,147.884 242.443 C 148.278 242.027,148.960 241.598,149.400 241.490 C 149.852 241.378,149.533 241.273,148.667 241.246 C 146.877 241.192,146.863 240.582,148.628 239.546 C 150.262 238.588,150.397 238.629,150.425 240.100 C 150.447 241.220,150.498 241.283,150.792 240.556 C 150.980 240.091,151.418 239.602,151.767 239.468 C 152.871 239.045,152.525 238.087,151.350 238.312 C 150.324 238.508,150.306 238.476,150.596 236.956 C 150.759 236.100,150.978 220.370,151.082 202.000 C 151.284 166.286,151.095 161.075,149.582 160.594 C 149.180 160.467,148.794 160.066,148.724 159.703 C 148.447 158.262,144.312 158.062,115.400 158.090 C 99.953 158.104,86.743 158.284,85.400 158.498 M322.992 195.600 C 322.992 216.170,323.040 224.585,323.100 214.300 C 323.159 204.015,323.159 187.185,323.100 176.900 C 323.040 166.615,322.992 175.030,322.992 195.600 M249.200 159.738 C 249.200 160.034,248.840 160.602,248.400 161.000 C 247.960 161.398,247.614 162.011,247.632 162.362 C 247.652 162.775,247.734 162.824,247.865 162.500 C 247.976 162.225,248.412 162.000,248.833 162.000 C 249.443 162.000,249.600 161.713,249.600 160.600 C 249.600 159.830,249.510 159.200,249.400 159.200 C 249.290 159.200,249.200 159.442,249.200 159.738 M76.992 202.800 C 76.992 224.910,77.041 233.955,77.100 222.900 C 77.159 211.845,77.159 193.755,77.100 182.700 C 77.041 171.645,76.992 180.690,76.992 202.800 M152.592 199.600 C 152.592 219.950,152.640 228.275,152.700 218.100 C 152.759 207.925,152.759 191.275,152.700 181.100 C 152.640 170.925,152.592 179.250,152.592 199.600 M247.466 185.300 C 247.124 211.249,247.174 233.319,247.580 235.600 C 247.756 236.590,247.922 221.155,247.950 201.300 C 247.977 181.445,247.939 165.200,247.865 165.200 C 247.791 165.200,247.612 174.245,247.466 185.300 M210.800 200.824 C 210.800 224.204,210.666 235.964,210.400 235.800 C 209.964 235.531,209.810 167.360,210.243 166.233 C 210.376 165.885,210.556 165.600,210.643 165.600 C 210.729 165.600,210.800 181.451,210.800 200.824 M212.868 242.700 C 212.804 246.556,212.848 246.800,213.600 246.800 C 214.472 246.800,214.710 245.769,213.900 245.501 C 213.579 245.394,213.317 244.129,213.168 241.967 L 212.935 238.600 212.868 242.700 M185.200 248.837 C 185.200 249.517,184.840 250.531,184.400 251.091 C 183.960 251.650,183.614 252.399,183.632 252.754 C 183.652 253.168,183.736 253.221,183.865 252.900 C 183.976 252.625,184.412 252.400,184.833 252.400 C 185.504 252.400,185.600 252.099,185.600 250.000 C 185.600 248.680,185.510 247.600,185.400 247.600 C 185.290 247.600,185.200 248.157,185.200 248.837 M183.757 256.331 C 184.172 257.002,183.494 258.400,182.753 258.400 C 182.005 258.400,181.658 256.876,182.267 256.267 C 182.638 255.896,183.511 255.933,183.757 256.331 M218.000 257.429 C 218.000 258.742,216.662 258.625,216.472 257.296 C 216.375 256.615,216.543 256.400,217.172 256.400 C 217.795 256.400,218.000 256.655,218.000 257.429 M180.000 262.800 C 179.765 263.240,179.394 263.600,179.176 263.600 C 178.958 263.600,178.609 264.050,178.400 264.600 C 178.191 265.150,177.757 265.600,177.437 265.600 C 177.116 265.600,176.743 265.951,176.606 266.380 C 176.470 266.808,176.008 267.270,175.580 267.406 C 175.151 267.543,174.800 267.900,174.800 268.200 C 174.800 268.500,174.395 268.874,173.900 269.030 C 173.405 269.187,172.763 269.652,172.473 270.064 C 171.904 270.872,171.200 270.712,171.200 269.776 C 171.200 269.459,171.547 269.200,171.972 269.200 C 172.468 269.200,172.790 268.878,172.872 268.300 C 172.954 267.722,173.322 267.354,173.900 267.272 C 174.478 267.190,174.800 266.868,174.800 266.372 C 174.800 265.869,175.076 265.600,175.592 265.600 C 176.104 265.600,176.474 265.246,176.636 264.600 C 176.793 263.974,177.170 263.600,177.643 263.600 C 178.133 263.600,178.400 263.318,178.400 262.800 C 178.400 262.210,178.667 262.000,179.414 262.000 C 180.304 262.000,180.376 262.098,180.000 262.800 M221.613 262.653 C 221.604 263.257,221.901 263.564,222.630 263.704 C 223.420 263.855,223.541 263.796,223.149 263.450 C 222.867 263.203,222.409 262.730,222.131 262.400 C 221.694 261.881,221.624 261.915,221.613 262.653 M346.730 265.734 C 346.885 266.534,345.720 267.080,345.126 266.486 C 344.833 266.193,344.871 265.880,345.253 265.450 C 345.914 264.704,346.554 264.827,346.730 265.734 M343.143 269.169 C 342.404 270.058,341.551 270.789,341.246 270.793 C 340.941 270.797,340.276 271.248,339.769 271.796 C 338.810 272.831,337.733 272.811,337.733 271.759 C 337.733 271.414,338.221 271.056,338.867 270.927 C 339.593 270.781,340.000 270.449,340.000 270.000 C 340.000 269.542,340.415 269.217,341.200 269.060 C 341.874 268.925,342.400 268.565,342.400 268.238 C 342.400 267.751,343.876 267.160,344.343 267.460 C 344.421 267.511,343.881 268.280,343.143 269.169 M337.000 273.600 C 336.602 274.040,335.854 274.400,335.338 274.400 C 334.667 274.400,334.400 274.173,334.400 273.600 C 334.400 272.928,334.667 272.800,336.062 272.800 C 337.699 272.800,337.713 272.812,337.000 273.600 M243.600 277.254 C 243.600 278.043,243.454 278.089,241.710 277.850 C 238.498 277.409,238.084 276.400,241.114 276.400 C 243.386 276.400,243.600 276.474,243.600 277.254 M285.313 280.000 C 304.938 280.000,314.428 280.132,314.157 280.403 C 313.460 281.100,255.113 280.739,254.879 280.036 C 254.747 279.640,254.895 279.551,255.378 279.736 C 255.756 279.881,269.227 280.000,285.313 280.000 M75.767 335.043 C 76.808 335.442,76.492 335.941,74.900 336.412 C 72.785 337.038,43.424 336.785,42.774 336.135 C 41.551 334.911,42.895 334.800,58.991 334.800 C 67.870 334.800,75.419 334.909,75.767 335.043 " stroke="none" fill="#24c453" fill-rule="evenodd"></path><path id="path2" d="M324.000 65.989 C 323.348 66.403,322.654 122.400,323.300 122.400 C 323.465 122.400,323.605 121.995,323.611 121.500 C 323.617 121.005,323.612 108.986,323.600 94.791 C 323.577 66.762,323.584 66.663,325.673 66.245 C 327.696 65.841,356.140 65.974,356.800 66.392 C 357.329 66.726,357.424 76.611,357.602 150.085 L 357.805 233.400 357.862 150.600 C 357.894 105.060,357.795 67.350,357.642 66.800 L 357.364 65.800 340.982 65.704 C 331.094 65.645,324.362 65.758,324.000 65.989 M83.418 121.421 C 82.768 121.760,80.788 122.143,79.018 122.271 C 76.767 122.434,75.560 122.716,75.000 123.210 C 74.560 123.599,73.242 124.044,72.072 124.200 C 70.901 124.355,69.853 124.717,69.744 125.002 C 69.634 125.288,68.882 125.645,68.072 125.796 C 66.566 126.078,65.600 126.638,65.600 127.230 C 65.600 127.413,66.095 127.308,66.700 126.997 C 69.406 125.606,72.420 124.400,73.191 124.400 C 73.654 124.400,74.700 124.070,75.516 123.666 C 78.957 121.965,131.386 120.801,146.800 122.083 C 148.760 122.246,149.522 122.229,148.600 122.042 C 147.720 121.864,146.493 121.511,145.874 121.259 C 143.942 120.471,84.945 120.625,83.418 121.421 M271.930 122.300 C 281.241 122.360,296.361 122.360,305.530 122.300 C 314.698 122.240,307.080 122.191,288.600 122.191 C 270.120 122.191,262.618 122.240,271.930 122.300 M152.849 122.794 C 154.086 122.953,155.522 123.380,156.038 123.742 C 156.555 124.104,157.399 124.400,157.914 124.400 C 158.772 124.400,162.570 125.918,164.000 126.832 C 164.330 127.043,165.209 127.495,165.954 127.836 C 168.244 128.884,173.272 132.730,175.059 134.800 C 175.534 135.350,176.667 136.610,177.577 137.600 C 178.487 138.590,179.501 139.940,179.830 140.600 C 180.159 141.260,180.871 142.520,181.411 143.400 C 181.952 144.280,182.671 145.630,183.010 146.400 C 183.348 147.170,183.889 148.278,184.213 148.862 C 184.536 149.446,184.800 150.269,184.800 150.692 C 184.800 151.115,185.294 152.797,185.897 154.430 L 186.994 157.400 187.121 195.490 C 187.249 234.149,187.034 242.414,185.837 244.728 C 185.499 245.381,185.098 246.700,184.944 247.658 C 184.791 248.616,184.246 250.236,183.733 251.258 C 183.220 252.280,182.800 253.293,182.800 253.509 C 182.800 253.725,182.530 254.126,182.200 254.400 C 181.870 254.674,181.600 255.174,181.600 255.511 C 181.600 255.849,181.150 256.714,180.600 257.436 C 180.050 258.157,179.600 258.880,179.600 259.042 C 179.600 259.474,175.743 263.920,173.624 265.931 C 171.980 267.490,171.173 268.106,167.636 270.502 C 167.066 270.888,165.745 271.587,164.700 272.055 C 163.655 272.523,162.800 273.048,162.800 273.222 C 162.800 273.395,162.215 273.663,161.500 273.817 C 160.785 273.971,159.532 274.436,158.716 274.849 C 157.900 275.262,156.769 275.600,156.203 275.600 C 155.637 275.600,154.505 275.891,153.687 276.248 C 152.869 276.604,151.120 277.029,149.800 277.193 L 147.400 277.491 150.011 277.545 C 151.800 277.583,152.902 277.404,153.510 276.978 C 153.999 276.636,155.524 276.176,156.899 275.955 C 158.275 275.735,159.459 275.388,159.531 275.185 C 159.603 274.981,160.413 274.613,161.331 274.368 C 162.249 274.123,163.322 273.580,163.716 273.161 C 164.109 272.743,164.803 272.400,165.258 272.400 C 165.713 272.400,166.619 271.950,167.273 271.400 C 167.927 270.850,168.718 270.400,169.031 270.400 C 169.344 270.400,169.600 270.225,169.600 270.010 C 169.600 269.796,170.095 269.357,170.700 269.035 C 172.798 267.919,180.000 260.359,180.000 259.272 C 180.000 259.030,180.338 258.509,180.750 258.116 C 181.163 257.722,181.638 256.950,181.805 256.400 C 181.973 255.850,182.445 254.971,182.855 254.446 C 183.265 253.921,183.600 253.181,183.600 252.800 C 183.600 252.419,183.933 251.679,184.339 251.154 C 184.746 250.629,185.196 249.313,185.341 248.229 C 185.486 247.145,185.872 245.962,186.201 245.599 C 186.600 245.158,186.922 243.401,187.176 240.285 C 187.385 237.725,187.746 235.275,187.978 234.841 C 188.583 233.711,188.566 164.657,187.960 163.525 C 187.718 163.073,187.355 160.801,187.153 158.475 C 186.917 155.753,186.575 154.015,186.195 153.594 C 185.870 153.235,185.486 152.055,185.341 150.971 C 185.196 149.887,184.746 148.571,184.339 148.046 C 183.933 147.521,183.600 146.693,183.600 146.204 C 183.600 145.716,183.150 144.831,182.600 144.238 C 182.050 143.644,181.600 142.996,181.600 142.797 C 181.600 142.109,178.818 138.099,177.300 136.598 C 176.805 136.109,176.400 135.516,176.400 135.281 C 176.400 135.046,176.049 134.743,175.620 134.606 C 175.192 134.470,174.730 134.008,174.594 133.580 C 174.457 133.151,174.095 132.800,173.787 132.800 C 173.480 132.800,173.035 132.440,172.800 132.000 C 172.565 131.560,172.174 131.200,171.932 131.200 C 171.690 131.200,171.080 130.795,170.577 130.300 C 168.901 128.652,167.283 127.600,166.424 127.600 C 165.957 127.600,165.472 127.332,165.346 127.004 C 165.220 126.676,164.371 126.190,163.459 125.924 C 162.546 125.658,161.666 125.223,161.501 124.958 C 161.337 124.692,160.311 124.353,159.223 124.203 C 158.134 124.053,156.845 123.586,156.360 123.165 C 155.680 122.575,154.919 122.412,153.039 122.452 L 150.600 122.505 152.849 122.794 M247.207 122.696 C 246.881 122.824,246.400 123.143,246.138 123.405 C 245.876 123.667,244.723 123.992,243.576 124.128 C 242.429 124.264,241.177 124.659,240.795 125.005 C 240.412 125.351,239.455 125.739,238.667 125.867 C 237.879 125.995,236.929 126.437,236.555 126.850 C 236.182 127.262,235.485 127.600,235.008 127.600 C 234.530 127.600,233.717 128.050,233.200 128.600 C 232.683 129.150,232.121 129.600,231.950 129.600 C 230.734 129.600,221.600 137.876,221.600 138.978 C 221.600 139.222,221.240 139.730,220.800 140.107 C 220.360 140.484,220.000 141.058,220.000 141.382 C 220.000 141.706,219.661 142.153,219.247 142.375 C 218.832 142.597,218.377 143.396,218.236 144.151 C 218.094 144.905,217.723 145.621,217.411 145.740 C 217.099 145.860,216.724 146.642,216.578 147.479 C 216.431 148.316,216.055 149.204,215.742 149.454 C 215.429 149.704,215.008 150.923,214.806 152.163 C 214.604 153.403,214.160 154.697,213.819 155.038 C 213.370 155.487,213.215 156.391,213.256 158.329 L 213.313 161.000 213.596 159.000 C 213.752 157.900,214.177 156.212,214.540 155.250 C 214.903 154.287,215.206 153.117,215.213 152.650 C 215.219 152.182,215.668 150.900,216.209 149.800 C 216.750 148.700,217.194 147.507,217.196 147.149 C 217.198 146.791,217.470 146.274,217.800 146.000 C 218.130 145.726,218.400 145.285,218.400 145.020 C 218.400 143.646,223.380 137.320,227.439 133.538 C 230.059 131.097,237.551 126.400,238.825 126.400 C 239.018 126.400,240.160 125.950,241.363 125.400 C 242.565 124.850,243.926 124.400,244.387 124.400 C 244.848 124.400,245.895 124.111,246.713 123.757 C 247.531 123.403,249.640 122.979,251.400 122.814 L 254.600 122.515 251.200 122.489 C 249.330 122.475,247.533 122.568,247.207 122.696 M62.562 128.600 C 61.969 129.150,61.246 129.600,60.956 129.600 C 60.666 129.600,60.235 129.960,60.000 130.400 C 59.765 130.840,59.368 131.200,59.119 131.200 C 58.584 131.200,58.114 131.594,55.200 134.479 C 52.247 137.402,51.200 138.626,51.200 139.153 C 51.200 139.395,50.840 139.818,50.400 140.093 C 49.960 140.368,49.600 140.793,49.600 141.038 C 49.600 141.283,49.150 141.969,48.600 142.562 C 48.050 143.156,47.600 144.042,47.600 144.532 C 47.600 145.021,47.240 145.730,46.800 146.107 C 46.360 146.484,46.000 147.220,46.000 147.742 C 46.000 148.265,45.632 149.160,45.183 149.731 C 44.716 150.324,44.261 151.677,44.122 152.885 C 43.988 154.048,43.545 155.627,43.139 156.394 C 42.426 157.739,42.403 160.847,42.497 244.594 L 42.594 331.400 42.797 244.800 C 42.965 173.000,43.093 158.037,43.541 157.249 C 43.839 156.726,44.223 155.376,44.395 154.249 C 44.670 152.439,45.887 148.916,46.830 147.200 C 47.011 146.870,47.784 145.400,48.547 143.933 C 49.310 142.466,50.264 140.902,50.667 140.458 C 51.070 140.014,51.760 139.160,52.200 138.559 C 54.384 135.580,59.704 130.893,63.142 128.920 C 64.766 127.988,65.153 127.621,64.521 127.612 C 64.037 127.605,63.156 128.050,62.562 128.600 M83.595 156.141 C 81.125 156.955,78.400 158.590,78.400 159.257 C 78.400 159.426,77.950 160.228,77.400 161.038 L 76.400 162.512 76.400 202.807 C 76.400 237.051,76.485 243.173,76.966 243.572 C 77.392 243.925,86.071 244.011,112.066 243.921 L 146.600 243.800 148.600 242.646 C 154.030 239.512,153.946 240.193,153.976 199.325 C 154.007 157.254,154.164 158.163,146.471 155.963 C 142.105 154.715,87.454 154.870,83.595 156.141 M143.865 156.200 C 145.131 156.530,146.773 156.800,147.511 156.800 C 148.583 156.800,149.207 157.167,150.598 158.619 C 152.957 161.082,152.871 159.308,152.725 202.151 L 152.600 238.903 151.700 239.500 C 151.205 239.829,150.800 240.342,150.800 240.641 C 150.800 240.940,150.305 241.300,149.700 241.440 C 149.095 241.581,148.367 241.989,148.083 242.348 C 147.464 243.129,77.675 243.770,77.103 243.000 C 76.939 242.780,76.849 224.479,76.903 202.332 L 77.000 162.064 77.900 161.106 C 78.395 160.580,78.800 159.845,78.800 159.474 C 78.800 159.103,79.060 158.800,79.377 158.800 C 79.695 158.800,80.214 158.429,80.532 157.976 C 80.939 157.395,81.800 157.052,83.454 156.811 C 84.744 156.623,86.250 156.285,86.800 156.060 C 88.564 155.338,141.047 155.466,143.865 156.200 M254.800 156.393 C 252.193 156.734,249.486 158.428,248.000 160.648 L 247.000 162.141 246.666 196.771 C 246.268 238.009,246.283 238.279,249.204 241.353 C 251.881 244.170,251.207 244.111,283.000 244.296 C 318.543 244.503,318.959 244.450,322.316 239.270 L 323.582 237.316 323.610 197.050 C 323.625 174.903,323.528 156.607,323.395 156.392 C 323.113 155.935,258.287 155.936,254.800 156.393 M323.204 197.147 L 323.192 237.293 322.196 238.477 C 321.648 239.129,321.200 239.905,321.200 240.204 C 321.200 240.502,320.885 240.847,320.500 240.971 C 320.115 241.094,319.296 241.630,318.681 242.160 C 317.049 243.569,313.813 243.686,280.800 243.533 L 252.200 243.400 250.700 242.200 C 249.875 241.540,249.200 240.797,249.200 240.549 C 249.200 240.301,248.795 239.828,248.300 239.499 L 247.400 238.901 247.498 200.378 C 247.592 163.497,247.628 161.820,248.339 161.028 C 248.747 160.572,249.192 159.885,249.328 159.500 C 249.464 159.115,249.816 158.800,250.110 158.800 C 250.404 158.800,251.256 158.349,252.003 157.798 L 253.361 156.796 288.288 156.898 L 323.215 157.000 323.204 197.147 M212.662 166.700 C 212.298 172.199,212.404 234.576,212.782 237.000 C 212.953 238.100,213.117 221.855,213.147 200.900 C 213.176 179.945,213.137 162.800,213.060 162.800 C 212.984 162.800,212.804 164.555,212.662 166.700 M357.200 238.385 C 357.200 239.827,356.884 241.573,356.400 242.800 C 355.960 243.916,355.600 245.413,355.600 246.126 C 355.600 246.839,355.354 247.777,355.054 248.211 C 354.754 248.645,354.372 249.450,354.206 250.000 C 353.739 251.547,351.495 256.138,350.917 256.729 C 350.633 257.019,350.400 257.401,350.400 257.578 C 350.400 258.567,341.276 268.400,340.358 268.400 C 340.192 268.400,339.795 268.662,339.475 268.982 C 338.665 269.792,336.714 270.925,333.200 272.627 C 327.860 275.212,326.927 275.600,326.043 275.600 C 325.565 275.600,324.505 275.886,323.687 276.235 C 322.869 276.585,321.390 277.014,320.400 277.188 L 318.600 277.506 320.769 277.553 C 322.209 277.584,323.164 277.395,323.613 276.988 C 323.985 276.651,325.340 276.205,326.624 275.996 C 327.970 275.777,329.103 275.358,329.299 275.008 C 329.487 274.674,329.982 274.400,330.401 274.400 C 331.355 274.400,333.200 273.578,333.200 273.154 C 333.200 272.979,333.834 272.717,334.610 272.572 C 335.385 272.426,336.240 271.997,336.510 271.618 C 336.779 271.239,337.490 270.808,338.088 270.660 C 338.687 270.512,339.368 270.033,339.603 269.595 C 339.837 269.158,340.297 268.800,340.627 268.800 C 340.956 268.800,341.334 268.516,341.467 268.169 C 341.600 267.823,342.135 267.377,342.655 267.179 C 343.175 266.982,343.600 266.566,343.600 266.257 C 343.600 265.947,343.973 265.596,344.430 265.476 C 344.886 265.357,345.357 264.886,345.476 264.430 C 345.596 263.973,345.948 263.600,346.259 263.600 C 346.570 263.600,346.936 263.312,347.071 262.960 C 347.206 262.608,347.753 261.843,348.286 261.260 C 349.979 259.409,350.278 259.023,350.803 258.000 C 351.086 257.450,351.561 256.856,351.858 256.680 C 352.156 256.504,352.400 255.947,352.400 255.441 C 352.400 254.936,352.749 254.120,353.175 253.628 C 353.602 253.137,354.072 252.164,354.220 251.467 C 354.368 250.770,354.773 249.878,355.120 249.485 C 355.466 249.093,355.876 247.705,356.030 246.403 C 356.184 245.089,356.596 243.747,356.954 243.388 C 357.564 242.779,357.973 236.000,357.400 236.000 C 357.290 236.000,357.200 237.073,357.200 238.385 M213.253 242.471 C 213.218 243.963,213.395 244.938,213.769 245.312 C 214.081 245.624,214.531 246.927,214.767 248.207 C 215.004 249.487,215.444 250.819,215.745 251.167 C 216.046 251.515,216.418 252.326,216.571 252.968 C 216.724 253.611,217.198 254.580,217.625 255.122 C 218.051 255.664,218.400 256.442,218.400 256.851 C 218.400 257.259,218.760 257.818,219.200 258.093 C 219.640 258.368,220.000 258.784,220.000 259.017 C 220.000 260.655,230.038 270.800,231.659 270.800 C 231.961 270.800,232.432 271.160,232.707 271.600 C 232.982 272.040,233.538 272.400,233.942 272.400 C 234.347 272.400,235.080 272.749,235.572 273.175 C 236.063 273.602,237.036 274.073,237.733 274.222 C 238.430 274.371,239.322 274.832,239.716 275.247 C 240.167 275.722,240.982 276.000,241.922 276.000 C 242.741 276.000,244.084 276.360,244.904 276.800 C 245.987 277.380,247.084 277.586,248.899 277.548 L 251.400 277.495 249.200 277.189 C 247.990 277.021,246.212 276.595,245.250 276.242 C 244.287 275.889,243.082 275.600,242.571 275.600 C 242.060 275.600,240.796 275.150,239.762 274.600 C 238.727 274.050,237.660 273.600,237.389 273.600 C 237.119 273.600,236.683 273.342,236.421 273.026 C 236.159 272.710,235.436 272.340,234.814 272.203 C 234.192 272.066,233.366 271.605,232.979 271.177 C 232.593 270.750,232.107 270.400,231.901 270.400 C 230.964 270.400,223.340 263.348,221.783 261.040 C 219.869 258.205,219.571 257.721,218.921 256.400 C 218.542 255.630,218.022 254.730,217.766 254.400 C 217.510 254.070,217.073 253.080,216.794 252.200 C 216.515 251.320,216.042 250.245,215.743 249.811 C 215.444 249.377,215.200 248.635,215.200 248.161 C 215.200 247.688,214.904 246.513,214.543 245.550 C 214.181 244.588,213.756 242.990,213.596 242.000 L 213.307 240.200 213.253 242.471 M76.667 277.867 C 76.520 278.013,76.394 290.298,76.387 305.167 C 76.376 328.647,76.295 332.305,75.770 333.000 C 75.187 333.772,74.629 333.804,59.540 333.914 C 43.188 334.032,43.035 334.018,42.662 332.271 C 42.560 331.792,42.504 332.030,42.538 332.800 L 42.600 334.200 59.176 334.304 C 70.459 334.376,75.887 334.274,76.176 333.985 C 76.494 333.666,77.281 277.599,76.967 277.600 C 76.948 277.600,76.813 277.720,76.667 277.867 M94.900 277.900 C 104.525 277.960,120.275 277.960,129.900 277.900 C 139.525 277.840,131.650 277.791,112.400 277.791 C 93.150 277.791,85.275 277.840,94.900 277.900 M254.600 278.013 C 258.317 278.395,312.727 278.397,315.800 278.015 C 317.120 277.852,303.260 277.719,285.000 277.722 C 266.740 277.724,253.060 277.855,254.600 278.013 " stroke="none" fill="#64ce7f" fill-rule="evenodd"></path><path id="path3" d="M325.331 66.278 C 323.641 66.607,323.577 67.657,323.600 94.791 C 323.612 108.986,323.617 120.994,323.611 121.476 L 323.600 122.351 286.700 122.479 L 249.800 122.607 247.414 123.503 C 246.101 123.996,244.695 124.400,244.288 124.400 C 243.882 124.400,242.565 124.850,241.363 125.400 C 240.160 125.950,239.018 126.400,238.825 126.400 C 237.551 126.400,230.059 131.097,227.439 133.538 C 223.380 137.320,218.400 143.646,218.400 145.020 C 218.400 145.285,218.130 145.726,217.800 146.000 C 217.470 146.274,217.198 146.791,217.196 147.149 C 217.194 147.507,216.750 148.700,216.209 149.800 C 215.668 150.900,215.219 152.198,215.213 152.685 C 215.206 153.172,214.795 154.612,214.300 155.885 L 213.400 158.200 213.400 200.400 L 213.400 242.600 214.300 244.915 C 214.795 246.188,215.200 247.633,215.200 248.126 C 215.200 248.619,215.444 249.377,215.743 249.811 C 216.042 250.245,216.515 251.320,216.794 252.200 C 217.073 253.080,217.510 254.070,217.766 254.400 C 218.022 254.730,218.542 255.630,218.921 256.400 C 219.571 257.721,219.869 258.205,221.783 261.040 C 223.340 263.348,230.964 270.400,231.901 270.400 C 232.107 270.400,232.593 270.750,232.979 271.177 C 233.366 271.605,234.192 272.066,234.814 272.203 C 235.436 272.340,236.159 272.710,236.421 273.026 C 236.683 273.342,237.119 273.600,237.389 273.600 C 237.660 273.600,238.727 274.050,239.762 274.600 C 240.796 275.150,242.055 275.600,242.559 275.600 C 243.062 275.600,244.538 276.005,245.837 276.500 L 248.200 277.399 284.600 277.400 L 321.000 277.400 323.115 276.500 C 324.278 276.005,325.608 275.600,326.071 275.600 C 326.927 275.600,327.878 275.203,333.200 272.627 C 336.714 270.925,338.665 269.792,339.475 268.982 C 339.795 268.662,340.192 268.400,340.358 268.400 C 341.276 268.400,350.400 258.567,350.400 257.578 C 350.400 257.401,350.633 257.019,350.917 256.729 C 351.495 256.138,353.739 251.547,354.206 250.000 C 354.372 249.450,354.754 248.645,355.054 248.211 C 355.354 247.777,355.600 246.839,355.600 246.126 C 355.600 245.413,356.005 243.878,356.500 242.715 L 357.400 240.600 357.400 153.685 C 357.400 76.863,357.330 66.727,356.800 66.392 C 356.219 66.024,327.171 65.920,325.331 66.278 M356.701 152.100 C 356.800 235.560,356.790 236.853,356.001 240.396 C 355.560 242.373,355.199 244.488,355.199 245.096 C 355.198 245.703,354.865 246.744,354.460 247.408 C 354.055 248.073,353.596 249.298,353.439 250.130 C 353.283 250.963,352.805 251.995,352.378 252.422 C 351.950 252.850,351.600 253.523,351.600 253.919 C 351.600 254.314,351.325 254.989,350.989 255.419 C 350.653 255.848,349.754 257.182,348.991 258.383 C 348.229 259.583,347.334 260.717,347.002 260.903 C 346.671 261.088,346.400 261.407,346.400 261.611 C 346.400 262.095,342.095 266.400,341.611 266.400 C 341.407 266.400,341.096 266.646,340.920 266.946 C 340.744 267.246,340.015 267.791,339.300 268.156 C 338.585 268.522,338.000 268.984,338.000 269.183 C 338.000 269.383,337.595 269.673,337.100 269.828 C 336.605 269.983,335.771 270.445,335.246 270.855 C 334.721 271.265,334.029 271.600,333.708 271.600 C 333.386 271.600,332.635 271.948,332.037 272.373 C 331.440 272.799,330.422 273.278,329.776 273.437 C 329.129 273.597,327.970 274.042,327.200 274.425 C 326.430 274.809,324.900 275.247,323.800 275.399 C 322.700 275.551,321.579 275.857,321.308 276.080 C 319.652 277.443,251.795 277.678,248.761 276.331 C 247.970 275.979,246.350 275.566,245.161 275.412 C 243.972 275.258,242.370 274.817,241.600 274.430 C 240.830 274.044,239.674 273.598,239.032 273.439 C 238.389 273.280,237.420 272.802,236.878 272.375 C 236.336 271.949,235.584 271.600,235.208 271.600 C 234.832 271.600,234.198 271.240,233.800 270.800 C 233.402 270.360,232.841 270.000,232.554 270.000 C 232.266 270.000,231.709 269.675,231.316 269.278 C 230.922 268.881,229.790 267.939,228.800 267.185 C 226.522 265.449,225.335 264.260,223.624 262.000 C 222.874 261.010,222.053 260.020,221.798 259.800 C 221.302 259.373,220.436 257.871,219.375 255.600 C 219.015 254.830,218.485 253.930,218.197 253.600 C 217.910 253.270,217.481 252.274,217.245 251.388 C 217.009 250.501,216.548 249.421,216.221 248.988 C 215.893 248.554,215.620 247.616,215.613 246.902 C 215.606 246.187,215.195 244.477,214.700 243.102 L 213.800 240.600 213.800 200.600 C 213.800 164.018,213.858 160.429,214.479 158.600 C 214.853 157.500,215.341 155.569,215.564 154.309 C 215.787 153.049,216.226 151.609,216.540 151.109 C 216.854 150.609,217.226 149.538,217.368 148.729 C 217.509 147.920,217.779 147.200,217.968 147.129 C 218.156 147.058,218.646 146.355,219.055 145.567 C 219.465 144.778,220.160 143.441,220.600 142.595 C 221.867 140.159,227.930 133.623,230.347 132.088 C 230.926 131.720,231.544 131.190,231.720 130.910 C 231.896 130.629,232.266 130.400,232.542 130.400 C 232.818 130.400,233.655 129.950,234.400 129.400 C 235.145 128.850,236.008 128.400,236.316 128.400 C 236.624 128.400,237.354 128.066,237.938 127.658 C 238.522 127.250,239.540 126.793,240.200 126.642 C 240.860 126.490,242.120 126.028,243.000 125.614 C 243.880 125.200,245.680 124.685,247.000 124.470 C 248.320 124.254,250.120 123.884,251.000 123.648 C 252.081 123.358,264.030 123.216,287.811 123.210 C 319.022 123.201,323.123 123.129,323.911 122.577 L 324.800 121.955 324.800 95.309 C 324.800 71.008,324.859 68.598,325.466 67.927 C 326.094 67.233,327.006 67.197,341.366 67.295 L 356.600 67.400 356.701 152.100 M84.400 122.009 C 83.630 122.194,81.650 122.470,80.000 122.623 C 78.350 122.776,76.332 123.238,75.516 123.650 C 74.700 124.063,73.620 124.401,73.116 124.402 C 72.612 124.404,71.660 124.692,71.000 125.044 C 70.340 125.395,69.170 125.915,68.400 126.199 C 63.397 128.042,55.482 134.081,52.200 138.559 C 51.760 139.160,51.070 140.014,50.667 140.458 C 50.264 140.902,49.310 142.466,48.547 143.933 C 47.784 145.400,47.011 146.870,46.830 147.200 C 45.882 148.925,44.669 152.444,44.391 154.277 C 44.217 155.420,43.944 156.566,43.785 156.825 C 43.625 157.083,43.343 157.948,43.158 158.747 C 42.604 161.135,42.701 332.799,43.256 333.468 C 44.110 334.497,75.109 334.050,75.728 333.000 C 76.073 332.416,76.254 324.850,76.400 305.000 L 76.600 277.800 113.800 277.600 L 151.000 277.400 153.115 276.500 C 154.278 276.005,155.680 275.600,156.231 275.600 C 156.781 275.600,157.900 275.262,158.716 274.849 C 159.532 274.436,160.785 273.971,161.500 273.817 C 162.215 273.663,162.800 273.395,162.800 273.222 C 162.800 273.048,163.655 272.523,164.700 272.055 C 165.745 271.587,167.066 270.888,167.636 270.502 C 171.173 268.106,171.980 267.490,173.624 265.931 C 175.743 263.920,179.600 259.474,179.600 259.042 C 179.600 258.880,180.050 258.157,180.600 257.436 C 181.150 256.714,181.600 255.849,181.600 255.511 C 181.600 255.174,181.870 254.674,182.200 254.400 C 182.530 254.126,182.800 253.725,182.800 253.509 C 182.800 253.293,183.220 252.280,183.733 251.258 C 184.246 250.236,184.791 248.616,184.944 247.658 C 185.098 246.700,185.499 245.381,185.837 244.728 C 187.034 242.414,187.249 234.149,187.121 195.490 L 186.994 157.400 185.897 154.430 C 185.294 152.797,184.800 151.115,184.800 150.692 C 184.800 150.269,184.536 149.446,184.213 148.862 C 183.889 148.278,183.348 147.170,183.010 146.400 C 182.671 145.630,181.952 144.280,181.411 143.400 C 180.871 142.520,180.159 141.260,179.830 140.600 C 179.501 139.940,178.487 138.590,177.577 137.600 C 176.667 136.610,175.534 135.350,175.059 134.800 C 173.272 132.730,168.244 128.884,165.954 127.836 C 165.209 127.495,164.330 127.043,164.000 126.832 C 162.660 125.976,158.797 124.400,158.037 124.400 C 157.590 124.400,156.544 124.056,155.712 123.636 C 152.759 122.144,146.085 121.834,115.000 121.751 C 98.940 121.707,85.170 121.823,84.400 122.009 M153.915 123.902 C 155.078 124.396,156.428 124.806,156.915 124.813 C 157.402 124.819,158.700 125.268,159.800 125.809 C 160.900 126.350,162.042 126.794,162.337 126.796 C 162.632 126.798,163.331 127.160,163.891 127.600 C 164.450 128.040,165.173 128.400,165.496 128.400 C 165.820 128.400,166.593 128.805,167.215 129.300 C 167.836 129.795,169.004 130.650,169.809 131.200 C 172.096 132.762,176.869 137.608,178.286 139.807 C 178.992 140.903,179.847 142.085,180.185 142.434 C 180.523 142.782,180.800 143.287,180.800 143.555 C 180.800 143.823,181.250 144.705,181.800 145.514 C 182.350 146.323,182.801 147.349,182.801 147.793 C 182.802 148.237,183.136 149.146,183.543 149.814 C 183.950 150.481,184.417 151.919,184.580 153.008 C 184.744 154.098,185.175 155.532,185.539 156.195 C 186.553 158.044,186.552 240.142,185.537 242.615 C 185.173 243.503,184.741 245.117,184.579 246.201 C 184.416 247.285,183.950 248.719,183.543 249.386 C 183.136 250.054,182.802 250.981,182.801 251.446 C 182.801 251.911,182.451 252.736,182.025 253.278 C 181.598 253.820,181.132 254.731,180.989 255.302 C 180.845 255.874,180.384 256.652,179.964 257.033 C 179.544 257.413,179.200 257.895,179.200 258.103 C 179.200 258.664,174.277 264.440,172.811 265.600 C 172.115 266.150,171.166 267.005,170.701 267.500 C 170.236 267.995,169.613 268.400,169.315 268.400 C 169.018 268.400,168.671 268.670,168.545 269.000 C 168.418 269.330,168.077 269.600,167.788 269.600 C 167.498 269.600,166.727 270.050,166.073 270.600 C 165.419 271.150,164.695 271.600,164.463 271.600 C 164.232 271.600,163.196 272.050,162.162 272.600 C 161.127 273.150,160.029 273.600,159.721 273.600 C 159.412 273.600,158.625 273.877,157.970 274.215 C 157.316 274.554,155.750 275.017,154.490 275.244 C 153.231 275.472,151.429 275.915,150.486 276.229 C 149.052 276.707,142.900 276.800,112.786 276.800 C 77.333 276.800,76.788 276.812,76.000 277.600 C 75.216 278.384,75.200 278.933,75.200 305.151 C 75.200 327.284,75.106 331.980,74.653 332.356 C 74.261 332.681,69.753 332.780,58.753 332.705 L 43.400 332.600 43.299 248.005 C 43.238 197.165,43.346 162.691,43.569 161.605 C 43.773 160.612,44.239 158.270,44.605 156.400 C 44.971 154.530,45.524 152.522,45.835 151.938 C 46.146 151.354,46.400 150.616,46.400 150.298 C 46.400 149.980,46.850 148.873,47.400 147.838 C 47.950 146.804,48.400 145.725,48.400 145.441 C 48.400 145.157,48.755 144.602,49.190 144.209 C 49.624 143.816,50.099 143.113,50.246 142.647 C 50.932 140.466,60.726 130.401,62.164 130.400 C 62.404 130.399,63.123 129.949,63.762 129.400 C 64.401 128.850,65.222 128.400,65.587 128.400 C 65.951 128.400,66.613 128.061,67.058 127.646 C 67.503 127.232,68.482 126.758,69.233 126.593 C 69.985 126.428,71.227 125.957,71.994 125.547 C 72.761 125.136,73.841 124.799,74.394 124.798 C 74.947 124.796,75.940 124.512,76.600 124.165 C 78.838 122.991,82.559 122.879,117.200 122.942 L 151.800 123.004 153.915 123.902 M84.600 154.756 C 84.160 154.914,83.131 155.349,82.313 155.722 C 81.495 156.095,80.685 156.400,80.514 156.400 C 79.659 156.400,76.408 160.628,75.944 162.342 C 75.028 165.729,74.978 242.838,75.891 243.959 L 76.600 244.831 109.699 244.809 C 149.282 244.783,147.657 244.929,151.896 241.001 C 152.672 240.282,153.295 239.238,153.448 238.400 C 153.589 237.630,153.906 236.747,154.152 236.439 C 154.807 235.618,154.787 164.104,154.131 162.761 C 153.873 162.232,153.565 161.347,153.447 160.793 C 153.194 159.609,150.821 156.400,150.199 156.400 C 149.963 156.400,149.056 155.995,148.185 155.500 L 146.600 154.600 116.000 154.534 C 99.170 154.497,85.040 154.597,84.600 154.756 M256.000 155.250 C 255.450 155.470,254.142 155.834,253.094 156.059 C 252.046 156.285,250.962 156.695,250.686 156.971 C 250.410 157.248,249.782 157.688,249.292 157.951 C 248.801 158.213,248.400 158.627,248.400 158.870 C 248.400 159.113,248.124 159.514,247.786 159.761 C 245.436 161.479,244.136 231.032,246.332 237.554 C 247.489 240.989,249.534 243.446,251.718 244.023 C 252.643 244.267,254.210 244.728,255.200 245.047 C 256.717 245.535,261.472 245.608,285.400 245.513 L 313.800 245.400 316.551 244.449 C 318.064 243.926,319.639 243.161,320.051 242.749 C 320.463 242.337,320.950 242.000,321.133 242.000 C 321.953 242.000,323.926 238.057,324.351 235.567 C 325.299 230.009,324.952 157.101,323.971 155.854 L 323.142 154.800 290.071 154.825 C 269.043 154.841,256.636 154.996,256.000 155.250 M146.471 155.963 C 154.164 158.163,154.007 157.254,153.976 199.325 C 153.946 240.193,154.030 239.512,148.600 242.646 L 146.600 243.800 112.066 243.921 C 86.071 244.011,77.392 243.925,76.966 243.572 C 76.485 243.173,76.400 237.051,76.400 202.807 L 76.400 162.512 77.400 161.038 C 77.950 160.228,78.400 159.426,78.400 159.257 C 78.400 158.590,81.125 156.955,83.595 156.141 C 87.454 154.870,142.105 154.715,146.471 155.963 M323.395 156.392 C 323.528 156.607,323.625 174.903,323.610 197.050 L 323.582 237.316 322.316 239.270 C 318.959 244.450,318.543 244.503,283.000 244.296 C 251.207 244.111,251.881 244.170,249.204 241.353 C 246.283 238.279,246.268 238.009,246.666 196.771 L 247.000 162.141 248.000 160.648 C 249.486 158.428,252.193 156.734,254.800 156.393 C 258.287 155.936,323.113 155.935,323.395 156.392 " stroke="none" fill="#8cdc9c" fill-rule="evenodd"></path><path id="path4" d="M324.023 64.172 C 323.224 65.136,325.153 65.238,341.800 65.115 C 355.349 65.015,357.400 64.921,357.400 64.400 C 357.400 63.508,324.759 63.285,324.023 64.172 M322.000 66.200 C 320.949 67.466,320.896 122.000,321.945 122.000 C 323.047 122.000,323.017 123.000,322.800 93.038 C 322.622 68.467,322.535 65.555,322.000 66.200 M358.262 67.397 C 357.877 70.212,357.954 242.508,358.341 243.119 C 359.154 244.400,359.698 242.384,359.749 237.900 C 360.086 208.186,359.520 66.844,359.062 66.218 C 358.578 65.555,358.499 65.671,358.262 67.397 M83.200 119.264 C 82.246 119.665,82.236 119.699,83.000 120.023 C 84.014 120.453,148.800 120.436,148.800 120.006 C 148.800 119.018,85.489 118.301,83.200 119.264 M75.144 121.187 L 74.200 121.973 77.700 121.987 C 79.625 121.994,81.200 121.856,81.200 121.680 C 81.200 120.227,76.734 119.863,75.144 121.187 M149.867 120.667 C 148.875 121.658,149.729 122.000,153.200 122.000 C 156.756 122.000,157.259 121.819,156.320 120.880 C 155.814 120.374,150.341 120.193,149.867 120.667 M246.941 120.797 C 244.666 121.715,245.654 122.000,251.076 121.987 L 256.600 121.973 255.656 121.187 C 254.632 120.334,248.742 120.070,246.941 120.797 M70.541 122.397 C 69.081 122.986,69.139 123.505,70.684 123.686 C 72.877 123.942,74.000 123.626,74.000 122.753 C 74.000 121.923,72.181 121.736,70.541 122.397 M157.700 122.265 C 155.837 123.017,158.095 124.054,160.679 123.633 L 162.200 123.386 161.211 122.693 C 160.260 122.026,158.748 121.842,157.700 122.265 M241.729 122.278 C 239.347 122.742,239.880 123.600,242.551 123.600 C 244.933 123.600,245.200 123.519,245.200 122.800 C 245.200 121.986,244.088 121.819,241.729 122.278 M237.681 124.052 C 236.956 124.262,236.262 124.695,236.138 125.016 C 236.015 125.337,235.519 125.600,235.035 125.600 C 234.551 125.600,233.545 126.050,232.800 126.600 C 232.055 127.150,231.210 127.600,230.922 127.600 C 230.635 127.600,230.400 127.675,230.400 127.767 C 230.400 127.859,230.291 128.219,230.157 128.567 C 229.968 129.061,230.188 129.200,231.157 129.200 C 232.216 129.200,232.400 129.052,232.400 128.200 C 232.400 127.281,232.547 127.200,234.200 127.200 C 235.733 127.200,236.000 127.081,236.000 126.400 C 236.000 125.719,236.267 125.600,237.800 125.600 C 239.453 125.600,239.600 125.519,239.600 124.600 C 239.600 123.505,239.589 123.502,237.681 124.052 M65.507 124.800 C 65.232 125.240,64.610 125.600,64.124 125.600 C 63.639 125.600,62.756 126.050,62.162 126.600 C 61.569 127.150,60.891 127.600,60.656 127.600 C 60.421 127.600,59.862 127.962,59.414 128.404 C 58.966 128.846,58.150 129.560,57.600 129.991 L 56.600 130.773 58.100 130.787 C 59.338 130.798,59.600 130.660,59.600 130.000 C 59.600 129.423,59.867 129.200,60.557 129.200 C 61.243 129.200,61.584 128.918,61.764 128.200 C 61.979 127.343,62.243 127.200,63.608 127.200 C 64.933 127.200,65.200 127.066,65.200 126.400 C 65.200 125.719,65.467 125.600,67.000 125.600 C 68.533 125.600,68.800 125.481,68.800 124.800 C 68.800 124.153,68.533 124.000,67.403 124.000 C 66.440 124.000,65.852 124.248,65.507 124.800 M162.400 124.800 C 162.400 125.467,162.667 125.600,164.000 125.600 C 165.651 125.600,166.264 124.740,164.967 124.243 C 163.596 123.717,162.400 123.976,162.400 124.800 M166.072 126.500 C 166.142 126.995,166.335 127.355,166.500 127.300 C 166.665 127.245,167.385 127.194,168.100 127.187 L 169.400 127.173 168.456 126.387 C 167.129 125.281,165.907 125.339,166.072 126.500 M169.340 127.812 C 169.041 128.592,169.516 129.200,170.424 129.200 C 170.933 129.200,171.200 129.475,171.200 130.000 C 171.200 130.587,171.467 130.800,172.200 130.800 C 172.913 130.800,173.200 131.016,173.200 131.553 C 173.200 132.191,175.066 133.057,175.508 132.624 C 175.726 132.409,172.576 129.305,171.900 129.069 C 171.515 128.935,171.200 128.570,171.200 128.259 C 171.200 127.489,169.611 127.107,169.340 127.812 M227.320 130.130 C 227.144 130.422,226.668 130.783,226.262 130.932 C 225.856 131.082,225.430 131.563,225.315 132.002 C 225.200 132.443,224.770 132.800,224.353 132.800 C 223.939 132.800,223.600 133.074,223.600 133.409 C 223.600 133.743,223.150 134.222,222.600 134.473 C 222.050 134.723,221.600 135.220,221.600 135.575 C 221.600 135.931,221.232 136.537,220.783 136.922 C 219.925 137.656,220.046 138.400,221.024 138.400 C 221.372 138.400,221.600 138.004,221.600 137.400 C 221.600 136.600,221.800 136.400,222.600 136.400 C 223.333 136.400,223.600 136.187,223.600 135.600 C 223.600 135.082,223.867 134.800,224.357 134.800 C 224.830 134.800,225.207 134.426,225.364 133.800 C 225.526 133.154,225.896 132.800,226.408 132.800 C 226.986 132.800,227.200 132.530,227.200 131.800 C 227.200 131.000,227.400 130.800,228.200 130.800 C 228.822 130.800,229.200 130.573,229.200 130.200 C 229.200 129.459,227.757 129.405,227.320 130.130 M55.280 131.680 C 54.575 132.385,54.693 132.800,55.600 132.800 C 56.133 132.800,56.400 132.533,56.400 132.000 C 56.400 131.093,55.985 130.975,55.280 131.680 M53.280 133.280 C 52.575 133.985,52.693 134.400,53.600 134.400 C 54.133 134.400,54.400 134.133,54.400 133.600 C 54.400 132.693,53.985 132.575,53.280 133.280 M176.710 133.823 C 176.262 134.271,176.937 135.943,177.640 136.126 C 178.071 136.239,178.400 136.676,178.400 137.135 C 178.400 137.670,178.705 137.988,179.300 138.072 C 179.944 138.164,180.236 138.512,180.327 139.300 C 180.414 140.063,180.682 140.400,181.202 140.400 C 181.780 140.400,181.980 140.745,182.076 141.900 C 182.176 143.105,182.377 143.425,183.100 143.528 C 183.879 143.638,184.000 143.895,184.000 145.428 C 184.000 146.933,184.120 147.200,184.800 147.200 C 185.874 147.200,185.888 145.260,184.822 144.116 C 184.395 143.657,183.774 142.633,183.443 141.841 C 183.112 141.048,182.652 140.400,182.420 140.400 C 182.189 140.400,182.000 139.962,182.000 139.427 C 182.000 138.805,181.711 138.362,181.200 138.200 C 180.760 138.060,180.400 137.724,180.400 137.453 C 180.400 136.878,177.000 133.534,176.710 133.823 M51.443 135.433 C 51.091 136.350,51.119 136.400,52.000 136.400 C 52.533 136.400,52.800 136.133,52.800 135.600 C 52.800 134.651,51.791 134.526,51.443 135.433 M50.080 137.280 C 49.390 137.970,49.474 139.600,50.200 139.600 C 50.619 139.600,50.800 139.178,50.800 138.200 C 50.800 136.643,50.764 136.596,50.080 137.280 M218.629 139.829 C 217.756 140.701,217.843 141.600,218.800 141.600 C 219.422 141.600,219.600 141.333,219.600 140.400 C 219.600 139.024,219.495 138.962,218.629 139.829 M48.341 139.912 C 47.326 140.113,47.127 141.523,48.071 141.823 C 49.071 142.140,49.293 141.910,49.130 140.727 C 49.044 140.098,48.779 139.825,48.341 139.912 M216.880 142.480 C 216.616 142.744,216.400 143.284,216.400 143.680 C 216.400 144.076,216.225 144.400,216.010 144.400 C 215.415 144.400,214.335 146.742,214.476 147.727 C 214.745 149.621,216.188 148.785,216.324 146.656 C 216.421 145.129,216.614 144.669,217.224 144.510 C 217.766 144.368,218.000 143.959,218.000 143.153 C 218.000 141.919,217.651 141.709,216.880 142.480 M46.014 143.174 C 45.364 144.389,45.518 145.200,46.400 145.200 C 47.048 145.200,47.200 144.933,47.200 143.800 C 47.200 142.259,46.657 141.972,46.014 143.174 M44.028 147.082 C 43.722 148.191,43.743 148.643,44.110 148.876 C 45.212 149.577,45.600 149.193,45.600 147.400 C 45.600 145.119,44.625 144.921,44.028 147.082 M185.600 150.000 C 185.600 152.084,185.699 152.400,186.353 152.400 C 187.363 152.400,187.689 150.588,186.984 148.900 C 186.143 146.887,185.600 147.318,185.600 150.000 M213.383 149.769 C 212.534 151.065,212.738 153.744,213.700 153.926 C 214.309 154.041,214.400 153.717,214.400 151.429 C 214.400 148.517,214.305 148.362,213.383 149.769 M42.886 149.691 C 42.604 150.035,42.265 151.279,42.135 152.458 C 42.004 153.636,41.560 155.161,41.149 155.847 C 40.423 157.056,40.400 159.808,40.400 244.728 C 40.400 332.236,40.431 334.400,41.664 334.400 C 41.849 334.400,42.000 293.990,42.000 244.600 C 42.000 156.758,42.017 154.800,42.757 154.800 C 43.731 154.800,43.853 154.315,43.604 151.434 C 43.432 149.434,43.320 149.164,42.886 149.691 M187.536 155.081 C 187.321 158.747,187.564 160.800,188.215 160.800 C 189.041 160.800,189.330 159.147,189.016 156.216 C 188.635 152.651,187.721 151.950,187.536 155.081 M211.336 155.872 C 210.825 157.841,210.949 163.505,211.517 164.075 C 212.459 165.020,212.807 163.596,212.701 159.233 C 212.599 155.007,211.966 153.449,211.336 155.872 M287.671 157.102 C 254.694 157.199,252.750 157.243,252.877 157.902 C 253.003 158.558,255.040 158.606,287.105 158.702 L 321.200 158.804 321.200 198.015 C 321.200 238.505,321.215 238.918,322.639 237.495 C 322.839 237.294,322.902 157.105,322.702 157.035 C 322.646 157.016,306.882 157.046,287.671 157.102 M81.600 157.968 C 81.600 158.492,81.228 158.818,80.431 158.993 C 79.447 159.209,79.220 159.499,78.996 160.825 C 78.794 162.016,78.543 162.400,77.965 162.400 C 77.217 162.400,77.200 163.284,77.200 202.700 L 77.200 243.000 112.200 242.896 C 146.835 242.792,147.200 242.783,147.200 241.996 C 147.200 241.334,147.470 241.200,148.800 241.200 C 150.311 241.200,150.400 241.133,150.400 240.000 C 150.400 239.340,150.338 238.800,150.261 238.800 C 149.758 238.800,147.552 240.157,147.288 240.629 C 147.011 241.124,142.202 241.190,112.983 241.102 L 79.000 241.000 79.000 201.941 L 79.000 162.881 80.643 160.941 C 82.915 158.256,82.136 158.322,113.800 158.121 C 143.314 157.934,148.306 158.156,148.703 159.673 C 148.804 160.058,149.207 160.475,149.600 160.600 C 151.093 161.074,151.283 166.402,151.082 202.000 C 150.978 220.370,150.761 236.090,150.599 236.934 C 150.320 238.386,150.356 238.461,151.252 238.334 L 152.200 238.200 152.302 199.463 C 152.403 160.987,152.399 160.725,151.602 160.516 C 151.161 160.401,150.800 160.041,150.800 159.716 C 150.800 159.391,150.440 159.031,150.000 158.916 C 149.557 158.800,149.200 158.370,149.200 157.953 C 149.200 157.221,148.236 157.200,115.400 157.200 C 82.333 157.200,81.600 157.217,81.600 157.968 M249.600 160.400 C 249.600 161.733,249.467 162.000,248.800 162.000 C 248.360 162.000,247.995 162.225,247.988 162.500 C 247.982 162.775,247.983 179.740,247.991 200.200 C 247.998 220.660,248.004 237.694,248.002 238.053 C 248.001 238.413,248.360 238.801,248.800 238.916 C 249.341 239.057,249.600 239.462,249.600 240.163 C 249.600 241.002,249.790 241.200,250.600 241.200 C 251.333 241.200,251.600 241.413,251.600 242.000 C 251.600 242.794,251.867 242.800,284.553 242.800 C 317.170 242.800,317.509 242.792,317.716 242.000 C 317.842 241.517,318.262 241.200,318.775 241.200 C 319.243 241.200,319.729 240.930,319.855 240.600 C 319.982 240.270,320.336 240.000,320.643 240.000 C 320.995 240.000,321.200 239.559,321.200 238.800 C 321.200 238.140,321.014 237.600,320.787 237.600 C 320.282 237.600,317.600 240.233,317.600 240.729 C 317.600 241.436,311.745 241.594,285.561 241.597 C 254.981 241.600,251.741 241.474,251.357 240.263 C 251.214 239.813,250.715 239.135,250.248 238.758 L 249.400 238.071 249.400 200.322 L 249.400 162.573 250.900 161.073 C 252.761 159.213,252.779 158.800,251.000 158.800 C 249.633 158.800,249.600 158.838,249.600 160.400 M189.200 199.557 C 189.200 236.323,189.181 237.280,188.437 237.474 C 187.527 237.712,187.299 239.488,187.600 244.000 C 187.871 248.061,188.738 246.700,189.075 241.688 C 189.203 239.770,189.509 237.947,189.754 237.639 C 190.436 236.780,190.383 163.023,189.700 162.340 C 189.300 161.940,189.200 169.383,189.200 199.557 M210.243 166.233 C 209.810 167.360,209.964 235.531,210.400 235.800 C 210.666 235.964,210.800 224.204,210.800 200.824 C 210.800 181.451,210.729 165.600,210.643 165.600 C 210.556 165.600,210.376 165.885,210.243 166.233 M211.184 238.242 C 210.553 239.903,211.168 245.580,212.062 246.346 C 212.560 246.772,212.800 247.520,212.800 248.645 C 212.800 249.715,213.081 250.649,213.587 251.256 L 214.373 252.200 214.387 249.500 C 214.399 247.062,214.322 246.800,213.600 246.800 C 212.851 246.800,212.800 246.533,212.800 242.633 C 212.800 237.308,212.180 235.623,211.184 238.242 M356.413 247.500 L 356.427 250.600 357.213 249.656 C 358.493 248.120,358.143 244.400,356.720 244.400 C 356.544 244.400,356.406 245.795,356.413 247.500 M185.600 249.600 C 185.600 252.101,185.517 252.400,184.827 252.400 C 183.937 252.400,183.426 253.620,183.809 254.829 C 184.159 255.930,185.600 254.769,185.600 253.387 C 185.600 252.898,185.858 252.284,186.173 252.022 C 187.577 250.858,187.719 246.800,186.357 246.800 C 185.686 246.800,185.600 247.119,185.600 249.600 M354.667 251.067 C 354.520 251.213,354.400 252.023,354.400 252.867 C 354.400 254.133,354.261 254.400,353.600 254.400 C 352.933 254.400,352.800 254.667,352.800 256.003 C 352.800 257.507,352.850 257.576,353.600 257.107 C 354.040 256.832,354.400 256.210,354.400 255.724 C 354.400 255.239,354.850 254.356,355.400 253.762 C 356.951 252.088,356.244 249.489,354.667 251.067 M214.400 253.310 C 214.400 254.583,215.867 256.011,216.223 255.084 C 216.686 253.877,216.236 252.605,215.300 252.472 C 214.580 252.370,214.400 252.537,214.400 253.310 M182.267 256.267 C 182.120 256.413,182.000 256.953,182.000 257.467 C 182.000 258.133,181.771 258.400,181.200 258.400 C 180.529 258.400,180.400 258.667,180.400 260.049 C 180.400 261.979,181.348 261.657,181.806 259.572 C 181.975 258.804,182.312 258.400,182.785 258.400 C 183.496 258.400,184.161 256.984,183.757 256.331 C 183.511 255.933,182.638 255.896,182.267 256.267 M216.472 257.296 C 216.662 258.625,218.000 258.742,218.000 257.429 C 218.000 256.655,217.795 256.400,217.172 256.400 C 216.543 256.400,216.375 256.615,216.472 257.296 M351.067 258.267 C 350.920 258.413,350.800 258.863,350.800 259.267 C 350.800 259.733,350.509 260.000,350.000 260.000 C 349.406 260.000,349.200 260.267,349.200 261.037 C 349.200 261.720,348.940 262.143,348.440 262.274 C 347.763 262.451,346.947 264.407,347.555 264.395 C 347.782 264.390,349.747 262.540,351.900 260.306 C 353.292 258.861,352.474 256.859,351.067 258.267 M218.400 259.911 C 218.400 260.527,218.756 261.327,219.200 261.707 C 219.640 262.084,220.000 262.643,220.000 262.949 C 220.000 263.256,220.360 263.601,220.800 263.716 C 221.240 263.831,221.600 264.216,221.600 264.572 C 221.600 264.928,222.050 265.391,222.600 265.600 C 223.150 265.809,223.600 266.234,223.600 266.543 C 223.600 266.853,223.960 267.201,224.400 267.316 C 224.840 267.431,225.200 267.783,225.200 268.098 C 225.200 268.414,225.650 268.877,226.200 269.127 C 226.750 269.378,227.200 269.857,227.200 270.191 C 227.200 270.530,227.549 270.800,227.986 270.800 C 228.418 270.800,228.965 271.160,229.200 271.600 C 229.435 272.040,229.969 272.400,230.385 272.400 C 230.801 272.400,231.496 272.850,231.929 273.400 C 232.879 274.608,234.225 274.713,234.516 273.600 C 234.696 272.913,234.528 272.800,233.325 272.800 C 232.250 272.800,231.875 272.610,231.711 271.980 C 231.579 271.477,231.051 271.070,230.348 270.930 C 229.574 270.775,229.200 270.456,229.200 269.950 C 229.200 269.464,228.915 269.200,228.390 269.200 C 227.894 269.200,227.433 268.812,227.200 268.200 C 226.967 267.588,226.506 267.200,226.010 267.200 C 225.467 267.200,225.200 266.937,225.200 266.400 C 225.200 265.876,224.933 265.600,224.428 265.600 C 223.932 265.600,223.610 265.278,223.528 264.700 C 223.446 264.122,223.078 263.754,222.500 263.672 C 221.857 263.581,221.600 263.275,221.600 262.600 C 221.600 261.925,221.343 261.619,220.700 261.528 C 220.010 261.430,219.771 261.096,219.675 260.100 C 219.516 258.457,218.400 258.291,218.400 259.911 M178.400 262.800 C 178.400 263.318,178.133 263.600,177.643 263.600 C 177.170 263.600,176.793 263.974,176.636 264.600 C 176.474 265.246,176.104 265.600,175.592 265.600 C 175.076 265.600,174.800 265.869,174.800 266.372 C 174.800 266.868,174.478 267.190,173.900 267.272 C 173.322 267.354,172.954 267.722,172.872 268.300 C 172.790 268.878,172.468 269.200,171.972 269.200 C 171.547 269.200,171.200 269.459,171.200 269.776 C 171.200 270.712,171.904 270.872,172.473 270.064 C 172.763 269.652,173.405 269.187,173.900 269.030 C 174.395 268.874,174.800 268.500,174.800 268.200 C 174.800 267.900,175.151 267.543,175.580 267.406 C 176.008 267.270,176.470 266.808,176.606 266.380 C 176.743 265.951,177.116 265.600,177.437 265.600 C 177.757 265.600,178.191 265.150,178.400 264.600 C 178.609 264.050,178.958 263.600,179.176 263.600 C 179.394 263.600,179.765 263.240,180.000 262.800 C 180.376 262.098,180.304 262.000,179.414 262.000 C 178.667 262.000,178.400 262.210,178.400 262.800 M345.253 265.450 C 344.871 265.880,344.833 266.193,345.126 266.486 C 345.720 267.080,346.885 266.534,346.730 265.734 C 346.554 264.827,345.914 264.704,345.253 265.450 M343.300 267.512 C 342.805 267.591,342.400 267.918,342.400 268.238 C 342.400 268.565,341.874 268.925,341.200 269.060 C 340.415 269.217,340.000 269.542,340.000 270.000 C 340.000 270.449,339.593 270.781,338.867 270.927 C 338.221 271.056,337.733 271.414,337.733 271.759 C 337.733 272.811,338.810 272.831,339.769 271.796 C 340.276 271.248,340.941 270.797,341.246 270.793 C 341.760 270.786,344.660 267.665,344.343 267.460 C 344.264 267.410,343.795 267.433,343.300 267.512 M167.867 271.067 C 167.720 271.213,167.600 271.663,167.600 272.067 C 167.600 272.653,167.286 272.800,166.027 272.800 C 164.805 272.800,164.397 272.979,164.200 273.600 C 164.003 274.221,163.595 274.400,162.373 274.400 C 160.962 274.400,160.800 274.503,160.800 275.400 C 160.800 276.205,160.999 276.400,161.819 276.400 C 162.392 276.400,163.244 275.962,163.765 275.400 C 164.300 274.822,165.135 274.400,165.742 274.400 C 166.360 274.400,166.999 274.070,167.293 273.600 C 167.568 273.160,167.992 272.800,168.235 272.800 C 169.172 272.800,170.476 271.315,169.776 271.046 C 168.941 270.726,168.200 270.734,167.867 271.067 M334.400 273.600 C 334.400 274.173,334.667 274.400,335.338 274.400 C 335.854 274.400,336.602 274.040,337.000 273.600 C 337.713 272.812,337.699 272.800,336.062 272.800 C 334.667 272.800,334.400 272.928,334.400 273.600 M235.485 274.649 C 235.005 275.128,236.461 276.400,237.490 276.400 C 239.049 276.400,238.586 274.638,236.986 274.481 C 236.318 274.416,235.642 274.491,235.485 274.649 M330.900 274.665 C 330.625 274.776,330.400 275.212,330.400 275.633 C 330.400 276.310,330.096 276.400,327.800 276.400 C 325.410 276.400,325.200 276.469,325.200 277.256 C 325.200 278.289,328.777 278.107,329.986 277.012 C 330.359 276.676,331.041 276.400,331.503 276.400 C 332.468 276.400,333.717 275.314,333.380 274.768 C 333.141 274.381,331.748 274.323,330.900 274.665 M154.800 277.200 C 154.800 278.343,158.289 278.352,159.656 277.213 L 160.600 276.427 157.700 276.413 C 155.062 276.401,154.800 276.472,154.800 277.200 M239.224 276.995 C 240.308 278.079,243.600 278.274,243.600 277.254 C 243.600 276.474,243.386 276.400,241.114 276.400 C 238.914 276.400,238.697 276.468,239.224 276.995 M77.200 306.153 C 77.200 325.173,77.334 334.400,77.610 334.400 C 78.669 334.400,78.800 331.397,78.800 307.024 C 78.800 293.096,78.913 281.137,79.050 280.450 L 79.300 279.200 110.626 279.200 C 131.079 279.200,142.039 279.061,142.200 278.800 C 142.364 278.535,131.769 278.398,110.724 278.395 C 93.276 278.392,78.595 278.281,78.100 278.148 L 77.200 277.907 77.200 306.153 M145.200 278.363 L 143.800 278.622 144.800 279.181 C 146.821 280.310,155.369 279.512,153.554 278.363 C 152.931 277.968,147.342 277.969,145.200 278.363 M244.400 278.351 C 244.400 279.699,250.649 280.427,253.078 279.361 C 254.572 278.706,254.582 278.688,253.600 278.387 C 252.195 277.955,244.400 277.925,244.400 278.351 M316.715 278.328 C 316.232 278.520,316.137 278.774,316.392 279.186 C 317.128 280.378,324.800 279.648,324.800 278.386 C 324.800 277.950,317.793 277.900,316.715 278.328 M254.879 280.036 C 255.113 280.739,313.460 281.100,314.157 280.403 C 314.428 280.132,304.938 280.000,285.313 280.000 C 269.227 280.000,255.756 279.881,255.378 279.736 C 254.895 279.551,254.747 279.640,254.879 280.036 M42.578 335.235 C 41.821 336.461,43.293 336.600,58.320 336.728 C 72.866 336.851,76.400 336.636,76.400 335.627 C 76.400 334.687,43.155 334.302,42.578 335.235 " stroke="none" fill="#1cc44c" fill-rule="evenodd"></path></g></svg>