<svg xmlns="http://www.w3.org/2000/svg" width="32" height="32" viewBox="0 0 32 32">
    <defs>
        <style>
            .cls-1 {
            fill: rgba(0,0,0,0);
            }

            .cls-2 {
            fill: #2967dd;
            }
        </style>
    </defs>
    <g id="_usb" data-name=" usb" transform="translate(-236 -1748)">
        <rect id="Path" class="cls-1" width="32" height="32" transform="translate(236 1748)"/>
        <path id="Icon" class="cls-2" d="M259.747,1758.224v2.666a1.337,1.337,0,0,1-1.333,1.333v2.667a2.675,2.675,0,0,1-2.667,2.667h-4v4.067a2.934,2.934,0,1,1-2.68,0v-4.067h-4a2.674,2.674,0,0,1-2.667-2.667v-2.76a2.924,2.924,0,1,1,2.667,0v2.76h4v-10.667h-1.333a.666.666,0,0,1-.533-1.066l2.667-3.56a.662.662,0,0,1,1.067,0l2.667,3.56a.666.666,0,0,1-.533,1.066h-1.333v10.667h4v-2.667a1.337,1.337,0,0,1-1.333-1.333v-2.666a1.337,1.337,0,0,1,1.333-1.333H258.4A1.358,1.358,0,0,1,259.747,1758.224Z" transform="translate(1.6 0.442)"/>
    </g>
</svg>
