<svg xmlns="http://www.w3.org/2000/svg" width="32" height="32" viewBox="0 0 32 32">
    <defs>
        <style>
            .cls-1 {
            fill: rgba(0,0,0,0);
            }

            .cls-2 {
            fill: #2967dd;
            }
        </style>
    </defs>
    <g id="_insert_drive_file" data-name=" insert_drive_file" transform="translate(-0.5)">
        <rect id="Path" class="cls-1" width="32" height="32" transform="translate(0.5)"/>
        <path id="Icon" class="cls-2" d="M18.667,26.667H2.653A2.663,2.663,0,0,1,0,24L.013,2.667A2.664,2.664,0,0,1,2.668,0h9.559a2.636,2.636,0,0,1,1.88.786l6.44,6.44a2.636,2.636,0,0,1,.786,1.88V24A2.669,2.669,0,0,1,18.667,26.667ZM12,2h0V8a1.335,1.335,0,0,0,1.333,1.333h6Z" transform="translate(5.333 2.667)"/>
    </g>
</svg>
