<svg xmlns="http://www.w3.org/2000/svg" width="24" height="24" viewBox="0 0 24 24">
  <defs>
    <style>
      .cls-1-sidebar{
        fill: rgba(0,0,0,0);
      }

      .cls-2-sidebar {
        fill: #fff;
      }
    </style>
  </defs>
  <g id="_category" data-name=" category" transform="translate(-611 -3122)">
    <rect id="Path" class="cls-1-sidebar" width="24" height="24" transform="translate(611 3122)"/>
    <path id="Icon" class="cls-2-sidebar" d="M628.5,3144a4.5,4.5,0,1,1,4.5-4.5A4.505,4.505,0,0,1,628.5,3144Zm-7.5-.5h-6a1,1,0,0,1-1-1v-6a1,1,0,0,1,1-1h6a1,1,0,0,1,1,1v6A1,1,0,0,1,621,3143.5Zm5.71-10.5h-7.43a1,1,0,0,1-.85-1.519l3.721-6.081a.993.993,0,0,1,1.7,0l3.71,6.081a1,1,0,0,1-.851,1.519Z"/>
  </g>
</svg>
