<svg xmlns="http://www.w3.org/2000/svg" width="24" height="24" viewBox="0 0 24 24" fill="none">
<path d="M9.909 3.69999C10.5331 3.3 11.2588 3.0874 12 3.0874C12.7412 3.0874 13.4669 3.3 14.091 3.69999L22.155 8.86999C22.2603 8.93761 22.347 9.03051 22.4073 9.14022C22.4675 9.24993 22.4993 9.37297 22.4998 9.49813C22.5003 9.62328 22.4695 9.74657 22.4101 9.85676C22.3508 9.96695 22.2648 10.0605 22.16 10.129L19 12.194V17.751C19 17.9133 18.9474 18.0712 18.85 18.201L18.849 18.202L18.848 18.204L18.845 18.208L18.836 18.218C18.8011 18.2641 18.7644 18.3088 18.726 18.352C18.6248 18.4665 18.5187 18.5766 18.408 18.682C18.131 18.949 17.718 19.296 17.158 19.64C16.037 20.33 14.339 21 12 21C9.661 21 7.964 20.33 6.841 19.64C6.39161 19.3662 5.97259 19.0454 5.591 18.683C5.48096 18.5776 5.37553 18.4675 5.275 18.353C5.23186 18.3045 5.1905 18.2545 5.151 18.203L5.15 18.2C5.05263 18.0702 5 17.9123 5 17.75V12.192L3 10.886V16.25C3 16.4489 2.92098 16.6397 2.78033 16.7803C2.63968 16.921 2.44891 17 2.25 17C2.05109 17 1.86032 16.921 1.71967 16.7803C1.57902 16.6397 1.5 16.4489 1.5 16.25V9.49999C1.4999 9.37159 1.53276 9.24531 1.59545 9.13325C1.65813 9.02119 1.74853 8.9271 1.858 8.85999L9.908 3.69999H9.909ZM14.119 15.382C13.4889 15.7935 12.7526 16.0127 12 16.0127C11.2474 16.0127 10.5111 15.7935 9.881 15.382L6.5 13.174V17.47C6.83808 17.8122 7.21652 18.1121 7.627 18.363C8.536 18.92 9.964 19.5 12 19.5C14.036 19.5 15.464 18.92 16.373 18.361C16.7834 18.1104 17.1619 17.8109 17.5 17.469V13.173L14.12 15.381L14.119 15.382ZM13.282 4.96299C12.501 4.46299 11.499 4.46299 10.718 4.96299L3.63 9.50699L10.701 14.127C11.491 14.642 12.51 14.642 13.299 14.127L20.369 9.50699L13.282 4.96299Z" fill="#4791FF"/>
</svg>