<svg width="24" height="24" viewBox="0 0 24 24" fill="none" xmlns="http://www.w3.org/2000/svg">
<path class="cls-2-sidebar" d="M11.7898 3.94768L11.7905 3.94653C11.8882 3.78616 12.1118 3.78616 12.2095 3.94653L12.2098 3.94691L15.9198 10.0269L15.9198 10.0269L15.9229 10.032C16.0202 10.1887 15.9062 10.4062 15.71 10.4062H8.28C8.08377 10.4062 7.96975 10.1887 8.06708 10.032L8.06975 10.0277L11.7898 3.94768Z" stroke="#7E7E7E" stroke-width="1.5"/>
<path class="cls-2-sidebar" d="M21.25 17.6562C21.25 19.7273 19.5711 21.4062 17.5 21.4062C15.4289 21.4062 13.75 19.7273 13.75 17.6562C13.75 15.5852 15.4289 13.9062 17.5 13.9062C19.5711 13.9062 21.25 15.5852 21.25 17.6562Z" stroke="#7E7E7E" stroke-width="1.5"/>
<path class="cls-2-sidebar" d="M10 20.9062H4C3.86421 20.9062 3.75 20.792 3.75 20.6562V14.6562C3.75 14.5205 3.86421 14.4062 4 14.4062H10C10.1358 14.4062 10.25 14.5205 10.25 14.6562V20.6562C10.25 20.792 10.1358 20.9062 10 20.9062Z" stroke="#7E7E7E" stroke-width="1.5"/>
</svg>
