<?xml version="1.0" encoding="UTF-8" standalone="no"?>
<!DOCTYPE svg PUBLIC "-//W3C//DTD SVG 1.1//EN" "http://www.w3.org/Graphics/SVG/1.1/DTD/svg11.dtd">
<svg width="30" height="36" viewBox="0 0 30 36" fill="none" xmlns="http://www.w3.org/2000/svg">
<path fill-rule="evenodd" clip-rule="evenodd" d="M15.3202 7.34619C17.3527 7.34667 19.3605 7.76874 21.2023 8.5827C23.044 9.39665 24.675 10.5827 25.9804 12.0575C27.2858 13.5322 28.234 15.2598 28.7582 17.1187C29.2824 18.9776 29.37 20.9227 29.0147 22.8171C28.6594 24.7115 27.8698 26.5092 26.7017 28.0837C25.5335 29.6582 24.015 30.9712 22.2531 31.9305C20.4912 32.8898 18.5286 33.472 16.5034 33.6361C14.4782 33.8002 12.4396 33.5423 10.5311 32.8805V14.0683C10.1496 14.3087 9.78882 14.5774 9.45226 14.8719C8.64991 15.5342 8.00942 16.3538 7.57527 17.2738C7.14112 18.1939 6.92372 19.1923 6.93814 20.1999V31.0157C4.87039 29.5386 3.27939 27.5444 2.34429 25.2577C1.40919 22.971 1.16716 20.4825 1.64543 18.0726C2.1237 15.6627 3.30329 13.4271 5.05135 11.6175C6.79941 9.80785 9.0465 8.49618 11.5396 7.83015V22.6952C11.5396 28.0986 17.065 28.6669 19.8325 27.1351C21.0392 26.4537 22.0393 25.4886 22.7359 24.3335C23.3721 23.1356 23.6832 21.8065 23.6412 20.4663C23.6379 18.5097 22.8594 16.6254 21.4594 15.1859C20.0593 13.7464 18.1397 12.8565 16.08 12.6919V16.1196C17.0548 16.2568 17.9573 16.6863 18.6551 17.345C19.1035 17.7365 19.4603 18.2126 19.7027 18.7425C19.945 19.2724 20.0675 19.8445 20.0623 20.4219C20.0623 21.9315 19.5932 23.0859 18.5988 23.9206C16.9009 25.3591 15.1419 24.5111 15.1419 22.6952V7.35064L15.3202 7.34619Z" fill="#D93865"/>
<path d="M9.32568 4.88209L10.8923 3.15049V3.15493L12.459 1.42779L13.322 0.46875L14.1898 1.42779L15.7564 3.15493V3.15049L17.3231 4.88209L15.5923 6.05868L14.0256 4.33153V4.32709L13.322 3.5501L12.6231 4.32709V4.33153L11.0518 6.05868L9.32568 4.88209Z" fill="#D93865"/>
</svg>

