<svg width="20" height="20" viewBox="0 0 20 20" fill="none" xmlns="http://www.w3.org/2000/svg">
<path d="M5.93594 15.631L6.26006 14.9547C6.23702 14.9436 6.21342 14.9338 6.18937 14.9251L5.93594 15.631ZM15.4328 5.97813L14.7311 6.24312C14.742 6.27198 14.7547 6.30014 14.7691 6.32744L15.4328 5.97813ZM18.6511 12.0929L19.3147 11.7436V11.7436L18.6511 12.0929ZM17.8174 17.7214L17.2834 17.1947L17.8174 17.7214ZM12.3043 18.6828L12.6284 18.0065H12.6284L12.3043 18.6828ZM6.18937 14.9251C3.60008 13.9955 1.75 11.5188 1.75 8.6119H0.25C0.25 12.1717 2.51636 15.2002 5.68251 16.3369L6.18937 14.9251ZM1.75 8.6119C1.75 4.90847 4.75222 1.90625 8.45565 1.90625V0.40625C3.92379 0.40625 0.25 4.08004 0.25 8.6119H1.75ZM8.45565 1.90625C11.324 1.90625 13.7735 3.7075 14.7311 6.24312L16.1344 5.71314C14.9635 2.61298 11.9682 0.40625 8.45565 0.40625V1.90625ZM19.3147 11.7436L16.0964 5.62882L14.7691 6.32744L17.9874 12.4422L19.3147 11.7436ZM18.3513 18.2481C20.0548 16.5211 20.4445 13.8902 19.3147 11.7436L17.9874 12.4422C18.8128 14.0106 18.5281 15.9329 17.2834 17.1947L18.3513 18.2481ZM11.9802 19.3592C14.1234 20.3863 16.6823 19.94 18.3513 18.2481L17.2834 17.1947C16.064 18.4309 14.1944 18.7569 12.6284 18.0065L11.9802 19.3592ZM5.61182 16.3074L11.9802 19.3592L12.6284 18.0065L6.26006 14.9547L5.61182 16.3074Z" fill="#7E7E7E"/>
<path class="cls-2-sidebar" d="M8.36569 3.6592V5.26417" stroke="#7E7E7E" stroke-width="1.5" stroke-linecap="round" stroke-linejoin="round"/>
<path class="cls-2-sidebar" d="M8.36569 11.6402V13.2451" stroke="#7E7E7E" stroke-width="1.5" stroke-linecap="round" stroke-linejoin="round"/>
<path class="cls-2-sidebar" d="M4.22028 6.05567L5.60888 6.8472" stroke="#7E7E7E" stroke-width="1.5" stroke-linecap="round" stroke-linejoin="round"/>
<path class="cls-2-sidebar" d="M11.1457 10.0573L12.511 10.8488" stroke="#7E7E7E" stroke-width="1.5" stroke-linecap="round" stroke-linejoin="round"/>
<path class="cls-2-sidebar" d="M4.22028 10.8488L5.60888 10.0573" stroke="#7E7E7E" stroke-width="1.5" stroke-linecap="round" stroke-linejoin="round"/>
<path class="cls-2-sidebar" d="M11.1457 6.8472L12.511 6.05567" stroke="#7E7E7E" stroke-width="1.5" stroke-linecap="round" stroke-linejoin="round"/>
<path class="cls-2-sidebar" d="M8.36549 5.25569C10.1321 5.25569 11.5617 6.68811 11.5617 8.45194C11.5617 10.2158 10.1321 11.6482 8.36549 11.6482C6.59893 11.6482 5.16925 10.2185 5.16925 8.45194C5.16925 6.68537 6.59893 5.25569 8.36549 5.25569Z" stroke="#7E7E7E" stroke-width="1.5" stroke-linecap="round" stroke-linejoin="round"/>
<path d="M16.4689 14.8428C16.4689 15.7252 15.7536 16.4405 14.8713 16.4405C13.9889 16.4405 13.2736 15.7252 13.2736 14.8428C13.2736 13.9605 13.9889 13.2452 14.8713 13.2452C15.7536 13.2452 16.4689 13.9605 16.4689 14.8428Z" fill="#7E7E7E"/>
</svg>
