<svg xmlns="http://www.w3.org/2000/svg" width="32" height="32" viewBox="0 0 32 32">
    <defs>
        <style>
            .cls-1 {
            fill: rgba(0,0,0,0);
            }

            .cls-2 {
            fill: #2967dd;
            }
        </style>
    </defs>
    <g id="_question_answer" data-name=" question_answer" transform="translate(-168 -374)">
        <rect id="Path" class="cls-1" width="32" height="32" transform="translate(168 374)"/>
        <path id="Icon" class="cls-2" d="M26.666,26.666l0,0-5.331-5.332H8a2.67,2.67,0,0,1-2.668-2.666V17.333h16A1.335,1.335,0,0,0,22.667,16V5.333H24A2.669,2.669,0,0,1,26.666,8V26.666ZM0,20V2.666A2.669,2.669,0,0,1,2.666,0H17.333A2.67,2.67,0,0,1,20,2.666V12a2.671,2.671,0,0,1-2.668,2.668h-12L0,20Z" transform="translate(170.667 376.667)"/>
    </g>
</svg>
