<svg width="135" height="93" viewBox="0 0 135 93" fill="none" xmlns="http://www.w3.org/2000/svg">
<path d="M33.0491 20.0868H10.4425C9.94284 20.0868 9.46368 19.8843 9.11038 19.524C8.75708 19.1637 8.55859 18.675 8.55859 18.1654C8.55859 17.6559 8.75708 17.1672 9.11038 16.8069C9.46368 16.4466 9.94284 16.2441 10.4425 16.2441H33.0491C33.5487 16.2441 34.0279 16.4466 34.3812 16.8069C34.7345 17.1672 34.933 17.6559 34.933 18.1654C34.933 18.675 34.7345 19.1637 34.3812 19.524C34.0279 19.8843 33.5487 20.0868 33.0491 20.0868Z" fill="#D9D9D9"/>
<path d="M64.1348 29.1689H10.4471C9.94624 29.1689 9.4659 28.9757 9.11174 28.6318C8.75757 28.2878 8.55859 27.8214 8.55859 27.335C8.55859 26.8486 8.75757 26.3821 9.11174 26.0381C9.4659 25.6942 9.94624 25.501 10.4471 25.501H64.1348C64.6356 25.501 65.116 25.6942 65.4702 26.0381C65.8243 26.3821 66.0233 26.8486 66.0233 27.335C66.0233 27.8214 65.8243 28.2878 65.4702 28.6318C65.116 28.9757 64.6356 29.1689 64.1348 29.1689Z" fill="#D9D9D9"/>
<path d="M81.3456 32.8369C78.8087 36.523 77.3299 40.8295 77.0691 45.2917C76.8082 49.754 77.775 54.2025 79.8652 58.1572C81.9554 62.112 85.0897 65.4228 88.9297 67.7325C92.7697 70.0422 97.1698 71.263 101.655 71.2631V49.8381L81.3456 32.8369Z" fill="#D3ADF7"/>
<path d="M101.655 22.1826C97.6644 22.1801 93.7337 23.1473 90.2032 25.0005C86.6727 26.8536 83.6488 29.5368 81.3936 32.8175L101.655 49.7796V22.1826Z" fill="#E8E8E8"/>
<path d="M101.576 71.6126H101.306V22.0078H101.576C108.175 22.0078 114.504 24.6209 119.17 29.2723C123.836 33.9236 126.457 40.2322 126.457 46.8102C126.457 53.3882 123.836 59.6968 119.17 64.3481C114.504 68.9995 108.175 71.6126 101.576 71.6126ZM101.847 22.5484V71.072C108.255 71.001 114.376 68.4135 118.883 63.8713C123.389 59.3291 125.916 53.1985 125.916 46.8102C125.916 40.4219 123.389 34.2914 118.883 29.7491C114.376 25.2069 108.255 22.6195 101.847 22.5484Z" fill="#595959"/>
<path d="M26.0386 81.5686H21.4704C21.1499 81.5682 20.8425 81.441 20.6158 81.2149C20.3891 80.9888 20.2616 80.6823 20.2612 80.3625V67.2295C20.2616 66.9098 20.3891 66.6032 20.6158 66.3771C20.8425 66.151 21.1499 66.0238 21.4704 66.0234H26.0386C26.3592 66.0238 26.6666 66.151 26.8933 66.3771C27.12 66.6032 27.2475 66.9098 27.2478 67.2295V80.3625C27.2475 80.6823 27.1199 80.9888 26.8933 81.2149C26.6666 81.441 26.3592 81.5682 26.0386 81.5686Z" fill="#D9D9D9"/>
<path d="M39.6323 81.5684H34.9499C34.6213 81.5681 34.3062 81.4402 34.0739 81.2128C33.8415 80.9854 33.7108 80.6771 33.7104 80.3555V60.9483C33.7108 60.6267 33.8415 60.3184 34.0739 60.091C34.3062 59.8636 34.6213 59.7357 34.9499 59.7354H39.6323C39.9609 59.7357 40.2759 59.8636 40.5083 60.091C40.7406 60.3184 40.8713 60.6267 40.8717 60.9483V80.3555C40.8713 80.6771 40.7406 80.9854 40.5083 81.2128C40.2759 81.4402 39.9609 81.5681 39.6323 81.5684Z" fill="#FFADD2"/>
<path d="M53.1114 81.5681H48.5432C48.2226 81.5678 47.9153 81.4406 47.6886 81.2144C47.4619 80.9883 47.3343 80.6817 47.334 80.3619V55.7013C47.3343 55.3815 47.4619 55.0749 47.6886 54.8488C47.9153 54.6227 48.2226 54.4955 48.5432 54.4951H53.1114C53.432 54.4955 53.7393 54.6227 53.966 54.8488C54.1927 55.0749 54.3202 55.3815 54.3206 55.7013V80.3619C54.3202 80.6817 54.1927 80.9883 53.966 81.2144C53.7393 81.4406 53.432 81.5678 53.1114 81.5681Z" fill="#D3ADF7"/>
<path d="M26.0963 81.7427H21.5874C21.2358 81.7423 20.8987 81.6003 20.6501 81.3479C20.4015 81.0955 20.2616 80.7532 20.2612 80.3963V50.7761C20.2616 50.4191 20.4015 50.0769 20.6501 49.8245C20.8987 49.5721 21.2358 49.4301 21.5874 49.4297H26.0963C26.4479 49.4301 26.785 49.5721 27.0336 49.8245C27.2822 50.0769 27.4221 50.4191 27.4225 50.7761V80.3963C27.4221 80.7532 27.2822 81.0955 27.0336 81.3479C26.785 81.6003 26.4479 81.7423 26.0963 81.7427ZM21.5874 49.9682C21.3764 49.9685 21.1742 50.0537 21.025 50.2051C20.8758 50.3565 20.7919 50.5619 20.7917 50.7761V80.3963C20.7919 80.6105 20.8758 80.8158 21.025 80.9672C21.1742 81.1187 21.3764 81.2039 21.5874 81.2041H26.0963C26.3073 81.2039 26.5095 81.1187 26.6587 80.9672C26.8079 80.8158 26.8918 80.6105 26.892 80.3963V50.7761C26.8918 50.5619 26.8079 50.3565 26.6587 50.2051C26.5095 50.0537 26.3073 49.9685 26.0963 49.9682H21.5874Z" fill="#595959"/>
<path d="M39.5455 81.7427H35.0366C34.685 81.7423 34.3479 81.6003 34.0993 81.3479C33.8507 81.0955 33.7109 80.7532 33.7104 80.3963V50.7761C33.7109 50.4191 33.8507 50.0769 34.0993 49.8245C34.3479 49.5721 34.685 49.4301 35.0366 49.4297H39.5455C39.8971 49.4301 40.2342 49.5721 40.4828 49.8245C40.7315 50.0769 40.8713 50.4191 40.8717 50.7761V80.3963C40.8713 80.7532 40.7315 81.0955 40.4828 81.3479C40.2342 81.6003 39.8971 81.7423 39.5455 81.7427ZM35.0366 49.9682C34.8256 49.9685 34.6234 50.0537 34.4742 50.2051C34.325 50.3565 34.2411 50.5619 34.2409 50.7761V80.3963C34.2411 80.6105 34.325 80.8158 34.4742 80.9672C34.6234 81.1187 34.8256 81.2039 35.0366 81.2041H39.5455C39.7565 81.2039 39.9588 81.1187 40.1079 80.9672C40.2571 80.8158 40.341 80.6105 40.3412 80.3963V50.7761C40.341 50.5619 40.2571 50.3565 40.1079 50.2051C39.9588 50.0537 39.7565 49.9685 39.5455 49.9682H35.0366Z" fill="#595959"/>
<path d="M52.9948 81.7427H48.4858C48.1342 81.7423 47.7972 81.6003 47.5485 81.3479C47.2999 81.0955 47.1601 80.7532 47.1597 80.3963V50.7761C47.1601 50.4191 47.2999 50.0769 47.5485 49.8245C47.7972 49.5721 48.1342 49.4301 48.4858 49.4297H52.9948C53.3464 49.4301 53.6834 49.5721 53.9321 49.8245C54.1807 50.0769 54.3205 50.4191 54.3209 50.7761V80.3963C54.3205 80.7532 54.1807 81.0955 53.9321 81.3479C53.6834 81.6003 53.3464 81.7423 52.9948 81.7427ZM48.4858 49.9682C48.2749 49.9685 48.0726 50.0537 47.9234 50.2051C47.7743 50.3565 47.6904 50.5619 47.6901 50.7761V80.3963C47.6904 80.6105 47.7743 80.8158 47.9234 80.9672C48.0726 81.1187 48.2749 81.2039 48.4858 81.2041H52.9948C53.2057 81.2039 53.408 81.1187 53.5572 80.9672C53.7063 80.8158 53.7902 80.6105 53.7905 80.3963V50.7761C53.7902 50.5619 53.7063 50.3565 53.5572 50.2051C53.408 50.0537 53.2057 49.9685 52.9948 49.9682H48.4858Z" fill="#595959"/>
</svg>
