<svg width="18" height="22" viewBox="0 0 18 22" fill="none" xmlns="http://www.w3.org/2000/svg">
<path d="M8 1.90625C7.58579 1.90625 7.25 2.24204 7.25 2.65625C7.25 3.07046 7.58579 3.40625 8 3.40625V1.90625ZM16.1213 5.60557L15.591 6.1359L16.1213 5.60557ZM4 21.4062H14V19.9062H4V21.4062ZM11.9294 1.90625H8V3.40625H11.9294V1.90625ZM0.25 5.65625V17.6562H1.75V5.65625H0.25ZM17.75 17.6562V7.72689H16.25V17.6562H17.75ZM16.6517 5.07524L14.581 3.0046L13.5204 4.06526L15.591 6.1359L16.6517 5.07524ZM11.9294 3.40625C12.5261 3.40625 13.0984 3.6433 13.5204 4.06526L14.581 3.0046C13.8777 2.30134 12.9239 1.90625 11.9294 1.90625V3.40625ZM17.75 7.72689C17.75 6.73233 17.3549 5.7785 16.6517 5.07524L15.591 6.1359C16.0129 6.55786 16.25 7.13015 16.25 7.72689H17.75ZM14 21.4062C16.0711 21.4062 17.75 19.7273 17.75 17.6562H16.25C16.25 18.8989 15.2426 19.9062 14 19.9062V21.4062ZM4 19.9062C2.75736 19.9062 1.75 18.8989 1.75 17.6562H0.25C0.25 19.7273 1.92893 21.4062 4 21.4062V19.9062ZM4 1.90625C1.92893 1.90625 0.25 3.58518 0.25 5.65625H1.75C1.75 4.41361 2.75736 3.40625 4 3.40625V1.90625Z" fill="#7E7E7E"/>
<path d="M17 8.40625C17.4142 8.40625 17.75 8.07046 17.75 7.65625C17.75 7.24204 17.4142 6.90625 17 6.90625V8.40625ZM12.75 2.65625C12.75 2.24204 12.4142 1.90625 12 1.90625C11.5858 1.90625 11.25 2.24204 11.25 2.65625H12.75ZM17 6.90625H14V8.40625H17V6.90625ZM12.75 5.65625V2.65625H11.25V5.65625H12.75ZM14 6.90625C13.3096 6.90625 12.75 6.34661 12.75 5.65625H11.25C11.25 7.17503 12.4812 8.40625 14 8.40625V6.90625Z" fill="#7E7E7E"/>
<path class="cls-2-sidebar" d="M7 1.65625H5C4.448 1.65625 4 2.10425 4 2.65625V7.65625L6 6.65625L8 7.65625V2.65625C8 2.10425 7.552 1.65625 7 1.65625Z" stroke="#7E7E7E" stroke-width="1.5" stroke-linecap="round" stroke-linejoin="round"/>
<path class="cls-2-sidebar" d="M4 11.6562H13" stroke="#7E7E7E" stroke-width="1.5" stroke-linecap="round" stroke-linejoin="round"/>
<path class="cls-2-sidebar" d="M4 15.1562H13" stroke="#7E7E7E" stroke-width="1.5" stroke-linecap="round" stroke-linejoin="round"/>
</svg>
