<svg width="35" height="35" viewBox="0 0 35 35" fill="none" xmlns="http://www.w3.org/2000/svg">
<path fill-rule="evenodd" clip-rule="evenodd" d="M17.8261 34.9718C27.2815 34.9718 34.9466 27.3067 34.9466 17.8512C34.9466 8.39584 27.2815 0.730713 17.8261 0.730713C9.41269 0.730713 2.41671 6.79952 0.976965 14.7984C2.80251 14.5779 4.94032 14.427 6.50069 14.4294C8.51955 14.4326 11.5041 14.7543 13.1106 15.087C13.8249 13.9546 15.171 13.3534 16.5169 13.6025C17.2972 11.9708 17.7769 10.9892 19.2103 8.94708C20.702 6.82177 23.8837 5.48105 23.8837 5.99821C23.8838 7.05252 23.7916 8.37963 22.3036 10.7388C21.2349 12.4332 19.8684 13.9548 18.7319 15.0673C19.2822 15.8969 19.4659 16.9575 19.141 17.9712C19.022 18.3424 18.8443 18.6778 18.6215 18.9704C19.4444 20.574 20.287 22.5432 21.0563 24.3412L21.0563 24.3414L21.0565 24.3416C21.3058 24.9243 21.5474 25.489 21.7781 26.0174C22.8302 28.4265 22.7267 32.5613 22.304 32.3371C21.0271 31.6597 18.9997 29.297 18.0903 27.0713C17.9548 26.7398 17.8018 26.3712 17.639 25.9793L17.6378 25.9762L17.6375 25.9755L17.6375 25.9755C16.8551 24.0915 15.8496 21.6697 15.4963 20.2364C15.3061 20.208 15.1154 20.1628 14.9262 20.0999C13.9674 19.7811 13.2427 19.0728 12.8718 18.2095L12.8227 18.2066C10.7856 18.0839 8.57596 17.9508 6.50682 17.6558C4.97195 17.4369 2.50022 16.593 0.814172 15.9121C0.742421 16.5486 0.705566 17.1956 0.705566 17.8512C0.705566 27.3067 8.37069 34.9718 17.8261 34.9718Z" fill="url(#paint0_linear_313_91359)"/>
<defs>
<linearGradient id="paint0_linear_313_91359" x1="9.26584" y1="3.02443" x2="26.3864" y2="32.6781" gradientUnits="userSpaceOnUse">
<stop stop-color="#62F91F"/>
<stop offset="1" stop-color="#45BD35"/>
</linearGradient>
</defs>
</svg>
