<svg width="24" height="24" viewBox="0 0 24 24" fill="none" xmlns="http://www.w3.org/2000/svg">
<path d="M7.447 11.893L8.447 11.393C8.786 11.224 9 10.877 9 10.499V8.535C9 8.201 9.167 7.888 9.445 7.703L11.554 6.298C11.833 6.112 12 5.8 12 5.466V5C12 3.89543 11.1046 3 10 3H5C3.89543 3 3 3.89543 3 5V5.466C3 5.8 3.167 6.112 3.445 6.298L5.554 7.703C5.833 7.889 6 8.201 6 8.535V10.998C6 11.742 6.782 12.226 7.447 11.893Z" stroke="#595959" stroke-width="1.5" stroke-linecap="round" stroke-linejoin="round"/>
<path d="M6 16V18C6 19.6569 7.34315 21 9 21H18C19.6569 21 21 19.6569 21 18V6C21 4.34315 19.6569 3 18 3H16" stroke="#595959" stroke-width="1.5" stroke-linecap="round" stroke-linejoin="round"/>
<path d="M13 9H17" stroke="#595959" stroke-width="1.5" stroke-linecap="round" stroke-linejoin="round"/>
<path d="M12 13H17" stroke="#595959" stroke-width="1.5" stroke-linecap="round" stroke-linejoin="round"/>
<path d="M10 17H17" stroke="#595959" stroke-width="1.5" stroke-linecap="round" stroke-linejoin="round"/>
</svg>
