<svg xmlns="http://www.w3.org/2000/svg" width="24" height="24" viewBox="0 0 24 24" fill="none">
<path d="M17.0115 3.34501C15.4893 2.4615 13.76 1.9974 12 2.00001C6.477 2.00001 2 6.47701 2 12C2 17.523 6.477 22 12 22C17.523 22 22 17.523 22 12C22 10.1865 21.517 8.48501 20.673 7.01901" stroke="#06B7C3" stroke-width="2" stroke-linecap="round" stroke-linejoin="round"/>
<path d="M15.9752 8.0249C15.9752 8.0249 14.2812 12.5474 13.5002 13.3284C13.1252 13.7035 12.6164 13.9142 12.086 13.9142C11.5555 13.9142 11.0468 13.7035 10.6717 13.3284C10.2967 12.9533 10.0859 12.4446 10.0859 11.9142C10.0859 11.3837 10.2967 10.875 10.6717 10.4999C11.4527 9.7189 15.9752 8.0249 15.9752 8.0249Z" stroke="#06B7C3" stroke-width="2" stroke-linejoin="round"/>
</svg>