<svg xmlns="http://www.w3.org/2000/svg" width="32" height="32" viewBox="0 0 32 32">
  <defs>
    <style>
      .cls-1 {
        fill: rgba(0,0,0,0);
      }

      .cls-2 {
        fill: #2967dd;
      }
    </style>
  </defs>
  <g id="_vpn_key" data-name=" vpn_key" transform="translate(-134 -1260)">
    <rect id="Path" class="cls-1" width="32" height="32" transform="translate(134 1260)"/>
    <path id="Icon" class="cls-2" d="M23.995,16a2.67,2.67,0,0,1-2.666-2.667V10.669h-5.8A8,8,0,1,1,6.355.163,8.456,8.456,0,0,1,7.995,0a8,8,0,0,1,7.533,5.336H26.661a2.666,2.666,0,1,1,0,5.333v2.667A2.67,2.67,0,0,1,23.995,16ZM8,5.336A2.667,2.667,0,1,0,10.661,8,2.67,2.67,0,0,0,8,5.336Z" transform="translate(135.339 1267.997)"/>
  </g>
</svg>
