<svg width="20" height="20" viewBox="0 0 20 20" fill="none" xmlns="http://www.w3.org/2000/svg">
<path d="M5 1.90625H15V0.40625H5V1.90625ZM15 18.4062H5V19.9062H15V18.4062ZM18.25 5.15625V15.1562H19.75V5.15625H18.25ZM1.75 15.1562C1.75 15.1497 1.75 15.1432 1.75 15.1367C1.75 15.1302 1.75 15.1237 1.75 15.1172C1.75 15.1107 1.75 15.1042 1.75 15.0977C1.75 15.0911 1.75 15.0846 1.75 15.0781C1.75 15.0716 1.75 15.0651 1.75 15.0586C1.75 15.0521 1.75 15.0456 1.75 15.0391C1.75 15.0326 1.75 15.026 1.75 15.0195C1.75 15.013 1.75 15.0065 1.75 15C1.75 14.9935 1.75 14.987 1.75 14.9805C1.75 14.974 1.75 14.9674 1.75 14.9609C1.75 14.9544 1.75 14.9479 1.75 14.9414C1.75 14.9349 1.75 14.9284 1.75 14.9219C1.75 14.9154 1.75 14.9089 1.75 14.9023C1.75 14.8958 1.75 14.8893 1.75 14.8828C1.75 14.8763 1.75 14.8698 1.75 14.8633C1.75 14.8568 1.75 14.8503 1.75 14.8438C1.75 14.8372 1.75 14.8307 1.75 14.8242C1.75 14.8177 1.75 14.8112 1.75 14.8047C1.75 14.7982 1.75 14.7917 1.75 14.7852C1.75 14.7786 1.75 14.7721 1.75 14.7656C1.75 14.7591 1.75 14.7526 1.75 14.7461C1.75 14.7396 1.75 14.7331 1.75 14.7266C1.75 14.7201 1.75 14.7135 1.75 14.707C1.75 14.7005 1.75 14.694 1.75 14.6875C1.75 14.681 1.75 14.6745 1.75 14.668C1.75 14.6615 1.75 14.6549 1.75 14.6484C1.75 14.6419 1.75 14.6354 1.75 14.6289C1.75 14.6224 1.75 14.6159 1.75 14.6094C1.75 14.6029 1.75 14.5964 1.75 14.5898C1.75 14.5833 1.75 14.5768 1.75 14.5703C1.75 14.5638 1.75 14.5573 1.75 14.5508C1.75 14.5443 1.75 14.5378 1.75 14.5312C1.75 14.5247 1.75 14.5182 1.75 14.5117C1.75 14.5052 1.75 14.4987 1.75 14.4922C1.75 14.4857 1.75 14.4792 1.75 14.4727C1.75 14.4661 1.75 14.4596 1.75 14.4531C1.75 14.4466 1.75 14.4401 1.75 14.4336C1.75 14.4271 1.75 14.4206 1.75 14.4141C1.75 14.4076 1.75 14.401 1.75 14.3945C1.75 14.388 1.75 14.3815 1.75 14.375C1.75 14.3685 1.75 14.362 1.75 14.3555C1.75 14.349 1.75 14.3424 1.75 14.3359C1.75 14.3294 1.75 14.3229 1.75 14.3164C1.75 14.3099 1.75 14.3034 1.75 14.2969C1.75 14.2904 1.75 14.2839 1.75 14.2773C1.75 14.2708 1.75 14.2643 1.75 14.2578C1.75 14.2513 1.75 14.2448 1.75 14.2383C1.75 14.2318 1.75 14.2253 1.75 14.2188C1.75 14.2122 1.75 14.2057 1.75 14.1992C1.75 14.1927 1.75 14.1862 1.75 14.1797C1.75 14.1732 1.75 14.1667 1.75 14.1602C1.75 14.1536 1.75 14.1471 1.75 14.1406C1.75 14.1341 1.75 14.1276 1.75 14.1211C1.75 14.1146 1.75 14.1081 1.75 14.1016C1.75 14.0951 1.75 14.0885 1.75 14.082C1.75 14.0755 1.75 14.069 1.75 14.0625C1.75 14.056 1.75 14.0495 1.75 14.043C1.75 14.0365 1.75 14.0299 1.75 14.0234C1.75 14.0169 1.75 14.0104 1.75 14.0039C1.75 13.9974 1.75 13.9909 1.75 13.9844C1.75 13.9779 1.75 13.9714 1.75 13.9648C1.75 13.9583 1.75 13.9518 1.75 13.9453C1.75 13.9388 1.75 13.9323 1.75 13.9258C1.75 13.9193 1.75 13.9128 1.75 13.9062C1.75 13.8997 1.75 13.8932 1.75 13.8867C1.75 13.8802 1.75 13.8737 1.75 13.8672C1.75 13.8607 1.75 13.8542 1.75 13.8477C1.75 13.8411 1.75 13.8346 1.75 13.8281C1.75 13.8216 1.75 13.8151 1.75 13.8086C1.75 13.8021 1.75 13.7956 1.75 13.7891C1.75 13.7826 1.75 13.776 1.75 13.7695C1.75 13.763 1.75 13.7565 1.75 13.75C1.75 13.7435 1.75 13.737 1.75 13.7305C1.75 13.724 1.75 13.7174 1.75 13.7109C1.75 13.7044 1.75 13.6979 1.75 13.6914C1.75 13.6849 1.75 13.6784 1.75 13.6719C1.75 13.6654 1.75 13.6589 1.75 13.6523C1.75 13.6458 1.75 13.6393 1.75 13.6328C1.75 13.6263 1.75 13.6198 1.75 13.6133C1.75 13.6068 1.75 13.6003 1.75 13.5938C1.75 13.5872 1.75 13.5807 1.75 13.5742C1.75 13.5677 1.75 13.5612 1.75 13.5547C1.75 13.5482 1.75 13.5417 1.75 13.5352C1.75 13.5286 1.75 13.5221 1.75 13.5156C1.75 13.5091 1.75 13.5026 1.75 13.4961C1.75 13.4896 1.75 13.4831 1.75 13.4766C1.75 13.4701 1.75 13.4635 1.75 13.457C1.75 13.4505 1.75 13.444 1.75 13.4375C1.75 13.431 1.75 13.4245 1.75 13.418C1.75 13.4115 1.75 13.4049 1.75 13.3984C1.75 13.3919 1.75 13.3854 1.75 13.3789C1.75 13.3724 1.75 13.3659 1.75 13.3594C1.75 13.3529 1.75 13.3464 1.75 13.3398C1.75 13.3333 1.75 13.3268 1.75 13.3203C1.75 13.3138 1.75 13.3073 1.75 13.3008C1.75 13.2943 1.75 13.2878 1.75 13.2812C1.75 13.2747 1.75 13.2682 1.75 13.2617C1.75 13.2552 1.75 13.2487 1.75 13.2422C1.75 13.2357 1.75 13.2292 1.75 13.2227C1.75 13.2161 1.75 13.2096 1.75 13.2031C1.75 13.1966 1.75 13.1901 1.75 13.1836C1.75 13.1771 1.75 13.1706 1.75 13.1641C1.75 13.1576 1.75 13.151 1.75 13.1445C1.75 13.138 1.75 13.1315 1.75 13.125C1.75 13.1185 1.75 13.112 1.75 13.1055C1.75 13.099 1.75 13.0924 1.75 13.0859C1.75 13.0794 1.75 13.0729 1.75 13.0664C1.75 13.0599 1.75 13.0534 1.75 13.0469C1.75 13.0404 1.75 13.0339 1.75 13.0273C1.75 13.0208 1.75 13.0143 1.75 13.0078C1.75 13.0013 1.75 12.9948 1.75 12.9883C1.75 12.9818 1.75 12.9753 1.75 12.9688C1.75 12.9622 1.75 12.9557 1.75 12.9492C1.75 12.9427 1.75 12.9362 1.75 12.9297C1.75 12.9232 1.75 12.9167 1.75 12.9102C1.75 12.9036 1.75 12.8971 1.75 12.8906C1.75 12.8841 1.75 12.8776 1.75 12.8711C1.75 12.8646 1.75 12.8581 1.75 12.8516C1.75 12.8451 1.75 12.8385 1.75 12.832C1.75 12.8255 1.75 12.819 1.75 12.8125C1.75 12.806 1.75 12.7995 1.75 12.793C1.75 12.7865 1.75 12.7799 1.75 12.7734C1.75 12.7669 1.75 12.7604 1.75 12.7539C1.75 12.7474 1.75 12.7409 1.75 12.7344C1.75 12.7279 1.75 12.7214 1.75 12.7148C1.75 12.7083 1.75 12.7018 1.75 12.6953C1.75 12.6888 1.75 12.6823 1.75 12.6758C1.75 12.6693 1.75 12.6628 1.75 12.6562C1.75 12.6497 1.75 12.6432 1.75 12.6367C1.75 12.6302 1.75 12.6237 1.75 12.6172C1.75 12.6107 1.75 12.6042 1.75 12.5977C1.75 12.5911 1.75 12.5846 1.75 12.5781C1.75 12.5716 1.75 12.5651 1.75 12.5586C1.75 12.5521 1.75 12.5456 1.75 12.5391C1.75 12.5326 1.75 12.526 1.75 12.5195C1.75 12.513 1.75 12.5065 1.75 12.5C1.75 12.4935 1.75 12.487 1.75 12.4805C1.75 12.474 1.75 12.4674 1.75 12.4609C1.75 12.4544 1.75 12.4479 1.75 12.4414C1.75 12.4349 1.75 12.4284 1.75 12.4219C1.75 12.4154 1.75 12.4089 1.75 12.4023C1.75 12.3958 1.75 12.3893 1.75 12.3828C1.75 12.3763 1.75 12.3698 1.75 12.3633C1.75 12.3568 1.75 12.3503 1.75 12.3438C1.75 12.3372 1.75 12.3307 1.75 12.3242C1.75 12.3177 1.75 12.3112 1.75 12.3047C1.75 12.2982 1.75 12.2917 1.75 12.2852C1.75 12.2786 1.75 12.2721 1.75 12.2656C1.75 12.2591 1.75 12.2526 1.75 12.2461C1.75 12.2396 1.75 12.2331 1.75 12.2266C1.75 12.2201 1.75 12.2135 1.75 12.207C1.75 12.2005 1.75 12.194 1.75 12.1875C1.75 12.181 1.75 12.1745 1.75 12.168C1.75 12.1615 1.75 12.1549 1.75 12.1484C1.75 12.1419 1.75 12.1354 1.75 12.1289C1.75 12.1224 1.75 12.1159 1.75 12.1094C1.75 12.1029 1.75 12.0964 1.75 12.0898C1.75 12.0833 1.75 12.0768 1.75 12.0703C1.75 12.0638 1.75 12.0573 1.75 12.0508C1.75 12.0443 1.75 12.0378 1.75 12.0312C1.75 12.0247 1.75 12.0182 1.75 12.0117C1.75 12.0052 1.75 11.9987 1.75 11.9922C1.75 11.9857 1.75 11.9792 1.75 11.9727C1.75 11.9661 1.75 11.9596 1.75 11.9531C1.75 11.9466 1.75 11.9401 1.75 11.9336C1.75 11.9271 1.75 11.9206 1.75 11.9141C1.75 11.9076 1.75 11.901 1.75 11.8945C1.75 11.888 1.75 11.8815 1.75 11.875C1.75 11.8685 1.75 11.862 1.75 11.8555C1.75 11.849 1.75 11.8424 1.75 11.8359C1.75 11.8294 1.75 11.8229 1.75 11.8164C1.75 11.8099 1.75 11.8034 1.75 11.7969C1.75 11.7904 1.75 11.7839 1.75 11.7773C1.75 11.7708 1.75 11.7643 1.75 11.7578C1.75 11.7513 1.75 11.7448 1.75 11.7383C1.75 11.7318 1.75 11.7253 1.75 11.7188C1.75 11.7122 1.75 11.7057 1.75 11.6992C1.75 11.6927 1.75 11.6862 1.75 11.6797C1.75 11.6732 1.75 11.6667 1.75 11.6602C1.75 11.6536 1.75 11.6471 1.75 11.6406C1.75 11.6341 1.75 11.6276 1.75 11.6211C1.75 11.6146 1.75 11.6081 1.75 11.6016C1.75 11.5951 1.75 11.5885 1.75 11.582C1.75 11.5755 1.75 11.569 1.75 11.5625C1.75 11.556 1.75 11.5495 1.75 11.543C1.75 11.5365 1.75 11.5299 1.75 11.5234C1.75 11.5169 1.75 11.5104 1.75 11.5039C1.75 11.4974 1.75 11.4909 1.75 11.4844C1.75 11.4779 1.75 11.4714 1.75 11.4648C1.75 11.4583 1.75 11.4518 1.75 11.4453C1.75 11.4388 1.75 11.4323 1.75 11.4258C1.75 11.4193 1.75 11.4128 1.75 11.4062C1.75 11.3997 1.75 11.3932 1.75 11.3867C1.75 11.3802 1.75 11.3737 1.75 11.3672C1.75 11.3607 1.75 11.3542 1.75 11.3477C1.75 11.3411 1.75 11.3346 1.75 11.3281C1.75 11.3216 1.75 11.3151 1.75 11.3086C1.75 11.3021 1.75 11.2956 1.75 11.2891C1.75 11.2826 1.75 11.276 1.75 11.2695C1.75 11.263 1.75 11.2565 1.75 11.25C1.75 11.2435 1.75 11.237 1.75 11.2305C1.75 11.224 1.75 11.2174 1.75 11.2109C1.75 11.2044 1.75 11.1979 1.75 11.1914C1.75 11.1849 1.75 11.1784 1.75 11.1719C1.75 11.1654 1.75 11.1589 1.75 11.1523C1.75 11.1458 1.75 11.1393 1.75 11.1328C1.75 11.1263 1.75 11.1198 1.75 11.1133C1.75 11.1068 1.75 11.1003 1.75 11.0938C1.75 11.0872 1.75 11.0807 1.75 11.0742C1.75 11.0677 1.75 11.0612 1.75 11.0547C1.75 11.0482 1.75 11.0417 1.75 11.0352C1.75 11.0286 1.75 11.0221 1.75 11.0156C1.75 11.0091 1.75 11.0026 1.75 10.9961C1.75 10.9896 1.75 10.9831 1.75 10.9766C1.75 10.9701 1.75 10.9635 1.75 10.957C1.75 10.9505 1.75 10.944 1.75 10.9375C1.75 10.931 1.75 10.9245 1.75 10.918C1.75 10.9115 1.75 10.9049 1.75 10.8984C1.75 10.8919 1.75 10.8854 1.75 10.8789C1.75 10.8724 1.75 10.8659 1.75 10.8594C1.75 10.8529 1.75 10.8464 1.75 10.8398C1.75 10.8333 1.75 10.8268 1.75 10.8203C1.75 10.8138 1.75 10.8073 1.75 10.8008C1.75 10.7943 1.75 10.7878 1.75 10.7812C1.75 10.7747 1.75 10.7682 1.75 10.7617C1.75 10.7552 1.75 10.7487 1.75 10.7422C1.75 10.7357 1.75 10.7292 1.75 10.7227C1.75 10.7161 1.75 10.7096 1.75 10.7031C1.75 10.6966 1.75 10.6901 1.75 10.6836C1.75 10.6771 1.75 10.6706 1.75 10.6641C1.75 10.6576 1.75 10.651 1.75 10.6445C1.75 10.638 1.75 10.6315 1.75 10.625C1.75 10.6185 1.75 10.612 1.75 10.6055C1.75 10.599 1.75 10.5924 1.75 10.5859C1.75 10.5794 1.75 10.5729 1.75 10.5664C1.75 10.5599 1.75 10.5534 1.75 10.5469C1.75 10.5404 1.75 10.5339 1.75 10.5273C1.75 10.5208 1.75 10.5143 1.75 10.5078C1.75 10.5013 1.75 10.4948 1.75 10.4883C1.75 10.4818 1.75 10.4753 1.75 10.4688C1.75 10.4622 1.75 10.4557 1.75 10.4492C1.75 10.4427 1.75 10.4362 1.75 10.4297C1.75 10.4232 1.75 10.4167 1.75 10.4102C1.75 10.4036 1.75 10.3971 1.75 10.3906C1.75 10.3841 1.75 10.3776 1.75 10.3711C1.75 10.3646 1.75 10.3581 1.75 10.3516C1.75 10.3451 1.75 10.3385 1.75 10.332C1.75 10.3255 1.75 10.319 1.75 10.3125C1.75 10.306 1.75 10.2995 1.75 10.293C1.75 10.2865 1.75 10.2799 1.75 10.2734C1.75 10.2669 1.75 10.2604 1.75 10.2539C1.75 10.2474 1.75 10.2409 1.75 10.2344C1.75 10.2279 1.75 10.2214 1.75 10.2148C1.75 10.2083 1.75 10.2018 1.75 10.1953C1.75 10.1888 1.75 10.1823 1.75 10.1758C1.75 10.1693 1.75 10.1628 1.75 10.1562C1.75 10.1497 1.75 10.1432 1.75 10.1367C1.75 10.1302 1.75 10.1237 1.75 10.1172C1.75 10.1107 1.75 10.1042 1.75 10.0977C1.75 10.0911 1.75 10.0846 1.75 10.0781C1.75 10.0716 1.75 10.0651 1.75 10.0586C1.75 10.0521 1.75 10.0456 1.75 10.0391C1.75 10.0326 1.75 10.026 1.75 10.0195C1.75 10.013 1.75 10.0065 1.75 10C1.75 9.99349 1.75 9.98698 1.75 9.98047C1.75 9.97396 1.75 9.96745 1.75 9.96094C1.75 9.95443 1.75 9.94792 1.75 9.94141C1.75 9.9349 1.75 9.92839 1.75 9.92188C1.75 9.91536 1.75 9.90885 1.75 9.90234C1.75 9.89583 1.75 9.88932 1.75 9.88281C1.75 9.8763 1.75 9.86979 1.75 9.86328C1.75 9.85677 1.75 9.85026 1.75 9.84375C1.75 9.83724 1.75 9.83073 1.75 9.82422C1.75 9.81771 1.75 9.8112 1.75 9.80469C1.75 9.79818 1.75 9.79167 1.75 9.78516C1.75 9.77865 1.75 9.77214 1.75 9.76562C1.75 9.75911 1.75 9.7526 1.75 9.74609C1.75 9.73958 1.75 9.73307 1.75 9.72656C1.75 9.72005 1.75 9.71354 1.75 9.70703C1.75 9.70052 1.75 9.69401 1.75 9.6875C1.75 9.68099 1.75 9.67448 1.75 9.66797C1.75 9.66146 1.75 9.65495 1.75 9.64844C1.75 9.64193 1.75 9.63542 1.75 9.62891C1.75 9.6224 1.75 9.61589 1.75 9.60938C1.75 9.60286 1.75 9.59635 1.75 9.58984C1.75 9.58333 1.75 9.57682 1.75 9.57031C1.75 9.5638 1.75 9.55729 1.75 9.55078C1.75 9.54427 1.75 9.53776 1.75 9.53125C1.75 9.52474 1.75 9.51823 1.75 9.51172C1.75 9.50521 1.75 9.4987 1.75 9.49219C1.75 9.48568 1.75 9.47917 1.75 9.47266C1.75 9.46615 1.75 9.45964 1.75 9.45312C1.75 9.44661 1.75 9.4401 1.75 9.43359C1.75 9.42708 1.75 9.42057 1.75 9.41406C1.75 9.40755 1.75 9.40104 1.75 9.39453C1.75 9.38802 1.75 9.38151 1.75 9.375C1.75 9.36849 1.75 9.36198 1.75 9.35547C1.75 9.34896 1.75 9.34245 1.75 9.33594C1.75 9.32943 1.75 9.32292 1.75 9.31641C1.75 9.3099 1.75 9.30339 1.75 9.29688C1.75 9.29036 1.75 9.28385 1.75 9.27734C1.75 9.27083 1.75 9.26432 1.75 9.25781C1.75 9.2513 1.75 9.24479 1.75 9.23828C1.75 9.23177 1.75 9.22526 1.75 9.21875C1.75 9.21224 1.75 9.20573 1.75 9.19922C1.75 9.19271 1.75 9.1862 1.75 9.17969C1.75 9.17318 1.75 9.16667 1.75 9.16016C1.75 9.15365 1.75 9.14714 1.75 9.14062C1.75 9.13411 1.75 9.1276 1.75 9.12109C1.75 9.11458 1.75 9.10807 1.75 9.10156C1.75 9.09505 1.75 9.08854 1.75 9.08203C1.75 9.07552 1.75 9.06901 1.75 9.0625C1.75 9.05599 1.75 9.04948 1.75 9.04297C1.75 9.03646 1.75 9.02995 1.75 9.02344C1.75 9.01693 1.75 9.01042 1.75 9.00391C1.75 8.9974 1.75 8.99089 1.75 8.98438C1.75 8.97786 1.75 8.97135 1.75 8.96484C1.75 8.95833 1.75 8.95182 1.75 8.94531C1.75 8.9388 1.75 8.93229 1.75 8.92578C1.75 8.91927 1.75 8.91276 1.75 8.90625C1.75 8.89974 1.75 8.89323 1.75 8.88672C1.75 8.88021 1.75 8.8737 1.75 8.86719C1.75 8.86068 1.75 8.85417 1.75 8.84766C1.75 8.84115 1.75 8.83464 1.75 8.82812C1.75 8.82161 1.75 8.8151 1.75 8.80859C1.75 8.80208 1.75 8.79557 1.75 8.78906C1.75 8.78255 1.75 8.77604 1.75 8.76953C1.75 8.76302 1.75 8.75651 1.75 8.75C1.75 8.74349 1.75 8.73698 1.75 8.73047C1.75 8.72396 1.75 8.71745 1.75 8.71094C1.75 8.70443 1.75 8.69792 1.75 8.69141C1.75 8.6849 1.75 8.67839 1.75 8.67188C1.75 8.66536 1.75 8.65885 1.75 8.65234C1.75 8.64583 1.75 8.63932 1.75 8.63281C1.75 8.6263 1.75 8.61979 1.75 8.61328C1.75 8.60677 1.75 8.60026 1.75 8.59375C1.75 8.58724 1.75 8.58073 1.75 8.57422C1.75 8.56771 1.75 8.5612 1.75 8.55469C1.75 8.54818 1.75 8.54167 1.75 8.53516C1.75 8.52865 1.75 8.52214 1.75 8.51562C1.75 8.50911 1.75 8.5026 1.75 8.49609C1.75 8.48958 1.75 8.48307 1.75 8.47656C1.75 8.47005 1.75 8.46354 1.75 8.45703C1.75 8.45052 1.75 8.44401 1.75 8.4375C1.75 8.43099 1.75 8.42448 1.75 8.41797C1.75 8.41146 1.75 8.40495 1.75 8.39844C1.75 8.39193 1.75 8.38542 1.75 8.37891C1.75 8.3724 1.75 8.36589 1.75 8.35938C1.75 8.35286 1.75 8.34635 1.75 8.33984C1.75 8.33333 1.75 8.32682 1.75 8.32031C1.75 8.3138 1.75 8.30729 1.75 8.30078C1.75 8.29427 1.75 8.28776 1.75 8.28125C1.75 8.27474 1.75 8.26823 1.75 8.26172C1.75 8.25521 1.75 8.2487 1.75 8.24219C1.75 8.23568 1.75 8.22917 1.75 8.22266C1.75 8.21615 1.75 8.20964 1.75 8.20312C1.75 8.19661 1.75 8.1901 1.75 8.18359C1.75 8.17708 1.75 8.17057 1.75 8.16406C1.75 8.15755 1.75 8.15104 1.75 8.14453C1.75 8.13802 1.75 8.13151 1.75 8.125C1.75 8.11849 1.75 8.11198 1.75 8.10547C1.75 8.09896 1.75 8.09245 1.75 8.08594C1.75 8.07943 1.75 8.07292 1.75 8.06641C1.75 8.0599 1.75 8.05339 1.75 8.04688C1.75 8.04036 1.75 8.03385 1.75 8.02734C1.75 8.02083 1.75 8.01432 1.75 8.00781C1.75 8.0013 1.75 7.99479 1.75 7.98828C1.75 7.98177 1.75 7.97526 1.75 7.96875C1.75 7.96224 1.75 7.95573 1.75 7.94922C1.75 7.94271 1.75 7.9362 1.75 7.92969C1.75 7.92318 1.75 7.91667 1.75 7.91016C1.75 7.90365 1.75 7.89714 1.75 7.89062C1.75 7.88411 1.75 7.8776 1.75 7.87109C1.75 7.86458 1.75 7.85807 1.75 7.85156C1.75 7.84505 1.75 7.83854 1.75 7.83203C1.75 7.82552 1.75 7.81901 1.75 7.8125C1.75 7.80599 1.75 7.79948 1.75 7.79297C1.75 7.78646 1.75 7.77995 1.75 7.77344C1.75 7.76693 1.75 7.76042 1.75 7.75391C1.75 7.7474 1.75 7.74089 1.75 7.73438C1.75 7.72786 1.75 7.72135 1.75 7.71484C1.75 7.70833 1.75 7.70182 1.75 7.69531C1.75 7.6888 1.75 7.68229 1.75 7.67578C1.75 7.66927 1.75 7.66276 1.75 7.65625C1.75 7.64974 1.75 7.64323 1.75 7.63672C1.75 7.63021 1.75 7.6237 1.75 7.61719C1.75 7.61068 1.75 7.60417 1.75 7.59766C1.75 7.59115 1.75 7.58464 1.75 7.57812C1.75 7.57161 1.75 7.5651 1.75 7.55859C1.75 7.55208 1.75 7.54557 1.75 7.53906C1.75 7.53255 1.75 7.52604 1.75 7.51953C1.75 7.51302 1.75 7.50651 1.75 7.5C1.75 7.49349 1.75 7.48698 1.75 7.48047C1.75 7.47396 1.75 7.46745 1.75 7.46094C1.75 7.45443 1.75 7.44792 1.75 7.44141C1.75 7.4349 1.75 7.42839 1.75 7.42188C1.75 7.41536 1.75 7.40885 1.75 7.40234C1.75 7.39583 1.75 7.38932 1.75 7.38281C1.75 7.3763 1.75 7.36979 1.75 7.36328C1.75 7.35677 1.75 7.35026 1.75 7.34375C1.75 7.33724 1.75 7.33073 1.75 7.32422C1.75 7.31771 1.75 7.3112 1.75 7.30469C1.75 7.29818 1.75 7.29167 1.75 7.28516C1.75 7.27865 1.75 7.27214 1.75 7.26562C1.75 7.25911 1.75 7.2526 1.75 7.24609C1.75 7.23958 1.75 7.23307 1.75 7.22656C1.75 7.22005 1.75 7.21354 1.75 7.20703C1.75 7.20052 1.75 7.19401 1.75 7.1875C1.75 7.18099 1.75 7.17448 1.75 7.16797C1.75 7.16146 1.75 7.15495 1.75 7.14844C1.75 7.14193 1.75 7.13542 1.75 7.12891C1.75 7.1224 1.75 7.11589 1.75 7.10938C1.75 7.10286 1.75 7.09635 1.75 7.08984C1.75 7.08333 1.75 7.07682 1.75 7.07031C1.75 7.0638 1.75 7.05729 1.75 7.05078C1.75 7.04427 1.75 7.03776 1.75 7.03125C1.75 7.02474 1.75 7.01823 1.75 7.01172C1.75 7.00521 1.75 6.9987 1.75 6.99219C1.75 6.98568 1.75 6.97917 1.75 6.97266C1.75 6.96615 1.75 6.95964 1.75 6.95312C1.75 6.94661 1.75 6.9401 1.75 6.93359C1.75 6.92708 1.75 6.92057 1.75 6.91406C1.75 6.90755 1.75 6.90104 1.75 6.89453C1.75 6.88802 1.75 6.88151 1.75 6.875C1.75 6.86849 1.75 6.86198 1.75 6.85547C1.75 6.84896 1.75 6.84245 1.75 6.83594C1.75 6.82943 1.75 6.82292 1.75 6.81641C1.75 6.8099 1.75 6.80339 1.75 6.79688C1.75 6.79036 1.75 6.78385 1.75 6.77734C1.75 6.77083 1.75 6.76432 1.75 6.75781C1.75 6.7513 1.75 6.74479 1.75 6.73828C1.75 6.73177 1.75 6.72526 1.75 6.71875C1.75 6.71224 1.75 6.70573 1.75 6.69922C1.75 6.69271 1.75 6.6862 1.75 6.67969C1.75 6.67318 1.75 6.66667 1.75 6.66016C1.75 6.65365 1.75 6.64714 1.75 6.64062C1.75 6.63411 1.75 6.6276 1.75 6.62109C1.75 6.61458 1.75 6.60807 1.75 6.60156C1.75 6.59505 1.75 6.58854 1.75 6.58203C1.75 6.57552 1.75 6.56901 1.75 6.5625C1.75 6.55599 1.75 6.54948 1.75 6.54297C1.75 6.53646 1.75 6.52995 1.75 6.52344C1.75 6.51693 1.75 6.51042 1.75 6.50391C1.75 6.4974 1.75 6.49089 1.75 6.48438C1.75 6.47786 1.75 6.47135 1.75 6.46484C1.75 6.45833 1.75 6.45182 1.75 6.44531C1.75 6.4388 1.75 6.43229 1.75 6.42578C1.75 6.41927 1.75 6.41276 1.75 6.40625C1.75 6.39974 1.75 6.39323 1.75 6.38672C1.75 6.38021 1.75 6.3737 1.75 6.36719C1.75 6.36068 1.75 6.35417 1.75 6.34766C1.75 6.34115 1.75 6.33464 1.75 6.32812C1.75 6.32161 1.75 6.3151 1.75 6.30859C1.75 6.30208 1.75 6.29557 1.75 6.28906C1.75 6.28255 1.75 6.27604 1.75 6.26953C1.75 6.26302 1.75 6.25651 1.75 6.25C1.75 6.24349 1.75 6.23698 1.75 6.23047C1.75 6.22396 1.75 6.21745 1.75 6.21094C1.75 6.20443 1.75 6.19792 1.75 6.19141C1.75 6.1849 1.75 6.17839 1.75 6.17188C1.75 6.16536 1.75 6.15885 1.75 6.15234C1.75 6.14583 1.75 6.13932 1.75 6.13281C1.75 6.1263 1.75 6.11979 1.75 6.11328C1.75 6.10677 1.75 6.10026 1.75 6.09375C1.75 6.08724 1.75 6.08073 1.75 6.07422C1.75 6.06771 1.75 6.0612 1.75 6.05469C1.75 6.04818 1.75 6.04167 1.75 6.03516C1.75 6.02865 1.75 6.02214 1.75 6.01562C1.75 6.00911 1.75 6.0026 1.75 5.99609C1.75 5.98958 1.75 5.98307 1.75 5.97656C1.75 5.97005 1.75 5.96354 1.75 5.95703C1.75 5.95052 1.75 5.94401 1.75 5.9375C1.75 5.93099 1.75 5.92448 1.75 5.91797C1.75 5.91146 1.75 5.90495 1.75 5.89844C1.75 5.89193 1.75 5.88542 1.75 5.87891C1.75 5.8724 1.75 5.86589 1.75 5.85938C1.75 5.85286 1.75 5.84635 1.75 5.83984C1.75 5.83333 1.75 5.82682 1.75 5.82031C1.75 5.8138 1.75 5.80729 1.75 5.80078C1.75 5.79427 1.75 5.78776 1.75 5.78125C1.75 5.77474 1.75 5.76823 1.75 5.76172C1.75 5.75521 1.75 5.7487 1.75 5.74219C1.75 5.73568 1.75 5.72917 1.75 5.72266C1.75 5.71615 1.75 5.70964 1.75 5.70312C1.75 5.69661 1.75 5.6901 1.75 5.68359C1.75 5.67708 1.75 5.67057 1.75 5.66406C1.75 5.65755 1.75 5.65104 1.75 5.64453C1.75 5.63802 1.75 5.63151 1.75 5.625C1.75 5.61849 1.75 5.61198 1.75 5.60547C1.75 5.59896 1.75 5.59245 1.75 5.58594C1.75 5.57943 1.75 5.57292 1.75 5.56641C1.75 5.5599 1.75 5.55339 1.75 5.54688C1.75 5.54036 1.75 5.53385 1.75 5.52734C1.75 5.52083 1.75 5.51432 1.75 5.50781C1.75 5.5013 1.75 5.49479 1.75 5.48828C1.75 5.48177 1.75 5.47526 1.75 5.46875C1.75 5.46224 1.75 5.45573 1.75 5.44922C1.75 5.44271 1.75 5.4362 1.75 5.42969C1.75 5.42318 1.75 5.41667 1.75 5.41016C1.75 5.40365 1.75 5.39714 1.75 5.39062C1.75 5.38411 1.75 5.3776 1.75 5.37109C1.75 5.36458 1.75 5.35807 1.75 5.35156C1.75 5.34505 1.75 5.33854 1.75 5.33203C1.75 5.32552 1.75 5.31901 1.75 5.3125C1.75 5.30599 1.75 5.29948 1.75 5.29297C1.75 5.28646 1.75 5.27995 1.75 5.27344C1.75 5.26693 1.75 5.26042 1.75 5.25391C1.75 5.2474 1.75 5.24089 1.75 5.23438C1.75 5.22786 1.75 5.22135 1.75 5.21484C1.75 5.20833 1.75 5.20182 1.75 5.19531C1.75 5.1888 1.75 5.18229 1.75 5.17578C1.75 5.16927 1.75 5.16276 1.75 5.15625H0.25C0.25 5.16276 0.25 5.16927 0.25 5.17578C0.25 5.18229 0.25 5.1888 0.25 5.19531C0.25 5.20182 0.25 5.20833 0.25 5.21484C0.25 5.22135 0.25 5.22786 0.25 5.23438C0.25 5.24089 0.25 5.2474 0.25 5.25391C0.25 5.26042 0.25 5.26693 0.25 5.27344C0.25 5.27995 0.25 5.28646 0.25 5.29297C0.25 5.29948 0.25 5.30599 0.25 5.3125C0.25 5.31901 0.25 5.32552 0.25 5.33203C0.25 5.33854 0.25 5.34505 0.25 5.35156C0.25 5.35807 0.25 5.36458 0.25 5.37109C0.25 5.3776 0.25 5.38411 0.25 5.39062C0.25 5.39714 0.25 5.40365 0.25 5.41016C0.25 5.41667 0.25 5.42318 0.25 5.42969C0.25 5.4362 0.25 5.44271 0.25 5.44922C0.25 5.45573 0.25 5.46224 0.25 5.46875C0.25 5.47526 0.25 5.48177 0.25 5.48828C0.25 5.49479 0.25 5.5013 0.25 5.50781C0.25 5.51432 0.25 5.52083 0.25 5.52734C0.25 5.53385 0.25 5.54036 0.25 5.54688C0.25 5.55339 0.25 5.5599 0.25 5.56641C0.25 5.57292 0.25 5.57943 0.25 5.58594C0.25 5.59245 0.25 5.59896 0.25 5.60547C0.25 5.61198 0.25 5.61849 0.25 5.625C0.25 5.63151 0.25 5.63802 0.25 5.64453C0.25 5.65104 0.25 5.65755 0.25 5.66406C0.25 5.67057 0.25 5.67708 0.25 5.68359C0.25 5.6901 0.25 5.69661 0.25 5.70312C0.25 5.70964 0.25 5.71615 0.25 5.72266C0.25 5.72917 0.25 5.73568 0.25 5.74219C0.25 5.7487 0.25 5.75521 0.25 5.76172C0.25 5.76823 0.25 5.77474 0.25 5.78125C0.25 5.78776 0.25 5.79427 0.25 5.80078C0.25 5.80729 0.25 5.8138 0.25 5.82031C0.25 5.82682 0.25 5.83333 0.25 5.83984C0.25 5.84635 0.25 5.85286 0.25 5.85938C0.25 5.86589 0.25 5.8724 0.25 5.87891C0.25 5.88542 0.25 5.89193 0.25 5.89844C0.25 5.90495 0.25 5.91146 0.25 5.91797C0.25 5.92448 0.25 5.93099 0.25 5.9375C0.25 5.94401 0.25 5.95052 0.25 5.95703C0.25 5.96354 0.25 5.97005 0.25 5.97656C0.25 5.98307 0.25 5.98958 0.25 5.99609C0.25 6.0026 0.25 6.00911 0.25 6.01562C0.25 6.02214 0.25 6.02865 0.25 6.03516C0.25 6.04167 0.25 6.04818 0.25 6.05469C0.25 6.0612 0.25 6.06771 0.25 6.07422C0.25 6.08073 0.25 6.08724 0.25 6.09375C0.25 6.10026 0.25 6.10677 0.25 6.11328C0.25 6.11979 0.25 6.1263 0.25 6.13281C0.25 6.13932 0.25 6.14583 0.25 6.15234C0.25 6.15885 0.25 6.16536 0.25 6.17188C0.25 6.17839 0.25 6.1849 0.25 6.19141C0.25 6.19792 0.25 6.20443 0.25 6.21094C0.25 6.21745 0.25 6.22396 0.25 6.23047C0.25 6.23698 0.25 6.24349 0.25 6.25C0.25 6.25651 0.25 6.26302 0.25 6.26953C0.25 6.27604 0.25 6.28255 0.25 6.28906C0.25 6.29557 0.25 6.30208 0.25 6.30859C0.25 6.3151 0.25 6.32161 0.25 6.32812C0.25 6.33464 0.25 6.34115 0.25 6.34766C0.25 6.35417 0.25 6.36068 0.25 6.36719C0.25 6.3737 0.25 6.38021 0.25 6.38672C0.25 6.39323 0.25 6.39974 0.25 6.40625C0.25 6.41276 0.25 6.41927 0.25 6.42578C0.25 6.43229 0.25 6.4388 0.25 6.44531C0.25 6.45182 0.25 6.45833 0.25 6.46484C0.25 6.47135 0.25 6.47786 0.25 6.48438C0.25 6.49089 0.25 6.4974 0.25 6.50391C0.25 6.51042 0.25 6.51693 0.25 6.52344C0.25 6.52995 0.25 6.53646 0.25 6.54297C0.25 6.54948 0.25 6.55599 0.25 6.5625C0.25 6.56901 0.25 6.57552 0.25 6.58203C0.25 6.58854 0.25 6.59505 0.25 6.60156C0.25 6.60807 0.25 6.61458 0.25 6.62109C0.25 6.6276 0.25 6.63411 0.25 6.64062C0.25 6.64714 0.25 6.65365 0.25 6.66016C0.25 6.66667 0.25 6.67318 0.25 6.67969C0.25 6.6862 0.25 6.69271 0.25 6.69922C0.25 6.70573 0.25 6.71224 0.25 6.71875C0.25 6.72526 0.25 6.73177 0.25 6.73828C0.25 6.74479 0.25 6.7513 0.25 6.75781C0.25 6.76432 0.25 6.77083 0.25 6.77734C0.25 6.78385 0.25 6.79036 0.25 6.79688C0.25 6.80339 0.25 6.8099 0.25 6.81641C0.25 6.82292 0.25 6.82943 0.25 6.83594C0.25 6.84245 0.25 6.84896 0.25 6.85547C0.25 6.86198 0.25 6.86849 0.25 6.875C0.25 6.88151 0.25 6.88802 0.25 6.89453C0.25 6.90104 0.25 6.90755 0.25 6.91406C0.25 6.92057 0.25 6.92708 0.25 6.93359C0.25 6.9401 0.25 6.94661 0.25 6.95312C0.25 6.95964 0.25 6.96615 0.25 6.97266C0.25 6.97917 0.25 6.98568 0.25 6.99219C0.25 6.9987 0.25 7.00521 0.25 7.01172C0.25 7.01823 0.25 7.02474 0.25 7.03125C0.25 7.03776 0.25 7.04427 0.25 7.05078C0.25 7.05729 0.25 7.0638 0.25 7.07031C0.25 7.07682 0.25 7.08333 0.25 7.08984C0.25 7.09635 0.25 7.10286 0.25 7.10938C0.25 7.11589 0.25 7.1224 0.25 7.12891C0.25 7.13542 0.25 7.14193 0.25 7.14844C0.25 7.15495 0.25 7.16146 0.25 7.16797C0.25 7.17448 0.25 7.18099 0.25 7.1875C0.25 7.19401 0.25 7.20052 0.25 7.20703C0.25 7.21354 0.25 7.22005 0.25 7.22656C0.25 7.23307 0.25 7.23958 0.25 7.24609C0.25 7.2526 0.25 7.25911 0.25 7.26562C0.25 7.27214 0.25 7.27865 0.25 7.28516C0.25 7.29167 0.25 7.29818 0.25 7.30469C0.25 7.3112 0.25 7.31771 0.25 7.32422C0.25 7.33073 0.25 7.33724 0.25 7.34375C0.25 7.35026 0.25 7.35677 0.25 7.36328C0.25 7.36979 0.25 7.3763 0.25 7.38281C0.25 7.38932 0.25 7.39583 0.25 7.40234C0.25 7.40885 0.25 7.41536 0.25 7.42188C0.25 7.42839 0.25 7.4349 0.25 7.44141C0.25 7.44792 0.25 7.45443 0.25 7.46094C0.25 7.46745 0.25 7.47396 0.25 7.48047C0.25 7.48698 0.25 7.49349 0.25 7.5C0.25 7.50651 0.25 7.51302 0.25 7.51953C0.25 7.52604 0.25 7.53255 0.25 7.53906C0.25 7.54557 0.25 7.55208 0.25 7.55859C0.25 7.5651 0.25 7.57161 0.25 7.57812C0.25 7.58464 0.25 7.59115 0.25 7.59766C0.25 7.60417 0.25 7.61068 0.25 7.61719C0.25 7.6237 0.25 7.63021 0.25 7.63672C0.25 7.64323 0.25 7.64974 0.25 7.65625C0.25 7.66276 0.25 7.66927 0.25 7.67578C0.25 7.68229 0.25 7.6888 0.25 7.69531C0.25 7.70182 0.25 7.70833 0.25 7.71484C0.25 7.72135 0.25 7.72786 0.25 7.73438C0.25 7.74089 0.25 7.7474 0.25 7.75391C0.25 7.76042 0.25 7.76693 0.25 7.77344C0.25 7.77995 0.25 7.78646 0.25 7.79297C0.25 7.79948 0.25 7.80599 0.25 7.8125C0.25 7.81901 0.25 7.82552 0.25 7.83203C0.25 7.83854 0.25 7.84505 0.25 7.85156C0.25 7.85807 0.25 7.86458 0.25 7.87109C0.25 7.8776 0.25 7.88411 0.25 7.89062C0.25 7.89714 0.25 7.90365 0.25 7.91016C0.25 7.91667 0.25 7.92318 0.25 7.92969C0.25 7.9362 0.25 7.94271 0.25 7.94922C0.25 7.95573 0.25 7.96224 0.25 7.96875C0.25 7.97526 0.25 7.98177 0.25 7.98828C0.25 7.99479 0.25 8.0013 0.25 8.00781C0.25 8.01432 0.25 8.02083 0.25 8.02734C0.25 8.03385 0.25 8.04036 0.25 8.04688C0.25 8.05339 0.25 8.0599 0.25 8.06641C0.25 8.07292 0.25 8.07943 0.25 8.08594C0.25 8.09245 0.25 8.09896 0.25 8.10547C0.25 8.11198 0.25 8.11849 0.25 8.125C0.25 8.13151 0.25 8.13802 0.25 8.14453C0.25 8.15104 0.25 8.15755 0.25 8.16406C0.25 8.17057 0.25 8.17708 0.25 8.18359C0.25 8.1901 0.25 8.19661 0.25 8.20312C0.25 8.20964 0.25 8.21615 0.25 8.22266C0.25 8.22917 0.25 8.23568 0.25 8.24219C0.25 8.2487 0.25 8.25521 0.25 8.26172C0.25 8.26823 0.25 8.27474 0.25 8.28125C0.25 8.28776 0.25 8.29427 0.25 8.30078C0.25 8.30729 0.25 8.3138 0.25 8.32031C0.25 8.32682 0.25 8.33333 0.25 8.33984C0.25 8.34635 0.25 8.35286 0.25 8.35938C0.25 8.36589 0.25 8.3724 0.25 8.37891C0.25 8.38542 0.25 8.39193 0.25 8.39844C0.25 8.40495 0.25 8.41146 0.25 8.41797C0.25 8.42448 0.25 8.43099 0.25 8.4375C0.25 8.44401 0.25 8.45052 0.25 8.45703C0.25 8.46354 0.25 8.47005 0.25 8.47656C0.25 8.48307 0.25 8.48958 0.25 8.49609C0.25 8.5026 0.25 8.50911 0.25 8.51562C0.25 8.52214 0.25 8.52865 0.25 8.53516C0.25 8.54167 0.25 8.54818 0.25 8.55469C0.25 8.5612 0.25 8.56771 0.25 8.57422C0.25 8.58073 0.25 8.58724 0.25 8.59375C0.25 8.60026 0.25 8.60677 0.25 8.61328C0.25 8.61979 0.25 8.6263 0.25 8.63281C0.25 8.63932 0.25 8.64583 0.25 8.65234C0.25 8.65885 0.25 8.66536 0.25 8.67188C0.25 8.67839 0.25 8.6849 0.25 8.69141C0.25 8.69792 0.25 8.70443 0.25 8.71094C0.25 8.71745 0.25 8.72396 0.25 8.73047C0.25 8.73698 0.25 8.74349 0.25 8.75C0.25 8.75651 0.25 8.76302 0.25 8.76953C0.25 8.77604 0.25 8.78255 0.25 8.78906C0.25 8.79557 0.25 8.80208 0.25 8.80859C0.25 8.8151 0.25 8.82161 0.25 8.82812C0.25 8.83464 0.25 8.84115 0.25 8.84766C0.25 8.85417 0.25 8.86068 0.25 8.86719C0.25 8.8737 0.25 8.88021 0.25 8.88672C0.25 8.89323 0.25 8.89974 0.25 8.90625C0.25 8.91276 0.25 8.91927 0.25 8.92578C0.25 8.93229 0.25 8.9388 0.25 8.94531C0.25 8.95182 0.25 8.95833 0.25 8.96484C0.25 8.97135 0.25 8.97786 0.25 8.98438C0.25 8.99089 0.25 8.9974 0.25 9.00391C0.25 9.01042 0.25 9.01693 0.25 9.02344C0.25 9.02995 0.25 9.03646 0.25 9.04297C0.25 9.04948 0.25 9.05599 0.25 9.0625C0.25 9.06901 0.25 9.07552 0.25 9.08203C0.25 9.08854 0.25 9.09505 0.25 9.10156C0.25 9.10807 0.25 9.11458 0.25 9.12109C0.25 9.1276 0.25 9.13411 0.25 9.14062C0.25 9.14714 0.25 9.15365 0.25 9.16016C0.25 9.16667 0.25 9.17318 0.25 9.17969C0.25 9.1862 0.25 9.19271 0.25 9.19922C0.25 9.20573 0.25 9.21224 0.25 9.21875C0.25 9.22526 0.25 9.23177 0.25 9.23828C0.25 9.24479 0.25 9.2513 0.25 9.25781C0.25 9.26432 0.25 9.27083 0.25 9.27734C0.25 9.28385 0.25 9.29036 0.25 9.29688C0.25 9.30339 0.25 9.3099 0.25 9.31641C0.25 9.32292 0.25 9.32943 0.25 9.33594C0.25 9.34245 0.25 9.34896 0.25 9.35547C0.25 9.36198 0.25 9.36849 0.25 9.375C0.25 9.38151 0.25 9.38802 0.25 9.39453C0.25 9.40104 0.25 9.40755 0.25 9.41406C0.25 9.42057 0.25 9.42708 0.25 9.43359C0.25 9.4401 0.25 9.44661 0.25 9.45312C0.25 9.45964 0.25 9.46615 0.25 9.47266C0.25 9.47917 0.25 9.48568 0.25 9.49219C0.25 9.4987 0.25 9.50521 0.25 9.51172C0.25 9.51823 0.25 9.52474 0.25 9.53125C0.25 9.53776 0.25 9.54427 0.25 9.55078C0.25 9.55729 0.25 9.5638 0.25 9.57031C0.25 9.57682 0.25 9.58333 0.25 9.58984C0.25 9.59635 0.25 9.60286 0.25 9.60938C0.25 9.61589 0.25 9.6224 0.25 9.62891C0.25 9.63542 0.25 9.64193 0.25 9.64844C0.25 9.65495 0.25 9.66146 0.25 9.66797C0.25 9.67448 0.25 9.68099 0.25 9.6875C0.25 9.69401 0.25 9.70052 0.25 9.70703C0.25 9.71354 0.25 9.72005 0.25 9.72656C0.25 9.73307 0.25 9.73958 0.25 9.74609C0.25 9.7526 0.25 9.75911 0.25 9.76562C0.25 9.77214 0.25 9.77865 0.25 9.78516C0.25 9.79167 0.25 9.79818 0.25 9.80469C0.25 9.8112 0.25 9.81771 0.25 9.82422C0.25 9.83073 0.25 9.83724 0.25 9.84375C0.25 9.85026 0.25 9.85677 0.25 9.86328C0.25 9.86979 0.25 9.8763 0.25 9.88281C0.25 9.88932 0.25 9.89583 0.25 9.90234C0.25 9.90885 0.25 9.91536 0.25 9.92188C0.25 9.92839 0.25 9.9349 0.25 9.94141C0.25 9.94792 0.25 9.95443 0.25 9.96094C0.25 9.96745 0.25 9.97396 0.25 9.98047C0.25 9.98698 0.25 9.99349 0.25 10C0.25 10.0065 0.25 10.013 0.25 10.0195C0.25 10.026 0.25 10.0326 0.25 10.0391C0.25 10.0456 0.25 10.0521 0.25 10.0586C0.25 10.0651 0.25 10.0716 0.25 10.0781C0.25 10.0846 0.25 10.0911 0.25 10.0977C0.25 10.1042 0.25 10.1107 0.25 10.1172C0.25 10.1237 0.25 10.1302 0.25 10.1367C0.25 10.1432 0.25 10.1497 0.25 10.1562C0.25 10.1628 0.25 10.1693 0.25 10.1758C0.25 10.1823 0.25 10.1888 0.25 10.1953C0.25 10.2018 0.25 10.2083 0.25 10.2148C0.25 10.2214 0.25 10.2279 0.25 10.2344C0.25 10.2409 0.25 10.2474 0.25 10.2539C0.25 10.2604 0.25 10.2669 0.25 10.2734C0.25 10.2799 0.25 10.2865 0.25 10.293C0.25 10.2995 0.25 10.306 0.25 10.3125C0.25 10.319 0.25 10.3255 0.25 10.332C0.25 10.3385 0.25 10.3451 0.25 10.3516C0.25 10.3581 0.25 10.3646 0.25 10.3711C0.25 10.3776 0.25 10.3841 0.25 10.3906C0.25 10.3971 0.25 10.4036 0.25 10.4102C0.25 10.4167 0.25 10.4232 0.25 10.4297C0.25 10.4362 0.25 10.4427 0.25 10.4492C0.25 10.4557 0.25 10.4622 0.25 10.4688C0.25 10.4753 0.25 10.4818 0.25 10.4883C0.25 10.4948 0.25 10.5013 0.25 10.5078C0.25 10.5143 0.25 10.5208 0.25 10.5273C0.25 10.5339 0.25 10.5404 0.25 10.5469C0.25 10.5534 0.25 10.5599 0.25 10.5664C0.25 10.5729 0.25 10.5794 0.25 10.5859C0.25 10.5924 0.25 10.599 0.25 10.6055C0.25 10.612 0.25 10.6185 0.25 10.625C0.25 10.6315 0.25 10.638 0.25 10.6445C0.25 10.651 0.25 10.6576 0.25 10.6641C0.25 10.6706 0.25 10.6771 0.25 10.6836C0.25 10.6901 0.25 10.6966 0.25 10.7031C0.25 10.7096 0.25 10.7161 0.25 10.7227C0.25 10.7292 0.25 10.7357 0.25 10.7422C0.25 10.7487 0.25 10.7552 0.25 10.7617C0.25 10.7682 0.25 10.7747 0.25 10.7812C0.25 10.7878 0.25 10.7943 0.25 10.8008C0.25 10.8073 0.25 10.8138 0.25 10.8203C0.25 10.8268 0.25 10.8333 0.25 10.8398C0.25 10.8464 0.25 10.8529 0.25 10.8594C0.25 10.8659 0.25 10.8724 0.25 10.8789C0.25 10.8854 0.25 10.8919 0.25 10.8984C0.25 10.9049 0.25 10.9115 0.25 10.918C0.25 10.9245 0.25 10.931 0.25 10.9375C0.25 10.944 0.25 10.9505 0.25 10.957C0.25 10.9635 0.25 10.9701 0.25 10.9766C0.25 10.9831 0.25 10.9896 0.25 10.9961C0.25 11.0026 0.25 11.0091 0.25 11.0156C0.25 11.0221 0.25 11.0286 0.25 11.0352C0.25 11.0417 0.25 11.0482 0.25 11.0547C0.25 11.0612 0.25 11.0677 0.25 11.0742C0.25 11.0807 0.25 11.0872 0.25 11.0938C0.25 11.1003 0.25 11.1068 0.25 11.1133C0.25 11.1198 0.25 11.1263 0.25 11.1328C0.25 11.1393 0.25 11.1458 0.25 11.1523C0.25 11.1589 0.25 11.1654 0.25 11.1719C0.25 11.1784 0.25 11.1849 0.25 11.1914C0.25 11.1979 0.25 11.2044 0.25 11.2109C0.25 11.2174 0.25 11.224 0.25 11.2305C0.25 11.237 0.25 11.2435 0.25 11.25C0.25 11.2565 0.25 11.263 0.25 11.2695C0.25 11.276 0.25 11.2826 0.25 11.2891C0.25 11.2956 0.25 11.3021 0.25 11.3086C0.25 11.3151 0.25 11.3216 0.25 11.3281C0.25 11.3346 0.25 11.3411 0.25 11.3477C0.25 11.3542 0.25 11.3607 0.25 11.3672C0.25 11.3737 0.25 11.3802 0.25 11.3867C0.25 11.3932 0.25 11.3997 0.25 11.4062C0.25 11.4128 0.25 11.4193 0.25 11.4258C0.25 11.4323 0.25 11.4388 0.25 11.4453C0.25 11.4518 0.25 11.4583 0.25 11.4648C0.25 11.4714 0.25 11.4779 0.25 11.4844C0.25 11.4909 0.25 11.4974 0.25 11.5039C0.25 11.5104 0.25 11.5169 0.25 11.5234C0.25 11.5299 0.25 11.5365 0.25 11.543C0.25 11.5495 0.25 11.556 0.25 11.5625C0.25 11.569 0.25 11.5755 0.25 11.582C0.25 11.5885 0.25 11.5951 0.25 11.6016C0.25 11.6081 0.25 11.6146 0.25 11.6211C0.25 11.6276 0.25 11.6341 0.25 11.6406C0.25 11.6471 0.25 11.6536 0.25 11.6602C0.25 11.6667 0.25 11.6732 0.25 11.6797C0.25 11.6862 0.25 11.6927 0.25 11.6992C0.25 11.7057 0.25 11.7122 0.25 11.7188C0.25 11.7253 0.25 11.7318 0.25 11.7383C0.25 11.7448 0.25 11.7513 0.25 11.7578C0.25 11.7643 0.25 11.7708 0.25 11.7773C0.25 11.7839 0.25 11.7904 0.25 11.7969C0.25 11.8034 0.25 11.8099 0.25 11.8164C0.25 11.8229 0.25 11.8294 0.25 11.8359C0.25 11.8424 0.25 11.849 0.25 11.8555C0.25 11.862 0.25 11.8685 0.25 11.875C0.25 11.8815 0.25 11.888 0.25 11.8945C0.25 11.901 0.25 11.9076 0.25 11.9141C0.25 11.9206 0.25 11.9271 0.25 11.9336C0.25 11.9401 0.25 11.9466 0.25 11.9531C0.25 11.9596 0.25 11.9661 0.25 11.9727C0.25 11.9792 0.25 11.9857 0.25 11.9922C0.25 11.9987 0.25 12.0052 0.25 12.0117C0.25 12.0182 0.25 12.0247 0.25 12.0312C0.25 12.0378 0.25 12.0443 0.25 12.0508C0.25 12.0573 0.25 12.0638 0.25 12.0703C0.25 12.0768 0.25 12.0833 0.25 12.0898C0.25 12.0964 0.25 12.1029 0.25 12.1094C0.25 12.1159 0.25 12.1224 0.25 12.1289C0.25 12.1354 0.25 12.1419 0.25 12.1484C0.25 12.1549 0.25 12.1615 0.25 12.168C0.25 12.1745 0.25 12.181 0.25 12.1875C0.25 12.194 0.25 12.2005 0.25 12.207C0.25 12.2135 0.25 12.2201 0.25 12.2266C0.25 12.2331 0.25 12.2396 0.25 12.2461C0.25 12.2526 0.25 12.2591 0.25 12.2656C0.25 12.2721 0.25 12.2786 0.25 12.2852C0.25 12.2917 0.25 12.2982 0.25 12.3047C0.25 12.3112 0.25 12.3177 0.25 12.3242C0.25 12.3307 0.25 12.3372 0.25 12.3438C0.25 12.3503 0.25 12.3568 0.25 12.3633C0.25 12.3698 0.25 12.3763 0.25 12.3828C0.25 12.3893 0.25 12.3958 0.25 12.4023C0.25 12.4089 0.25 12.4154 0.25 12.4219C0.25 12.4284 0.25 12.4349 0.25 12.4414C0.25 12.4479 0.25 12.4544 0.25 12.4609C0.25 12.4674 0.25 12.474 0.25 12.4805C0.25 12.487 0.25 12.4935 0.25 12.5C0.25 12.5065 0.25 12.513 0.25 12.5195C0.25 12.526 0.25 12.5326 0.25 12.5391C0.25 12.5456 0.25 12.5521 0.25 12.5586C0.25 12.5651 0.25 12.5716 0.25 12.5781C0.25 12.5846 0.25 12.5911 0.25 12.5977C0.25 12.6042 0.25 12.6107 0.25 12.6172C0.25 12.6237 0.25 12.6302 0.25 12.6367C0.25 12.6432 0.25 12.6497 0.25 12.6562C0.25 12.6628 0.25 12.6693 0.25 12.6758C0.25 12.6823 0.25 12.6888 0.25 12.6953C0.25 12.7018 0.25 12.7083 0.25 12.7148C0.25 12.7214 0.25 12.7279 0.25 12.7344C0.25 12.7409 0.25 12.7474 0.25 12.7539C0.25 12.7604 0.25 12.7669 0.25 12.7734C0.25 12.7799 0.25 12.7865 0.25 12.793C0.25 12.7995 0.25 12.806 0.25 12.8125C0.25 12.819 0.25 12.8255 0.25 12.832C0.25 12.8385 0.25 12.8451 0.25 12.8516C0.25 12.8581 0.25 12.8646 0.25 12.8711C0.25 12.8776 0.25 12.8841 0.25 12.8906C0.25 12.8971 0.25 12.9036 0.25 12.9102C0.25 12.9167 0.25 12.9232 0.25 12.9297C0.25 12.9362 0.25 12.9427 0.25 12.9492C0.25 12.9557 0.25 12.9622 0.25 12.9688C0.25 12.9753 0.25 12.9818 0.25 12.9883C0.25 12.9948 0.25 13.0013 0.25 13.0078C0.25 13.0143 0.25 13.0208 0.25 13.0273C0.25 13.0339 0.25 13.0404 0.25 13.0469C0.25 13.0534 0.25 13.0599 0.25 13.0664C0.25 13.0729 0.25 13.0794 0.25 13.0859C0.25 13.0924 0.25 13.099 0.25 13.1055C0.25 13.112 0.25 13.1185 0.25 13.125C0.25 13.1315 0.25 13.138 0.25 13.1445C0.25 13.151 0.25 13.1576 0.25 13.1641C0.25 13.1706 0.25 13.1771 0.25 13.1836C0.25 13.1901 0.25 13.1966 0.25 13.2031C0.25 13.2096 0.25 13.2161 0.25 13.2227C0.25 13.2292 0.25 13.2357 0.25 13.2422C0.25 13.2487 0.25 13.2552 0.25 13.2617C0.25 13.2682 0.25 13.2747 0.25 13.2812C0.25 13.2878 0.25 13.2943 0.25 13.3008C0.25 13.3073 0.25 13.3138 0.25 13.3203C0.25 13.3268 0.25 13.3333 0.25 13.3398C0.25 13.3464 0.25 13.3529 0.25 13.3594C0.25 13.3659 0.25 13.3724 0.25 13.3789C0.25 13.3854 0.25 13.3919 0.25 13.3984C0.25 13.4049 0.25 13.4115 0.25 13.418C0.25 13.4245 0.25 13.431 0.25 13.4375C0.25 13.444 0.25 13.4505 0.25 13.457C0.25 13.4635 0.25 13.4701 0.25 13.4766C0.25 13.4831 0.25 13.4896 0.25 13.4961C0.25 13.5026 0.25 13.5091 0.25 13.5156C0.25 13.5221 0.25 13.5286 0.25 13.5352C0.25 13.5417 0.25 13.5482 0.25 13.5547C0.25 13.5612 0.25 13.5677 0.25 13.5742C0.25 13.5807 0.25 13.5872 0.25 13.5938C0.25 13.6003 0.25 13.6068 0.25 13.6133C0.25 13.6198 0.25 13.6263 0.25 13.6328C0.25 13.6393 0.25 13.6458 0.25 13.6523C0.25 13.6589 0.25 13.6654 0.25 13.6719C0.25 13.6784 0.25 13.6849 0.25 13.6914C0.25 13.6979 0.25 13.7044 0.25 13.7109C0.25 13.7174 0.25 13.724 0.25 13.7305C0.25 13.737 0.25 13.7435 0.25 13.75C0.25 13.7565 0.25 13.763 0.25 13.7695C0.25 13.776 0.25 13.7826 0.25 13.7891C0.25 13.7956 0.25 13.8021 0.25 13.8086C0.25 13.8151 0.25 13.8216 0.25 13.8281C0.25 13.8346 0.25 13.8411 0.25 13.8477C0.25 13.8542 0.25 13.8607 0.25 13.8672C0.25 13.8737 0.25 13.8802 0.25 13.8867C0.25 13.8932 0.25 13.8997 0.25 13.9062C0.25 13.9128 0.25 13.9193 0.25 13.9258C0.25 13.9323 0.25 13.9388 0.25 13.9453C0.25 13.9518 0.25 13.9583 0.25 13.9648C0.25 13.9714 0.25 13.9779 0.25 13.9844C0.25 13.9909 0.25 13.9974 0.25 14.0039C0.25 14.0104 0.25 14.0169 0.25 14.0234C0.25 14.0299 0.25 14.0365 0.25 14.043C0.25 14.0495 0.25 14.056 0.25 14.0625C0.25 14.069 0.25 14.0755 0.25 14.082C0.25 14.0885 0.25 14.0951 0.25 14.1016C0.25 14.1081 0.25 14.1146 0.25 14.1211C0.25 14.1276 0.25 14.1341 0.25 14.1406C0.25 14.1471 0.25 14.1536 0.25 14.1602C0.25 14.1667 0.25 14.1732 0.25 14.1797C0.25 14.1862 0.25 14.1927 0.25 14.1992C0.25 14.2057 0.25 14.2122 0.25 14.2188C0.25 14.2253 0.25 14.2318 0.25 14.2383C0.25 14.2448 0.25 14.2513 0.25 14.2578C0.25 14.2643 0.25 14.2708 0.25 14.2773C0.25 14.2839 0.25 14.2904 0.25 14.2969C0.25 14.3034 0.25 14.3099 0.25 14.3164C0.25 14.3229 0.25 14.3294 0.25 14.3359C0.25 14.3424 0.25 14.349 0.25 14.3555C0.25 14.362 0.25 14.3685 0.25 14.375C0.25 14.3815 0.25 14.388 0.25 14.3945C0.25 14.401 0.25 14.4076 0.25 14.4141C0.25 14.4206 0.25 14.4271 0.25 14.4336C0.25 14.4401 0.25 14.4466 0.25 14.4531C0.25 14.4596 0.25 14.4661 0.25 14.4727C0.25 14.4792 0.25 14.4857 0.25 14.4922C0.25 14.4987 0.25 14.5052 0.25 14.5117C0.25 14.5182 0.25 14.5247 0.25 14.5312C0.25 14.5378 0.25 14.5443 0.25 14.5508C0.25 14.5573 0.25 14.5638 0.25 14.5703C0.25 14.5768 0.25 14.5833 0.25 14.5898C0.25 14.5964 0.25 14.6029 0.25 14.6094C0.25 14.6159 0.25 14.6224 0.25 14.6289C0.25 14.6354 0.25 14.6419 0.25 14.6484C0.25 14.6549 0.25 14.6615 0.25 14.668C0.25 14.6745 0.25 14.681 0.25 14.6875C0.25 14.694 0.25 14.7005 0.25 14.707C0.25 14.7135 0.25 14.7201 0.25 14.7266C0.25 14.7331 0.25 14.7396 0.25 14.7461C0.25 14.7526 0.25 14.7591 0.25 14.7656C0.25 14.7721 0.25 14.7786 0.25 14.7852C0.25 14.7917 0.25 14.7982 0.25 14.8047C0.25 14.8112 0.25 14.8177 0.25 14.8242C0.25 14.8307 0.25 14.8372 0.25 14.8438C0.25 14.8503 0.25 14.8568 0.25 14.8633C0.25 14.8698 0.25 14.8763 0.25 14.8828C0.25 14.8893 0.25 14.8958 0.25 14.9023C0.25 14.9089 0.25 14.9154 0.25 14.9219C0.25 14.9284 0.25 14.9349 0.25 14.9414C0.25 14.9479 0.25 14.9544 0.25 14.9609C0.25 14.9674 0.25 14.974 0.25 14.9805C0.25 14.987 0.25 14.9935 0.25 15C0.25 15.0065 0.25 15.013 0.25 15.0195C0.25 15.026 0.25 15.0326 0.25 15.0391C0.25 15.0456 0.25 15.0521 0.25 15.0586C0.25 15.0651 0.25 15.0716 0.25 15.0781C0.25 15.0846 0.25 15.0911 0.25 15.0977C0.25 15.1042 0.25 15.1107 0.25 15.1172C0.25 15.1237 0.25 15.1302 0.25 15.1367C0.25 15.1432 0.25 15.1497 0.25 15.1562H1.75ZM5 18.4062C3.20507 18.4062 1.75 16.9512 1.75 15.1562H0.25C0.25 17.7796 2.37665 19.9062 5 19.9062V18.4062ZM15 19.9062C17.6234 19.9062 19.75 17.7796 19.75 15.1562H18.25C18.25 16.9512 16.7949 18.4062 15 18.4062V19.9062ZM15 1.90625C16.7949 1.90625 18.25 3.36132 18.25 5.15625H19.75C19.75 2.5329 17.6234 0.40625 15 0.40625V1.90625ZM5 0.40625C2.37665 0.40625 0.25 2.5329 0.25 5.15625H1.75C1.75 3.36132 3.20507 1.90625 5 1.90625V0.40625Z" fill="#7E7E7E"/>
<path class="cls-2-sidebar" d="M19 7.15625H1" stroke="#7E7E7E" stroke-width="1.5" stroke-linecap="round" stroke-linejoin="round"/>
<path class="cls-2-sidebar" d="M7 7.15625V19.1562" stroke="#7E7E7E" stroke-width="1.5" stroke-linecap="round" stroke-linejoin="round"/>
<path class="cls-2-sidebar" d="M13 7.15625V19.1562" stroke="#7E7E7E" stroke-width="1.5" stroke-linecap="round" stroke-linejoin="round"/>
</svg>
