<svg width="20" height="20" viewBox="0 0 20 20" fill="none" xmlns="http://www.w3.org/2000/svg">
<path class="cls-2-sidebar" d="M19 15.0832C19 17.2924 17.2091 19.0832 15 19.0832H5C2.79086 19.0832 1 17.2924 1 15.0832V5.22925C1 3.02011 2.79086 1.22925 5 1.22925H15C17.2091 1.22925 19 3.02011 19 5.22925V15.0832Z" stroke="#7E7E7E" stroke-width="1.5" stroke-linecap="round" stroke-linejoin="round"/>
<path class="cls-2-sidebar" d="M6.12876 5.02747C6.61574 5.51445 6.61574 6.30401 6.12876 6.79099C5.64177 7.27797 4.85222 7.27797 4.36524 6.79099C3.87825 6.30401 3.87825 5.51445 4.36524 5.02747C4.85222 4.54049 5.64178 4.54049 6.12876 5.02747Z" stroke="#7E7E7E" stroke-width="1.5" stroke-linecap="round" stroke-linejoin="round"/>
<path class="cls-2-sidebar" d="M10 4.15625H16" stroke="#7E7E7E" stroke-width="1.5" stroke-linecap="round" stroke-linejoin="round"/>
<path class="cls-2-sidebar" d="M10 7.15625H16" stroke="#7E7E7E" stroke-width="1.5" stroke-linecap="round" stroke-linejoin="round"/>
<path class="cls-2-sidebar" d="M1 10.1562H19" stroke="#7E7E7E" stroke-width="1.5" stroke-linecap="round" stroke-linejoin="round"/>
</svg>
