<svg xmlns="http://www.w3.org/2000/svg" width="32" height="32" viewBox="0 0 32 32">
    <defs>
        <style>
            .cls-1-sidebar {
            fill: rgba(0,0,0,0);
            }

            .cls-2-sidebar {
            fill: #fff;
            }
        </style>
    </defs>
    <g id="_file_copy" data-name=" file_copy" transform="translate(-474 -1482)">
        <rect id="Path" class="cls-1-sidebar" width="32" height="32" transform="translate(474 1482)"/>
        <path id="Icon" class="cls-2-sidebar" d="M22.667,29.334H7.986a2.663,2.663,0,0,1-2.653-2.667L5.346,8A2.663,2.663,0,0,1,8,5.334h8.227a2.661,2.661,0,0,1,1.894.786l6.439,6.44a2.671,2.671,0,0,1,.774,1.88V26.667A2.669,2.669,0,0,1,22.667,29.334ZM16,7.334h0v6a1.335,1.335,0,0,0,1.333,1.333h6Zm-14.666,14A1.335,1.335,0,0,1,0,20V2.667A2.67,2.67,0,0,1,2.666,0H17.333a1.334,1.334,0,0,1,0,2.667H4A1.335,1.335,0,0,0,2.666,4V20A1.335,1.335,0,0,1,1.333,21.333Z" transform="translate(476.667 1483.333)"/>
    </g>
</svg>
