<svg id="svg" version="1.1" xmlns="http://www.w3.org/2000/svg" xmlns:xlink="http://www.w3.org/1999/xlink" width="400" height="400" viewBox="0, 0, 400,400"><g id="svgg"><path id="path0" d="M117.205 86.497 C 117.208 98.654,117.320 109.006,117.453 109.503 L 117.695 110.407 140.348 110.303 L 163.000 110.200 163.000 87.400 L 163.000 64.600 140.100 64.497 L 117.200 64.393 117.205 86.497 M117.200 147.800 L 117.200 170.800 139.287 170.800 L 161.375 170.800 162.297 169.726 L 163.219 168.653 163.189 147.278 C 163.165 129.682,163.062 125.805,162.608 125.351 C 162.153 124.896,158.149 124.800,139.629 124.800 L 117.200 124.800 117.200 147.800 M117.200 208.200 L 117.200 231.200 139.426 231.200 C 153.856 231.200,161.922 231.056,162.420 230.790 C 163.432 230.248,163.645 186.400,162.636 186.400 C 162.333 186.400,161.982 186.130,161.855 185.800 C 161.655 185.277,158.788 185.200,139.413 185.200 L 117.200 185.200 117.200 208.200 M177.867 185.467 C 177.720 185.613,177.600 195.965,177.600 208.470 L 177.600 231.207 200.500 231.103 L 223.400 231.000 223.511 209.000 C 223.595 192.496,223.503 186.775,223.144 186.100 L 222.665 185.200 200.399 185.200 C 188.153 185.200,178.013 185.320,177.867 185.467 " stroke="none" fill="#74bc54" fill-rule="evenodd"></path><path id="path1" d="M177.797 125.700 C 177.677 126.195,177.629 136.500,177.689 148.600 L 177.800 170.600 199.965 170.703 C 220.163 170.798,222.195 170.748,222.865 170.141 C 223.915 169.191,224.017 126.474,222.971 125.429 C 222.415 124.872,219.795 124.800,200.179 124.800 L 178.015 124.800 177.797 125.700 M238.882 186.112 L 238.000 187.052 238.000 208.736 L 238.000 230.420 239.026 230.810 C 240.510 231.374,282.198 231.333,283.105 230.766 C 284.267 230.041,283.960 187.383,282.785 186.207 C 281.999 185.421,281.429 185.397,260.871 185.287 L 239.764 185.173 238.882 186.112 " stroke="none" fill="#e49b60" fill-rule="evenodd"></path><path id="path2" d="M42.400 273.000 L 42.400 278.400 52.798 278.400 L 63.195 278.400 63.298 309.700 L 63.400 341.000 68.600 341.000 L 73.800 341.000 73.902 309.707 L 74.005 278.413 84.502 278.307 L 95.000 278.200 95.121 274.200 C 95.187 272.000,95.134 269.615,95.003 268.900 L 94.764 267.600 68.582 267.600 L 42.400 267.600 42.400 273.000 M205.696 268.395 C 204.844 269.759,204.988 338.905,205.846 340.214 C 206.537 341.269,219.270 341.775,220.800 340.809 C 221.312 340.486,221.417 338.307,221.514 326.015 L 221.629 311.600 224.414 311.600 C 225.946 311.600,227.200 311.760,227.200 311.957 C 227.200 312.153,227.650 312.426,228.200 312.564 C 228.750 312.702,229.200 312.992,229.200 313.208 C 229.200 313.423,229.470 313.600,229.800 313.600 C 230.130 313.600,230.400 313.801,230.400 314.047 C 230.400 314.293,231.120 315.192,232.000 316.046 C 232.880 316.900,233.600 317.959,233.600 318.400 C 233.600 318.840,233.825 319.201,234.100 319.203 C 234.616 319.206,235.600 320.961,235.600 321.880 C 235.600 322.166,235.870 322.400,236.200 322.400 C 236.566 322.400,236.800 322.773,236.800 323.357 C 236.800 323.884,237.070 324.418,237.400 324.545 C 237.730 324.671,238.000 325.031,238.000 325.345 C 238.000 325.658,238.270 326.018,238.600 326.145 C 238.930 326.271,239.200 326.741,239.200 327.187 C 239.200 327.634,239.380 328.000,239.600 328.000 C 239.820 328.000,240.000 328.366,240.000 328.813 C 240.000 329.259,240.270 329.729,240.600 329.855 C 240.930 329.982,241.200 330.336,241.200 330.643 C 241.200 330.949,241.470 331.200,241.800 331.200 C 242.200 331.200,242.400 331.600,242.400 332.400 C 242.400 333.200,242.600 333.600,243.000 333.600 C 243.373 333.600,243.600 333.978,243.600 334.600 C 243.600 335.150,243.780 335.600,244.000 335.600 C 244.220 335.600,244.400 335.851,244.400 336.157 C 244.400 336.464,244.670 336.818,245.000 336.945 C 245.330 337.071,245.600 337.521,245.600 337.945 C 245.600 338.368,245.856 338.813,246.169 338.933 C 246.482 339.053,246.797 339.567,246.869 340.076 L 247.000 341.000 255.486 341.108 L 263.971 341.216 264.645 340.187 C 265.152 339.413,265.205 339.045,264.859 338.699 C 264.607 338.447,264.400 337.935,264.400 337.563 C 264.400 337.190,264.130 336.782,263.800 336.655 C 263.470 336.529,263.200 336.059,263.200 335.613 C 263.200 335.157,262.936 334.800,262.600 334.800 C 262.200 334.800,262.000 334.400,262.000 333.600 C 262.000 332.800,261.800 332.400,261.400 332.400 C 261.027 332.400,260.800 332.022,260.800 331.400 C 260.800 330.850,260.665 330.398,260.500 330.396 C 260.335 330.394,259.847 329.589,259.415 328.606 C 258.983 327.624,258.398 326.731,258.115 326.623 C 257.832 326.514,257.600 326.059,257.600 325.613 C 257.600 325.157,257.336 324.800,257.000 324.800 C 256.670 324.800,256.400 324.500,256.400 324.134 C 256.400 323.236,255.127 320.400,254.723 320.400 C 254.545 320.400,254.400 320.130,254.400 319.800 C 254.400 319.470,254.130 319.200,253.800 319.200 C 253.427 319.200,253.200 318.822,253.200 318.200 C 253.200 317.578,252.973 317.200,252.600 317.200 C 252.270 317.200,252.000 316.951,252.000 316.646 C 252.000 315.395,250.130 312.800,249.229 312.800 C 248.993 312.800,248.800 312.606,248.800 312.369 C 248.800 312.132,248.252 311.391,247.583 310.721 C 246.100 309.239,246.216 308.721,248.131 308.268 C 248.939 308.077,249.600 307.758,249.600 307.560 C 249.600 307.362,249.941 307.200,250.357 307.200 C 250.774 307.200,251.218 306.930,251.345 306.600 C 251.471 306.270,251.941 306.000,252.387 306.000 C 252.843 306.000,253.200 305.736,253.200 305.400 C 253.200 305.070,253.380 304.800,253.600 304.800 C 253.820 304.800,254.360 304.440,254.800 304.000 C 255.240 303.560,255.600 303.020,255.600 302.800 C 255.600 302.580,255.780 302.400,256.000 302.400 C 256.220 302.400,256.400 301.950,256.400 301.400 C 256.400 300.778,256.627 300.400,257.000 300.400 C 257.366 300.400,257.600 300.027,257.600 299.443 C 257.600 298.916,257.870 298.382,258.200 298.255 C 258.580 298.110,258.800 297.496,258.800 296.584 C 258.800 295.791,259.070 294.873,259.400 294.543 C 260.258 293.685,260.269 284.108,259.413 282.976 C 259.090 282.549,258.820 281.519,258.813 280.687 C 258.805 279.721,258.583 279.092,258.200 278.945 C 257.870 278.818,257.600 278.278,257.600 277.745 C 257.600 277.211,257.330 276.671,257.000 276.545 C 256.670 276.418,256.400 276.064,256.400 275.757 C 256.400 275.451,256.220 275.200,256.000 275.200 C 255.780 275.200,255.600 274.958,255.600 274.662 C 255.600 274.057,253.945 272.000,253.459 272.000 C 253.285 272.000,252.892 271.775,252.585 271.500 C 251.223 270.278,250.807 270.017,249.834 269.773 C 249.265 269.630,248.800 269.353,248.800 269.157 C 248.800 268.960,247.855 268.794,246.700 268.787 C 245.491 268.780,244.270 268.525,243.824 268.187 C 242.428 267.132,206.362 267.328,205.696 268.395 M316.000 274.656 C 316.000 283.422,315.410 282.775,323.400 282.774 C 331.619 282.773,331.200 283.195,331.200 274.916 C 331.200 266.953,331.914 267.600,323.120 267.600 L 316.000 267.600 316.000 274.656 M339.467 267.867 C 338.882 268.451,339.164 340.272,339.753 340.761 C 340.133 341.077,342.468 341.185,347.253 341.110 L 354.200 341.000 354.302 304.300 L 354.404 267.600 347.069 267.600 C 343.034 267.600,339.613 267.720,339.467 267.867 M190.321 269.700 C 189.507 269.903,188.373 270.504,187.800 271.035 C 187.227 271.566,186.492 272.000,186.167 272.000 C 185.841 272.000,185.471 272.270,185.345 272.600 C 185.218 272.930,184.940 273.200,184.726 273.200 C 184.513 273.200,183.812 273.726,183.169 274.369 L 182.000 275.538 182.000 281.369 L 182.000 287.200 180.100 287.205 C 176.333 287.216,176.400 287.133,176.400 291.847 L 176.400 296.000 179.200 296.000 L 182.000 296.000 182.000 313.320 C 182.000 322.907,182.159 330.810,182.357 331.020 C 182.553 331.229,182.792 332.560,182.888 333.977 C 182.987 335.448,183.263 336.621,183.531 336.710 C 183.789 336.796,184.000 337.013,184.000 337.192 C 184.000 337.858,186.204 340.000,186.889 340.000 C 187.280 340.000,187.600 340.270,187.600 340.600 C 187.600 341.008,188.017 341.204,188.900 341.213 C 189.615 341.220,190.549 341.490,190.976 341.813 C 191.478 342.192,192.692 342.400,194.400 342.400 C 196.108 342.400,197.322 342.192,197.824 341.813 C 198.251 341.490,199.275 341.220,200.100 341.213 L 201.600 341.200 201.600 338.049 C 201.600 335.788,201.437 334.762,201.021 334.418 C 200.703 334.154,200.388 333.187,200.321 332.269 L 200.200 330.600 197.100 330.483 C 194.704 330.393,194.000 330.234,194.000 329.783 C 194.000 329.462,193.730 329.200,193.400 329.200 C 192.876 329.200,192.800 327.089,192.800 312.600 L 192.800 296.000 196.614 296.000 L 200.427 296.000 200.314 291.700 L 200.200 287.400 196.500 287.285 L 192.800 287.170 192.800 278.634 C 192.800 269.140,192.785 269.085,190.321 269.700 M240.400 283.400 C 240.400 283.773,240.778 284.000,241.400 284.000 C 242.200 284.000,242.400 284.200,242.400 285.000 C 242.400 285.622,242.627 286.000,243.000 286.000 C 243.489 286.000,243.600 286.667,243.600 289.600 C 243.600 291.687,243.435 293.200,243.208 293.200 C 242.992 293.200,242.712 293.610,242.586 294.112 C 242.317 295.187,240.894 295.893,238.274 296.252 C 237.231 296.395,236.282 296.667,236.165 296.856 C 236.048 297.045,232.723 297.200,228.776 297.200 L 221.600 297.200 221.600 290.000 L 221.600 282.800 231.000 282.800 C 239.089 282.800,240.400 282.884,240.400 283.400 M104.000 286.749 C 104.000 286.941,103.280 287.213,102.400 287.354 C 101.520 287.494,100.798 287.742,100.796 287.905 C 100.794 288.067,99.984 288.555,98.996 288.990 C 98.008 289.424,97.200 290.009,97.200 290.290 C 97.200 290.570,97.007 290.800,96.771 290.800 C 96.218 290.800,95.200 291.818,95.200 292.371 C 95.200 292.607,94.930 292.800,94.600 292.800 C 94.270 292.800,94.000 293.070,94.000 293.400 C 94.000 293.730,93.730 294.000,93.400 294.000 C 93.070 294.000,92.800 294.255,92.800 294.567 C 92.800 294.878,92.665 295.193,92.500 295.267 C 92.015 295.482,90.800 298.001,90.800 298.790 C 90.800 299.188,90.530 299.618,90.200 299.745 C 89.840 299.883,89.595 300.499,89.587 301.287 C 89.580 302.009,89.310 302.949,88.987 303.376 C 88.606 303.880,88.400 305.097,88.400 306.843 C 88.400 308.555,88.228 309.591,87.928 309.691 C 87.281 309.906,87.296 318.899,87.944 319.115 C 88.226 319.209,88.400 320.311,88.400 322.005 C 88.400 323.905,88.584 324.926,89.000 325.343 C 89.330 325.673,89.600 326.501,89.600 327.184 C 89.600 327.918,89.845 328.519,90.200 328.655 C 90.530 328.782,90.800 329.341,90.800 329.897 C 90.800 330.462,91.241 331.317,91.800 331.835 C 92.350 332.345,92.800 333.046,92.800 333.393 C 92.800 333.741,93.070 334.129,93.400 334.255 C 93.730 334.382,94.000 334.736,94.000 335.043 C 94.000 335.349,94.270 335.600,94.600 335.600 C 94.930 335.600,95.200 335.870,95.200 336.200 C 95.200 336.530,95.470 336.800,95.800 336.800 C 96.130 336.800,96.400 336.965,96.400 337.167 C 96.400 337.369,97.075 337.947,97.900 338.450 C 98.725 338.954,99.460 339.509,99.533 339.683 C 99.607 339.857,100.115 340.000,100.662 340.000 C 101.209 340.000,101.927 340.270,102.257 340.600 C 102.606 340.949,103.584 341.200,104.595 341.200 C 105.628 341.200,106.401 341.402,106.500 341.699 C 106.773 342.518,113.261 342.628,114.840 341.840 C 115.545 341.488,116.802 341.200,117.633 341.200 C 118.463 341.200,119.413 340.930,119.743 340.600 C 120.073 340.270,120.689 340.000,121.113 340.000 C 121.537 340.000,122.369 339.550,122.962 339.000 C 123.556 338.450,124.219 338.000,124.437 338.000 C 124.895 338.000,128.000 334.824,128.000 334.356 C 128.000 334.183,128.454 333.551,129.010 332.952 C 129.565 332.353,130.124 331.443,130.253 330.931 C 130.382 330.419,130.647 330.000,130.843 330.000 C 131.040 330.000,131.200 329.280,131.200 328.400 C 131.200 327.221,131.363 326.800,131.821 326.800 C 132.319 326.800,132.418 326.383,132.321 324.700 L 132.200 322.600 130.000 322.477 C 128.790 322.409,127.629 322.184,127.420 321.977 C 126.446 321.010,121.600 321.540,121.600 322.613 C 121.600 323.169,121.330 323.729,121.000 323.855 C 120.670 323.982,120.400 324.494,120.400 324.994 C 120.400 325.493,120.130 326.126,119.800 326.400 C 119.470 326.674,119.200 327.065,119.200 327.268 C 119.200 327.472,118.750 328.055,118.200 328.565 C 117.650 329.075,117.199 329.651,117.197 329.846 C 117.193 330.304,115.263 331.200,114.281 331.200 C 113.863 331.200,112.940 331.476,112.230 331.812 C 111.073 332.362,110.819 332.362,109.770 331.815 C 109.126 331.479,108.231 331.204,107.780 331.202 C 106.609 331.199,104.807 330.289,104.803 329.700 C 104.801 329.425,104.530 329.200,104.200 329.200 C 103.870 329.200,103.600 329.065,103.599 328.900 C 103.599 328.735,102.879 327.790,102.000 326.800 C 100.960 325.629,100.401 324.616,100.401 323.900 C 100.400 323.295,100.220 322.800,100.000 322.800 C 99.780 322.800,99.599 322.035,99.598 321.100 C 99.596 320.165,99.337 318.905,99.021 318.300 L 98.447 317.200 115.424 317.200 L 132.400 317.200 132.400 310.787 C 132.400 305.456,132.299 304.336,131.800 304.145 C 131.411 303.995,131.200 303.375,131.200 302.381 C 131.200 301.537,131.040 300.749,130.845 300.628 C 130.650 300.507,130.372 299.777,130.227 299.004 C 130.082 298.232,129.792 297.600,129.582 297.600 C 129.372 297.600,129.200 297.352,129.200 297.049 C 129.200 296.746,128.930 296.274,128.600 296.000 C 128.270 295.726,128.000 295.164,128.000 294.751 C 128.000 294.338,127.730 294.000,127.400 294.000 C 127.070 294.000,126.800 293.826,126.800 293.614 C 126.800 293.091,124.531 290.800,124.013 290.800 C 123.786 290.800,123.600 290.551,123.600 290.247 C 123.600 289.942,123.285 289.585,122.900 289.453 C 122.515 289.321,121.480 288.768,120.600 288.224 C 119.720 287.680,118.606 287.227,118.124 287.217 C 117.642 287.208,117.136 287.020,117.000 286.800 C 116.693 286.303,104.000 286.253,104.000 286.749 M148.000 286.800 C 148.000 287.020,147.623 287.200,147.162 287.200 C 146.300 287.200,144.229 288.213,143.279 289.100 C 142.984 289.375,142.539 289.600,142.289 289.600 C 141.620 289.600,139.217 292.486,139.208 293.300 C 139.203 293.685,138.930 294.000,138.600 294.000 C 138.200 294.000,138.000 294.400,138.000 295.200 C 138.000 296.000,137.800 296.400,137.400 296.400 C 136.895 296.400,136.800 297.290,136.800 302.013 C 136.800 306.632,136.906 307.666,137.400 307.855 C 137.730 307.982,138.000 308.522,138.000 309.055 C 138.000 309.589,138.270 310.129,138.600 310.255 C 138.930 310.382,139.200 310.660,139.200 310.874 C 139.200 311.401,141.433 313.600,141.969 313.600 C 142.206 313.600,142.400 313.870,142.400 314.200 C 142.400 314.566,142.773 314.800,143.357 314.800 C 143.884 314.800,144.418 315.070,144.545 315.400 C 144.671 315.730,145.231 316.000,145.787 316.000 C 146.344 316.000,146.800 316.178,146.800 316.395 C 146.800 316.613,147.520 316.906,148.400 317.046 C 149.280 317.187,150.000 317.459,150.000 317.651 C 150.000 317.843,150.726 318.000,151.613 318.000 C 152.677 318.000,153.303 318.204,153.455 318.600 C 153.600 318.978,154.226 319.205,155.143 319.213 C 155.944 319.220,156.949 319.490,157.376 319.813 C 157.804 320.136,158.726 320.400,159.427 320.400 C 160.128 320.400,160.926 320.670,161.200 321.000 C 161.474 321.330,162.036 321.600,162.449 321.600 C 162.862 321.600,163.200 321.780,163.200 322.000 C 163.200 322.220,163.470 322.400,163.800 322.400 C 164.130 322.400,164.400 322.749,164.400 323.176 C 164.400 323.603,164.580 324.064,164.800 324.200 C 165.020 324.336,165.200 324.966,165.200 325.600 C 165.200 326.234,165.020 326.864,164.800 327.000 C 164.580 327.136,164.400 327.687,164.400 328.224 C 164.400 328.825,164.169 329.200,163.800 329.200 C 163.470 329.200,163.200 329.470,163.200 329.800 C 163.200 330.130,162.851 330.400,162.424 330.400 C 161.997 330.400,161.536 330.580,161.400 330.800 C 161.264 331.020,160.668 331.201,160.076 331.202 C 159.484 331.204,158.484 331.474,157.854 331.802 C 157.224 332.131,156.480 332.400,156.200 332.400 C 155.920 332.400,155.176 332.131,154.546 331.802 C 153.916 331.474,152.916 331.204,152.324 331.202 C 151.732 331.201,151.136 331.020,151.000 330.800 C 150.864 330.580,150.313 330.400,149.776 330.400 C 149.201 330.400,148.800 330.167,148.800 329.833 C 148.800 329.522,148.665 329.207,148.500 329.133 C 148.026 328.923,146.800 326.407,146.800 325.644 C 146.800 325.264,146.536 324.604,146.213 324.176 C 145.890 323.749,145.620 322.995,145.613 322.500 C 145.601 321.660,145.426 321.600,143.000 321.600 C 141.570 321.600,140.400 321.771,140.400 321.980 C 140.400 322.189,139.365 322.414,138.100 322.480 L 135.800 322.600 135.684 325.438 C 135.595 327.610,135.712 328.395,136.184 328.787 C 136.523 329.068,136.800 329.794,136.800 330.400 C 136.800 331.006,137.070 331.726,137.400 332.000 C 137.730 332.274,138.000 332.727,138.000 333.006 C 138.000 333.286,138.270 333.618,138.600 333.745 C 138.930 333.871,139.200 334.265,139.200 334.619 C 139.200 335.434,142.337 338.599,143.514 338.973 C 144.001 339.127,144.400 339.422,144.400 339.627 C 144.400 339.832,144.940 340.000,145.600 340.000 C 146.400 340.000,146.800 340.200,146.800 340.600 C 146.800 341.059,147.307 341.200,148.967 341.200 C 150.279 341.200,151.196 341.387,151.291 341.673 C 151.562 342.485,158.471 342.623,160.026 341.847 C 160.739 341.491,162.111 341.200,163.074 341.200 C 164.262 341.200,164.899 341.007,165.055 340.600 C 165.182 340.270,165.630 340.000,166.051 340.000 C 167.768 340.000,173.200 335.567,173.200 334.166 C 173.200 333.855,173.380 333.600,173.600 333.600 C 173.820 333.600,174.000 333.060,174.000 332.400 C 174.000 331.600,174.200 331.200,174.600 331.200 C 175.021 331.200,175.200 330.775,175.200 329.771 C 175.200 328.986,175.470 328.073,175.800 327.743 C 176.617 326.926,176.626 322.052,175.813 320.976 C 175.490 320.549,175.220 319.525,175.213 318.700 C 175.204 317.639,175.024 317.200,174.600 317.200 C 174.266 317.200,174.000 316.844,174.000 316.397 C 174.000 315.479,172.191 313.284,171.000 312.756 C 169.989 312.309,168.793 311.546,168.088 310.900 C 167.788 310.625,167.035 310.400,166.414 310.400 C 165.780 310.400,165.185 310.137,165.055 309.800 C 164.922 309.453,164.324 309.200,163.636 309.200 C 162.982 309.200,162.336 309.020,162.200 308.800 C 162.064 308.580,161.263 308.400,160.419 308.400 C 159.425 308.400,158.805 308.189,158.655 307.800 C 158.505 307.408,157.882 307.200,156.855 307.200 C 155.829 307.200,155.206 306.992,155.055 306.600 C 154.911 306.223,154.299 306.000,153.413 306.000 C 152.636 306.000,152.000 305.828,152.000 305.618 C 152.000 305.408,151.386 305.121,150.635 304.980 C 149.127 304.697,147.600 303.492,147.600 302.584 C 147.600 302.263,147.420 302.000,147.200 302.000 C 146.980 302.000,146.800 301.745,146.800 301.432 C 146.800 300.719,148.098 298.406,148.500 298.403 C 148.665 298.401,148.800 298.130,148.800 297.800 C 148.800 297.434,149.173 297.200,149.757 297.200 C 150.284 297.200,150.818 296.930,150.945 296.600 C 151.127 296.125,151.963 296.000,154.945 296.000 C 157.927 296.000,158.763 296.125,158.945 296.600 C 159.071 296.930,159.631 297.200,160.187 297.200 C 160.744 297.200,161.200 297.404,161.200 297.654 C 161.200 297.904,161.650 298.525,162.200 299.035 C 162.873 299.659,163.202 300.393,163.206 301.281 C 163.220 304.189,165.672 304.830,172.700 303.761 L 174.000 303.564 174.000 300.582 C 174.000 298.861,173.831 297.600,173.600 297.600 C 173.380 297.600,173.200 297.060,173.200 296.400 C 173.200 295.600,173.000 295.200,172.600 295.200 C 172.200 295.200,172.000 294.800,172.000 294.000 C 172.000 293.200,171.800 292.800,171.400 292.800 C 171.070 292.800,170.800 292.530,170.800 292.200 C 170.800 291.870,170.607 291.600,170.371 291.600 C 169.818 291.600,168.800 290.582,168.800 290.029 C 168.800 289.793,168.549 289.600,168.243 289.600 C 167.936 289.600,167.582 289.330,167.455 289.000 C 167.329 288.670,166.847 288.400,166.384 288.400 C 165.921 288.400,165.273 288.130,164.943 287.800 C 164.613 287.470,163.916 287.200,163.395 287.200 C 162.874 287.200,162.336 287.020,162.200 286.800 C 162.050 286.558,159.196 286.400,154.976 286.400 C 150.592 286.400,148.000 286.549,148.000 286.800 M279.000 286.800 C 278.864 287.020,278.335 287.200,277.825 287.200 C 277.315 287.200,276.674 287.470,276.400 287.800 C 276.126 288.130,275.583 288.400,275.194 288.400 C 274.804 288.400,274.382 288.670,274.255 289.000 C 274.129 289.330,273.794 289.606,273.513 289.613 C 272.779 289.632,271.557 290.765,270.400 292.497 C 269.850 293.321,269.265 293.996,269.100 293.997 C 268.935 293.999,268.800 294.431,268.800 294.957 C 268.800 295.484,268.530 296.018,268.200 296.145 C 267.870 296.271,267.600 296.811,267.600 297.345 C 267.600 297.878,267.322 298.421,266.982 298.551 C 266.488 298.741,266.388 299.369,266.482 301.694 L 266.600 304.600 270.500 304.714 C 273.605 304.806,274.400 304.948,274.400 305.414 C 274.400 305.868,274.984 306.000,277.000 306.000 C 279.277 306.000,279.600 305.907,279.600 305.249 C 279.600 304.836,279.870 304.274,280.200 304.000 C 280.530 303.726,280.800 303.074,280.800 302.551 C 280.800 301.972,281.035 301.600,281.400 301.600 C 281.730 301.600,282.000 301.330,282.000 301.000 C 282.000 300.670,282.349 300.400,282.776 300.400 C 283.203 300.400,283.664 300.220,283.800 300.000 C 283.936 299.780,285.286 299.600,286.800 299.600 C 288.314 299.600,289.664 299.780,289.800 300.000 C 289.936 300.220,290.307 300.400,290.624 300.400 C 291.874 300.400,292.800 301.931,292.800 304.000 L 292.800 306.000 291.243 306.000 C 290.228 306.000,289.605 306.209,289.455 306.600 C 289.294 307.022,288.636 307.200,287.241 307.200 C 286.011 307.200,285.029 307.428,284.657 307.800 C 284.282 308.176,283.298 308.400,282.029 308.400 C 280.913 308.400,280.000 308.580,280.000 308.800 C 280.000 309.020,279.314 309.200,278.476 309.200 C 277.639 309.200,276.604 309.464,276.176 309.787 C 275.749 310.110,274.905 310.380,274.300 310.387 C 273.595 310.395,273.200 310.615,273.200 311.000 C 273.200 311.364,272.828 311.600,272.256 311.600 C 271.716 311.600,270.991 312.028,270.561 312.600 C 270.148 313.150,269.583 313.600,269.305 313.600 C 269.027 313.600,268.800 313.870,268.800 314.200 C 268.800 314.530,268.530 314.800,268.200 314.800 C 267.870 314.800,267.600 314.993,267.600 315.229 C 267.600 315.464,267.330 315.927,267.000 316.257 C 266.670 316.587,266.400 317.204,266.400 317.629 C 266.400 318.053,266.226 318.400,266.014 318.400 C 265.801 318.400,265.508 319.304,265.361 320.409 C 265.214 321.514,264.938 322.515,264.747 322.633 C 264.295 322.912,264.293 328.800,264.746 328.800 C 264.936 328.800,265.197 329.565,265.325 330.500 C 265.585 332.384,266.654 334.800,267.229 334.800 C 267.433 334.800,267.600 335.166,267.600 335.613 C 267.600 336.059,267.870 336.529,268.200 336.655 C 268.530 336.782,268.800 337.136,268.800 337.443 C 268.800 337.749,269.070 338.000,269.400 338.000 C 269.730 338.000,270.000 338.152,270.000 338.337 C 270.000 338.522,270.675 339.017,271.500 339.437 C 272.325 339.857,273.144 340.425,273.320 340.700 C 273.496 340.975,274.396 341.206,275.320 341.213 C 276.244 341.220,277.349 341.490,277.776 341.813 C 278.278 342.192,279.492 342.400,281.200 342.400 C 282.908 342.400,284.122 342.192,284.624 341.813 C 285.051 341.490,286.056 341.220,286.857 341.213 C 287.774 341.205,288.400 340.978,288.545 340.600 C 288.671 340.270,289.126 340.000,289.555 340.000 C 290.432 340.000,292.794 338.762,292.797 338.300 C 292.799 338.135,293.070 338.000,293.400 338.000 C 293.730 338.000,294.000 337.730,294.000 337.400 C 294.000 337.070,294.270 336.800,294.600 336.800 C 295.019 336.800,295.200 337.222,295.200 338.200 C 295.200 340.992,295.894 341.234,303.510 341.110 L 310.200 341.000 310.321 339.550 C 310.398 338.635,310.213 337.870,309.821 337.478 C 309.480 337.137,309.200 336.340,309.200 335.709 C 309.200 335.077,308.975 334.335,308.700 334.060 C 308.320 333.680,308.176 329.661,308.100 317.280 C 308.037 306.861,307.857 300.952,307.600 300.867 C 307.380 300.793,307.200 299.573,307.200 298.154 C 307.200 296.230,307.047 295.516,306.600 295.345 C 306.258 295.213,306.000 294.617,306.000 293.957 C 306.000 293.195,305.795 292.800,305.400 292.800 C 305.070 292.800,304.800 292.607,304.800 292.371 C 304.800 291.818,303.782 290.800,303.229 290.800 C 302.993 290.800,302.800 290.530,302.800 290.200 C 302.800 289.870,302.549 289.600,302.243 289.600 C 301.936 289.600,301.582 289.330,301.455 289.000 C 301.329 288.670,300.904 288.394,300.513 288.387 C 300.121 288.380,299.451 288.110,299.024 287.787 C 298.596 287.464,297.842 287.200,297.347 287.200 C 296.852 287.200,296.336 287.020,296.200 286.800 C 296.048 286.554,292.737 286.400,287.600 286.400 C 282.463 286.400,279.152 286.554,279.000 286.800 M316.184 287.700 C 316.079 287.975,316.039 300.080,316.096 314.600 L 316.200 341.000 322.958 341.110 C 328.825 341.205,329.813 341.131,330.458 340.548 C 331.641 339.476,331.611 288.248,330.426 287.614 C 329.254 286.987,316.427 287.064,316.184 287.700 M114.000 296.600 C 114.000 296.931,114.354 297.200,114.789 297.200 C 115.585 297.200,119.200 300.487,119.200 301.211 C 119.200 301.425,119.470 301.600,119.800 301.600 C 120.233 301.600,120.400 302.044,120.400 303.200 C 120.400 304.356,120.567 304.800,121.000 304.800 C 121.400 304.800,121.600 305.200,121.600 306.000 L 121.600 307.200 110.600 307.200 L 99.600 307.200 99.600 306.000 C 99.600 305.340,99.780 304.800,100.000 304.800 C 100.220 304.800,100.400 304.279,100.400 303.643 C 100.400 302.983,100.658 302.387,101.000 302.255 C 101.330 302.129,101.600 301.659,101.600 301.213 C 101.600 300.766,101.766 300.400,101.969 300.400 C 102.450 300.400,104.800 298.050,104.800 297.569 C 104.800 297.366,105.256 297.200,105.813 297.200 C 106.369 297.200,106.929 296.930,107.055 296.600 C 107.235 296.133,108.028 296.000,110.643 296.000 C 113.360 296.000,114.000 296.114,114.000 296.600 M292.800 321.109 L 292.800 324.217 291.064 326.109 C 290.109 327.149,289.138 328.000,288.906 328.000 C 288.675 328.000,288.382 328.270,288.255 328.600 C 288.079 329.060,287.321 329.200,285.013 329.200 C 282.601 329.200,282.000 329.080,282.000 328.600 C 282.000 328.270,281.730 328.000,281.400 328.000 C 281.064 328.000,280.800 327.643,280.800 327.187 C 280.800 326.741,280.530 326.271,280.200 326.145 C 279.503 325.877,279.335 322.400,280.019 322.400 C 280.250 322.400,280.855 321.950,281.365 321.400 C 281.880 320.845,282.739 320.400,283.297 320.400 C 283.850 320.400,284.526 320.130,284.800 319.800 C 285.100 319.439,285.975 319.200,287.000 319.200 C 288.025 319.200,288.900 318.961,289.200 318.600 C 289.486 318.255,290.358 318.000,291.249 318.000 L 292.800 318.000 292.800 321.109 " stroke="none" fill="#040404" fill-rule="evenodd"></path><path id="path3" d="" stroke="none" fill="#98bc34" fill-rule="evenodd"></path><path id="path4" d="M238.000 186.062 C 238.000 186.899,238.024 186.903,238.800 186.200 C 239.240 185.802,239.600 185.414,239.600 185.338 C 239.600 185.262,239.240 185.200,238.800 185.200 C 238.247 185.200,238.000 185.467,238.000 186.062 M281.400 185.489 C 282.464 185.751,283.218 186.395,283.619 187.386 C 283.942 188.182,283.950 188.181,283.975 187.333 C 284.023 185.670,283.589 185.198,282.057 185.246 C 281.195 185.274,280.927 185.373,281.400 185.489 M283.786 208.200 C 283.786 219.200,283.837 223.642,283.900 218.072 C 283.963 212.502,283.962 203.502,283.900 198.072 C 283.837 192.642,283.785 197.200,283.786 208.200 " stroke="none" fill="#604034" fill-rule="evenodd"></path></g></svg>