<svg xmlns="http://www.w3.org/2000/svg" width="317" height="242" viewBox="0 0 317 242" fill="none">
<path d="M12.5079 105.217L188.629 29.4839L205.45 7.5929" stroke="#B0B1C3" stroke-width="1.00529" stroke-linecap="round" stroke-linejoin="round"/>
<path d="M21.3894 152.632L208.629 73.1471L262.925 82.4427" stroke="#B0B1C3" stroke-width="1.00529" stroke-linecap="round" stroke-linejoin="round"/>
<path d="M72.5296 90.0133C72.6298 89.7544 72.5011 89.4633 72.2422 89.3631L68.0233 87.7306C67.7644 87.6304 67.4733 87.7591 67.3731 88.018C67.273 88.2769 67.4016 88.568 67.6605 88.6682L71.4107 90.1193L69.9595 93.8695C69.8594 94.1284 69.988 94.4194 70.2469 94.5196C70.5058 94.6198 70.7969 94.4911 70.8971 94.2322L72.5296 90.0133ZM28.7084 109.544L72.2641 90.2916L71.8576 89.3722L28.302 108.624L28.7084 109.544Z" fill="#B0B1C3"/>
<path d="M59.6081 111.19C59.7082 110.931 59.5796 110.64 59.3207 110.54L55.1017 108.907C54.8428 108.807 54.5517 108.936 54.4516 109.195C54.3514 109.454 54.48 109.745 54.7389 109.845L58.4891 111.296L57.038 115.046C56.9378 115.305 57.0665 115.596 57.3254 115.696C57.5843 115.797 57.8753 115.668 57.9755 115.409L59.6081 111.19ZM15.7868 130.72L59.3425 111.468L58.9361 110.549L15.3804 129.801L15.7868 130.72Z" fill="#B0B1C3"/>
<path d="M193.131 53.1281C193.231 52.8692 193.103 52.5781 192.844 52.4779L188.625 50.8454C188.366 50.7452 188.075 50.8738 187.975 51.1327C187.875 51.3916 188.003 51.6827 188.262 51.7829L192.012 53.234L190.561 56.9842C190.461 57.2431 190.59 57.5342 190.849 57.6344C191.107 57.7346 191.399 57.6059 191.499 57.347L193.131 53.1281ZM149.31 72.6585L192.866 53.4064L192.459 52.4869L148.904 71.739L149.31 72.6585Z" fill="#B0B1C3"/>
<path d="M94.3075 109.606C94.4077 109.347 94.279 109.056 94.0201 108.956L89.8012 107.324C89.5423 107.223 89.2512 107.352 89.151 107.611C89.0508 107.87 89.1795 108.161 89.4384 108.261L93.1885 109.712L91.7374 113.462C91.6372 113.721 91.7659 114.012 92.0248 114.113C92.2837 114.213 92.5748 114.084 92.6749 113.825L94.3075 109.606ZM50.4862 129.137L94.0419 109.885L93.6355 108.965L50.0798 128.217L50.4862 129.137Z" fill="#B0B1C3"/>
<path d="M137.637 71.7533C137.8 71.5288 137.751 71.2145 137.526 71.0511L133.869 68.3889C133.644 68.2256 133.33 68.2751 133.167 68.4995C133.003 68.724 133.053 69.0383 133.277 69.2017L136.528 71.5681L134.162 74.8192C133.999 75.0437 134.048 75.358 134.272 75.5214C134.497 75.6848 134.811 75.6353 134.975 75.4108L137.637 71.7533ZM90.2677 79.363L137.309 71.954L137.152 70.961L90.1113 78.3699L90.2677 79.363Z" fill="#B0B1C3"/>
<path d="M144.91 81.066C144.979 80.797 144.817 80.5232 144.548 80.4544L140.165 79.333C139.896 79.2642 139.623 79.4265 139.554 79.6954C139.485 79.9643 139.647 80.2381 139.916 80.3069L143.812 81.3037L142.815 85.1994C142.746 85.4683 142.908 85.7421 143.177 85.8109C143.446 85.8797 143.72 85.7175 143.789 85.4486L144.91 81.066ZM103.711 105.649L144.68 81.3738L144.167 80.5089L103.198 104.784L103.711 105.649Z" fill="#B0B1C3"/>
<path d="M225.646 24.2127C225.656 23.9353 225.44 23.7022 225.162 23.6922L220.641 23.528C220.364 23.5179 220.131 23.7347 220.121 24.0121C220.111 24.2895 220.327 24.5226 220.605 24.5326L224.623 24.6786L224.477 28.697C224.467 28.9745 224.684 29.2075 224.962 29.2176C225.239 29.2277 225.472 29.0109 225.482 28.7335L225.646 24.2127ZM209.561 39.3721L225.486 24.5626L224.802 23.8264L208.876 38.6359L209.561 39.3721Z" fill="#B0B1C3"/>
<path d="M254.134 58.391C254.347 58.2121 254.374 57.895 254.195 57.6828L251.279 54.2243C251.1 54.0121 250.782 53.9851 250.57 54.164C250.358 54.343 250.331 54.6601 250.51 54.8723L253.102 57.9465L250.028 60.5386C249.816 60.7176 249.789 61.0347 249.968 61.2469C250.147 61.4591 250.464 61.4861 250.676 61.3072L254.134 58.391ZM215.903 55.2862L253.768 58.5076L253.853 57.5059L215.988 54.2846L215.903 55.2862Z" fill="#B0B1C3"/>
<circle cx="30.3436" cy="128.677" r="8.95414" fill="#A3E9FF" stroke="#B0B1C3" stroke-width="1.00529"/>
<circle cx="238.562" cy="16.4512" r="8.95414" fill="#A3E9FF" stroke="#B0B1C3" stroke-width="1.00529"/>
<circle cx="266.901" cy="61.7942" r="8.95414" fill="#A3E9FF" stroke="#B0B1C3" stroke-width="1.00529"/>
<circle cx="206.528" cy="43.9927" r="8.95414" fill="#A3E9FF" stroke="#B0B1C3" stroke-width="1.00529"/>
<circle cx="159.018" cy="65.9851" r="8.95414" fill="#D9D9D9" stroke="#B0B1C3" stroke-width="1.00529" stroke-dasharray="2.01 2.01"/>
<circle cx="95.1769" cy="81.9605" r="8.95414" fill="#A3E9FF" stroke="#B0B1C3" stroke-width="1.00529"/>
<circle cx="125.693" cy="94.4436" r="8.95414" fill="#A3E9FF" stroke="#B0B1C3" stroke-width="1.00529"/>
<circle cx="77.2687" cy="115.724" r="8.95414" fill="#D9D9D9" stroke="#B0B1C3" stroke-width="1.00529" stroke-dasharray="2.01 2.01"/>
<circle cx="46.3155" cy="103.398" r="8.95414" fill="#A3E9FF" stroke="#B0B1C3" stroke-width="1.00529"/>
<path d="M110.993 165.116L108.315 163.566L117.618 148.765L120.578 150.175L110.993 165.116Z" fill="#642F08"/>
<path d="M147.641 166.103L145.104 167.089L134.955 153.276H139.184L147.641 166.103Z" fill="#642F08"/>
<path d="M113.988 72.7942C109.808 75.9293 110.36 107.193 111.158 122.433C112.464 124.9 114.511 131.794 112.246 139.632C109.982 147.469 118.996 150.3 123.785 150.735L134.235 139.632L135.542 113.071L145.557 76.7128C143.96 74.0278 139.722 68.3093 135.542 66.916C130.317 65.1743 119.213 68.8754 113.988 72.7942Z" fill="#00ADE4"/>
<path d="M105.385 169.133C103.448 166.662 106.192 164.485 107.807 163.706C111.748 164.775 112.065 167.102 111.731 168.131C110.423 169.495 107.322 171.605 105.385 169.133Z" fill="#00ADE4"/>
<path d="M144.631 171.638C141.291 169.501 143.685 167.185 145.299 166.294C147.311 164.457 150.56 166.294 150.977 169.133C151.395 171.972 148.806 174.311 144.631 171.638Z" fill="#00ADE4"/>
<path d="M99.205 135.462V129.174L166.753 99.1526L196.571 92.6616L243.023 115.583V122.074L187.646 145.807L152.351 160.818L135.514 152.501V186.782L154.785 196.316V199.764L149.511 201.793L104.073 179.48V176.64L109.144 174.409L123.344 180.697V147.43L99.205 135.462Z" fill="#A64F0E"/>
<path d="M206.105 147.024V138.099L217.059 132.419V152.096L236.329 161.224V165.078L231.866 166.7L187.849 145.604L195.76 142.359L206.105 147.024Z" fill="#A64F0E"/>
<path d="M151.289 154.26L151.289 160.902" stroke="black" stroke-width="1.00529" stroke-linecap="round" stroke-linejoin="round"/>
<path d="M242.78 115.699L242.78 122.333" stroke="black" stroke-width="1.00529" stroke-linecap="round"/>
<path d="M98.7463 128.4L98.7463 135.035" stroke="black" stroke-width="1.00529" stroke-linecap="round"/>
<path d="M151.24 154.422L242.132 115.861" stroke="black" stroke-width="1.00529" stroke-linecap="round" stroke-linejoin="round"/>
<path d="M151.888 160.894L242.78 122.333" stroke="black" stroke-width="1.00529" stroke-linecap="round" stroke-linejoin="round"/>
<path d="M98.7463 128.4L151.888 154.161" stroke="black" stroke-width="1.00529" stroke-linecap="round" stroke-linejoin="round"/>
<path d="M189.639 90.0999L242.78 115.861" stroke="black" stroke-width="1.00529" stroke-linecap="round" stroke-linejoin="round"/>
<path d="M98.7463 135.133L151.888 160.894" stroke="black" stroke-width="1.00529" stroke-linecap="round" stroke-linejoin="round"/>
<path d="M123.119 147.134L123.119 184.712" stroke="black" stroke-width="1.00529" stroke-linecap="round" stroke-linejoin="round"/>
<path d="M132.527 152.068L132.527 189.646" stroke="black" stroke-width="1.00529" stroke-linecap="round" stroke-linejoin="round"/>
<path d="M134.84 152.993L134.84 190.572" stroke="black" stroke-width="1.00529" stroke-linecap="round" stroke-linejoin="round"/>
<path d="M149.628 198.45L154.451 196.404" stroke="black" stroke-width="1.00529" stroke-linecap="round" stroke-linejoin="round"/>
<path d="M108.64 174.188L103.817 176.234V179.523" stroke="black" stroke-width="1.00529" stroke-linecap="round" stroke-linejoin="round"/>
<path d="M149.628 201.578L154.48 199.52" stroke="black" stroke-width="1.00529" stroke-linecap="round" stroke-linejoin="round"/>
<path d="M103.847 179.582L149.692 201.806" stroke="black" stroke-width="1.00529" stroke-linecap="round" stroke-linejoin="round"/>
<path d="M103.927 176.203L149.855 198.467" stroke="black" stroke-width="1.00529" stroke-linecap="round" stroke-linejoin="round"/>
<path d="M154.245 199.341V196.393L135.265 187.192M123.058 181.275L108.63 174.28M149.869 198.49V201.438" stroke="black" stroke-width="1.00529" stroke-linecap="round" stroke-linejoin="round"/>
<path d="M205.423 137.98V150.334" stroke="black" stroke-width="1.00529" stroke-linecap="round" stroke-linejoin="round"/>
<path d="M214.83 155.269L214.83 134.244" stroke="black" stroke-width="1.00529" stroke-linecap="round" stroke-linejoin="round"/>
<path d="M217.143 156.194L217.143 133.395" stroke="black" stroke-width="1.00529" stroke-linecap="round" stroke-linejoin="round"/>
<path d="M231.932 164.072L236.754 162.026" stroke="black" stroke-width="1.00529" stroke-linecap="round" stroke-linejoin="round"/>
<path d="M231.932 167.201L236.784 165.142" stroke="black" stroke-width="1.00529" stroke-linecap="round" stroke-linejoin="round"/>
<path d="M231.995 167.428L187.573 145.893" stroke="black" stroke-width="1.00529" stroke-linecap="round" stroke-linejoin="round"/>
<path d="M232.158 164.09L191.321 144.293" stroke="black" stroke-width="1.00529" stroke-linecap="round" stroke-linejoin="round"/>
<path d="M236.549 164.963V162.015L217.568 152.814M205.362 146.897L196.001 142.359M232.172 164.112V167.06" stroke="black" stroke-width="1.00529" stroke-linecap="round" stroke-linejoin="round"/>
<path d="M110.897 123.208C110.477 112.541 109.852 102.77 110.897 92.1221C111.464 86.3325 111.228 80.0216 112.876 74.4072C113.741 71.4601 120.442 68.4951 125.413 66.9564C134.926 64.0121 141.067 67.8678 145.319 77.0813" stroke="black" stroke-width="1.00529" stroke-linecap="round"/>
<path d="M111.062 141.849C110.806 144.818 114.479 148.187 116.817 149.409C118.528 150.303 121.154 150.921 122.939 150.921" stroke="black" stroke-width="1.00529" stroke-linecap="round"/>
<path d="M117.512 150.126L108.182 163.419" stroke="black" stroke-width="1.00529" stroke-linecap="round"/>
<path d="M120.516 150.893L111.313 164.506" stroke="black" stroke-width="1.00529" stroke-linecap="round"/>
<path d="M111.919 168.024C110.935 170.976 106.791 171.644 104.961 169.183C103.624 167.332 104.3 164.282 106.833 163.643C109.219 163.041 112.87 165.171 111.919 168.024Z" stroke="black" stroke-width="1.00529" stroke-linecap="round"/>
<path d="M147.174 165.361L140.249 155.495M134.84 152.835L144.043 166.447M150.395 171.124C148.565 173.585 144.421 172.918 143.436 169.965C142.486 167.113 146.137 164.983 148.523 165.585C151.055 166.224 151.732 169.273 150.395 171.124Z" stroke="black" stroke-width="1.00529" stroke-linecap="round"/>
<path d="M150.861 112.25L132.243 120.297L151.808 130.238L197.25 111.146V78.958L151.808 98.3654L150.861 112.25Z" fill="#6B6D85"/>
<path d="M131.438 120.616L151.453 112.125" stroke="black" stroke-width="1.00529" stroke-linecap="round" stroke-linejoin="round"/>
<path d="M135.767 112.421L124.271 117.72C121.14 114.785 127.152 105.083 130.549 100.599L132.913 94.5651C125.608 81.3206 138.403 77.1972 145.714 76.791C158.759 78.7478 157.346 87.7708 155.009 92.0377L159.412 94.5651L151.421 98.0712V105.898L142.045 110.056C141.654 114.688 146.611 119.922 149.138 121.96C147.182 122.221 139.409 115.709 135.767 112.421Z" fill="white"/>
<path d="M151.365 98.0189L196.812 78.7385" stroke="black" stroke-width="1.00529" stroke-linecap="round" stroke-linejoin="round"/>
<path d="M196.812 79.2634V110.996L151.365 130.277V98.1183" stroke="black" stroke-width="1.00529" stroke-linecap="round" stroke-linejoin="round"/>
<path d="M151.366 130.276L138.08 123.836L131.438 120.616" stroke="black" stroke-width="1.00529" stroke-linecap="round" stroke-linejoin="round"/>
<path d="M132.846 94.6699C125.991 103.451 137.065 116.427 149.32 122.333" stroke="black" stroke-width="1.00529" stroke-linecap="round"/>
<path d="M148.508 121.723C148.508 121.723 141.726 115.588 141.726 109.681C141.726 104.865 147.023 101.268 151.147 103.742M159.494 94.799L155.1 91.9641" stroke="black" stroke-width="1.00529" stroke-linecap="round"/>
<path d="M130.362 100.113C127.573 105.794 120.959 115.125 124.094 117.929" stroke="black" stroke-width="1.00529" stroke-linecap="round"/>
<path d="M156.407 85.1021C157.185 88.1843 155.486 91.0515 153.456 93.2768C147.975 99.2869 130.79 98.6249 130.371 88.3646C129.838 75.3051 153.062 71.8476 156.407 85.1021Z" stroke="black" stroke-width="1.00529" stroke-linecap="round"/>
<path d="M142.055 89.2258C143.375 93.6798 147.829 94.9995 153.273 93.3499" stroke="black" stroke-width="1.00529" stroke-linecap="round"/>
<path d="M98.7463 128.4L135.979 112.604M141.834 110.12L151.599 105.977" stroke="black" stroke-width="1.00529" stroke-linecap="round" stroke-linejoin="round"/>
<path d="M281.85 186.218C283.844 185.125 287.84 179.383 289.083 173.481C291.154 183.422 285.643 191.736 283.905 194.087L287.84 216.972C286.783 216.213 283.724 213.68 280.943 207.549C278.288 201.693 274.447 202.802 273.465 203.864C269.386 209.932 259.518 219.28 262.781 212.726C266.86 204.533 268.933 197.729 268.479 194.087C268.117 191.174 260.814 183.422 258.055 175.417C258.847 173.481 270.08 187.234 269.512 186.218C267.545 182.697 267.375 179.734 270.548 178.141C273.72 176.548 279.13 178.744 281.85 181.247C284.861 184.02 279.357 187.583 281.85 186.218Z" fill="white"/>
<path d="M268.092 183.143C268.992 185.787 270.998 188.708 277.69 188.077C280.408 187.491 283.698 185.712 282.504 182.35C280.369 176.342 265.549 175.682 268.092 183.143Z" stroke="#9293AB" stroke-width="1.00529" stroke-linecap="round" stroke-linejoin="round"/>
<path d="M270.237 186.528C263.714 183.008 259.48 173.53 258.433 175.034C257.385 176.538 263.52 186.218 267.234 191.085C270.082 194.815 265.417 206.066 262.471 214.487C262.471 217.985 272.721 203.617 275.622 202.889C280.381 201.694 282.312 211.792 286.391 216.04C290.47 220.288 283.802 193.777 283.802 193.777C286.899 190.818 291.154 181.247 289.008 173.688C288.386 171.499 286.187 186.406 278.935 187.771" stroke="#9293AB" stroke-width="1.00529" stroke-linecap="round" stroke-linejoin="round"/>
<path d="M277.135 183.968C276.245 185.6 272.054 186.13 270.461 182.93" stroke="#9293AB" stroke-width="1.00529" stroke-linecap="round" stroke-linejoin="round"/>
<path d="M246.409 180.028C254.602 181.274 254.116 189.531 252.378 191.027C255.109 192.191 258.814 194.619 260.403 196.015C262.389 197.761 256.687 199.991 255.198 199.991C253.708 199.991 259.082 224.209 258.089 224.209C257.096 224.209 249.175 211.455 246.409 211.69C240.306 212.209 235.284 228.295 234.667 224.86C233.004 215.607 239.458 199.474 239.458 199.474C239.458 199.474 232.828 196.55 233.076 193.557C233.324 190.565 241.196 190.997 239.458 189.252C235.645 185.423 238.217 178.781 246.409 180.028Z" fill="white"/>
<path d="M243.43 192.244C245.108 192.829 250.133 193.241 251.623 191.745C254.033 189.93 254.732 186.121 252.467 182.936C249.568 178.861 242.303 178.325 238.934 182.045C235.316 186.042 239.837 190.991 243.43 192.244Z" stroke="#9293AB" stroke-width="1.00529" stroke-linecap="round" stroke-linejoin="round"/>
<path d="M252.161 190.811C254.836 191.389 264.734 198.038 257.439 199.63C253.77 200.431 252.74 200.353 248.981 200.353" stroke="#9293AB" stroke-width="1.00529" stroke-linecap="round" stroke-linejoin="round"/>
<path d="M245.728 200.859C242.964 200.859 240.386 200.606 237.932 199.148C236.216 198.129 232.9 195.888 233.236 193.475C233.526 191.386 236.954 190.578 239.954 190.188" stroke="#9293AB" stroke-width="1.00529" stroke-linecap="round" stroke-linejoin="round"/>
<path d="M240.74 193.991C240.234 195.654 244.701 198.751 248.909 199.269C250.45 199.458 248.808 200.859 245.439 200.859" stroke="#9293AB" stroke-width="1.00529" stroke-linecap="round" stroke-linejoin="round"/>
<path d="M253.535 195.22C253.535 196.666 249.918 199.592 245.005 198.112" stroke="#9293AB" stroke-width="1.00529" stroke-linecap="round" stroke-linejoin="round"/>
<path d="M249.969 187.092C247.401 189.502 241.903 189.851 241.101 185.014" stroke="#9293AB" stroke-width="1.00529" stroke-linecap="round" stroke-linejoin="round"/>
<path d="M255.099 200.242C256.34 208.22 258.055 216.572 258.055 224.882C256.325 220.076 249.424 212.058 246.658 211.711C240.7 210.963 234.261 229.002 234.494 224.882C235.238 211.711 238.466 204.231 239.459 200.242" stroke="#9293AB" stroke-width="1.00529" stroke-linecap="round" stroke-linejoin="round"/>
<path d="M204.508 181.217C205.509 176.711 214.577 176.265 215.356 176.377L223.706 175.987C224.615 174.429 227.311 172.237 226.822 167.475C226.21 161.522 221.882 149.349 225.709 154.879C234.565 167.679 231.047 176.766 230.045 181.217C229.044 185.668 228.157 210.76 225.709 210.259C223.261 209.759 224.04 194.18 221.147 194.236C218.254 194.292 208.573 211.149 205.902 209.035C203.766 207.344 213.902 194.389 215.356 185.946C215.691 183.999 214.5 183.086 211.518 182.775C207.79 182.385 212.687 190.063 211.519 191.232C210.35 192.4 203.506 185.724 204.508 181.217Z" fill="white" stroke="#9293AB" stroke-width="1.00529" stroke-linecap="round" stroke-linejoin="round"/>
<path d="M215.745 176.812C218.855 179.574 223.156 179.392 224.541 176.501C226.192 173.054 225.949 170.018 223.345 167.125C221.189 164.731 216.614 163.538 214.683 167.132C213.174 169.941 213.514 174.831 215.745 176.812Z" fill="white" stroke="#9293AB" stroke-width="1.00529" stroke-linecap="round" stroke-linejoin="round"/>
<path d="M222.586 171.031C221.422 175.811 217.083 175.811 215.581 172.974" stroke="#9293AB" stroke-width="1.00529" stroke-linecap="round" stroke-linejoin="round"/>
</svg>