<svg width="13" height="16" viewBox="0 0 13 16" fill="none" xmlns="http://www.w3.org/2000/svg">
<path id="path1" d="M0.282227 0.571428L0.282227 15.4286C0.282227 15.7446 0.537584 16 0.853655 16H12.2822C12.5983 16 12.8537 15.7446 12.8537 15.4286L12.8537 0.571428C12.8537 0.255357 12.5983 0 12.2822 0H0.853655C0.537584 0 0.282227 0.255357 0.282227 0.571428ZM3.99651 1.28571V5.07143H1.56794L1.56794 1.28571H3.99651ZM7.99651 1.28571V5.07143H5.13937V1.28571H7.99651ZM5.13937 9.78571L5.13937 6.21428H7.99651L7.99651 9.78571H5.13937ZM3.99651 6.21428V9.78571H1.56794L1.56794 6.21428H3.99651ZM5.13937 14.7143V10.9286H7.99651V14.7143H5.13937ZM1.56794 14.7143L1.56794 10.9286H3.99651L3.99651 14.7143H1.56794ZM9.13937 14.7143V10.9286H11.5679V14.7143H9.13937ZM9.13937 9.78571V6.21428H11.5679V9.78571H9.13937ZM11.5679 1.28571L11.5679 5.07143H9.13937L9.13937 1.28571H11.5679Z" fill="#595959"/>
</svg>
