<svg xmlns="http://www.w3.org/2000/svg" width="32" height="32" viewBox="0 0 32 32">
    <defs>
        <style>
            .cls-1 {
            fill: rgba(0,0,0,0);
            }

            .cls-2 {
            fill: #2967dd;
            }
        </style>
    </defs>
    <g id="_event_note" data-name=" event_note" transform="translate(-304 -3654)">
        <rect id="Path" class="cls-1" width="32" height="32" transform="translate(304 3654)"/>
        <path id="Icon" class="cls-2 cls-2-sidebar" d="M21.333,26.667H2.667A2.671,2.671,0,0,1,0,24V5.334A2.671,2.671,0,0,1,2.667,2.667H4V1.333a1.333,1.333,0,0,1,2.666,0V2.667H17.333V1.333a1.334,1.334,0,0,1,2.667,0V2.667h1.333A2.67,2.67,0,0,1,24,5.334V24A2.67,2.67,0,0,1,21.333,26.667ZM2.667,9.334V22.667A1.335,1.335,0,0,0,4,24H20a1.335,1.335,0,0,0,1.333-1.333V9.334ZM13.334,20H6.666a1.334,1.334,0,0,1,0-2.667h6.668a1.334,1.334,0,0,1,0,2.667Zm4-5.333H6.666a1.333,1.333,0,0,1,0-2.667H17.333a1.333,1.333,0,0,1,0,2.667Z" transform="translate(308 3655.333)"/>
    </g>
</svg>
