<svg xmlns="http://www.w3.org/2000/svg" width="24" height="24" viewBox="0 0 24 24">
  <defs>
    <style>
      .cls-1-sidebar {
        fill: rgba(0,0,0,0);
      }

      .cls-2-sidebar {
        fill: #fff;
      }
    </style>
  </defs>
  <g id="_widgets" data-name=" widgets" transform="translate(-202 -1748)">
    <rect id="Path" class="cls-1-sidebar" width="24" height="24" transform="translate(202 1748)"/>
    <path id="Icon" class="cls-2-sidebar" d="M17,18.893H11a1,1,0,0,1-1-1v-6a1,1,0,0,1,1-1h6a1,1,0,0,1,1,1v6A1,1,0,0,1,17,18.893Zm-10,0H1a1,1,0,0,1-1-1v-6a1,1,0,0,1,1-1H7a1,1,0,0,1,1,1v6A1,1,0,0,1,7,18.893Zm6.655-8.408a.99.99,0,0,1-.7-.292L8.7,5.943a1,1,0,0,1,0-1.41L12.95.293a1.008,1.008,0,0,1,1.419,0l4.241,4.24a1,1,0,0,1,0,1.41l-4.251,4.25A.99.99,0,0,1,13.655,10.485ZM7,8.893H1a1,1,0,0,1-1-1v-6a1,1,0,0,1,1-1H7a1,1,0,0,1,1,1v6A1,1,0,0,1,7,8.893Z" transform="translate(205 1750.107)"/>
  </g>
</svg>
