<svg width="20" height="20" viewBox="0 0 20 20" fill="none" xmlns="http://www.w3.org/2000/svg">
<path d="M9.93152 3.22478L9.93222 3.22363C9.96495 3.16992 10.0353 3.16992 10.068 3.22363L10.0682 3.22401L13.1599 8.29068L13.1599 8.29069L13.163 8.29578C13.1734 8.31254 13.175 8.32365 13.175 8.33199C13.175 8.3429 13.172 8.35789 13.1631 8.37373C13.1543 8.38957 13.1428 8.40052 13.1326 8.40677C13.1246 8.4117 13.113 8.41668 13.0918 8.41668H6.9001C6.87886 8.41668 6.8673 8.4117 6.85925 8.40677C6.84907 8.40052 6.83762 8.38957 6.82877 8.37373C6.81991 8.35789 6.81687 8.3429 6.81689 8.33199C6.81692 8.32365 6.81844 8.31254 6.82885 8.29578L6.82886 8.29579L6.83152 8.29144L9.93152 3.22478Z" stroke="white" stroke-width="1.5"/>
<path d="M17.5833 14.5833C17.5833 16.2402 16.2401 17.5833 14.5833 17.5833C12.9264 17.5833 11.5833 16.2402 11.5833 14.5833C11.5833 12.9265 12.9264 11.5833 14.5833 11.5833C16.2401 11.5833 17.5833 12.9265 17.5833 14.5833Z" stroke="white" stroke-width="1.5"/>
<path d="M8.33333 17.1667H3.33333C3.31275 17.1667 3.2925 17.1589 3.27512 17.1415C3.25774 17.1242 3.25 17.1039 3.25 17.0833V12.0833C3.25 12.0627 3.25774 12.0425 3.27512 12.0251C3.2925 12.0077 3.31275 12 3.33333 12H8.33333C8.35392 12 8.37417 12.0077 8.39154 12.0251C8.40892 12.0425 8.41667 12.0627 8.41667 12.0833V17.0833C8.41667 17.1039 8.40892 17.1242 8.39154 17.1415C8.37417 17.1589 8.35392 17.1667 8.33333 17.1667Z" stroke="white" stroke-width="1.5"/>
</svg>
