<svg xmlns="http://www.w3.org/2000/svg" width="24" height="24" viewBox="0 0 24 24">
  <defs>
    <style>
      .cls-1-sidebar {
        fill: rgba(0,0,0,0);
      }

      .cls-2-sidebar {
        fill: #fff;
      }
    </style>
  </defs>
  <g id="_work" data-name=" work" transform="translate(-134 -550)">
    <rect id="Path" class="cls-1-sidebar" width="24" height="24" transform="translate(134 550)"/>
    <path id="Icon" class="cls-2-sidebar" d="M154,571H138a2,2,0,0,1-2-2l.01-11a1.974,1.974,0,0,1,1.99-2h4v-2a2,2,0,0,1,2-2h4a2,2,0,0,1,2,2v2h4a2,2,0,0,1,2,2v11A2,2,0,0,1,154,571Zm-10-17v2h4v-2h-4Z"/>
  </g>
</svg>
