<svg id="Layer_1" data-name="Layer 1" xmlns="http://www.w3.org/2000/svg" viewBox="0 0 389.49 347"><defs><style>.cls-1{fill:#5059c9;}.cls-2{fill:#7b83eb;}.cls-3{opacity:0.2;}.cls-3,.cls-4{isolation:isolate;}.cls-4{opacity:0.1;}.cls-5{fill:#4b53bc;}.cls-6{fill:#fff;}</style></defs><title>microsoft-teams-logo</title><path class="cls-1" d="M330.36,320V225.58a8.53,8.53,0,0,1,8.53-8.53h95.56a16.3,16.3,0,0,1,16.3,16.3V320a60,60,0,0,1-60,60h-.44A60,60,0,0,1,330.36,320Z" transform="translate(-61.26 -82.5)"/><circle class="cls-1" cx="329.29" cy="74.36" r="38.95"/><path class="cls-1" d="M386,384.33q-1.21-.05-2.48-.15Q384.74,384.28,386,384.33Z" transform="translate(-61.26 -82.5)"/><path class="cls-1" d="M387.09,384.37l-.54,0Z" transform="translate(-61.26 -82.5)"/><circle class="cls-2" cx="205.37" cy="56.65" r="56.65"/><path class="cls-2" d="M356.32,217H191.09a16.43,16.43,0,0,0-16.52,16.34v98.05a99.15,99.15,0,0,0,198.28,0V233.39A16.43,16.43,0,0,0,356.32,217Z" transform="translate(-61.26 -82.5)"/><path class="cls-3" d="M266.62,217V363.43a12.28,12.28,0,0,1-.28,2.83,16.39,16.39,0,0,1-16.22,13.67H187.59a76.55,76.55,0,0,1-3.75-7.08c-1.13-2.34-2.13-4.67-3-7.08a96.94,96.94,0,0,1-6.23-34.35v-98A16.4,16.4,0,0,1,191,217h75.62Z" transform="translate(-61.26 -82.5)"/><path class="cls-3" d="M266.62,176.9v18.91a58.47,58.47,0,0,1-7.08-.43,56.8,56.8,0,0,1-45.46-35h36a16.47,16.47,0,0,1,16.5,16.44S266.62,176.88,266.62,176.9Z" transform="translate(-61.26 -82.5)"/><path class="cls-4" d="M273.7,217V349.26a23.81,23.81,0,0,1-23.58,23.58H183.84c-1.13-2.34-2.13-4.67-3-7.08a96.94,96.94,0,0,1-6.23-34.35v-98A16.4,16.4,0,0,1,191,217H273.7Z" transform="translate(-61.26 -82.5)"/><path class="cls-4" d="M273.7,176.9v18.48a59.17,59.17,0,0,1-14.16,0,56.8,56.8,0,0,1-45.46-35,59.15,59.15,0,0,1-2.34-7.08h38.38A23.66,23.66,0,0,1,273.7,176.9Z" transform="translate(-61.26 -82.5)"/><path class="cls-3" d="M266.62,217V349.26a16.47,16.47,0,0,1-16.44,16.5H180.79a96.94,96.94,0,0,1-6.23-34.35v-98A16.4,16.4,0,0,1,191,217h75.62Z" transform="translate(-61.26 -82.5)"/><path class="cls-3" d="M266.62,176.9v18.91a58.47,58.47,0,0,1-7.08-.43,56.8,56.8,0,0,1-45.46-35h36a16.47,16.47,0,0,1,16.5,16.44S266.62,176.88,266.62,176.9Z" transform="translate(-61.26 -82.5)"/><path class="cls-4" d="M259.54,176.9v18.48a56.8,56.8,0,0,1-45.46-35h29a16.47,16.47,0,0,1,16.5,16.44S259.54,176.88,259.54,176.9Z" transform="translate(-61.26 -82.5)"/><path class="cls-4" d="M191.06,217h68.48V349.26a16.47,16.47,0,0,1-16.44,16.5h-62.3a96.94,96.94,0,0,1-6.23-34.35v-98A16.4,16.4,0,0,1,191,217Z" transform="translate(-61.26 -82.5)"/><rect class="cls-5" y="77.9" width="198.28" height="198.28" rx="16.52" ry="16.52"/><path class="cls-6" d="M202.95,220.79H170.62V313H150V220.79H117.85v-17.9h85.1Z" transform="translate(-61.26 -82.5)"/></svg>