<svg width="20" height="20" viewBox="0 0 20 20" fill="none" xmlns="http://www.w3.org/2000/svg">
<path d="M17.3166 14.4039C16.73 13.8168 16.0445 13.3376 15.2916 12.9883C16.3534 12.1281 17.0307 10.8156 17.0307 9.34375C17.0307 6.74688 14.8651 4.61641 12.2682 4.65625C9.71117 4.69609 7.65101 6.77969 7.65101 9.34375C7.65101 10.8156 8.3307 12.1281 9.39007 12.9883C8.63704 13.3373 7.95153 13.8166 7.36507 14.4039C6.08539 15.6859 5.35882 17.3781 5.31195 19.1828C5.31132 19.2078 5.31571 19.2327 5.32485 19.256C5.334 19.2793 5.34771 19.3005 5.36518 19.3184C5.38265 19.3363 5.40354 19.3506 5.4266 19.3603C5.44966 19.37 5.47443 19.375 5.49945 19.375H6.81195C6.91273 19.375 6.99711 19.2953 6.99945 19.1945C7.04398 17.8352 7.59476 16.5625 8.56273 15.5969C9.05806 15.0989 9.64723 14.7041 10.2961 14.4354C10.9451 14.1667 11.6408 14.0293 12.3432 14.0312C13.7705 14.0312 15.1135 14.5867 16.1237 15.5969C17.0893 16.5625 17.6401 17.8352 17.6869 19.1945C17.6893 19.2953 17.7737 19.375 17.8744 19.375H19.187C19.212 19.375 19.2367 19.37 19.2598 19.3603C19.2829 19.3506 19.3037 19.3363 19.3212 19.3184C19.3387 19.3005 19.3524 19.2793 19.3615 19.256C19.3707 19.2327 19.3751 19.2078 19.3745 19.1828C19.3276 17.3781 18.601 15.6859 17.3166 14.4039ZM12.3432 12.3438C11.5416 12.3438 10.7869 12.032 10.2221 11.4648C9.93864 11.1836 9.71472 10.8482 9.56372 10.4785C9.41271 10.1088 9.33772 9.71255 9.3432 9.31328C9.35023 8.54453 9.65726 7.80156 10.194 7.25078C10.7565 6.67422 11.5088 6.35313 12.3127 6.34375C13.1073 6.33672 13.8784 6.64609 14.4455 7.20156C15.0268 7.77109 15.3455 8.53281 15.3455 9.34375C15.3455 10.1453 15.0338 10.8977 14.4666 11.4648C14.1884 11.7444 13.8574 11.9661 13.4929 12.1169C13.1285 12.2678 12.7377 12.3449 12.3432 12.3438ZM6.47211 9.9625C6.45101 9.75859 6.43929 9.55234 6.43929 9.34375C6.43929 8.97109 6.47445 8.60781 6.54007 8.25391C6.55648 8.16953 6.51195 8.08281 6.4346 8.04766C6.11585 7.90469 5.82289 7.70781 5.56976 7.45938C5.27149 7.17017 5.03679 6.82197 4.88062 6.43699C4.72444 6.05201 4.65024 5.6387 4.66273 5.22344C4.68382 4.47109 4.98617 3.75625 5.51351 3.21719C6.09242 2.62422 6.87054 2.30078 7.69789 2.31016C8.44554 2.31719 9.16742 2.60547 9.71351 3.11641C9.89867 3.28984 10.058 3.48203 10.1916 3.68828C10.2385 3.76094 10.3299 3.79141 10.4096 3.76328C10.8221 3.62031 11.258 3.51953 11.7057 3.47266C11.8369 3.45859 11.9119 3.31797 11.8534 3.20078C11.0916 1.69375 9.53539 0.653126 7.73539 0.625001C5.13617 0.585157 2.97054 2.71563 2.97054 5.31016C2.97054 6.78203 3.64789 8.09453 4.7096 8.95469C3.96429 9.29922 3.27757 9.775 2.68226 10.3703C1.39789 11.6523 0.671323 13.3445 0.624448 15.1516C0.623823 15.1766 0.62821 15.2015 0.637353 15.2248C0.646495 15.248 0.660207 15.2693 0.67768 15.2872C0.695154 15.3051 0.716036 15.3193 0.739096 15.329C0.762155 15.3388 0.786926 15.3438 0.811948 15.3438H2.12679C2.22757 15.3438 2.31195 15.2641 2.31429 15.1633C2.35882 13.8039 2.9096 12.5312 3.87757 11.5656C4.56664 10.8766 5.41039 10.3984 6.33148 10.1664C6.42289 10.143 6.48382 10.0563 6.47211 9.9625Z" fill="#262626"/>
</svg>
