<svg width="230" height="147" viewBox="0 0 230 147" fill="none" xmlns="http://www.w3.org/2000/svg">
<path d="M155.245 31.4868C155.623 31.1594 160.107 27.9359 156.506 23.779C153.887 20.7558 150.335 22.5101 149.075 23.6014L126.779 42.9181C124.889 44.5551 124.244 47.6282 126.601 50.349C128.959 53.0699 132.067 51.5675 133.327 50.4761L155.245 31.4868Z" fill="#FCD491"/>
<path d="M97 6C97 5.5 97.5 0 92 0C88 0 87 3.83333 87 5.5V35C87 37.5 88.9 40 92.5 40C96.1 40 97 36.6667 97 35V6Z" fill="#FCD491"/>
<path d="M34.3137 22.251C33.9602 21.8975 30.4246 17.6548 26.5355 21.5439C23.7071 24.3724 25.7106 27.79 26.8891 28.9686L47.7487 49.8282C49.5165 51.596 52.6278 52.0202 55.1734 49.4747C57.7189 46.9291 55.9983 43.9356 54.8198 42.7571L34.3137 22.251Z" fill="#FCD491"/>
<path d="M6 76.0118C5.5 76.0118 -4.5897e-07 75.5118 -2.18557e-07 81.0118C-4.37114e-08 85.0118 3.83333 86.0118 5.5 86.0118L35 86.0118C37.5 86.0118 40 84.1118 40 80.5118C40 76.9118 36.6667 76.0118 35 76.0118L6 76.0118Z" fill="#FCD491"/>
<path d="M51.5002 87C48.5002 38 110 39.5 121 58C90.5 54 73.6668 74.3333 66.0001 87C65.8334 87.8333 62.7001 89 51.5002 87Z" fill="#FDD798"/>
<path d="M115.085 62.0217C115.085 62.0217 85.5 59.5 69.0854 93.5217C6.08545 86.5217 25.0854 144.522 45.5854 144.522C101.586 144.522 220.085 146.022 220.085 146.022C234.085 139.022 234.085 119.022 213.585 113.022C213.585 86.5217 186.585 85.5217 186.585 85.5217C186.585 85.5217 177.085 84.0217 163.085 91.0217C145 59 115.085 62.0217 115.085 62.0217Z" fill="#D9D9D9"/>
<path d="M104.885 115.721H98.918V122H97.043V107.781H105.852V109.324H98.918V114.188H104.885V115.721ZM114.289 118.289H108.332L106.994 122H105.061L110.49 107.781H112.131L117.57 122H115.646L114.289 118.289ZM108.898 116.746H113.732L111.311 110.096L108.898 116.746ZM121.496 122H119.621V107.781H121.496V122ZM130.148 116.248H126.809V122H124.924V107.781H129.631C131.232 107.781 132.463 108.146 133.322 108.875C134.188 109.604 134.621 110.665 134.621 112.059C134.621 112.944 134.38 113.715 133.898 114.373C133.423 115.031 132.759 115.522 131.906 115.848L135.246 121.883V122H133.234L130.148 116.248ZM126.809 114.715H129.689C130.62 114.715 131.359 114.474 131.906 113.992C132.46 113.51 132.736 112.866 132.736 112.059C132.736 111.18 132.473 110.506 131.945 110.037C131.424 109.568 130.669 109.331 129.68 109.324H126.809V114.715Z" fill="#262626"/>
</svg>
