<svg width="175" height="168" viewBox="0 0 175 168" fill="none" xmlns="http://www.w3.org/2000/svg">
<path d="M92 6C92 5.5 92.5 0 87 0C83 0 82 3.83333 82 5.5V35C82 37.5 83.9 40 87.5 40C91.1 40 92 36.6667 92 35V6Z" fill="#FCD491"/>
<path d="M92 134C92 133.5 92.5 128 87 128C83 128 82 131.833 82 133.5V163C82 165.5 83.9 168 87.5 168C91.1 168 92 164.667 92 163V134Z" fill="#FCD491"/>
<path d="M149.113 29.3137C149.466 28.9602 153.709 25.4246 149.82 21.5355C146.991 18.7071 143.574 20.7106 142.395 21.8891L121.535 42.7487C119.768 44.5165 119.343 47.6278 121.889 50.1734C124.435 52.7189 127.428 50.9983 128.607 49.8198L149.113 29.3137Z" fill="#FCD491"/>
<path d="M53.1126 126.314C53.4662 125.96 57.7088 122.425 53.8197 118.536C50.9913 115.707 47.5736 117.711 46.3951 118.889L25.5354 139.749C23.7677 141.517 23.3434 144.628 25.889 147.173C28.4346 149.719 31.428 147.998 32.6065 146.82L53.1126 126.314Z" fill="#FCD491"/>
<path d="M169 89C169.5 89 175 89.5 175 84C175 80 171.167 79 169.5 79L140 79C137.5 79 135 80.9 135 84.5C135 88.1 138.333 89 140 89L169 89Z" fill="#FCD491"/>
<path d="M34 89C34.5 89 40 89.5 40 84C40 80 36.1667 79 34.5 79L5 79C2.5 79 2.26573e-08 80.9 6.55868e-08 84.5C1.08516e-07 88.1 3.33333 89 5 89L34 89Z" fill="#FCD491"/>
<path d="M141.05 146.113C141.404 146.466 144.939 150.709 148.828 146.82C151.657 143.991 149.653 140.574 148.475 139.395L127.615 118.536C125.847 116.768 122.736 116.344 120.19 118.889C117.645 121.435 119.365 124.428 120.544 125.607L141.05 146.113Z" fill="#FCD491"/>
<path d="M46.0501 49.1127C46.4036 49.4663 49.9391 53.7089 53.8282 49.8198C56.6567 46.9914 54.6532 43.5737 53.4747 42.3952L32.615 21.5356C30.8473 19.7678 27.736 19.3435 25.1904 21.8891C22.6448 24.4347 24.3655 27.4281 25.544 28.6066L46.0501 49.1127Z" fill="#FCD491"/>
<circle cx="87.5" cy="84.5" r="39.5" fill="#FCD491"/>
<path d="M74.0176 87.3212C73.584 87.9423 72.9775 88.4081 72.1982 88.7186C71.4248 89.0233 70.5225 89.1757 69.4912 89.1757C68.4482 89.1757 67.5225 88.9325 66.7139 88.4462C65.9053 87.954 65.2783 87.2567 64.833 86.3544C64.3936 85.452 64.168 84.4061 64.1562 83.2167V82.1005C64.1562 80.1727 64.6045 78.6786 65.501 77.618C66.4033 76.5575 67.6689 76.0272 69.2979 76.0272C70.6338 76.0272 71.709 76.37 72.5234 77.0555C73.3379 77.7352 73.8359 78.702 74.0176 79.9559H72.3301C72.0137 78.2626 71.0059 77.4159 69.3066 77.4159C68.1758 77.4159 67.3174 77.8143 66.7314 78.6112C66.1514 79.4022 65.8584 80.5507 65.8525 82.0565V83.1024C65.8525 84.538 66.1807 85.6805 66.8369 86.5302C67.4932 87.3739 68.3809 87.7958 69.5 87.7958C70.1328 87.7958 70.6865 87.7255 71.1611 87.5848C71.6357 87.4442 72.0283 87.2069 72.3389 86.8729V83.9989H69.377V82.6278H74.0176V87.3212ZM86.6826 83.0145C86.6826 84.2684 86.4717 85.3641 86.0498 86.3016C85.6279 87.2333 85.0303 87.9452 84.2568 88.4374C83.4834 88.9296 82.5811 89.1757 81.5498 89.1757C80.542 89.1757 79.6484 88.9296 78.8691 88.4374C78.0898 87.9393 77.4834 87.2333 77.0498 86.3192C76.6221 85.3993 76.4023 84.3358 76.3906 83.1288V82.2059C76.3906 80.9755 76.6045 79.8885 77.0322 78.9452C77.46 78.0018 78.0635 77.2811 78.8428 76.7831C79.6279 76.2792 80.5244 76.0272 81.5322 76.0272C82.5576 76.0272 83.46 76.2762 84.2393 76.7743C85.0244 77.2665 85.6279 77.9843 86.0498 78.9276C86.4717 79.8651 86.6826 80.9579 86.6826 82.2059V83.0145ZM85.0039 82.1884C85.0039 80.6708 84.6992 79.5077 84.0898 78.6991C83.4805 77.8846 82.6279 77.4774 81.5322 77.4774C80.4658 77.4774 79.625 77.8846 79.0098 78.6991C78.4004 79.5077 78.0869 80.6327 78.0693 82.0741V83.0145C78.0693 84.4852 78.377 85.6425 78.9922 86.4862C79.6133 87.3241 80.4658 87.743 81.5498 87.743C82.6396 87.743 83.4834 87.3475 84.0811 86.5565C84.6787 85.7596 84.9863 84.62 85.0039 83.1376V82.1884ZM99.0576 83.0145C99.0576 84.2684 98.8467 85.3641 98.4248 86.3016C98.0029 87.2333 97.4053 87.9452 96.6318 88.4374C95.8584 88.9296 94.9561 89.1757 93.9248 89.1757C92.917 89.1757 92.0234 88.9296 91.2441 88.4374C90.4648 87.9393 89.8584 87.2333 89.4248 86.3192C88.9971 85.3993 88.7773 84.3358 88.7656 83.1288V82.2059C88.7656 80.9755 88.9795 79.8885 89.4072 78.9452C89.835 78.0018 90.4385 77.2811 91.2178 76.7831C92.0029 76.2792 92.8994 76.0272 93.9072 76.0272C94.9326 76.0272 95.835 76.2762 96.6143 76.7743C97.3994 77.2665 98.0029 77.9843 98.4248 78.9276C98.8467 79.8651 99.0576 80.9579 99.0576 82.2059V83.0145ZM97.3789 82.1884C97.3789 80.6708 97.0742 79.5077 96.4648 78.6991C95.8555 77.8846 95.0029 77.4774 93.9072 77.4774C92.8408 77.4774 92 77.8846 91.3848 78.6991C90.7754 79.5077 90.4619 80.6327 90.4443 82.0741V83.0145C90.4443 84.4852 90.752 85.6425 91.3672 86.4862C91.9883 87.3241 92.8408 87.743 93.9248 87.743C95.0146 87.743 95.8584 87.3475 96.4561 86.5565C97.0537 85.7596 97.3613 84.62 97.3789 83.1376V82.1884ZM101.589 88.9999V76.203H105.201C106.314 76.203 107.299 76.4491 108.154 76.9413C109.01 77.4335 109.669 78.1337 110.132 79.0419C110.601 79.9501 110.838 80.993 110.844 82.1708V82.9882C110.844 84.1952 110.609 85.2528 110.141 86.161C109.678 87.0692 109.013 87.7665 108.146 88.2528C107.284 88.7391 106.279 88.9882 105.131 88.9999H101.589ZM103.276 77.5917V87.62H105.052C106.353 87.62 107.363 87.2157 108.084 86.4071C108.811 85.5985 109.174 84.4471 109.174 82.953V82.2059C109.174 80.7528 108.831 79.6249 108.146 78.8221C107.466 78.0135 106.499 77.6034 105.245 77.5917H103.276Z" fill="#262626"/>
</svg>
