<svg width="190" height="175" viewBox="0 0 190 175" fill="none" xmlns="http://www.w3.org/2000/svg">
<path d="M24.7998 104.035C25.1998 102.035 28.6331 99.0352 30.2998 98.0352C31.2998 100.035 31.2998 104.035 29.7999 105.535C27.4281 107.907 24.2998 106.535 24.7998 104.035Z" fill="#D9D9D9" stroke="#979797" stroke-width="2"/>
<path d="M39.7995 31.0351C-2.20026 23.5351 -9.19972 65.0351 18.7999 77.5351C71.2999 79.2018 173.3 77.5351 178.8 77.5351C199.8 59.5351 178.8 49.0351 172.3 49.0351C172.3 27.5351 156.3 19.0351 126.299 27.5351C115.8 2.53513 66.7999 -15.9649 39.7995 31.0351Z" fill="#979797" stroke="#D9D9D9" stroke-width="3"/>
<path d="M95.3 89.0352C92.3002 89.0352 86.3002 94.0354 89.3 97.0352C91.8001 99.5352 98.3001 93.5352 95.3 89.0352Z" fill="#D9D9D9" stroke="#979797" stroke-width="2"/>
<path d="M82.7999 132.535C83.9999 130.535 87.2999 129.368 88.7999 129.035C88.7999 130.868 88.0999 134.935 85.2999 136.535C81.7999 138.535 81.2999 135.035 82.7999 132.535Z" fill="#D9D9D9"/>
<path d="M115.8 163.035C117 161.035 119.967 159.202 121.3 158.535C121.3 160.535 120.8 164.735 118.8 165.535C116.3 166.535 114.3 165.535 115.8 163.035Z" fill="#D9D9D9"/>
<path d="M64.3 170.535C65.1 167.735 68.9667 166.035 70.8 165.535C71.2999 167.035 71.4667 169.535 69.8 172.035C68.8 173.535 63.3 174.035 64.3 170.535Z" fill="#D9D9D9"/>
<path d="M59.2999 105.535C59.6999 103.535 63.4665 101.368 65.2999 100.535C66.2999 102.035 66.7999 105.535 64.3 107.535C63.427 108.234 58.7999 108.035 59.2999 105.535Z" fill="#D9D9D9"/>
<path d="M112.8 112.035C113.2 110.035 116.633 107.535 118.3 106.535C118.8 108.535 118.8 111.035 117.8 113.035C117.3 114.035 112.3 114.535 112.8 112.035Z" fill="#D9D9D9"/>
<path d="M143.8 109.035C144.2 107.435 148.3 104.702 150.3 103.535C151.3 106.035 149.3 110.535 147.3 112.035C146.5 112.635 143.3 111.035 143.8 109.035Z" fill="#D9D9D9"/>
<path d="M82.7999 132.535C83.9999 130.535 87.2999 129.368 88.7999 129.035C88.7999 130.868 88.0999 134.935 85.2999 136.535C81.7999 138.535 81.2999 135.035 82.7999 132.535Z" stroke="#979797" stroke-width="2"/>
<path d="M115.8 163.035C117 161.035 119.967 159.202 121.3 158.535C121.3 160.535 120.8 164.735 118.8 165.535C116.3 166.535 114.3 165.535 115.8 163.035Z" stroke="#979797" stroke-width="2"/>
<path d="M64.3 170.535C65.1 167.735 68.9667 166.035 70.8 165.535C71.2999 167.035 71.4667 169.535 69.8 172.035C68.8 173.535 63.3 174.035 64.3 170.535Z" stroke="#979797" stroke-width="2"/>
<path d="M59.2999 105.535C59.6999 103.535 63.4665 101.368 65.2999 100.535C66.2999 102.035 66.7999 105.535 64.3 107.535C63.427 108.234 58.7999 108.035 59.2999 105.535Z" stroke="#979797" stroke-width="2"/>
<path d="M112.8 112.035C113.2 110.035 116.633 107.535 118.3 106.535C118.8 108.535 118.8 111.035 117.8 113.035C117.3 114.035 112.3 114.535 112.8 112.035Z" stroke="#979797" stroke-width="2"/>
<path d="M143.8 109.035C144.2 107.435 148.3 104.702 150.3 103.535C151.3 106.035 149.3 110.535 147.3 112.035C146.5 112.635 143.3 111.035 143.8 109.035Z" stroke="#979797" stroke-width="2"/>
<path d="M51.7998 137.535C52.1998 135.935 55.2998 133.535 56.7998 132.535C57.1332 134.535 57.3998 138.735 55.7998 139.535C53.7998 140.535 51.2998 139.535 51.7998 137.535Z" fill="#D9D9D9"/>
<path d="M18.7998 155.535C19.9998 153.535 23.6332 151.702 25.2998 151.035C25.2998 153.035 24.8998 157.235 23.2998 158.035C21.2998 159.035 17.2998 158.035 18.7998 155.535Z" fill="#D9D9D9"/>
<path d="M51.7998 137.535C52.1998 135.935 55.2998 133.535 56.7998 132.535C57.1332 134.535 57.3998 138.735 55.7998 139.535C53.7998 140.535 51.2998 139.535 51.7998 137.535Z" stroke="#979797" stroke-width="2"/>
<path d="M18.7998 155.535C19.9998 153.535 23.6332 151.702 25.2998 151.035C25.2998 153.035 24.8998 157.235 23.2998 158.035C21.2998 159.035 17.2998 158.035 18.7998 155.535Z" stroke="#979797" stroke-width="2"/>
</svg>
