<svg width="142" height="82" viewBox="0 0 142 82" fill="none" xmlns="http://www.w3.org/2000/svg">
<g clip-path="url(#clip0)">
<path d="M85.9872 45.5744H3.73307C2.96947 45.5735 2.23739 45.2698 1.69744 44.7298C1.15749 44.1899 0.853765 43.4578 0.852905 42.6942V2.88017C0.853765 2.11656 1.15749 1.38448 1.69744 0.84453C2.23739 0.30458 2.96947 0.000859622 3.73307 0H85.9872C86.7508 0.000859622 87.4829 0.30458 88.0229 0.84453C88.5628 1.38448 88.8665 2.11656 88.8674 2.88017V42.6942C88.8665 43.4578 88.5628 44.1899 88.0229 44.7298C87.4829 45.2698 86.7508 45.5735 85.9872 45.5744ZM3.73307 0.338843C3.0593 0.339605 2.41335 0.607595 1.93693 1.08402C1.4605 1.56045 1.19251 2.2064 1.19175 2.88017V42.6942C1.19251 43.368 1.4605 44.0139 1.93693 44.4904C2.41335 44.9668 3.0593 45.2348 3.73307 45.2355H85.9872C86.661 45.2348 87.3069 44.9668 87.7834 44.4904C88.2598 44.0139 88.5278 43.368 88.5285 42.6942V2.88017C88.5278 2.2064 88.2598 1.56045 87.7834 1.08402C87.3069 0.607595 86.661 0.339605 85.9872 0.338843H3.73307Z" fill="#2967DD"/>
<path d="M16.6515 9.91092C17.4936 9.91092 18.1763 9.22824 18.1763 8.38612C18.1763 7.544 17.4936 6.86133 16.6515 6.86133C15.8094 6.86133 15.1267 7.544 15.1267 8.38612C15.1267 9.22824 15.8094 9.91092 16.6515 9.91092Z" fill="#8A94A5"/>
<path d="M16.6515 15.6707C17.4936 15.6707 18.1763 14.988 18.1763 14.1459C18.1763 13.3038 17.4936 12.6211 16.6515 12.6211C15.8094 12.6211 15.1267 13.3038 15.1267 14.1459C15.1267 14.988 15.8094 15.6707 16.6515 15.6707Z" fill="#8A94A5"/>
<path d="M16.6515 21.4324C17.4936 21.4324 18.1763 20.7497 18.1763 19.9076C18.1763 19.0655 17.4936 18.3828 16.6515 18.3828C15.8094 18.3828 15.1267 19.0655 15.1267 19.9076C15.1267 20.7497 15.8094 21.4324 16.6515 21.4324Z" fill="#8A94A5"/>
<path d="M16.6515 27.1922C17.4936 27.1922 18.1763 26.5095 18.1763 25.6674C18.1763 24.8252 17.4936 24.1426 16.6515 24.1426C15.8094 24.1426 15.1267 24.8252 15.1267 25.6674C15.1267 26.5095 15.8094 27.1922 16.6515 27.1922Z" fill="#8A94A5"/>
<path d="M42.3189 38.7136C43.161 38.7136 43.8436 38.031 43.8436 37.1889C43.8436 36.3467 43.161 35.6641 42.3189 35.6641C41.4767 35.6641 40.7941 36.3467 40.7941 37.1889C40.7941 38.031 41.4767 38.7136 42.3189 38.7136Z" fill="#8A94A5"/>
<path d="M31.3065 38.7136C32.1487 38.7136 32.8313 38.031 32.8313 37.1889C32.8313 36.3467 32.1487 35.6641 31.3065 35.6641C30.4644 35.6641 29.7817 36.3467 29.7817 37.1889C29.7817 38.031 30.4644 38.7136 31.3065 38.7136Z" fill="#8A94A5"/>
<path d="M65.0213 38.7136C65.8634 38.7136 66.546 38.031 66.546 37.1889C66.546 36.3467 65.8634 35.6641 65.0213 35.6641C64.1791 35.6641 63.4965 36.3467 63.4965 37.1889C63.4965 38.031 64.1791 38.7136 65.0213 38.7136Z" fill="#8A94A5"/>
<path d="M53.5006 38.7136C54.3427 38.7136 55.0254 38.031 55.0254 37.1889C55.0254 36.3467 54.3427 35.6641 53.5006 35.6641C52.6585 35.6641 51.9758 36.3467 51.9758 37.1889C51.9758 38.031 52.6585 38.7136 53.5006 38.7136Z" fill="#8A94A5"/>
<path d="M74.4243 8.55564H24.2755C24.2306 8.55564 24.1875 8.53779 24.1557 8.50602C24.1239 8.47424 24.1061 8.43115 24.1061 8.38622C24.1061 8.34129 24.1239 8.2982 24.1557 8.26642C24.1875 8.23465 24.2306 8.2168 24.2755 8.2168H74.4243C74.4692 8.2168 74.5123 8.23465 74.5441 8.26642C74.5758 8.2982 74.5937 8.34129 74.5937 8.38622C74.5937 8.43115 74.5758 8.47424 74.5441 8.50602C74.5123 8.53779 74.4692 8.55564 74.4243 8.55564Z" fill="#8A94A5"/>
<path d="M74.4243 14.3154H24.2755C24.2306 14.3154 24.1875 14.2976 24.1557 14.2658C24.1239 14.234 24.1061 14.1909 24.1061 14.146C24.1061 14.101 24.1239 14.058 24.1557 14.0262C24.1875 13.9944 24.2306 13.9766 24.2755 13.9766H74.4243C74.4692 13.9766 74.5123 13.9944 74.5441 14.0262C74.5758 14.058 74.5937 14.101 74.5937 14.146C74.5937 14.1909 74.5758 14.234 74.5441 14.2658C74.5123 14.2976 74.4692 14.3154 74.4243 14.3154Z" fill="#8A94A5"/>
<path d="M74.4243 20.0771H24.2755C24.2306 20.0771 24.1875 20.0593 24.1557 20.0275C24.1239 19.9957 24.1061 19.9526 24.1061 19.9077C24.1061 19.8628 24.1239 19.8197 24.1557 19.7879C24.1875 19.7561 24.2306 19.7383 24.2755 19.7383H74.4243C74.4692 19.7383 74.5123 19.7561 74.5441 19.7879C74.5758 19.8197 74.5937 19.8628 74.5937 19.9077C74.5937 19.9526 74.5758 19.9957 74.5441 20.0275C74.5123 20.0593 74.4692 20.0771 74.4243 20.0771Z" fill="#8A94A5"/>
<path d="M74.4243 25.8369H24.2755C24.2306 25.8369 24.1875 25.819 24.1557 25.7873C24.1239 25.7555 24.1061 25.7124 24.1061 25.6675C24.1061 25.6225 24.1239 25.5794 24.1557 25.5477C24.1875 25.5159 24.2306 25.498 24.2755 25.498H74.4243C74.4692 25.498 74.5123 25.5159 74.5441 25.5477C74.5758 25.5794 74.5937 25.6225 74.5937 25.6675C74.5937 25.7124 74.5758 25.7555 74.5441 25.7873C74.5123 25.819 74.4692 25.8369 74.4243 25.8369Z" fill="#8A94A5"/>
<path d="M33.763 31.5967H28.8498C28.6252 31.5964 28.4099 31.5071 28.2511 31.3483C28.0923 31.1895 28.0029 30.9742 28.0027 30.7496V26.1752C28.0029 25.9506 28.0923 25.7353 28.2511 25.5765C28.4099 25.4177 28.6252 25.3284 28.8498 25.3281H33.763C33.9876 25.3284 34.2029 25.4177 34.3617 25.5765C34.5205 25.7353 34.6099 25.9506 34.6101 26.1752V30.7496C34.6099 30.9742 34.5205 31.1895 34.3617 31.3483C34.2029 31.5071 33.9876 31.5964 33.763 31.5967Z" fill="#404040"/>
<path d="M44.7755 31.5973H39.8622C39.6377 31.597 39.4223 31.5077 39.2635 31.3489C39.1047 31.1901 39.0154 30.9748 39.0151 30.7502V20.4155C39.0154 20.1909 39.1047 19.9756 39.2635 19.8168C39.4223 19.6579 39.6377 19.5686 39.8622 19.5684H44.7755C45.0001 19.5686 45.2154 19.6579 45.3742 19.8168C45.533 19.9756 45.6223 20.1909 45.6226 20.4155V30.7502C45.6223 30.9748 45.533 31.1901 45.3742 31.3489C45.2154 31.5077 45.0001 31.597 44.7755 31.5973Z" fill="#404040"/>
<path d="M55.9572 31.5979H51.044C50.8194 31.5976 50.6041 31.5083 50.4453 31.3495C50.2865 31.1907 50.1972 30.9753 50.1969 30.7508V14.6557C50.1972 14.4311 50.2865 14.2158 50.4453 14.057C50.6041 13.8982 50.8194 13.8089 51.044 13.8086H55.9572C56.1818 13.8089 56.3971 13.8982 56.5559 14.057C56.7147 14.2158 56.8041 14.4311 56.8043 14.6557V30.7508C56.8041 30.9753 56.7147 31.1907 56.5559 31.3495C56.3971 31.5083 56.1818 31.5976 55.9572 31.5979Z" fill="#404040"/>
<path d="M67.4779 31.597H62.5646C62.3401 31.5967 62.1247 31.5074 61.9659 31.3486C61.8071 31.1898 61.7178 30.9745 61.7175 30.7499V9.0639C61.7178 8.83932 61.8071 8.624 61.9659 8.4652C62.1247 8.30639 62.3401 8.21705 62.5646 8.2168H67.4779C67.7025 8.21705 67.9178 8.30639 68.0766 8.4652C68.2354 8.624 68.3247 8.83932 68.325 9.0639V30.7499C68.3247 30.9745 68.2354 31.1898 68.0766 31.3486C67.9178 31.5074 67.7025 31.5967 67.4779 31.597Z" fill="#404040"/>
<path d="M113.256 81.0416C111.733 79.7542 110.807 77.7205 111.05 75.7407C111.293 73.7609 112.796 71.9409 114.745 71.5205C116.695 71.1 118.918 72.2638 119.51 74.1685C119.836 70.4964 120.212 66.6704 122.164 63.5432C123.932 60.7117 126.994 58.6856 130.312 58.3231C133.63 57.9606 137.124 59.3296 139.194 61.9488C141.263 64.5679 141.77 68.3756 140.32 71.3826C139.253 73.5977 137.286 75.2462 135.224 76.5874C128.564 80.8847 120.576 82.6322 112.73 81.5085L113.256 81.0416Z" fill="white"/>
<path d="M113.256 81.0416C111.733 79.7542 110.807 77.7205 111.05 75.7407C111.293 73.7609 112.796 71.9409 114.745 71.5205C116.695 71.1 118.918 72.2638 119.51 74.1685C119.836 70.4964 120.212 66.6704 122.164 63.5432C123.932 60.7117 126.994 58.6856 130.312 58.3231C133.63 57.9606 137.124 59.3296 139.194 61.9488C141.263 64.5679 141.77 68.3756 140.32 71.3826C139.253 73.5977 137.286 75.2462 135.224 76.5874C128.564 80.8847 120.576 82.6322 112.73 81.5085L113.256 81.0416Z" fill="#37B57E" fill-opacity="0.6"/>
<path d="M135.912 59.4055C133.174 61.6357 130.662 64.13 128.413 66.8523C124.893 71.0981 122.044 75.8585 119.966 80.9675C119.814 81.3402 120.419 81.5024 120.57 81.1339C123.969 72.8306 129.397 65.5123 136.355 59.8481C136.667 59.5937 136.222 59.1532 135.912 59.4055Z" fill="white"/>
<path d="M97.1878 34.4024C96.9952 34.4019 96.803 34.3827 96.6142 34.3449H96.6141C96.5796 34.338 96.5451 34.3306 96.5106 34.3227L55.0197 24.6623C54.5691 24.5573 54.2697 24.2738 54.3234 24.0028C54.346 23.9229 54.3902 23.8509 54.4512 23.7947C54.5121 23.7384 54.5875 23.7 54.6688 23.6838C54.8691 23.6286 55.0799 23.624 55.2825 23.6702L97.031 32.389C97.971 32.5852 98.6236 33.1621 98.5166 33.7022C98.4606 33.9849 98.2117 34.204 97.8157 34.3194C97.6113 34.3763 97.3999 34.4043 97.1878 34.4024Z" fill="#37B57E"/>
<path d="M88.3983 33.0649C88.613 33.1911 88.8528 33.2687 89.1008 33.2922C89.3487 33.3157 89.5988 33.2846 89.8334 33.201C90.068 33.1174 90.2815 32.9834 90.4587 32.8084C90.6359 32.6334 90.7726 32.4216 90.8591 32.1881L96.9121 32.3143L95.2352 29.6523L89.7443 29.9406C89.3423 29.8212 88.9105 29.8535 88.5307 30.0312C88.1509 30.2089 87.8495 30.5198 87.6836 30.9049C87.5177 31.29 87.4988 31.7226 87.6305 32.1207C87.7623 32.5188 88.0354 32.8548 88.3983 33.0649V33.0649Z" fill="#FDB797"/>
<path d="M91.0275 32.098L90.996 30.2427C90.9937 30.0512 91.0632 29.8658 91.1907 29.723C91.3182 29.5802 91.4946 29.4902 91.6851 29.4709L102.562 28.4212L111.625 25.4499C111.898 25.3602 112.187 25.3258 112.474 25.3487C112.761 25.3715 113.04 25.4512 113.296 25.583C113.552 25.7149 113.779 25.8963 113.964 26.1167C114.149 26.3371 114.289 26.5921 114.375 26.8669C114.46 27.1417 114.49 27.4308 114.463 27.7174C114.436 28.004 114.353 28.2824 114.217 28.5363C114.082 28.7903 113.897 29.0147 113.674 29.1966C113.451 29.3786 113.194 29.5143 112.918 29.596L102.887 32.566L91.809 32.8473C91.6415 32.8514 91.4774 32.8003 91.3418 32.7019C91.2062 32.6036 91.1068 32.4634 91.0587 32.3029C91.0391 32.2364 91.0286 32.1674 91.0275 32.098Z" fill="#2967DD"/>
<path d="M107.124 79.9298L105.047 79.9296L104.059 71.918L107.124 71.9181L107.124 79.9298Z" fill="#FDB797"/>
<path d="M107.654 81.9436L100.956 81.9434V81.8587C100.956 81.5164 101.024 81.1774 101.155 80.8611C101.286 80.5449 101.478 80.2575 101.72 80.0154C101.962 79.7734 102.249 79.5814 102.566 79.4504C102.882 79.3194 103.221 79.2519 103.563 79.252H103.563L107.654 79.2521L107.654 81.9436Z" fill="#2D3E5E"/>
<path d="M113.223 79.9298L111.146 79.9296L110.158 71.918L113.223 71.9181L113.223 79.9298Z" fill="#FDB797"/>
<path d="M113.753 81.9436L107.056 81.9434V81.8587C107.056 81.5164 107.123 81.1774 107.254 80.8611C107.385 80.5449 107.577 80.2575 107.819 80.0154C108.061 79.7734 108.348 79.5814 108.665 79.4504C108.981 79.3194 109.32 79.2519 109.662 79.252H109.662L113.753 79.2521L113.753 81.9436Z" fill="#2D3E5E"/>
<path d="M114.617 47.552L114.121 76.9795C114.12 77.0727 114.099 77.1646 114.06 77.2494C114.021 77.3342 113.966 77.4101 113.896 77.4724C113.827 77.5346 113.745 77.5819 113.657 77.6113C113.569 77.6406 113.475 77.6514 113.382 77.643L110.952 77.4221C110.792 77.4076 110.643 77.3371 110.531 77.2231C110.418 77.1092 110.35 76.9591 110.337 76.7995L108.914 58.4435C108.911 58.4004 108.891 58.3602 108.859 58.3311C108.827 58.3021 108.785 58.2864 108.742 58.2872C108.699 58.2881 108.658 58.3054 108.627 58.3357C108.596 58.366 108.578 58.407 108.576 58.4502L107.865 77.2265C107.858 77.4016 107.784 77.5674 107.658 77.689C107.532 77.8106 107.363 77.8785 107.188 77.8785H104.581C104.409 77.8785 104.242 77.8126 104.117 77.6944C103.991 77.5761 103.915 77.4144 103.905 77.2421L102.08 47.3826L112.923 44.6719L114.617 47.552Z" fill="#2D3E5E"/>
<path d="M106.752 19.92C109.051 19.92 110.914 18.057 110.914 15.7588C110.914 13.4607 109.051 11.5977 106.752 11.5977C104.454 11.5977 102.591 13.4607 102.591 15.7588C102.591 18.057 104.454 19.92 106.752 19.92Z" fill="#FDB797"/>
<path d="M101.709 48.4287C101.636 48.3591 101.579 48.2758 101.539 48.1838C101.5 48.0917 101.479 47.9927 101.477 47.8925L101.197 27.8258C101.18 26.805 101.487 25.8051 102.074 24.9698C102.661 24.1345 103.497 23.5067 104.464 23.1766C104.853 21.408 106.928 21.1864 108.138 21.2129C108.44 21.2194 108.736 21.2986 109 21.4438C109.265 21.589 109.491 21.7959 109.659 22.0469L110.526 23.3475L112.437 24.4678C113.321 24.984 114.019 25.7679 114.429 26.7062C114.839 27.6446 114.941 28.689 114.719 29.6888L114.425 31.0271C113.389 35.764 113.487 40.6788 114.713 45.3703L115.305 47.6278C115.336 47.7453 115.338 47.8686 115.311 47.9872C115.285 48.1058 115.23 48.2164 115.153 48.3097C115.075 48.403 114.976 48.4763 114.864 48.5236C114.752 48.5708 114.63 48.5906 114.509 48.5812L113.821 48.5283C113.643 48.5148 113.475 48.4388 113.347 48.3137C113.218 48.1885 113.139 48.0223 113.121 47.8442L113.007 46.7062C113.005 46.6853 112.995 46.6659 112.98 46.6518C112.964 46.6377 112.944 46.6299 112.923 46.6299C112.902 46.6299 112.882 46.6377 112.866 46.6518C112.85 46.6659 112.841 46.6853 112.839 46.7062L112.728 47.8079C112.71 47.9941 112.623 48.1668 112.486 48.2934C112.348 48.42 112.169 48.4915 111.982 48.4944L102.251 48.6441C102.247 48.6441 102.243 48.6443 102.239 48.6443C102.041 48.6447 101.85 48.5673 101.709 48.4287Z" fill="#2967DD"/>
<path d="M107.078 18.1567C107.095 18.7449 107.503 19.0852 108.005 19.3933C108.506 19.7014 109.092 19.835 109.666 19.9639C109.743 20.0049 109.83 20.0253 109.917 20.0231C110.004 20.021 110.09 19.9964 110.165 19.9517C110.24 19.907 110.302 19.8437 110.345 19.768C110.389 19.6922 110.412 19.6066 110.413 19.5193L110.939 17.5161C111.126 16.8763 111.261 16.2227 111.345 15.5615C111.471 14.2893 111.17 12.9207 110.282 12.0009C109.394 11.0811 107.854 10.7543 106.79 11.463C105.527 9.85017 99.755 13.4136 101.179 14.5351C101.432 14.7346 101.819 14.4822 102.141 14.4577C102.462 14.4332 102.823 14.4898 103.027 14.7393C103.294 15.0653 103.178 15.5509 103.288 15.9576C103.333 16.1007 103.406 16.2334 103.503 16.348C103.6 16.4626 103.719 16.5568 103.853 16.6253C103.986 16.6938 104.132 16.7351 104.282 16.747C104.432 16.7588 104.582 16.7409 104.725 16.6943C104.991 16.5633 105.241 16.4025 105.47 16.2151C105.717 16.0508 106.029 15.9294 106.306 16.033C106.672 16.1696 106.802 16.6176 106.835 17.0068C106.891 17.395 106.972 17.7791 107.078 18.1567Z" fill="#2D3E5E"/>
<path d="M137.903 82.001H73.3536C73.3087 82.001 73.2656 81.9831 73.2338 81.9513C73.202 81.9196 73.1842 81.8765 73.1842 81.8315C73.1842 81.7866 73.202 81.7435 73.2338 81.7117C73.2656 81.68 73.3087 81.6621 73.3536 81.6621H137.903C137.948 81.6621 137.991 81.68 138.023 81.7117C138.055 81.7435 138.073 81.7866 138.073 81.8315C138.073 81.8765 138.055 81.9196 138.023 81.9513C137.991 81.9831 137.948 82.001 137.903 82.001Z" fill="#8A94A5"/>
<path opacity="0.2" d="M106.106 29.3086L105.428 37.6102L101.87 46.2507L107.123 37.7797L106.106 29.3086Z" fill="#404040"/>
<path d="M101.038 49.4699C101.233 49.314 101.39 49.1174 101.5 48.8939C101.61 48.6705 101.67 48.4256 101.675 48.1766C101.68 47.9276 101.631 47.6805 101.53 47.4527C101.429 47.2249 101.28 47.0219 101.092 46.8581L103.359 41.2441L100.275 41.8669L98.5954 47.1025C98.3411 47.436 98.218 47.8511 98.2493 48.2693C98.2806 48.6874 98.4643 49.0795 98.7654 49.3714C99.0665 49.6632 99.4643 49.8344 99.8832 49.8525C100.302 49.8707 100.713 49.7346 101.038 49.4699V49.4699Z" fill="#FDB797"/>
<path d="M100.873 46.9943L99.1278 46.3651C98.948 46.2993 98.7993 46.1686 98.711 45.9987C98.6228 45.8287 98.6013 45.6319 98.6509 45.4469L101.531 34.9056L101.97 25.3786C101.983 25.091 102.053 24.809 102.176 24.5488C102.3 24.2887 102.473 24.0556 102.687 23.8632C102.902 23.6707 103.152 23.5228 103.424 23.4279C103.695 23.3331 103.983 23.2932 104.271 23.3106C104.558 23.328 104.839 23.4024 105.097 23.5294C105.356 23.6564 105.586 23.8335 105.775 24.0504C105.965 24.2672 106.109 24.5196 106.2 24.7927C106.291 25.0659 106.326 25.3544 106.305 25.6414L105.521 36.0733L101.851 46.5297C101.796 46.6877 101.69 46.823 101.55 46.9148C101.41 47.0066 101.243 47.0499 101.076 47.0379C101.007 47.0326 100.939 47.0179 100.873 46.9943Z" fill="#2967DD"/>
<path d="M74.4243 31.5967H24.2755C24.2306 31.5967 24.1875 31.5788 24.1557 31.547C24.1239 31.5153 24.1061 31.4722 24.1061 31.4272C24.1061 31.3823 24.1239 31.3392 24.1557 31.3074C24.1875 31.2757 24.2306 31.2578 24.2755 31.2578H74.4243C74.4692 31.2578 74.5123 31.2757 74.5441 31.3074C74.5758 31.3392 74.5937 31.3823 74.5937 31.4272C74.5937 31.4722 74.5758 31.5153 74.5441 31.547C74.5123 31.5788 74.4692 31.5967 74.4243 31.5967Z" fill="#2967DD"/>
</g>
<defs>
<clipPath id="clip0">
<rect width="140.294" height="82" fill="white" transform="translate(0.852905)"/>
</clipPath>
</defs>
</svg>
