<svg width="124" height="82" viewBox="0 0 124 82" fill="none" xmlns="http://www.w3.org/2000/svg">
<g clip-path="url(#clip0)">
<path d="M101.286 49.0937C101.367 49.0696 101.449 49.0519 101.533 49.0408L104.877 42.2461L103.856 40.7157L105.965 38.873L108.615 42.1164L103.217 49.9725C103.35 50.2697 103.389 50.6002 103.329 50.9201C103.27 51.2401 103.114 51.5343 102.883 51.7636C102.652 51.993 102.357 52.1466 102.037 52.2041C101.716 52.2615 101.386 52.2201 101.09 52.0853C100.794 51.9506 100.546 51.7288 100.378 51.4495C100.211 51.1702 100.133 50.8467 100.154 50.522C100.176 50.1972 100.295 49.8866 100.497 49.6315C100.699 49.3764 100.974 49.1888 101.286 49.0937V49.0937Z" fill="#FDB797"/>
<path d="M106.994 39.8117C106.948 39.8597 106.896 39.9009 106.839 39.934L103.417 41.9174C103.335 41.9651 103.244 41.9952 103.15 42.0058C103.055 42.0164 102.959 42.0073 102.869 41.9791C102.778 41.9509 102.694 41.9041 102.622 41.8418C102.551 41.7794 102.492 41.7029 102.452 41.6169L100.788 38.1014C100.717 37.9534 100.702 37.785 100.745 37.6267C100.788 37.4685 100.886 37.331 101.023 37.2394L103.143 35.7966C103.276 35.7066 103.436 35.6657 103.595 35.6808C103.754 35.696 103.903 35.7663 104.017 35.8797L106.981 38.8545C107.107 38.9811 107.179 39.1518 107.181 39.3305C107.184 39.5091 107.117 39.6817 106.994 39.8117H106.994Z" fill="#8A94A5"/>
<path d="M111.798 78.7469L109.991 79.2384L107.236 72.5048L109.902 71.7793L111.798 78.7469Z" fill="#FDB797"/>
<path d="M108.561 79.0731L112.045 78.1253L112.641 80.3187L106.964 81.8634C106.886 81.5753 106.865 81.2747 106.903 80.9786C106.941 80.6824 107.036 80.3967 107.185 80.1376C107.333 79.8785 107.531 79.6511 107.767 79.4685C108.003 79.2858 108.273 79.1515 108.561 79.0731Z" fill="#2F2E41"/>
<path d="M96.3552 80.1234L94.4832 80.1232L93.5925 72.9023L96.3555 72.9025L96.3552 80.1234Z" fill="#FDB797"/>
<path d="M93.146 79.5898H96.7565V81.8631H90.8728C90.8728 81.5645 90.9316 81.2689 91.0458 80.9931C91.1601 80.7173 91.3275 80.4667 91.5386 80.2557C91.7497 80.0446 92.0003 79.8771 92.2761 79.7629C92.5519 79.6486 92.8475 79.5898 93.146 79.5898Z" fill="#2F2E41"/>
<path d="M98.3276 33.3994C100.399 33.3994 102.078 31.7202 102.078 29.6489C102.078 27.5776 100.399 25.8984 98.3276 25.8984C96.2563 25.8984 94.5771 27.5776 94.5771 29.6489C94.5771 31.7202 96.2563 33.3994 98.3276 33.3994Z" fill="#FDB797"/>
<path d="M96.2407 74.9755H93.6824C93.5075 74.9752 93.3393 74.9084 93.2118 74.7887C93.0843 74.669 93.0072 74.5053 92.9959 74.3307C92.2336 62.2123 92.6795 53.5194 94.3992 46.974C94.4067 46.9454 94.416 46.9173 94.427 46.8898L94.564 46.5472C94.6147 46.4195 94.7026 46.3099 94.8164 46.2328C94.9302 46.1558 95.0646 46.1148 95.2021 46.1152H100.463C100.562 46.1152 100.66 46.1366 100.75 46.178C100.84 46.2194 100.92 46.2799 100.985 46.3552L101.699 47.1889C101.713 47.2052 101.726 47.2217 101.739 47.2392C104.961 51.7325 107.848 60.5171 111.193 72.3245C111.242 72.4961 111.223 72.6802 111.138 72.8375C111.054 72.9949 110.911 73.113 110.741 73.1669L107.992 74.0467C107.834 74.0964 107.663 74.0877 107.511 74.0224C107.359 73.957 107.236 73.8393 107.163 73.6906L100.029 58.8928C99.9788 58.7894 99.8969 58.7048 99.7952 58.6515C99.6935 58.5983 99.5773 58.5792 99.4639 58.5971C99.3505 58.615 99.2459 58.669 99.1655 58.751C99.0852 58.8331 99.0334 58.9388 99.0178 59.0525L96.9215 74.3814C96.8985 74.5458 96.817 74.6964 96.6919 74.8055C96.5669 74.9146 96.4066 74.975 96.2407 74.9755Z" fill="#2F2E41"/>
<path d="M101.411 47.25C101.403 47.25 101.396 47.2498 101.389 47.2497L94.9988 47.0479C94.8345 47.0433 94.6774 46.9798 94.556 46.8689C94.4347 46.7581 94.3572 46.6073 94.3378 46.4441C93.5278 39.887 95.7494 38.1303 96.7422 37.6795C96.8252 37.6421 96.897 37.5838 96.9509 37.5105C97.0047 37.4371 97.0387 37.351 97.0495 37.2606L97.1354 36.5733C97.15 36.452 97.1969 36.3367 97.2711 36.2396C98.8277 34.2232 100.953 33.5775 102.082 33.3721C102.173 33.3557 102.267 33.358 102.358 33.379C102.448 33.4 102.534 33.4391 102.609 33.4941C102.684 33.5491 102.747 33.6187 102.794 33.6988C102.841 33.7789 102.872 33.8678 102.883 33.96L103.012 34.9469C103.025 35.041 103.063 35.1301 103.121 35.2051C106.367 39.449 102.751 45.7151 101.993 46.928C101.931 47.0265 101.845 47.1077 101.743 47.164C101.641 47.2203 101.527 47.2499 101.411 47.25Z" fill="#8A94A5"/>
<path d="M105.894 30.0716C105.058 28.8936 104.054 27.8432 102.916 26.9535C101.969 26.2142 100.916 25.5825 99.7536 25.2804C98.5912 24.9783 97.3076 25.0297 96.2471 25.5933C95.1865 26.1569 94.0901 27.2768 94.0834 28.4777C94.0813 28.8636 94.1794 29.3855 94.5594 29.3188L94.6693 29.3334C95.5859 29.1482 96.5024 28.9631 97.4189 28.778C97.8093 30.1327 98.1997 31.4875 98.5901 32.8422C98.6724 33.1277 98.7827 33.447 99.0538 33.5688C99.3091 33.6835 99.6042 33.5754 99.8624 33.4676C99.9049 33.4498 100.27 32.6306 100.27 32.6306C100.279 32.605 100.295 32.5823 100.316 32.5648C100.337 32.5474 100.362 32.5358 100.389 32.5313C100.415 32.5268 100.443 32.5296 100.468 32.5393C100.494 32.549 100.516 32.5653 100.533 32.5865L100.75 32.8575C100.791 32.9093 100.848 32.9462 100.913 32.9626C100.977 32.979 101.045 32.9741 101.106 32.9485C102.601 32.3246 104.095 31.7006 105.59 31.0766C105.797 30.9904 106.027 30.8778 106.087 30.6621C106.145 30.4555 106.018 30.2465 105.894 30.0716Z" fill="#2F2E41"/>
<path d="M123.076 82.0007H77.1138C77.0733 82.0007 77.0344 81.9846 77.0058 81.956C76.9771 81.9274 76.9611 81.8885 76.9611 81.848C76.9611 81.8075 76.9771 81.7687 77.0058 81.74C77.0344 81.7114 77.0733 81.6953 77.1138 81.6953H123.076C123.117 81.6953 123.156 81.7114 123.184 81.74C123.213 81.7687 123.229 81.8075 123.229 81.848C123.229 81.8885 123.213 81.9274 123.184 81.956C123.156 81.9846 123.117 82.0007 123.076 82.0007Z" fill="#404040"/>
<path d="M98.1584 58.2035C98.0546 58.2031 97.9536 58.1697 97.87 58.108L97.1749 57.603C97.1172 57.5609 97.0477 57.5382 96.9763 57.5382C96.9048 57.5382 96.8353 57.5609 96.7776 57.603L96.0825 58.108C95.9987 58.1689 95.8977 58.2017 95.7941 58.2017C95.6905 58.2017 95.5895 58.1689 95.5057 58.108C95.4219 58.0471 95.3595 57.9613 95.3274 57.8627C95.2954 57.7642 95.2954 57.658 95.3274 57.5595L95.5929 56.7424C95.6151 56.6745 95.6152 56.6013 95.5931 56.5334C95.571 56.4655 95.528 56.4063 95.4701 56.3645L94.775 55.8594C94.6912 55.7985 94.6288 55.7126 94.5968 55.6141C94.5647 55.5155 94.5648 55.4094 94.5968 55.3108C94.6288 55.2123 94.6912 55.1264 94.775 55.0655C94.8589 55.0046 94.9598 54.9718 95.0634 54.9718H95.9226C95.994 54.9719 96.0636 54.9494 96.1214 54.9074C96.1792 54.8654 96.2221 54.8062 96.2441 54.7382L96.5096 53.9211C96.5416 53.8226 96.604 53.7367 96.6878 53.6758C96.7716 53.6148 96.8726 53.582 96.9762 53.582C97.0799 53.582 97.1808 53.6148 97.2647 53.6758C97.3485 53.7367 97.4109 53.8226 97.4429 53.9211L97.7084 54.7382C97.7304 54.8062 97.7733 54.8654 97.8311 54.9074C97.8889 54.9494 97.9585 54.9719 98.0299 54.9718H98.889C98.9927 54.9718 99.0936 55.0046 99.1774 55.0655C99.2613 55.1264 99.3237 55.2123 99.3557 55.3108C99.3877 55.4094 99.3877 55.5155 99.3557 55.6141C99.3237 55.7126 99.2613 55.7985 99.1775 55.8594L98.4824 56.3644C98.4245 56.4063 98.3815 56.4655 98.3594 56.5334C98.3373 56.6013 98.3374 56.6745 98.3596 56.7424L98.6251 57.5595C98.6583 57.6579 98.6589 57.7644 98.6268 57.8632C98.5947 57.9621 98.5316 58.0479 98.4468 58.108C98.3633 58.1697 98.2623 58.2031 98.1584 58.2035Z" fill="#404040"/>
<path d="M100.815 56.5708C101.011 56.4331 101.175 56.254 101.294 56.0462C101.414 55.8384 101.487 55.6068 101.507 55.3679C101.528 55.1289 101.496 54.8884 101.413 54.6632C101.33 54.4381 101.2 54.2337 101.03 54.0646L102.216 39.7305L98.6824 40.2167L98.6152 54.1436C98.35 54.4481 98.2058 54.8393 98.2098 55.243C98.2138 55.6468 98.3658 56.035 98.6369 56.3342C98.908 56.6334 99.2795 56.8227 99.6809 56.8663C100.082 56.91 100.486 56.8048 100.815 56.5708Z" fill="#FDB797"/>
<path d="M102.447 41.794C102.381 41.7939 102.315 41.7844 102.252 41.7656L98.458 40.6497C98.3668 40.6229 98.2822 40.5775 98.2094 40.5163C98.1367 40.4551 98.0774 40.3795 98.0354 40.2942C97.9934 40.2089 97.9696 40.1159 97.9654 40.0209C97.9612 39.9259 97.9768 39.8311 98.0111 39.7425L99.4151 36.1153C99.4737 35.9621 99.5854 35.835 99.7298 35.7573C99.8743 35.6796 100.042 35.6565 100.202 35.6921L102.708 36.237C102.865 36.271 103.005 36.3587 103.103 36.4847C103.202 36.6108 103.254 36.7673 103.249 36.9274L103.133 41.1254C103.128 41.3041 103.053 41.4737 102.926 41.5985C102.798 41.7233 102.626 41.7934 102.447 41.794H102.447Z" fill="#8A94A5"/>
<path d="M66.7374 59.7065H1.83978C1.55638 59.7062 1.28469 59.5934 1.0843 59.3931C0.88391 59.1927 0.771192 58.921 0.770874 58.6376V39.2447C0.771192 38.9613 0.88391 38.6896 1.0843 38.4892C1.28469 38.2888 1.55638 38.1761 1.83978 38.1758H66.7374C67.0208 38.1761 67.2925 38.2888 67.4929 38.4892C67.6933 38.6896 67.806 38.9613 67.8063 39.2447V58.6376C67.806 58.921 67.6933 59.1927 67.4929 59.3931C67.2925 59.5934 67.0208 59.7062 66.7374 59.7065ZM1.83978 38.4812C1.63735 38.4814 1.44329 38.5619 1.30016 38.7051C1.15703 38.8482 1.07651 39.0423 1.07627 39.2447V58.6376C1.07651 58.84 1.15703 59.0341 1.30016 59.1772C1.44329 59.3203 1.63735 59.4008 1.83978 59.4011H66.7374C66.9398 59.4009 67.1339 59.3203 67.277 59.1772C67.4202 59.0341 67.5007 58.84 67.5009 58.6376V39.2447C67.5007 39.0423 67.4202 38.8482 67.277 38.7051C67.1339 38.5619 66.9398 38.4814 66.7374 38.4812H1.83978Z" fill="#404040"/>
<path d="M30.2382 67.8706C30.111 67.8701 29.9872 67.8291 29.8848 67.7536L29.0333 67.1349C28.9627 67.0833 28.8775 67.0555 28.79 67.0555C28.7025 67.0555 28.6173 67.0833 28.5466 67.1349L27.6951 67.7536C27.5924 67.8282 27.4687 67.8684 27.3418 67.8684C27.2148 67.8684 27.0912 67.8282 26.9885 67.7536C26.8858 67.679 26.8093 67.5738 26.7701 67.4531C26.7308 67.3323 26.7308 67.2023 26.77 67.0816L27.0953 66.0806C27.1225 65.9974 27.1226 65.9078 27.0955 65.8245C27.0685 65.7413 27.0158 65.6689 26.9449 65.6175L26.0934 64.9989C25.9907 64.9243 25.9142 64.8191 25.875 64.6984C25.8358 64.5776 25.8358 64.4476 25.875 64.3268C25.9142 64.2061 25.9907 64.1009 26.0934 64.0263C26.1961 63.9517 26.3197 63.9115 26.4467 63.9115H27.4993C27.5867 63.9116 27.672 63.884 27.7428 63.8326C27.8135 63.7812 27.8661 63.7086 27.893 63.6254L28.2182 62.6244C28.2575 62.5037 28.3339 62.3984 28.4366 62.3238C28.5393 62.2492 28.663 62.209 28.79 62.209C28.9169 62.209 29.0406 62.2492 29.1433 62.3238C29.246 62.3984 29.3225 62.5037 29.3617 62.6244L29.6869 63.6254C29.7138 63.7086 29.7664 63.7812 29.8372 63.8326C29.9079 63.884 29.9932 63.9116 30.0807 63.9115H31.1332C31.2602 63.9115 31.3839 63.9517 31.4866 64.0263C31.5892 64.1009 31.6657 64.2061 31.7049 64.3269C31.7441 64.4476 31.7441 64.5776 31.7049 64.6984C31.6657 64.8191 31.5892 64.9243 31.4865 64.9989L30.635 65.6175C30.5642 65.6689 30.5114 65.7413 30.4844 65.8245C30.4573 65.9078 30.4574 65.9974 30.4846 66.0806L30.8099 67.0816C30.8506 67.2022 30.8513 67.3327 30.8119 67.4537C30.7726 67.5748 30.6953 67.6799 30.5915 67.7536C30.4891 67.8291 30.3654 67.87 30.2382 67.8706Z" fill="#37B57E"/>
<path d="M38.867 67.8706C38.7398 67.8701 38.6161 67.8291 38.5137 67.7536L37.6622 67.1349C37.5915 67.0833 37.5063 67.0555 37.4188 67.0555C37.3313 67.0555 37.2461 67.0833 37.1755 67.1349L36.3239 67.7536C36.2212 67.8282 36.0976 67.8684 35.9706 67.8684C35.8437 67.8684 35.72 67.8282 35.6173 67.7536C35.5146 67.679 35.4382 67.5738 35.3989 67.4531C35.3597 67.3323 35.3597 67.2023 35.3989 67.0816L35.7242 66.0806C35.7513 65.9974 35.7514 65.9078 35.7244 65.8245C35.6974 65.7413 35.6446 65.6689 35.5738 65.6175L34.7222 64.9989C34.6196 64.9243 34.5431 64.8191 34.5039 64.6983C34.4647 64.5776 34.4647 64.4476 34.5039 64.3268C34.5431 64.2061 34.6196 64.1009 34.7223 64.0263C34.825 63.9517 34.9486 63.9115 35.0756 63.9115H36.1281C36.2156 63.9116 36.3008 63.884 36.3716 63.8326C36.4424 63.7812 36.495 63.7086 36.5219 63.6254L36.8471 62.6244C36.8863 62.5037 36.9628 62.3984 37.0655 62.3238C37.1682 62.2492 37.2919 62.209 37.4188 62.209C37.5458 62.209 37.6695 62.2492 37.7722 62.3238C37.8749 62.3984 37.9513 62.5037 37.9905 62.6244L38.3157 63.6254C38.3426 63.7087 38.3953 63.7812 38.466 63.8326C38.5368 63.884 38.6221 63.9117 38.7096 63.9115H39.7621C39.889 63.9115 40.0127 63.9517 40.1154 64.0263C40.2181 64.1009 40.2945 64.2061 40.3337 64.3268C40.373 64.4476 40.373 64.5776 40.3338 64.6983C40.2945 64.8191 40.2181 64.9243 40.1154 64.9989L39.2639 65.6175C39.193 65.6688 39.1403 65.7413 39.1132 65.8245C39.0862 65.9077 39.0863 65.9974 39.1135 66.0806L39.4387 67.0816C39.4794 67.2022 39.4801 67.3327 39.4408 67.4537C39.4014 67.5748 39.3241 67.6799 39.2203 67.7536C39.118 67.8291 38.9942 67.87 38.867 67.8706Z" fill="#37B57E"/>
<path d="M47.4959 67.8706C47.3687 67.87 47.245 67.8291 47.1426 67.7536L46.2911 67.1349C46.2204 67.0834 46.1352 67.0557 46.0477 67.0557C45.9603 67.0557 45.8751 67.0834 45.8044 67.1349L44.9528 67.7536C44.8502 67.8282 44.7265 67.8684 44.5995 67.8684C44.4726 67.8684 44.3489 67.8282 44.2462 67.7536C44.1435 67.679 44.0671 67.5738 44.0279 67.4531C43.9886 67.3323 43.9886 67.2023 44.0278 67.0816L44.3531 66.0806C44.3803 65.9974 44.3803 65.9078 44.3533 65.8245C44.3263 65.7413 44.2735 65.6689 44.2027 65.6175L43.3511 64.9989C43.2485 64.9243 43.172 64.8191 43.1328 64.6983C43.0936 64.5776 43.0936 64.4476 43.1328 64.3268C43.172 64.2061 43.2485 64.1009 43.3512 64.0263C43.4539 63.9517 43.5776 63.9115 43.7045 63.9115H44.757C44.8445 63.9116 44.9297 63.884 45.0005 63.8326C45.0713 63.7812 45.1239 63.7086 45.1508 63.6254L45.476 62.6244C45.5153 62.5037 45.5917 62.3984 45.6944 62.3238C45.7971 62.2492 45.9208 62.209 46.0477 62.209C46.1747 62.209 46.2984 62.2492 46.4011 62.3238C46.5038 62.3984 46.5802 62.5037 46.6194 62.6244L46.9447 63.6254C46.9716 63.7086 47.0242 63.7812 47.095 63.8326C47.1657 63.884 47.251 63.9116 47.3385 63.9115H48.391C48.5179 63.9115 48.6416 63.9517 48.7443 64.0263C48.847 64.1009 48.9234 64.2061 48.9627 64.3268C49.0019 64.4476 49.0019 64.5776 48.9627 64.6983C48.9235 64.8191 48.847 64.9243 48.7443 64.9989L47.8928 65.6175C47.8219 65.6689 47.7692 65.7413 47.7422 65.8245C47.7151 65.9078 47.7152 65.9974 47.7424 66.0806L48.0676 67.0816C48.1083 67.2022 48.109 67.3327 48.0697 67.4537C48.0304 67.5747 47.9531 67.6799 47.8493 67.7536C47.7469 67.8291 47.6232 67.87 47.4959 67.8706Z" fill="#37B57E"/>
<path d="M56.1248 67.8705C55.9976 67.87 55.8738 67.829 55.7715 67.7535L54.9199 67.1348C54.8493 67.0832 54.7641 67.0554 54.6766 67.0554C54.5891 67.0554 54.5039 67.0832 54.4332 67.1348L53.5817 67.7535C53.479 67.8281 53.3553 67.8683 53.2284 67.8683C53.1014 67.8683 52.9778 67.8281 52.8751 67.7535C52.7724 67.6789 52.6959 67.5737 52.6567 67.453C52.6174 67.3323 52.6174 67.2022 52.6566 67.0815L52.9819 66.0805C53.0091 65.9973 53.0092 65.9077 52.9821 65.8245C52.9551 65.7413 52.9023 65.6689 52.8315 65.6176L51.9799 64.9989C51.8772 64.9242 51.8008 64.819 51.7616 64.6983C51.7224 64.5776 51.7224 64.4475 51.7616 64.3268C51.8008 64.2061 51.8773 64.1009 51.98 64.0263C52.0827 63.9516 52.2063 63.9115 52.3333 63.9115H53.3858C53.4733 63.9116 53.5585 63.884 53.6293 63.8326C53.7001 63.7812 53.7527 63.7086 53.7796 63.6254L54.1048 62.6244C54.1441 62.5037 54.2205 62.3984 54.3232 62.3238C54.4259 62.2492 54.5496 62.209 54.6765 62.209C54.8035 62.209 54.9272 62.2492 55.0299 62.3238C55.1326 62.3984 55.209 62.5037 55.2482 62.6244L55.5735 63.6254C55.6004 63.7086 55.653 63.7812 55.7238 63.8326C55.7945 63.884 55.8798 63.9116 55.9673 63.9115H57.0198C57.1467 63.9115 57.2704 63.9516 57.3731 64.0263C57.4758 64.1009 57.5522 64.2061 57.5915 64.3268C57.6307 64.4475 57.6307 64.5776 57.5915 64.6983C57.5523 64.819 57.4758 64.9242 57.3731 64.9989L56.5216 65.6175C56.4507 65.6688 56.398 65.7413 56.371 65.8245C56.3439 65.9077 56.344 65.9973 56.3712 66.0805L56.6965 67.0815C56.7371 67.2021 56.7379 67.3326 56.6985 67.4536C56.6592 67.5747 56.5819 67.6798 56.4781 67.7535C56.3757 67.829 56.252 67.87 56.1248 67.8705Z" fill="#37B57E"/>
<path d="M61.8572 67.9304C61.7175 67.9299 61.5816 67.8849 61.4692 67.802C61.3552 67.7211 61.2702 67.6056 61.227 67.4726C61.1838 67.3396 61.1846 67.1962 61.2292 67.0637L61.5546 66.0627C61.5778 65.9915 61.5779 65.9147 61.5547 65.8434C61.5316 65.7721 61.4864 65.71 61.4256 65.666L60.5741 65.0473C60.4613 64.9653 60.3773 64.8498 60.3342 64.7172C60.2911 64.5845 60.2911 64.4417 60.3342 64.3091C60.3773 64.1765 60.4613 64.0609 60.5741 63.9789C60.6869 63.897 60.8228 63.8528 60.9622 63.8528H62.0147C62.0897 63.853 62.1628 63.8293 62.2234 63.7852C62.2841 63.7412 62.3292 63.679 62.3522 63.6076L62.6775 62.6066C62.7206 62.474 62.8046 62.3585 62.9174 62.2765C63.0302 62.1945 63.1661 62.1504 63.3055 62.1504C63.4449 62.1504 63.5808 62.1945 63.6936 62.2765C63.8064 62.3585 63.8904 62.474 63.9335 62.6066L64.2587 63.6076C64.2817 63.679 64.3268 63.7412 64.3875 63.7852C64.4481 63.8293 64.5212 63.853 64.5962 63.8528H65.6487C65.7882 63.8528 65.924 63.897 66.0368 63.9789C66.1496 64.0609 66.2336 64.1765 66.2767 64.3091C66.3198 64.4417 66.3198 64.5845 66.2767 64.7172C66.2336 64.8498 66.1497 64.9653 66.0369 65.0473L65.1853 65.666C65.1246 65.71 65.0794 65.7721 65.0562 65.8434C65.033 65.9147 65.0331 65.9915 65.0564 66.0627L65.3816 67.0637C65.4247 67.1963 65.4247 67.3392 65.3816 67.4718C65.3385 67.6044 65.2546 67.72 65.1418 67.802C65.0289 67.8839 64.8931 67.9281 64.7537 67.9281C64.6142 67.9281 64.4784 67.8839 64.3655 67.802L63.514 67.1833C63.4535 67.1391 63.3804 67.1153 63.3055 67.1153C63.2305 67.1153 63.1574 67.1391 63.0969 67.1833L62.2453 67.802C62.1329 67.8849 61.997 67.9299 61.8572 67.9304ZM63.3055 66.8098C63.4449 66.8098 63.5808 66.8541 63.6935 66.9362L64.545 67.5549C64.6057 67.5989 64.6787 67.6227 64.7536 67.6227C64.8286 67.6227 64.9016 67.599 64.9623 67.5549C65.0229 67.5109 65.068 67.4488 65.0912 67.3775C65.1143 67.3062 65.1143 67.2294 65.0912 67.1581L64.7659 66.1572C64.7226 66.0246 64.7224 65.8816 64.7656 65.7489C64.8087 65.6163 64.8928 65.5007 65.0058 65.4189L65.8573 64.8002C65.9179 64.7562 65.963 64.6941 65.9862 64.6228C66.0094 64.5515 66.0094 64.4747 65.9862 64.4035C65.963 64.3322 65.9179 64.2701 65.8573 64.226C65.7967 64.182 65.7237 64.1583 65.6487 64.1582H64.5962C64.4567 64.1585 64.3207 64.1145 64.2078 64.0325C64.095 63.9505 64.0111 63.8348 63.9682 63.702L63.643 62.701C63.6198 62.6297 63.5747 62.5676 63.514 62.5236C63.4534 62.4795 63.3804 62.4558 63.3054 62.4558C63.2305 62.4558 63.1575 62.4795 63.0968 62.5236C63.0362 62.5676 62.9911 62.6297 62.9679 62.701L62.6426 63.702C62.5998 63.8348 62.5159 63.9505 62.403 64.0325C62.2902 64.1145 62.1542 64.1585 62.0147 64.1582H60.9622C60.8872 64.1582 60.8142 64.182 60.7536 64.226C60.693 64.2701 60.6478 64.3322 60.6247 64.4034C60.6015 64.4747 60.6015 64.5515 60.6247 64.6228C60.6478 64.694 60.6929 64.7562 60.7536 64.8002L61.6051 65.4189C61.7181 65.5007 61.8022 65.6163 61.8453 65.7489C61.8885 65.8816 61.8883 66.0246 61.845 66.1572L61.5197 67.1581C61.4965 67.2294 61.4965 67.3062 61.5197 67.3775C61.5428 67.4487 61.588 67.5108 61.6486 67.5549C61.7093 67.5989 61.7823 67.6227 61.8572 67.6227C61.9322 67.6226 62.0052 67.5989 62.0658 67.5549L62.9174 66.9362C63.0301 66.8541 63.166 66.8098 63.3055 66.8098Z" fill="#37B57E"/>
<path d="M9.16943 42.7559C8.90619 42.7559 8.65373 42.8604 8.46759 43.0466C8.28145 43.2327 8.17688 43.4852 8.17688 43.7484C8.17688 44.0117 8.28145 44.2641 8.46759 44.4503C8.65373 44.6364 8.90619 44.741 9.16943 44.741H59.4078C59.671 44.741 59.9235 44.6364 60.1096 44.4503C60.2958 44.2641 60.4003 44.0117 60.4003 43.7484C60.4003 43.4852 60.2958 43.2327 60.1096 43.0466C59.9235 42.8604 59.671 42.7559 59.4078 42.7559H9.16943Z" fill="#8A94A5"/>
<path d="M9.16943 47.9492C8.90619 47.9492 8.65373 48.0538 8.46759 48.2399C8.28145 48.4261 8.17688 48.6785 8.17688 48.9418C8.17688 49.205 8.28145 49.4575 8.46759 49.6436C8.65373 49.8297 8.90619 49.9343 9.16943 49.9343H59.4078C59.671 49.9343 59.9235 49.8297 60.1096 49.6436C60.2958 49.4575 60.4003 49.205 60.4003 48.9418C60.4003 48.6785 60.2958 48.4261 60.1096 48.2399C59.9235 48.0538 59.671 47.9492 59.4078 47.9492H9.16943Z" fill="#8A94A5"/>
<path d="M9.16943 53.1387C8.90619 53.1387 8.65373 53.2432 8.46759 53.4294C8.28145 53.6155 8.17688 53.868 8.17688 54.1312C8.17688 54.3945 8.28145 54.6469 8.46759 54.8331C8.65373 55.0192 8.90619 55.1238 9.16943 55.1238H59.4078C59.671 55.1238 59.9235 55.0192 60.1096 54.8331C60.2958 54.6469 60.4003 54.3945 60.4003 54.1312C60.4003 53.868 60.2958 53.6155 60.1096 53.4294C59.9235 53.2432 59.671 53.1387 59.4078 53.1387H9.16943Z" fill="#8A94A5"/>
<path d="M9.16943 42.7559C8.90619 42.7559 8.65373 42.8604 8.46759 43.0466C8.28145 43.2327 8.17688 43.4852 8.17688 43.7484C8.17688 44.0117 8.28145 44.2641 8.46759 44.4503C8.65373 44.6364 8.90619 44.741 9.16943 44.741H59.4078C59.671 44.741 59.9235 44.6364 60.1096 44.4503C60.2958 44.2641 60.4003 44.0117 60.4003 43.7484C60.4003 43.4852 60.2958 43.2327 60.1096 43.0466C59.9235 42.8604 59.671 42.7559 59.4078 42.7559H9.16943Z" fill="#8A94A5"/>
<path d="M9.16943 47.9492C8.90619 47.9492 8.65373 48.0538 8.46759 48.2399C8.28145 48.4261 8.17688 48.6785 8.17688 48.9418C8.17688 49.205 8.28145 49.4575 8.46759 49.6436C8.65373 49.8297 8.90619 49.9343 9.16943 49.9343H59.4078C59.671 49.9343 59.9235 49.8297 60.1096 49.6436C60.2958 49.4575 60.4003 49.205 60.4003 48.9418C60.4003 48.6785 60.2958 48.4261 60.1096 48.2399C59.9235 48.0538 59.671 47.9492 59.4078 47.9492H9.16943Z" fill="#8A94A5"/>
<path d="M9.16943 53.1387C8.90619 53.1387 8.65373 53.2432 8.46759 53.4294C8.28145 53.6155 8.17688 53.868 8.17688 54.1312C8.17688 54.3945 8.28145 54.6469 8.46759 54.8331C8.65373 55.0192 8.90619 55.1238 9.16943 55.1238H59.4078C59.671 55.1238 59.9235 55.0192 60.1096 54.8331C60.2958 54.6469 60.4003 54.3945 60.4003 54.1312C60.4003 53.868 60.2958 53.6155 60.1096 53.4294C59.9235 53.2432 59.671 53.1387 59.4078 53.1387H9.16943Z" fill="#8A94A5"/>
<path d="M66.7374 21.5307H1.83978C1.55638 21.5304 1.28469 21.4177 1.0843 21.2173C0.88391 21.0169 0.771192 20.7452 0.770874 20.4618V1.0689C0.771192 0.785509 0.88391 0.513814 1.0843 0.313425C1.28469 0.113036 1.55638 0.000318078 1.83978 0H66.7374C67.0208 0.000317675 67.2925 0.113036 67.4929 0.313425C67.6933 0.513814 67.806 0.785509 67.8063 1.0689V20.4618C67.806 20.7452 67.6933 21.0169 67.4929 21.2173C67.2925 21.4177 67.0208 21.5304 66.7374 21.5307ZM1.83978 0.3054C1.63735 0.305635 1.44329 0.386149 1.30016 0.529283C1.15703 0.672416 1.07651 0.86648 1.07627 1.0689V20.4618C1.07651 20.6642 1.15703 20.8583 1.30016 21.0014C1.44329 21.1446 1.63735 21.2251 1.83978 21.2253H66.7374C66.9398 21.2251 67.1339 21.1446 67.277 21.0014C67.4202 20.8583 67.5007 20.6642 67.5009 20.4618V1.0689C67.5007 0.866479 67.4202 0.672415 67.277 0.52928C67.1339 0.386146 66.9398 0.305632 66.7374 0.3054H1.83978Z" fill="#404040"/>
<path d="M30.2382 29.6967C30.111 29.6962 29.9872 29.6552 29.8848 29.5797L29.0333 28.961C28.9627 28.9094 28.8775 28.8816 28.79 28.8816C28.7025 28.8816 28.6173 28.9094 28.5466 28.961L27.6951 29.5797C27.5924 29.6543 27.4687 29.6945 27.3418 29.6945C27.2148 29.6945 27.0912 29.6543 26.9885 29.5797C26.8858 29.5051 26.8093 29.3999 26.7701 29.2792C26.7308 29.1585 26.7308 29.0284 26.77 28.9077L27.0953 27.9067C27.1225 27.8235 27.1226 27.7339 27.0955 27.6507C27.0685 27.5675 27.0158 27.495 26.9449 27.4437L26.0934 26.8251C25.9907 26.7504 25.9142 26.6452 25.875 26.5245C25.8358 26.4038 25.8358 26.2737 25.875 26.153C25.9142 26.0323 25.9907 25.9271 26.0934 25.8524C26.1961 25.7778 26.3197 25.7376 26.4467 25.7376H27.4993C27.5867 25.7378 27.672 25.7102 27.7428 25.6588C27.8135 25.6074 27.8661 25.5348 27.893 25.4516L28.2182 24.4506C28.2575 24.3298 28.3339 24.2246 28.4366 24.15C28.5393 24.0754 28.663 24.0352 28.79 24.0352C28.9169 24.0352 29.0406 24.0754 29.1433 24.15C29.246 24.2246 29.3225 24.3298 29.3617 24.4506L29.6869 25.4516C29.7138 25.5348 29.7664 25.6074 29.8372 25.6588C29.9079 25.7102 29.9932 25.7378 30.0807 25.7376H31.1332C31.2602 25.7377 31.3839 25.7778 31.4866 25.8525C31.5892 25.9271 31.6657 26.0323 31.7049 26.153C31.7441 26.2737 31.7441 26.4038 31.7049 26.5245C31.6657 26.6452 31.5892 26.7504 31.4865 26.8251L30.635 27.4437C30.5642 27.495 30.5114 27.5675 30.4844 27.6507C30.4573 27.7339 30.4574 27.8235 30.4846 27.9067L30.8099 28.9077C30.8506 29.0283 30.8513 29.1588 30.8119 29.2798C30.7726 29.4009 30.6953 29.506 30.5915 29.5797C30.4891 29.6552 30.3654 29.6962 30.2382 29.6967Z" fill="#37B57E"/>
<path d="M38.867 29.6967C38.7398 29.6962 38.6161 29.6552 38.5137 29.5797L37.6622 28.961C37.5915 28.9094 37.5063 28.8816 37.4188 28.8816C37.3313 28.8816 37.2461 28.9094 37.1755 28.961L36.3239 29.5797C36.2212 29.6543 36.0976 29.6945 35.9706 29.6945C35.8437 29.6945 35.72 29.6543 35.6173 29.5797C35.5146 29.5051 35.4382 29.3999 35.3989 29.2792C35.3597 29.1585 35.3597 29.0284 35.3989 28.9077L35.7242 27.9067C35.7513 27.8235 35.7514 27.7339 35.7244 27.6507C35.6974 27.5675 35.6446 27.495 35.5738 27.4437L34.7222 26.8251C34.6196 26.7504 34.5431 26.6452 34.5039 26.5245C34.4647 26.4038 34.4647 26.2737 34.5039 26.153C34.5431 26.0323 34.6196 25.9271 34.7223 25.8524C34.825 25.7778 34.9486 25.7376 35.0756 25.7376H36.1281C36.2156 25.7378 36.3008 25.7102 36.3716 25.6588C36.4424 25.6074 36.495 25.5348 36.5219 25.4516L36.8471 24.4506C36.8863 24.3298 36.9628 24.2246 37.0655 24.15C37.1682 24.0753 37.2919 24.0352 37.4188 24.0352C37.5458 24.0352 37.6695 24.0753 37.7722 24.15C37.8749 24.2246 37.9513 24.3298 37.9905 24.4506L38.3157 25.4516C38.3426 25.5348 38.3953 25.6074 38.466 25.6588C38.5368 25.7102 38.6221 25.7378 38.7096 25.7376H39.7621C39.889 25.7376 40.0127 25.7778 40.1154 25.8524C40.2181 25.9271 40.2945 26.0323 40.3337 26.153C40.373 26.2737 40.373 26.4038 40.3338 26.5245C40.2945 26.6452 40.2181 26.7504 40.1154 26.8251L39.2639 27.4437C39.193 27.495 39.1403 27.5675 39.1132 27.6507C39.0862 27.7339 39.0863 27.8235 39.1135 27.9067L39.4387 28.9077C39.4794 29.0283 39.4801 29.1588 39.4408 29.2798C39.4014 29.4009 39.3241 29.506 39.2203 29.5797C39.118 29.6552 38.9942 29.6962 38.867 29.6967Z" fill="#37B57E"/>
<path d="M47.4959 29.6967C47.3687 29.6962 47.245 29.6552 47.1426 29.5797L46.2911 28.961C46.2204 28.9096 46.1352 28.8818 46.0477 28.8818C45.9603 28.8818 45.8751 28.9096 45.8044 28.961L44.9528 29.5797C44.8502 29.6543 44.7265 29.6945 44.5995 29.6945C44.4726 29.6945 44.3489 29.6543 44.2462 29.5797C44.1435 29.5051 44.0671 29.3999 44.0279 29.2792C43.9886 29.1585 43.9886 29.0284 44.0278 28.9077L44.3531 27.9067C44.3803 27.8235 44.3803 27.7339 44.3533 27.6507C44.3263 27.5675 44.2735 27.495 44.2027 27.4437L43.3511 26.8251C43.2485 26.7504 43.172 26.6452 43.1328 26.5245C43.0936 26.4038 43.0936 26.2737 43.1328 26.153C43.172 26.0323 43.2485 25.9271 43.3512 25.8524C43.4539 25.7778 43.5776 25.7376 43.7045 25.7376H44.757C44.8445 25.7378 44.9297 25.7102 45.0005 25.6588C45.0713 25.6074 45.1239 25.5348 45.1508 25.4516L45.476 24.4506C45.5153 24.3298 45.5917 24.2246 45.6944 24.15C45.7971 24.0753 45.9208 24.0352 46.0477 24.0352C46.1747 24.0352 46.2984 24.0753 46.4011 24.15C46.5038 24.2246 46.5802 24.3298 46.6194 24.4506L46.9447 25.4516C46.9716 25.5348 47.0242 25.6074 47.095 25.6588C47.1657 25.7102 47.251 25.7378 47.3385 25.7376H48.391C48.5179 25.7376 48.6416 25.7778 48.7443 25.8524C48.847 25.9271 48.9234 26.0323 48.9627 26.153C49.0019 26.2737 49.0019 26.4038 48.9627 26.5245C48.9235 26.6452 48.847 26.7504 48.7443 26.8251L47.8928 27.4437C47.8219 27.495 47.7692 27.5675 47.7422 27.6507C47.7151 27.7339 47.7152 27.8235 47.7424 27.9067L48.0676 28.9077C48.1083 29.0283 48.109 29.1588 48.0697 29.2798C48.0304 29.4009 47.9531 29.506 47.8493 29.5797C47.7469 29.6552 47.6232 29.6962 47.4959 29.6967Z" fill="#37B57E"/>
<path d="M61.8572 29.7566C61.7175 29.756 61.5816 29.7111 61.4692 29.6282C61.3552 29.5473 61.2702 29.4317 61.227 29.2988C61.1838 29.1658 61.1846 29.0224 61.2292 28.8899L61.5546 27.8889C61.5778 27.8177 61.5779 27.7409 61.5547 27.6696C61.5316 27.5983 61.4864 27.5361 61.4256 27.4922L60.5741 26.8735C60.4613 26.7915 60.3773 26.676 60.3342 26.5433C60.2911 26.4107 60.2911 26.2679 60.3342 26.1352C60.3773 26.0026 60.4613 25.8871 60.5741 25.8051C60.6869 25.7231 60.8228 25.679 60.9622 25.679H62.0147C62.0897 25.6792 62.1628 25.6555 62.2234 25.6114C62.2841 25.5673 62.3292 25.5051 62.3522 25.4338L62.6775 24.4328C62.7206 24.3002 62.8046 24.1846 62.9174 24.1027C63.0302 24.0207 63.1661 23.9766 63.3055 23.9766C63.4449 23.9766 63.5808 24.0207 63.6936 24.1027C63.8064 24.1846 63.8904 24.3002 63.9335 24.4328L64.2587 25.4338C64.2817 25.5051 64.3268 25.5673 64.3875 25.6114C64.4481 25.6555 64.5212 25.6792 64.5962 25.679H65.6487C65.7882 25.679 65.924 25.7232 66.0368 25.8051C66.1496 25.8871 66.2336 26.0026 66.2767 26.1353C66.3198 26.2679 66.3198 26.4107 66.2767 26.5433C66.2336 26.6759 66.1497 26.7915 66.0369 26.8735L65.1853 27.4922C65.1246 27.5361 65.0794 27.5982 65.0562 27.6695C65.033 27.7408 65.0331 27.8177 65.0564 27.8889L65.3816 28.8899C65.4247 29.0225 65.4247 29.1654 65.3816 29.298C65.3385 29.4306 65.2546 29.5462 65.1418 29.6281C65.0289 29.7101 64.8931 29.7542 64.7537 29.7542C64.6142 29.7542 64.4784 29.7101 64.3655 29.6281L63.514 29.0095C63.4535 28.9653 63.3804 28.9415 63.3055 28.9415C63.2305 28.9415 63.1574 28.9653 63.0969 29.0095L62.2453 29.6281C62.1329 29.7111 61.997 29.7561 61.8572 29.7566ZM63.3055 28.636C63.4449 28.636 63.5808 28.6803 63.6935 28.7624L64.545 29.381C64.6057 29.4251 64.6787 29.4489 64.7536 29.4489C64.8286 29.4489 64.9016 29.4252 64.9623 29.3811C65.0229 29.3371 65.068 29.2749 65.0912 29.2036C65.1143 29.1324 65.1143 29.0556 65.0912 28.9843L64.7659 27.9833C64.7226 27.8507 64.7224 27.7078 64.7656 27.5751C64.8087 27.4424 64.8928 27.3269 65.0058 27.2451L65.8573 26.6264C65.9179 26.5823 65.963 26.5202 65.9862 26.449C66.0094 26.3777 66.0094 26.3009 65.9862 26.2296C65.963 26.1584 65.9179 26.0962 65.8573 26.0522C65.7967 26.0081 65.7237 25.9844 65.6487 25.9844H64.5962C64.4567 25.9847 64.3207 25.9406 64.2078 25.8586C64.095 25.7766 64.0111 25.6609 63.9682 25.5282L63.643 24.5272C63.6198 24.4559 63.5747 24.3938 63.514 24.3497C63.4534 24.3057 63.3804 24.282 63.3054 24.282C63.2305 24.282 63.1575 24.3057 63.0968 24.3497C63.0362 24.3938 62.9911 24.4559 62.9679 24.5272L62.6426 25.5282C62.5998 25.6609 62.5159 25.7767 62.403 25.8586C62.2902 25.9406 62.1542 25.9847 62.0147 25.9844H60.9622C60.8872 25.9844 60.8142 26.0081 60.7536 26.0522C60.693 26.0962 60.6478 26.1583 60.6247 26.2296C60.6015 26.3009 60.6015 26.3777 60.6247 26.4489C60.6478 26.5202 60.6929 26.5823 60.7536 26.6264L61.6051 27.2451C61.7181 27.3269 61.8022 27.4425 61.8453 27.5751C61.8885 27.7078 61.8883 27.8507 61.845 27.9833L61.5197 28.9843C61.4965 29.0556 61.4965 29.1324 61.5197 29.2036C61.5428 29.2749 61.588 29.337 61.6486 29.3811C61.7093 29.4251 61.7823 29.4488 61.8572 29.4488C61.9322 29.4488 62.0052 29.4251 62.0658 29.381L62.9174 28.7624C63.0301 28.6803 63.166 28.636 63.3055 28.636Z" fill="#37B57E"/>
<path d="M53.1534 29.7312C53.0137 29.7306 52.8778 29.6857 52.7653 29.6028C52.6513 29.5219 52.5664 29.4063 52.5232 29.2734C52.4799 29.1404 52.4807 28.997 52.5254 28.8645L52.8507 27.8635C52.874 27.7923 52.874 27.7154 52.8509 27.6441C52.8277 27.5728 52.7825 27.5107 52.7218 27.4668L51.8702 26.8481C51.7574 26.7661 51.6734 26.6505 51.6303 26.5179C51.5872 26.3853 51.5873 26.2425 51.6303 26.1098C51.6734 25.9772 51.7574 25.8617 51.8702 25.7797C51.983 25.6978 52.1189 25.6536 52.2583 25.6536H53.3109C53.3858 25.6538 53.4589 25.6301 53.5196 25.586C53.5802 25.5419 53.6253 25.4797 53.6483 25.4084L53.9736 24.4074C54.0167 24.2748 54.1007 24.1592 54.2135 24.0773C54.3263 23.9953 54.4622 23.9512 54.6016 23.9512C54.741 23.9512 54.8769 23.9953 54.9897 24.0773C55.1025 24.1592 55.1865 24.2748 55.2296 24.4074L55.5548 25.4084C55.5778 25.4797 55.6229 25.5419 55.6836 25.586C55.7442 25.6301 55.8173 25.6538 55.8923 25.6536H56.9448C57.0843 25.6536 57.2201 25.6978 57.3329 25.7797C57.4457 25.8617 57.5297 25.9773 57.5728 26.1099C57.6159 26.2425 57.6159 26.3853 57.5728 26.5179C57.5297 26.6505 57.4458 26.7661 57.333 26.8481L56.4814 27.4668C56.4207 27.5107 56.3755 27.5728 56.3523 27.6441C56.3291 27.7154 56.3292 27.7923 56.3525 27.8635L56.6778 28.8645C56.7208 28.9971 56.7208 29.14 56.6777 29.2726C56.6347 29.4052 56.5507 29.5208 56.4379 29.6027C56.3251 29.6847 56.1892 29.7288 56.0498 29.7288C55.9103 29.7288 55.7745 29.6847 55.6617 29.6027L54.8102 28.9841C54.7496 28.9399 54.6766 28.9161 54.6016 28.9161C54.5266 28.9161 54.4535 28.9399 54.393 28.9841L53.5415 29.6027C53.429 29.6857 53.2931 29.7307 53.1534 29.7312ZM54.6016 28.6105C54.7411 28.6106 54.8769 28.6548 54.9896 28.737L55.8412 29.3556C55.9018 29.3997 55.9748 29.4234 56.0497 29.4235C56.1247 29.4235 56.1977 29.3998 56.2584 29.3557C56.319 29.3116 56.3641 29.2495 56.3873 29.1782C56.4104 29.107 56.4104 29.0302 56.3873 28.9589L56.062 27.9579C56.0187 27.8253 56.0185 27.6824 56.0617 27.5497C56.1048 27.417 56.1889 27.3015 56.3019 27.2197L57.1534 26.601C57.214 26.5569 57.2592 26.4948 57.2823 26.4236C57.3055 26.3523 57.3055 26.2755 57.2823 26.2042C57.2592 26.133 57.214 26.0709 57.1534 26.0268C57.0928 25.9828 57.0198 25.959 56.9448 25.959H55.8923C55.7528 25.9593 55.6168 25.9152 55.504 25.8332C55.3911 25.7512 55.3072 25.6355 55.2643 25.5028L54.9391 24.5018C54.9159 24.4305 54.8708 24.3684 54.8102 24.3243C54.7495 24.2803 54.6765 24.2566 54.6016 24.2566C54.5266 24.2566 54.4536 24.2803 54.3929 24.3243C54.3323 24.3684 54.2872 24.4305 54.264 24.5018L53.9388 25.5028C53.8959 25.6355 53.812 25.7512 53.6992 25.8332C53.5863 25.9152 53.4504 25.9593 53.3109 25.959H52.2583C52.1834 25.959 52.1104 25.9827 52.0497 26.0268C51.9891 26.0708 51.944 26.1329 51.9208 26.2042C51.8977 26.2755 51.8976 26.3523 51.9208 26.4235C51.944 26.4948 51.9891 26.5569 52.0497 26.601L52.9013 27.2197C53.0143 27.3015 53.0984 27.4171 53.1415 27.5497C53.1846 27.6824 53.1845 27.8253 53.1411 27.9579L52.8158 28.9589C52.7927 29.0302 52.7927 29.1069 52.8158 29.1782C52.839 29.2495 52.8841 29.3116 52.9448 29.3557C53.0054 29.3997 53.0784 29.4234 53.1533 29.4234C53.2283 29.4234 53.3013 29.3997 53.3619 29.3556L54.2135 28.737C54.3262 28.6549 54.4621 28.6106 54.6016 28.6105Z" fill="#37B57E"/>
<path d="M9.16943 4.58008C8.90619 4.58008 8.65373 4.68465 8.46759 4.87079C8.28145 5.05693 8.17688 5.30939 8.17688 5.57263C8.17688 5.83587 8.28145 6.08833 8.46759 6.27447C8.65373 6.46061 8.90619 6.56518 9.16943 6.56518H59.4078C59.671 6.56518 59.9235 6.46061 60.1096 6.27447C60.2958 6.08833 60.4003 5.83587 60.4003 5.57263C60.4003 5.30939 60.2958 5.05693 60.1096 4.87079C59.9235 4.68465 59.671 4.58008 59.4078 4.58008H9.16943Z" fill="#8A94A5"/>
<path d="M9.16943 9.77148C8.90619 9.77148 8.65373 9.87606 8.46759 10.0622C8.28145 10.2483 8.17688 10.5008 8.17688 10.764C8.17688 11.0273 8.28145 11.2797 8.46759 11.4659C8.65373 11.652 8.90619 11.7566 9.16943 11.7566H59.4078C59.671 11.7566 59.9235 11.652 60.1096 11.4659C60.2958 11.2797 60.4003 11.0273 60.4003 10.764C60.4003 10.5008 60.2958 10.2483 60.1096 10.0622C59.9235 9.87606 59.671 9.77148 59.4078 9.77148H9.16943Z" fill="#8A94A5"/>
<path d="M9.16943 14.9648C8.90619 14.9648 8.65373 15.0694 8.46759 15.2556C8.28145 15.4417 8.17688 15.6942 8.17688 15.9574C8.17688 16.2206 8.28145 16.4731 8.46759 16.6592C8.65373 16.8454 8.90619 16.9499 9.16943 16.9499H59.4078C59.671 16.9499 59.9235 16.8454 60.1096 16.6592C60.2958 16.4731 60.4003 16.2206 60.4003 15.9574C60.4003 15.6942 60.2958 15.4417 60.1096 15.2556C59.9235 15.0694 59.671 14.9648 59.4078 14.9648H9.16943Z" fill="#8A94A5"/>
<path d="M9.16943 4.58008C8.90619 4.58008 8.65373 4.68465 8.46759 4.87079C8.28145 5.05693 8.17688 5.30939 8.17688 5.57263C8.17688 5.83587 8.28145 6.08833 8.46759 6.27447C8.65373 6.46061 8.90619 6.56518 9.16943 6.56518H59.4078C59.671 6.56518 59.9235 6.46061 60.1096 6.27447C60.2958 6.08833 60.4003 5.83587 60.4003 5.57263C60.4003 5.30939 60.2958 5.05693 60.1096 4.87079C59.9235 4.68465 59.671 4.58008 59.4078 4.58008H9.16943Z" fill="#8A94A5"/>
<path d="M9.16943 9.77148C8.90619 9.77148 8.65373 9.87606 8.46759 10.0622C8.28145 10.2483 8.17688 10.5008 8.17688 10.764C8.17688 11.0273 8.28145 11.2797 8.46759 11.4659C8.65373 11.652 8.90619 11.7566 9.16943 11.7566H59.4078C59.671 11.7566 59.9235 11.652 60.1096 11.4659C60.2958 11.2797 60.4003 11.0273 60.4003 10.764C60.4003 10.5008 60.2958 10.2483 60.1096 10.0622C59.9235 9.87606 59.671 9.77148 59.4078 9.77148H9.16943Z" fill="#8A94A5"/>
<path d="M9.16943 14.9648C8.90619 14.9648 8.65373 15.0694 8.46759 15.2556C8.28145 15.4417 8.17688 15.6942 8.17688 15.9574C8.17688 16.2206 8.28145 16.4731 8.46759 16.6592C8.65373 16.8454 8.90619 16.9499 9.16943 16.9499H59.4078C59.671 16.9499 59.9235 16.8454 60.1096 16.6592C60.2958 16.4731 60.4003 16.2206 60.4003 15.9574C60.4003 15.6942 60.2958 15.4417 60.1096 15.2556C59.9235 15.0694 59.671 14.9648 59.4078 14.9648H9.16943Z" fill="#8A94A5"/>
</g>
<defs>
<clipPath id="clip0">
<rect width="122.458" height="82" fill="white" transform="translate(0.770874)"/>
</clipPath>
</defs>
</svg>
