<svg width="102" height="82" viewBox="0 0 102 82" fill="none" xmlns="http://www.w3.org/2000/svg">
<g clip-path="url(#clip0)">
<path d="M95.9464 67.0555C97.7053 73.3173 80.7748 87.6238 50.9874 79.6373C27.0043 73.207 6.02844 70.4835 6.02844 67.0555C6.02844 63.6274 26.1572 67.2232 50.9874 67.2232C75.8175 67.2232 95.0193 63.7552 95.9464 67.0555Z" fill="#5B677B"/>
<path opacity="0.1" d="M95.9464 67.0555C97.7053 73.3173 80.7748 87.6238 50.9874 79.6373C27.0043 73.207 6.02844 70.4835 6.02844 67.0555C6.02844 63.6274 26.1572 67.2232 50.9874 67.2232C75.8175 67.2232 95.0193 63.7552 95.9464 67.0555Z" fill="#404040"/>
<path d="M95.9464 67.0547C97.7053 73.3165 80.7748 81.2482 50.9874 73.2617C27.0043 66.8314 6.02844 70.4827 6.02844 67.0547C6.02844 63.6266 26.1572 60.8477 50.9874 60.8477C75.8175 60.8477 95.0193 63.7544 95.9464 67.0547Z" fill="#5B677B"/>
<path opacity="0.1" d="M65.4442 71.5519C67.3646 71.5519 68.9215 71.013 68.9215 70.3482C68.9215 69.6834 67.3646 69.1445 65.4442 69.1445C63.5237 69.1445 61.9669 69.6834 61.9669 70.3482C61.9669 71.013 63.5237 71.5519 65.4442 71.5519Z" fill="#404040"/>
<path opacity="0.1" d="M79.6208 71.5519C81.5413 71.5519 83.0981 71.013 83.0981 70.3482C83.0981 69.6834 81.5413 69.1445 79.6208 69.1445C77.7004 69.1445 76.1436 69.6834 76.1436 70.3482C76.1436 71.013 77.7004 71.5519 79.6208 71.5519Z" fill="#404040"/>
<path opacity="0.1" d="M51 68.074C57.2784 68.074 62.3681 66.6968 62.3681 64.9979C62.3681 63.2991 57.2784 61.9219 51 61.9219C44.7216 61.9219 39.6319 63.2991 39.6319 64.9979C39.6319 66.6968 44.7216 68.074 51 68.074Z" fill="#404040"/>
<path d="M101.287 55.6366V0H0.713013V55.6366H47.1215V63.0739C44.8036 63.3515 43.243 63.8697 43.243 64.4636C43.243 65.3499 46.7159 66.0685 51 66.0685C55.2841 66.0685 58.7571 65.3499 58.7571 64.4636C58.7571 63.8697 57.1964 63.3515 54.8785 63.0739V55.6366H101.287Z" fill="#5B677B"/>
<path d="M96.0711 1.94922H5.92896V51.8151H96.0711V1.94922Z" fill="#F3F4F7"/>
<path d="M96.0711 1.94922H5.92896V51.8151H96.0711V1.94922Z" fill="url(#paint0_linear)"/>
<path opacity="0.1" d="M96.0711 2.00586C96.0711 2.00586 58.6233 5.88437 51.8025 20.8635C44.9816 35.8426 5.92896 51.7579 5.92896 51.7579H96.0711V2.00586Z" fill="#404040"/>
<path d="M79.2525 25.8125V29.5103H65.4112V26.0386H65.01V70.3486H65.4112V62.416H79.2525V70.3486H79.6537V25.8125H79.2525ZM79.2525 29.9115V36.0111H65.4112V29.9115L79.2525 29.9115ZM65.4112 49.013V42.9133H79.2525V49.013H65.4112ZM79.2525 49.4142V55.5138H65.4112V49.4142H79.2525ZM65.4112 42.5121V36.4123H79.2525V42.5121H65.4112ZM65.4112 62.0148V55.915H79.2525V62.0148H65.4112Z" fill="#5B677B"/>
<path d="M61.0468 26.6934V27.2476C61.0468 27.2476 60.651 27.406 60.651 28.0394C60.651 28.6728 60.3342 31.0482 60.3342 31.0482C60.3342 31.0482 60.8885 31.5232 61.3636 31.3649C61.6265 31.285 61.8695 31.1501 62.0762 30.969L62.1554 28.5145L61.8387 27.881V26.7725L61.0468 26.6934Z" fill="#404040"/>
<path d="M76.1941 4.68164C76.1941 4.68164 74.817 4.84 74.817 5.47343C74.817 6.10686 73.7154 8.48222 73.7154 8.48222C73.7154 8.48222 75.6432 8.95729 77.2957 8.79893C78.9481 8.64058 79.7743 8.40304 79.7743 8.40304L80.0497 5.9485L78.9481 5.31507L76.1941 4.68164Z" fill="#404040"/>
<path d="M76.3283 10.2244V8.72004C76.3283 8.72004 74.6655 5.39453 76.0116 5.39453C77.3576 5.39453 77.516 8.40333 77.516 8.40333V10.5412L76.3283 10.2244Z" fill="#FDB797"/>
<path d="M62.0762 25.9807C62.0762 25.9807 61.2053 25.5056 61.0469 25.9807C60.8886 26.4557 60.4135 27.4851 61.0469 27.5642C61.6803 27.6434 62.3137 27.0892 62.3137 27.0892L62.0762 25.9807Z" fill="#FDB797"/>
<path d="M66.3628 29.187C66.3628 29.187 65.886 29.8167 66.5777 35.9597C67.2695 42.1028 66.8709 46.5757 68.1841 46.5144C68.1841 46.5144 67.8413 47.8464 68.9572 47.8956C70.0731 47.9447 70.5829 48.0221 70.6698 47.7144C70.7566 47.4066 70.8926 45.983 70.5896 45.9971C70.5896 45.9971 70.6084 46.4012 70.735 44.7755C70.8616 43.1499 70.5032 35.4728 70.9611 34.439L72.7518 38.1011C72.7518 38.1011 72.832 39.8184 73.1728 40.6123C73.5135 41.4063 74.2356 46.0294 74.2356 46.0294L74.1676 46.7412C74.1676 46.7412 76.6108 47.0321 76.6929 46.6233C76.7751 46.2145 76.7468 45.6084 76.6363 45.4111C76.5259 45.2138 76.5259 45.2138 76.7091 44.8003C76.7902 44.6449 76.8369 44.4738 76.8462 44.2988C76.8555 44.1237 76.8271 43.9486 76.7629 43.7855C76.6477 43.4871 76.3412 36.9212 76.3412 36.9212C76.3412 36.9212 75.7666 28.9505 74.5356 28.603C73.3045 28.2556 66.3628 29.187 66.3628 29.187Z" fill="#5B677B"/>
<path d="M68.5154 47.1074L67.7733 48.5593C67.7733 48.5593 66.4894 48.1637 66.7962 49.3136C68.0287 49.352 69.262 49.2774 70.4809 49.091C70.4809 49.091 70.9954 49.2694 71.0823 48.9616C71.1691 48.6539 70.7661 47.6098 70.463 47.6239C70.16 47.638 68.5154 47.1074 68.5154 47.1074Z" fill="#5B677B"/>
<path d="M74.3554 46.4295C74.3554 46.4295 73.6322 48.2855 73.94 48.3723C74.2477 48.4592 76.994 48.7359 77.2007 48.8275C77.4074 48.9191 78.4223 48.973 78.495 48.3621C78.5677 47.7513 77.9522 47.5776 77.9522 47.5776C77.9522 47.5776 76.8316 47.4275 76.4814 46.4315C76.1312 45.4355 74.3554 46.4295 74.3554 46.4295Z" fill="#5B677B"/>
<path d="M67.498 14.1285C68.6661 14.1285 69.613 13.1816 69.613 12.0135C69.613 10.8454 68.6661 9.89844 67.498 9.89844C66.3299 9.89844 65.3829 10.8454 65.3829 12.0135C65.3829 13.1816 66.3299 14.1285 67.498 14.1285Z" fill="#FFB8B8"/>
<path d="M66.3848 13.0147C66.3848 13.0147 66.9414 15.909 66.7188 16.4656C66.4961 17.0222 69.8357 16.243 69.8357 16.243C69.8357 16.243 69.1678 13.3487 69.2791 12.6808C69.3904 12.0129 66.3848 13.0147 66.3848 13.0147Z" fill="#FDB797"/>
<path d="M67.4337 9.40001C67.2578 9.36814 67.077 9.37612 66.9046 9.42337C66.7667 9.48447 66.6397 9.56779 66.5287 9.67002C66.3272 9.83054 66.1121 9.97306 65.8858 10.096C65.6967 10.1773 65.5265 10.2966 65.3856 10.4466C65.326 10.5285 65.2785 10.6185 65.2444 10.7138C65.0274 11.2679 64.9691 11.8714 65.076 12.4567C65.088 12.5399 65.113 12.6206 65.1502 12.696C65.2659 12.9092 65.5214 12.9932 65.7367 13.1049C66.1453 13.3171 66.4552 13.6743 66.7904 13.99C66.9149 14.1143 67.0548 14.2221 67.2067 14.3109C67.6849 14.5716 68.2694 14.4866 68.8062 14.3944C68.8443 14.3943 68.8819 14.3867 68.917 14.372C68.9521 14.3573 68.9839 14.3358 69.0107 14.3087C69.0374 14.2817 69.0586 14.2496 69.0729 14.2144C69.0871 14.1791 69.0943 14.1414 69.0939 14.1033L69.5177 12.1975C69.5945 11.9151 69.631 11.6233 69.6263 11.3307C69.5967 10.8681 69.3462 10.2272 69.0067 9.8986C68.6111 9.51569 67.9509 9.45476 67.4337 9.40001Z" fill="#5B677B"/>
<path d="M65.8768 16.6363C65.8768 16.6363 66.0351 15.5278 66.9853 15.4486C67.5226 15.3979 68.0533 15.2917 68.5688 15.1319C68.648 15.1319 69.6773 15.2111 70.1524 15.6861C70.1524 15.6861 70.4691 16.1612 70.6275 15.8445C70.7858 15.5278 70.7858 15.3694 71.1026 15.5278C71.4193 15.6861 71.4193 15.0527 71.9735 15.1319C72.5278 15.2111 73.953 18.7741 73.953 18.7741L73.4779 19.3284C73.4779 19.3284 72.8445 23.604 73.953 25.4251C75.0615 27.2462 75.5366 29.2257 74.4281 29.6216C73.3196 30.0175 65.56 33.5805 65.8768 31.3635C66.1935 29.1465 65.9559 25.6627 65.6392 25.5835C65.3225 25.5043 63.5806 19.2492 63.5806 19.2492C63.6506 18.852 63.8172 18.4782 64.0658 18.1607C64.3143 17.8431 64.6371 17.5915 65.0058 17.4281C66.2727 16.8738 65.8768 16.6363 65.8768 16.6363Z" fill="#575A88"/>
<path d="M71.5777 15.4489L71.9736 15.1322C71.9736 15.1322 72.6862 15.1322 72.7654 14.9738C72.8446 14.8155 73.2405 14.8155 73.5572 14.6571C73.8739 14.4988 73.478 14.2612 73.8739 14.1029C74.2698 13.9445 74.2698 14.1029 74.2698 13.707C74.2698 13.3111 75.2991 12.9152 75.3783 12.4401C75.4575 11.9651 76.2492 9.74805 76.2492 9.74805L77.7536 10.2231L77.3577 13.0736C77.3577 13.0736 77.3577 14.4988 76.6451 15.4489C75.9325 16.3991 74.349 18.7744 73.5572 18.8536C72.7654 18.9328 71.5777 15.4489 71.5777 15.4489Z" fill="#575A88"/>
<path d="M64.0556 18.8535L63.5806 19.2494C63.5806 19.2494 63.4222 20.9913 63.4222 21.0705C63.4222 21.1497 63.5806 22.0998 63.4222 22.179C63.2639 22.2582 62.9472 23.8418 63.0263 23.921V24.1585L61.9178 25.9004V27.5632L64.5307 25.9004C64.5307 25.9004 66.0351 25.7421 65.7976 24.396C65.56 23.05 64.0556 18.8535 64.0556 18.8535Z" fill="#575A88"/>
<path d="M51.0001 55.6376C51.8126 55.6376 52.4712 54.979 52.4712 54.1665C52.4712 53.354 51.8126 52.6953 51.0001 52.6953C50.1875 52.6953 49.5289 53.354 49.5289 54.1665C49.5289 54.979 50.1875 55.6376 51.0001 55.6376Z" fill="#404040"/>
</g>
<defs>
<linearGradient id="paint0_linear" x1="51" y1="1.94922" x2="51" y2="51.8151" gradientUnits="userSpaceOnUse">
<stop stop-color="white"/>
<stop offset="1" stop-color="white" stop-opacity="0"/>
</linearGradient>
<clipPath id="clip0">
<rect width="100.574" height="82" fill="white" transform="translate(0.713013)"/>
</clipPath>
</defs>
</svg>
