<svg width="140" height="70" viewBox="0 0 140 70" fill="none" xmlns="http://www.w3.org/2000/svg">
<g clip-path="url(#clip0)">
<path d="M47.2049 60.1007L45.6056 59.4183L44.5086 51.2949H29.8988L28.7097 59.3851L27.2789 60.11C27.2104 60.1447 27.1555 60.2018 27.1231 60.272C27.0906 60.3423 27.0826 60.4216 27.1002 60.497C27.1177 60.5725 27.16 60.6398 27.22 60.6879C27.28 60.736 27.3543 60.7622 27.4308 60.7622H47.0731C47.1515 60.7622 47.2276 60.7347 47.2883 60.6844C47.349 60.634 47.3906 60.564 47.4061 60.4861C47.4217 60.4082 47.4101 60.3272 47.3734 60.257C47.3367 60.1867 47.2772 60.1315 47.2049 60.1007Z" fill="#E6E6E6"/>
<path d="M68.9841 52.0697H5.5935C4.13139 52.0663 2.7303 51.4755 1.69761 50.4267C0.664912 49.3779 0.0849541 47.9569 0.0849609 46.4754V40.709H74.4927V46.4754C74.4927 47.9569 73.9127 49.3779 72.88 50.4267C71.8473 51.4755 70.4462 52.0664 68.9841 52.0697Z" fill="#CCCCCC"/>
<path d="M74.5776 45.4429H0V5.5943C0.00166024 4.11112 0.58388 2.68916 1.61893 1.64039C2.65398 0.591619 4.05734 0.00168225 5.52112 0H69.0565C70.5202 0.00167866 71.9236 0.591616 72.9587 1.64039C73.9937 2.68916 74.5759 4.11112 74.5776 5.5943V45.4429Z" fill="#E6E6E6"/>
<path d="M68.6319 42.2576H5.94597C5.20282 42.2568 4.49035 41.9573 3.96486 41.4248C3.43937 40.8924 3.14378 40.1705 3.14294 39.4174V6.02378C3.14378 5.27077 3.43937 4.54886 3.96486 4.0164C4.49035 3.48395 5.20282 3.18444 5.94597 3.18359H68.6319C69.3751 3.18444 70.0875 3.48395 70.613 4.0164C71.1385 4.54886 71.4341 5.27077 71.435 6.02378V39.4174C71.4341 40.1705 71.1385 40.8924 70.613 41.4248C70.0875 41.9573 69.3751 42.2568 68.6319 42.2576Z" fill="white"/>
<path d="M41.0787 20.2314C41.0787 20.2368 41.0789 20.2422 41.0793 20.2476C41.2523 23.006 42.4557 25.5942 44.4449 27.4857C46.434 29.3771 49.0595 30.4299 51.7874 30.4299C54.5153 30.4299 57.1408 29.3771 59.1299 27.4857C61.119 25.5942 62.3225 23.006 62.4955 20.2476C62.4978 20.2134 62.4931 20.1792 62.4817 20.1471C62.4703 20.1149 62.4524 20.0854 62.4292 20.0606C62.4065 20.0358 62.3789 20.0161 62.3482 20.0026C62.3175 19.9892 62.2844 19.9823 62.251 19.9824L41.3238 19.9824C41.2588 19.9826 41.1964 20.0089 41.1505 20.0556C41.1045 20.1022 41.0787 20.1655 41.0787 20.2314Z" fill="#3F3D56"/>
<path d="M58.9383 11.5026C58.9382 11.5873 58.9051 11.6685 58.8461 11.7284L51.5601 19.111C51.5309 19.1407 51.4963 19.1642 51.4581 19.1803C51.4199 19.1963 51.379 19.2045 51.3376 19.2044H41.3239C41.2809 19.2046 41.2384 19.1957 41.1989 19.1784C41.1595 19.1611 41.124 19.1357 41.0948 19.1039C41.0651 19.0719 41.0422 19.0342 41.0276 18.9929C41.0129 18.9516 41.0068 18.9078 41.0096 18.864C41.137 16.8329 41.8209 14.878 42.9845 13.2191C44.148 11.5602 45.7451 10.2629 47.5962 9.473C49.4474 8.68313 51.4792 8.43198 53.4635 8.74778C55.4477 9.06357 57.3057 9.93379 58.8288 11.2607C58.8616 11.2894 58.8882 11.3246 58.907 11.3642C58.9259 11.4038 58.9364 11.4469 58.9381 11.4908C58.9383 11.4947 58.9383 11.4987 58.9383 11.5026Z" fill="#E6E6E6"/>
<path d="M89.8539 40.974C89.7987 41.0333 89.7234 41.0691 89.6431 41.0743C89.6002 41.0772 89.5571 41.071 89.5167 41.0562C89.4762 41.0415 89.4392 41.0183 89.408 40.9883L82.8276 34.7151C82.7823 34.6719 82.7507 34.6161 82.7367 34.5547C82.7227 34.4932 82.727 34.429 82.749 34.37C82.7711 34.3111 82.8099 34.2601 82.8605 34.2235C82.9112 34.1869 82.9714 34.1663 83.0336 34.1644L92.0209 33.8869C92.0636 33.8856 92.1061 33.8931 92.1459 33.909C92.1856 33.9248 92.2218 33.9488 92.2522 33.9792C92.2825 34.0097 92.3064 34.0461 92.3225 34.0863C92.3385 34.1264 92.3463 34.1694 92.3454 34.2127C92.292 36.6801 91.4187 39.057 89.8668 40.9591C89.8626 40.9642 89.8583 40.9692 89.8539 40.974Z" fill="#2F2E41"/>
<path d="M48.0537 34.7813C48.0498 35.1675 47.933 35.5439 47.718 35.8628C47.503 36.1817 47.1995 36.4288 46.8458 36.5729C46.4922 36.7171 46.1043 36.7517 45.7313 36.6725C45.3582 36.5933 45.0168 36.4037 44.75 36.1278C44.4833 35.852 44.3033 35.5021 44.2327 35.1226C44.1622 34.743 44.2044 34.3508 44.3538 33.9956C44.5033 33.6403 44.7534 33.3379 45.0725 33.1266C45.3915 32.9154 45.7653 32.8047 46.1464 32.8087C46.6573 32.8146 47.1451 33.0256 47.5026 33.3954C47.8602 33.7652 48.0584 34.2636 48.0537 34.7813Z" fill="#2F2E41"/>
<path d="M53.5594 34.838C53.5555 35.2242 53.4387 35.6005 53.2237 35.9194C53.0087 36.2383 52.7052 36.4855 52.3516 36.6296C51.9979 36.7737 51.6101 36.8084 51.237 36.7291C50.864 36.6499 50.5225 36.4604 50.2557 36.1845C49.989 35.9086 49.809 35.5588 49.7385 35.1792C49.668 34.7997 49.7101 34.4075 49.8596 34.0522C50.009 33.6969 50.2591 33.3945 50.5782 33.1833C50.8973 32.972 51.271 32.8614 51.6521 32.8653C52.163 32.8712 52.6508 33.0822 53.0083 33.4521C53.3659 33.8219 53.5641 34.3203 53.5594 34.838Z" fill="#3F3D56"/>
<path d="M59.0657 34.8946C59.0618 35.2808 58.9449 35.6571 58.7299 35.976C58.5149 36.2949 58.2114 36.5421 57.8578 36.6862C57.5042 36.8303 57.1163 36.865 56.7433 36.7858C56.3702 36.7065 56.0287 36.517 55.762 36.2411C55.4952 35.9652 55.3152 35.6154 55.2447 35.2359C55.1742 34.8563 55.2163 34.4641 55.3658 34.1088C55.5153 33.7536 55.7653 33.4512 56.0844 33.2399C56.4035 33.0287 56.7772 32.918 57.1584 32.922C57.6693 32.9279 58.157 33.1389 58.5146 33.5087C58.8722 33.8785 59.0703 34.3769 59.0657 34.8946Z" fill="#E6E6E6"/>
<path d="M31.1665 13.7991L13.4852 13.6153C13.3129 13.6134 13.1419 13.6459 12.982 13.7109C12.8221 13.776 12.6765 13.8723 12.5533 13.9945C12.4302 14.1166 12.332 14.2621 12.2644 14.4227C12.1968 14.5833 12.1611 14.7558 12.1594 14.9304C12.1576 15.105 12.1898 15.2782 12.2541 15.4401C12.3185 15.6021 12.4137 15.7496 12.5343 15.8743C12.6549 15.9989 12.7986 16.0983 12.9572 16.1667C13.1157 16.235 13.286 16.2711 13.4583 16.2727L31.1396 16.4565C31.3119 16.4585 31.4829 16.426 31.6428 16.3609C31.8027 16.2959 31.9483 16.1995 32.0715 16.0774C32.1946 15.9552 32.2928 15.8097 32.3604 15.6491C32.428 15.4886 32.4637 15.316 32.4654 15.1415C32.4672 14.9669 32.435 14.7937 32.3707 14.6317C32.3063 14.4697 32.2111 14.3222 32.0905 14.1976C31.9699 14.0729 31.8262 13.9735 31.6676 13.9052C31.5091 13.8368 31.3388 13.8008 31.1665 13.7991Z" fill="#E6E6E6"/>
<path d="M31.0928 21.0589L13.4114 20.8751C13.1113 20.8714 12.819 20.9722 12.5834 21.1607C12.3479 21.3492 12.1833 21.6139 12.1172 21.9105C12.0512 22.2072 12.0876 22.5179 12.2205 22.7906C12.3533 23.0633 12.5746 23.2815 12.8472 23.4088C13.0155 23.4886 13.1987 23.5308 13.3845 23.5325L31.0659 23.7163C31.2382 23.7183 31.4093 23.6859 31.5693 23.6209C31.7292 23.5559 31.875 23.4596 31.9982 23.3374C32.1214 23.2153 32.2197 23.0697 32.2873 22.9091C32.355 22.7485 32.3907 22.5759 32.3925 22.4012C32.3942 22.2266 32.362 22.0533 32.2976 21.8913C32.2332 21.7293 32.138 21.5817 32.0173 21.4571C31.8966 21.3324 31.7528 21.2331 31.5941 21.1647C31.4355 21.0964 31.2651 21.0604 31.0928 21.0589V21.0589Z" fill="#E6E6E6"/>
<path d="M31.0194 28.3206L13.3381 28.1368C13.1658 28.1349 12.9948 28.1674 12.8349 28.2324C12.675 28.2975 12.5294 28.3938 12.4062 28.516C12.2831 28.6381 12.1849 28.7836 12.1173 28.9442C12.0497 29.1048 12.014 29.2773 12.0123 29.4519C12.0105 29.6264 12.0427 29.7997 12.107 29.9616C12.1714 30.1236 12.2666 30.2711 12.3872 30.3958C12.5078 30.5204 12.6515 30.6198 12.8101 30.6882C12.9686 30.7565 13.1389 30.7926 13.3112 30.7942L30.9925 30.978C31.1649 30.98 31.3359 30.9476 31.4959 30.8826C31.6559 30.8176 31.8017 30.7213 31.9249 30.5991C32.0481 30.477 32.1463 30.3315 32.214 30.1708C32.2816 30.0102 32.3173 29.8376 32.3191 29.663C32.3209 29.4883 32.2886 29.315 32.2243 29.153C32.1599 28.991 32.0646 28.8434 31.9439 28.7188C31.8232 28.5941 31.6794 28.4948 31.5208 28.4264C31.3622 28.3581 31.1918 28.3221 31.0194 28.3206Z" fill="#E6E6E6"/>
<path d="M26.1348 13.7468L13.4852 13.6153C13.3129 13.6134 13.1419 13.6459 12.982 13.7109C12.8221 13.776 12.6765 13.8723 12.5533 13.9945C12.4302 14.1166 12.332 14.2621 12.2644 14.4227C12.1968 14.5833 12.1611 14.7558 12.1594 14.9304C12.1576 15.105 12.1898 15.2782 12.2541 15.4401C12.3185 15.6021 12.4137 15.7496 12.5343 15.8743C12.6549 15.9989 12.7986 16.0983 12.9572 16.1667C13.1157 16.235 13.286 16.2711 13.4583 16.2727L25.8443 16.4015C26.096 16.3001 26.3157 16.1312 26.4799 15.9129C26.6441 15.6947 26.7466 15.4353 26.7764 15.1625C26.8063 14.8898 26.7623 14.6139 26.6493 14.3646C26.5363 14.1152 26.3584 13.9016 26.1348 13.7468Z" fill="#2F2E41"/>
<path d="M20.2192 20.9459L13.4114 20.8751C13.1113 20.8714 12.819 20.9722 12.5834 21.1607C12.3479 21.3492 12.1833 21.6139 12.1172 21.9105C12.0512 22.2072 12.0876 22.5179 12.2205 22.7906C12.3533 23.0633 12.5746 23.2815 12.8472 23.4088L19.1 23.4738C19.496 23.4778 19.8773 23.3223 20.1601 23.0415C20.443 22.7607 20.6042 22.3776 20.6084 21.9764C20.6144 21.5949 20.475 21.2258 20.2192 20.9459Z" fill="#2F2E41"/>
<path d="M29.6983 28.3069L13.3381 28.1368C13.1658 28.1349 12.9948 28.1674 12.8349 28.2324C12.675 28.2975 12.5294 28.3938 12.4062 28.516C12.2831 28.6381 12.1849 28.7836 12.1173 28.9442C12.0497 29.1048 12.014 29.2773 12.0123 29.4519C12.0105 29.6264 12.0427 29.7997 12.107 29.9616C12.1714 30.1236 12.2666 30.2711 12.3872 30.3958C12.5078 30.5204 12.6515 30.6198 12.8101 30.6881C12.9686 30.7565 13.1389 30.7926 13.3112 30.7942L29.7768 30.9654C30.0101 30.8291 30.2027 30.6314 30.3339 30.3931C30.4651 30.1549 30.5302 29.8851 30.5221 29.6123C30.5141 29.3396 30.4332 29.0742 30.2881 28.8443C30.1431 28.6144 29.9393 28.4287 29.6983 28.3069H29.6983Z" fill="#2F2E41"/>
<path d="M98.0477 68.0053L96.1354 68.0052L95.226 60.5312L98.0484 60.5314L98.0477 68.0053Z" fill="#A0616A"/>
<path d="M94.7692 67.4512H98.4573V69.804H92.4471C92.4471 69.4951 92.5072 69.1891 92.6239 68.9036C92.7406 68.6182 92.9116 68.3588 93.1273 68.1403C93.3429 67.9218 93.5989 67.7485 93.8806 67.6303C94.1623 67.512 94.4643 67.4512 94.7692 67.4512Z" fill="#2F2E41"/>
<path d="M118.251 66.5572L116.403 67.0548L113.629 60.0686L116.357 59.334L118.251 66.5572Z" fill="#A0616A"/>
<path d="M114.942 66.8742L118.507 65.9144L119.103 68.1884L113.295 69.7524C113.136 69.1494 113.221 68.5073 113.53 67.9675C113.839 67.4278 114.347 67.0345 114.942 66.8742Z" fill="#2F2E41"/>
<path d="M106.213 13.5875C108.482 13.5875 110.322 11.7237 110.322 9.4246C110.322 7.12551 108.482 5.26172 106.213 5.26172C103.944 5.26172 102.105 7.12551 102.105 9.4246C102.105 11.7237 103.944 13.5875 106.213 13.5875Z" fill="#A0616A"/>
<path d="M114.193 64.8326L108.195 52.7605L102.571 39.6942L99.8787 50.8636L99.4666 64.1429C99.4618 64.326 99.3919 64.5011 99.2696 64.636C99.1473 64.7709 98.981 64.8564 98.8013 64.8766C97.3967 65.043 95.0213 65.1881 94.8938 64.2917C93.141 51.9815 93.3987 44.9825 93.9235 41.2787C94.4951 37.2452 95.4765 36.1472 95.5179 36.1024L95.5459 36.0723L110.172 37.4275L110.228 37.4327L114.158 50.3436L118.853 63.3734C118.889 63.4734 118.904 63.58 118.897 63.6862C118.89 63.7924 118.861 63.896 118.812 63.9902C118.763 64.0844 118.695 64.1672 118.613 64.2332C118.53 64.2993 118.435 64.3471 118.333 64.3736L115.053 65.2284C114.992 65.2441 114.93 65.252 114.868 65.252C114.728 65.2519 114.591 65.2127 114.472 65.1387C114.353 65.0647 114.256 64.9587 114.193 64.8326Z" fill="#2F2E41"/>
<path d="M115.111 36.3819L113.323 25.5135L113.764 22.8226C114.139 20.5333 113.802 18.1826 112.801 16.0957L110.332 27.9562L113.488 36.8654C113.237 37.1365 113.08 37.4839 113.043 37.854C113.006 38.2241 113.09 38.5964 113.282 38.9133C113.474 39.2303 113.764 39.4743 114.107 39.6078C114.449 39.7412 114.826 39.7566 115.178 39.6517C115.53 39.5468 115.839 39.3273 116.056 39.0271C116.273 38.7269 116.386 38.3628 116.378 37.9908C116.371 37.6189 116.243 37.2598 116.014 36.969C115.784 36.6783 115.467 36.4719 115.111 36.3819Z" fill="#A0616A"/>
<path d="M97.2152 25.5861L91.8655 35.1789C91.5 35.1398 91.132 35.2236 90.8182 35.4175C90.5044 35.6114 90.2624 35.9046 90.1294 36.2517C89.9964 36.5989 89.9799 36.9808 90.0824 37.3384C90.185 37.696 90.4008 38.0095 90.6967 38.2304C90.9925 38.4513 91.3519 38.5675 91.7194 38.5608C92.0868 38.5542 92.4419 38.4252 92.7298 38.1938C93.0177 37.9623 93.2225 37.6412 93.3124 37.2802C93.4023 36.9191 93.3724 36.5381 93.2273 36.1959L99.2015 28.9186L100.886 16.918C99.2408 18.5318 98.1307 20.6239 97.7098 22.9049L97.2152 25.5861Z" fill="#A0616A"/>
<path d="M109.274 38.5726L95.9324 37.0963C95.7479 37.0759 95.5708 37.0118 95.4152 36.9093C95.2597 36.8067 95.1302 36.6685 95.0371 36.5058C94.944 36.3431 94.89 36.1605 94.8795 35.9728C94.8689 35.785 94.9021 35.5974 94.9763 35.4251L97.2458 30.1545C97.8779 28.686 98.3319 27.1453 98.5979 25.5661L98.8361 24.151C99.0218 22.9874 99.0441 21.803 98.9024 20.6331C98.8445 20.0346 98.8708 19.4308 98.9804 18.8398C99.0834 18.2493 99.352 17.7013 99.754 17.2612C100.156 16.8211 100.674 16.5075 101.248 16.3578L103.677 15.721L103.744 15.5375C103.802 15.3746 103.907 15.2332 104.046 15.1316C104.185 15.0299 104.35 14.9726 104.521 14.9671C104.643 14.9618 104.764 14.9839 104.877 15.0319L106.018 15.5066L108.511 14.2778C108.59 14.2384 108.675 14.2108 108.763 14.1956C108.981 14.1572 109.206 14.1986 109.397 14.3123C109.588 14.426 109.734 14.6047 109.807 14.8167L109.832 14.8897L112.066 14.9162C112.574 14.9227 113.063 15.1172 113.439 15.4632C113.816 15.8091 114.055 16.2827 114.111 16.7947L114.275 18.3028L111.295 28.0415C110.478 30.7211 110.276 33.554 110.703 36.3247L110.801 36.9511C110.832 37.1521 110.82 37.3576 110.765 37.5534C110.711 37.7493 110.615 37.9309 110.485 38.0857C110.354 38.2406 110.193 38.365 110.01 38.4505C109.828 38.536 109.63 38.5806 109.429 38.5811C109.377 38.5811 109.326 38.5783 109.274 38.5726Z" fill="#3F3D56"/>
<path d="M112.003 17.3642L113.497 17.1426L113.953 17.6849C114.195 17.9733 114.335 18.3351 114.351 18.7131L114.564 23.921C114.576 24.2045 114.517 24.4865 114.393 24.7406C114.268 24.9947 114.082 25.2126 113.852 25.3738L109.497 28.4381L112.003 17.3642Z" fill="#3F3D56"/>
<path d="M97.3315 25.1757C97.1604 24.9511 97.0483 24.6862 97.0058 24.4057C96.9633 24.1251 96.9919 23.8383 97.0887 23.572L98.8545 18.6764C98.9832 18.3213 99.2251 18.0197 99.5419 17.8195L100.139 17.4434L101.496 18.115L100.56 29.4365L97.3315 25.1757Z" fill="#3F3D56"/>
<path d="M107.743 7.71306C106.596 8.76534 104.959 9.37199 103.466 8.95906C101.973 8.54614 100.801 6.93136 101.159 5.40577C101.517 3.88018 103.634 3.01783 104.781 4.07033C106.854 2.40908 110.187 2.69609 111.954 4.68795C113.72 6.6798 113.647 10.0687 111.796 11.9804C110.703 13.1099 108.653 13.0491 107.626 11.8567C106.6 10.6644 106.819 8.59808 107.743 7.71306Z" fill="#2F2E41"/>
<path d="M139.833 69.9991H76.1014C76.057 69.9991 76.0144 69.9813 75.9831 69.9495C75.9517 69.9177 75.9341 69.8746 75.9341 69.8296C75.9341 69.7847 75.9517 69.7416 75.9831 69.7098C76.0144 69.678 76.057 69.6602 76.1014 69.6602H139.833C139.877 69.6602 139.92 69.678 139.951 69.7098C139.983 69.7416 140 69.7847 140 69.8296C140 69.8746 139.983 69.9177 139.951 69.9495C139.92 69.9813 139.877 69.9991 139.833 69.9991Z" fill="#CCCCCC"/>
<path d="M69.5776 60.8468H5.84611C5.80174 60.8468 5.7592 60.8289 5.72783 60.7971C5.69646 60.7654 5.67883 60.7223 5.67883 60.6773C5.67883 60.6324 5.69646 60.5892 5.72783 60.5575C5.7592 60.5257 5.80174 60.5078 5.84611 60.5078H69.5776C69.622 60.5078 69.6645 60.5257 69.6959 60.5575C69.7273 60.5892 69.7449 60.6324 69.7449 60.6773C69.7449 60.7223 69.7273 60.7654 69.6959 60.7971C69.6645 60.8289 69.622 60.8468 69.5776 60.8468Z" fill="#CCCCCC"/>
</g>
<defs>
<clipPath id="clip0">
<rect width="140" height="70" fill="white"/>
</clipPath>
</defs>
</svg>
