<svg width="114" height="82" viewBox="0 0 114 82" fill="none" xmlns="http://www.w3.org/2000/svg">
<g clip-path="url(#clip0)">
<path opacity="0.1" d="M111.447 65.5184C108.655 71.2794 102.983 75.1317 97.1076 77.6722C92.4032 79.6928 87.4305 81.0198 82.345 81.6117C81.3709 81.7273 80.3938 81.817 79.4135 81.8808C76.9085 82.044 74.3954 82.0412 71.8908 81.8723C70.3842 81.7721 68.8829 81.612 67.3869 81.392C62.1886 80.6336 57.1206 79.1578 52.3278 77.0068C50.9446 76.3839 49.5894 75.7038 48.2622 74.9667C46.0455 73.738 43.9215 72.349 41.9073 70.8106C41.4616 70.4701 41.0216 70.1222 40.5871 69.7669L40.4085 69.6208C40.0668 69.3391 39.7284 69.0511 39.3847 68.7715C38.8134 68.2929 38.207 67.858 37.5705 67.4703C37.5274 67.445 37.4843 67.4198 37.4402 67.3956C37.3224 67.3273 37.2026 67.2632 37.0807 67.2022C36.8295 67.0756 36.572 66.9619 36.3092 66.8617C35.0952 66.3992 33.795 66.231 32.4769 66.2594C32.2583 66.2594 32.0396 66.2741 31.82 66.2888C31.5131 66.3098 31.2051 66.3414 30.8982 66.3813L30.7846 66.3971C29.8066 66.5355 28.8396 66.7431 27.891 67.0183C26.4258 67.4387 24.9868 67.9643 23.5384 68.4383C22.9235 68.6412 22.3076 68.8346 21.6864 69.008L21.5497 69.0458C20.6662 69.2944 19.7669 69.4826 18.8579 69.6092C16.7922 69.8733 14.6942 69.7044 12.6974 69.1131L12.6281 69.0931L12.4998 69.0553L12.3243 69.0006C12.03 68.9082 11.7381 68.8069 11.4487 68.6969L11.2732 68.6296C10.9929 68.5217 10.7186 68.4057 10.4502 68.2817L10.2747 68.2018C9.99438 68.0715 9.72004 67.9338 9.45166 67.7887C9.35496 67.7383 9.25931 67.6836 9.16471 67.6321C8.87881 67.4724 8.59852 67.3049 8.32384 67.1297C8.03233 66.944 7.74714 66.7503 7.46825 66.5484C7.33931 66.4559 7.21178 66.361 7.08565 66.2636C6.35855 65.7075 5.67767 65.0934 5.04968 64.4273C5.015 64.3927 4.98241 64.3569 4.94983 64.3222C4.78271 64.1414 4.61873 63.9575 4.46002 63.7694C4.40116 63.7 4.3423 63.6306 4.28449 63.5591C4.09599 63.3293 3.91415 63.0942 3.73897 62.8538C3.71269 62.8192 3.68747 62.7834 3.66224 62.7487C2.94407 61.7555 2.34868 60.6791 1.88905 59.5429C1.87433 59.5082 1.86067 59.4725 1.84805 59.4378C1.70791 59.0769 1.58002 58.7101 1.4644 58.3373C1.41711 58.1817 1.37191 58.022 1.33197 57.8664C1.3183 57.8202 1.30569 57.7729 1.29413 57.7266C0.713924 55.4426 0.647705 53.0682 0.647705 50.7074C0.647705 50.432 0.647705 50.157 0.647705 49.8823C0.664523 46.0637 0.723384 42.1799 1.28677 38.4138C1.28677 38.3875 1.29413 38.3613 1.29833 38.336C1.48689 37.0682 1.74338 35.8114 2.06668 34.571C2.40505 33.2695 2.83748 31.9944 3.36058 30.7555C4.65657 27.7074 6.54118 24.9335 8.63391 22.3625C11.1565 19.2692 14.047 16.4144 17.2665 14.0589C17.729 13.7205 18.1978 13.3918 18.6729 13.073L18.8926 12.929C18.9693 12.8775 19.046 12.8239 19.1228 12.7787C19.2804 12.6736 19.4381 12.5748 19.5979 12.4749L19.7765 12.3635L20.1171 12.1533L20.2222 12.0934L20.4041 11.9882L20.5838 11.8831C20.794 11.7591 21.0067 11.6379 21.2218 11.5195C22.1405 11.0072 23.0808 10.5391 24.0429 10.1152C24.3267 9.98977 24.6123 9.86889 24.8996 9.75257C26.2039 9.22134 27.5438 8.78196 28.9095 8.43765C29.414 8.31012 29.9217 8.198 30.4325 8.1013C31.0352 7.98498 31.6409 7.88863 32.2499 7.81225C33.2189 7.69033 34.1934 7.61771 35.1698 7.59467C42.0355 7.42755 48.9707 9.66218 54.3512 13.9454C56.4954 15.6524 58.4221 17.6736 60.8301 18.9822C62.9323 20.1216 65.3929 20.5936 67.6444 19.697C69.5048 18.956 70.7157 18.5881 72.8052 18.7005C77.1291 18.9441 81.3918 19.8356 85.4509 21.3451C85.6149 21.405 85.7789 21.467 85.9418 21.529C96.5274 25.581 105.629 33.6271 110.357 43.9667C110.481 44.24 110.603 44.5154 110.721 44.7929C113.541 51.378 114.559 59.0983 111.447 65.5184Z" fill="#404040"/>
<path opacity="0.1" d="M21.6833 29.1571V69.0103L21.5466 69.0482C20.6631 69.2967 19.7638 69.4849 18.8548 69.6116C16.7891 69.8757 14.6911 69.7067 12.6943 69.1155L12.625 69.0955L12.4967 69.0576L12.3212 69.003C12.0269 68.9105 11.735 68.8092 11.4456 68.6992L11.2701 68.632C10.9898 68.524 10.7155 68.4081 10.4471 68.284L10.2716 68.2042C9.99126 68.0738 9.71693 67.9361 9.44855 67.7911C9.35185 67.7406 9.2562 67.686 9.1616 67.6345C8.8757 67.4747 8.59541 67.3072 8.32073 67.132C8.02922 66.9464 7.74403 66.7526 7.46514 66.5508C7.3362 66.4583 7.20867 66.3633 7.08254 66.2659C6.35544 65.7098 5.67456 65.0957 5.04657 64.4297C5.01188 64.395 4.9793 64.3593 4.94672 64.3246C4.77959 64.1438 4.61562 63.9599 4.45691 63.7717C4.39805 63.7023 4.33919 63.633 4.28138 63.5615C4.09288 63.3316 3.91104 63.0965 3.73586 62.8562C3.70958 62.8215 3.68435 62.7858 3.65913 62.7511C2.94095 61.7579 2.34557 60.6815 1.88593 59.5453C1.87122 59.5106 1.85755 59.4748 1.84494 59.4401C1.7048 59.0793 1.57691 58.7124 1.46129 58.3397C1.41399 58.1841 1.3688 58.0243 1.32885 57.8688C1.31519 57.8225 1.30258 57.7752 1.29101 57.729C0.710811 55.4449 0.644592 53.0705 0.644592 50.7098C0.644592 50.4344 0.644592 50.1594 0.644592 49.8847C0.66141 46.066 0.720271 42.1823 1.28366 38.4162C1.28366 38.3899 1.29101 38.3636 1.29522 38.3384C1.48378 37.0706 1.74027 35.8137 2.06357 34.5734H12.7973V29.1571H14.9374V24.8066H19.5432V29.1571H21.6833Z" fill="#404040"/>
<path opacity="0.1" d="M111.447 65.517C108.655 71.278 102.983 75.1303 97.1076 77.6708C92.4033 79.6914 87.4306 81.0184 82.345 81.6103C81.371 81.7259 80.3938 81.8156 79.4135 81.8794C76.9085 82.0426 74.3955 82.0398 71.8908 81.8709C70.3843 81.7707 68.883 81.6106 67.3869 81.3906C62.1886 80.6322 57.1206 79.1564 52.3279 77.0054C50.9446 76.3825 49.5894 75.7024 48.2622 74.9653C46.0455 73.7366 43.9216 72.3476 41.9073 70.8092C41.4617 70.4687 41.0216 70.1208 40.5872 69.7655L40.4085 69.6194C40.0669 69.3377 39.7284 69.0497 39.3847 68.7701C38.8134 68.2916 38.207 67.8566 37.5705 67.4689C37.5274 67.4436 37.4843 67.4184 37.4402 67.3942C37.3225 67.3259 37.2026 67.2618 37.0807 67.2008C36.8295 67.0742 36.572 66.9605 36.3092 66.8603V50.5568H55.8165V54.1862H64.3776V27.6377H74.4544V38.2537H79.4387V31.9682H83.5569V25.2538H85.4489V21.3438C85.6129 21.4037 85.7768 21.4657 85.9398 21.5277V25.2538H87.7813V31.9724H91.8963V38.2579H97.9643V62.205H107.609V44.7894H110.717C113.541 51.3766 114.559 59.0969 111.447 65.517Z" fill="#404040"/>
<path opacity="0.1" d="M71.893 31.6328H67.389V36.1368H71.893V31.6328Z" fill="#404040"/>
<path opacity="0.1" d="M71.893 40.9707H67.389V45.4746H71.893V40.9707Z" fill="#404040"/>
<path opacity="0.1" d="M71.893 50.3066H67.389V54.8106H71.893V50.3066Z" fill="#404040"/>
<path opacity="0.1" d="M71.893 59.6426H67.389V64.1465H71.893V59.6426Z" fill="#404040"/>
<path opacity="0.1" d="M71.893 68.9785H67.389V73.4825H71.893V68.9785Z" fill="#404040"/>
<path opacity="0.1" d="M71.893 78.3145V81.8714C70.3864 81.7712 68.8851 81.6111 67.389 81.3911V78.3145H71.893Z" fill="#404040"/>
<path opacity="0.1" d="M53.5598 56.3789H37.7944V58.4191H53.5598V56.3789Z" fill="#404040"/>
<path opacity="0.1" d="M53.5598 62.5742H37.7944V64.6144H53.5598V62.5742Z" fill="#404040"/>
<path opacity="0.1" d="M53.5598 68.7715V70.8106H41.9095C41.4638 70.4701 41.0237 70.1222 40.5893 69.7669L40.4106 69.6208C40.069 69.3391 39.7305 69.0511 39.3868 68.7715H53.5598Z" fill="#404040"/>
<path opacity="0.1" d="M53.5598 74.9668V77.0069H52.33C50.9468 76.384 49.5916 75.704 48.2644 74.9668H53.5598Z" fill="#404040"/>
<path opacity="0.1" d="M82.3471 43.8301H79.4156V46.7616H82.3471V43.8301Z" fill="#404040"/>
<path opacity="0.1" d="M18.8611 30.168H15.9296V33.0995H18.8611V30.168Z" fill="#404040"/>
<path opacity="0.1" d="M18.8611 36.9785H15.9296V39.91H18.8611V36.9785Z" fill="#404040"/>
<path opacity="0.1" d="M18.8611 43.7891H15.9296V46.7206H18.8611V43.7891Z" fill="#404040"/>
<path opacity="0.1" d="M18.8611 50.5996H15.9296V53.5311H18.8611V50.5996Z" fill="#404040"/>
<path opacity="0.1" d="M18.8611 57.4102H15.9296V60.3417H18.8611V57.4102Z" fill="#404040"/>
<path opacity="0.1" d="M18.8611 64.2207H15.9296V67.1522H18.8611V64.2207Z" fill="#404040"/>
<path opacity="0.1" d="M93.5402 43.8301H90.6087V46.7616H93.5402V43.8301Z" fill="#404040"/>
<path opacity="0.1" d="M82.3471 51.0605H79.4156V53.992H82.3471V51.0605Z" fill="#404040"/>
<path opacity="0.1" d="M93.5402 51.0605H90.6087V53.992H93.5402V51.0605Z" fill="#404040"/>
<path opacity="0.1" d="M82.3471 58.293H79.4156V61.2245H82.3471V58.293Z" fill="#404040"/>
<path opacity="0.1" d="M93.5402 58.293H90.6087V61.2245H93.5402V58.293Z" fill="#404040"/>
<path opacity="0.1" d="M82.3471 65.5254H79.4156V68.4569H82.3471V65.5254Z" fill="#404040"/>
<path opacity="0.1" d="M93.5402 65.5254H90.6087V68.4569H93.5402V65.5254Z" fill="#404040"/>
<path opacity="0.1" d="M82.3471 72.7578H79.4156V75.6893H82.3471V72.7578Z" fill="#404040"/>
<path opacity="0.1" d="M93.5402 72.7578H90.6087V75.6893H93.5402V72.7578Z" fill="#404040"/>
<path opacity="0.1" d="M79.4156 81.8792V79.9883H82.3471V81.6101L79.4156 81.8792Z" fill="#404040"/>
<path opacity="0.1" d="M1.28473 38.3379V40.0196H12.4967V38.3379H1.28473ZM2.28327 39.9145H1.46026V38.443H2.28327V39.9145ZM3.28181 39.9145H2.4588V38.443H3.28181V39.9145ZM4.28034 39.9145H3.45734V38.443H4.28034V39.9145ZM5.27888 39.9145H4.45588V38.443H5.27888V39.9145ZM6.27742 39.9145H5.45441V38.443H6.27742V39.9145ZM7.27596 39.9145H6.45295V38.443H7.27596V39.9145ZM8.2745 39.9145H7.45149V38.443H8.2745V39.9145ZM9.27303 39.9145H8.45003V38.443H9.27303V39.9145ZM10.2716 39.9145H9.44857V38.443H10.2716V39.9145ZM11.2701 39.9145H10.4471V38.443H11.2701V39.9145ZM12.3212 39.9145H11.4456V38.443H12.3212V39.9145Z" fill="#404040"/>
<path opacity="0.1" d="M1.28473 43.2227V44.8991H12.4967V43.2227H1.28473ZM2.28327 44.794H1.46026V43.3278H2.28327V44.794ZM3.28181 44.794H2.4588V43.3278H3.28181V44.794ZM4.28034 44.794H3.45734V43.3278H4.28034V44.794ZM5.27888 44.794H4.45588V43.3278H5.27888V44.794ZM6.27742 44.794H5.45441V43.3278H6.27742V44.794ZM7.27596 44.794H6.45295V43.3278H7.27596V44.794ZM8.2745 44.794H7.45149V43.3278H8.2745V44.794ZM9.27303 44.794H8.45003V43.3278H9.27303V44.794ZM10.2716 44.794H9.44857V43.3278H10.2716V44.794ZM11.2701 44.794H10.4471V43.3278H11.2701V44.794ZM12.3212 44.794H11.4456V43.3278H12.3212V44.794Z" fill="#404040"/>
<path opacity="0.1" d="M1.28473 48.1035V49.78H12.4967V48.1035H1.28473ZM2.28327 49.6749H1.46026V48.2086H2.28327V49.6749ZM3.28181 49.6749H2.4588V48.2086H3.28181V49.6749ZM4.28034 49.6749H3.45734V48.2086H4.28034V49.6749ZM5.27888 49.6749H4.45588V48.2086H5.27888V49.6749ZM6.27742 49.6749H5.45441V48.2086H6.27742V49.6749ZM7.27596 49.6749H6.45295V48.2086H7.27596V49.6749ZM8.2745 49.6749H7.45149V48.2086H8.2745V49.6749ZM9.27303 49.6749H8.45003V48.2086H9.27303V49.6749ZM10.2716 49.6749H9.44857V48.2086H10.2716V49.6749ZM11.2701 49.6749H10.4471V48.2086H11.2701V49.6749ZM12.3212 49.6749H11.4456V48.2086H12.3212V49.6749Z" fill="#404040"/>
<path opacity="0.1" d="M1.28473 52.9824V54.6641H12.4967V52.9824H1.28473ZM2.28327 54.559H1.46026V53.0875H2.28327V54.559ZM3.28181 54.559H2.4588V53.0875H3.28181V54.559ZM4.28034 54.559H3.45734V53.0875H4.28034V54.559ZM5.27888 54.559H4.45588V53.0875H5.27888V54.559ZM6.27742 54.559H5.45441V53.0875H6.27742V54.559ZM7.27596 54.559H6.45295V53.0875H7.27596V54.559ZM8.2745 54.559H7.45149V53.0875H8.2745V54.559ZM9.27303 54.559H8.45003V53.0875H9.27303V54.559ZM10.2716 54.559H9.44857V53.0875H10.2716V54.559ZM11.2701 54.559H10.4471V53.0875H11.2701V54.559ZM12.3212 54.559H11.4456V53.0875H12.3212V54.559Z" fill="#404040"/>
<path opacity="0.1" d="M1.32782 57.8691C1.36776 58.0268 1.41296 58.1845 1.46026 58.34V57.9742H2.28326V59.4458H1.84391C1.85652 59.4804 1.87018 59.5162 1.8849 59.5509H12.5009V57.8691H1.32782ZM3.2818 59.4458H2.4588V57.9742H3.2818V59.4458ZM4.28034 59.4458H3.45733V57.9742H4.28034V59.4458ZM5.27888 59.4458H4.45587V57.9742H5.27888V59.4458ZM6.27742 59.4458H5.45441V57.9742H6.27742V59.4458ZM7.27595 59.4458H6.45295V57.9742H7.27595V59.4458ZM8.27449 59.4458H7.45149V57.9742H8.27449V59.4458ZM9.27303 59.4458H8.45002V57.9742H9.27303V59.4458ZM10.2716 59.4458H9.44856V57.9742H10.2716V59.4458ZM11.2701 59.4458H10.4471V57.9742H11.2701V59.4458ZM12.3212 59.4458H11.4456V57.9742H12.3212V59.4458Z" fill="#404040"/>
<path opacity="0.1" d="M3.65808 62.752C3.68331 62.7866 3.70853 62.8224 3.73481 62.8571H4.28033V63.5624C4.33814 63.6328 4.397 63.7022 4.45586 63.7726V62.8581H5.27887V64.3297H4.94567C4.97825 64.3644 5.01084 64.4001 5.04552 64.4348H12.4967V62.753L3.65808 62.752ZM6.2774 64.3286H5.4544V62.8571H6.2774V64.3286ZM7.27594 64.3286H6.45294V62.8571H7.27594V64.3286ZM8.27448 64.3286H7.45147V62.8571H8.27448V64.3286ZM9.27302 64.3286H8.45001V62.8571H9.27302V64.3286ZM10.2716 64.3286H9.44855V62.8571H10.2716V64.3286ZM11.2701 64.3286H10.4471V62.8571H11.2701V64.3286ZM12.3212 64.3286H11.4456V62.8571H12.3212V64.3286Z" fill="#404040"/>
<path opacity="0.1" d="M9.16162 67.6328C9.25622 67.6864 9.35187 67.7379 9.44857 67.7894V67.7379H10.2716V68.2025L10.4471 68.2824V67.7379H11.2701V68.6303L11.4456 68.6976V67.7379H12.3212V68.9992L12.4967 69.0539V67.6328H9.16162Z" fill="#404040"/>
<path opacity="0.6" d="M43.7342 23.7806C43.7342 23.7806 41.2283 23.6293 41.5268 25.3846C41.5115 25.4738 41.5248 25.5656 41.5649 25.6468C41.6049 25.7279 41.6696 25.7944 41.7497 25.8366C41.7497 25.8366 41.7497 25.7062 42.0061 25.7504C42.0961 25.7652 42.1874 25.7694 42.2784 25.763C42.4013 25.7549 42.5183 25.7069 42.6116 25.6263C42.6116 25.6263 43.3158 25.3352 43.5902 24.1842C43.5902 24.1842 43.792 23.933 43.7846 23.8689L43.3642 24.0497C43.3642 24.0497 43.5092 24.3545 43.3957 24.6078C43.3957 24.6078 43.382 24.0613 43.3001 24.0739C43.2843 24.0739 43.0804 24.179 43.0804 24.179C43.0804 24.179 43.3295 24.7108 43.1413 25.0966C43.1413 25.0966 43.2128 24.4428 43.0036 24.2179L42.6988 24.3934C42.6988 24.3934 42.99 24.9421 42.7924 25.3898C42.7924 25.3898 42.8439 24.7035 42.6368 24.4365L42.3667 24.6467C42.3667 24.6467 42.64 25.187 42.4718 25.5591C42.4718 25.5591 42.4497 24.7592 42.3068 24.6982C42.2042 24.7847 42.1127 24.8835 42.0345 24.9925C42.0345 24.9925 42.2216 25.3846 42.106 25.5917C42.106 25.5917 42.0345 25.0598 41.9757 25.0566C41.9757 25.0566 41.7413 25.4098 41.7171 25.6516C41.7279 25.4273 41.7975 25.2098 41.9189 25.0209C41.7835 25.0465 41.6585 25.1112 41.5594 25.207C41.5594 25.207 41.5962 24.9578 41.9799 24.9358C41.9799 24.9358 42.1743 24.6688 42.2269 24.652C42.2269 24.652 41.8474 24.6204 41.6172 24.7224C41.6172 24.7224 41.8201 24.487 42.2962 24.5942L42.5622 24.3766C42.5622 24.3766 42.0629 24.3083 41.8516 24.3839C41.8516 24.3839 42.0944 24.1737 42.6337 24.3272L42.9238 24.1538C42.7009 24.105 42.4727 24.0852 42.2447 24.0949C42.2447 24.0949 42.5117 23.9509 43.0089 24.1075L43.2191 24.014C43.2191 24.014 42.9038 23.953 42.8165 23.9435C42.7293 23.9341 42.7198 23.9089 42.7198 23.9089C42.9173 23.8759 43.12 23.8985 43.3053 23.974C43.3053 23.974 43.7415 23.8079 43.7342 23.7806Z" fill="#37B57E"/>
<path opacity="0.6" d="M37.1564 32.3218C37.1564 32.3218 36.2998 34.6804 38.0677 34.8959C38.1487 34.9357 38.2401 34.949 38.329 34.9337C38.418 34.9184 38.4998 34.8754 38.5628 34.8108C38.5628 34.8108 38.4398 34.7698 38.5533 34.5396C38.5931 34.4578 38.6234 34.3718 38.6437 34.2831C38.6703 34.1627 38.657 34.0369 38.6059 33.9247C38.6059 33.9247 38.527 33.1669 37.5012 32.5772C37.5012 32.5772 37.3183 32.3113 37.2542 32.3008L37.3067 32.758C37.3067 32.758 37.6399 32.7055 37.8512 32.8862C37.8512 32.8862 37.3256 32.7443 37.312 32.8263C37.312 32.8421 37.3509 33.067 37.3509 33.067C37.3509 33.067 37.9311 32.9787 38.2474 33.2688C38.2474 33.2688 37.6399 33.0145 37.3656 33.1522L37.4476 33.4864C37.4476 33.4864 38.0561 33.3645 38.4293 33.6798C38.4293 33.6798 37.786 33.437 37.4707 33.5589L37.5958 33.8743C37.5958 33.8743 38.1917 33.7692 38.5007 34.0309C38.5007 34.0309 37.7271 33.8207 37.6294 33.9447C37.6832 34.0671 37.7517 34.1825 37.8333 34.2884C37.8333 34.2884 38.2632 34.2211 38.4282 34.3935C38.4282 34.3935 37.8974 34.3105 37.8785 34.3651C37.8785 34.3651 38.1507 34.691 38.3757 34.7856C38.1644 34.7108 37.9764 34.5822 37.8301 34.4124C37.8162 34.5498 37.8429 34.6883 37.9069 34.8108C37.9069 34.8108 37.6777 34.7057 37.765 34.3325C37.765 34.3325 37.5632 34.0708 37.5632 34.0172C37.5632 34.0172 37.4244 34.3714 37.4581 34.6216C37.4581 34.6216 37.2899 34.3599 37.5274 33.9342L37.395 33.6188C37.395 33.6188 37.1848 34.0782 37.1995 34.3031C37.1995 34.3031 37.0692 34.0098 37.3677 33.5358L37.2846 33.2089C37.1746 33.4075 37.0909 33.6195 37.0355 33.8396C37.0355 33.8396 36.9725 33.5421 37.2636 33.1101L37.2331 32.8852C37.2331 32.8852 37.086 33.1669 37.0513 33.252C37.0166 33.3372 36.9903 33.334 36.9903 33.334C37.0145 33.1352 37.0935 32.9471 37.2184 32.7906C37.2184 32.7906 37.1848 32.3218 37.1564 32.3218Z" fill="#37B57E"/>
<path opacity="0.6" d="M53.7669 30.3326C53.7669 30.3326 52.9113 32.6955 54.6781 32.9057C54.7594 32.9455 54.8511 32.9586 54.9402 32.9431C55.0293 32.9276 55.1112 32.8844 55.1743 32.8195C55.1743 32.8195 55.0502 32.7785 55.1648 32.5494C55.2049 32.4675 55.2349 32.381 55.2542 32.2919C55.2811 32.1716 55.2682 32.0458 55.2174 31.9334C55.2174 31.9334 55.1385 31.1756 54.1127 30.5859C54.1127 30.5859 53.9287 30.3211 53.8646 30.3105L53.9182 30.7667C53.9182 30.7667 54.2514 30.7152 54.4627 30.896C54.4627 30.896 53.9371 30.7541 53.9224 30.835C53.9224 30.8519 53.9613 31.0757 53.9613 31.0757C53.9613 31.0757 54.5415 30.9885 54.8589 31.2776C54.8589 31.2776 54.2514 31.0242 53.976 31.1609L54.0591 31.4962C54.0591 31.4962 54.6676 31.3732 55.0408 31.6896C55.0408 31.6896 54.3965 31.4457 54.0811 31.5677L54.2062 31.883C54.2062 31.883 54.8022 31.7779 55.1112 32.0396C55.1112 32.0396 54.3386 31.8294 54.2398 31.9545C54.2954 32.0773 54.366 32.1928 54.4501 32.2982C54.4501 32.2982 54.8789 32.2299 55.045 32.4033C55.045 32.4033 54.5142 32.3203 54.4953 32.376C54.4953 32.376 54.7664 32.7008 54.9914 32.7964C54.7803 32.722 54.5925 32.5933 54.4469 32.4233C54.433 32.5606 54.4593 32.699 54.5226 32.8216C54.5226 32.8216 54.2945 32.7165 54.3817 32.3444C54.3817 32.3444 54.1799 32.0817 54.1789 32.0291C54.1789 32.0291 54.0412 32.3844 54.0738 32.6335C54.0738 32.6335 53.9056 32.3728 54.1431 31.9461L54.0107 31.6307C54.0107 31.6307 53.8005 32.0901 53.8152 32.3139C53.8152 32.3139 53.6849 32.0217 53.9834 31.5477L53.8993 31.2197C53.7893 31.4183 53.7056 31.6303 53.6502 31.8504C53.6502 31.8504 53.5882 31.5529 53.8793 31.1209L53.8488 30.896C53.8488 30.896 53.7017 31.1777 53.666 31.2628C53.6302 31.348 53.605 31.3448 53.605 31.3448C53.6299 31.146 53.7092 30.958 53.8341 30.8014C53.8341 30.8014 53.7963 30.3337 53.7669 30.3326Z" fill="#37B57E"/>
<path opacity="0.1" d="M30.0227 49.6196C30.0227 49.6196 29.166 51.9793 30.934 52.1948C31.015 52.2346 31.1066 52.2478 31.1955 52.2323C31.2845 52.2168 31.3662 52.1735 31.429 52.1086C31.429 52.1086 31.3061 52.0676 31.4196 51.8384C31.46 51.7566 31.4903 51.6701 31.51 51.5809C31.5371 51.4605 31.5238 51.3346 31.4721 51.2225C31.4721 51.2225 31.3933 50.4647 30.3674 49.876C30.3674 49.876 30.1845 49.6101 30.1204 49.5996L30.173 50.0558C30.173 50.0558 30.5072 50.0043 30.7174 50.1851C30.7174 50.1851 30.1919 50.0432 30.1782 50.1241C30.1782 50.1409 30.2171 50.3648 30.2171 50.3648C30.2171 50.3648 30.7973 50.2776 31.1137 50.5666C31.1137 50.5666 30.5062 50.3133 30.2318 50.4499L30.3138 50.7852C30.3138 50.7852 30.9224 50.6623 31.2955 50.9786C31.2955 50.9786 30.6523 50.7348 30.3369 50.8567L30.462 51.1721C30.462 51.1721 31.058 51.0669 31.367 51.3287C31.367 51.3287 30.5945 51.1184 30.4957 51.2435C30.5495 51.3659 30.618 51.4813 30.6996 51.5872C30.6996 51.5872 31.1295 51.5189 31.2955 51.6923C31.2955 51.6923 30.7637 51.6093 30.7448 51.665C30.7448 51.665 31.017 51.9898 31.2419 52.0855C31.0307 52.0113 30.8426 51.883 30.6964 51.7134C30.6825 51.8505 30.7092 51.9886 30.7732 52.1107C30.7732 52.1107 30.544 52.0056 30.6313 51.6335C30.6313 51.6335 30.4305 51.3707 30.4294 51.3181C30.4294 51.3181 30.2907 51.6734 30.3243 51.9225C30.3243 51.9225 30.1562 51.6619 30.3937 51.2351L30.2613 50.9198C30.2613 50.9198 30.0511 51.3791 30.0668 51.603C30.0668 51.603 29.9365 51.3108 30.235 50.8368L30.1509 50.5099C30.0407 50.7083 29.957 50.9203 29.9018 51.1405C29.9018 51.1405 29.8387 50.842 30.1299 50.4111L30.0994 50.1851C30.0994 50.1851 29.9522 50.4668 29.9176 50.5519C29.8829 50.637 29.8566 50.6339 29.8566 50.6339C29.8809 50.435 29.9603 50.2467 30.0857 50.0905C30.0857 50.0905 30.0511 49.6196 30.0227 49.6196Z" fill="#404040"/>
<path opacity="0.1" d="M26.6234 27.3784C26.6234 27.3784 25.7678 29.7371 27.5347 29.9526C27.6158 29.9923 27.7074 30.0055 27.7965 29.9902C27.8855 29.9749 27.9675 29.932 28.0308 29.8674C28.0308 29.8674 27.9068 29.8264 28.0213 29.5963C28.061 29.5142 28.0909 29.4277 28.1107 29.3387C28.1376 29.2188 28.1247 29.0933 28.0739 28.9814C28.0739 28.9814 27.995 28.2235 26.9681 27.6339C26.9681 27.6339 26.7852 27.3679 26.7211 27.3574L26.7747 27.8146C26.7747 27.8146 27.1079 27.7621 27.3181 27.9429C27.3181 27.9429 26.7926 27.801 26.7789 27.883C26.7789 27.8987 26.8178 28.1237 26.8178 28.1237C26.8178 28.1237 27.398 28.0354 27.7155 28.3255C27.7155 28.3255 27.1079 28.0711 26.8325 28.2088L26.9145 28.5431C26.9145 28.5431 27.5231 28.4201 27.8973 28.7365C27.8973 28.7365 27.253 28.4926 26.9376 28.6156L27.0627 28.9309C27.0627 28.9309 27.6587 28.8258 27.9677 29.0886C27.9677 29.0886 27.1952 28.8784 27.0964 29.0024C27.1502 29.1248 27.2187 29.2402 27.3003 29.3461C27.3003 29.3461 27.7302 29.2788 27.8962 29.4512C27.8962 29.4512 27.3654 29.3682 27.3465 29.4228C27.3465 29.4228 27.6177 29.7487 27.8426 29.8433C27.6315 29.7682 27.4436 29.6397 27.2971 29.4701C27.2832 29.6076 27.3099 29.7461 27.3738 29.8685C27.3738 29.8685 27.1447 29.7634 27.233 29.3902C27.233 29.3902 27.0312 29.1285 27.0301 29.0749C27.0301 29.0749 26.8924 29.4291 26.925 29.6793C26.925 29.6793 26.7558 29.4176 26.9944 28.9919L26.8609 28.6765C26.8609 28.6765 26.6507 29.1359 26.6665 29.3608C26.6665 29.3608 26.5361 29.0676 26.8346 28.5935L26.7505 28.2666C26.6405 28.4652 26.5568 28.6772 26.5014 28.8973C26.5014 28.8973 26.4394 28.5998 26.7295 28.1678L26.7001 27.9429C26.7001 27.9429 26.5519 28.2246 26.5172 28.3087C26.4825 28.3928 26.4562 28.3917 26.4562 28.3917C26.4805 28.1928 26.5599 28.0046 26.6854 27.8483C26.6854 27.8483 26.6528 27.3784 26.6234 27.3784Z" fill="#404040"/>
<path opacity="0.1" d="M32.9763 40.2228C32.9763 40.2228 33.6374 42.6403 35.2056 41.7994C35.2947 41.7852 35.3771 41.7432 35.4409 41.6794C35.5047 41.6156 35.5467 41.5333 35.5609 41.4441C35.5609 41.4441 35.4369 41.482 35.398 41.2287C35.3832 41.1387 35.3577 41.0509 35.3223 40.9669C35.2757 40.8528 35.1925 40.7574 35.0858 40.6958C35.0858 40.6958 34.5844 40.1219 33.4041 40.2312C33.4041 40.2312 33.1013 40.1208 33.0425 40.1492L33.3494 40.4908C33.3494 40.4908 33.5922 40.2564 33.8686 40.2806C33.8686 40.2806 33.3546 40.4698 33.3925 40.5423C33.4009 40.557 33.5628 40.7168 33.5628 40.7168C33.5628 40.7168 33.9832 40.31 34.4121 40.3636C34.4121 40.3636 33.7698 40.5066 33.6248 40.7777L33.8844 41.0037C33.8844 41.0037 34.3111 40.5528 34.7989 40.5949C34.7989 40.5949 34.1314 40.7672 33.9443 41.0489L34.2302 41.2371C34.2302 41.2371 34.6506 40.8051 35.0606 40.844C35.0606 40.844 34.3101 41.1204 34.2985 41.276C34.4133 41.345 34.5362 41.3997 34.6643 41.4389C34.6643 41.4389 34.9796 41.1362 35.2098 41.1793C35.2098 41.1793 34.7274 41.4179 34.7442 41.4736C34.7442 41.4736 35.1541 41.5787 35.3906 41.5282C35.1753 41.5893 34.9477 41.5929 34.7305 41.5387C34.7981 41.659 34.8998 41.7567 35.0227 41.8194C35.0227 41.8194 34.7747 41.8646 34.6317 41.5104C34.6317 41.5104 34.3164 41.4126 34.2828 41.3685C34.2828 41.3685 34.3753 41.7384 34.5455 41.9234C34.5455 41.9234 34.2575 41.8068 34.206 41.3212L33.9149 41.1393C33.9149 41.1393 34.0105 41.6344 34.1493 41.8099C34.1493 41.8099 33.8739 41.6459 33.8445 41.0868L33.588 40.8681C33.613 41.095 33.6674 41.3176 33.7499 41.5303C33.7499 41.5303 33.5281 41.3201 33.5165 40.803L33.362 40.6359C33.362 40.6359 33.4041 40.9512 33.424 41.0405C33.444 41.1299 33.424 41.1456 33.424 41.1456C33.3293 40.9691 33.2857 40.7696 33.2979 40.5696C33.2979 40.5696 33.0004 40.207 32.9763 40.2228Z" fill="#404040"/>
<path opacity="0.6" d="M50.9121 42.3815C50.9121 42.3815 51.5732 44.7991 53.1404 43.9582C53.2298 43.9444 53.3125 43.9025 53.3765 43.8387C53.4406 43.7748 53.4827 43.6922 53.4967 43.6029C53.4967 43.6029 53.3717 43.6408 53.3328 43.3927C53.3188 43.3027 53.2937 43.2148 53.2581 43.131C53.2108 43.017 53.1273 42.9217 53.0206 42.8598C53.0206 42.8598 52.5192 42.2859 51.3389 42.3963C51.3389 42.3963 51.0361 42.2848 50.9783 42.3132L51.2842 42.6548C51.2842 42.6548 51.527 42.4204 51.8034 42.4446C51.8034 42.4446 51.2894 42.6338 51.3283 42.7063C51.3357 42.721 51.4986 42.8808 51.4986 42.8808C51.4986 42.8808 51.9191 42.474 52.3479 42.5276C52.3479 42.5276 51.7046 42.6706 51.5596 42.9418L51.8202 43.1678C51.8202 43.1678 52.2407 42.7168 52.7336 42.7589C52.7336 42.7589 52.0673 42.9313 51.8802 43.213L52.1661 43.4011C52.1661 43.4011 52.5865 42.9691 52.9954 43.008C52.9954 43.008 52.2449 43.2844 52.2344 43.44C52.3488 43.5091 52.4713 43.5638 52.5991 43.6029C52.5991 43.6029 52.9144 43.3002 53.1446 43.3433C53.1446 43.3433 52.6632 43.5819 52.679 43.6376C52.679 43.6376 53.0889 43.7427 53.3265 43.6923C53.1108 43.7533 52.8829 43.7569 52.6653 43.7028C52.7333 43.8228 52.8348 43.9204 52.9575 43.9834C52.9575 43.9834 52.7095 44.0286 52.5665 43.6744C52.5665 43.6744 52.2512 43.5766 52.2186 43.5325C52.2186 43.5325 52.3101 43.9025 52.4803 44.0875C52.4803 44.0875 52.1923 43.9708 52.1408 43.4852L51.8497 43.3013C51.8497 43.3013 51.9453 43.7963 52.0851 43.9718C52.0851 43.9718 51.8097 43.8079 51.7803 43.2487L51.5228 43.0301C51.5477 43.257 51.6025 43.4797 51.6857 43.6923C51.6857 43.6923 51.4629 43.482 51.4513 42.9649L51.2968 42.7978C51.2968 42.7978 51.3389 43.1131 51.3588 43.2024C51.3788 43.2918 51.3588 43.3076 51.3588 43.3076C51.2641 43.131 51.2205 42.9315 51.2327 42.7316C51.2327 42.7316 50.9363 42.3658 50.9121 42.3815Z" fill="#37B57E"/>
<path d="M44.183 66.6605C44.183 66.6605 49.636 64.8242 48.5072 58.318L41.5805 56.5195L39.9723 61.858L44.183 66.6605Z" fill="#E8EAF1"/>
<path opacity="0.1" d="M39.9723 61.8584L44.1819 66.6609C44.1819 66.6609 49.635 64.8246 48.5061 58.3184L39.9723 61.8584Z" fill="#404040"/>
<path d="M17.0585 13.7905C17.0585 13.7905 17.7942 14.9877 18.8001 14.3897C19.806 13.7916 18.8411 12.1393 18.8411 12.1393C18.8411 12.1393 16.9145 11.8754 17.0585 13.7905Z" fill="#FFAD00"/>
<path opacity="0.1" d="M18.8001 14.391C18.6815 14.4678 18.5484 14.5195 18.4091 14.543C18.2697 14.5665 18.127 14.5613 17.9898 14.5276C17.6208 14.4341 17.337 14.1503 17.1846 13.9643C17.1392 13.9098 17.097 13.8525 17.0585 13.7929C17.007 13.1097 17.2193 12.7029 17.5136 12.4633C17.9183 12.1343 18.4785 12.1206 18.7203 12.1311C18.7949 12.1311 18.838 12.1417 18.838 12.1417L18.858 12.1753C18.8863 12.2289 18.9484 12.3477 19.0146 12.5064C19.2395 13.0267 19.5075 13.9695 18.8001 14.391Z" fill="#404040"/>
<path d="M44.719 58.0117L48.503 58.3176L55.5453 58.3754L49.9966 65.2075C49.9966 65.2075 48.236 65.3032 47.8734 65.5513C47.5107 65.7993 42.4192 65.6669 42.4192 65.6669L41.5973 62.1646L44.719 58.0117Z" fill="#FDB797"/>
<path opacity="0.05" d="M44.719 58.0117L48.503 58.3176L55.5453 58.3754L49.9966 65.2075C49.9966 65.2075 48.236 65.3032 47.8734 65.5513C47.5107 65.7993 42.4192 65.6669 42.4192 65.6669L41.5973 62.1646L44.719 58.0117Z" fill="#404040"/>
<path d="M40.892 39.6423L41.7717 41.1349L41.963 43.7374C41.963 43.7374 42.5758 45.9563 43.0351 46.6069C43.4945 47.2575 43.6858 48.9803 43.6858 48.9803C43.6858 48.9803 43.8771 50.5874 44.1062 50.9311C44.3353 51.2748 44.6423 53.769 44.6423 53.769C44.6423 53.769 46.6709 57.8252 48.5071 58.3224C48.5071 58.3224 39.3994 61.3075 44.1829 66.6649C44.1829 66.6649 40.7774 67.5058 39.9733 66.5503C39.1692 65.5949 37.0649 51.4346 37.0649 51.4346L37.7156 39.4941L40.892 39.6423Z" fill="#E8EAF1"/>
<path opacity="0.05" d="M40.892 39.6423L41.7717 41.1349L41.963 43.7374C41.963 43.7374 42.5758 45.9563 43.0351 46.6069C43.4945 47.2575 43.6858 48.9803 43.6858 48.9803C43.6858 48.9803 43.8771 50.5874 44.1062 50.9311C44.3353 51.2748 44.6423 53.769 44.6423 53.769C44.6423 53.769 46.6709 57.8252 48.5071 58.3224C48.5071 58.3224 39.3994 61.3075 44.1829 66.6649C44.1829 66.6649 40.7774 67.5058 39.9733 66.5503C39.1692 65.5949 37.0649 51.4346 37.0649 51.4346L37.7156 39.4941L40.892 39.6423Z" fill="#404040"/>
<path d="M29.8418 25.0976C29.5863 26.4234 29.6621 27.7918 30.0626 29.0812L28.6457 33.1374C28.6457 33.1374 17.8541 27.1294 18.7728 25.6746C19.2931 24.8495 19.3593 22.6664 19.3172 20.9321C19.2868 19.614 19.1932 18.5566 19.1932 18.5566C19.1932 18.5566 32.437 19.8589 30.6743 22.8819C30.2754 23.569 29.9941 24.3178 29.8418 25.0976Z" fill="#FDB797"/>
<path opacity="0.1" d="M30.6743 22.8819C30.2754 23.569 29.9941 24.3178 29.8418 25.0976C27.8764 25.7264 25.7539 25.655 23.8352 24.8956C21.9165 24.1362 20.32 22.7356 19.3173 20.9321C19.2868 19.614 19.1932 18.5566 19.1932 18.5566C19.1932 18.5566 32.4338 19.8589 30.6743 22.8819Z" fill="#404040"/>
<path d="M36.0317 16.3752C36.0326 17.7783 35.7024 19.1618 35.068 20.4132C34.4336 21.6647 33.5128 22.7487 32.3805 23.5773C31.2483 24.4059 29.9365 24.9557 28.5517 25.1818C27.167 25.408 25.7485 25.3043 24.4114 24.879C23.0743 24.4537 21.8565 23.719 20.8568 22.7344C19.8572 21.7499 19.104 20.5433 18.6584 19.2129C18.2128 17.8824 18.0875 16.4656 18.2925 15.0776C18.4976 13.6896 19.0273 12.3696 19.8386 11.2248C19.9647 11.0475 20.0975 10.8745 20.2369 10.7056C21.0315 9.73987 22.0202 8.95202 23.139 8.39319C23.746 8.08952 24.3862 7.85743 25.0467 7.70157C26.2395 7.41901 27.4776 7.38489 28.6841 7.60135C29.8905 7.81781 31.0396 8.28022 32.0597 8.95979C33.0798 9.63937 33.9491 10.5216 34.6137 11.5516C35.2782 12.5815 35.7237 13.7372 35.9224 14.9468C35.9966 15.4193 36.0332 15.8969 36.0317 16.3752Z" fill="#FDB797"/>
<path d="M39.5518 53.039C39.4183 53.7516 39.5855 55.0539 39.8388 56.3794C39.8493 56.4372 39.8609 56.495 39.8724 56.5528C39.884 56.6106 39.9008 56.6999 39.9155 56.7725C40.0322 57.3422 40.1594 57.9066 40.2834 58.4195C40.4074 58.9325 40.5188 59.3718 40.6134 59.7334C40.7564 60.2747 40.8541 60.6153 40.8541 60.6153C40.8541 60.6153 40.8668 60.9495 40.8836 61.4814C40.893 61.7883 40.9035 62.1625 40.9141 62.5756C40.9141 62.6954 40.9214 62.8173 40.9246 62.9434C40.9298 63.1631 40.9351 63.3912 40.9403 63.6245C40.9403 63.7002 40.9403 63.7759 40.9456 63.8526C40.9456 64.1038 40.955 64.3603 40.9593 64.6157C40.9645 64.9668 40.9687 65.3179 40.9708 65.6584C40.9708 65.7888 40.9708 65.917 40.9708 66.0431C40.9708 66.369 40.9708 66.6811 40.9708 66.9681C40.9592 67.7827 40.9267 68.3976 40.8573 68.5752C40.8331 68.6362 40.811 68.7024 40.79 68.7718C40.6989 69.098 40.6328 69.4308 40.5924 69.7671L40.4137 69.621C40.0721 69.3393 39.7337 69.0513 39.39 68.7718C38.8187 68.2932 38.2122 67.8582 37.5758 67.4705C37.5327 67.4453 37.4896 67.42 37.4454 67.3959C37.3277 67.3275 37.2079 67.2634 37.086 67.2025C36.8348 67.0758 36.5773 66.9622 36.3145 66.8619C35.1005 66.3994 33.8003 66.2313 32.4822 66.2596C31.9566 66.4604 31.615 66.6044 31.615 66.6044L30.9465 66.8062L30.8351 66.8398C30.1109 67.0606 29.0924 67.3738 28.7256 67.5041C28.1328 67.7144 22.9856 68.7854 22.9856 68.7854C22.5153 68.9138 22.035 69.0017 21.5498 69.0482C20.6663 69.2967 19.7669 69.4849 18.8579 69.6116C16.7923 69.8757 14.6942 69.7067 12.6975 69.1155C12.6379 69.119 12.5781 69.1172 12.5188 69.1102C12.5556 69.1102 12.5913 69.1018 12.6239 69.0955L12.4957 69.0576L12.3201 69.003C12.0258 68.9105 11.734 68.8092 11.4446 68.6992L11.269 68.632C10.9887 68.524 10.7144 68.4081 10.446 68.284L10.2705 68.2042C9.9902 68.0738 9.71587 67.9361 9.44749 67.7911C9.35079 67.7406 9.25514 67.686 9.16054 67.6345C8.87465 67.4747 8.59435 67.3072 8.31967 67.132C8.27342 66.7358 8.24925 66.4709 8.24925 66.4709L7.83932 64.4297L7.8183 64.3246L7.52399 62.8531L7.50297 62.7479L6.86285 59.5463L6.84183 59.4412L6.54753 57.9697L6.5265 57.8646L5.87798 54.665L5.85696 54.5599L5.56265 53.0884L5.54163 52.9833L4.89836 49.7774L4.87734 49.6723L4.58303 48.2061L4.56201 48.101L4.44534 47.5229L4.26981 46.6473C4.26981 46.6473 3.70958 45.8464 3.07892 44.8993L3.0085 44.7942C2.82876 44.5283 2.64377 44.2519 2.46403 43.9807C2.40412 43.8913 2.34631 43.803 2.2885 43.7158C2.20091 43.5834 2.11612 43.4541 2.03413 43.3279L1.97737 43.2407L1.96581 43.2228C1.05977 41.8207 1.66625 41.211 1.66625 41.211C1.66625 41.211 2.04675 40.696 2.53761 40.0149C2.56178 39.9802 2.58701 39.9455 2.61329 39.9098C2.8235 39.6155 3.05475 39.2938 3.28178 38.9722L3.45731 38.7221C3.52353 38.6285 3.5887 38.535 3.65177 38.4425C3.67699 38.4078 3.70117 38.372 3.72429 38.3374C4.20884 37.6373 4.60826 37.0266 4.69025 36.8101C4.81848 36.4685 5.63623 35.4584 6.45083 34.5723C7.09304 33.8723 7.73211 33.2501 8.01906 33.1008C8.66968 32.7571 8.93771 31.6461 8.93771 31.6461C8.93771 31.6461 10.3535 31.15 10.5448 30.7674C10.7361 30.3848 13.4154 28.6652 13.4154 28.6652C13.4154 28.6652 14.499 27.9673 14.9373 27.5468C14.9994 27.4919 15.0535 27.4285 15.0982 27.3587C15.2506 27.0854 16.246 26.8605 16.6506 26.7795C16.7557 26.7585 16.8209 26.747 16.8209 26.747C16.9843 26.4501 17.1908 26.1791 17.4337 25.9429C17.5987 25.7968 17.8047 25.2933 17.9782 24.8056C18.1663 24.2737 18.3124 23.7618 18.3124 23.7618C18.6193 22.7286 19.2311 23.0345 19.2311 23.0345C19.2302 23.1756 19.2436 23.3165 19.271 23.4549C19.5264 24.7162 20.9139 25.2418 21.6423 25.8314C22.4464 26.481 23.7087 28.1659 24.7041 28.5096C25.5282 28.7945 26.4836 29.8687 26.7863 30.2271L26.8094 30.2544C26.8599 30.3133 26.8851 30.3469 26.8851 30.3469C26.8851 30.3469 27.4496 30.3175 27.7933 30.3112H27.9183C27.9883 30.3042 28.0547 30.2772 28.1096 30.2334C28.4512 30.0011 28.96 29.32 29.1818 29.1634C29.4487 28.9711 29.7178 25.8714 29.7178 25.8714L29.7315 25.8651C30.6848 25.4184 31.7075 29.8897 31.7075 29.8897C31.7075 29.8897 33.506 30.4258 33.6594 30.8084C33.6888 30.8841 33.8244 31.0186 34.0283 31.1815C34.9568 31.8911 35.945 32.5188 36.9819 33.0577C37.005 33.0693 37.0271 33.0808 37.0502 33.0903C37.0711 33.1015 37.0925 33.1117 37.1144 33.1208C37.1532 33.1397 37.1911 33.1565 37.2268 33.1723C37.2836 33.1975 37.3361 33.2185 37.3845 33.2353L37.4475 33.2574C37.5982 33.3075 37.7401 33.381 37.868 33.475C37.9058 33.5023 37.9437 33.5307 37.9804 33.5612C38.1236 33.6803 38.2552 33.8126 38.3736 33.9564C38.3914 33.9774 38.4082 33.9995 38.4251 34.0205C38.5049 34.1204 38.5764 34.2192 38.6353 34.3106C38.7319 34.4517 38.82 34.5984 38.8991 34.75C38.8991 34.75 40.4673 37.4292 40.9656 37.734C41.4638 38.0388 41.7696 41.1406 41.7696 41.1406L40.0879 47.3747C40.0879 47.3747 40.0091 48.9513 39.8619 50.5595C39.7799 51.4613 39.6759 52.3789 39.5518 53.039Z" fill="#E8EAF1"/>
<path d="M26.8851 30.5357C26.8851 30.5357 25.7573 31.1474 24.8765 31.2052C24.7612 31.2106 24.6456 31.2039 24.5317 31.1853C23.6089 31.0455 22.2551 30.2866 22.2551 30.2866L23.8433 28.5449L25.7752 29.5025L26.4857 30.1636L26.8851 30.5357Z" fill="#5B677B"/>
<path opacity="0.1" d="M35.9183 14.9466C35.8783 15.0031 35.8329 15.0556 35.7827 15.1032C35.2298 15.6288 34.2481 15.4112 33.4945 15.2893C32.8396 15.1822 32.1998 14.9973 31.5888 14.7385C31.057 14.5115 30.419 14.234 29.9407 14.5598C29.7568 14.6838 29.6306 14.8825 29.4393 14.9918C29.248 15.1011 29.0042 15.1085 28.7782 15.1116C28.0424 15.1116 27.3067 15.12 26.5888 14.954C25.5177 14.7038 24.4098 14.0742 23.3913 14.4894C22.5946 14.8131 22.1626 15.6803 21.9471 16.5138C21.842 16.9227 21.7642 17.3547 21.5267 17.7015C21.2892 18.0484 20.8298 18.2943 20.4388 18.1314C19.8618 17.8907 19.7766 16.9111 19.0808 16.8617C18.3167 16.8081 18.3261 17.5975 18.5489 18.1682C18.879 19.0091 19.311 19.85 19.3299 20.7266C18.5087 19.2556 18.1206 17.5823 18.2106 15.9C18.3007 14.2178 18.8651 12.5954 19.8386 11.2205C20.0081 11.1156 20.1407 10.9606 20.2181 10.7769C20.2259 10.7521 20.2322 10.7268 20.237 10.7012C20.2948 10.408 20.1319 10.1 20.1224 9.7931C20.0856 9.04367 20.8971 8.52127 21.6413 8.42667C22.1363 8.36361 22.643 8.41196 23.1391 8.39619C23.389 8.39069 23.6375 8.35755 23.8801 8.29739C24.2986 8.17197 24.6906 7.97067 25.0363 7.70352C26.229 7.42096 27.4671 7.38685 28.6736 7.60331C29.8801 7.81977 31.0291 8.28217 32.0492 8.96175C33.0693 9.64132 33.9387 10.5235 34.6032 11.5535C35.2678 12.5835 35.7132 13.7392 35.912 14.9487L35.9183 14.9466Z" fill="#404040"/>
<path d="M36.098 14.3273C36.0456 14.5352 35.9364 14.7245 35.7827 14.8739C35.2298 15.3994 34.2481 15.1808 33.4944 15.0589C32.8395 14.9542 32.1997 14.7706 31.5888 14.5123C31.0569 14.2863 30.4189 14.0089 29.9407 14.3347C29.7567 14.4587 29.6306 14.6574 29.4393 14.7667C29.248 14.876 29.0042 14.8834 28.7782 14.8855C28.0424 14.8907 27.3067 14.8949 26.5888 14.7289C25.5177 14.4776 24.4098 13.8491 23.3913 14.2632C22.5946 14.587 22.1626 15.4552 21.9471 16.2887C21.842 16.6975 21.7642 17.1295 21.5267 17.4754C21.2891 17.8212 20.8298 18.0692 20.4388 17.9063C19.8618 17.6656 19.7766 16.686 19.0808 16.6366C18.3167 16.583 18.3261 17.3724 18.549 17.9431C18.94 18.9385 19.4718 19.9286 19.2973 20.9839C19.1239 20.9839 18.837 20.9776 18.6667 20.9734C18.7991 20.7474 18.5469 20.4783 18.2956 20.4016C18.0444 20.3249 17.7512 20.3259 17.5599 20.143C17.3686 19.9601 17.3675 19.6774 17.3875 19.4241C17.4311 18.8827 17.5636 18.3521 17.7796 17.8538C17.9172 17.5384 18.0949 17.1968 17.9898 16.8668C17.9267 16.7172 17.8507 16.5733 17.7627 16.4369C17.5441 16.0164 17.5956 15.4909 17.7827 15.0568C17.8626 14.8718 17.9204 14.6973 17.9866 14.5312C18.0702 14.2952 18.1913 14.0741 18.345 13.8764C18.5857 13.5769 18.8212 13.1259 18.5553 12.8474C18.488 12.777 18.6225 12.7286 18.5794 12.6372C18.5718 12.6216 18.5665 12.6049 18.5637 12.5878C18.5513 12.4771 18.5781 12.3655 18.6393 12.2724C18.6518 12.2483 18.6654 12.2248 18.6803 12.202C18.6924 12.178 18.7061 12.1548 18.7213 12.1326C18.9541 11.744 19.2634 11.4068 19.6305 11.1415C19.8586 10.9764 20.1256 10.8177 20.216 10.5508C20.3211 10.2354 20.1361 9.90013 20.1203 9.56693C20.0835 8.8175 20.895 8.29511 21.6392 8.20051C22.3833 8.10591 23.1548 8.26252 23.8801 8.07017C24.9091 7.79899 25.6323 6.89085 26.5667 6.38106C27.0779 6.10774 27.6447 5.95485 28.224 5.93408C28.8033 5.91332 29.3797 6.02522 29.9092 6.26124C31.0002 6.75946 31.8232 7.76641 32.9626 8.1448C33.3662 8.27934 33.8034 8.33295 34.1671 8.55578C34.5876 8.81435 34.843 9.26632 35.0616 9.71198C35.3948 10.3878 35.4621 11.0668 35.6923 11.7826C35.8751 12.3502 36.1285 13.0923 36.1495 13.7461C36.1613 13.9413 36.1439 14.1372 36.098 14.3273Z" fill="#896363"/>
<g opacity="0.1">
<path opacity="0.1" d="M18.692 13.0103C18.7088 12.943 18.7104 12.8729 18.6968 12.8049C18.6832 12.7369 18.6546 12.6728 18.6131 12.6172C18.6404 12.6992 18.5217 12.7465 18.5868 12.8148C18.6388 12.8694 18.6751 12.9369 18.692 13.0103Z" fill="#404040"/>
<path opacity="0.1" d="M18.6098 12.377C18.5975 12.4136 18.59 12.4518 18.5878 12.4905C18.6077 12.4568 18.6351 12.4222 18.6098 12.377Z" fill="#404040"/>
<path opacity="0.1" d="M35.8121 14.6185C35.2582 15.144 34.2775 14.9264 33.5218 14.8035C32.8673 14.6981 32.2281 14.5135 31.6182 14.2537C31.0853 14.0267 30.4484 13.7492 29.9691 14.0751C29.7862 14.1991 29.6601 14.3977 29.4677 14.5071C29.2754 14.6164 29.0326 14.6237 28.8066 14.6258C28.0708 14.6258 27.335 14.6353 26.6161 14.4682C25.5461 14.218 24.4382 13.5905 23.4197 14.0036C22.623 14.3284 22.191 15.1955 21.9755 16.029C21.8704 16.4379 21.7937 16.8699 21.5551 17.2168C21.3165 17.5636 20.8572 17.8096 20.4672 17.6477C19.8901 17.406 19.805 16.4274 19.1092 16.378C18.5658 16.3391 18.4144 16.728 18.4512 17.16C18.4827 16.83 18.6614 16.5756 19.1092 16.6071C19.805 16.6565 19.8901 17.6362 20.4672 17.8769C20.8572 18.0398 21.3175 17.7949 21.5551 17.4459C21.7926 17.0969 21.8704 16.667 21.9755 16.2592C22.191 15.4257 22.623 14.5575 23.4197 14.2338C24.4382 13.8196 25.5461 14.444 26.6161 14.6984C27.3308 14.8655 28.0729 14.8602 28.8066 14.855C29.0326 14.855 29.2712 14.8487 29.4677 14.7372C29.6643 14.6258 29.783 14.4293 29.9691 14.3042C30.4484 13.9794 31.0853 14.2569 31.6182 14.4829C32.2282 14.7425 32.8674 14.9274 33.5218 15.0336C34.2775 15.1556 35.2582 15.3753 35.8121 14.8476C36.1127 14.5607 36.2031 14.1455 36.1831 13.6914C36.1663 14.0519 36.0612 14.3788 35.8121 14.6185Z" fill="#404040"/>
<path opacity="0.1" d="M20.1571 9.37695C20.1513 9.42929 20.1492 9.48198 20.1508 9.53462C20.1613 9.75325 20.2443 9.97187 20.2706 10.1852C20.3095 9.92352 20.1886 9.65024 20.1571 9.37695Z" fill="#404040"/>
<path opacity="0.1" d="M18.0213 16.8351C18.03 16.8666 18.0366 16.8985 18.0413 16.9308C18.0583 16.8224 18.0515 16.7115 18.0213 16.606C17.9586 16.4559 17.8827 16.3116 17.7943 16.175C17.7153 16.0196 17.6685 15.8498 17.6566 15.6758C17.6352 15.9269 17.6828 16.1792 17.7943 16.4052C17.8829 16.5413 17.9589 16.6852 18.0213 16.8351Z" fill="#404040"/>
<path opacity="0.1" d="M19.3257 20.7225L18.7108 20.713C18.7252 20.7502 18.7309 20.7901 18.7276 20.8298C18.7244 20.8694 18.7121 20.9079 18.6919 20.9422C18.8653 20.9422 19.1533 20.9485 19.3226 20.9527C19.352 20.7728 19.3622 20.5903 19.353 20.4082C19.3507 20.5134 19.3415 20.6184 19.3257 20.7225Z" fill="#404040"/>
<path opacity="0.1" d="M18.3198 20.1405C18.0686 20.0649 17.7764 20.0638 17.5893 19.8799C17.4791 19.7594 17.4171 19.6027 17.4148 19.4395C17.399 19.6812 17.4148 19.9419 17.5893 20.1101C17.7764 20.294 18.0686 20.295 18.3198 20.3707C18.4015 20.3945 18.4775 20.4347 18.5432 20.489C18.6088 20.5432 18.6626 20.6103 18.7013 20.6861C18.8075 20.4685 18.5637 20.2131 18.3198 20.1405Z" fill="#404040"/>
</g>
<path opacity="0.1" d="M37.4422 67.3946C37.3245 67.3263 37.2047 67.2622 37.0828 67.2012C36.8316 67.0746 36.5741 66.9609 36.3113 66.8606C35.0973 66.3982 33.7971 66.23 32.479 66.2584C31.9534 66.4591 31.6118 66.6031 31.6118 66.6031L30.9433 66.8049L30.8319 66.8386C30.8246 66.765 30.8162 66.6914 30.8088 66.6168C30.8015 66.5421 30.793 66.4707 30.7846 66.3971C30.5492 64.1677 30.3642 61.8774 30.3642 61.8774V59.8992V59.6691L30.3516 53.8407L30.2465 51.9193L30.1971 51.069L30.1876 50.9071L30.1687 50.575L30.1582 50.3774C30.135 50.3148 30.1153 50.2509 30.0993 50.1861C30.092 50.1598 30.0846 50.1304 30.0783 50.0999C30.052 49.9948 30.0236 49.8592 29.9942 49.712C29.8019 48.745 29.5612 47.1148 29.5464 46.7837C29.5275 46.3422 29.1449 43.7019 29.1449 43.7019C29.106 42.2482 27.8836 39.5112 27.5757 38.9951C27.2677 38.479 26.924 35.3783 27.0396 35.2112C27.0995 35.1218 27.1384 34.5931 27.1626 34.1054C27.1626 34.0497 27.1678 33.995 27.1699 33.9414C27.1857 33.5599 27.1931 33.2414 27.1931 33.2414L28.3955 33.0039L28.7182 32.9408L28.7434 32.9355L28.7539 32.9566C28.7886 33.0207 28.8969 33.2256 29.0241 33.4947C29.0388 33.5231 29.0524 33.5536 29.0672 33.5841C29.0735 33.5988 29.0808 33.6135 29.0882 33.6282C29.3236 34.1433 29.5959 34.8212 29.5843 35.2112C29.5654 35.9007 30.3505 37.5656 30.3505 37.5656C30.4262 37.9482 32.0911 41.7553 32.0911 41.7553C32.0911 41.7553 33.4502 45.4867 33.3735 46.0994C33.2967 46.7122 34.0241 50.7684 34.0241 50.7684L34.7704 54.9402C35.133 55.7621 35.6112 57.6562 35.6112 57.6562L35.7931 58.7304L35.8278 58.9354L36.3123 61.8017L36.5499 63.206C36.5499 63.206 36.6497 63.9523 36.8011 64.7826C36.8137 64.8573 36.8284 64.9329 36.8431 65.0086C36.9364 65.5552 37.0688 66.0944 37.2394 66.622C37.324 66.8748 37.3917 67.1329 37.4422 67.3946Z" fill="#404040"/>
<path d="M37.5727 67.4694C37.5296 67.4441 37.4865 67.4189 37.4424 67.3947C37.3246 67.3264 37.2048 67.2623 37.0829 67.2013C36.8317 67.0747 36.5742 66.961 36.3114 66.8608C35.0974 66.3983 33.7972 66.2301 32.4791 66.2585C31.9536 66.4593 31.6119 66.6033 31.6119 66.6033L30.9434 66.8051C30.935 66.7315 30.9277 66.6579 30.9193 66.5833C30.9109 66.5087 30.9046 66.4487 30.8983 66.3815C30.6628 64.1574 30.4778 61.8775 30.4778 61.8775V59.8805V59.6503L30.4652 53.8367L30.3601 52.0015L30.3391 51.621L30.3244 51.3635L30.3054 51.0229L30.2865 50.6771L30.2729 50.428V50.3733C30.2729 50.3681 30.2728 50.3618 30.2655 50.3555C30.2455 50.2987 30.2213 50.2125 30.1951 50.1032L30.1825 50.0506C30.1772 50.0265 30.1709 50.0002 30.1656 49.9739C29.968 49.0773 29.6779 47.1444 29.6622 46.7817C29.6432 46.3403 29.2606 43.6999 29.2606 43.6999C29.2218 42.2463 27.9993 39.5092 27.6914 38.9931C27.3834 38.4771 27.0407 35.3763 27.1553 35.2092C27.2215 35.1041 27.2604 34.4661 27.2856 33.9395C27.2856 33.8974 27.2856 33.8565 27.2856 33.8176C27.2993 33.4928 27.3046 33.2395 27.3046 33.2395L28.4229 33.0187L28.7067 32.963L28.7509 32.9546L28.856 32.9336C28.856 32.9336 28.9937 33.188 29.1587 33.538L29.1797 33.5821C29.4204 34.1014 29.7053 34.8077 29.6968 35.2092C29.6779 35.8987 30.4631 37.5637 30.4631 37.5637C30.5388 37.9463 32.2037 41.7533 32.2037 41.7533C32.2037 41.7533 33.5628 45.4847 33.486 46.0975C33.4093 46.7103 34.1367 50.7664 34.1367 50.7664L34.883 54.9382C35.2456 55.7602 35.7238 57.6543 35.7238 57.6543L35.8931 58.6549L35.9277 58.8578L36.3093 61.1197L36.6614 63.204C36.6614 63.204 36.7665 63.9471 36.9116 64.7807C36.9252 64.8563 36.9389 64.932 36.9536 65.0088C37.0467 65.5578 37.1791 66.0995 37.3499 66.6295C37.4431 66.9041 37.5175 67.1847 37.5727 67.4694Z" fill="#5B677B"/>
<path d="M36.6245 13.4866C36.6245 13.4866 36.223 14.0038 35.8604 14.0038C35.4978 14.0038 34.0862 13.9459 33.3504 13.7168C32.6146 13.4877 29.0073 13.3142 29.0073 13.3142C29.0073 13.3142 23.899 13.3332 23.7266 13.1608C23.5542 12.9884 20.5502 12.0697 20.2443 12.1276C20.1802 12.1402 20.0236 12.1675 19.8144 12.2022L19.5748 12.2411C19.2121 12.2989 18.7591 12.3661 18.345 12.4156C17.8331 12.4755 17.3832 12.5059 17.2403 12.4534V12.013C17.2403 12.013 17.8331 11.1511 17.871 10.9041C17.9088 10.6571 18.407 7.076 19.7083 5.79471C20.2458 4.76707 21.1158 3.95194 22.1762 3.48231C23.9368 2.71606 25.6974 2.06649 25.6974 2.06649L26.0054 2.02234L26.9986 1.87519C27.0288 1.84513 27.0615 1.8177 27.0964 1.7932C27.3718 1.58298 28.2063 1.12576 29.2942 2.10853L29.4866 2.41545C29.4866 2.41545 32.8343 3.19956 34.3836 5.93556C35.9329 8.67156 36.0107 11.3508 36.1253 12.5753C36.1253 12.5753 36.0485 12.9201 36.202 13.0536C36.2576 13.1026 36.3105 13.1546 36.3607 13.2091C36.3744 13.2228 36.388 13.2365 36.4007 13.2512C36.4448 13.2953 36.4858 13.3416 36.5194 13.3794C36.5234 13.3824 36.527 13.3859 36.5299 13.3899C36.5382 13.3999 36.5469 13.4093 36.5562 13.4183L36.6245 13.4866Z" fill="#FFAD00"/>
<path opacity="0.05" d="M36.6245 13.4865C36.6245 13.4865 36.223 14.0036 35.8604 14.0036C35.4978 14.0036 34.0862 13.9458 33.3504 13.7166C32.6146 13.4875 29.0073 13.3141 29.0073 13.3141C29.0073 13.3141 23.899 13.333 23.7266 13.1606C23.5542 12.9882 20.5502 12.0696 20.2443 12.1274C20.1802 12.14 20.0236 12.1673 19.8144 12.202L19.7598 11.8657L19.7461 11.7826C19.7461 11.7826 25.5439 10.5392 29.4088 11.1909C33.2737 11.8425 36.1253 12.5678 36.1253 12.5678C36.1253 12.5678 36.0485 12.9126 36.202 13.0461C36.2576 13.0951 36.3105 13.1471 36.3607 13.2016C36.3744 13.2153 36.3881 13.2289 36.4007 13.2437C36.4448 13.2878 36.4858 13.3341 36.5194 13.3719C36.5235 13.3748 36.527 13.3784 36.53 13.3824C36.5382 13.3923 36.547 13.4018 36.5562 13.4108L36.6245 13.4865Z" fill="#404040"/>
<path opacity="0.1" d="M36.098 14.328C35.3822 14.3837 34.063 14.2092 33.486 14.1241C33.322 14.0999 33.1612 14.0705 32.9993 14.0348C32.3802 13.9002 30.4767 13.5229 29.3205 13.6974C27.9236 13.9076 23.982 13.525 23.982 13.525C23.982 13.525 21.5519 13.0278 20.5754 12.6263C20.217 12.4781 19.6179 12.4318 19.0219 12.5054C18.8699 12.5244 18.719 12.5514 18.5699 12.5863C17.7564 12.7787 17.07 13.217 17.1888 13.9643C17.1433 13.9098 17.1012 13.8526 17.0627 13.793C17.0111 13.1098 17.2235 12.703 17.5178 12.4634L17.5871 12.435C17.9467 12.3328 18.3125 12.2545 18.6824 12.2006C18.7402 12.1911 18.8001 12.1827 18.8611 12.1754C19.9069 12.0345 21.4194 12.003 22.6955 12.6452C22.6955 12.6452 23.8811 13.2012 24.6852 13.2012C25.4893 13.2012 32.0323 13.259 33.5638 13.6984C33.8686 13.7865 34.1795 13.8522 34.494 13.895C35.0523 13.9669 35.6197 13.9134 36.1547 13.7383C36.1657 13.9366 36.1465 14.1354 36.098 14.328Z" fill="#404040"/>
<path opacity="0.1" d="M36.6245 13.4861C36.6245 13.4861 36.223 14.0033 35.8604 14.0033C35.4978 14.0033 34.0862 13.9455 33.3504 13.7163C32.6146 13.4872 29.0073 13.3138 29.0073 13.3138C29.0073 13.3138 23.899 13.3327 23.7266 13.1603C23.5542 12.9879 20.5502 12.0693 20.2443 12.1271C20.1802 12.1397 20.0236 12.167 19.8144 12.2017L19.5748 12.2406C19.1585 12.2385 18.7442 12.2973 18.345 12.4151C17.8331 12.475 17.3832 12.5055 17.2403 12.4529V12.3657C17.3505 12.3017 17.4654 12.2462 17.584 12.1996C18.2933 12.001 19.0237 11.8874 19.7598 11.8612C20.6774 11.8275 21.7505 11.9347 22.6934 12.4098C22.6934 12.4098 23.879 12.9658 24.6831 12.9658C25.4872 12.9658 32.0302 13.0226 33.5617 13.463C33.8667 13.5503 34.1775 13.6156 34.4919 13.6585C35.1816 13.7454 35.882 13.6449 36.5194 13.3674C36.5234 13.3703 36.527 13.3739 36.5299 13.3779C36.5382 13.3878 36.5469 13.3973 36.5562 13.4063L36.6245 13.4861Z" fill="#404040"/>
<path d="M17.2035 13.9454C17.2035 13.9454 15.9212 12.969 17.5861 12.3183C17.5861 12.3183 20.4945 11.4196 22.6955 12.5286C22.6955 12.5286 23.8811 13.0825 24.6852 13.0825C25.4893 13.0825 32.0324 13.1403 33.5638 13.5807C33.8688 13.6681 34.1797 13.7334 34.494 13.7762C35.3088 13.875 36.1341 13.7181 36.8558 13.3274C36.961 13.2696 37.0556 13.2401 37.0839 13.2738C37.1796 13.3894 37.1039 14.0589 36.262 14.1924C35.605 14.2975 34.1125 14.0989 33.485 14.0074C33.3221 13.9833 33.1602 13.9528 32.9994 13.9181C32.3803 13.7836 30.4768 13.4062 29.3153 13.5807C27.9194 13.7909 23.9768 13.4083 23.9768 13.4083C23.9768 13.4083 21.5477 12.9111 20.5712 12.5086C19.5948 12.106 16.8399 12.4529 17.2035 13.9454Z" fill="#FFAD00"/>
<path opacity="0.1" d="M28.014 3.68644C27.9089 3.53508 26.5582 2.4535 26.0074 2.01625L27.0007 1.86909C27.0309 1.83904 27.0636 1.81161 27.0985 1.78711C27.8206 2.54495 28.014 3.68644 28.014 3.68644Z" fill="#404040"/>
<path opacity="0.1" d="M23.633 9.48701L23.1926 10.1376L24.8765 10.0809L24.9143 9.35352L23.633 9.48701Z" fill="#404040"/>
<path opacity="0.1" d="M33.9075 10.2715L34.0988 10.8643L35.1709 11.0367L34.7116 10.3282L33.9075 10.2715Z" fill="#404040"/>
<path opacity="0.1" d="M15.5007 30.1738C15.6153 30.3651 19.3845 35.3242 20.3799 35.1865C21.3753 35.0488 15.5007 30.1738 15.5007 30.1738Z" fill="#404040"/>
<path opacity="0.1" d="M28.1296 34.7051C28.1296 34.7051 29.0483 35.5859 28.9138 35.9296C28.7792 36.2733 28.1296 34.7051 28.1296 34.7051Z" fill="#404040"/>
<path opacity="0.1" d="M18.1032 40.7539C18.1032 40.7539 17.2992 44.5231 17.7207 44.643C18.1421 44.7628 18.1032 40.7539 18.1032 40.7539Z" fill="#404040"/>
<path opacity="0.1" d="M28.4355 55.3906C28.569 55.7732 29.6789 58.2612 29.928 58.3947C30.1771 58.5282 28.4355 55.3906 28.4355 55.3906Z" fill="#404040"/>
<path opacity="0.1" d="M41.3324 45.1719C41.2935 45.3054 40.337 46.0906 40.5472 46.3775C40.7575 46.6645 41.3324 45.1719 41.3324 45.1719Z" fill="#404040"/>
<path opacity="0.1" d="M33.9075 52.1562C33.8886 52.253 33.6973 54.2584 34.0609 54.6442C34.4246 55.03 33.9075 52.1562 33.9075 52.1562Z" fill="#404040"/>
<path opacity="0.1" d="M43.7121 62.575C43.4346 62.7295 43.1477 62.8788 42.8555 63.0217C42.5402 63.1752 42.2248 63.3213 41.9032 63.459C41.775 63.5147 41.6467 63.5694 41.5195 63.6219C41.3261 63.7018 41.1348 63.7785 40.9456 63.8521C40.3707 64.077 39.8168 64.2725 39.3238 64.4376C39.1325 64.5017 38.9496 64.5605 38.7793 64.6152C37.9216 64.8874 37.352 65.0356 37.352 65.0356C37.2218 65.0078 37.0886 64.9968 36.9557 65.0031C36.9189 65.0031 36.8811 65.0031 36.8422 65.0031C36.6642 65.016 36.487 65.0384 36.3114 65.0703C35.1373 65.2805 33.4787 65.8702 32.4791 66.256C31.9535 66.4567 31.6119 66.6007 31.6119 66.6007L30.9434 66.8025L30.832 66.8362C30.1078 67.0569 29.0893 67.3701 28.7225 67.5005C28.1297 67.7107 22.9825 68.7817 22.9825 68.7817C22.5122 68.9101 22.0319 68.998 21.5467 69.0445C20.351 69.1542 19.1492 69.1816 17.9498 69.1265C16.7453 69.2043 14.7965 68.9394 13.6624 68.7607L13.4816 68.7323C13.0433 68.6609 12.7648 68.6094 12.7648 68.6094L12.9119 68.4065L15.9296 64.2431L15.9475 64.2179L18.7592 60.3404L18.8643 60.1996L19.1197 59.8474C19.1197 59.8474 19.2731 59.6372 19.8639 59.6236C19.9332 59.6236 20.0089 59.6236 20.0919 59.6236C20.5881 59.6634 21.0777 59.7633 21.5498 59.921L21.6865 59.962C23.7224 60.5454 26.8694 60.3993 26.8694 60.3993C26.8694 60.3993 28.8276 60.0839 30.3664 59.8947L30.481 59.88C30.9838 59.809 31.4901 59.7651 31.9977 59.7486C32.9353 59.7676 34.9639 59.2704 34.9639 59.2704C35.4001 59.1768 35.584 59.098 35.83 58.9225C35.8626 58.8994 35.8972 58.8741 35.9351 58.8468C36.0402 58.768 36.1611 58.6713 36.3166 58.5514C36.6004 58.3339 36.9988 58.0385 37.6252 57.6244C37.6799 57.5886 37.7377 57.5529 37.7997 57.5193C37.8617 57.4856 37.9406 57.4404 38.0162 57.4026C38.6229 57.1153 39.2626 56.9035 39.9208 56.7719C40.4669 56.6546 41.0209 56.5783 41.5784 56.5439H41.6614C43.2381 56.4598 44.8484 56.7299 45.7901 57.616C45.9548 57.7717 46.0983 57.9484 46.2169 58.1415C46.2744 58.2332 46.3257 58.3288 46.3703 58.4274C46.4562 58.6156 46.5201 58.8131 46.5606 59.016C46.5683 59.0539 46.5746 59.0917 46.5795 59.1295C46.5795 59.1411 46.5795 59.1516 46.5795 59.1632C46.5795 59.1937 46.5858 59.2241 46.5879 59.2546C46.672 60.5128 45.3665 61.6501 43.7121 62.575Z" fill="#404040"/>
<path d="M12.7648 68.3832C12.7648 68.3832 16.1703 69.0139 17.9498 68.8993C17.9498 68.8993 21.2219 69.0717 22.9824 68.5556C22.9824 68.5556 28.1328 67.4835 28.7225 67.2733C29.3121 67.0631 31.6119 66.3735 31.6119 66.3735C31.6119 66.3735 36.0896 64.4984 37.3519 64.8042C37.3519 64.8042 47.2638 62.2406 46.5553 58.7773C45.8469 55.3139 39.5908 56.0991 37.621 57.3993C35.6513 58.6995 35.9393 58.8351 34.9618 59.0453C34.9618 59.0453 32.9331 59.5425 31.9956 59.5236C31.058 59.5046 26.8673 60.1742 26.8673 60.1742C26.8673 60.1742 23.5763 60.3276 21.5488 59.6959C19.5212 59.0642 19.1186 59.6192 19.1186 59.6192L12.7648 68.3832Z" fill="#FDB797"/>
<path opacity="0.1" d="M20.1498 59.3942C20.1503 59.3984 20.1503 59.4026 20.1498 59.4068C20.1424 59.4849 20.1222 59.5613 20.0898 59.6328C19.6862 60.6229 17.3948 63.2937 17.3948 63.2937C17.2904 63.611 17.1643 63.9208 17.0175 64.2208C16.7018 64.8622 16.3381 65.4788 15.9296 66.0655C15.3241 66.9432 14.663 67.7812 13.9504 68.5745H13.9452C13.8545 68.6417 13.7601 68.7038 13.6624 68.7605C13.4154 68.9076 13.0444 69.0895 12.6944 69.1116C12.6348 69.1151 12.575 69.1133 12.5157 69.1063C12.5525 69.1063 12.5882 69.0979 12.6208 69.0916L12.4925 69.0537L12.317 68.9991C12.0227 68.9066 11.7309 68.8053 11.4415 68.6953L11.2659 68.6281C10.9856 68.5201 10.7113 68.4042 10.4429 68.2801L10.2674 68.2003C9.98709 68.0699 9.71276 67.9322 9.44438 67.7872C9.34768 67.7367 9.25203 67.6821 9.15743 67.6306C8.87153 67.4708 8.59124 67.3033 8.31656 67.1281C8.02505 66.9424 7.73986 66.7487 7.46097 66.5469C7.25075 66.1569 7.07732 65.8111 6.98272 65.6251C6.81034 65.2793 6.79563 64.7842 6.81665 64.4258C6.81665 64.389 6.81665 64.3543 6.82295 64.3207C6.84082 64.0957 6.86815 63.9412 6.86815 63.9412C6.7124 63.733 6.57189 63.5138 6.44771 63.2853C6.37637 63.1719 6.3358 63.0419 6.32999 62.908C6.33475 62.8543 6.32976 62.8002 6.31528 62.7482C6.23434 62.4161 5.88643 61.8453 5.5648 61.4869C5.32515 61.2231 5.31043 60.2372 5.33356 59.5382C5.34722 59.1178 5.3735 58.8087 5.3735 58.8087C5.3264 58.7783 5.29115 58.7327 5.27364 58.6794C5.18913 58.4494 5.13197 58.2102 5.10337 57.9668C5.10337 57.9321 5.09391 57.8974 5.08865 57.8617C5.02138 57.3792 4.9909 56.8947 4.9909 56.8947C4.21309 56.3281 3.84311 55.4442 3.67073 54.6559L3.64865 54.5507C3.55398 54.0662 3.51379 53.5727 3.52883 53.0792C3.52883 53.0319 3.52883 52.9962 3.52883 52.9741C3.52883 52.952 3.52883 52.9478 3.52883 52.9478C3.52883 52.9478 3.63184 50.6701 3.91984 49.7809C3.9314 49.743 3.94401 49.7084 3.95662 49.6758C3.97784 49.6199 4.00535 49.5667 4.03861 49.5171C4.14372 49.3773 4.21835 49.1134 4.28036 48.8013C4.32346 48.5847 4.35919 48.344 4.38547 48.1044C4.40964 47.9047 4.42856 47.706 4.44328 47.5221C4.48427 47.0302 4.49689 46.6465 4.49689 46.6465L4.30243 45.6879C4.24883 45.4262 4.20784 45.1624 4.17946 44.8986C4.17946 44.8639 4.17105 44.8292 4.16684 44.7934C4.11768 44.3062 4.10889 43.8158 4.14056 43.3272C4.14056 43.2914 4.14057 43.2567 4.14687 43.2221C4.22894 42.1091 4.51991 41.0215 5.00456 40.0162L5.05712 39.9111C5.12719 39.771 5.20077 39.6333 5.27785 39.498C5.33356 39.3982 5.39242 39.2994 5.45338 39.2016C5.61499 38.9399 5.79042 38.6869 5.97893 38.4438C6.00625 38.4081 6.03463 38.3734 6.06301 38.3387C6.39099 37.9321 6.75549 37.5563 7.15195 37.2161C8.21355 36.3038 9.18791 35.9075 10.0729 35.877C13.9431 35.7404 16.1136 42.5851 16.4646 43.7844C16.4983 43.9 16.5151 43.9631 16.5151 43.9631C16.5151 43.9631 18.0833 45.5324 17.624 46.2208C17.5349 46.3724 17.4807 46.5419 17.4653 46.7169C17.3391 47.643 17.7007 49.1681 17.7007 49.1681C17.7007 49.1681 17.8289 49.5885 18.2031 50.5955L18.3135 50.8898C18.5479 51.5205 18.6026 52.5789 18.468 53.527C18.3387 54.4351 18.035 55.2382 17.5483 55.4442C16.5529 55.8646 16.8209 56.2851 17.0501 56.6309C17.1862 56.8788 17.2999 57.1384 17.3896 57.4066C17.5336 57.7944 17.6671 58.2022 17.7175 58.361C17.7322 58.4051 17.7396 58.4293 17.7396 58.4293C17.879 58.3753 18.0239 58.3366 18.1716 58.3137C18.3597 58.2874 18.5458 58.3063 18.5815 58.4671C18.6004 58.5533 18.7087 58.6553 18.8611 58.7572C19.3131 59.0684 20.1498 59.3942 20.1498 59.3942Z" fill="#404040"/>
<path d="M19.9206 59.3943C19.9141 59.4743 19.8939 59.5526 19.8606 59.6256C19.4591 60.6168 17.1656 63.2939 17.1656 63.2939C17.0607 63.611 16.9347 63.9207 16.7883 64.221C16.5347 64.7389 16.2478 65.2399 15.9296 65.7209C15.2707 66.7148 14.5407 67.6598 13.7454 68.5483L13.7212 68.5746C13.7212 68.5746 13.6287 68.645 13.4816 68.7354C13.2186 68.9033 12.9289 69.0248 12.6249 69.0949L12.4967 69.0571L12.3212 69.0024C12.0269 68.9099 11.735 68.8087 11.4456 68.6986L11.2701 68.6314C10.9898 68.5235 10.7154 68.4075 10.4471 68.2835L10.2715 68.2036C9.99124 68.0732 9.7169 67.9355 9.44852 67.7905C9.35182 67.74 9.25617 67.6854 9.16157 67.6339C8.87568 67.4741 8.59538 67.3066 8.3207 67.1315C8.0292 66.9458 7.744 66.752 7.46511 66.5502C7.33617 66.4577 7.20864 66.3628 7.08251 66.2654C6.94061 65.9963 6.8271 65.7692 6.75667 65.6284C6.58429 65.2826 6.56958 64.7875 6.5906 64.4291C6.5906 64.3923 6.5906 64.3576 6.59691 64.324C6.61478 64.099 6.6421 63.9445 6.6421 63.9445C6.6421 63.9445 6.55697 63.83 6.45396 63.6744C6.39615 63.5882 6.33413 63.4884 6.27843 63.3896C6.17332 63.2046 6.09133 63.0175 6.1071 62.9113C6.10923 62.8932 6.10923 62.8748 6.1071 62.8567C6.10552 62.8212 6.10023 62.7859 6.09133 62.7515C6.0104 62.4194 5.66143 61.8487 5.3398 61.4902C5.10015 61.2264 5.08544 60.2405 5.10751 59.5415C5.10751 59.5058 5.10751 59.4711 5.10751 59.4364C5.12222 59.0738 5.1443 58.812 5.1443 58.812C5.02552 58.7605 4.93408 58.379 4.87522 57.9712L4.85945 57.8661C4.79218 57.3836 4.7617 56.899 4.7617 56.899C3.98389 56.3325 3.6139 55.4485 3.44258 54.6602C3.32322 54.1081 3.27727 53.5426 3.30593 52.9785C3.30593 52.9616 3.30593 52.9522 3.30593 52.9522C3.30593 52.9522 3.39633 50.6629 3.68433 49.7726C3.69589 49.7348 3.7085 49.7001 3.72112 49.6675C3.74634 49.613 3.77773 49.5615 3.81466 49.5141C3.97443 49.2912 4.08059 48.7552 4.14996 48.2065L4.16258 48.1014C4.24982 47.3656 4.27399 46.6435 4.27399 46.6435L4.07849 45.6849C4.02523 45.4221 3.98424 45.159 3.95551 44.8955C3.95025 44.8609 3.9471 44.8251 3.9429 44.7904C3.89375 44.3032 3.88496 43.8128 3.91662 43.3242C3.91662 43.2884 3.91662 43.2537 3.92398 43.219C4.00555 42.106 4.29654 41.0183 4.78167 40.0132C4.79849 39.9775 4.8153 39.9428 4.83422 39.9081C4.96937 39.6351 5.11956 39.3698 5.28409 39.1135C5.34085 39.0241 5.39866 38.9358 5.45962 38.8486C5.55527 38.7098 5.65513 38.5732 5.75919 38.4408L5.84327 38.3357C6.16845 37.9306 6.52976 37.5559 6.92275 37.2162C8.07895 36.2251 9.13004 35.8425 10.076 35.8771C13.8021 36.0106 15.8938 42.6094 16.2375 43.7845C16.2712 43.9002 16.288 43.9632 16.288 43.9632C16.288 43.9632 17.8573 45.5325 17.3979 46.221C17.3089 46.3725 17.2547 46.542 17.2392 46.7171C17.112 47.6431 17.4747 49.1682 17.4747 49.1682C17.4747 49.1682 17.6029 49.5887 17.9771 50.5956C18.0107 50.6892 18.0475 50.7869 18.0822 50.8899C18.3166 51.5206 18.3713 52.579 18.2367 53.5271C18.1074 54.4363 17.8047 55.2383 17.317 55.4443C16.3227 55.8648 16.5896 56.2852 16.8198 56.631C16.956 56.8789 17.0696 57.1385 17.1593 57.4067C17.3412 57.9018 17.5083 58.4294 17.5083 58.4294C17.5771 58.4029 17.6473 58.3801 17.7185 58.3611C17.8647 58.313 18.0196 58.2969 18.1726 58.3138C18.2149 58.3171 18.2551 58.3337 18.2874 58.3613C18.3197 58.3889 18.3425 58.426 18.3523 58.4673C18.3807 58.5934 18.5983 58.75 18.8621 58.8982C19.2047 59.0847 19.5581 59.2503 19.9206 59.3943Z" fill="#E8EAF1"/>
<path opacity="0.1" d="M6.08612 49.2863C6.4498 49.2673 10.3536 47.7559 11.1576 48.2719C11.9617 48.788 16.9386 52.1368 16.9386 52.1368C16.9386 52.1368 13.8201 48.0617 11.103 47.1052C8.38591 46.1487 6.08612 49.2863 6.08612 49.2863Z" fill="#404040"/>
<path opacity="0.1" d="M11.6979 55.4492C11.6979 55.4492 15.6016 56.2333 16.1945 56.7694L11.6979 55.4492Z" fill="#404040"/>
<path opacity="0.1" d="M10.9463 61.2852C10.8896 61.343 9.47481 64.5183 9.58833 64.5183C9.70185 64.5183 10.9085 62.6264 10.9085 62.6264L10.9463 61.2852Z" fill="#404040"/>
<path opacity="0.1" d="M13.6067 57.4766C13.6067 57.4766 12.4589 57.8791 12.5923 57.917C12.7258 57.9548 13.5678 57.6489 13.6067 57.4766Z" fill="#404040"/>
<path opacity="0.1" d="M12.4588 62.2793C12.6501 62.6808 13.2618 63.8864 13.3964 63.6951C13.5309 63.5038 12.4588 62.2793 12.4588 62.2793Z" fill="#404040"/>
<path opacity="0.1" d="M26.7874 30.4534L26.6234 30.6867C26.6234 30.6867 25.3211 29.7691 24.7861 29.3098C24.2511 28.8505 22.9877 30.9548 21.9923 31.5287C20.997 32.1026 19.3142 32.256 19.3142 32.256C19.3142 32.256 18.0129 30.9548 18.0528 30.5743C18.0928 30.1938 17.4411 30.0771 17.4022 29.8091C17.3633 29.5411 17.1342 28.7759 16.8283 28.3933C16.6664 28.1914 16.6433 27.5597 16.658 27.01C16.7632 26.989 16.8283 26.9774 16.8283 26.9774C16.9917 26.6806 17.1982 26.4096 17.4411 26.1733C17.7859 25.8675 18.3209 23.9923 18.3209 23.9923C18.6267 22.9591 19.2385 23.265 19.2385 23.265C19.2385 24.8342 20.8466 25.4081 21.6497 26.0588C22.4527 26.7094 23.7161 28.3933 24.7115 28.738C25.5282 29.0166 26.4837 30.0939 26.7874 30.4534Z" fill="#404040"/>
<path d="M26.7874 30.2245L26.6234 30.4589C26.6234 30.4589 25.3158 29.5434 24.7808 29.081C24.2458 28.6185 22.9824 30.7259 21.987 31.2998C20.9916 31.8737 19.3088 32.0282 19.3088 32.0282C19.3088 32.0282 18.0076 30.7259 18.0475 30.3465C18.0875 29.967 17.4358 29.8493 17.3969 29.5802C17.358 29.3111 17.1289 28.547 16.823 28.1644C16.6611 27.9626 16.638 27.3309 16.6527 26.7812L16.823 26.7496C16.9864 26.4528 17.1929 26.1818 17.4358 25.9455C17.7806 25.6386 18.3156 23.7645 18.3156 23.7645C18.6214 22.7313 19.2332 23.0361 19.2332 23.0361C19.2332 24.6054 20.8413 25.1803 21.6444 25.831C22.4474 26.4816 23.7108 28.1644 24.7062 28.5092C25.5282 28.7919 26.4836 29.8651 26.7874 30.2245Z" fill="#E8EAF1"/>
<path opacity="0.1" d="M26.8851 30.5355C26.8851 30.5355 25.7573 31.1472 24.8765 31.205C24.7612 31.2104 24.6456 31.2037 24.5317 31.185C24.5317 31.185 25.504 30.4587 26.4069 30.3105L26.8851 30.5355Z" fill="#404040"/>
<path opacity="0.1" d="M29.1818 33.6531C29.1818 33.6531 27.7596 33.0992 27.2898 33.9327C27.3056 33.5501 27.3119 33.2327 27.3119 33.2327L28.8622 32.9258C28.8622 32.9258 29.0115 33.2022 29.186 33.5743C29.1818 33.6237 29.1818 33.6531 29.1818 33.6531Z" fill="#404040"/>
<path d="M24.5317 31.1858C24.5317 31.1858 26.2356 30.1631 27.0544 30.2493C27.9131 30.3386 29.577 30.4017 29.577 30.4017C29.577 30.4017 29.0031 31.703 29.0798 31.971C29.1565 32.239 29.1755 33.5402 29.1755 33.5402C29.1755 33.5402 27.4538 32.8707 27.1668 34.1141C27.1668 34.1141 26.2293 32.7172 25.5975 32.2958C25.1784 31.9929 24.8173 31.6169 24.5317 31.1858Z" fill="#5B677B"/>
<path opacity="0.1" d="M34.1566 32.372C33.6595 32.372 31.8989 31.261 31.5163 30.5347C31.1337 29.8084 30.5976 30.6104 30.1005 30.8795C29.7851 31.0518 28.5354 30.6913 27.8616 30.4296C28.2032 30.1973 28.96 29.5435 29.1818 29.3869C29.4488 29.1946 29.7179 26.0949 29.7179 26.0949C30.6744 25.5977 31.7076 30.1132 31.7076 30.1132C31.7076 30.1132 33.5071 30.6493 33.6595 31.0319C33.6889 31.1076 33.8245 31.2421 34.0284 31.405C34.2386 31.9348 34.3542 32.372 34.1566 32.372Z" fill="#404040"/>
<path d="M34.1566 32.1423C33.6595 32.1423 31.8989 31.0323 31.5163 30.306C31.1337 29.5797 30.5976 30.3817 30.1004 30.6497C29.7851 30.8221 28.7834 30.4889 28.1097 30.2293C28.4513 29.9981 28.96 29.3169 29.1818 29.1593C29.4488 28.968 29.7179 25.8683 29.7179 25.8683C30.6743 25.3711 31.7076 29.8866 31.7076 29.8866C31.7076 29.8866 33.507 30.4227 33.6595 30.8053C33.6889 30.881 33.8245 31.0155 34.0284 31.1784C34.2386 31.705 34.3542 32.1423 34.1566 32.1423Z" fill="#E8EAF1"/>
<path d="M40.9561 65.6689L57.5959 51.7944C57.762 51.6542 57.9736 51.5794 58.1909 51.5842L64.3986 51.7471C64.3986 51.7471 64.8285 52.0624 64.1979 52.752L48.5008 65.6331C48.3312 65.7718 48.1207 65.8508 47.9017 65.8581L41.1138 66.083C41.065 66.0845 41.017 66.0708 40.9764 66.0438C40.9358 66.0167 40.9047 65.9777 40.8873 65.9321C40.87 65.8865 40.8673 65.8367 40.8796 65.7895C40.8919 65.7423 40.9187 65.7001 40.9561 65.6689Z" fill="#404040"/>
<path d="M49.0054 63.9631C49.0054 63.9631 52.6401 69.1681 56.6784 64.3267C60.7167 59.4854 59.5489 56.9417 58.3244 56.8072C57.0998 56.6727 50.2099 61.9733 49.0054 63.9631Z" fill="#FDB797"/>
<path opacity="0.6" d="M73.52 5.74635C73.52 5.74635 78.2048 -3.34561 83.7419 1.34332C83.7419 1.34332 84.9507 1.78373 84.8593 3.06185C84.8593 3.06185 84.3936 2.80644 84.0236 3.7829C83.8877 4.12938 83.7113 4.45856 83.4981 4.76357C83.2147 5.17562 82.8053 5.48467 82.3314 5.64439C82.3314 5.64439 79.8466 7.50588 75.2438 6.07008C75.2438 6.07008 73.9426 6.25718 73.7323 6.09531L75.2449 4.98956C75.2449 4.98956 76.0132 6.13 77.1368 6.26033C77.1368 6.26033 75.2449 5.0726 75.4614 4.81508C75.5055 4.76252 76.2897 4.26536 76.2897 4.26536C76.2897 4.26536 77.634 6.24246 79.3767 6.38857C79.3767 6.38857 76.935 5.27546 76.585 4.07616L77.8116 3.3919C77.8116 3.3919 79.1297 5.55189 81.1089 5.79365C81.1089 5.79365 78.5968 4.54179 78.0902 3.26051L79.3883 2.75388C79.3883 2.75388 80.7158 4.83505 82.3629 5.0253C82.3629 5.0253 79.6069 3.28574 79.6931 2.65718C79.6931 2.65718 80.9134 2.26408 81.2876 2.31558C81.2876 2.31558 82.2746 3.78711 83.2416 3.81339C83.2416 3.81339 81.5231 2.45537 81.6366 2.24621C81.6366 2.24621 83.3625 2.15686 84.2643 2.57415C84.2643 2.57415 82.982 1.86046 81.6366 1.97608C81.6366 1.97608 82.2452 1.26028 83.0388 1.10262C83.0388 1.10262 82.0875 0.711611 81.2183 2.00235C81.2183 2.00235 79.876 2.12533 79.7099 2.27459C79.7099 2.27459 80.3889 0.878734 81.2246 0.284867C81.2246 0.284867 79.979 0.504546 79.362 2.39651L78.046 2.87686C78.046 2.87686 78.8459 0.984895 79.5512 0.400487C79.5512 0.400487 78.3151 0.820924 77.7244 3.02822L76.5135 3.6862C76.5135 3.6862 77.078 2.00446 77.7223 1.18355C77.7223 1.18355 76.6596 1.82051 76.173 3.88696L75.4162 4.41987C75.4162 4.41987 75.8503 3.1985 76.0069 2.85899C76.1635 2.51949 76.0847 2.44907 76.0847 2.44907C75.5586 3.07102 75.2155 3.82677 75.0935 4.63219C75.0935 4.63219 73.6073 5.83043 73.52 5.74635Z" fill="#37B57E"/>
<path opacity="0.6" d="M92.8949 10.6085C92.8949 10.6085 95.0118 6.49979 97.5134 8.61879C97.5134 8.61879 98.0599 8.81745 98.0179 9.3945C98.0179 9.3945 97.8077 9.27993 97.6405 9.72139C97.58 9.87775 97.5009 10.0263 97.4051 10.1639C97.2772 10.3496 97.0929 10.4893 96.8795 10.5623C96.8795 10.5623 95.7559 11.4031 93.6759 10.7546C93.6759 10.7546 93.0883 10.8387 92.9937 10.7662L93.6769 10.2659C93.6769 10.2659 94.0238 10.7819 94.5325 10.8398C94.5325 10.8398 93.679 10.3037 93.7757 10.187C93.7946 10.1639 94.1488 9.93897 94.1488 9.93897C94.1488 9.93897 94.7564 10.8324 95.5447 10.8986C95.5447 10.8986 94.441 10.3951 94.2834 9.84752L94.8383 9.53955C94.8383 9.53955 95.4333 10.516 96.3277 10.6253C96.3277 10.6253 95.1926 10.0598 94.9613 9.48069L95.5478 9.25155C95.5478 9.25155 96.1469 10.1923 96.8911 10.2785C96.8911 10.2785 95.6456 9.49225 95.6855 9.20846C95.6855 9.20846 96.2363 9.03082 96.4055 9.05395C96.4055 9.05395 96.8512 9.71929 97.2884 9.7298C97.2884 9.7298 96.5117 9.11701 96.5632 9.02241C96.5632 9.02241 97.3431 8.98247 97.7488 9.17062C97.7488 9.17062 97.1697 8.84793 96.5632 8.90049C96.7305 8.71021 96.9496 8.57286 97.1938 8.50528C97.1938 8.50528 96.7639 8.32869 96.3708 8.91205C96.3708 8.91205 95.7644 8.96776 95.6897 9.03503C95.6897 9.03503 95.9966 8.40437 96.374 8.13634C96.374 8.13634 95.8106 8.23515 95.5331 9.09073L94.9445 9.31146C94.9445 9.31146 95.305 8.45693 95.6246 8.19205C95.6246 8.19205 95.0654 8.3823 94.7984 9.37873L94.2518 9.67514C94.2518 9.67514 94.5062 8.91415 94.7974 8.54417C94.7974 8.54417 94.317 8.83217 94.0984 9.76553L93.7557 10.0062C93.7557 10.0062 93.9523 9.45441 94.0227 9.30095C94.0931 9.14749 94.0574 9.11596 94.0574 9.11596C93.8197 9.39798 93.6647 9.74032 93.6096 10.105C93.6096 10.105 92.9317 10.6463 92.8949 10.6085Z" fill="#37B57E"/>
<path opacity="0.6" d="M69.9568 15.3898C69.9568 15.3898 72.0737 11.281 74.5816 13.4C74.5816 13.4 75.1271 13.5987 75.0861 14.1768C75.0861 14.1768 74.8759 14.0612 74.7088 14.5026C74.6479 14.6588 74.5689 14.8074 74.4734 14.9452C74.3441 15.1318 74.1579 15.2715 73.9426 15.3435C73.9426 15.3435 72.82 16.1844 70.7399 15.5359C70.7399 15.5359 70.1523 15.621 70.0577 15.5474L70.741 15.0471C70.741 15.0471 71.0878 15.5632 71.5955 15.6221C71.5955 15.6221 70.742 15.0849 70.8387 14.9683C70.8587 14.9452 71.2129 14.7202 71.2129 14.7202C71.2129 14.7202 71.8204 15.6137 72.6077 15.6799C72.6077 15.6799 71.5051 15.1764 71.3464 14.6288L71.9014 14.3219C71.9014 14.3219 72.4973 15.2973 73.3918 15.4066C73.3918 15.4066 72.2566 14.8411 72.0254 14.2619L72.6119 14.0328C72.6119 14.0328 73.2121 14.9735 73.9562 15.0597C73.9562 15.0597 72.7107 14.2735 72.7496 13.9897C72.7496 13.9897 73.3014 13.8121 73.4706 13.8352C73.4706 13.8352 73.9163 14.5005 74.3535 14.5121C74.3535 14.5121 73.5768 13.8983 73.6283 13.8037C73.6283 13.8037 74.4071 13.7637 74.8139 13.9519C74.8139 13.9519 74.2337 13.6292 73.6272 13.6817C73.7945 13.4915 74.0137 13.3541 74.2579 13.2865C74.2579 13.2865 73.829 13.1099 73.4359 13.6933C73.4359 13.6933 72.8295 13.749 72.7548 13.8163C72.7548 13.8163 73.0607 13.1856 73.4391 12.9176C73.4391 12.9176 72.8757 13.0164 72.5982 13.872L72.0023 14.0927C72.0023 14.0927 72.3638 13.2382 72.6823 12.9744C72.6823 12.9744 72.1242 13.1635 71.8572 14.16L71.3096 14.4564C71.3096 14.4564 71.565 13.6954 71.8562 13.3254C71.8562 13.3254 71.3758 13.6134 71.1561 14.5468L70.8135 14.7875C70.8135 14.7875 71.01 14.2357 71.0805 14.0822C71.1509 13.9287 71.1162 13.8972 71.1162 13.8972C70.878 14.1789 70.7229 14.5214 70.6684 14.8863C70.6684 14.8863 69.9936 15.4276 69.9568 15.3898Z" fill="#37B57E"/>
</g>
<defs>
<clipPath id="clip0">
<rect width="112.713" height="82" fill="white" transform="translate(0.643555)"/>
</clipPath>
</defs>
</svg>
