<svg width="116" height="82" viewBox="0 0 116 82" fill="none" xmlns="http://www.w3.org/2000/svg">
<g clip-path="url(#clip0)">
<path opacity="0.1" d="M113.471 55.1278C110.813 60.6094 105.418 64.2748 99.8262 66.692C92.2984 69.9474 84.0084 71.2385 75.8325 70.6925C74.3997 70.5971 72.9712 70.4448 71.5471 70.2354C66.6009 69.5138 61.7788 68.1096 57.2185 66.063C55.9024 65.4702 54.6129 64.8232 53.3501 64.1217C51.2409 62.9527 49.2199 61.631 47.3034 60.1673C46.8214 59.7993 46.346 59.4219 45.8773 59.0352C45.5522 58.7672 45.2302 58.4931 44.9031 58.2271C44.2131 57.666 43.503 57.133 42.7109 56.7339C42.4719 56.6135 42.2269 56.5053 41.9768 56.4099C39.4685 55.4558 36.5762 55.8158 33.9649 56.5599C31.9787 57.126 30.0425 57.9011 28.0583 58.4541C27.1757 58.7076 26.2764 58.8988 25.367 59.0262C23.3366 59.2832 21.2748 59.1021 19.3203 58.4951L19.1533 58.4431C18.8733 58.3551 18.5956 58.2588 18.3202 58.1541L18.1532 58.0901C17.8865 57.9874 17.6255 57.8771 17.3701 57.759L17.2031 57.683C16.9364 57.559 16.6754 57.428 16.42 57.29C16.328 57.242 16.237 57.19 16.147 57.141C14.6941 56.3295 13.3734 55.3013 12.2305 54.0916C12.1975 54.0586 12.1665 54.0246 12.1305 53.9916C11.9715 53.8196 11.8155 53.6446 11.6645 53.4656C11.6085 53.3996 11.5525 53.3336 11.4975 53.2656C11.3181 53.0469 11.1451 52.8232 10.9784 52.5945C10.9534 52.5615 10.9294 52.5275 10.9054 52.4945C10.2225 51.5497 9.65631 50.5258 9.21922 49.4451C9.20521 49.4121 9.19221 49.3781 9.18021 49.3451C9.04686 49.0018 8.92518 48.6527 8.81517 48.298C8.77017 48.15 8.72716 47.998 8.68916 47.85C8.67616 47.806 8.66415 47.7609 8.65315 47.7169C8.10109 45.5437 8.03809 43.2845 8.03809 41.0382C8.03809 40.7762 8.03809 40.5145 8.03809 40.2531C8.05409 36.6197 8.11009 32.9243 8.64615 29.3409C8.64615 29.3159 8.65315 29.2909 8.65715 29.2669C8.83657 28.0606 9.08061 26.8647 9.38823 25.6845C9.71019 24.4462 10.1216 23.2329 10.6194 22.0541C11.8525 19.1538 13.6457 16.5145 15.6369 14.0682C20.6525 7.91257 27.2302 2.745 34.929 0.810785C43.225 -1.27244 52.445 0.723775 59.1367 6.05136C61.1769 7.67554 63.0101 9.59875 65.3014 10.8439C67.3016 11.928 69.6429 12.3771 71.7851 11.524C73.5553 10.8189 74.7074 10.4688 76.6956 10.5759C80.8117 10.8087 84.8694 11.6586 88.733 13.0971C88.889 13.1541 89.045 13.2131 89.2 13.2722C99.2721 17.1256 107.93 24.7814 112.431 34.6195C112.55 34.8795 112.666 35.1416 112.778 35.4056C115.461 41.6733 116.431 49.0191 113.471 55.1278Z" fill="#404040"/>
<path opacity="0.1" d="M12.7464 74.307C17.6226 74.307 21.5754 73.6721 21.5754 72.8888C21.5754 72.1056 17.6226 71.4707 12.7464 71.4707C7.87034 71.4707 3.91748 72.1056 3.91748 72.8888C3.91748 73.6721 7.87034 74.307 12.7464 74.307Z" fill="#404040"/>
<path opacity="0.1" d="M91.9512 81.9993C100.597 81.9993 107.606 81.3187 107.606 80.4791C107.606 79.6396 100.597 78.959 91.9512 78.959C83.3054 78.959 76.2965 79.6396 76.2965 80.4791C76.2965 81.3187 83.3054 81.9993 91.9512 81.9993Z" fill="#404040"/>
<path d="M106.125 10.7754H13.5797C12.8898 10.7754 12.3306 11.3346 12.3306 12.0245V63.3652C12.3306 64.055 12.8898 64.6143 13.5797 64.6143H106.125C106.815 64.6143 107.374 64.055 107.374 63.3652V12.0245C107.374 11.3346 106.815 10.7754 106.125 10.7754Z" fill="url(#paint0_linear)"/>
<path d="M105.985 11.5332H13.7307C13.0408 11.5332 12.4816 12.0925 12.4816 12.7823V63.1869C12.4816 63.8767 13.0408 64.436 13.7307 64.436H105.985C106.675 64.436 107.234 63.8767 107.234 63.1869V12.7823C107.234 12.0925 106.675 11.5332 105.985 11.5332Z" fill="white"/>
<path d="M105.985 11.5332H13.7307C13.0408 11.5332 12.4816 12.0925 12.4816 12.7823V63.1869C12.4816 63.8767 13.0408 64.436 13.7307 64.436H105.985C106.675 64.436 107.234 63.8767 107.234 63.1869V12.7823C107.234 12.0925 106.675 11.5332 105.985 11.5332Z" fill="white"/>
<path opacity="0.04" d="M105.985 11.5332H13.7307C13.0408 11.5332 12.4816 12.0925 12.4816 12.7823V63.1869C12.4816 63.8767 13.0408 64.436 13.7307 64.436H105.985C106.675 64.436 107.234 63.8767 107.234 63.1869V12.7823C107.234 12.0925 106.675 11.5332 105.985 11.5332Z" fill="white"/>
<path d="M106.753 10.9258H12.9626C12.835 10.9258 12.7127 10.9765 12.6225 11.0667C12.5323 11.1569 12.4816 11.2793 12.4816 11.4068V13.4401H107.23V11.4068C107.23 11.2799 107.18 11.1582 107.091 11.0681C107.001 10.978 106.88 10.9268 106.753 10.9258Z" fill="#5A5773"/>
<path d="M14.3737 12.8334C14.7327 12.8334 15.0238 12.5423 15.0238 12.1833C15.0238 11.8243 14.7327 11.5332 14.3737 11.5332C14.0147 11.5332 13.7236 11.8243 13.7236 12.1833C13.7236 12.5423 14.0147 12.8334 14.3737 12.8334Z" fill="white"/>
<path d="M16.1239 12.8334C16.483 12.8334 16.774 12.5423 16.774 12.1833C16.774 11.8243 16.483 11.5332 16.1239 11.5332C15.7649 11.5332 15.4739 11.8243 15.4739 12.1833C15.4739 12.5423 15.7649 12.8334 16.1239 12.8334Z" fill="white"/>
<path d="M17.8741 12.8334C18.2331 12.8334 18.5242 12.5423 18.5242 12.1833C18.5242 11.8243 18.2331 11.5332 17.8741 11.5332C17.515 11.5332 17.224 11.8243 17.224 12.1833C17.224 12.5423 17.515 12.8334 17.8741 12.8334Z" fill="white"/>
<path opacity="0.2" d="M45.7132 18.1699H20.2854V20.3282H45.7132V18.1699Z" fill="#404040"/>
<path opacity="0.1" d="M99.4301 26.8223H20.2854V60.0219H99.4301V26.8223Z" fill="#5A5773"/>
<path opacity="0.1" d="M66.6254 28.9883H65.2703V26.356C65.2703 23.3857 62.902 20.9164 59.9317 20.8714C59.2155 20.8639 58.5048 20.9982 57.8407 21.2665C57.1766 21.5349 56.5722 21.9321 56.0623 22.4351C55.5523 22.9382 55.147 23.5371 54.8696 24.1975C54.5923 24.8579 54.4483 25.5667 54.4461 26.283V28.9883H53.094C52.4964 28.9901 51.9239 29.2283 51.5013 29.6509C51.0788 30.0734 50.8406 30.646 50.8387 31.2435V42.0667C50.8406 42.6643 51.0788 43.2368 51.5013 43.6594C51.9239 44.0819 52.4964 44.3201 53.094 44.322H66.6254C67.2229 44.3201 67.7953 44.0819 68.2177 43.6593C68.6401 43.2368 68.8781 42.6642 68.8797 42.0667V31.2435C68.8781 30.6461 68.6401 30.0735 68.2177 29.6509C67.7953 29.2284 67.2229 28.9901 66.6254 28.9883ZM60.6498 36.0241V39.9005C60.6511 40.1057 60.5743 40.3038 60.4351 40.4546C60.2958 40.6054 60.1044 40.6976 59.8997 40.7126C59.7928 40.7176 59.6861 40.7009 59.5858 40.6634C59.4856 40.626 59.394 40.5686 59.3166 40.4947C59.2392 40.4209 59.1776 40.3321 59.1355 40.2337C59.0934 40.1354 59.0716 40.0295 59.0716 39.9225V36.0221C58.7058 35.8436 58.4112 35.5465 58.2359 35.1791C58.0606 34.8117 58.0151 34.3957 58.1066 33.9991C58.1982 33.6025 58.4215 33.2486 58.74 32.9952C59.0586 32.7418 59.4536 32.6038 59.8607 32.6038C60.2678 32.6038 60.6628 32.7418 60.9814 32.9952C61.2999 33.2486 61.5232 33.6025 61.6148 33.9991C61.7063 34.3957 61.6608 34.8117 61.4855 35.1791C61.3103 35.5465 61.0157 35.8436 60.6498 36.0221V36.0241ZM63.6941 28.9883H56.0243V26.283C56.0243 25.2663 56.4282 24.2913 57.1471 23.5724C57.866 22.8534 58.841 22.4496 59.8577 22.4496C60.8744 22.4496 61.8494 22.8534 62.5683 23.5724C63.2872 24.2913 63.6911 25.2663 63.6911 26.283L63.6941 28.9883Z" fill="#404040"/>
<path d="M66.6254 28.7871H65.2703V26.1548C65.2703 23.1845 62.902 20.7152 59.9317 20.6702C59.2155 20.6627 58.5048 20.797 57.8407 21.0654C57.1766 21.3337 56.5722 21.7309 56.0623 22.2339C55.5523 22.737 55.147 23.336 54.8696 23.9964C54.5923 24.6568 54.4483 25.3655 54.4461 26.0818V28.7871H53.094C52.4964 28.789 51.9239 29.0272 51.5013 29.4497C51.0788 29.8722 50.8406 30.4448 50.8387 31.0424V41.8655C50.8406 42.4631 51.0788 43.0357 51.5013 43.4582C51.9239 43.8807 52.4964 44.1189 53.094 44.1208H66.6254C67.2229 44.1189 67.7953 43.8807 68.2177 43.4581C68.6401 43.0356 68.8781 42.463 68.8797 41.8655V31.0424C68.8781 30.4449 68.6401 29.8723 68.2177 29.4498C67.7953 29.0272 67.2229 28.789 66.6254 28.7871ZM60.6498 35.8229V39.6993C60.6511 39.9046 60.5743 40.1026 60.4351 40.2534C60.2958 40.4042 60.1044 40.4964 59.8997 40.5114C59.7928 40.5164 59.6861 40.4997 59.5858 40.4622C59.4856 40.4248 59.394 40.3674 59.3166 40.2935C59.2392 40.2197 59.1776 40.1309 59.1355 40.0325C59.0934 39.9342 59.0716 39.8283 59.0716 39.7213V35.8209C58.7058 35.6425 58.4112 35.3453 58.2359 34.9779C58.0606 34.6105 58.0151 34.1945 58.1066 33.7979C58.1982 33.4013 58.4215 33.0474 58.74 32.794C59.0586 32.5406 59.4536 32.4026 59.8607 32.4026C60.2678 32.4026 60.6628 32.5406 60.9814 32.794C61.2999 33.0474 61.5232 33.4013 61.6148 33.7979C61.7063 34.1945 61.6608 34.6105 61.4855 34.9779C61.3103 35.3453 61.0157 35.6425 60.6498 35.8209V35.8229ZM63.6941 28.7871H56.0243V26.0818C56.0243 25.0651 56.4282 24.0901 57.1471 23.3712C57.866 22.6523 58.841 22.2484 59.8577 22.2484C60.8744 22.2484 61.8494 22.6523 62.5683 23.3712C63.2872 24.0901 63.6911 25.0651 63.6911 26.0818L63.6941 28.7871Z" fill="#404040"/>
<path opacity="0.1" d="M99.4301 23.627H91.4192V25.5182H99.4301V23.627Z" fill="#5A5773"/>
<path d="M102.156 80.9369C102.104 80.6718 102.013 80.4155 101.888 80.1758L100.688 78.3836H100.695C100.695 78.3836 100.506 77.4835 100.695 77.0415C100.884 76.5994 100.021 75.5123 100.021 75.5123C100.021 75.5123 99.9161 75.2393 100.19 74.9033C100.464 74.5672 100.021 73.5831 100.021 73.5831C100.021 73.5831 99.8111 71.5279 99.7901 71.2138C99.7691 70.8998 99.6001 69.1596 99.6001 69.1596L99.2001 65.4702L98.488 55.6921L98.475 55.5091C98.563 55.4661 98.61 55.4391 98.61 55.4391L98.468 50.0325L98.591 49.9215C99.6651 48.9494 102.142 46.6992 102.117 46.6502C102.092 46.6012 101.817 42.8927 101.785 41.9646C101.758 41.3051 101.614 40.6556 101.359 40.0464C101.297 39.9234 101.118 39.1123 101.044 38.7693C101.024 38.6753 101.011 38.6163 101.011 38.6163C101.011 38.6163 100.285 37.2321 100.348 36.6031C100.411 35.974 100.537 35.5029 98.989 35.2829C98.989 35.2829 97.6889 35.0889 96.9148 34.5598C96.457 34.2429 95.9567 33.9924 95.4286 33.8158C95.4286 33.8158 94.9946 33.0157 94.6926 33.2867C94.5647 33.0012 94.4691 32.7023 94.4075 32.3956L94.3985 32.3396C94.9719 31.9398 95.3845 31.3493 95.5627 30.6734C95.5727 30.6354 95.5807 30.5964 95.5897 30.5584C95.6197 30.5686 95.651 30.5743 95.6827 30.5754C95.9457 30.5754 96.1077 30.2824 96.3538 30.1894C96.4538 30.1504 96.5768 30.1444 96.6538 30.0653C96.6792 30.0349 96.6981 29.9996 96.7094 29.9616C96.7208 29.9236 96.7243 29.8837 96.7198 29.8443C96.7223 29.817 96.7223 29.7896 96.7198 29.7623C96.7203 29.7527 96.7203 29.743 96.7198 29.7333V29.7433C96.6528 29.3793 96.3708 29.0562 96.4018 28.6862C96.4318 28.3382 96.7378 28.0321 96.7128 27.6931C96.7125 27.6663 96.7101 27.6395 96.7058 27.6131V27.6251C96.6685 27.4927 96.5999 27.3713 96.5058 27.271C96.3981 27.1244 96.2568 27.0057 96.0937 26.925C95.9547 26.864 95.7937 26.85 95.6637 26.777C95.2816 26.569 95.2826 26.0269 95.0556 25.6569C94.9583 25.5024 94.8203 25.3778 94.6567 25.2968C94.4931 25.2158 94.3103 25.1815 94.1285 25.1978C93.8445 25.2258 93.5874 25.3768 93.3064 25.4258C92.9224 25.4938 92.5313 25.3688 92.1673 25.2258C91.8033 25.0828 91.4342 24.9258 91.0432 24.9258C90.6521 24.9258 90.2291 25.1258 90.1111 25.4948C90.0481 25.6949 90.0791 25.9099 90.0311 26.1129C89.945 26.4709 89.631 26.727 89.306 26.905C89.106 27.016 88.8679 27.143 88.8059 27.353C88.8059 27.347 88.8059 27.342 88.8059 27.337C88.8014 27.3538 88.7981 27.3708 88.7959 27.3881C88.7939 27.4103 88.7939 27.4328 88.7959 27.4551C88.7959 27.5991 88.8719 27.7361 88.9229 27.8731C89.018 28.1338 89.0158 28.42 88.9169 28.6792C88.8429 28.8692 88.7169 29.0362 88.6449 29.2253C88.611 29.3133 88.5888 29.4054 88.5789 29.4993V29.4833C88.5764 29.5259 88.5764 29.5687 88.5789 29.6113C88.5777 29.7574 88.612 29.9015 88.6789 30.0313C88.7248 30.121 88.7882 30.2005 88.8653 30.2653C88.9424 30.3301 89.0317 30.3787 89.128 30.4084C89.328 30.4544 89.453 30.2584 89.664 30.3084C89.7018 30.3175 89.7389 30.3292 89.775 30.3434C89.782 30.3884 89.789 30.4334 89.797 30.4774C89.9246 31.1505 90.2833 31.7579 90.8111 32.1946C90.8111 32.2186 90.8191 32.2426 90.8221 32.2676C90.886 32.6663 90.9138 33.07 90.9052 33.4737C90.9052 33.4737 90.5901 33.0127 90.1581 33.9028C90.1581 33.9028 89.0309 34.5528 88.6419 34.6268C88.2529 34.7009 86.8717 35.1819 86.8717 35.1819C86.6634 35.3325 86.4127 35.4134 86.1556 35.4129C85.7246 35.4129 85.3665 36.356 85.4185 36.8691C85.4705 37.3821 85.3875 37.7602 84.9865 37.7812C84.5855 37.8022 84.8045 38.6153 84.8075 38.6293L84.7705 38.8043C84.6925 39.1623 84.5224 39.9304 84.4624 40.0504C84.2081 40.6597 84.0636 41.3091 84.0354 41.9686C84.0044 42.8967 83.7354 46.5912 83.7044 46.6542C83.6834 46.6952 85.3805 48.2463 86.5737 49.3305L86.7467 49.4865L86.1976 54.615C86.2136 54.8126 86.2724 55.0044 86.3698 55.1771C86.4671 55.3497 86.6009 55.4992 86.7617 55.6151C86.7617 55.6751 86.7617 55.7362 86.7557 55.7992C86.7317 56.3992 86.6837 57.1253 86.5877 57.3153C86.4196 57.6514 86.4617 59.4536 86.4617 59.4536C86.4617 59.4536 86.2926 63.122 86.0826 63.521C85.8726 63.92 85.8296 64.7571 85.8926 64.9212C85.9556 65.0852 85.6816 69.4907 85.6816 69.4907L85.4715 71.4619C85.4715 71.4619 85.5346 73.3481 85.3445 73.3901C85.1545 73.4321 85.0495 74.7322 85.0495 74.7322C85.0495 74.7322 84.3764 75.6543 84.6705 75.9894C84.9645 76.3244 84.6275 76.4724 84.5965 76.5554C84.5654 76.6384 83.9544 76.9555 84.3964 78.1276C84.4005 78.1392 84.4052 78.1505 84.4104 78.1616C83.9964 78.7367 82.6842 80.5919 82.7642 80.8739C82.8233 81.0533 82.9485 81.2035 83.1143 81.2939C83.4233 81.479 83.9534 81.565 84.7965 81.2939C86.1966 80.8429 86.0966 80.5179 86.0966 80.5179C86.1038 80.3659 86.169 80.2225 86.2788 80.1172C86.3885 80.0118 86.5346 79.9527 86.6867 79.9518C87.2657 79.9098 87.6978 79.3757 87.6978 79.3757L87.6298 79.1227L87.5368 78.7727C87.5478 78.6727 87.6188 78.4976 87.9368 78.4006C88.4219 78.2536 88.2949 77.3315 88.2949 77.3315C88.2949 77.3315 88.2529 76.3674 88.4629 76.2414C88.6729 76.1154 88.5899 74.5222 88.5899 74.5222C88.5899 74.5222 88.8219 73.3691 89.158 72.593C89.494 71.8169 89.896 67.2064 89.896 67.2064C89.896 67.2064 90.1691 64.9422 90.4221 64.2921C90.6751 63.642 90.9071 61.8188 90.9071 61.8188C90.9071 61.8188 92.4663 58.7995 92.4863 58.1284C92.4863 58.1284 92.6863 57.4993 92.8864 58.1914C93.0864 58.8835 93.6485 60.5397 93.6485 60.5397L94.1955 62.5729L94.8486 65.6122L95.2706 68.1705C95.2706 68.1705 95.2066 69.1346 95.3706 69.4707C95.5347 69.8067 95.7707 70.5808 95.6447 70.7278C95.5187 70.8748 95.8967 71.5669 96.0027 71.7129C96.1087 71.8589 96.0027 74.9623 96.0027 74.9623C96.0027 74.9623 96.4868 77.6036 97.1818 78.0626C97.2303 78.0945 97.2819 78.1213 97.3359 78.1426C97.3259 78.4286 97.3159 78.8117 97.3289 79.0117C97.3273 79.0564 97.3348 79.101 97.3509 79.1427C97.4139 79.2267 98.1299 79.7928 98.278 79.7928C98.426 79.7928 98.951 80.1598 98.973 80.3379C98.995 80.5159 100.512 81.2699 100.727 81.2919C100.942 81.3139 101.984 81.501 102.127 81.2079C102.163 81.1222 102.173 81.0282 102.156 80.9369ZM98.429 43.1608L98.537 43.2538C98.537 43.2538 98.648 44.1189 98.727 44.3779C98.806 44.6369 98.711 45.141 98.711 45.141C98.7183 45.3291 98.7558 45.5148 98.822 45.6911C98.916 45.8801 98.632 46.2911 98.632 46.2911H98.379L98.3 43.0528L98.429 43.1608ZM90.9052 33.4917V33.4727C90.9032 33.4787 90.9021 33.4857 90.9021 33.4917H90.9052ZM87.0197 45.9581C86.9808 45.8743 86.9751 45.7789 87.0037 45.6911C87.0262 45.6436 87.044 45.594 87.0567 45.543C87.0878 45.4117 87.1072 45.2778 87.1147 45.143C87.1149 45.1413 87.1149 45.1397 87.1147 45.138C87.1057 45.09 87.0247 44.6259 87.0997 44.3799C87.1747 44.1339 87.2887 43.2558 87.2887 43.2558L87.3608 43.1948L87.5278 43.0498C87.5278 43.0498 87.5278 42.9958 87.5398 42.9067C87.5748 43.6668 87.6028 44.5069 87.5578 44.5489C87.4738 44.6319 87.1677 45.449 87.2417 45.481C87.2657 45.492 87.2327 45.8191 87.1767 46.2591C87.1138 46.1646 87.0612 46.0637 87.0197 45.9581Z" fill="url(#paint1_linear)"/>
<path d="M95.0806 34.2914V35.5355L92.5283 36.8187C92.5283 36.8187 89.994 35.2855 90.6191 34.6754C91.0191 34.2894 90.9421 33.2293 90.8341 32.5002C90.7711 32.0762 90.6981 31.7651 90.6981 31.7651C90.6981 31.7651 95.2506 30.465 94.5625 31.4521C94.3325 31.7821 94.3145 32.2092 94.3915 32.6322C94.5475 33.4713 95.0806 34.2914 95.0806 34.2914Z" fill="#FDB797"/>
<path d="M88.0887 46.4575L87.7597 50.5099C87.7597 50.5099 87.2666 50.0629 86.6286 49.4808C85.4454 48.4017 83.7652 46.8585 83.7852 46.8175C83.8162 46.7545 84.0852 43.0781 84.1142 42.154C84.1416 41.4981 84.2845 40.8521 84.5363 40.2458C84.5963 40.1258 84.7653 39.3617 84.8363 39.0047C84.8603 38.8936 84.8753 38.8216 84.8753 38.8216L85.4274 38.5996C85.4274 38.5996 87.7277 41.1659 87.7277 41.2129C87.7277 41.2599 87.5707 43.2311 87.5707 43.2311L87.4076 43.3731L87.3366 43.4341C87.3366 43.4341 87.2266 44.2952 87.1486 44.5533C87.0706 44.8113 87.1546 45.2593 87.1636 45.3073C87.1563 45.4421 87.1372 45.576 87.1066 45.7074C87.0936 45.7579 87.0758 45.8072 87.0536 45.8544C87.0254 45.942 87.0311 46.0369 87.0696 46.1204C87.1141 46.2364 87.1718 46.3468 87.2416 46.4495L88.0887 46.4575Z" fill="#2D3E5E"/>
<path d="M102.029 46.8184C102.053 46.8674 99.6001 49.1067 98.537 50.0738L98.0549 50.5108L97.7289 46.4584H98.574C98.574 46.4584 98.856 46.0513 98.762 45.8633C98.6965 45.688 98.6596 45.5033 98.653 45.3163C98.653 45.3163 98.746 44.8162 98.668 44.5572C98.59 44.2981 98.48 43.438 98.48 43.438L98.373 43.346L98.2459 43.235C98.2459 43.235 98.0889 41.2638 98.0889 41.2168C98.0889 41.1698 100.389 38.6035 100.389 38.6035L100.937 38.8225C100.937 38.8225 100.949 38.8815 100.969 38.9756C101.043 39.3166 101.22 40.1237 101.281 40.2467C101.533 40.853 101.676 41.499 101.703 42.1549C101.729 43.079 101.997 46.7554 102.029 46.8184Z" fill="#2D3E5E"/>
<path d="M102.039 81.2161C101.892 81.5081 100.86 81.3161 100.647 81.3001C100.434 81.2841 98.93 80.527 98.9089 80.35C98.8879 80.1729 98.3669 79.8079 98.2209 79.8079C98.0749 79.8079 97.3658 79.2438 97.3028 79.1608C97.2868 79.1194 97.2797 79.0752 97.2818 79.0308C97.2598 78.6878 97.3028 77.8047 97.3028 77.8047L100.328 77.9717L101.798 80.183C101.922 80.4215 102.012 80.6764 102.064 80.94C102.082 81.0326 102.073 81.1282 102.039 81.2161Z" fill="#2D3E5E"/>
<path opacity="0.1" d="M102.039 81.2161C101.892 81.5081 100.86 81.3161 100.647 81.3001C100.434 81.2841 98.93 80.527 98.9089 80.35C98.8879 80.1729 98.3669 79.8079 98.2209 79.8079C98.0749 79.8079 97.3658 79.2438 97.3028 79.1608C97.2868 79.1194 97.2797 79.0752 97.2818 79.0308C97.2598 78.6878 97.3028 77.8047 97.3028 77.8047L100.328 77.9717L101.798 80.183C101.922 80.4215 102.012 80.6764 102.064 80.94C102.082 81.0326 102.073 81.1282 102.039 81.2161Z" fill="#404040"/>
<path opacity="0.1" d="M102.039 81.2165C101.892 81.5085 100.86 81.3165 100.647 81.3005C100.434 81.2845 98.93 80.5274 98.909 80.3504C98.888 80.1734 98.367 79.8083 98.2209 79.8083C98.0749 79.8083 97.3659 79.2443 97.3029 79.1613C97.2869 79.1199 97.2797 79.0756 97.2819 79.0312L98.262 79.6513C98.262 79.6513 98.888 80.0514 99.055 80.2884C99.2221 80.5254 100.538 81.0184 100.647 81.0284C100.728 81.0364 101.592 80.8704 102.064 80.9404C102.082 81.033 102.074 81.1287 102.039 81.2165Z" fill="#404040"/>
<path d="M87.7378 79.3912C87.7378 79.3912 87.3097 79.9233 86.7377 79.9643C86.5867 79.9654 86.4419 80.0245 86.3333 80.1293C86.2246 80.234 86.1603 80.3765 86.1536 80.5274C86.1536 80.5274 86.2536 80.8514 84.8705 81.3005C84.0354 81.5695 83.5103 81.4845 83.2043 81.3005C83.04 81.2098 82.9161 81.0605 82.8572 80.8824C82.7632 80.5494 84.6094 78.0141 84.6094 78.0141L86.2896 77.9141L87.4897 78.4561L87.6738 79.1432L87.7378 79.3912Z" fill="#2D3E5E"/>
<path opacity="0.1" d="M87.7378 79.3912C87.7378 79.3912 87.3097 79.9233 86.7377 79.9643C86.5867 79.9654 86.4419 80.0245 86.3333 80.1293C86.2246 80.234 86.1603 80.3765 86.1536 80.5274C86.1536 80.5274 86.2536 80.8514 84.8705 81.3005C84.0354 81.5695 83.5103 81.4845 83.2043 81.3005C83.04 81.2098 82.9161 81.0605 82.8572 80.8824C82.7632 80.5494 84.6094 78.0141 84.6094 78.0141L86.2896 77.9141L87.4897 78.4561L87.6738 79.1432L87.7378 79.3912Z" fill="#404040"/>
<path opacity="0.1" d="M87.7378 79.3907C87.7378 79.3907 87.3097 79.9227 86.7376 79.9638C86.5867 79.9649 86.4419 80.0239 86.3332 80.1287C86.2245 80.2335 86.1602 80.376 86.1536 80.5268C86.1536 80.5268 86.2536 80.8508 84.8704 81.2999C84.0353 81.5689 83.5103 81.4839 83.2042 81.2999C83.9913 81.2179 85.7305 80.7208 85.9045 80.5488C86.1136 80.3398 86.3746 79.7657 86.5516 79.7557C86.6746 79.7477 87.2997 79.3717 87.6747 79.1387L87.7378 79.3907Z" fill="#404040"/>
<path d="M100.62 77.0654C100.432 77.5035 100.62 78.4006 100.62 78.4006C100.62 78.4006 97.8199 78.5466 97.1359 78.0875C96.4518 77.6285 95.9677 74.9992 95.9677 74.9992C95.9677 74.9992 96.0678 71.9119 95.9677 71.7658C95.8677 71.6198 95.4877 70.9318 95.6127 70.7857C95.7377 70.6397 95.5127 69.8676 95.3417 69.5336C95.1707 69.1996 95.2417 68.2405 95.2417 68.2405L94.8236 65.6942L94.1775 62.6698L93.6285 60.6456C93.6285 60.6456 93.0654 58.9974 92.8744 58.3094C92.6834 57.6213 92.4814 58.2464 92.4814 58.2464C92.4614 58.9144 90.9172 61.9188 90.9172 61.9188C90.9172 61.9188 90.6872 63.734 90.4371 64.38C90.1871 65.0261 89.9151 67.2804 89.9151 67.2804C89.9151 67.2804 89.515 71.8699 89.185 72.6419C88.8549 73.414 88.6279 74.5611 88.6279 74.5611C88.6279 74.5611 88.7119 76.1473 88.5029 76.2723C88.2939 76.3973 88.3279 77.3575 88.3279 77.3575C88.3279 77.3575 88.4529 78.2746 87.9729 78.4216C87.4928 78.5686 87.5728 78.8806 87.5728 78.8806C87.5728 78.8806 84.9025 79.3187 84.4645 78.1495C84.0264 76.9804 84.6315 76.6694 84.6645 76.5854C84.6975 76.5014 85.0305 76.3563 84.7385 76.0213C84.4465 75.6863 85.1135 74.7702 85.1135 74.7702C85.1135 74.7702 85.2185 73.477 85.4056 73.435C85.5926 73.393 85.5316 71.5158 85.5316 71.5158L85.7396 69.5546C85.7396 69.5546 86.0116 65.1731 85.9486 65.0061C85.8856 64.8391 85.9276 64.006 86.1366 63.6059C86.3457 63.2059 86.5117 59.5575 86.5117 59.5575C86.5117 59.5575 86.4697 57.7643 86.6367 57.4303C86.7367 57.2413 86.7787 56.5142 86.8027 55.9211C86.8207 55.4681 86.8247 55.093 86.8247 55.093L89.161 54.2169L92.1613 53.2578L94.6856 54.4679L98.379 55.177L98.425 55.8141L99.1301 65.5462L99.5301 69.2176C99.5301 69.2176 99.6972 70.9488 99.7182 71.2618C99.7392 71.5748 99.9472 73.62 99.9472 73.62C99.9472 73.62 100.385 74.6002 100.114 74.9342C99.8432 75.2682 99.9472 75.5343 99.9472 75.5343C99.9472 75.5343 100.808 76.6274 100.62 77.0654Z" fill="#2D3E5E"/>
<path opacity="0.1" d="M94.5645 31.4518C94.3344 31.7819 94.3164 32.2089 94.3934 32.632C93.8679 33.0027 93.235 33.1906 92.5923 33.1665C91.9495 33.1425 91.3325 32.9079 90.8361 32.4989C90.7731 32.0749 90.7001 31.7639 90.7001 31.7639C90.7001 31.7639 95.2525 30.4657 94.5645 31.4518Z" fill="#404040"/>
<path d="M95.6287 30.1764C95.6287 30.756 95.4568 31.3226 95.1348 31.8044C94.8128 32.2863 94.3552 32.6619 93.8197 32.8837C93.2842 33.1055 92.695 33.1635 92.1266 33.0505C91.5582 32.9374 91.036 32.6583 90.6262 32.2485C90.2164 31.8387 89.9373 31.3166 89.8243 30.7481C89.7112 30.1797 89.7692 29.5905 89.991 29.0551C90.2128 28.5196 90.5884 28.062 91.0703 27.74C91.5522 27.418 92.1187 27.2461 92.6983 27.2461C93.0836 27.2443 93.4655 27.3188 93.8219 27.4654C94.1783 27.612 94.502 27.8278 94.7745 28.1003C95.047 28.3727 95.2628 28.6965 95.4094 29.0529C95.556 29.4092 95.6305 29.7911 95.6287 30.1764Z" fill="#FDB797"/>
<path opacity="0.1" d="M96.2387 35.0452L95.2786 52.1421L90.063 51.047L89.0299 44.1932L90.053 34.9922L90.8231 35.0912L92.1813 35.2642L93.5264 35.3472L94.9846 35.1852L96.2387 35.0452Z" fill="#404040"/>
<path d="M96.2387 35.1711L95.2786 52.268L90.063 51.1729L89.0299 44.3192L90.053 35.1191L90.8231 35.2172L92.1813 35.3902L93.5264 35.4732L94.9846 35.3112L96.2387 35.1711Z" fill="#404040"/>
<path d="M91.9513 35.6289L93.8295 35.6919L93.3014 36.431C93.3014 36.431 93.3384 37.9242 93.5894 38.3522C93.8405 38.7803 93.7664 45.393 93.7664 45.393L93.2664 46.3421L92.4113 45.278L92.4223 36.547L91.9513 35.6289Z" fill="#2D3E5E"/>
<path opacity="0.1" d="M91.9513 35.6289L93.8295 35.6919L93.3014 36.431C93.3014 36.431 93.3384 37.9242 93.5894 38.3522C93.8405 38.7803 93.7664 45.393 93.7664 45.393L93.2664 46.3421L92.4113 45.278L92.4223 36.547L91.9513 35.6289Z" fill="#404040"/>
<path opacity="0.1" d="M94.8926 33.6895L93.1404 35.6297L94.1415 36.6728L95.8007 35.0556L94.8926 33.6895Z" fill="#404040"/>
<path d="M94.8926 33.5645L93.1404 35.5047L94.1415 36.5478L95.8007 34.9306L94.8926 33.5645Z" fill="#404040"/>
<path opacity="0.1" d="M92.4003 35.5349L90.626 33.7617L90.459 34.6898L91.2731 36.724L92.4003 35.5349Z" fill="#404040"/>
<path d="M92.4623 35.4099L90.6891 33.6367L90.5221 34.5648L91.3362 36.599L92.4623 35.4099Z" fill="#404040"/>
<path opacity="0.1" d="M98.434 55.8161C97.5824 56.2218 96.6703 56.4856 95.7337 56.5972C94.0125 56.8162 92.8864 54.6259 92.8864 54.6259L92.2293 55.481C92.0203 56.3891 88.8389 56.6182 87.5458 56.2741C87.2775 56.2078 87.0251 56.0885 86.8037 55.9231C86.8217 55.47 86.8257 55.095 86.8257 55.095L89.162 54.2189L92.1623 53.2598L94.6866 54.4699L98.38 55.179L98.434 55.8161Z" fill="#404040"/>
<path opacity="0.1" d="M96.2387 35.1721L95.2796 52.268L90.0631 51.1729L89.028 44.3202L90.0501 35.1191L90.8201 35.2192C90.8005 35.5543 90.7627 35.8882 90.7071 36.2193C90.5821 36.8043 91.3542 40.9558 91.3542 40.9558C91.3542 40.9558 92.8214 45.6113 93.4814 44.9402C94.1415 44.2692 95.0816 40.7258 95.0816 40.7258C95.7187 39.4116 95.0926 35.7252 95.0456 35.6512C95.0129 35.5422 94.9927 35.4298 94.9856 35.3162L96.2387 35.1721Z" fill="#404040"/>
<path opacity="0.1" d="M98.492 48.4022L98.536 50.0774L98.0539 50.5144L97.7289 46.459H98.449L98.492 48.4022Z" fill="#404040"/>
<path opacity="0.1" d="M87.1647 45.3105C87.1574 45.4453 87.1383 45.5791 87.1077 45.7105C87.1077 45.6735 87.1077 45.6525 87.0997 45.6495C87.0697 45.6415 87.1057 45.4885 87.1647 45.3105Z" fill="#404040"/>
<path opacity="0.1" d="M88.0888 46.4579L87.7598 50.5104C87.7598 50.5104 87.2667 50.0633 86.6287 49.4813L86.7047 48.7632C86.7047 48.7632 86.9737 46.999 87.0717 46.1289C87.1162 46.2449 87.1739 46.3553 87.2437 46.4579H88.0888Z" fill="#404040"/>
<path d="M90.9182 33.7C90.9182 33.7 90.6061 33.241 90.1781 34.1271C90.1781 34.1271 89.062 34.7742 88.6779 34.8472C88.2939 34.9202 86.9277 35.4002 86.9277 35.4002C86.7214 35.5494 86.4732 35.6295 86.2186 35.6292C85.7906 35.6292 85.4356 36.5684 85.4876 37.0794C85.5396 37.5905 85.4566 37.9665 85.0605 37.9875C84.6645 38.0085 84.8825 38.8316 84.8825 38.8316L87.5218 41.8569C87.5218 41.8569 87.6888 44.6422 87.6058 44.7263C87.5228 44.8103 87.2198 45.6264 87.2928 45.6544C87.3658 45.6824 86.8927 48.7627 86.8927 48.7627L86.2567 54.7404C86.2567 54.7404 86.2567 55.7405 87.5508 56.0855C88.8449 56.4305 92.0283 56.2025 92.2333 55.2944L92.8904 54.4383C92.8904 54.4383 94.0165 56.6296 95.7377 56.4105C97.4589 56.1915 98.555 55.5654 98.555 55.5654L98.367 48.4017L98.242 43.2381L100.929 38.8226C100.929 38.8226 100.209 37.4454 100.272 36.8224C100.335 36.1993 100.459 35.7273 98.926 35.5082C98.926 35.5082 97.6329 35.3152 96.8708 34.7882C96.4179 34.4737 95.923 34.2246 95.4006 34.0481C95.4006 34.0481 94.9706 33.248 94.6716 33.522C94.6716 33.522 94.9716 34.6531 94.9466 34.8222C94.9216 34.9912 94.9936 35.7553 95.0406 35.8343C95.0876 35.9133 95.7137 39.5947 95.0766 40.9088C95.0766 40.9088 94.1415 44.4522 93.4764 45.1233C92.8114 45.7944 91.3492 41.1389 91.3492 41.1389C91.3492 41.1389 90.5771 36.9864 90.7021 36.4023C90.8271 35.8183 90.9182 33.7 90.9182 33.7Z" fill="#2D3E5E"/>
<path d="M93.1504 47.3771C93.4039 47.3771 93.6095 47.1716 93.6095 46.918C93.6095 46.6645 93.4039 46.459 93.1504 46.459C92.8969 46.459 92.6914 46.6645 92.6914 46.918C92.6914 47.1716 92.8969 47.3771 93.1504 47.3771Z" fill="#2D3E5E"/>
<path d="M93.1504 49.5411C93.4039 49.5411 93.6095 49.3356 93.6095 49.0821C93.6095 48.8286 93.4039 48.623 93.1504 48.623C92.8969 48.623 92.6914 48.8286 92.6914 49.0821C92.6914 49.3356 92.8969 49.5411 93.1504 49.5411Z" fill="#2D3E5E"/>
<path opacity="0.1" d="M93.1504 47.3771C93.4039 47.3771 93.6095 47.1716 93.6095 46.918C93.6095 46.6645 93.4039 46.459 93.1504 46.459C92.8969 46.459 92.6914 46.6645 92.6914 46.918C92.6914 47.1716 92.8969 47.3771 93.1504 47.3771Z" fill="#404040"/>
<path opacity="0.1" d="M93.1504 49.5411C93.4039 49.5411 93.6095 49.3356 93.6095 49.0821C93.6095 48.8286 93.4039 48.623 93.1504 48.623C92.8969 48.623 92.6914 48.8286 92.6914 49.0821C92.6914 49.3356 92.8969 49.5411 93.1504 49.5411Z" fill="#404040"/>
<path opacity="0.1" d="M97.2759 76.4375C97.2759 76.4375 99.1601 76.5835 99.3471 76.7295C99.5341 76.8756 97.2759 76.4375 97.2759 76.4375Z" fill="#404040" stroke="#404040" stroke-miterlimit="10"/>
<path opacity="0.1" d="M86.0576 74.957C86.0576 74.957 86.4577 75.4571 86.2877 75.6871C86.1176 75.9171 86.0576 74.957 86.0576 74.957Z" fill="#404040" stroke="#404040" stroke-miterlimit="10"/>
<path opacity="0.1" d="M86.5377 76.7607C86.5377 76.7607 87.2678 76.2807 87.5598 76.5997C87.8518 76.9187 86.5377 76.7607 86.5377 76.7607Z" fill="#404040" stroke="#404040" stroke-miterlimit="10"/>
<path opacity="0.1" d="M95.6287 30.1773C95.6292 30.4274 95.5976 30.6765 95.5347 30.9184C95.473 30.8903 95.4214 30.844 95.3867 30.7857C95.352 30.7275 95.336 30.66 95.3406 30.5924C95.3536 30.4734 95.4327 30.3644 95.4156 30.2464C95.3906 30.0643 95.1706 29.9903 95.0546 29.8463C94.9116 29.6723 94.9426 29.4193 94.9546 29.1942C94.9666 28.9692 94.9096 28.6942 94.6986 28.6172C94.6356 28.5942 94.5666 28.5922 94.5056 28.5662C94.3395 28.4962 94.2885 28.2901 94.1775 28.1481C93.9555 27.8621 93.5144 27.8681 93.1774 28.0041C93.0307 28.0744 92.8805 28.1372 92.7273 28.1921C92.6507 28.2192 92.5692 28.23 92.4882 28.224C92.4071 28.218 92.3281 28.1952 92.2563 28.1571C92.1903 28.1151 92.1373 28.0571 92.0693 28.0151C91.8432 27.8791 91.5472 28.0151 91.3512 28.1901C91.1552 28.3651 90.9982 28.6002 90.7511 28.7072C90.6401 28.7572 90.5031 28.7872 90.4511 28.8952C90.4254 28.954 90.4144 29.0182 90.4191 29.0822C90.4191 29.4713 90.4651 29.8663 90.3841 30.2474C90.3321 30.4924 90.1601 30.7704 89.911 30.7404C89.88 30.7358 89.8495 30.7281 89.82 30.7174C89.7451 30.3169 89.7545 29.9051 89.8477 29.5084C89.9408 29.1116 90.1157 28.7387 90.3612 28.4134C90.6066 28.0881 90.9172 27.8176 91.2731 27.6191C91.629 27.4206 92.0224 27.2986 92.4282 27.2607C92.8339 27.2229 93.2431 27.2701 93.6296 27.3993C94.0161 27.5285 94.3713 27.7369 94.6727 28.0112C94.9741 28.2855 95.2149 28.6196 95.3799 28.9923C95.5448 29.3649 95.6303 29.7678 95.6307 30.1753L95.6287 30.1773Z" fill="#404040"/>
<path d="M89.6889 30.5508C89.764 30.5678 89.835 30.6068 89.912 30.6168C90.161 30.6468 90.333 30.3687 90.385 30.1237C90.466 29.7427 90.424 29.3476 90.421 28.9586C90.4154 28.8946 90.4261 28.8303 90.452 28.7716C90.509 28.6636 90.6461 28.6336 90.7521 28.5835C90.9941 28.4755 91.1521 28.2455 91.3521 28.0665C91.5522 27.8875 91.8432 27.7555 92.0692 27.8915C92.1362 27.9315 92.1902 27.9915 92.2562 28.0335C92.3284 28.071 92.4075 28.0935 92.4887 28.0995C92.5698 28.1055 92.6513 28.095 92.7283 28.0685C92.8833 28.0225 93.0283 27.9415 93.1773 27.8805C93.5114 27.7445 93.9534 27.7395 94.1774 28.0235C94.2884 28.1665 94.3395 28.3715 94.5055 28.4415C94.5665 28.4675 94.6355 28.4705 94.6985 28.4935C94.9095 28.5725 94.9635 28.8456 94.9545 29.0706C94.9455 29.2956 94.9155 29.5487 95.0545 29.7227C95.1705 29.8647 95.3906 29.9387 95.4156 30.1227C95.4316 30.2407 95.3536 30.3507 95.3406 30.4688C95.3376 30.5126 95.3433 30.5566 95.3575 30.5983C95.3717 30.6399 95.394 30.6783 95.4231 30.7112C95.4522 30.7441 95.4876 30.771 95.5271 30.7901C95.5667 30.8093 95.6097 30.8204 95.6536 30.8228C95.9136 30.8228 96.0746 30.5318 96.3177 30.4388C96.4177 30.3998 96.5387 30.3937 96.6177 30.3147C96.6471 30.2768 96.6678 30.2329 96.6785 30.1861C96.6892 30.1393 96.6896 30.0907 96.6797 30.0437C96.6307 29.6607 96.3237 29.3276 96.3567 28.9436C96.3877 28.5755 96.7287 28.2545 96.6567 27.8925C96.62 27.759 96.5514 27.6364 96.4567 27.5354C96.3495 27.3901 96.2097 27.272 96.0486 27.1904C95.9096 27.1304 95.7486 27.1164 95.6216 27.0434C95.2436 26.8364 95.2446 26.2963 95.0215 25.9283C94.9258 25.7762 94.7901 25.6533 94.6292 25.5732C94.4683 25.4932 94.2885 25.4589 94.1094 25.4742C93.8284 25.5022 93.5734 25.6512 93.2953 25.7012C92.9143 25.7692 92.5283 25.6442 92.1672 25.5012C91.8062 25.3582 91.4411 25.2012 91.0541 25.2012C90.6671 25.2012 90.248 25.4012 90.13 25.7672C90.068 25.9673 90.099 26.1813 90.051 26.3823C89.967 26.7393 89.6509 26.9934 89.3329 27.1704C89.1139 27.2924 88.8509 27.4324 88.8249 27.6814C88.8079 27.8395 88.8949 27.9815 88.9499 28.1345C89.0434 28.3934 89.0413 28.6772 88.9439 28.9346C88.8709 29.1236 88.7488 29.2896 88.6748 29.4776C88.6223 29.6053 88.5975 29.7426 88.602 29.8805C88.6064 30.0184 88.6401 30.1538 88.7008 30.2777C88.7475 30.3681 88.812 30.448 88.8906 30.5125C88.9692 30.577 89.0602 30.6247 89.1579 30.6528C89.3549 30.6998 89.4789 30.5048 89.6889 30.5508Z" fill="#2D3E5E"/>
<g opacity="0.1">
<path opacity="0.1" d="M90.3851 29.9066C90.3331 30.1516 90.1601 30.4296 89.9111 30.3996C89.8341 30.3896 89.7641 30.3506 89.688 30.3336C89.479 30.2876 89.355 30.4836 89.158 30.4336C89.0601 30.4055 88.969 30.3578 88.8903 30.2933C88.8115 30.2288 88.7467 30.149 88.6999 30.0586C88.6476 29.9568 88.616 29.8456 88.6069 29.7315C88.587 29.9086 88.6193 30.0877 88.6999 30.2466C88.7467 30.337 88.8115 30.4169 88.8903 30.4813C88.969 30.5458 89.0601 30.5936 89.158 30.6216C89.358 30.6676 89.479 30.4716 89.688 30.5216C89.7612 30.5471 89.8357 30.5688 89.9111 30.5866C90.1601 30.6176 90.3331 30.3396 90.3851 30.0946C90.4261 29.8781 90.4422 29.6576 90.4331 29.4375C90.4322 29.595 90.4161 29.7521 90.3851 29.9066Z" fill="#404040"/>
<path opacity="0.1" d="M89.015 28.3987C89.0277 28.2348 89.0052 28.0701 88.949 27.9157C88.9038 27.8129 88.8654 27.7074 88.834 27.5996C88.8297 27.6164 88.8264 27.6334 88.824 27.6506C88.8071 27.8076 88.895 27.9507 88.949 28.1037C88.9839 28.1987 89.0061 28.2979 89.015 28.3987Z" fill="#404040"/>
<path opacity="0.1" d="M96.6559 27.873C96.6089 28.1571 96.3788 28.4241 96.3558 28.7231C96.3503 28.7743 96.3503 28.826 96.3558 28.8772C96.4059 28.5281 96.7149 28.2191 96.6559 27.873Z" fill="#404040"/>
<path opacity="0.1" d="M96.6728 29.9824C96.6643 30.0242 96.6446 30.063 96.6158 30.0944C96.5418 30.1734 96.4157 30.1794 96.3157 30.2185C96.0727 30.3115 95.9157 30.6055 95.6516 30.6025C95.584 30.5987 95.5192 30.5744 95.4656 30.533C95.4121 30.4916 95.3723 30.4349 95.3516 30.3705C95.3455 30.3921 95.3408 30.4142 95.3376 30.4365C95.3348 30.4803 95.3406 30.5242 95.3549 30.5657C95.3691 30.6072 95.3914 30.6454 95.4205 30.6783C95.4496 30.7111 95.4849 30.7378 95.5244 30.7569C95.5639 30.776 95.6068 30.7871 95.6506 30.7895C95.9117 30.7895 96.0717 30.4985 96.3147 30.4065C96.4147 30.3675 96.5368 30.3615 96.6148 30.2825C96.6441 30.2445 96.6649 30.2006 96.6756 30.1538C96.6863 30.107 96.6867 30.0584 96.6768 30.0114C96.6758 29.9994 96.6738 29.9914 96.6728 29.9824Z" fill="#404040"/>
<path opacity="0.1" d="M95.4187 29.9C95.3937 29.7179 95.1736 29.6439 95.0576 29.4999C94.9865 29.4053 94.9479 29.2902 94.9476 29.1719C94.9396 29.3579 94.9426 29.5479 95.0576 29.6879C95.1726 29.8279 95.3476 29.888 95.4037 30.032C95.4178 29.9895 95.4229 29.9445 95.4187 29.9Z" fill="#404040"/>
<path opacity="0.1" d="M94.9536 28.8527C94.9616 28.6277 94.9076 28.3526 94.6966 28.2756C94.6346 28.2526 94.5656 28.2496 94.5046 28.2246C94.3385 28.1546 94.2865 27.9486 94.1765 27.8066C93.9535 27.5215 93.5124 27.5265 93.1764 27.6625C93.0264 27.7236 92.8834 27.8046 92.7273 27.8506C92.6507 27.8776 92.5692 27.8885 92.4882 27.8824C92.4071 27.8764 92.3281 27.8536 92.2563 27.8156C92.1903 27.7736 92.1363 27.7156 92.0693 27.6735C91.8422 27.5375 91.5462 27.6735 91.3512 27.8486C91.1562 28.0236 90.9981 28.2576 90.7511 28.3656C90.6391 28.4156 90.5031 28.4456 90.4451 28.5536C90.4196 28.6125 90.409 28.6767 90.4141 28.7407C90.4141 28.7797 90.4141 28.8187 90.4141 28.8577C90.4154 28.8174 90.4253 28.7778 90.4431 28.7417C90.5011 28.6337 90.6371 28.6037 90.7491 28.5536C90.9911 28.4456 91.1492 28.2156 91.3492 28.0366C91.5492 27.8576 91.8402 27.7256 92.0673 27.8616C92.1343 27.9016 92.1883 27.9616 92.2543 28.0026C92.326 28.0409 92.405 28.0638 92.4861 28.0698C92.5672 28.0759 92.6487 28.0649 92.7253 28.0376C92.8782 27.9832 93.0281 27.9207 93.1744 27.8506C93.5094 27.7146 93.9505 27.7086 94.1745 27.9936C94.2845 28.1356 94.3365 28.3416 94.5025 28.4116C94.5636 28.4376 94.6326 28.4406 94.6946 28.4636C94.8656 28.5276 94.9336 28.7197 94.9486 28.9097L94.9536 28.8527Z" fill="#404040"/>
</g>
<g opacity="0.1">
<path opacity="0.1" d="M90.0281 29.899C90.0338 29.733 90.0933 29.5734 90.1975 29.4441C90.3018 29.3147 90.4452 29.2228 90.6062 29.1819C91.0522 29.0729 91.5201 29.0941 91.9544 29.2429C92.9035 29.557 91.8343 30.6871 91.8343 30.6871C91.8343 30.6871 91.1233 31.3872 90.4602 30.8981C90.2643 30.7501 90.1272 30.5375 90.0731 30.2981C90.0407 30.1676 90.0255 30.0334 90.0281 29.899Z" fill="#404040"/>
<path opacity="0.1" d="M95.2457 29.8989C95.2399 29.7327 95.1803 29.573 95.0759 29.4437C94.9715 29.3143 94.8279 29.2224 94.6667 29.1818C94.221 29.073 93.7535 29.0941 93.3196 29.2428C92.3705 29.5568 93.4396 30.687 93.4396 30.687C93.4396 30.687 94.1496 31.387 94.8137 30.898C95.0095 30.75 95.1466 30.5374 95.2007 30.2979C95.2332 30.1675 95.2483 30.0333 95.2457 29.8989Z" fill="#404040"/>
<path opacity="0.1" d="M91.7753 29.1516V29.1986H93.5084V29.1426L91.7753 29.1516Z" fill="#404040"/>
<path opacity="0.1" d="M92.3283 29.6524H92.3833V29.4933C92.3833 29.4933 92.5593 29.3563 92.8514 29.4933V29.6354H92.9514V29.5423H92.9024C92.9024 29.5423 92.9224 29.3493 92.5963 29.3803C92.5963 29.3803 92.3343 29.3553 92.3403 29.5213H92.2803L92.3283 29.6524Z" fill="#404040"/>
</g>
<path d="M90.0281 29.834C90.0339 29.668 90.0933 29.5084 90.1976 29.3791C90.3018 29.2498 90.4452 29.1578 90.6062 29.1169C91.0523 29.0087 91.5199 29.0298 91.9544 29.178C92.9035 29.493 91.8344 30.6221 91.8344 30.6221C91.8344 30.6221 91.1233 31.3222 90.4602 30.8331C90.264 30.6855 90.1267 30.4727 90.0731 30.2331C90.0406 30.1026 90.0254 29.9685 90.0281 29.834Z" fill="#404040"/>
<path d="M95.2456 29.8341C95.2398 29.6679 95.1802 29.5082 95.0758 29.3788C94.9714 29.2495 94.8277 29.1576 94.6666 29.117C94.2209 29.0087 93.7535 29.0298 93.3194 29.178C92.3704 29.493 93.4395 30.6221 93.4395 30.6221C93.4395 30.6221 94.1495 31.3222 94.8136 30.8332C95.0098 30.6855 95.147 30.4728 95.2006 30.2331C95.2332 30.1027 95.2483 29.9685 95.2456 29.8341Z" fill="#404040"/>
<path d="M91.7753 29.0871V29.1351H93.5084V29.0781L91.7753 29.0871Z" fill="#404040"/>
<path d="M92.3283 29.5897H92.3833V29.4306C92.3833 29.4306 92.5593 29.2946 92.8513 29.4306V29.5737H92.9514V29.4796H92.9024C92.9024 29.4796 92.9224 29.2876 92.5963 29.3176C92.5963 29.3176 92.3343 29.2936 92.3403 29.4586H92.2803L92.3283 29.5897Z" fill="#404040"/>
<path d="M13.0306 45.7246H12.4625V58.516H13.0306V45.7246Z" fill="#8A94A5"/>
<path d="M16.6009 58.4764L16.5649 59.0524L16.5149 59.8655L16.4939 60.2046L16.4439 61.0187L16.4219 61.3577L16.3719 62.1708L15.7988 71.4188C15.7744 71.8168 15.599 72.1905 15.3086 72.4637C15.0181 72.7369 14.6344 72.889 14.2356 72.889H11.2573C10.8587 72.889 10.4751 72.7368 10.1848 72.4636C9.89445 72.1904 9.71933 71.8167 9.69513 71.4188L9.11907 62.1708L9.06907 61.3577L9.04806 61.0187L8.99906 60.2026L8.97805 59.8635L8.92805 59.0504L8.89205 58.4744C8.88522 58.3638 8.90111 58.253 8.93873 58.1488C8.97636 58.0447 9.03493 57.9493 9.11084 57.8686C9.18674 57.7879 9.27836 57.7237 9.38006 57.6797C9.48175 57.6358 9.59136 57.6132 9.70214 57.6133H15.7918C15.9027 57.6132 16.0125 57.6359 16.1143 57.6799C16.216 57.7239 16.3077 57.7884 16.3836 57.8693C16.4594 57.9503 16.5178 58.0459 16.5552 58.1503C16.5926 58.2547 16.6082 58.3657 16.6009 58.4764Z" fill="#2D3E5E"/>
<path d="M16.5648 59.0527L16.5148 59.8658H8.97701L8.927 59.0527H16.5648Z" fill="#E8EAF1"/>
<path d="M16.4939 60.2051L16.4439 61.0192H9.04905L8.99805 60.2051H16.4939Z" fill="#E8EAF1"/>
<path d="M16.422 61.3574L16.372 62.1705H9.1212L9.07019 61.3574H16.422Z" fill="#E8EAF1"/>
<path d="M8.0313 50.2896C11.3397 52.6829 12.7466 56.6567 12.7466 56.6567C12.7466 56.6567 8.75916 56.5197 5.44579 54.1264C2.13243 51.7332 0.759277 47.9888 0.759277 47.9888C0.759277 47.9888 4.72193 47.8963 8.0313 50.2896Z" fill="#37B57E"/>
<path d="M0.76416 47.9883C0.76416 47.9883 4.90262 50.2885 6.22976 52.1888C7.55691 54.089 12.7465 56.6572 12.7465 56.6572" stroke="#37B57E" stroke-width="2" stroke-miterlimit="10"/>
<path d="M10.1953 45.7014C11.9955 47.0015 12.7466 49.0417 12.7466 49.0417C12.7466 49.0417 10.5763 48.9677 8.77513 47.6646C6.97394 46.3614 6.22485 44.3242 6.22485 44.3242C6.22485 44.3242 8.39509 44.3932 10.1953 45.7014Z" fill="#37B57E"/>
<path d="M6.22485 44.3184C6.22485 44.3184 8.4771 45.5685 9.19918 46.6036C9.92126 47.6387 12.7466 49.0359 12.7466 49.0359" stroke="#37B57E" stroke-width="2" stroke-miterlimit="10"/>
<path d="M15.3639 48.9327C13.2947 51.206 12.8577 54.1763 12.8577 54.1763C12.8577 54.1763 15.774 53.4612 17.8422 51.188C19.9104 48.9147 20.3485 45.9434 20.3485 45.9434C20.3485 45.9434 17.4322 46.6584 15.3639 48.9327Z" fill="#37B57E"/>
<path d="M20.3485 45.9434C20.3485 45.9434 17.6542 48.2736 16.9691 49.8798C16.284 51.486 12.8577 54.1803 12.8577 54.1803" stroke="#37B57E" stroke-width="2" stroke-miterlimit="10"/>
</g>
<defs>
<linearGradient id="paint0_linear" x1="59.8518" y1="64.6143" x2="59.8518" y2="10.7754" gradientUnits="userSpaceOnUse">
<stop stop-color="#808080" stop-opacity="0.25"/>
<stop offset="0.54" stop-color="#808080" stop-opacity="0.12"/>
<stop offset="1" stop-color="#808080" stop-opacity="0.1"/>
</linearGradient>
<linearGradient id="paint1_linear" x1="18406.1" y1="48348.6" x2="18406.1" y2="16381.6" gradientUnits="userSpaceOnUse">
<stop stop-color="#808080" stop-opacity="0.25"/>
<stop offset="0.54" stop-color="#808080" stop-opacity="0.12"/>
<stop offset="1" stop-color="#808080" stop-opacity="0.1"/>
</linearGradient>
<clipPath id="clip0">
<rect width="114.57" height="82" fill="white" transform="translate(0.71521)"/>
</clipPath>
</defs>
</svg>
