<svg width="104" height="82" viewBox="0 0 104 82" fill="none" xmlns="http://www.w3.org/2000/svg">
<g clip-path="url(#clip0)">
<g opacity="0.5">
<path opacity="0.5" d="M42.2285 0H6.44913C6.1758 0 5.95422 0.221576 5.95422 0.494903V55.0861C5.95422 55.3594 6.1758 55.581 6.44913 55.581H42.2285C42.5018 55.581 42.7234 55.3594 42.7234 55.0861V0.494903C42.7234 0.221576 42.5018 0 42.2285 0Z" fill="url(#paint0_linear)"/>
</g>
<path d="M41.7566 0.408203H6.91983C6.6465 0.408203 6.42493 0.629779 6.42493 0.903107V54.3703C6.42493 54.6436 6.6465 54.8652 6.91983 54.8652H41.7566C42.03 54.8652 42.2516 54.6436 42.2516 54.3703V0.903107C42.2516 0.629779 42.03 0.408203 41.7566 0.408203Z" fill="#F2F2F2"/>
<g opacity="0.5">
<path opacity="0.5" d="M16.6783 10.4395H10.503C10.2296 10.4395 10.0081 10.661 10.0081 10.9344V16.3937C10.0081 16.667 10.2296 16.8886 10.503 16.8886H16.6783C16.9516 16.8886 17.1732 16.667 17.1732 16.3937V10.9344C17.1732 10.661 16.9516 10.4395 16.6783 10.4395Z" fill="#404040"/>
</g>
<path d="M38.3594 10.4395H19.6334C19.4621 10.4395 19.3232 10.5783 19.3232 10.7496V10.8464C19.3232 11.0177 19.4621 11.1565 19.6334 11.1565H38.3594C38.5307 11.1565 38.6696 11.0177 38.6696 10.8464V10.7496C38.6696 10.5783 38.5307 10.4395 38.3594 10.4395Z" fill="#E8EAF1"/>
<path d="M35.0953 12.5898H19.6334C19.4621 12.5898 19.3232 12.7287 19.3232 12.9V12.9968C19.3232 13.168 19.4621 13.3069 19.6334 13.3069H35.0953C35.2665 13.3069 35.4054 13.168 35.4054 12.9968V12.9C35.4054 12.7287 35.2665 12.5898 35.0953 12.5898Z" fill="#E8EAF1"/>
<g opacity="0.5">
<path opacity="0.5" d="M16.6783 20.4707H10.503C10.2296 20.4707 10.0081 20.6923 10.0081 20.9656V26.4249C10.0081 26.6983 10.2296 26.9198 10.503 26.9198H16.6783C16.9516 26.9198 17.1732 26.6983 17.1732 26.4249V20.9656C17.1732 20.6923 16.9516 20.4707 16.6783 20.4707Z" fill="#404040"/>
</g>
<path d="M38.3594 20.4707H19.6334C19.4621 20.4707 19.3232 20.6096 19.3232 20.7808V20.8776C19.3232 21.0489 19.4621 21.1878 19.6334 21.1878H38.3594C38.5307 21.1878 38.6696 21.0489 38.6696 20.8776V20.7808C38.6696 20.6096 38.5307 20.4707 38.3594 20.4707Z" fill="#E8EAF1"/>
<path d="M38.3594 22.6211H19.6334C19.4621 22.6211 19.3232 22.7599 19.3232 22.9312V23.028C19.3232 23.1993 19.4621 23.3382 19.6334 23.3382H38.3594C38.5307 23.3382 38.6696 23.1993 38.6696 23.028V22.9312C38.6696 22.7599 38.5307 22.6211 38.3594 22.6211Z" fill="#E8EAF1"/>
<g opacity="0.5">
<path opacity="0.5" d="M16.6783 30.502H10.503C10.2296 30.502 10.0081 30.7235 10.0081 30.9969V36.4562C10.0081 36.7295 10.2296 36.9511 10.503 36.9511H16.6783C16.9516 36.9511 17.1732 36.7295 17.1732 36.4562V30.9969C17.1732 30.7235 16.9516 30.502 16.6783 30.502Z" fill="#404040"/>
</g>
<path d="M38.3594 30.502H19.6334C19.4621 30.502 19.3232 30.6408 19.3232 30.8121V30.9089C19.3232 31.0802 19.4621 31.219 19.6334 31.219H38.3594C38.5307 31.219 38.6696 31.0802 38.6696 30.9089V30.8121C38.6696 30.6408 38.5307 30.502 38.3594 30.502Z" fill="#E8EAF1"/>
<path d="M21.1632 32.6523H19.6334C19.4621 32.6523 19.3232 32.7912 19.3232 32.9625V33.0593C19.3232 33.2305 19.4621 33.3694 19.6334 33.3694H21.1632C21.3345 33.3694 21.4733 33.2305 21.4733 33.0593V32.9625C21.4733 32.7912 21.3345 32.6523 21.1632 32.6523Z" fill="#E8EAF1"/>
<g opacity="0.5">
<path opacity="0.5" d="M64.5574 17.8965H29.3291C29.0557 17.8965 28.8342 18.1181 28.8342 18.3914V50.0718C28.8342 50.3451 29.0557 50.5667 29.3291 50.5667H64.5574C64.8307 50.5667 65.0523 50.3451 65.0523 50.0718V18.3914C65.0523 18.1181 64.8307 17.8965 64.5574 17.8965Z" fill="url(#paint1_linear)"/>
</g>
<path d="M64.0592 18.2227H29.8889C29.6156 18.2227 29.394 18.4442 29.394 18.7176V49.3719C29.394 49.6452 29.6156 49.8668 29.8889 49.8668H64.0592C64.3325 49.8668 64.5541 49.6452 64.5541 49.3719V18.7176C64.5541 18.4442 64.3325 18.2227 64.0592 18.2227Z" fill="white"/>
<g opacity="0.5">
<path opacity="0.5" d="M39.9057 25.0234H33.341C33.0677 25.0234 32.8461 25.245 32.8461 25.5183V31.3274C32.8461 31.6007 33.0677 31.8223 33.341 31.8223H39.9057C40.179 31.8223 40.4006 31.6007 40.4006 31.3274V25.5183C40.4006 25.245 40.179 25.0234 39.9057 25.0234Z" fill="#404040"/>
</g>
<path d="M62.7362 25.0234H42.995C42.814 25.0234 42.6672 25.1702 42.6672 25.3512V25.4513C42.6672 25.6323 42.814 25.779 42.995 25.779H62.7362C62.9172 25.779 63.0639 25.6323 63.0639 25.4513V25.3512C63.0639 25.1702 62.9172 25.0234 62.7362 25.0234Z" fill="#E8EAF1"/>
<path d="M62.7362 27.2891H42.995C42.814 27.2891 42.6672 27.4358 42.6672 27.6168V27.7169C42.6672 27.8979 42.814 28.0446 42.995 28.0446H62.7362C62.9172 28.0446 63.0639 27.8979 63.0639 27.7169V27.6168C63.0639 27.4358 62.9172 27.2891 62.7362 27.2891Z" fill="#E8EAF1"/>
<path d="M62.7361 35.5137H32.4183C32.2373 35.5137 32.0906 35.6604 32.0906 35.8414V35.9415C32.0906 36.1225 32.2373 36.2692 32.4183 36.2692H62.7361C62.9171 36.2692 63.0638 36.1225 63.0638 35.9415V35.8414C63.0638 35.6604 62.9171 35.5137 62.7361 35.5137Z" fill="#E8EAF1"/>
<path d="M62.7361 37.7812H32.4183C32.2373 37.7812 32.0906 37.928 32.0906 38.109V38.2091C32.0906 38.3901 32.2373 38.5368 32.4183 38.5368H62.7361C62.9171 38.5368 63.0638 38.3901 63.0638 38.2091V38.109C63.0638 37.928 62.9171 37.7812 62.7361 37.7812Z" fill="#E8EAF1"/>
<path d="M62.7361 40.8027H32.4183C32.2373 40.8027 32.0906 40.9495 32.0906 41.1305V41.2306C32.0906 41.4116 32.2373 41.5583 32.4183 41.5583H62.7361C62.9171 41.5583 63.0638 41.4116 63.0638 41.2306V41.1305C63.0638 40.9495 62.9171 40.8027 62.7361 40.8027Z" fill="#E8EAF1"/>
<path d="M55.1817 43.0684H32.4183C32.2373 43.0684 32.0906 43.2151 32.0906 43.3961V43.4962C32.0906 43.6772 32.2373 43.8239 32.4183 43.8239H55.1817C55.3627 43.8239 55.5094 43.6772 55.5094 43.4962V43.3961C55.5094 43.2151 55.3627 43.0684 55.1817 43.0684Z" fill="#E8EAF1"/>
<g opacity="0.5">
<path opacity="0.5" d="M65.9277 30.1203L66.0564 29.5462L65.876 30.1071C61.1852 28.8401 56.3497 28.188 51.4908 28.167C16.4825 27.9603 0.200134 58.9006 0.200134 58.9006L33.3763 76.4047C33.3763 76.4047 37.4455 63.7858 51.8977 64.1971C52.8918 64.2242 53.8834 64.3109 54.8672 64.4567L50.4702 78.1523C50.2823 78.4198 50.15 78.7222 50.0812 79.0417C50.0123 79.3613 50.0084 79.6914 50.0695 80.0125C50.1306 80.3336 50.2556 80.6391 50.437 80.911C50.6184 81.1829 50.8526 81.4156 51.1256 81.5953C51.3986 81.775 51.7049 81.8981 52.0264 81.9572C52.3479 82.0163 52.678 82.0103 52.997 81.9394C53.3161 81.8686 53.6178 81.7344 53.884 81.5448C54.1503 81.3552 54.3758 81.1141 54.5471 80.8358V80.8292C54.7753 80.4583 54.8995 80.0328 54.9068 79.5974C54.9068 79.5237 54.9068 79.4501 54.8991 79.3775L58.0774 65.1748C67.5466 68.0871 70.4159 76.4036 70.4159 76.4036L103.8 59.7144C103.8 59.7144 91.2624 37.0005 65.9277 30.1203Z" fill="url(#paint2_linear)"/>
</g>
<path d="M51.4975 28.5108C16.9356 28.3095 0.860046 58.8527 0.860046 58.8527L33.6138 76.1314C33.6138 76.1314 37.6325 63.6731 51.9 64.0745C52.9049 64.1017 53.9072 64.1906 54.9013 64.3406L65.7474 30.4398C61.1014 29.1802 56.3111 28.5317 51.4975 28.5108Z" fill="#404040"/>
<path d="M65.7474 30.4395L54.9013 64.3436C66.7372 66.1418 70.185 76.1311 70.185 76.1311L103.14 59.6564C103.14 59.6564 90.7576 37.2317 65.7474 30.4395Z" fill="#E8EAF1"/>
<path d="M54.8661 79.0698L65.8771 29.873L50.4889 77.86C50.3004 78.1239 50.167 78.4231 50.0969 78.7397C50.0267 79.0564 50.0211 79.3839 50.0805 79.7027C50.1398 80.0216 50.2629 80.3251 50.4424 80.5953C50.6218 80.8654 50.8539 81.0966 51.1248 81.2749C51.3957 81.4533 51.6998 81.5751 52.0188 81.6332C52.3379 81.6912 52.6654 81.6843 52.9818 81.6129C53.2981 81.5414 53.5968 81.4068 53.8599 81.2172C54.123 81.0276 54.3451 80.7869 54.513 80.5094V80.5028C54.7382 80.1369 54.8609 79.7171 54.8683 79.2875C54.8749 79.2116 54.8716 79.1413 54.8661 79.0698Z" fill="#37B57E"/>
<g opacity="0.7">
<path opacity="0.7" d="M58.8462 28.4521L58.5581 28.3982L59.1267 26.3086C60.0219 19.5999 56.64 18.9191 55.372 18.896C55.2262 18.8427 55.0775 18.7975 54.9266 18.7608V17.9689C55.7244 17.772 56.447 17.3456 57.0051 16.7424C57.5632 16.1392 57.9322 15.3857 58.0665 14.575H58.0775C58.2787 14.575 58.4426 14.2681 58.4426 13.8898C58.4505 13.6893 58.3947 13.4914 58.2831 13.3245C58.2978 13.1779 58.3051 13.0312 58.3051 12.8846C58.3055 12.2925 58.1855 11.7065 57.9524 11.1622C57.7192 10.6179 57.3779 10.1266 56.9491 9.71831C56.8905 9.42576 56.7859 9.14437 56.639 8.88467C56.3277 8.33478 55.8097 7.76509 56.0209 7.17011L54.6538 7.31088L54.6406 6.41016C54.2139 6.48714 54.0347 6.98095 53.7817 7.33288C53.1724 8.17971 51.9506 8.29739 51.1422 8.95726C50.8673 9.17722 50.2492 9.86348 50.3669 10.3111C49.824 11.058 49.5321 11.9579 49.5332 12.8813C49.5332 13.0279 49.5406 13.1746 49.5552 13.3212C49.4437 13.4881 49.3879 13.686 49.3958 13.8865C49.3958 14.2648 49.5596 14.5717 49.7609 14.5717H49.7719C49.9062 15.3824 50.2752 16.1359 50.8333 16.7391C51.3913 17.3423 52.114 17.7687 52.9118 17.9656V18.7575C52.7609 18.7942 52.6122 18.8394 52.4664 18.8927C51.1983 18.9158 47.8165 19.5922 48.7117 26.3053L49.2803 28.3949L49.145 28.4202C48.9438 28.4577 48.752 28.5345 48.5805 28.6462C48.409 28.7579 48.2612 28.9022 48.1455 29.0711C48.0298 29.2399 47.9484 29.4298 47.9061 29.6301C47.8638 29.8303 47.8614 30.0369 47.899 30.2381L50.1458 42.2467C50.1688 42.3696 50.2396 42.4784 50.3427 42.5491C50.4458 42.6198 50.5728 42.6467 50.6957 42.6239L51.0905 42.5502V42.7834C50.8714 42.8916 50.6869 43.059 50.5579 43.2665C50.4289 43.4741 50.3604 43.7136 50.3603 43.9579V44.1064H53.0086V43.9579C53.0085 43.7312 52.9495 43.5083 52.8375 43.3111C52.7255 43.1139 52.5643 42.9491 52.3696 42.8329V42.3105L52.7303 42.2434C52.8532 42.2204 52.962 42.1496 53.0327 42.0465C53.1035 41.9434 53.1304 41.8164 53.1075 41.6935L51.0026 30.4119H56.8391L54.7363 41.6946C54.7135 41.8175 54.7404 41.9445 54.8111 42.0476C54.8819 42.1507 54.9906 42.2215 55.1136 42.2445L55.4743 42.3116V42.834C55.2796 42.9502 55.1183 43.115 55.0063 43.3122C54.8943 43.5094 54.8354 43.7323 54.8353 43.959V44.1075H57.4836V43.959C57.4834 43.7147 57.415 43.4752 57.286 43.2676C57.1569 43.0601 56.9724 42.8927 56.7533 42.7845V42.5513L57.1482 42.625C57.2711 42.6478 57.3981 42.6209 57.5012 42.5502C57.6043 42.4795 57.6751 42.3707 57.698 42.2478L59.968 30.0885C60.0019 29.9074 59.9998 29.7214 59.9617 29.5411C59.9237 29.3608 59.8505 29.1898 59.7463 29.0378C59.6421 28.8858 59.509 28.7559 59.3545 28.6554C59.2001 28.5549 59.0274 28.4858 58.8462 28.4521Z" fill="url(#paint3_linear)"/>
</g>
<path d="M52.4289 41.0215H51.1994V42.6909H52.4289V41.0215Z" fill="#FDB797"/>
<path d="M56.6455 41.0215H55.416V42.6909H56.6455V41.0215Z" fill="#FDB797"/>
<path d="M57.9641 27.3184H49.8818V30.2174H57.9641V27.3184Z" fill="#4D8AF0"/>
<g opacity="0.05">
<path opacity="0.05" d="M57.9641 27.3184H49.8818V30.2174H57.9641V27.3184Z" fill="#404040"/>
</g>
<path opacity="0.1" d="M49.8818 27.8462C49.8818 27.8462 52.8974 28.5489 53.9224 28.5489C54.9474 28.5489 57.963 27.8462 57.963 27.8462V27.4062H49.8818V27.8462Z" fill="#404040"/>
<path d="M57.963 27.7567C57.963 27.7567 54.9474 28.4595 53.9224 28.4595C52.8974 28.4595 49.8818 27.7567 49.8818 27.7567V22.9254C49.8818 21.8537 50.3075 20.826 51.0652 20.0682C51.823 19.3105 52.8508 18.8848 53.9224 18.8848C54.994 18.8848 56.0218 19.3105 56.7795 20.0682C57.5373 20.826 57.963 21.8537 57.963 22.9254V27.7567Z" fill="#F55F44"/>
<path d="M52.9569 16.8633H54.8892V19.1882C54.8892 19.4102 54.801 19.6231 54.6441 19.78C54.4871 19.937 54.2743 20.0252 54.0523 20.0252H53.7949C53.573 20.0252 53.3601 19.937 53.2031 19.78C53.0462 19.6231 52.958 19.4102 52.958 19.1882V16.8633H52.9569Z" fill="#FDB797"/>
<path d="M52.6599 41.622L50.9277 41.9454C50.7801 41.9721 50.6278 41.9393 50.5042 41.8542C50.3806 41.7691 50.2957 41.6386 50.2679 41.4912L48.2024 30.4229C48.1571 30.1807 48.1599 29.9318 48.2108 29.6906C48.2616 29.4494 48.3595 29.2206 48.4988 29.0173C48.6381 28.8139 48.8161 28.64 49.0227 28.5055C49.2292 28.371 49.4603 28.2785 49.7026 28.2333L50.1491 28.1497C50.2967 28.123 50.449 28.1558 50.5726 28.2409C50.6962 28.3259 50.7812 28.4564 50.809 28.6039L53.1185 40.9578C53.1323 41.0315 53.1314 41.1073 53.1158 41.1807C53.1002 41.2541 53.0702 41.3237 53.0275 41.3854C52.9849 41.4472 52.9305 41.4999 52.8674 41.5405C52.8043 41.5811 52.7338 41.6088 52.6599 41.622Z" fill="#4D8AF0"/>
<path d="M55.1806 41.6229L56.9128 41.9463C57.0605 41.9729 57.2127 41.9402 57.3363 41.8551C57.4599 41.77 57.5449 41.6395 57.5727 41.492L59.6733 30.239C59.7553 29.7988 59.659 29.344 59.4058 28.9746C59.1525 28.6052 58.763 28.3516 58.3228 28.2693L57.6915 28.1516C57.5438 28.125 57.3916 28.1577 57.268 28.2428C57.1443 28.3279 57.0594 28.4584 57.0316 28.6059L54.722 40.9597C54.7084 41.0334 54.7094 41.1091 54.7251 41.1823C54.7408 41.2556 54.7708 41.3251 54.8135 41.3867C54.8561 41.4483 54.9105 41.5009 54.9735 41.5414C55.0365 41.582 55.1069 41.6097 55.1806 41.6229Z" fill="#4D8AF0"/>
<path opacity="0.1" d="M52.9569 18.3281C53.5915 18.4843 54.2546 18.4843 54.8892 18.3281V16.9512H52.9569V18.3281Z" fill="#404040"/>
<path d="M53.9225 17.566C56.2513 17.566 58.1391 15.6781 58.1391 13.3494C58.1391 11.0206 56.2513 9.13281 53.9225 9.13281C51.5938 9.13281 49.7059 11.0206 49.7059 13.3494C49.7059 15.6781 51.5938 17.566 53.9225 17.566Z" fill="#333333"/>
<path d="M53.9224 18.3566C56.154 18.3566 57.963 16.5476 57.963 14.316C57.963 12.0844 56.154 10.2754 53.9224 10.2754C51.6908 10.2754 49.8818 12.0844 49.8818 14.316C49.8818 16.5476 51.6908 18.3566 53.9224 18.3566Z" fill="#FDB797"/>
<path d="M51.2544 9.57447C52.0319 8.93989 53.2076 8.82661 53.7927 8.01167C54.0357 7.67294 54.2084 7.19673 54.6186 7.12305L54.6307 7.98968L55.9504 7.8544C55.747 8.42629 56.2452 8.97618 56.5454 9.50408C56.7661 9.89417 56.8866 10.3329 56.8963 10.7809C56.4398 11.0548 55.8735 10.7556 55.3654 10.5962C54.8573 10.4367 54.3459 10.4246 53.8257 10.4103C53.5602 10.3918 53.2934 10.4066 53.0316 10.4543C52.805 10.5151 52.5842 10.5957 52.3717 10.6951C52.022 10.8414 50.9167 11.3946 50.5923 11.0383C50.2272 10.6347 50.9541 9.81972 51.2544 9.57447Z" fill="#333333"/>
<path opacity="0.1" d="M51.4743 12.2907C51.6952 12.4118 51.9384 12.4866 52.1892 12.5106C53.2243 12.6522 54.2785 12.5339 55.2565 12.1664C55.417 12.5722 55.8064 12.8515 56.2232 12.9835C56.64 13.1155 57.0821 13.1221 57.5187 13.1287C57.6147 13.1395 57.7117 13.1211 57.797 13.0759C57.9916 12.945 57.8971 12.6437 57.7838 12.4391L57.2207 11.4185C57.0546 11.1172 56.8831 10.8092 56.6257 10.5816C56.3024 10.2956 55.8735 10.1615 55.4511 10.0768C54.4516 9.87775 53.4197 9.912 52.4355 10.1769C51.383 10.4551 50.0314 11.4174 51.4743 12.2907Z" fill="#404040"/>
<path d="M51.4743 12.2028C51.6952 12.3239 51.9384 12.3988 52.1892 12.4227C53.2243 12.5643 54.2785 12.446 55.2565 12.0785C55.417 12.4843 55.8064 12.7637 56.2232 12.8956C56.64 13.0276 57.0821 13.0342 57.5187 13.0408C57.6147 13.0516 57.7117 13.0332 57.797 12.988C57.9916 12.8571 57.8971 12.5558 57.7838 12.3512L57.2207 11.3306C57.0546 11.0293 56.8831 10.7214 56.6257 10.4937C56.3024 10.2078 55.8735 10.0736 55.4511 9.98889C54.4516 9.78986 53.4197 9.82411 52.4355 10.089C51.383 10.365 50.0314 11.3306 51.4743 12.2028Z" fill="#333333"/>
<path d="M57.9202 14.9757C58.1145 14.9757 58.2721 14.6808 58.2721 14.317C58.2721 13.9531 58.1145 13.6582 57.9202 13.6582C57.7258 13.6582 57.5682 13.9531 57.5682 14.317C57.5682 14.6808 57.7258 14.9757 57.9202 14.9757Z" fill="#FDB797"/>
<path d="M49.9258 14.9757C50.1202 14.9757 50.2778 14.6808 50.2778 14.317C50.2778 13.9531 50.1202 13.6582 49.9258 13.6582C49.7315 13.6582 49.5739 13.9531 49.5739 14.317C49.5739 14.6808 49.7315 14.9757 49.9258 14.9757Z" fill="#FDB797"/>
<path d="M52.9723 19.1532C52.9723 19.1532 47.8605 18.357 48.9152 26.2634L49.53 28.53L51.2896 28.4596C51.2896 28.4596 50.148 25.8202 50.8497 24.0671C51.5514 22.314 52.9723 19.1532 52.9723 19.1532Z" fill="#F55F44"/>
<path d="M54.8726 19.1532C54.8726 19.1532 59.9845 18.357 58.9298 26.2634L58.315 28.53L56.5553 28.4596C56.5553 28.4596 57.6969 25.8202 56.9952 24.0671C56.2936 22.314 54.8726 19.1532 54.8726 19.1532Z" fill="#F55F44"/>
<path d="M50.4966 29.7772C51.0305 29.7772 51.4634 29.3444 51.4634 28.8105C51.4634 28.2766 51.0305 27.8438 50.4966 27.8438C49.9627 27.8438 49.5299 28.2766 49.5299 28.8105C49.5299 29.3444 49.9627 29.7772 50.4966 29.7772Z" fill="#FDB797"/>
<path d="M57.5243 29.7772C58.0582 29.7772 58.491 29.3444 58.491 28.8105C58.491 28.2766 58.0582 27.8438 57.5243 27.8438C56.9904 27.8438 56.5576 28.2766 56.5576 28.8105C56.5576 29.3444 56.9904 29.7772 57.5243 29.7772Z" fill="#FDB797"/>
<path d="M51.6008 41.9883H51.9407C52.2324 41.9883 52.5121 42.1042 52.7183 42.3104C52.9246 42.5167 53.0405 42.7964 53.0405 43.0881V43.3894H50.4966V43.0881C50.4966 42.9433 50.5252 42.7999 50.5808 42.6662C50.6363 42.5325 50.7177 42.411 50.8203 42.3089C50.9229 42.2067 51.0447 42.1258 51.1786 42.0707C51.3126 42.0157 51.456 41.9877 51.6008 41.9883Z" fill="#333333"/>
<path d="M55.9054 41.9883H56.2452C56.5369 41.9883 56.8167 42.1042 57.0229 42.3104C57.2292 42.5167 57.345 42.7964 57.345 43.0881V43.3894H54.8012V43.0881C54.8012 42.9433 54.8298 42.7999 54.8853 42.6662C54.9409 42.5325 55.0223 42.411 55.1249 42.3089C55.2275 42.2067 55.3492 42.1258 55.4832 42.0707C55.6171 42.0157 55.7606 41.9877 55.9054 41.9883Z" fill="#333333"/>
<path opacity="0.1" d="M50.7606 23.3652C50.7606 23.3652 50.4086 25.2096 51.0245 26.0047L50.7606 23.3652Z" fill="#404040"/>
<path opacity="0.1" d="M57.0855 23.3652C57.0855 23.3652 57.4374 25.2096 56.8215 26.0047L57.0855 23.3652Z" fill="#404040"/>
</g>
<defs>
<linearGradient id="paint0_linear" x1="24.3382" y1="55.581" x2="24.3382" y2="0" gradientUnits="userSpaceOnUse">
<stop stop-color="#808080" stop-opacity="0.25"/>
<stop offset="0.54" stop-color="#808080" stop-opacity="0.12"/>
<stop offset="1" stop-color="#808080" stop-opacity="0.1"/>
</linearGradient>
<linearGradient id="paint1_linear" x1="15422.3" y1="15039" x2="15422.3" y2="5334" gradientUnits="userSpaceOnUse">
<stop stop-color="#808080" stop-opacity="0.25"/>
<stop offset="0.54" stop-color="#808080" stop-opacity="0.12"/>
<stop offset="1" stop-color="#808080" stop-opacity="0.1"/>
</linearGradient>
<linearGradient id="paint2_linear" x1="62160.1" y1="44404.6" x2="62160.1" y2="18054.7" gradientUnits="userSpaceOnUse">
<stop stop-color="#808080" stop-opacity="0.25"/>
<stop offset="0.54" stop-color="#808080" stop-opacity="0.12"/>
<stop offset="1" stop-color="#808080" stop-opacity="0.1"/>
</linearGradient>
<linearGradient id="paint3_linear" x1="7532.71" y1="18094.4" x2="7532.71" y2="5172.83" gradientUnits="userSpaceOnUse">
<stop stop-color="#808080" stop-opacity="0.25"/>
<stop offset="0.54" stop-color="#808080" stop-opacity="0.12"/>
<stop offset="1" stop-color="#808080" stop-opacity="0.1"/>
</linearGradient>
<clipPath id="clip0">
<rect width="103.6" height="82" fill="white" transform="translate(0.200134)"/>
</clipPath>
</defs>
</svg>
