<svg viewBox="0 0 49 49" fill="none" xmlns="http://www.w3.org/2000/svg">
<g clip-path="url(#clip0_1655_19201)">
<path d="M17.9241 24.425C17.9241 21.221 20.5245 18.6206 23.7285 18.6206C26.9326 18.6206 29.5329 21.221 29.5329 24.425C29.5329 27.6291 26.9326 30.2295 23.7285 30.2295C20.5245 30.2759 17.9241 27.6291 17.9241 24.425ZM23.7285 0C12.3054 0 2.73969 7.80116 0.0464354 18.3884C0.0464354 18.4813 0 18.5277 0 18.6206C0 19.2707 0.51079 19.7815 1.16089 19.7815H11.0052C11.4696 19.7815 11.8875 19.5029 12.0732 19.085C14.1164 14.6736 18.5277 11.6089 23.7285 11.6089C30.7867 11.6089 36.5447 17.3669 36.5447 24.425C36.5447 31.4832 30.7867 37.2412 23.7285 37.2412C18.5742 37.2412 14.1164 34.1765 12.0732 29.7651C11.8875 29.3472 11.4696 29.0686 11.0052 29.0686H1.16089C0.51079 29.0686 0 29.5794 0 30.2295C0 30.3223 0 30.3688 0.0464354 30.4617C2.73969 41.0489 12.3054 48.8501 23.7285 48.8501C37.2412 48.8501 48.2 37.8913 48.2 24.3786C48.2 10.9123 37.2412 0 23.7285 0Z" fill="#343434"/>
</g>
<defs>
<clipPath id="clip0_1655_19201">
<rect width="48.2" height="48.8501" fill="white"/>
</clipPath>
</defs>
</svg>
