<svg viewBox="0 0 32 32" fill="none" xmlns="http://www.w3.org/2000/svg">
<g clip-path="url(#clip0_1655_19287)">
<path d="M22.1538 0H2.46154C1.10207 0 0 1.10207 0 2.46154V22.1538C0 23.5133 1.10207 24.6154 2.46154 24.6154H22.1538C23.5133 24.6154 24.6154 23.5133 24.6154 22.1538V2.46154C24.6154 1.10207 23.5133 0 22.1538 0Z" fill="#FFAAAA"/>
<path d="M29.5385 7.38464H9.84615C8.48668 7.38464 7.38461 8.48671 7.38461 9.84618V29.5385C7.38461 30.898 8.48668 32 9.84615 32H29.5385C30.8979 32 32 30.898 32 29.5385V9.84618C32 8.48671 30.8979 7.38464 29.5385 7.38464Z" fill="#AAFFAA"/>
<path d="M11.0769 13.5385H18.4615V16H11.0769V13.5385Z" fill="#FF0000"/>
<path d="M20.9231 13.5385H28.3077V16H20.9231V13.5385Z" fill="#FF0000"/>
<path d="M11.0769 22.1538H13.5385V19.6923H16V22.1538H18.4615V24.6153H16V27.0769H13.5385V24.6153H11.0769V22.1538Z" fill="#008000"/>
<path d="M20.9231 22.1538H23.3846V19.6923H25.8462V22.1538H28.3077V24.6153H25.8462V27.0769H23.3846V24.6153H20.9231V22.1538Z" fill="#008000"/>
</g>
<defs>
<clipPath id="clip0_1655_19287">
<rect width="32" height="32" fill="white"/>
</clipPath>
</defs>
</svg>
