<svg viewBox="0 0 32 32" fill="none" xmlns="http://www.w3.org/2000/svg">
<path d="M11.0955 31.2697C8.85442 30.595 6.79233 29.395 5.06812 27.762C3.34391 26.129 2.00361 24.1066 1.15051 21.8508L1.09879 21.9024C-0.2253 18.4985 -0.356928 14.7197 0.726852 11.2253C2.15474 7.12587 5.04315 3.75217 8.79605 1.80039C12.5489 -0.151392 16.88 -0.532318 20.8954 0.736216C24.4008 1.78567 27.4237 4.11419 29.4083 7.29371C29.2213 7.48172 29.0364 7.48172 28.8514 7.66766C27.6086 8.37154 26.1586 8.57176 24.7819 8.22961C19.4116 7.85566 17.5638 11.2274 17.3808 11.6013C15.1611 15.911 13.6812 17.0349 9.42478 17.2229C8.24012 17.1912 7.06845 17.4855 6.02857 18.0758C4.98869 18.6661 4.11755 19.5315 3.5035 20.5843C2.8011 20.7689 2.13712 21.0854 1.54432 21.5181C1.83671 21.3983 2.15298 21.2764 2.39166 21.1566C4.04707 20.7543 5.77717 20.8337 7.39201 21.3859C9.12943 21.9819 10.9975 22.0322 12.7623 21.5305C15.537 20.7826 17.0168 18.5328 19.0516 17.9708C21.0612 17.5578 23.1465 17.8827 24.951 18.8902C26.3408 19.6042 27.8642 19.9934 29.4143 20.0306C30.1909 20.0698 30.9618 19.8746 31.634 19.4687C31.449 19.8426 31.449 20.4066 31.264 20.7806C29.8305 24.8753 26.9417 28.2443 23.1911 30.1954C19.4405 32.1466 15.113 32.5317 11.0975 31.2717L11.0955 31.2697ZM7.20903 20.5926C6.00014 20.269 4.7326 20.264 3.5214 20.5781L3.69245 20.4046C4.47911 19.4987 5.45423 18.791 6.54367 18.3353C7.63311 17.8796 8.8082 17.6878 9.97969 17.7745C8.95173 18.1059 8.04823 18.7607 7.39401 19.6484C8.29271 18.9035 9.34315 18.3815 10.4654 18.1219C11.5877 17.8623 12.7521 17.8721 13.8702 18.1506C14.4032 18.3636 14.9648 18.4898 15.535 18.5245C14.4558 19.5192 13.1988 20.2837 11.8355 20.7744C11.3219 20.9174 10.7919 20.987 10.2602 20.981C9.23231 20.9513 8.20944 20.8213 7.20505 20.5926H7.20903ZM3.50948 20.5926H3.5214L3.50747 20.607C3.50495 20.599 3.50429 20.5906 3.5055 20.5822L3.50948 20.5926ZM14.4251 17.0432H14.0532C15.4257 16.2447 16.6222 15.1567 17.5658 13.8491C18.3519 12.8058 19.3664 11.9725 20.5249 11.4184C21.6835 10.8643 22.9527 10.6054 24.227 10.6634C23.0781 11.3178 22.0708 12.2101 21.2673 13.2851C20.5446 14.3868 19.5862 15.2998 18.4672 15.9525C17.3481 16.6052 16.0987 16.9799 14.817 17.0473C14.6857 17.0473 14.5537 17.0425 14.4211 17.0328L14.4251 17.0432ZM22.1942 15.5453L22.9361 14.7954C24.0001 13.9406 25.2677 13.4021 26.6034 13.2372C27.9392 13.0724 29.2929 13.2875 30.5202 13.8595C31.024 14.0152 31.5182 14.2029 32 14.4214V14.9834C31.0791 15.9915 29.8214 16.5948 28.4854 16.6692C26.4117 16.1592 24.3101 15.7804 22.1922 15.535L22.1942 15.5453Z" fill="#2A3273"/>
</svg>
