<svg viewBox="0 0 28 32" fill="none" xmlns="http://www.w3.org/2000/svg">
<path d="M0.392488 7.69643C0.171713 7.81909 0 8.13799 0 8.38329V23.6167C0 23.8865 0.171713 24.1809 0.392488 24.3036L13.5408 31.908C13.7616 32.0307 14.105 32.0307 14.3258 31.908L27.5232 24.2545C27.744 24.1318 27.9157 23.813 27.9157 23.5677V8.38329C27.9157 8.11346 27.744 7.81909 27.5232 7.69643L14.3258 0.0919893C14.105 -0.0306631 13.7616 -0.0306631 13.5408 0.0919893L0.392488 7.69643Z" fill="#F1F1F2"/>
<path d="M12.486 17.754C12.3143 17.754 12.0935 17.7049 11.9709 17.5823L8.831 15.0066L11.9709 12.4799C12.0935 12.3573 12.3143 12.3082 12.486 12.3082C12.7559 12.3082 12.9521 12.4309 13.1238 12.6026C13.2465 12.7743 13.3446 12.9951 13.2955 13.2159C13.2465 13.4366 13.1729 13.6574 13.0012 13.7801L11.4558 15.0802L13.0502 16.3803C13.222 16.5029 13.3201 16.7237 13.3446 16.9445C13.3937 17.1653 13.2955 17.386 13.1729 17.5577C12.9521 17.6313 12.7313 17.754 12.486 17.754Z" fill="#63A70A"/>
<path d="M15.5278 17.754C15.258 17.754 15.0617 17.6313 14.89 17.4596C14.5957 17.1162 14.6693 16.601 15.0127 16.3067L16.6072 15.0066L15.0617 13.7064C14.89 13.5838 14.7919 13.363 14.7674 13.1422C14.7183 12.9215 14.8164 12.7007 14.9391 12.529C15.1108 12.3573 15.3316 12.2346 15.5769 12.2346C15.7486 12.2346 15.9694 12.2837 16.092 12.4063L19.2319 14.9575L16.092 17.5332C15.9203 17.6559 15.7486 17.754 15.5278 17.754Z" fill="#63A70A"/>
<path d="M19.747 8.50598H8.19318C6.69682 8.50598 5.44577 9.75703 5.44577 11.2534V18.4653C5.44577 19.9617 6.69682 21.2128 8.19318 21.2128H17.6865L14.4239 25.5547H17.1223L19.747 22.0713C20.2622 21.3845 20.3848 20.5995 20.0905 20.0108C19.7961 19.373 19.1092 19.0296 18.2507 19.0296H8.19318C7.89881 19.0296 7.62898 18.7597 7.62898 18.4653V11.2534C7.62898 10.959 7.89881 10.6892 8.19318 10.6892H19.7716C20.0659 10.6892 20.3358 10.959 20.3358 11.2534V16.3312C20.3358 16.9445 20.8018 17.4105 21.4151 17.4105C22.0284 17.4105 22.4944 16.9445 22.4944 16.3312V11.2534C22.4454 9.75703 21.2434 8.50598 19.747 8.50598Z" fill="#63A70A"/>
</svg>
