<svg viewBox="0 0 28 32" fill="none" xmlns="http://www.w3.org/2000/svg">
<path d="M0.359551 7.73034C0.14382 7.87416 0 8.1618 0 8.37753V23.6225C0 23.8382 0.14382 24.1978 0.359551 24.2697L13.591 31.8921C13.8067 32.036 14.1663 32.036 14.382 31.8921L27.6135 24.2697C27.8292 24.1258 27.973 23.8382 27.973 23.6225V8.44944C27.973 8.23371 27.8292 7.87416 27.6135 7.80225L14.382 0.107865C14.1663 -0.0359551 13.8067 -0.0359551 13.591 0.107865L0.359551 7.73034Z" fill="#F1F1F2"/>
<path d="M16.6831 17.1506H11.5775C11.0022 17.1506 10.4989 16.6472 10.4989 16.0719C10.4989 15.4967 11.0022 14.9933 11.5775 14.9933H16.6831C17.2584 14.9933 17.7618 15.4967 17.7618 16.0719C17.7618 16.6472 17.2584 17.1506 16.6831 17.1506Z" fill="#00AEEF"/>
<path d="M21.5011 16.2877C21.5011 15.7124 21.9326 12.6203 16.7551 9.7439C16.3955 10.1754 15.8921 10.7506 15.173 11.3259C15.2449 11.3978 16.1079 11.9012 16.1798 11.9731C19.4157 13.627 19.3438 15.9282 19.3438 16.1439V16.2158V16.3596C19.3438 16.5754 19.2 18.3012 16.1798 20.027C12.2966 22.3282 11.5775 24.2697 11.5056 24.6293L13.6629 25.2046C13.6629 25.2046 13.6629 25.2046 13.6629 25.2765C13.6629 25.2765 13.8067 24.845 14.5258 24.1259L18.0494 26.1394C18.1933 26.2113 18.409 26.2832 18.6247 26.2832C18.9843 26.2832 19.4157 26.0675 19.5596 25.7079C19.8472 25.2046 19.7034 24.4855 19.1281 24.1978L16.3236 22.6158C16.6112 22.4001 16.8989 22.1843 17.2584 22.0405C21.2854 19.5956 21.5011 16.9349 21.5011 16.2877Z" fill="#00AEEF"/>
<path d="M6.75955 15.8562C6.75955 16.4315 6.32809 19.5236 11.5056 22.4C11.8652 21.9686 12.3685 21.3933 13.0876 20.818C13.0157 20.7461 12.1528 20.2427 12.0809 20.1708C8.84494 18.5169 8.91685 16.2158 8.91685 16V15.9281V15.7843C8.91685 15.5686 9.06067 13.8427 12.0809 12.1169C15.964 9.81577 16.6831 7.8742 16.7551 7.51465L14.5978 6.93937C14.5978 6.93937 14.5978 6.93937 14.5978 6.86746C14.5978 6.86746 14.4539 7.29892 13.7348 8.01802L10.2112 6.00454C10.0674 5.93263 9.85168 5.86072 9.63595 5.86072C9.2764 5.86072 8.84494 6.07645 8.70112 6.436C8.41348 6.93937 8.5573 7.65847 9.13258 7.94611L11.9371 9.52813C11.6494 9.74386 11.3618 9.95959 11.0022 10.1034C6.90337 12.5484 6.68764 15.209 6.75955 15.8562Z" fill="#00AEEF"/>
</svg>
