<svg viewBox="0 0 32 32" fill="none" xmlns="http://www.w3.org/2000/svg">
<g clip-path="url(#clip0_1655_19243)">
<path d="M31.876 19.1619C31.6841 18.5984 31.1815 18.2059 30.5315 18.1118C30.225 18.0674 29.874 18.0863 29.4586 18.1693C28.7346 18.3142 28.1975 18.3693 27.8055 18.38C29.2851 15.9576 30.4883 13.1952 31.1809 10.5948C32.3009 6.39007 31.7024 4.47456 31.003 3.60813C29.1521 1.3148 26.4518 0.0827991 23.194 0.0451021C21.4561 0.0244961 19.9305 0.357223 19.1346 0.596496C18.3936 0.469708 17.5969 0.39892 16.7609 0.385829C15.1938 0.361587 13.8091 0.69286 12.626 1.37371C11.971 1.15892 10.9198 0.856132 9.70576 0.66292C6.85051 0.208375 4.54926 0.562557 2.86601 1.71565C0.827756 3.11177 -0.117119 5.53747 0.0576314 8.92534C0.113131 10.001 0.733631 13.2737 1.71063 16.3775C2.27213 18.1615 2.87088 19.6429 3.49026 20.7811C4.36863 22.395 5.30851 23.3455 6.36363 23.6868C6.95501 23.8778 8.02951 24.0116 9.15963 23.0989C9.30288 23.2672 9.49401 23.4343 9.74763 23.5896C10.0698 23.7866 10.4636 23.9475 10.857 24.0429C12.2746 24.3866 13.6025 24.3006 14.7354 23.8189C14.7424 24.0143 14.7478 24.201 14.7523 24.3622C14.7598 24.6236 14.7673 24.88 14.7771 25.1198C14.8443 26.7409 14.958 28.0013 15.295 28.8833C15.3135 28.9318 15.3384 29.0057 15.3646 29.0841C15.5328 29.5833 15.8139 30.4189 16.5291 31.0733C17.2698 31.7513 18.1656 31.9592 18.9861 31.9592C19.3976 31.9592 19.7903 31.9068 20.1346 31.8353C21.3621 31.5801 22.7563 31.1915 23.7648 29.799C24.7183 28.4827 25.1818 26.5 25.2656 23.376C25.2765 23.2876 25.2865 23.2033 25.2961 23.1229L25.3161 22.9578L25.5408 22.977L25.5986 22.9807C26.8489 23.036 28.3776 22.7789 29.3165 22.356C30.0584 22.0222 32.4358 20.8051 31.876 19.1619Z" fill="black"/>
<path d="M29.7383 19.4814C26.0208 20.225 25.7651 19.0046 25.7651 19.0046C29.6901 13.3569 31.331 6.18808 29.9151 4.43353C26.0521 -0.352528 19.3653 1.91099 19.2536 1.96965L19.2178 1.97596C18.4833 1.82808 17.6614 1.74008 16.7375 1.72541C15.0555 1.69874 13.7795 2.15305 12.8113 2.86505C12.8113 2.86505 0.882502 -1.90029 1.43738 8.85826C1.55538 11.147 4.82038 26.1762 8.71463 21.6367C10.138 19.9767 11.5134 18.5732 11.5134 18.5732C12.1964 19.0132 13.0141 19.2377 13.8714 19.157L13.938 19.1023C13.9173 19.3083 13.9268 19.5099 13.9646 19.7486C12.9614 20.8355 13.2563 21.0263 11.2508 21.4266C9.22138 21.8322 10.4135 22.5541 11.1919 22.743C12.1355 22.9717 14.3185 23.2958 15.7935 21.2935L15.7348 21.522C16.1278 21.8274 16.4038 23.5078 16.3575 25.0314C16.3113 26.5547 16.2804 27.6007 16.59 28.4177C16.8999 29.2346 17.2085 31.0728 19.845 30.525C22.0479 30.0672 23.1895 28.8809 23.3484 26.902C23.461 25.4952 23.7161 25.7032 23.7321 24.4454L23.9368 23.85C24.1726 21.943 23.9743 21.3277 25.3314 21.6139L25.6614 21.642C26.6601 21.686 27.9676 21.4861 28.735 21.1403C30.3873 20.3968 31.3673 19.1552 29.738 19.4814H29.7383Z" fill="#336791"/>
<path d="M13.5095 9.88181C13.1745 9.8366 12.8711 9.87842 12.7176 9.99114C12.6314 10.0545 12.6046 10.128 12.5974 10.1785C12.5781 10.3125 12.6749 10.4606 12.7344 10.537C12.9026 10.7532 13.1484 10.9018 13.3916 10.9345C13.4269 10.9394 13.462 10.9416 13.4969 10.9416C13.9025 10.9416 14.2714 10.6353 14.3039 10.4092C14.3445 10.1261 13.9206 9.93721 13.5095 9.88181ZM24.6075 9.89078C24.5755 9.66884 24.1683 9.60557 23.7818 9.65769C23.3958 9.70981 23.0215 9.87878 23.0528 10.1012C23.0778 10.2742 23.3999 10.5694 23.7811 10.5694C23.8134 10.5694 23.8459 10.5674 23.8786 10.5629C24.1331 10.5287 24.3199 10.372 24.4086 10.2817C24.5436 10.144 24.6219 9.99054 24.6075 9.89078Z" fill="white"/>
<path d="M30.9752 19.3969C30.8335 18.9813 30.3772 18.8476 29.6192 18.9994C27.3686 19.4498 26.5626 19.1378 26.298 18.9488C28.0474 16.3646 29.4865 13.2407 30.2629 10.3261C30.6306 8.94554 30.8337 7.66335 30.8504 6.61826C30.8687 5.47123 30.6672 4.62832 30.2517 4.11341C28.5765 2.03766 26.1177 0.924202 23.1415 0.893657C21.0954 0.871354 19.3666 1.37911 19.0315 1.5219C18.3257 1.35172 17.5564 1.24723 16.7187 1.2339C15.1827 1.20978 13.855 1.56638 12.7557 2.29329C12.2782 2.12093 11.0442 1.71014 9.53512 1.47438C6.92612 1.06711 4.85287 1.37572 3.37337 2.39208C1.608 3.60493 0.793 5.77293 0.950875 8.83572C1.004 9.86614 1.6095 13.0361 2.565 16.0718C3.82275 20.0675 5.19 22.3294 6.6285 22.7947C6.79687 22.8492 6.991 22.8872 7.20512 22.8872C7.72987 22.8872 8.37325 22.6579 9.04262 21.8775C9.85907 20.9278 10.7036 20.0011 11.5752 19.0986C12.1407 19.3929 12.762 19.5573 13.3974 19.5738C13.3986 19.5899 13.4002 19.606 13.4017 19.622C13.2924 19.7485 13.1853 19.8768 13.0805 20.0069C12.6402 20.5488 12.5486 20.6617 11.1315 20.9446C10.7284 21.0253 9.65775 21.2392 9.642 21.967C9.625 22.7621 10.9076 23.0961 11.0537 23.1315C11.563 23.2551 12.0536 23.3161 12.5215 23.3161C13.6594 23.3161 14.6607 22.9534 15.461 22.2517C15.4364 25.0864 15.5582 27.8796 15.9092 28.7306C16.1967 29.4274 16.899 31.13 19.1172 31.1299C19.4427 31.1299 19.801 31.0932 20.1951 31.0112C22.5103 30.53 23.5156 29.5378 23.9045 27.3503C24.1126 26.1812 24.4697 23.3895 24.6377 21.8921C24.9922 21.9994 25.4486 22.0484 25.942 22.0483C26.971 22.0483 28.1584 21.8363 28.903 21.5012C29.7395 21.1244 31.249 20.2001 30.9752 19.3969ZM25.462 9.27814C25.4544 9.7202 25.3916 10.1215 25.3251 10.5404C25.2535 10.991 25.1795 11.4568 25.1609 12.0223C25.1425 12.5726 25.2134 13.1447 25.2819 13.698C25.4204 14.8156 25.5625 15.9661 25.0124 17.1014C24.921 16.9444 24.8396 16.7821 24.7686 16.6155C24.7002 16.4547 24.5517 16.1966 24.3461 15.8392C23.5462 14.4482 21.6731 11.1907 22.632 9.86154C22.9176 9.4659 23.6425 9.05911 25.462 9.27814ZM23.2565 1.78881C25.9232 1.8459 28.0327 2.81329 29.5262 4.66396C30.6717 6.08348 29.4104 12.5425 25.7587 18.1147C25.722 18.0695 25.6851 18.0243 25.648 17.9794L25.6017 17.9234C26.5454 16.4122 26.3609 14.9171 26.1966 13.5915C26.1291 13.0475 26.0654 12.5337 26.0816 12.051C26.0984 11.5395 26.1681 11.1007 26.2356 10.6764C26.3185 10.1537 26.4029 9.61269 26.3796 8.97499C26.397 8.90808 26.404 8.82905 26.3949 8.73523C26.3355 8.12372 25.6155 6.29354 24.148 4.63705C23.3452 3.73099 22.1746 2.71705 20.5762 2.03317C21.2637 1.89499 22.2039 1.76614 23.2565 1.78881ZM8.33425 21.3064C7.59675 22.1663 7.0875 22.0014 6.92 21.9474C5.82875 21.5944 4.5625 19.3578 3.44612 15.8111C2.48012 12.7423 1.91562 9.65632 1.87087 8.79099C1.72987 6.05426 2.414 4.14699 3.90437 3.12202C6.32987 1.45414 10.3176 2.45244 11.92 2.95875C11.897 2.98081 11.873 3.00141 11.8502 3.02384C9.22075 5.59887 9.28312 9.99838 9.28962 10.2674C9.28937 10.3711 9.29837 10.518 9.31062 10.7201C9.35588 11.4601 9.44012 12.8373 9.21512 14.3969C9.00612 15.8463 9.46687 17.2648 10.479 18.2889C10.5829 18.3938 10.692 18.4937 10.8061 18.5881C10.3556 19.056 9.3765 20.0906 8.33425 21.3064ZM11.1441 17.6709C10.3284 16.8454 9.95787 15.6973 10.1275 14.5206C10.365 12.8731 10.2774 11.4381 10.2302 10.6672C10.2236 10.5594 10.2177 10.4648 10.2144 10.3903C10.5985 10.06 12.3786 9.13511 13.6481 9.41717C14.2274 9.54578 14.5804 9.92832 14.7271 10.5863C15.4866 13.9927 14.8276 15.4124 14.2981 16.5534C14.189 16.7884 14.0859 17.0106 13.9979 17.2404L13.9296 17.4181C13.7569 17.8674 13.5961 18.285 13.4965 18.6817C12.6292 18.6792 11.7856 18.32 11.1441 17.6707V17.6709ZM11.2772 22.2648C11.024 22.2035 10.7962 22.0969 10.6626 22.0086C10.7743 21.9577 10.9729 21.8883 11.3174 21.8195C12.9845 21.4867 13.242 21.2518 13.8042 20.5596C13.9331 20.4008 14.0792 20.2209 14.2816 20.0018L14.2819 20.0015C14.5832 19.6743 14.7211 19.7298 14.9711 19.8304C15.1737 19.9116 15.3711 20.1579 15.4511 20.4289C15.489 20.5569 15.5315 20.7998 15.3924 20.9889C14.2179 22.5836 12.5064 22.5631 11.2772 22.2648ZM20.0021 30.1378C17.9626 30.5615 17.2405 29.5524 16.7646 28.3989C16.4575 27.6541 16.3065 24.2958 16.4136 20.5871C16.415 20.5378 16.4077 20.4901 16.3937 20.4453C16.3812 20.3567 16.3622 20.2692 16.3367 20.1832C16.1775 19.6436 15.7894 19.1922 15.3237 19.0051C15.1387 18.9307 14.7992 18.7944 14.3912 18.8956C14.4782 18.548 14.6291 18.1554 14.7927 17.7303L14.8614 17.5515C14.9386 17.3499 15.0356 17.1411 15.1381 16.92C15.6922 15.7263 16.4511 14.0912 15.6275 10.3975C15.319 9.01402 14.2887 8.33838 12.727 8.49535C11.7907 8.58929 10.9341 8.9556 10.5069 9.16566C10.415 9.21075 10.331 9.25438 10.2525 9.29681C10.3717 7.90287 10.8222 5.29778 12.5075 3.64954C13.5686 2.61196 14.9817 2.09947 16.7035 2.12711C20.096 2.18093 22.2715 3.86917 23.4992 5.27608C24.5572 6.48832 25.1301 7.70954 25.3587 8.3682C23.6394 8.19863 22.47 8.52772 21.8772 9.34954C20.5876 11.1372 22.5827 14.6067 23.5416 16.2743C23.7175 16.5798 23.8692 16.844 23.917 16.9562C24.2292 17.69 24.6335 18.18 24.9286 18.5375C25.0191 18.6471 25.1069 18.7534 25.1736 18.8463C24.6529 18.9918 23.7175 19.3282 23.8027 21.0095C23.734 21.8532 23.2451 25.803 22.9967 27.1985C22.6689 29.0421 21.9692 29.7288 20.0021 30.1379V30.1378ZM28.5151 20.691C27.9826 20.9306 27.0915 21.1104 26.245 21.149C25.31 21.1915 24.834 21.0475 24.722 20.9589C24.6695 19.9111 25.0716 19.8017 25.4972 19.6858C25.5641 19.6676 25.6294 19.6498 25.6924 19.6284C25.7315 19.6594 25.7744 19.69 25.8214 19.7201C26.5729 20.201 27.9132 20.2529 29.8056 19.8741L29.8264 19.8701C29.5711 20.1015 29.1344 20.4121 28.5151 20.691Z" fill="white"/>
</g>
<defs>
<clipPath id="clip0_1655_19243">
<rect width="32" height="32" fill="white"/>
</clipPath>
</defs>
</svg>
