<svg viewBox="0 0 29 32" fill="none" xmlns="http://www.w3.org/2000/svg">
<g clip-path="url(#clip0_1655_19219)">
<mask id="mask0_1655_19219" style="mask-type:luminance" maskUnits="userSpaceOnUse" x="0" y="0" width="29" height="32">
<path d="M0 9.79812C0 8.87401 1.00096 8.29609 1.80149 8.75835C2.17303 8.97304 2.40158 9.36914 2.40158 9.79812V21.1881C2.40158 22.2802 2.98425 23.2895 3.93015 23.8353L12.8663 28.9946C13.8118 29.5404 14.9771 29.5404 15.9226 28.9946L24.8588 23.8353C25.8043 23.2895 26.3869 22.2802 26.3869 21.1881V13.7968C26.3869 13.3678 26.6159 12.9713 26.9874 12.757C27.788 12.2948 28.7885 12.8723 28.7885 13.7968V21.4404C28.7885 23.2344 27.8315 24.8921 26.278 25.7893L16.905 31.2005C15.3514 32.0972 13.4375 32.0972 11.8835 31.2005L2.51091 25.7893C0.957386 24.8921 0 23.2344 0 21.4404V9.79812ZM12.8661 5.83644C13.8116 5.29021 14.9769 5.29021 15.9224 5.83644L21.9908 9.33959C22.396 9.57369 22.8955 9.57369 23.3007 9.33959L26.4763 7.50642C27.0237 7.19033 27.7224 7.35273 28.0741 7.87757C28.4607 8.45509 28.2785 9.23859 27.6768 9.58597L24.6407 11.3391C24.2351 11.5732 23.9855 12.0054 23.9855 12.4736V19.8019C23.9855 20.8936 23.4029 21.9029 22.4574 22.4487L16.2104 26.0556C15.4099 26.5179 14.4089 25.94 14.4089 25.0158C14.4089 24.5869 14.6379 24.1904 15.0094 23.9757L20.6016 20.747C21.2096 20.3961 21.584 19.7472 21.584 19.0454V13.0123C21.584 12.3104 21.2096 11.662 20.6016 11.3106L15.377 8.29427C14.769 7.94332 14.0199 7.94332 13.4119 8.29427L8.18729 11.3106C7.57927 11.662 7.20495 12.3104 7.20495 13.0123V19.0454C7.20495 19.7472 7.57927 20.3961 8.18729 20.747L9.11457 21.2826C9.33322 21.4085 9.60614 21.2509 9.60614 20.9989V18.6679C9.60614 17.493 10.8761 16.7575 11.8948 17.3421L12.0077 17.4067V17.4071L13.8484 18.4698C14.1863 18.6647 14.6022 18.6647 14.9401 18.4698L16.2354 17.7224C16.5732 17.5271 16.7812 17.1666 16.7812 16.7769V15.2812C16.7812 14.8914 16.5732 14.5309 16.2354 14.3357L14.9401 13.5882C14.6022 13.3929 14.1863 13.3929 13.8484 13.5882L11.7095 14.8126C11.3379 15.0273 10.88 15.0273 10.5085 14.8126C9.70794 14.3507 9.70794 13.1949 10.5085 12.733L13.4119 11.067C14.0199 10.7161 14.769 10.7161 15.377 11.067L18.2004 12.697C18.8085 13.0483 19.1828 13.6967 19.1828 14.3986V17.659C19.1828 18.3613 18.8085 19.0101 18.2004 19.3607L15.377 20.991C14.769 21.342 14.0199 21.342 13.4119 20.991L12.4989 20.4638C12.2806 20.3378 12.0077 20.4955 12.0077 20.7474L12.0073 23.0785C12.0073 24.2553 10.7339 24.9905 9.71507 24.4023L6.33154 22.4487C5.38564 21.9029 4.80337 20.8936 4.80337 19.8019V12.2561C4.80337 11.1641 5.38564 10.1552 6.33154 9.60934L12.8661 5.83644ZM11.8836 0.857401C13.4371 -0.039381 15.3515 -0.039381 16.905 0.857401L23.2463 4.5186C24.0468 4.98085 24.0468 6.13629 23.2463 6.59815C22.8747 6.81284 22.4168 6.81284 22.0453 6.59815L15.9227 3.06331C14.9772 2.51748 13.8119 2.51748 12.866 3.06331L5.40374 7.37174C5.0322 7.58643 4.5743 7.58643 4.20275 7.37174C3.40223 6.90988 3.40223 5.75405 4.20275 5.29219L11.8836 0.857401Z" fill="#5658EF"/>
</mask>
<g mask="url(#mask0_1655_19219)">
<path d="M28.9157 0.184814H0V31.8732H28.9157V0.184814Z" fill="#5658EF"/>
</g>
</g>
<defs>
<clipPath id="clip0_1655_19219">
<rect width="28.9157" height="32" fill="white"/>
</clipPath>
</defs>
</svg>
