<svg viewBox="0 0 32 32" fill="none" xmlns="http://www.w3.org/2000/svg">
<path d="M13.2525 7.85995C14.2475 6.82495 15.63 6.18245 17.1625 6.18245C19.1975 6.18245 20.9725 7.31745 21.9175 9.00245C22.7629 8.62418 23.6788 8.42907 24.605 8.42995C28.275 8.42995 31.25 11.4325 31.25 15.1325C31.25 18.835 28.275 21.8375 24.605 21.8375C24.1575 21.8375 23.72 21.7924 23.295 21.7075C22.4625 23.1925 20.875 24.195 19.055 24.195C18.2925 24.195 17.5725 24.02 16.93 23.705C16.085 25.69 14.12 27.0825 11.8275 27.0825C9.44 27.0825 7.4075 25.5725 6.6275 23.455C6.2875 23.5275 5.9325 23.565 5.57 23.565C2.7275 23.565 0.425003 21.2375 0.425003 18.3675C0.425003 16.4425 1.46 14.7625 2.9975 13.865C2.67116 13.1149 2.50349 12.3054 2.505 11.4875C2.505 8.18495 5.185 5.50745 8.4925 5.50745C10.4325 5.50495 12.16 6.42995 13.2525 7.85995Z" fill="#00A1E0"/>
<path d="M4.89 16.695C4.87 16.745 4.8975 16.755 4.9025 16.765C4.96 16.8075 5.02 16.8375 5.0775 16.8725C5.3925 17.04 5.6875 17.0875 6 17.0875C6.6325 17.0875 7.025 16.75 7.025 16.21V16.2C7.025 15.7 6.5825 15.5175 6.165 15.3875L6.11 15.37C5.7975 15.2675 5.525 15.18 5.525 14.975V14.965C5.525 14.7875 5.6825 14.6575 5.9275 14.6575C6.2 14.6575 6.5225 14.7475 6.73 14.8625C6.73 14.8625 6.79 14.9025 6.8125 14.8425C6.825 14.81 6.93 14.5275 6.94 14.4975C6.9525 14.465 6.93 14.44 6.91 14.4275C6.6725 14.2825 6.345 14.185 6.005 14.185H5.9425C5.365 14.185 4.96 14.535 4.96 15.035V15.045C4.96 15.5725 5.405 15.745 5.8225 15.865L5.89 15.885C6.195 15.9775 6.4575 16.06 6.4575 16.2725V16.2825C6.4575 16.4775 6.2875 16.625 6.0125 16.625C5.905 16.625 5.565 16.6225 5.1975 16.39C5.1525 16.365 5.1275 16.345 5.0925 16.325C5.075 16.3125 5.03 16.295 5.01 16.3525L4.89 16.695ZM14.1475 16.695C14.1275 16.745 14.155 16.755 14.16 16.765C14.2175 16.8075 14.2775 16.8375 14.335 16.8725C14.65 17.04 14.945 17.0875 15.2575 17.0875C15.89 17.0875 16.2825 16.75 16.2825 16.21V16.2C16.2825 15.7 15.84 15.5175 15.4225 15.3875L15.3675 15.37C15.055 15.2675 14.7825 15.18 14.7825 14.975V14.965C14.7825 14.7875 14.94 14.6575 15.185 14.6575C15.4575 14.6575 15.78 14.7475 15.9875 14.8625C15.9875 14.8625 16.0475 14.9025 16.07 14.8425C16.0825 14.81 16.1875 14.5275 16.1975 14.4975C16.21 14.465 16.1875 14.44 16.1675 14.4275C15.93 14.2825 15.6025 14.185 15.2625 14.185H15.2C14.6225 14.185 14.2175 14.535 14.2175 15.035V15.045C14.2175 15.5725 14.6625 15.745 15.08 15.865L15.1475 15.885C15.4525 15.9775 15.715 16.06 15.715 16.2725V16.2825C15.715 16.4775 15.545 16.625 15.27 16.625C15.1625 16.625 14.8225 16.6225 14.455 16.39C14.41 16.365 14.385 16.345 14.35 16.325C14.3375 16.3175 14.285 16.2975 14.2675 16.3525L14.1475 16.695ZM20.465 15.635C20.465 15.94 20.4075 16.1825 20.295 16.3525C20.185 16.52 20.015 16.6025 19.7825 16.6025C19.5475 16.6025 19.38 16.52 19.27 16.3525C19.16 16.1825 19.1025 15.94 19.1025 15.635C19.1025 15.33 19.1575 15.09 19.27 14.92C19.38 14.7525 19.5475 14.6725 19.7825 14.6725C20.0175 14.6725 20.185 14.7525 20.2975 14.92C20.4075 15.0875 20.465 15.3275 20.465 15.635ZM20.9925 15.0675C20.94 14.8925 20.86 14.7375 20.7525 14.61C20.6426 14.4781 20.5041 14.373 20.3475 14.3025C20.1875 14.2275 19.995 14.19 19.7825 14.19C19.5675 14.19 19.3775 14.2275 19.2175 14.3025C19.055 14.3775 18.92 14.4825 18.8125 14.61C18.705 14.74 18.625 14.8925 18.5725 15.0675C18.52 15.2425 18.495 15.4325 18.495 15.635C18.495 15.8375 18.52 16.0275 18.5725 16.2025C18.625 16.3775 18.705 16.5325 18.8125 16.66C18.92 16.79 19.0575 16.8925 19.2175 16.965C19.38 17.0375 19.57 17.075 19.7825 17.075C19.9975 17.075 20.1875 17.0375 20.3475 16.965C20.5075 16.8925 20.645 16.7875 20.7525 16.66C20.86 16.5325 20.94 16.3775 20.9925 16.2025C21.045 16.0275 21.07 15.8375 21.07 15.635C21.07 15.4325 21.045 15.24 20.9925 15.0675ZM25.3275 16.52C25.31 16.4675 25.26 16.4875 25.26 16.4875C25.1825 16.5175 25.1025 16.545 25.015 16.5575C24.9275 16.57 24.83 16.5775 24.725 16.5775C24.47 16.5775 24.2675 16.5025 24.12 16.3525C23.975 16.2025 23.8925 15.96 23.8925 15.63C23.8925 15.33 23.965 15.105 24.095 14.935C24.2225 14.765 24.42 14.6775 24.68 14.6775C24.8975 14.6775 25.065 14.7025 25.2375 14.7575C25.2375 14.7575 25.28 14.775 25.3 14.72C25.345 14.5925 25.38 14.5 25.43 14.36C25.445 14.32 25.41 14.3025 25.3975 14.2975C25.33 14.27 25.1675 14.2275 25.045 14.21C24.93 14.1925 24.7975 14.1825 24.65 14.1825C24.4275 14.1825 24.23 14.22 24.0625 14.295C23.895 14.37 23.75 14.4725 23.6375 14.6025C23.522 14.7363 23.4345 14.8918 23.38 15.06C23.3225 15.235 23.295 15.425 23.295 15.6275C23.295 16.065 23.4125 16.42 23.6475 16.6775C23.88 16.9375 24.2325 17.07 24.69 17.07C24.96 17.07 25.2375 17.015 25.4375 16.9375C25.4375 16.9375 25.475 16.92 25.46 16.875L25.3275 16.52ZM26.2525 15.34C26.2775 15.17 26.325 15.0275 26.3975 14.9175C26.5075 14.75 26.6725 14.6575 26.9075 14.6575C27.1425 14.6575 27.2975 14.75 27.4075 14.9175C27.4825 15.0275 27.5125 15.175 27.525 15.34H26.2525ZM28.0275 14.9675C27.9825 14.7975 27.8725 14.6275 27.7975 14.55C27.6825 14.425 27.57 14.34 27.4575 14.2925C27.2954 14.224 27.121 14.1891 26.945 14.19C26.7225 14.19 26.52 14.2275 26.355 14.305C26.19 14.3825 26.0525 14.4875 25.9425 14.62C25.835 14.75 25.7525 14.9075 25.7 15.0825C25.6475 15.2575 25.6225 15.45 25.6225 15.6525C25.6225 15.8575 25.65 16.05 25.7025 16.2225C25.7575 16.3975 25.845 16.55 25.9625 16.6775C26.08 16.805 26.23 16.905 26.4125 16.975C26.5925 17.045 26.81 17.08 27.06 17.08C27.575 17.0775 27.8475 16.9625 27.96 16.9025C27.98 16.8925 27.9975 16.8725 27.975 16.8175L27.8575 16.49C27.84 16.4425 27.79 16.46 27.79 16.46C27.6625 16.5075 27.48 16.5925 27.0575 16.5925C26.78 16.5925 26.575 16.51 26.4475 16.3825C26.315 16.2525 26.25 16.06 26.24 15.7875L28.0275 15.79C28.0275 15.79 28.075 15.79 28.08 15.7425C28.0825 15.7175 28.1425 15.37 28.0275 14.9675ZM11.9425 15.34C11.9675 15.17 12.015 15.0275 12.0875 14.9175C12.1975 14.75 12.3625 14.6575 12.5975 14.6575C12.8325 14.6575 12.9875 14.75 13.0975 14.9175C13.17 15.0275 13.2025 15.175 13.215 15.34H11.9425ZM13.72 14.9675C13.675 14.7975 13.565 14.6275 13.4925 14.55C13.3775 14.425 13.265 14.34 13.1525 14.2925C12.9904 14.224 12.816 14.1891 12.64 14.19C12.4175 14.19 12.215 14.2275 12.05 14.305C11.885 14.3825 11.7475 14.4875 11.6375 14.62C11.53 14.75 11.4475 14.9075 11.395 15.0825C11.3425 15.2575 11.3175 15.45 11.3175 15.6525C11.3175 15.8575 11.345 16.05 11.3975 16.2225C11.4525 16.3975 11.54 16.55 11.6575 16.6775C11.775 16.805 11.925 16.905 12.1075 16.975C12.2875 17.045 12.505 17.08 12.755 17.08C13.27 17.0775 13.5425 16.9625 13.655 16.9025C13.675 16.8925 13.6925 16.8725 13.67 16.8175L13.5525 16.49C13.535 16.4425 13.485 16.46 13.485 16.46C13.3575 16.5075 13.175 16.5925 12.7525 16.5925C12.475 16.5925 12.27 16.51 12.1425 16.3825C12.01 16.2525 11.945 16.06 11.935 15.7875L13.7225 15.79C13.7225 15.79 13.77 15.79 13.775 15.7425C13.775 15.7175 13.835 15.37 13.72 14.9675ZM8.08 16.51C8.01 16.455 8 16.44 7.9775 16.405C7.9425 16.35 7.925 16.2725 7.925 16.1725C7.925 16.015 7.9775 15.9025 8.085 15.8275C8.0825 15.8275 8.2375 15.6925 8.6025 15.6975C8.8575 15.7 9.0875 15.74 9.0875 15.74V16.5525C9.0875 16.5525 8.86 16.6 8.605 16.6175C8.24 16.6375 8.08 16.51 8.08 16.51ZM8.7925 15.255C8.72 15.25 8.625 15.2475 8.5125 15.2475C8.36 15.2475 8.2125 15.2675 8.0725 15.305C7.9325 15.3425 7.8075 15.4 7.7 15.4775C7.5925 15.555 7.505 15.655 7.44 15.7725C7.3775 15.89 7.345 16.03 7.345 16.185C7.345 16.3425 7.3725 16.48 7.4275 16.5925C7.4825 16.705 7.56 16.8 7.66 16.8725C7.76 16.945 7.8825 16.9975 8.025 17.03C8.165 17.0625 8.325 17.0775 8.4975 17.0775C8.68 17.0775 8.8625 17.0625 9.04 17.0325C9.215 17.0025 9.43 16.96 9.49 16.945C9.55 16.93 9.615 16.9125 9.615 16.9125C9.66 16.9025 9.655 16.855 9.655 16.855V15.22C9.655 14.8625 9.56 14.595 9.37 14.4325C9.1825 14.2675 8.9075 14.185 8.55 14.185C8.415 14.185 8.2 14.2025 8.0725 14.23C8.0725 14.23 7.6825 14.305 7.5225 14.43C7.5225 14.43 7.4875 14.4525 7.5075 14.5L7.635 14.84C7.65 14.885 7.6925 14.87 7.6925 14.87C7.6925 14.87 7.705 14.865 7.7225 14.855C8.0675 14.6675 8.5 14.6725 8.5 14.6725C8.6925 14.6725 8.8425 14.71 8.9425 14.7875C9.04 14.8625 9.09 14.975 9.09 15.2125V15.2875C8.9325 15.2675 8.7925 15.255 8.7925 15.255ZM23.2025 14.335C23.2074 14.3227 23.2072 14.309 23.2021 14.2969C23.1969 14.2847 23.1872 14.275 23.175 14.27C23.145 14.2575 22.9925 14.225 22.875 14.2175C22.65 14.205 22.525 14.2425 22.415 14.2925C22.305 14.3425 22.1825 14.4225 22.1125 14.515V14.2975C22.1125 14.2675 22.09 14.2425 22.06 14.2425H21.6025C21.5725 14.2425 21.55 14.2675 21.55 14.2975V16.9625C21.55 16.9925 21.575 17.0175 21.605 17.0175H22.075C22.105 17.0175 22.13 16.9925 22.13 16.9625V15.63C22.13 15.4525 22.15 15.2725 22.19 15.16C22.2275 15.05 22.2825 14.96 22.3475 14.8975C22.4125 14.835 22.4875 14.79 22.5675 14.765C22.65 14.74 22.7425 14.73 22.8075 14.73C22.9 14.73 23.005 14.755 23.005 14.755C23.04 14.76 23.0575 14.7375 23.07 14.7075C23.0975 14.6275 23.185 14.3825 23.2025 14.335Z" fill="white"/>
<path d="M18.795 13.1C18.7375 13.0825 18.685 13.07 18.6175 13.0575C18.55 13.045 18.4675 13.04 18.375 13.04C18.0525 13.04 17.7975 13.1325 17.6175 13.3125C17.44 13.4925 17.32 13.765 17.2575 14.1225L17.235 14.2425H16.83C16.83 14.2425 16.78 14.24 16.77 14.295L16.7025 14.6675C16.6975 14.7025 16.7125 14.725 16.76 14.725H17.155L16.755 16.96C16.725 17.14 16.6875 17.2875 16.6475 17.4C16.6075 17.51 16.57 17.5925 16.5225 17.655C16.4775 17.7125 16.435 17.755 16.36 17.78C16.2975 17.8 16.2275 17.81 16.15 17.81C16.1075 17.81 16.05 17.8025 16.0075 17.795C15.965 17.7875 15.9425 17.7775 15.91 17.765C15.91 17.765 15.865 17.7475 15.845 17.7925C15.83 17.83 15.725 18.12 15.7125 18.155C15.7 18.19 15.7175 18.2175 15.74 18.2275C15.7925 18.245 15.8325 18.2575 15.9025 18.275C16.0025 18.2975 16.085 18.3 16.165 18.3C16.33 18.3 16.48 18.2775 16.6025 18.2325C16.7275 18.1875 16.835 18.1075 16.9325 18.0025C17.0375 17.8875 17.1025 17.7675 17.165 17.6025C17.2275 17.44 17.28 17.2375 17.3225 17.0025L17.725 14.725H18.3125C18.3125 14.725 18.3625 14.7275 18.3725 14.6725L18.44 14.3C18.445 14.265 18.43 14.2425 18.3825 14.2425H17.81C17.8125 14.23 17.84 14.0275 17.905 13.84C17.9325 13.76 17.985 13.695 18.03 13.65C18.075 13.605 18.125 13.575 18.18 13.5575C18.2375 13.54 18.3 13.53 18.3725 13.53C18.425 13.53 18.48 13.535 18.52 13.545C18.575 13.5575 18.5975 13.5625 18.6125 13.5675C18.67 13.585 18.68 13.5675 18.69 13.54L18.8275 13.165C18.8425 13.1225 18.8075 13.105 18.795 13.1ZM10.815 16.9625C10.815 16.9925 10.7925 17.0175 10.7625 17.0175H10.2875C10.2575 17.0175 10.2375 16.9925 10.2375 16.9625V13.15C10.2375 13.12 10.2575 13.095 10.2875 13.095H10.7625C10.7925 13.095 10.815 13.12 10.815 13.15V16.9625Z" fill="white"/>
</svg>
