<svg viewBox="0 0 24 24" fill="none" xmlns="http://www.w3.org/2000/svg">
<g clip-path="url(#clip0_1655_19265)">
<path d="M7.27 23.896L4.5 21.124C4.46698 21.0913 4.44078 21.0524 4.42289 21.0094C4.40501 20.9665 4.3958 20.9205 4.3958 20.874C4.3958 20.8275 4.40501 20.7815 4.42289 20.7386C4.44078 20.6957 4.46698 20.6567 4.5 20.624L7.272 17.854C7.30473 17.821 7.34367 17.7948 7.38658 17.7769C7.42949 17.759 7.47551 17.7498 7.522 17.7498C7.56849 17.7498 7.61451 17.759 7.65742 17.7769C7.70033 17.7948 7.73927 17.821 7.772 17.854L10.544 20.626C10.577 20.6587 10.6032 20.6977 10.6211 20.7406C10.639 20.7835 10.6482 20.8295 10.6482 20.876C10.6482 20.9225 10.639 20.9685 10.6211 21.0114C10.6032 21.0544 10.577 21.0933 10.544 21.126L7.772 23.896C7.73927 23.929 7.70033 23.9552 7.65742 23.9731C7.61451 23.991 7.56849 24.0002 7.522 24.0002C7.47551 24.0002 7.42949 23.991 7.38658 23.9731C7.34367 23.9552 7.30473 23.929 7.272 23.896H7.27ZM11.75 19.416L8.978 16.644C8.94528 16.6113 8.91933 16.5725 8.90162 16.5298C8.88392 16.4871 8.8748 16.4413 8.8748 16.395C8.8748 16.3488 8.88392 16.303 8.90162 16.2603C8.91933 16.2175 8.94528 16.1787 8.978 16.146L11.75 13.374C11.7827 13.341 11.8217 13.3148 11.8646 13.2969C11.9075 13.279 11.9535 13.2698 12 13.2698C12.0465 13.2698 12.0925 13.279 12.1354 13.2969C12.1783 13.3148 12.2173 13.341 12.25 13.374L15.02 16.146C15.053 16.1787 15.0792 16.2177 15.0971 16.2606C15.115 16.3035 15.1242 16.3495 15.1242 16.396C15.1242 16.4425 15.115 16.4885 15.0971 16.5314C15.0792 16.5744 15.053 16.6133 15.02 16.646L12.25 19.416C12.2173 19.4489 12.1784 19.475 12.1356 19.4928C12.0928 19.5106 12.0469 19.5197 12.0005 19.5197C11.9541 19.5197 11.9082 19.5106 11.8654 19.4928C11.8226 19.475 11.7837 19.4489 11.751 19.416H11.75ZM16.23 14.936L13.46 12.164C13.4273 12.1313 13.4013 12.0925 13.3836 12.0498C13.3659 12.0071 13.3568 11.9613 13.3568 11.915C13.3568 11.8688 13.3659 11.823 13.3836 11.7802C13.4013 11.7375 13.4273 11.6987 13.46 11.666L16.231 8.89402C16.2637 8.861 16.3027 8.83479 16.3456 8.81691C16.3885 8.79902 16.4345 8.78982 16.481 8.78982C16.5275 8.78982 16.5735 8.79902 16.6164 8.81691C16.6593 8.83479 16.6983 8.861 16.731 8.89402L19.501 11.666C19.5337 11.6987 19.5597 11.7375 19.5774 11.7802C19.5951 11.823 19.6042 11.8688 19.6042 11.915C19.6042 11.9613 19.5951 12.0071 19.5774 12.0498C19.5597 12.0925 19.5337 12.1313 19.501 12.164L16.729 14.936C16.6963 14.969 16.6573 14.9952 16.6144 15.0131C16.5715 15.031 16.5255 15.0402 16.479 15.0402C16.4325 15.0402 16.3865 15.031 16.3436 15.0131C16.3007 14.9952 16.2627 14.969 16.23 14.936ZM7.354 15.02L4.582 12.25C4.54913 12.2173 4.52305 12.1784 4.50526 12.1356C4.48746 12.0928 4.4783 12.0469 4.4783 12.0005C4.4783 11.9542 4.48746 11.9082 4.50526 11.8654C4.52305 11.8226 4.54913 11.7837 4.582 11.751L7.354 8.97802C7.38673 8.945 7.42567 8.91879 7.46858 8.90091C7.51149 8.88302 7.55751 8.87382 7.604 8.87382C7.65049 8.87382 7.69651 8.88302 7.73942 8.90091C7.78233 8.91879 7.82127 8.945 7.854 8.97802L10.626 11.75C10.6587 11.7827 10.6847 11.8215 10.7024 11.8642C10.7201 11.907 10.7292 11.9528 10.7292 11.999C10.7292 12.0453 10.7201 12.0911 10.7024 12.1338C10.6847 12.1765 10.6587 12.2153 10.626 12.248L7.854 15.022C7.82127 15.055 7.78233 15.0812 7.73942 15.0991C7.69651 15.117 7.65049 15.1262 7.604 15.1262C7.55751 15.1262 7.51149 15.117 7.46858 15.0991C7.42567 15.0812 7.38673 15.055 7.354 15.022V15.02ZM11.834 10.54L9.062 7.77002C9.02898 7.73729 9.00278 7.69835 8.98489 7.65544C8.96701 7.61253 8.9578 7.56651 8.9578 7.52002C8.9578 7.47353 8.96701 7.4275 8.98489 7.3846C9.00278 7.34169 9.02898 7.30274 9.062 7.27002L11.834 4.49802C11.8667 4.465 11.9057 4.43879 11.9486 4.42091C11.9915 4.40303 12.0375 4.39382 12.084 4.39382C12.1305 4.39382 12.1765 4.40303 12.2194 4.42091C12.2623 4.43879 12.3013 4.465 12.334 4.49802L15.104 7.27002C15.1367 7.30271 15.1627 7.34153 15.1804 7.38425C15.1981 7.42697 15.2072 7.47277 15.2072 7.51902C15.2072 7.56527 15.1981 7.61106 15.1804 7.65379C15.1627 7.69651 15.1367 7.73533 15.104 7.76802L12.334 10.54C12.3013 10.5729 12.2624 10.599 12.2196 10.6168C12.1768 10.6346 12.1309 10.6437 12.0845 10.6437C12.0381 10.6437 11.9922 10.6346 11.9494 10.6168C11.9066 10.599 11.8677 10.5729 11.835 10.54V10.538L11.834 10.54ZM7.44 6.15002L4.666 3.37002C4.63298 3.33729 4.60678 3.29835 4.58889 3.25544C4.57101 3.21253 4.5618 3.16651 4.5618 3.12002C4.5618 3.07353 4.57101 3.0275 4.58889 2.9846C4.60678 2.94169 4.63298 2.90274 4.666 2.87002L7.44 0.104019C7.47273 0.071002 7.51167 0.0447948 7.55458 0.02691C7.59749 0.00902513 7.64351 -0.000183105 7.69 -0.000183105C7.73649 -0.000183105 7.78251 0.00902513 7.82542 0.02691C7.86833 0.0447948 7.90727 0.071002 7.94 0.104019L10.712 2.87602C10.745 2.90874 10.7712 2.94769 10.7891 2.9906C10.807 3.0335 10.8162 3.07953 10.8162 3.12602C10.8162 3.17251 10.807 3.21853 10.7891 3.26144C10.7712 3.30435 10.745 3.34329 10.712 3.37602L7.938 6.14202C7.90527 6.17504 7.86633 6.20124 7.82342 6.21913C7.78051 6.23701 7.73449 6.24622 7.688 6.24622C7.64151 6.24622 7.59549 6.23701 7.55258 6.21913C7.50967 6.20124 7.47073 6.17504 7.438 6.14202L7.44 6.14802V6.15002Z" fill="#7CBF80"/>
</g>
<defs>
<clipPath id="clip0_1655_19265">
<rect width="24" height="24" fill="white"/>
</clipPath>
</defs>
</svg>
