<svg width="217" height="166" viewBox="0 0 217 166" fill="none" xmlns="http://www.w3.org/2000/svg">
<g clip-path="url(#clip0)">
<path d="M187.62 135.397C187.1 131.324 188.728 127.132 187.76 123.145C187.016 120.065 184.811 117.494 184.087 114.408C183.022 109.836 185.457 105.14 188.565 101.629C190.703 99.2085 193.385 97.0124 196.583 96.5728C198.557 96.2919 200.587 96.7258 202.41 97.5306C204.263 98.3618 205.926 99.566 207.293 101.068C208.661 102.57 209.704 104.338 210.358 106.262C210.779 107.512 211.022 108.819 211.54 110.031C212.432 112.119 214.068 113.803 215.086 115.835C215.765 117.212 216.149 118.715 216.212 120.249C216.276 121.782 216.018 123.312 215.456 124.74C214.278 127.681 211.804 130.142 211.439 133.289C211.174 135.557 212.025 138.041 210.92 140.04C210.085 141.548 208.368 142.309 206.742 142.879C202.963 144.194 197.674 146.328 193.882 144.296C190.566 142.52 188.101 139.156 187.62 135.397Z" fill="#E6E6E6"/>
<path d="M198.237 137.105C198.237 137.105 202.384 135.432 202.907 134.49C203.43 133.549 204.162 128.006 204.162 128.006" stroke="#D0CDE1" stroke-width="3" stroke-miterlimit="10"/>
<path d="M198.184 165.346L198.31 124.917" stroke="#D0CDE1" stroke-width="3" stroke-miterlimit="10"/>
<path d="M166.905 122.074C166.302 117.35 168.19 112.487 167.068 107.862C166.205 104.29 163.647 101.307 162.806 97.7282C161.573 92.424 164.396 86.9766 168.002 82.904C170.482 80.0972 173.593 77.5493 177.303 77.0395C179.594 76.7137 181.947 77.2169 184.062 78.1505C186.212 79.1146 188.141 80.5114 189.727 82.2539C191.313 83.9964 192.524 86.0471 193.282 88.2782C193.771 89.7281 194.053 91.2439 194.654 92.6504C195.688 95.0728 197.586 97.0276 198.767 99.3831C199.554 100.98 199.999 102.724 200.073 104.503C200.147 106.281 199.848 108.056 199.196 109.713C197.829 113.124 194.96 115.978 194.537 119.628C194.228 122.259 195.216 125.141 193.934 127.458C192.966 129.207 190.974 130.092 189.088 130.752C184.704 132.277 178.569 134.753 174.171 132.396C170.321 130.336 167.462 126.435 166.905 122.074Z" fill="#ADC6FF"/>
<path d="M179.157 165.346V109.145" stroke="#333333" stroke-width="3" stroke-miterlimit="10"/>
<path d="M179.219 125.431C179.219 125.431 185.68 122.825 186.494 121.359C187.309 119.893 188.448 111.259 188.448 111.259" stroke="#333333" stroke-width="3" stroke-miterlimit="10"/>
<path d="M152.167 0.0142167L72.444 0.209017C69.1681 0.217022 66.519 2.87912 66.527 6.15497L66.902 159.605C66.91 162.881 69.5721 165.53 72.8479 165.522L152.571 165.327C155.847 165.319 158.496 162.657 158.488 159.381L158.113 5.93119C158.105 2.65533 155.443 0.00621225 152.167 0.0142167Z" fill="#2F2E41"/>
<path d="M155.245 156.028C155.247 156.93 154.892 157.797 154.256 158.437C153.62 159.078 152.756 159.439 151.853 159.443L73.5961 159.633C72.6936 159.634 71.8275 159.277 71.1882 158.64C70.549 158.003 70.1888 157.138 70.1869 156.235L70.1333 133.241L69.8341 9.25619C69.8312 8.35369 70.1868 7.48697 70.8227 6.84653C71.4586 6.2061 72.3228 5.84436 73.2253 5.84085L89.5928 5.80241C89.8547 7.51545 90.7203 9.07845 92.0334 10.2093C93.3465 11.3402 95.0206 11.9644 96.7535 11.9692L127.678 11.895C129.415 11.8877 131.093 11.2581 132.406 10.1203C133.719 8.98259 134.581 7.41201 134.836 5.69327L151.459 5.65222C152.362 5.65103 153.228 6.0082 153.867 6.64525C154.506 7.28229 154.866 8.14708 154.868 9.04954L155.188 133.241L155.245 156.028Z" fill="white"/>
<path d="M155.244 157.591C155.255 158.505 154.903 159.386 154.265 160.04C153.627 160.693 152.755 161.067 151.841 161.079L73.3085 161.273C72.395 161.266 71.5214 160.897 70.8799 160.246C70.2384 159.596 69.8815 158.717 69.8875 157.804L69.8341 134.325H155.188L155.244 157.591Z" fill="#E6E6E6"/>
<path d="M121.278 5.99486L101.82 6.28695C101.558 6.29088 101.349 6.50649 101.353 6.76853L101.358 7.09591C101.362 7.35796 101.577 7.56719 101.839 7.56326L121.298 7.27117C121.56 7.26724 121.769 7.05162 121.765 6.78958L121.76 6.4622C121.756 6.20016 121.54 5.99092 121.278 5.99486Z" fill="white"/>
<path d="M126.106 7.19678C126.529 7.19042 126.867 6.8421 126.861 6.41878C126.854 5.99545 126.506 5.65743 126.083 5.66379C125.659 5.67014 125.321 6.01846 125.328 6.44179C125.334 6.86511 125.682 7.20313 126.106 7.19678Z" fill="white"/>
<path d="M88.2079 27.0388H77.0708C75.6949 27.0388 74.5795 28.1542 74.5795 29.53V40.6672C74.5795 42.0431 75.6949 43.1584 77.0708 43.1584H88.2079C89.5838 43.1584 90.6992 42.0431 90.6992 40.6672V29.53C90.6992 28.1542 89.5838 27.0388 88.2079 27.0388Z" fill="#E6E6E6"/>
<path d="M108.106 27.0388H96.9685C95.5926 27.0388 94.4773 28.1542 94.4773 29.53V40.6672C94.4773 42.0431 95.5926 43.1584 96.9685 43.1584H108.106C109.481 43.1584 110.597 42.0431 110.597 40.6672V29.53C110.597 28.1542 109.481 27.0388 108.106 27.0388Z" fill="#E6E6E6"/>
<path d="M128.003 27.0388H116.866C115.49 27.0388 114.375 28.1542 114.375 29.53V40.6672C114.375 42.0431 115.49 43.1584 116.866 43.1584H128.003C129.379 43.1584 130.495 42.0431 130.495 40.6672V29.53C130.495 28.1542 129.379 27.0388 128.003 27.0388Z" fill="#E6E6E6"/>
<path d="M147.901 27.0388H136.764C135.388 27.0388 134.273 28.1542 134.273 29.53V40.6672C134.273 42.0431 135.388 43.1584 136.764 43.1584H147.901C149.277 43.1584 150.392 42.0431 150.392 40.6672V29.53C150.392 28.1542 149.277 27.0388 147.901 27.0388Z" fill="#E6E6E6"/>
<path d="M88.2023 51.2023H77.0708C75.6949 51.2023 74.5795 52.3176 74.5795 53.6935V64.825C74.5795 66.2008 75.6949 67.3162 77.0708 67.3162H88.2023C89.5781 67.3162 90.6935 66.2008 90.6935 64.825V53.6935C90.6935 52.3176 89.5781 51.2023 88.2023 51.2023Z" fill="#ADC6FF"/>
<path d="M108.093 51.2023H96.9611C95.5853 51.2023 94.4699 52.3176 94.4699 53.6935V64.825C94.4699 66.2008 95.5853 67.3162 96.9611 67.3162H108.093C109.469 67.3162 110.584 66.2008 110.584 64.825V53.6935C110.584 52.3176 109.469 51.2023 108.093 51.2023Z" fill="#E6E6E6"/>
<path d="M127.983 51.2023H116.852C115.476 51.2023 114.361 52.3176 114.361 53.6935V64.825C114.361 66.2008 115.476 67.3162 116.852 67.3162H127.983C129.359 67.3162 130.475 66.2008 130.475 64.825V53.6935C130.475 52.3176 129.359 51.2023 127.983 51.2023Z" fill="#E6E6E6"/>
<path d="M147.874 51.2023H136.742C135.366 51.2023 134.251 52.3176 134.251 53.6935V64.825C134.251 66.2008 135.366 67.3162 136.742 67.3162H147.874C149.25 67.3162 150.365 66.2008 150.365 64.825V53.6935C150.365 52.3176 149.25 51.2023 147.874 51.2023Z" fill="#E6E6E6"/>
<path d="M88.2079 75.3977H77.0708C75.6949 75.3977 74.5795 76.5131 74.5795 77.8889V89.0261C74.5795 90.402 75.6949 91.5173 77.0708 91.5173H88.2079C89.5838 91.5173 90.6992 90.402 90.6992 89.0261V77.8889C90.6992 76.5131 89.5838 75.3977 88.2079 75.3977Z" fill="#E6E6E6"/>
<path d="M108.106 75.3977H96.9685C95.5926 75.3977 94.4773 76.5131 94.4773 77.8889V89.0261C94.4773 90.402 95.5926 91.5173 96.9685 91.5173H108.106C109.481 91.5173 110.597 90.402 110.597 89.0261V77.8889C110.597 76.5131 109.481 75.3977 108.106 75.3977Z" fill="#E6E6E6"/>
<path d="M128.003 75.3977H116.866C115.49 75.3977 114.375 76.5131 114.375 77.8889V89.0261C114.375 90.402 115.49 91.5173 116.866 91.5173H128.003C129.379 91.5173 130.495 90.402 130.495 89.0261V77.8889C130.495 76.5131 129.379 75.3977 128.003 75.3977Z" fill="#E6E6E6"/>
<path d="M147.901 75.3977H136.764C135.388 75.3977 134.273 76.5131 134.273 77.8889V89.0261C134.273 90.402 135.388 91.5173 136.764 91.5173H147.901C149.277 91.5173 150.392 90.402 150.392 89.0261V77.8889C150.392 76.5131 149.277 75.3977 147.901 75.3977Z" fill="#E6E6E6"/>
<path d="M88.2079 99.5771H77.0708C75.6949 99.5771 74.5795 100.693 74.5795 102.068V113.206C74.5795 114.581 75.6949 115.697 77.0708 115.697H88.2079C89.5838 115.697 90.6992 114.581 90.6992 113.206V102.068C90.6992 100.693 89.5838 99.5771 88.2079 99.5771Z" fill="#E6E6E6"/>
<path d="M108.106 99.5771H96.9685C95.5926 99.5771 94.4773 100.693 94.4773 102.068V113.206C94.4773 114.581 95.5926 115.697 96.9685 115.697H108.106C109.481 115.697 110.597 114.581 110.597 113.206V102.068C110.597 100.693 109.481 99.5771 108.106 99.5771Z" fill="#E6E6E6"/>
<path d="M128.003 99.5771H116.866C115.49 99.5771 114.375 100.693 114.375 102.068V113.206C114.375 114.581 115.49 115.697 116.866 115.697H128.003C129.379 115.697 130.495 114.581 130.495 113.206V102.068C130.495 100.693 129.379 99.5771 128.003 99.5771Z" fill="#E6E6E6"/>
<path d="M147.901 99.5771H136.764C135.388 99.5771 134.273 100.693 134.273 102.068V113.206C134.273 114.581 135.388 115.697 136.764 115.697H147.901C149.277 115.697 150.392 114.581 150.392 113.206V102.068C150.392 100.693 149.277 99.5771 147.901 99.5771Z" fill="#E6E6E6"/>
<path d="M87.6286 139.557H75.869C74.4932 139.557 73.3778 140.672 73.3778 142.048V153.808C73.3778 155.184 74.4932 156.299 75.869 156.299H87.6286C89.0044 156.299 90.1198 155.184 90.1198 153.808V142.048C90.1198 140.672 89.0044 139.557 87.6286 139.557Z" fill="#ADC6FF"/>
<path d="M108.294 139.557H96.5348C95.159 139.557 94.0436 140.672 94.0436 142.048V153.808C94.0436 155.184 95.159 156.299 96.5348 156.299H108.294C109.67 156.299 110.786 155.184 110.786 153.808V142.048C110.786 140.672 109.67 139.557 108.294 139.557Z" fill="#ADC6FF"/>
<path d="M128.96 139.557H117.201C115.825 139.557 114.71 140.672 114.71 142.048V153.808C114.71 155.184 115.825 156.299 117.201 156.299H128.96C130.336 156.299 131.452 155.184 131.452 153.808V142.048C131.452 140.672 130.336 139.557 128.96 139.557Z" fill="#ADC6FF"/>
<path d="M149.626 139.557H137.867C136.491 139.557 135.375 140.672 135.375 142.048V153.808C135.375 155.184 136.491 156.299 137.867 156.299H149.626C151.002 156.299 152.117 155.184 152.117 153.808V142.048C152.117 140.672 151.002 139.557 149.626 139.557Z" fill="#ADC6FF"/>
<path d="M70.6474 56.5088V60.1782L66.2754 66.5842L70.6474 69.4299C70.6474 69.4299 72.5905 61.9434 73.6383 61.0622C73.6383 61.0622 75.2837 59.8883 76.1791 58.2737C77.0745 56.6592 76.6268 51.08 72.2906 56.071V56.6587L70.6474 56.5088Z" fill="#FDA57D"/>
<path d="M36.5885 63.1266L38.3205 59.6643C38.3709 59.5624 38.4475 59.4756 38.5425 59.4131C38.6375 59.3506 38.7474 59.3144 38.861 59.3084L45.4354 58.9727C45.5423 58.967 45.6489 58.9882 45.7454 59.0343C45.842 59.0804 45.9254 59.15 45.9882 59.2367C46.0509 59.3233 46.091 59.4243 46.1047 59.5304C46.1184 59.6366 46.1053 59.7444 46.0666 59.8442L44.3704 64.2292C44.3203 64.359 44.2292 64.4689 44.1111 64.5423C43.993 64.6158 43.8541 64.6488 43.7156 64.6363L37.1076 64.0482C37.0038 64.0392 36.9038 64.0049 36.8162 63.9485C36.7286 63.8921 36.6561 63.8152 36.6049 63.7244C36.5538 63.6336 36.5256 63.5317 36.5227 63.4275C36.5199 63.3234 36.5424 63.2201 36.5885 63.1266Z" fill="#FDA57D"/>
<path d="M37.0749 61.6409L35.9581 64.9151L47.4261 64.5032L43.0209 61.8601L37.0749 61.6409Z" fill="#EDEEF9"/>
<path d="M32.4906 97.4236C32.9512 99.689 32.6801 102.042 31.7166 104.143C30.1033 107.52 30.1033 111.049 32.1572 115.154L32.7454 136.442C32.7454 136.442 33.4788 146.427 32.7454 148.482C32.012 150.537 33.0334 160.376 33.0334 160.376H41.2559V153.768L44.0444 134.241V124.255L49.0449 134.68L43.3298 158.759L50.8162 161.844L60.2117 134.829C60.2117 134.829 58.5829 113.541 52.7108 106.201L51.6058 98.1982L32.4906 97.4236Z" fill="#3F3D56"/>
<path d="M32.8906 165.333V159.901H41.2583C41.2583 159.901 41.8464 162.104 45.6635 162.544C49.4805 162.985 43.9014 165.629 43.9014 165.629L32.8906 165.333Z" fill="#3F3D56"/>
<path d="M42.167 162.901L43.6238 157.662L50.8689 159.963C50.8689 159.963 51.6604 162.187 55.2203 163.635C57.6446 164.621 55.0036 165.755 55.0036 165.755L54.0506 166.001L42.167 162.901Z" fill="#3F3D56"/>
<path opacity="0.1" d="M51.6068 98.6378L32.488 97.8639C32.7248 99.004 32.7739 100.175 32.6332 101.331C33.507 103.388 35.3835 102.826 35.3835 102.826L52.1117 102.311L51.6068 98.6378Z" fill="black"/>
<path d="M36.3413 63.6958L35.5792 64.2126C33.2733 65.7744 31.4719 67.9737 30.3949 70.542C29.3179 73.1104 29.0119 75.9368 29.5142 78.6761C29.5142 78.6761 33.7718 87.0103 32.4502 95.3448C31.1287 103.679 35.3863 102.393 35.3863 102.393L52.1973 101.876L53.4451 76.5989C53.4451 76.5989 63.5748 78.0396 68.1276 74.5153L71.7973 68.9084L66.2182 65.0579L64.3141 67.7814C64.3141 67.7814 58.3352 66.5194 55.0511 65.1858C53.5194 64.5609 51.8894 64.2118 50.2361 64.1547L36.3413 63.6958Z" fill="#ADC6FF"/>
<path opacity="0.1" d="M36.4883 104.365C36.4883 104.365 35.4596 109.504 41.3341 118.019L36.4883 104.365Z" fill="black"/>
<path opacity="0.1" d="M53.512 76.6165C53.512 76.6165 60.5586 74.2676 63.6418 74.2676C66.725 74.2676 66.2111 75.5986 66.2111 75.5986C66.2111 75.5986 61.301 77.7904 53.512 76.6165Z" fill="black"/>
<path opacity="0.1" d="M45.5278 59.2714L42.7226 59.6071C42.6346 59.6071 42.5535 59.7286 42.506 59.9023C43.1229 61.0143 43.8942 61.6762 44.7325 61.6762C45.0316 61.6719 45.3244 61.5902 45.5826 61.439L45.7961 60.1412C45.8682 59.7096 45.7254 59.2477 45.5278 59.2714Z" fill="black"/>
<path d="M43.5703 61.3813C48.2995 61.3813 52.1332 57.5475 52.1332 52.8183C52.1332 48.0891 48.2995 44.2554 43.5703 44.2554C38.8412 44.2554 35.0074 48.0891 35.0074 52.8183C35.0074 57.5475 38.8412 61.3813 43.5703 61.3813Z" fill="#FDA57D"/>
<path opacity="0.1" d="M50.8547 47.9699L50.4164 48.3652C50.2329 48.5333 50.0946 48.7449 50.0145 48.9805C49.9343 49.2161 49.9148 49.4682 49.9578 49.7133C50.0007 49.9585 50.1048 50.1888 50.2603 50.3831C50.4158 50.5775 50.6178 50.7295 50.8475 50.8251C50.8475 50.8251 47.0113 54.6614 46.4779 55.3734C45.9446 56.0854 46.566 57.9595 46.566 57.9595C46.566 57.9595 48.2614 61.0813 39.3414 60.367C39.3414 60.367 33.455 59.1192 34.079 51.1803C34.1409 50.385 32.8313 48.3227 36.7555 47.256C36.8731 46.1416 37.3344 45.0914 38.0755 44.2508C38.8166 43.4103 39.8008 42.8211 40.8917 42.5649C42.4087 42.1876 43.9755 42.0502 45.5351 42.1578C46.9882 42.2853 48.3406 42.953 49.3255 44.029C50.3103 45.1051 50.856 46.5112 50.8547 47.9699Z" fill="black"/>
<path d="M51.0401 47.5033C51.0401 47.5033 51.9498 47.7842 51.9927 50.768L50.6997 50.6799C50.6997 50.6799 47.7088 58.6808 48.0232 57.6378C49.1829 53.8016 46.8634 54.5159 46.3277 55.2303C45.792 55.9447 46.4157 57.8164 46.4157 57.8164C46.4157 57.8164 48.1112 60.9383 39.1912 60.2239C39.1912 60.2239 33.3048 58.9762 33.9288 51.0372C33.9907 50.242 32.681 48.1797 36.6053 47.113C36.7219 45.9992 37.1818 44.9492 37.9214 44.1083C38.6611 43.2675 39.6438 42.6773 40.7336 42.4195C42.2507 42.0422 43.8174 41.9049 45.377 42.0124C48.3971 42.267 51.0401 44.4839 51.0401 47.5033Z" fill="#72351C"/>
<path d="M9.61325 165.348C9.61325 165.348 5.87405 152.655 10.325 143.312C12.2111 139.406 12.7797 134.993 11.9455 130.737C11.5331 128.719 10.9367 126.743 10.1637 124.834" stroke="#D0CDE1" stroke-width="2" stroke-miterlimit="10"/>
<path d="M12.9206 118.921C12.9206 120.478 10.1043 124.988 10.1043 124.988C10.1043 124.988 7.28804 120.48 7.28804 118.921C7.28804 118.174 7.58487 117.458 8.11325 116.929C8.64162 116.401 9.35826 116.104 10.1055 116.104C10.8527 116.104 11.5694 116.401 12.0977 116.929C12.6261 117.458 12.9229 118.174 12.9229 118.921H12.9206Z" fill="#E6E6E6"/>
<path d="M17.8106 127.539C16.9659 128.844 12.1496 131.097 12.1496 131.097C12.1496 131.097 12.2374 125.781 13.082 124.473C13.4882 123.846 14.1268 123.406 14.8574 123.25C15.588 123.094 16.3507 123.234 16.9778 123.64C17.6048 124.047 18.0448 124.685 18.201 125.416C18.3572 126.146 18.2167 126.909 17.8106 127.536V127.539Z" fill="#E6E6E6"/>
<path d="M17.3716 142.265C15.9836 142.977 10.6856 142.481 10.6856 142.481C10.6856 142.481 13.4449 137.935 14.8353 137.233C15.5023 136.897 16.2756 136.839 16.985 137.073C17.6945 137.307 18.282 137.813 18.6184 138.48C18.9547 139.147 19.0123 139.92 18.7785 140.63C18.5446 141.339 18.0386 141.927 17.3716 142.263V142.265Z" fill="#E6E6E6"/>
<path d="M14.7072 153.374C13.4568 154.299 8.15405 154.717 8.15405 154.717C8.15405 154.717 10.1067 149.77 11.357 148.845C11.6544 148.625 11.9923 148.465 12.3512 148.376C12.7101 148.286 13.0832 148.269 13.449 148.323C13.8148 148.378 14.1663 148.504 14.4833 148.695C14.8004 148.886 15.0768 149.137 15.2967 149.434C15.5167 149.732 15.676 150.069 15.7654 150.428C15.8548 150.787 15.8726 151.16 15.8179 151.526C15.7631 151.892 15.6369 152.243 15.4463 152.56C15.2557 152.877 15.0046 153.154 14.7072 153.374Z" fill="#E6E6E6"/>
<path d="M5.99746 131.404C7.11258 132.488 12.3133 133.61 12.3133 133.61C12.3133 133.61 11.0392 128.445 9.92409 127.363C9.38365 126.872 8.67385 126.611 7.94427 126.633C7.2147 126.656 6.52236 126.961 6.0132 127.484C5.50404 128.007 5.21782 128.707 5.21488 129.437C5.21194 130.167 5.49252 130.869 5.99746 131.396V131.404Z" fill="#E6E6E6"/>
<path d="M3.04837 144.434C4.43633 145.146 9.73433 144.65 9.73433 144.65C9.73433 144.65 6.975 140.104 5.58467 139.401C5.2544 139.235 4.89456 139.135 4.5257 139.108C4.15685 139.08 3.78619 139.126 3.4349 139.241C3.0836 139.357 2.75855 139.541 2.4783 139.782C2.19805 140.024 1.9681 140.318 1.80157 140.648C1.63503 140.979 1.53517 141.338 1.5077 141.707C1.48023 142.076 1.52569 142.447 1.64146 142.798C1.75724 143.149 1.94107 143.474 2.18247 143.755C2.42386 144.035 2.7181 144.265 3.04837 144.431V144.434Z" fill="#E6E6E6"/>
<path d="M1.9189 157.49C3.16926 158.416 8.472 158.833 8.472 158.833C8.472 158.833 6.51936 153.886 5.269 152.961C4.9716 152.741 4.63379 152.582 4.27486 152.492C3.91592 152.403 3.54289 152.385 3.17705 152.44C2.81122 152.495 2.45974 152.621 2.14271 152.811C1.82567 153.002 1.54929 153.253 1.32932 153.551C1.10935 153.848 0.950096 154.186 0.860678 154.545C0.771261 154.904 0.753421 155.277 0.80817 155.643C0.862918 156.008 0.989191 156.36 1.17977 156.677C1.37035 156.994 1.62151 157.27 1.9189 157.49Z" fill="#E6E6E6"/>
<path d="M216.123 165.45H0.791748V165.836H216.123V165.45Z" fill="#2F2E41"/>
</g>
<defs>
<clipPath id="clip0">
<rect width="215.446" height="166" fill="white" transform="translate(0.777008)"/>
</clipPath>
</defs>
</svg>
