<svg width="235" height="166" viewBox="0 0 235 166" fill="none" xmlns="http://www.w3.org/2000/svg">
<g clip-path="url(#clip0)">
<path d="M233.719 54.1886C230.482 65.4187 221.03 73.2799 211.17 79.9579C209.794 80.8905 208.417 81.8017 207.039 82.6914C207.03 82.6955 207.02 82.7042 207.011 82.7084C206.944 82.7509 206.878 82.7936 206.816 82.8365C206.532 83.0197 206.247 83.2031 205.966 83.3843L206.12 83.4538C206.12 83.4538 206.272 83.5347 206.106 83.4668C206.057 83.4461 206.005 83.4275 205.955 83.4067C200.227 81.0965 194.398 78.6161 190.008 74.2885C185.455 69.7945 182.794 62.7458 185.259 56.842C185.583 56.0687 185.993 55.3339 186.48 54.6514C186.68 54.3652 186.895 54.0913 187.119 53.8224C188.48 52.1624 190.257 50.8947 192.27 50.1495C194.282 49.4043 196.457 49.2086 198.57 49.5825C200.683 49.9563 202.659 50.8863 204.293 52.2767C205.928 53.6672 207.163 55.4679 207.871 57.4938C208.595 50.7494 203.034 45.0999 197.682 40.9314C192.328 36.765 186.244 32.2278 185.208 25.5208C184.63 21.7891 185.928 18.1728 188.292 15.2697C188.365 15.1815 188.438 15.0934 188.514 15.0076C191.391 11.6263 195.438 9.45511 199.847 8.92757C208.057 8.07429 216.032 12.4201 221.996 18.1284C231.596 27.3128 237.399 41.42 233.719 54.1886Z" fill="#F2F2F2"/>
<path d="M218.287 39.4997C219.863 41.9512 221.073 44.6193 221.878 47.42C222.56 49.9232 222.863 52.5141 222.778 55.107C222.63 60.4365 220.991 65.6445 218.41 70.283C216.414 73.8001 213.982 77.0508 211.17 79.9579C209.794 80.8905 208.416 81.8017 207.039 82.6914C207.03 82.6954 207.02 82.7042 207.011 82.7083C206.944 82.7509 206.878 82.7936 206.816 82.8364C206.532 83.0197 206.247 83.2031 205.965 83.3842C205.965 83.3842 206.272 83.5347 206.106 83.4668C206.056 83.4461 206.005 83.4275 205.955 83.4066C206.469 79.1977 205.966 74.927 204.489 70.9525C203.012 66.978 200.603 63.4154 197.466 60.5632C194.321 57.7545 190.556 55.7288 186.48 54.6513C186.68 54.3651 186.895 54.0912 187.119 53.8224C188.694 54.2639 190.226 54.8438 191.699 55.5552C196.962 58.0827 201.271 62.2376 203.989 67.405C206.429 72.0972 207.478 77.3878 207.015 82.6558C207.251 82.4425 207.486 82.2246 207.715 82.0088C212.068 77.9508 215.933 73.293 218.55 67.9174C220.82 63.365 221.935 58.3244 221.798 53.2393C221.585 47.6947 219.376 42.5589 216.177 38.088C212.751 33.303 208.455 29.0695 203.868 25.402C199.169 21.6389 194.028 18.4648 188.559 15.9505C188.435 15.893 188.339 15.7902 188.289 15.6635C188.24 15.5367 188.24 15.3957 188.292 15.2697C188.328 15.1565 188.408 15.0623 188.513 15.0076C188.568 14.9842 188.627 14.9733 188.686 14.9758C188.745 14.9783 188.803 14.9941 188.855 15.0221C189.53 15.3329 190.201 15.6481 190.866 15.9768C196.406 18.7154 201.586 22.1318 206.284 26.1473C210.822 30.0165 215.095 34.4371 218.287 39.4997Z" fill="white"/>
<path d="M180.89 118.491C187.521 118.491 192.896 113.115 192.896 106.484C192.896 99.8528 187.521 94.4772 180.89 94.4772C174.258 94.4772 168.883 99.8528 168.883 106.484C168.883 113.115 174.258 118.491 180.89 118.491Z" fill="#2F2E41"/>
<path d="M171.518 100.01C173.458 98.07 173.851 95.3174 172.396 93.8623C170.941 92.4071 168.188 92.8003 166.248 94.7405C164.308 96.6808 163.915 99.4333 165.37 100.889C166.825 102.344 169.577 101.95 171.518 100.01Z" fill="#2F2E41"/>
<path d="M193.404 96.1974C194.212 94.3049 192.822 91.8969 190.299 90.819C187.775 89.7411 185.074 90.4015 184.266 92.294C183.458 94.1865 184.848 96.5945 187.371 97.6724C189.895 98.7503 192.595 98.0899 193.404 96.1974Z" fill="#2F2E41"/>
<path d="M206.317 158.037C204.254 159.47 202.074 160.727 199.8 161.794L199.464 161.2L196.246 155.552L195.964 155.056L194.318 152.167L194.314 152.164L189.117 143.033L186.446 138.345L194.379 132.782L197.464 139.306L199.138 142.85L206.025 157.415L206.317 158.037Z" fill="#A0616A"/>
<path d="M199.229 136.006L198.235 134.448L193.836 127.547C193.235 126.207 192.127 125.159 190.755 124.633C189.384 124.107 187.859 124.147 186.516 124.742C185.174 125.338 184.122 126.442 183.591 127.812C183.061 129.182 183.095 130.707 183.686 132.052L186.405 141.74C186.482 142.014 186.616 142.268 186.799 142.486C186.983 142.704 187.21 142.88 187.467 143.003C187.724 143.125 188.004 143.191 188.289 143.196C188.574 143.202 188.856 143.146 189.117 143.033C189.128 143.03 189.134 143.026 189.144 143.023L197.464 139.306L198.36 138.905C198.622 138.787 198.855 138.615 199.044 138.399C199.233 138.183 199.374 137.929 199.456 137.654C199.539 137.379 199.561 137.09 199.522 136.806C199.483 136.521 199.383 136.249 199.229 136.006H199.229Z" fill="#ADC6FF"/>
<path d="M175.325 136.224L173.011 141.451L172.508 142.588L163.937 161.95L163.662 162.572C161.341 161.604 159.106 160.441 156.982 159.096L157.213 158.444L164.209 138.705L165.926 133.858L169.687 134.805L175.325 136.224Z" fill="#A0616A"/>
<path d="M190.212 114.238C192.911 109.3 191.096 103.108 186.158 100.409C181.22 97.7095 175.029 99.5243 172.329 104.462C169.63 109.401 171.445 115.592 176.383 118.291C181.321 120.991 187.512 119.176 190.212 114.238Z" fill="#A0616A"/>
<path d="M199.033 138.413C198.885 137.07 198.618 135.743 198.235 134.448C197.079 130.549 194.87 127.044 191.85 124.319C190.74 123.323 189.301 122.773 187.81 122.775H173.455C172.423 122.772 171.408 123.034 170.507 123.535C169.605 124.036 168.847 124.76 168.304 125.638C167.762 126.516 167.454 127.518 167.409 128.548C167.364 129.579 167.584 130.604 168.048 131.526L169.687 134.805L173.011 141.451L173.808 143.043L177.362 150.155L177.644 150.718L195.686 155.681L195.764 155.508C195.832 155.355 195.899 155.205 195.964 155.056C196.062 154.829 196.161 154.608 196.253 154.384C198.072 150.07 198.931 146.23 199.138 142.85C199.231 141.37 199.196 139.886 199.033 138.413Z" fill="#ADC6FF"/>
<path d="M176.059 124.635C174.731 124.013 173.211 123.942 171.831 124.438C170.451 124.935 169.324 125.957 168.696 127.283L167.416 129.214L163.139 135.67C162.981 135.91 162.875 136.181 162.831 136.465C162.786 136.749 162.803 137.039 162.881 137.316C162.959 137.592 163.095 137.849 163.281 138.068C163.467 138.287 163.697 138.464 163.958 138.586L164.209 138.705L172.508 142.588L173.099 142.863C173.321 142.968 173.562 143.029 173.808 143.043C174.136 143.069 174.465 143.012 174.765 142.877C175.027 142.76 175.261 142.587 175.45 142.372C175.639 142.156 175.78 141.902 175.862 141.628L178.734 132.018C179.357 130.684 179.425 129.157 178.923 127.773C178.422 126.389 177.392 125.26 176.059 124.635Z" fill="#ADC6FF"/>
<path d="M196.252 154.384C196.192 154.173 196.094 153.974 195.964 153.797C195.5 153.175 194.945 152.625 194.318 152.168L194.314 152.164C192.132 150.511 187.787 148.58 179.406 148.529H179.392C179.008 148.528 178.632 148.639 178.309 148.846C177.985 149.054 177.729 149.35 177.569 149.7L177.362 150.155L176.028 153.087C175.915 153.34 175.736 153.557 175.509 153.715C174.304 154.567 170.468 157.656 168.486 163.556C168.414 163.766 168.346 163.98 168.282 164.201C176.758 166.677 185.776 166.596 194.206 163.967L194.392 163.196L196.246 155.552L196.276 155.426C196.36 155.083 196.352 154.723 196.252 154.384Z" fill="#2F2E41"/>
<path d="M170.563 102.941C172.892 104.546 175.655 105.4 178.483 105.388C177.475 106.088 176.326 106.56 175.117 106.773C178.877 107.58 182.763 107.602 186.532 106.837C187.37 106.703 188.178 106.426 188.922 106.017C189.292 105.81 189.615 105.527 189.869 105.187C190.123 104.848 190.303 104.458 190.397 104.044C190.647 102.613 189.533 101.314 188.374 100.437C186.6 99.1167 184.555 98.2067 182.386 97.7733C180.217 97.3399 177.98 97.394 175.834 97.9317C174.434 98.2938 173.03 98.9055 172.12 100.03C171.211 101.155 170.941 102.89 171.808 104.048L170.563 102.941Z" fill="#2F2E41"/>
<path d="M184.62 10.3462H0.532471V11.084H184.62V10.3462Z" fill="#3F3D56"/>
<path d="M6.80406 7.74898C8.02653 7.74898 9.01753 6.75797 9.01753 5.5355C9.01753 4.31303 8.02653 3.32202 6.80406 3.32202C5.58158 3.32202 4.59058 4.31303 4.59058 5.5355C4.59058 6.75797 5.58158 7.74898 6.80406 7.74898Z" fill="#3F3D56"/>
<path d="M13.1676 7.74898C14.3901 7.74898 15.3811 6.75797 15.3811 5.5355C15.3811 4.31303 14.3901 3.32202 13.1676 3.32202C11.9451 3.32202 10.9541 4.31303 10.9541 5.5355C10.9541 6.75797 11.9451 7.74898 13.1676 7.74898Z" fill="#3F3D56"/>
<path d="M19.5316 7.74898C20.7541 7.74898 21.7451 6.75797 21.7451 5.5355C21.7451 4.31303 20.7541 3.32202 19.5316 3.32202C18.3091 3.32202 17.3181 4.31303 17.3181 5.5355C17.3181 6.75797 18.3091 7.74898 19.5316 7.74898Z" fill="#3F3D56"/>
<path d="M144.752 53.1649H40.2702C39.9592 53.1649 39.6513 53.1037 39.3641 52.9847C39.0768 52.8657 38.8158 52.6913 38.5959 52.4714C38.376 52.2515 38.2016 51.9905 38.0826 51.7032C37.9636 51.4159 37.9023 51.108 37.9023 50.797C37.9023 50.4861 37.9636 50.1782 38.0826 49.8909C38.2016 49.6036 38.376 49.3426 38.5959 49.1227C38.8158 48.9028 39.0768 48.7284 39.3641 48.6094C39.6513 48.4904 39.9592 48.4292 40.2702 48.4292H144.752C145.063 48.4292 145.371 48.4904 145.658 48.6094C145.945 48.7284 146.206 48.9028 146.426 49.1227C146.646 49.3426 146.82 49.6036 146.939 49.8909C147.058 50.1782 147.12 50.4861 147.12 50.797C147.12 51.108 147.058 51.4159 146.939 51.7032C146.82 51.9905 146.646 52.2515 146.426 52.4714C146.206 52.6913 145.945 52.8657 145.658 52.9847C145.371 53.1037 145.063 53.1649 144.752 53.1649Z" fill="#CCCCCC"/>
<path d="M144.752 78.6194H40.2702C39.9592 78.6194 39.6513 78.5581 39.3641 78.4391C39.0768 78.3201 38.8158 78.1457 38.5959 77.9258C38.376 77.706 38.2016 77.4449 38.0826 77.1577C37.9636 76.8704 37.9023 76.5625 37.9023 76.2515C37.9023 75.9406 37.9636 75.6327 38.0826 75.3454C38.2016 75.0581 38.376 74.7971 38.5959 74.5772C38.8158 74.3573 39.0768 74.1829 39.3641 74.0639C39.6513 73.9449 39.9592 73.8837 40.2702 73.8837H144.752C145.063 73.8837 145.371 73.9449 145.658 74.0639C145.945 74.1829 146.206 74.3573 146.426 74.5772C146.646 74.7971 146.82 75.0581 146.939 75.3454C147.058 75.6327 147.12 75.9406 147.12 76.2515C147.12 76.5625 147.058 76.8704 146.939 77.1577C146.82 77.4449 146.646 77.706 146.426 77.9258C146.206 78.1457 145.945 78.3201 145.658 78.4391C145.371 78.5581 145.063 78.6194 144.752 78.6194Z" fill="#E6E6E6"/>
<path d="M144.752 88.3868H40.2702C39.6422 88.3868 39.0399 88.1374 38.5959 87.6933C38.1518 87.2492 37.9023 86.647 37.9023 86.019C37.9023 85.391 38.1518 84.7887 38.5959 84.3447C39.0399 83.9006 39.6422 83.6511 40.2702 83.6511H144.752C145.38 83.6511 145.982 83.9006 146.426 84.3447C146.87 84.7887 147.12 85.391 147.12 86.019C147.12 86.647 146.87 87.2492 146.426 87.6933C145.982 88.1374 145.38 88.3868 144.752 88.3868Z" fill="#E6E6E6"/>
<path d="M127.733 43.1016H57.2892C56.6612 43.1016 56.059 42.8521 55.6149 42.408C55.1709 41.964 54.9214 41.3617 54.9214 40.7337C54.9214 40.1057 55.1709 39.5034 55.6149 39.0594C56.059 38.6153 56.6612 38.3658 57.2892 38.3658H127.733C128.361 38.3658 128.963 38.6153 129.407 39.0594C129.851 39.5034 130.101 40.1057 130.101 40.7337C130.101 41.3617 129.851 41.964 129.407 42.408C128.963 42.8521 128.361 43.1016 127.733 43.1016Z" fill="#CCCCCC"/>
<path d="M77.1049 68.852H40.4032C40.092 68.8524 39.7838 68.7914 39.4962 68.6726C39.2086 68.5538 38.9472 68.3794 38.727 68.1595C38.5068 67.9396 38.3322 67.6784 38.213 67.391C38.0938 67.1035 38.0325 66.7954 38.0325 66.4842C38.0325 66.173 38.0938 65.8649 38.213 65.5774C38.3322 65.2899 38.5068 65.0288 38.727 64.8089C38.9472 64.5889 39.2086 64.4146 39.4962 64.2958C39.7838 64.1769 40.092 64.116 40.4032 64.1163H77.1049C77.7329 64.1163 78.3352 64.3658 78.7792 64.8099C79.2233 65.2539 79.4728 65.8562 79.4728 66.4842C79.4728 67.1122 79.2233 67.7145 78.7792 68.1585C78.3352 68.6026 77.7329 68.852 77.1049 68.852Z" fill="#E6E6E6"/>
<path d="M144.885 68.852H108.183C107.872 68.8524 107.564 68.7914 107.276 68.6726C106.988 68.5538 106.727 68.3794 106.507 68.1595C106.287 67.9396 106.112 67.6784 105.993 67.391C105.874 67.1035 105.812 66.7954 105.812 66.4842C105.812 66.173 105.874 65.8649 105.993 65.5774C106.112 65.2899 106.287 65.0288 106.507 64.8089C106.727 64.5889 106.988 64.4146 107.276 64.2958C107.564 64.1769 107.872 64.116 108.183 64.1163H144.885C145.196 64.116 145.504 64.1769 145.792 64.2958C146.079 64.4146 146.341 64.5889 146.561 64.8089C146.781 65.0288 146.956 65.2899 147.075 65.5774C147.194 65.8649 147.255 66.173 147.255 66.4842C147.255 66.7954 147.194 67.1035 147.075 67.391C146.956 67.6784 146.781 67.9396 146.561 68.1595C146.341 68.3794 146.079 68.5538 145.792 68.6726C145.504 68.7914 145.196 68.8524 144.885 68.852Z" fill="#E6E6E6"/>
<path d="M182.406 0H2.74365C2.05918 0.00104131 1.40308 0.273642 0.919392 0.757956C0.435708 1.24227 0.163969 1.89872 0.163818 2.5832V124.326C0.164681 125.01 0.436759 125.666 0.920386 126.149C1.40401 126.633 2.05971 126.905 2.74365 126.906H137.094C137.06 126.661 137.032 126.414 137.005 126.169H2.74365C2.25493 126.169 1.78636 125.974 1.44078 125.629C1.09519 125.283 0.900842 124.815 0.900393 124.326V2.5832C0.900711 2.09412 1.09491 1.62513 1.44042 1.27899C1.78594 0.932849 2.25458 0.737803 2.74365 0.7366H182.406C182.896 0.737112 183.365 0.931826 183.712 1.27802C184.058 1.62421 184.252 2.09361 184.253 2.5832V77.1972C184.497 77.2141 184.745 77.2345 184.99 77.2582V2.5832C184.989 1.89818 184.717 1.24131 184.233 0.756941C183.748 0.272569 183.091 0.000314809 182.406 0Z" fill="#3F3D56"/>
<path d="M137.094 126.906C137.06 126.661 137.033 126.414 137.005 126.169C136.999 126.132 136.995 126.098 136.992 126.061C136.893 125.168 136.822 124.266 136.778 123.355C136.591 124.139 136.423 124.927 136.272 125.718C136.282 125.833 136.293 125.945 136.306 126.061C136.31 126.098 136.313 126.132 136.32 126.169C136.347 126.414 136.374 126.661 136.408 126.906C136.503 127.663 136.619 128.41 136.754 129.153C136.758 129.122 136.761 129.095 136.764 129.065C136.859 128.348 136.968 127.636 137.097 126.923C137.094 126.918 137.093 126.912 137.094 126.906ZM184.99 76.576C184.745 76.5522 184.497 76.5318 184.253 76.5148C184.216 76.5115 184.182 76.5115 184.144 76.5081C183.058 76.4266 181.958 76.3859 180.852 76.3859C174.587 76.3878 168.391 77.7032 162.666 80.2473C156.94 82.7913 151.812 86.5075 147.611 91.1559C143.411 95.8044 140.231 101.282 138.278 107.235C136.325 113.188 135.642 119.484 136.272 125.718C136.282 125.833 136.293 125.945 136.306 126.061C136.31 126.098 136.313 126.132 136.32 126.169C136.347 126.414 136.374 126.661 136.408 126.906C136.503 127.663 136.619 128.41 136.754 129.153C138.103 136.523 141.27 143.44 145.969 149.275C150.668 155.111 156.75 159.681 163.662 162.572C164.368 162.864 165.081 163.142 165.804 163.396C166.279 163.57 166.755 163.729 167.237 163.882C167.583 163.994 167.932 164.099 168.282 164.201C168.778 164.347 169.28 164.486 169.786 164.615C175.99 166.207 182.465 166.443 188.769 165.308C195.072 164.173 201.058 161.693 206.317 158.037H206.321C212.285 153.919 217.16 148.415 220.529 141.997C223.897 135.58 225.657 128.441 225.659 121.193C225.659 97.8797 207.763 78.6703 184.99 76.576ZM206.025 157.415C203.951 158.864 201.756 160.13 199.464 161.2C197.817 161.971 196.123 162.638 194.392 163.196C186.583 165.709 178.229 165.999 170.264 164.035C169.667 163.889 169.074 163.729 168.486 163.556C167.905 163.386 167.331 163.206 166.761 163.016C166.296 162.857 165.831 162.694 165.37 162.521C164.888 162.337 164.412 162.147 163.937 161.95C156.789 158.972 150.548 154.169 145.838 148.022C141.128 141.875 138.114 134.6 137.097 126.923C137.094 126.918 137.093 126.912 137.094 126.906C137.06 126.661 137.033 126.414 137.005 126.169C136.999 126.132 136.995 126.098 136.992 126.061C136.893 125.168 136.822 124.266 136.778 123.355C136.741 122.639 136.723 121.918 136.724 121.193C136.736 109.493 141.39 98.2766 149.663 90.0037C157.935 81.7309 169.152 77.0776 180.852 77.0648C181.958 77.0648 183.058 77.1055 184.144 77.187C184.182 77.1903 184.216 77.1937 184.253 77.1971C184.498 77.2141 184.745 77.2345 184.99 77.2582C207.39 79.3492 224.98 98.2531 224.98 121.193C224.979 128.312 223.254 135.325 219.954 141.633C216.653 147.941 211.874 153.356 206.025 157.415ZM165.37 162.521C164.888 162.337 164.412 162.147 163.937 161.95C156.789 158.972 150.548 154.169 145.838 148.022C141.128 141.875 138.114 134.6 137.097 126.923C136.968 127.636 136.86 128.348 136.764 129.065C136.761 129.095 136.758 129.122 136.754 129.153C138.103 136.523 141.27 143.44 145.969 149.275C150.668 155.111 156.75 159.681 163.662 162.572C164.368 162.864 165.081 163.142 165.804 163.396C165.655 163.108 165.509 162.816 165.37 162.521ZM184.144 76.5081C183.058 76.4266 181.958 76.3859 180.852 76.3859C174.586 76.3878 168.391 77.7032 162.666 80.2473C156.94 82.7913 151.812 86.5075 147.611 91.1559C143.411 95.8044 140.231 101.282 138.278 107.235C136.325 113.188 135.642 119.484 136.272 125.718C136.282 125.833 136.293 125.945 136.306 126.061C136.31 126.098 136.313 126.132 136.32 126.169H137.005C136.999 126.132 136.995 126.098 136.992 126.061C136.893 125.168 136.822 124.266 136.778 123.355C136.741 122.639 136.723 121.918 136.724 121.193C136.736 109.493 141.39 98.2766 149.663 90.0037C157.935 81.7309 169.152 77.0776 180.852 77.0648C181.958 77.0648 183.058 77.1055 184.144 77.187C184.182 77.1903 184.216 77.1937 184.253 77.1971V76.5148C184.216 76.5115 184.182 76.5115 184.144 76.5081H184.144Z" fill="#3F3D56"/>
<path d="M217.273 87.8547C231.035 88.0898 231.033 108.561 217.272 108.794C203.51 108.559 203.512 88.0878 217.273 87.8547Z" fill="#ADC6FF"/>
<path d="M217.273 104.025C217.078 104.025 216.89 103.948 216.753 103.81C216.615 103.672 216.537 103.485 216.537 103.29V99.3883C216.537 99.3014 216.502 99.218 216.441 99.1565C216.379 99.095 216.296 99.0604 216.209 99.0603H212.308C212.112 99.0603 211.925 98.9828 211.787 98.8448C211.649 98.7068 211.572 98.5196 211.572 98.3244C211.572 98.1293 211.649 97.9421 211.787 97.8041C211.925 97.666 212.112 97.5885 212.308 97.5885H216.209C216.296 97.5885 216.379 97.5539 216.441 97.4924C216.502 97.431 216.537 97.3477 216.537 97.2607V93.3593C216.537 93.1642 216.614 92.977 216.752 92.839C216.89 92.7011 217.077 92.6235 217.273 92.6235C217.468 92.6235 217.655 92.7011 217.793 92.839C217.931 92.977 218.008 93.1642 218.008 93.3593V97.2607C218.008 97.3477 218.043 97.431 218.104 97.4924C218.166 97.5539 218.249 97.5884 218.336 97.5885H222.237C222.433 97.5885 222.62 97.666 222.758 97.8041C222.896 97.9421 222.973 98.1292 222.973 98.3244C222.973 98.5196 222.896 98.7068 222.758 98.8448C222.62 98.9828 222.433 99.0603 222.237 99.0603H218.336C218.249 99.0604 218.166 99.095 218.104 99.1565C218.043 99.218 218.008 99.3013 218.008 99.3883V103.29C218.008 103.485 217.93 103.672 217.793 103.81C217.655 103.947 217.468 104.025 217.273 104.025Z" fill="white"/>
</g>
<defs>
<clipPath id="clip0">
<rect width="234.672" height="166" fill="white" transform="translate(0.163818)"/>
</clipPath>
</defs>
</svg>
