<svg width="14" height="14" viewBox="0 0 14 14" fill="none" xmlns="http://www.w3.org/2000/svg">
<path d="M1 2C1.13132 2 1.26136 1.97413 1.38268 1.92388C1.50401 1.87362 1.61425 1.79997 1.70711 1.70711C1.79997 1.61425 1.87362 1.50401 1.92388 1.38268C1.97413 1.26136 2 1.13132 2 1H1L1 2Z" fill="#262626"/>
<path d="M6 1C6 1.13132 5.97413 1.26136 5.92388 1.38268C5.87362 1.50401 5.79997 1.61425 5.70711 1.70711C5.61425 1.79997 5.50401 1.87362 5.38268 1.92388C5.26136 1.97413 5.13132 2 5 2C4.86868 2 4.73864 1.97413 4.61732 1.92388C4.49599 1.87362 4.38575 1.79997 4.29289 1.70711C4.20003 1.61425 4.12638 1.50401 4.07612 1.38268C4.02587 1.26136 4 1.13132 4 1L5 1H6Z" fill="#262626"/>
<path d="M10 1C10 1.13132 9.97413 1.26136 9.92388 1.38268C9.87362 1.50401 9.79997 1.61425 9.70711 1.70711C9.61425 1.79997 9.50401 1.87362 9.38268 1.92388C9.26136 1.97413 9.13132 2 9 2C8.86868 2 8.73864 1.97413 8.61732 1.92388C8.49599 1.87362 8.38575 1.79997 8.29289 1.70711C8.20003 1.61425 8.12638 1.50401 8.07612 1.38268C8.02587 1.26136 8 1.13132 8 1L9 1H10Z" fill="#262626"/>
<path d="M12 1C12 1.13132 12.0259 1.26136 12.0761 1.38268C12.1264 1.50401 12.2 1.61425 12.2929 1.70711C12.3858 1.79997 12.496 1.87362 12.6173 1.92388C12.7386 1.97413 12.8687 2 13 2L13 1L12 1Z" fill="#262626"/>
<circle cx="2.5" cy="4" r="1" fill="#262626"/>
<circle cx="7" cy="4" r="1" fill="#262626"/>
<circle cx="11.5" cy="4" r="1" fill="#262626"/>
<path d="M1 8C1.26522 8 1.51957 7.89464 1.70711 7.70711C1.89464 7.51957 2 7.26522 2 7C2 6.73478 1.89464 6.48043 1.70711 6.29289C1.51957 6.10536 1.26522 6 1 6L1 7L1 8Z" fill="#262626"/>
<circle cx="5" cy="7" r="1" fill="#262626"/>
<circle cx="9" cy="7" r="1" fill="#262626"/>
<path d="M13 6C12.7348 6 12.4804 6.10536 12.2929 6.29289C12.1054 6.48043 12 6.73478 12 7C12 7.26522 12.1054 7.51957 12.2929 7.70711C12.4804 7.89464 12.7348 8 13 8L13 7V6Z" fill="#262626"/>
<circle cx="2.5" cy="10" r="1" fill="#262626"/>
<circle cx="7" cy="10" r="1" fill="#262626"/>
<circle cx="11.5" cy="10" r="1" fill="#262626"/>
<path d="M1.82539 13.5646C1.94881 13.3841 2.0097 13.1682 1.99874 12.9499C1.98779 12.7316 1.9056 12.5229 1.76476 12.3557C1.62391 12.1885 1.43216 12.0721 1.21887 12.0242C1.00557 11.9764 0.782466 11.9998 0.583709 12.0908L1 13L1.82539 13.5646Z" fill="#262626"/>
<path d="M6 13C6 12.7348 5.89464 12.4804 5.70711 12.2929C5.51957 12.1054 5.26522 12 5 12C4.73478 12 4.48043 12.1054 4.29289 12.2929C4.10536 12.4804 4 12.7348 4 13L5 13H6Z" fill="#262626"/>
<path d="M10 13C10 12.8587 9.97005 12.719 9.91212 12.5901C9.8542 12.4612 9.76961 12.346 9.66394 12.2522C9.55827 12.1584 9.43391 12.088 9.29906 12.0458C9.16422 12.0035 9.02195 11.9903 8.88163 12.007C8.74131 12.0238 8.60613 12.07 8.485 12.1428C8.36386 12.2156 8.25953 12.3132 8.17888 12.4292C8.09822 12.5453 8.04308 12.6771 8.01707 12.816C7.99107 12.9549 7.9948 13.0977 8.02802 13.2351L9 13H10Z" fill="#262626"/>
<path d="M13.415 12.0902C13.235 12.0081 13.0348 11.9812 12.8395 12.013C12.6443 12.0447 12.4629 12.1336 12.3182 12.2685C12.1735 12.4033 12.0721 12.578 12.0267 12.7705C11.9813 12.963 11.994 13.1647 12.0632 13.3499L13 13L13.415 12.0902Z" fill="#262626"/>
</svg>
