<?xml version="1.0" encoding="UTF-8" standalone="no"?>
<!DOCTYPE svg PUBLIC "-//W3C//DTD SVG 1.1//EN" "http://www.w3.org/Graphics/SVG/1.1/DTD/svg11.dtd">
<svg xmlns="http://www.w3.org/2000/svg" version="1.1" width="214.5863pt" height="213.8669pt" viewBox="0 0 214.5863 213.8669">
<g enable-background="new">
<clipPath id="cp0">
<path transform="matrix(1,0,0,-1,-283.0661,408.9921)" d="M 0 612 L 792 612 L 792 .06 L 0 .06 Z "/>
</clipPath>
<g clip-path="url(#cp0)">
<clipPath id="cp1">
<path transform="matrix(1,0,0,-1,-283.0661,408.9921)" d="M 0 0 L 792 0 L 792 612 L 0 612 Z "/>
</clipPath>
<g clip-path="url(#cp1)">
<path transform="matrix(1,0,0,-1,-283.0661,408.9921)" d="M 0 612 L 792 612 L 792 .06 L 0 .06 Z " fill="#ffffff" opacity="0"/>
</g>
</g>
<clipPath id="cp2">
<path transform="matrix(1,0,0,-1,-283.0661,408.9921)" d="M 0 0 L 792 0 L 792 612 L 0 612 Z "/>
</clipPath>
<g clip-path="url(#cp2)">
<path transform="matrix(1,0,0,-1,-283.0661,408.9921)" d="M 433.182 304.969 C 434.112 301.035 434.595 297.032 434.595 293.037 C 434.595 264.062 411.023 240.488 382.044 240.488 C 353.061 240.488 329.481 264.062 329.481 293.037 C 329.481 322.018 353.061 345.589 382.044 345.589 C 386.158 345.589 390.25 345.081 394.251 344.122 C 394.733 345.637 395.303 347.132 396.026 348.577 C 397.097 350.738 398.496 352.702 400.037 354.56 C 394.125 356.3 388.086 357.234 382.044 357.234 C 346.647 357.234 317.844 328.438 317.844 293.037 C 317.844 257.646 346.647 228.848 382.044 228.848 C 417.439 228.848 446.232 257.646 446.232 293.037 C 446.232 298.984 445.344 304.903 443.675 310.684 C 441.867 309.193 439.941 307.83 437.799 306.764 C 436.328 306.029 434.775 305.447 433.182 304.969 " fill="#585a5c"/>
<path transform="matrix(1,0,0,-1,-283.0661,408.9921)" d="M 399.9 309.305 C 399.514 309.741 399.109 310.161 398.686 310.561 C 394.849 314.196 389.68 316.438 383.978 316.438 C 372.149 316.438 362.559 306.853 362.559 295.02 C 362.559 283.194 372.149 273.607 383.978 273.607 C 395.804 273.607 405.39 283.194 405.39 295.02 C 405.39 300.517 403.303 305.514 399.9 309.305 " fill="#25a9e1"/>
<path transform="matrix(1,0,0,-1,-283.0661,408.9921)" d="M 451.853 359.874 C 451.415 360.265 451.022 360.687 450.641 361.134 L 436.397 347.265 C 433.38 349.967 429.443 351.656 425.08 351.656 C 415.682 351.656 408.053 344.033 408.053 334.627 C 408.053 330.431 409.633 326.638 412.151 323.669 L 398.686 310.561 C 399.109 310.161 399.514 309.741 399.9 309.305 L 413.316 322.364 C 416.376 319.431 420.508 317.602 425.08 317.602 C 434.483 317.602 442.106 325.228 442.106 334.627 C 442.106 339.034 440.385 343.014 437.64 346.039 L 451.853 359.874 " fill="#fbb041"/>
<path transform="matrix(1,0,0,-1,-283.0661,408.9921)" d="M 460.777 383.153 C 453.391 383.153 447.397 377.163 447.397 369.772 C 447.397 366.464 448.646 363.471 450.641 361.134 C 451.022 360.687 451.415 360.265 451.853 359.874 C 454.224 357.735 457.336 356.395 460.777 356.395 C 468.163 356.395 474.156 362.386 474.156 369.772 C 474.156 377.163 468.163 383.153 460.777 383.153 " fill="#ae509e"/>
</g>
</g>
</svg>
