<?xml version="1.0" encoding="iso-8859-1"?>
<!-- Generator: Adobe Illustrator 23.0.3, SVG Export Plug-In . SVG Version: 6.00 Build 0)  -->
<svg version="1.1" xmlns="http://www.w3.org/2000/svg" xmlns:xlink="http://www.w3.org/1999/xlink" x="0px" y="0px"
	 width="617.288px" height="278.745px" viewBox="0 0 617.288 278.745" style="enable-background:new 0 0 617.288 278.745;"
	 xml:space="preserve">
<g id="Layer_4">
	<g>
		<path style="fill:#5E5E5E;" d="M44.333,145.917H2.569c-1.293,0-2.341-1.048-2.341-2.341V71.063c0-1.293,1.048-2.341,2.341-2.341
			h1.078c1.293,0,2.341,1.048,2.341,2.341v66.873c0,1.293,1.048,2.341,2.341,2.341h36.003c1.293,0,2.341,1.048,2.341,2.341v0.957
			C46.674,144.869,45.626,145.917,44.333,145.917z"/>
		<path style="fill:#5E5E5E;" d="M91.063,147.327c-3.889,0-7.418-0.646-10.586-1.939c-3.169-1.292-5.894-3.173-8.173-5.64
			c-2.281-2.467-4.045-5.487-5.293-9.059c-1.249-3.571-1.872-7.637-1.872-12.196c0-4.417,0.6-8.401,1.8-11.95
			c1.199-3.548,2.904-6.556,5.113-9.024c2.208-2.467,4.825-4.359,7.849-5.675c3.024-1.316,6.384-1.974,10.081-1.974
			c3.792,0,7.225,0.659,10.298,1.974c3.072,1.316,5.689,3.208,7.849,5.675s3.817,5.476,4.968,9.024
			c1.152,3.549,1.729,7.555,1.729,12.02l0,0c0,0.701-0.568,1.269-1.269,1.269l-40.047,0c-1.468,0-2.529,1.199-2.324,2.652
			c0.368,2.616,0.969,4.952,1.802,7.006c1.104,2.726,2.544,4.995,4.32,6.803c1.775,1.81,3.828,3.162,6.158,4.054
			c2.327,0.893,4.861,1.339,7.597,1.339c1.919,0,3.84-0.223,5.761-0.67c1.919-0.446,3.66-1.116,5.221-2.009
			c1.559-0.892,2.868-1.997,3.925-3.313c0.704-0.877,1.216-1.838,1.536-2.882c0.304-0.993,1.279-1.629,2.317-1.629h0.609
			c1.609,0,2.777,1.599,2.215,3.106c-0.505,1.354-1.146,2.61-1.924,3.767c-1.345,1.998-3.001,3.69-4.969,5.076
			c-1.969,1.387-4.201,2.432-6.697,3.137C96.559,146.975,93.894,147.327,91.063,147.327z M106.156,114.193
			c1.519,0,2.626-1.425,2.278-2.903c-1.134-4.816-3.119-8.525-5.957-11.126c-3.384-3.102-7.55-4.653-12.494-4.653
			c-2.448,0-4.729,0.377-6.841,1.128c-2.113,0.752-3.996,1.903-5.652,3.454c-1.657,1.551-3.049,3.502-4.177,5.851
			c-0.766,1.596-1.383,3.375-1.85,5.338c-0.352,1.48,0.754,2.91,2.276,2.91L106.156,114.193z"/>
		<path style="fill:#5E5E5E;" d="M177.998,94.468l-19.357,49.954c-0.349,0.901-1.217,1.495-2.183,1.495h-1.977
			c-0.967,0-1.834-0.594-2.183-1.495l-19.357-49.954c-0.595-1.535,0.538-3.187,2.183-3.187h0.804c0.97,0,1.84,0.599,2.187,1.505
			l15.173,39.67c0.767,2.005,3.603,2.007,4.373,0.003l15.236-39.676c0.347-0.905,1.217-1.502,2.186-1.502h0.733
			C177.46,91.281,178.593,92.934,177.998,94.468z"/>
		<path style="fill:#5E5E5E;" d="M222.038,147.327c-3.889,0-7.418-0.646-10.586-1.939c-3.169-1.292-5.894-3.173-8.173-5.64
			c-2.281-2.467-4.045-5.487-5.293-9.059c-1.249-3.571-1.872-7.637-1.872-12.196c0-4.417,0.6-8.401,1.8-11.95
			c1.199-3.548,2.904-6.556,5.113-9.024c2.208-2.467,4.825-4.359,7.849-5.675c3.025-1.316,6.384-1.974,10.081-1.974
			c3.792,0,7.225,0.659,10.298,1.974c3.072,1.316,5.689,3.208,7.849,5.675s3.817,5.476,4.968,9.024
			c1.152,3.549,1.729,7.555,1.729,12.02l0,0c0,0.701-0.568,1.269-1.269,1.269l-40.047,0c-1.468,0-2.529,1.199-2.324,2.652
			c0.368,2.616,0.969,4.952,1.802,7.006c1.104,2.726,2.544,4.995,4.32,6.803c1.775,1.81,3.828,3.162,6.158,4.054
			c2.327,0.893,4.861,1.339,7.597,1.339c1.919,0,3.84-0.223,5.761-0.67c1.919-0.446,3.66-1.116,5.221-2.009
			c1.559-0.892,2.868-1.997,3.925-3.313c0.704-0.877,1.216-1.838,1.536-2.882c0.304-0.993,1.279-1.629,2.317-1.629h0.609
			c1.609,0,2.777,1.599,2.215,3.106c-0.505,1.354-1.146,2.61-1.924,3.767c-1.345,1.998-3.001,3.69-4.969,5.076
			c-1.969,1.387-4.201,2.432-6.697,3.137C227.534,146.975,224.869,147.327,222.038,147.327z M237.131,114.193
			c1.519,0,2.626-1.425,2.278-2.903c-1.134-4.816-3.119-8.525-5.957-11.126c-3.384-3.102-7.55-4.653-12.494-4.653
			c-2.448,0-4.729,0.377-6.841,1.128c-2.113,0.752-3.996,1.903-5.652,3.454c-1.657,1.551-3.049,3.502-4.177,5.851
			c-0.766,1.596-1.383,3.375-1.85,5.338c-0.352,1.48,0.754,2.91,2.276,2.91L237.131,114.193z"/>
		<path style="fill:#5E5E5E;" d="M272.221,145.917h-1.078c-1.293,0-2.341-1.048-2.341-2.341V71.063c0-1.293,1.048-2.341,2.341-2.341
			h1.078c1.293,0,2.341,1.048,2.341,2.341v72.513C274.563,144.869,273.514,145.917,272.221,145.917z"/>
		<path style="fill:#5E5E5E;" d="M335.009,67.311c5.376,0,10.345,0.941,14.906,2.82c4.561,1.88,8.485,4.559,11.774,8.037
			c3.288,3.479,5.857,7.662,7.706,12.549c1.847,4.889,2.772,10.34,2.772,16.356c0,5.969-0.913,11.421-2.736,16.356
			c-1.825,4.935-4.381,9.177-7.67,12.725c-3.288,3.549-7.201,6.298-11.737,8.248c-4.537,1.95-9.542,2.926-15.015,2.926
			s-10.49-0.976-15.051-2.926c-4.561-1.95-8.486-4.688-11.773-8.213c-3.289-3.525-5.846-7.755-7.67-12.69
			c-1.825-4.935-2.736-10.41-2.736-16.426c0-6.063,0.924-11.537,2.772-16.426c1.848-4.888,4.429-9.059,7.742-12.514
			c3.313-3.454,7.237-6.121,11.774-8.002C324.604,68.252,329.584,67.311,335.009,67.311z M334.937,141.687
			c4.512,0,8.677-0.764,12.494-2.291c3.817-1.527,7.117-3.772,9.902-6.733c2.783-2.961,4.944-6.592,6.481-10.892
			c1.536-4.301,2.305-9.2,2.305-14.699c0-5.545-0.781-10.434-2.341-14.663c-1.561-4.23-3.721-7.79-6.481-10.681
			c-2.761-2.891-6.026-5.076-9.794-6.556c-3.769-1.481-7.885-2.221-12.349-2.221c-4.562,0-8.75,0.752-12.566,2.256
			c-3.817,1.505-7.118,3.701-9.902,6.592c-2.785,2.891-4.958,6.451-6.517,10.681c-1.561,4.23-2.341,9.095-2.341,14.593
			c0,5.499,0.767,10.399,2.305,14.699c1.536,4.3,3.683,7.931,6.445,10.892c2.76,2.961,6.049,5.206,9.866,6.733
			C326.259,140.924,330.424,141.687,334.937,141.687z"/>
		<path style="fill:#5E5E5E;" d="M400.641,95.216c0,1.435,1.73,2.193,2.762,1.195c0.858-0.829,1.701-1.552,2.531-2.17
			c1.704-1.269,3.348-2.232,4.933-2.89c1.585-0.658,3.108-1.081,4.573-1.269c1.464-0.187,2.892-0.282,4.285-0.282
			c3.456,0,6.528,0.682,9.217,2.045c2.688,1.364,4.944,3.278,6.77,5.746c1.824,2.467,3.216,5.44,4.176,8.918
			c0.96,3.478,1.44,7.332,1.44,11.562c0,4.466-0.564,8.495-1.693,12.091s-2.689,6.662-4.68,9.2
			c-1.992,2.538-4.345,4.501-7.057,5.887c-2.713,1.386-5.653,2.08-8.821,2.08c-1.345,0-2.736-0.059-4.177-0.176
			c-1.44-0.117-2.929-0.412-4.465-0.881c-1.537-0.469-3.121-1.163-4.753-2.08c-0.907-0.509-1.828-1.116-2.764-1.821
			c-0.936-0.704-2.276-0.026-2.276,1.145v20.153c0,1.293-1.048,2.341-2.341,2.341h-1.078c-1.293,0-2.341-1.048-2.341-2.341V93.622
			c0-1.293,1.048-2.341,2.341-2.341h1.078c1.293,0,2.341,1.048,2.341,2.341V95.216z M400.641,132.677
			c0,0.623,0.243,1.231,0.689,1.666c5.021,4.896,10.744,7.344,17.169,7.344c2.592,0,4.933-0.504,7.021-1.516
			c2.088-1.01,3.876-2.503,5.365-4.477c1.487-1.974,2.64-4.429,3.456-7.367c0.816-2.937,1.224-6.356,1.224-10.257
			c0-7.425-1.453-13.042-4.356-16.849c-2.906-3.807-6.998-5.711-12.278-5.711c-6.71,0-12.652,3.432-17.823,10.295
			c-0.305,0.405-0.467,0.906-0.467,1.413V132.677z"/>
		<path style="fill:#5E5E5E;" d="M482.259,147.327c-12.395,0-19.689-4.417-21.878-13.25c-0.364-1.47,0.767-2.894,2.282-2.894h1.123
			c1.077,0,1.981,0.744,2.273,1.781c0.692,2.452,2.119,4.432,4.282,5.939c2.665,1.857,6.613,2.785,11.847,2.785
			c2.544,0,4.776-0.27,6.697-0.811c1.919-0.54,3.516-1.269,4.788-2.186c1.272-0.916,2.22-2.009,2.845-3.278
			c0.623-1.269,0.936-2.632,0.936-4.089c0-1.456-0.252-2.702-0.757-3.737c-0.504-1.033-1.416-1.974-2.736-2.82
			c-1.321-0.846-3.121-1.657-5.4-2.432c-2.281-0.775-5.197-1.609-8.75-2.503c-3.025-0.751-5.714-1.527-8.066-2.327
			c-2.353-0.799-4.333-1.785-5.941-2.961c-1.608-1.174-2.821-2.596-3.637-4.265c-0.817-1.668-1.224-3.747-1.224-6.239
			c0-2.161,0.468-4.124,1.405-5.887c0.936-1.762,2.244-3.254,3.925-4.477c1.68-1.221,3.72-2.161,6.121-2.82
			c2.4-0.657,5.065-0.987,7.994-0.987c6.624,0,11.653,1.093,15.086,3.278c2.698,1.718,4.455,4.214,5.269,7.487
			c0.361,1.45-0.793,2.841-2.287,2.841h-1.225c-0.989,0-1.914-0.605-2.21-1.549c-0.611-1.951-1.828-3.444-3.652-4.478
			c-2.28-1.292-5.678-1.939-10.19-1.939c-2.113,0-4.057,0.189-5.833,0.564c-1.777,0.377-3.302,0.929-4.573,1.657
			c-1.273,0.729-2.269,1.646-2.989,2.749c-0.72,1.105-1.081,2.362-1.081,3.772c0,0.8,0.144,1.622,0.433,2.467
			c0.288,0.846,1.02,1.716,2.196,2.609c1.176,0.893,2.94,1.798,5.293,2.714c2.352,0.917,5.568,1.868,9.649,2.855
			c3.216,0.8,6.013,1.634,8.39,2.503c2.377,0.87,4.345,1.904,5.905,3.102c1.559,1.198,2.724,2.597,3.492,4.194
			c0.767,1.599,1.152,3.479,1.152,5.64c0,2.397-0.493,4.642-1.476,6.733c-0.984,2.092-2.377,3.89-4.177,5.393
			c-1.8,1.504-3.996,2.691-6.588,3.56C488.379,146.892,485.474,147.327,482.259,147.327z"/>
	</g>
</g>
<g id="Layer_6">
	<g>
		<path style="fill:#BAB9B9;" d="M19.962,191.95c0,0.349-0.006,0.68-0.018,0.995c-0.012,0.314-0.081,0.837-0.209,1.57
			s-0.309,1.402-0.541,2.007s-0.616,1.28-1.151,2.024c-0.536,0.745-1.158,1.367-1.867,1.867c-0.71,0.5-1.652,0.919-2.827,1.256
			s-2.495,0.506-3.961,0.506c-1.187,0-2.274-0.163-3.263-0.489c-0.989-0.326-1.792-0.733-2.408-1.222
			c-0.617-0.488-1.17-1.087-1.658-1.797c-0.488-0.709-0.85-1.355-1.082-1.937s-0.431-1.227-0.593-1.937
			c-0.163-0.709-0.262-1.215-0.297-1.518c-0.035-0.302-0.064-0.616-0.087-0.942c0-0.046,0-0.081,0-0.105v-14.972h1.71v14.972
			c0,0.233,0.011,0.495,0.035,0.786c0.022,0.291,0.092,0.715,0.209,1.273c0.116,0.559,0.273,1.094,0.471,1.605
			c0.198,0.512,0.494,1.053,0.891,1.623c0.396,0.57,0.86,1.064,1.396,1.483c0.535,0.418,1.222,0.762,2.06,1.029
			c0.837,0.268,1.768,0.401,2.792,0.401c1.209,0,2.297-0.14,3.263-0.419c0.965-0.279,1.745-0.616,2.338-1.012
			c0.594-0.396,1.105-0.896,1.536-1.501c0.43-0.604,0.744-1.152,0.942-1.64c0.197-0.489,0.349-1.047,0.453-1.675
			c0.105-0.628,0.163-1.076,0.175-1.344c0.012-0.267,0.006-0.563-0.018-0.89c0-0.07,0-0.116,0-0.14v-14.553h1.71v14.553
			C19.962,191.834,19.962,191.88,19.962,191.95z"/>
		<path style="fill:#BAB9B9;" d="M28.582,183.993h1.745v3.699c0.651-0.977,1.669-1.908,3.054-2.792
			c1.384-0.884,2.763-1.326,4.136-1.326c0.931,0,1.879,0.187,2.845,0.558c0.965,0.373,1.872,0.896,2.722,1.571
			s1.57,1.553,2.164,2.635c0.593,1.082,0.947,2.274,1.064,3.577c0.232,2.792-0.442,5.224-2.024,7.294
			c-1.582,2.071-3.677,3.106-6.282,3.106c-1,0-1.954-0.157-2.861-0.471c-0.907-0.314-1.682-0.721-2.321-1.222
			c-0.64-0.5-1.146-0.942-1.518-1.326s-0.698-0.773-0.978-1.169v9.178h-1.745V183.993z M30.327,196.278
			c0,0.023,0.093,0.221,0.279,0.593s0.354,0.68,0.506,0.925c0.151,0.244,0.437,0.564,0.855,0.959
			c0.419,0.396,0.866,0.715,1.344,0.96c0.477,0.244,1.122,0.459,1.937,0.646c0.814,0.187,1.722,0.279,2.723,0.279
			c1.488,0,2.774-0.483,3.856-1.448s1.826-2.123,2.233-3.473c0.406-1.349,0.512-2.774,0.313-4.275
			c-0.197-1.5-0.715-2.751-1.553-3.751c-1.094-1.303-2.478-2.123-4.153-2.46c-1.675-0.337-3.28-0.157-4.815,0.541
			c-1.536,0.698-2.711,1.78-3.525,3.246v3.525V196.278z"/>
		<path style="fill:#BAB9B9;" d="M53.081,190.414h9.354v1.954h-9.354V190.414z"/>
		<path style="fill:#BAB9B9;" d="M71.055,200.081h14.379v1.675H71.055h-0.419h-1.291v-24.5h1.71V200.081z"/>
		<path style="fill:#BAB9B9;" d="M86.689,193.556c0.07,0.814,0.244,1.594,0.523,2.338c0.372,0.931,0.89,1.745,1.553,2.443
			c0.663,0.698,1.442,1.245,2.339,1.64c0.896,0.396,1.854,0.593,2.879,0.593c1.047,0,2.024-0.209,2.932-0.628
			c0.581-0.255,1.104-0.57,1.57-0.942v1.954c-0.303,0.163-0.605,0.314-0.907,0.454c-1.117,0.512-2.338,0.768-3.664,0.768
			s-2.543-0.25-3.647-0.75c-1.105-0.5-2.065-1.169-2.879-2.007c-0.814-0.837-1.448-1.814-1.902-2.932
			c-0.453-1.117-0.681-2.303-0.681-3.56v-0.07c0-1.256,0.228-2.443,0.681-3.56c0.454-1.117,1.094-2.105,1.92-2.967
			c0.825-0.86,1.797-1.541,2.914-2.042c1.116-0.5,2.338-0.75,3.664-0.75c0.559,0,1.14,0.093,1.745,0.279
			c0.604,0.187,1.262,0.523,1.972,1.012s1.338,1.088,1.885,1.797c0.546,0.71,1,1.669,1.361,2.879c0.36,1.21,0.528,2.56,0.506,4.049
			H86.689z M93.914,185.144c-1.047,0-2.02,0.204-2.914,0.611c-0.896,0.407-1.664,0.954-2.304,1.64
			c-0.641,0.687-1.135,1.496-1.483,2.426c-0.279,0.698-0.453,1.431-0.523,2.199h12.982c-0.023-0.442-0.197-1.222-0.523-2.338
			c-0.232-0.745-0.535-1.401-0.907-1.972c-0.372-0.57-0.722-1-1.047-1.292c-0.326-0.291-0.722-0.535-1.187-0.733
			c-0.466-0.197-0.809-0.319-1.029-0.366c-0.222-0.046-0.507-0.093-0.855-0.14C94.03,185.157,93.96,185.144,93.914,185.144z"/>
		<path style="fill:#BAB9B9;" d="M106.373,183.993h1.989l6.7,15.809l6.91-15.879l1.955,0.035l-8.063,17.938h-1.466L106.373,183.993z
			"/>
		<path style="fill:#BAB9B9;" d="M130.419,193.556c0.07,0.814,0.244,1.594,0.523,2.338c0.372,0.931,0.89,1.745,1.553,2.443
			c0.663,0.698,1.442,1.245,2.339,1.64c0.896,0.396,1.854,0.593,2.879,0.593c1.047,0,2.024-0.209,2.932-0.628
			c0.581-0.255,1.104-0.57,1.57-0.942v1.954c-0.303,0.163-0.605,0.314-0.907,0.454c-1.117,0.512-2.338,0.768-3.664,0.768
			s-2.543-0.25-3.647-0.75c-1.105-0.5-2.065-1.169-2.879-2.007c-0.814-0.837-1.448-1.814-1.902-2.932
			c-0.453-1.117-0.681-2.303-0.681-3.56v-0.07c0-1.256,0.228-2.443,0.681-3.56c0.454-1.117,1.094-2.105,1.92-2.967
			c0.825-0.86,1.797-1.541,2.914-2.042c1.116-0.5,2.338-0.75,3.664-0.75c0.559,0,1.14,0.093,1.745,0.279
			c0.604,0.187,1.262,0.523,1.972,1.012s1.338,1.088,1.885,1.797c0.546,0.71,1,1.669,1.361,2.879c0.36,1.21,0.528,2.56,0.506,4.049
			H130.419z M137.644,185.144c-1.047,0-2.02,0.204-2.914,0.611c-0.896,0.407-1.664,0.954-2.304,1.64
			c-0.641,0.687-1.135,1.496-1.483,2.426c-0.279,0.698-0.453,1.431-0.523,2.199h12.982c-0.023-0.442-0.197-1.222-0.523-2.338
			c-0.232-0.745-0.535-1.401-0.907-1.972c-0.372-0.57-0.722-1-1.047-1.292c-0.326-0.291-0.722-0.535-1.187-0.733
			c-0.466-0.197-0.809-0.319-1.029-0.366c-0.222-0.046-0.507-0.093-0.855-0.14C137.76,185.157,137.689,185.144,137.644,185.144z"/>
		<path style="fill:#BAB9B9;" d="M155.267,193.8v0.14v0.174c0,0.07-0.013,0.419-0.035,1.047c-0.023,0.628-0.023,1.036,0,1.222
			c0.022,0.187,0.058,0.5,0.104,0.942c0.046,0.442,0.14,0.803,0.279,1.082c0.14,0.279,0.325,0.547,0.559,0.803
			c1.163,1.303,2.932,1.513,5.305,0.628l0.069,1.57c-0.326,0.093-0.541,0.157-0.646,0.192c-0.104,0.035-0.268,0.076-0.488,0.123
			c-0.222,0.046-0.425,0.081-0.611,0.104c-0.187,0.023-0.413,0.041-0.681,0.052s-0.523,0.005-0.768-0.018
			c-0.244-0.023-0.512-0.064-0.803-0.122c-0.291-0.058-0.564-0.145-0.82-0.262c-0.256-0.116-0.529-0.267-0.819-0.454
			c-0.292-0.186-0.564-0.396-0.82-0.628c-0.326-0.302-0.6-0.674-0.82-1.117c-0.222-0.441-0.379-0.89-0.471-1.343
			c-0.094-0.454-0.163-0.925-0.21-1.414c-0.047-0.489-0.064-0.93-0.052-1.326c0.011-0.396,0.005-0.756-0.018-1.082V193.8v-17.52
			h1.745V193.8z"/>
		<path style="fill:#BAB9B9;" d="M183.116,205.247c0.953,0.419,2.059,0.628,3.315,0.628c0.349,0,0.681-0.052,0.994-0.157
			c0.314-0.104,0.6-0.273,0.855-0.506c0.256-0.233,0.482-0.448,0.681-0.646c0.197-0.198,0.384-0.466,0.559-0.803
			c0.174-0.338,0.308-0.6,0.401-0.785c0.093-0.187,0.203-0.442,0.331-0.768c0.128-0.326,0.203-0.5,0.227-0.523l-8.585-17.729h1.989
			l7.329,15.844l6.422-15.844h1.954l-7.573,17.938c-0.512,1.698-1.298,3.042-2.355,4.031c-1.06,0.989-2.193,1.495-3.403,1.518
			c-0.954,0-2.001-0.187-3.141-0.558V205.247z"/>
		<path style="fill:#BAB9B9;" d="M213.444,202.176c-1.326,0-2.543-0.25-3.647-0.75c-1.105-0.5-2.065-1.169-2.879-2.007
			c-0.814-0.837-1.448-1.814-1.902-2.932c-0.453-1.117-0.681-2.303-0.681-3.56v-0.07c0-1.256,0.228-2.443,0.681-3.56
			c0.454-1.117,1.094-2.105,1.92-2.967c0.825-0.86,1.797-1.541,2.914-2.042c1.116-0.5,2.338-0.75,3.664-0.75s2.542,0.25,3.647,0.75
			c1.104,0.5,2.064,1.169,2.879,2.007c0.814,0.837,1.448,1.815,1.902,2.932c0.453,1.117,0.681,2.303,0.681,3.56v0.07
			c0,1.256-0.228,2.443-0.681,3.56c-0.454,1.117-1.095,2.106-1.92,2.967c-0.826,0.861-1.797,1.542-2.914,2.042
			S214.771,202.176,213.444,202.176z M213.514,200.57c1.047,0,2.019-0.204,2.914-0.611c0.896-0.407,1.663-0.954,2.304-1.64
			c0.64-0.686,1.14-1.495,1.501-2.426c0.36-0.93,0.54-1.919,0.54-2.966v-0.07c0-1.07-0.187-2.077-0.558-3.019
			c-0.373-0.942-0.891-1.763-1.554-2.46c-0.663-0.698-1.442-1.245-2.338-1.641c-0.896-0.395-1.855-0.593-2.879-0.593
			c-1.047,0-2.02,0.204-2.914,0.611c-0.896,0.407-1.664,0.954-2.304,1.64c-0.641,0.687-1.141,1.496-1.501,2.426
			c-0.36,0.931-0.541,1.919-0.541,2.966v0.07c0,1.07,0.187,2.077,0.559,3.019c0.372,0.942,0.89,1.762,1.553,2.46
			c0.663,0.698,1.442,1.245,2.339,1.64C211.53,200.373,212.489,200.57,213.514,200.57z"/>
		<path style="fill:#BAB9B9;" d="M244.469,183.958h1.711v17.799h-1.711v-3.036c-1.442,2.303-3.443,3.455-6.002,3.455
			c-2.443,0-4.305-0.675-5.584-2.024c-1.28-1.349-1.92-3.257-1.92-5.724v-10.47h1.71v9.772c0,4.514,2.024,6.794,6.073,6.84
			c2.675,0,4.583-1.523,5.723-4.572V183.958z"/>
		<path style="fill:#BAB9B9;" d="M264.151,185.563c-0.372,0-0.762,0.023-1.169,0.07c-0.407,0.047-0.954,0.215-1.64,0.506
			c-0.687,0.292-1.31,0.681-1.867,1.169c-0.559,0.488-1.111,1.233-1.658,2.233c-0.547,1-0.948,2.187-1.204,3.56v8.655h-1.71v-17.799
			h1.71v3.315v1.605c1.07-2.07,2.28-3.432,3.63-4.083c1.232-0.674,2.535-1.035,3.908-1.082V185.563z"/>
		<path style="fill:#BAB9B9;" d="M306.065,180.677v2.932c-0.278-0.441-0.779-1.047-1.5-1.814c-0.629-0.698-1.35-1.292-2.164-1.78
			c-0.349-0.209-0.722-0.407-1.117-0.593c-1.279-0.581-2.676-0.872-4.188-0.872c-1.513,0-2.902,0.285-4.171,0.855
			c-1.268,0.57-2.361,1.35-3.28,2.338c-0.919,0.989-1.635,2.146-2.146,3.473s-0.768,2.746-0.768,4.258v0.07
			c0,1.513,0.262,2.938,0.785,4.275s1.244,2.501,2.164,3.49c0.919,0.989,2.018,1.774,3.298,2.356
			c1.279,0.582,2.675,0.872,4.188,0.872s2.908-0.291,4.188-0.872c0.349-0.163,0.698-0.337,1.047-0.524
			c0.814-0.488,1.559-1.082,2.233-1.78c0.466-0.535,0.884-1.104,1.257-1.71v2.862c-0.978,1.024-2.142,1.862-3.49,2.513
			c-0.093,0.047-0.187,0.082-0.279,0.104c-1.513,0.698-3.188,1.047-5.025,1.047c-1.861,0-3.542-0.344-5.043-1.03
			s-2.786-1.605-3.856-2.757c-1.07-1.152-1.896-2.483-2.478-3.996c-0.582-1.512-0.873-3.106-0.873-4.781v-0.07
			c0-1.675,0.297-3.274,0.891-4.799c0.593-1.523,1.425-2.867,2.495-4.031c1.069-1.163,2.361-2.088,3.874-2.774
			c1.512-0.686,3.198-1.03,5.06-1.03c1.838,0,3.514,0.349,5.026,1.047c0.069,0.023,0.14,0.047,0.209,0.07
			c1.349,0.652,2.513,1.478,3.49,2.478C305.961,180.573,306.019,180.631,306.065,180.677z"/>
		<path style="fill:#BAB9B9;" d="M316.257,193.8v0.14v0.174c0,0.07-0.013,0.419-0.035,1.047c-0.023,0.628-0.023,1.036,0,1.222
			c0.022,0.187,0.058,0.5,0.104,0.942c0.046,0.442,0.14,0.803,0.279,1.082c0.14,0.279,0.325,0.547,0.559,0.803
			c1.163,1.303,2.932,1.513,5.305,0.628l0.069,1.57c-0.326,0.093-0.541,0.157-0.646,0.192c-0.104,0.035-0.268,0.076-0.488,0.123
			c-0.222,0.046-0.425,0.081-0.611,0.104c-0.187,0.023-0.413,0.041-0.681,0.052s-0.523,0.005-0.768-0.018
			c-0.244-0.023-0.512-0.064-0.803-0.122c-0.291-0.058-0.564-0.145-0.82-0.262c-0.256-0.116-0.529-0.267-0.819-0.454
			c-0.292-0.186-0.564-0.396-0.82-0.628c-0.326-0.302-0.6-0.674-0.82-1.117c-0.222-0.441-0.379-0.89-0.471-1.343
			c-0.094-0.454-0.163-0.925-0.21-1.414c-0.047-0.489-0.064-0.93-0.052-1.326c0.011-0.396,0.005-0.756-0.018-1.082V193.8v-17.52
			h1.745V193.8z"/>
		<path style="fill:#BAB9B9;" d="M334.125,202.176c-1.326,0-2.543-0.25-3.647-0.75c-1.105-0.5-2.065-1.169-2.879-2.007
			c-0.814-0.837-1.448-1.814-1.902-2.932c-0.453-1.117-0.681-2.303-0.681-3.56v-0.07c0-1.256,0.228-2.443,0.681-3.56
			c0.454-1.117,1.094-2.105,1.92-2.967c0.825-0.86,1.797-1.541,2.914-2.042c1.116-0.5,2.338-0.75,3.664-0.75s2.542,0.25,3.647,0.75
			c1.104,0.5,2.064,1.169,2.879,2.007c0.814,0.837,1.448,1.815,1.902,2.932c0.453,1.117,0.681,2.303,0.681,3.56v0.07
			c0,1.256-0.228,2.443-0.681,3.56c-0.454,1.117-1.095,2.106-1.92,2.967c-0.826,0.861-1.797,1.542-2.914,2.042
			S335.451,202.176,334.125,202.176z M334.194,200.57c1.047,0,2.019-0.204,2.914-0.611c0.896-0.407,1.663-0.954,2.304-1.64
			c0.64-0.686,1.14-1.495,1.501-2.426c0.36-0.93,0.54-1.919,0.54-2.966v-0.07c0-1.07-0.187-2.077-0.558-3.019
			c-0.373-0.942-0.891-1.763-1.554-2.46c-0.663-0.698-1.442-1.245-2.338-1.641c-0.896-0.395-1.855-0.593-2.879-0.593
			c-1.047,0-2.02,0.204-2.914,0.611c-0.896,0.407-1.664,0.954-2.304,1.64c-0.641,0.687-1.141,1.496-1.501,2.426
			c-0.36,0.931-0.541,1.919-0.541,2.966v0.07c0,1.07,0.187,2.077,0.559,3.019c0.372,0.942,0.89,1.762,1.553,2.46
			c0.663,0.698,1.442,1.245,2.339,1.64C332.211,200.373,333.17,200.57,334.194,200.57z"/>
		<path style="fill:#BAB9B9;" d="M365.149,183.958h1.711v17.799h-1.711v-3.036c-1.442,2.303-3.443,3.455-6.002,3.455
			c-2.443,0-4.305-0.675-5.584-2.024c-1.28-1.349-1.92-3.257-1.92-5.724v-10.47h1.71v9.772c0,4.514,2.024,6.794,6.073,6.84
			c2.675,0,4.583-1.523,5.723-4.572V183.958z"/>
		<path style="fill:#BAB9B9;" d="M393.033,201.757h-1.744v-3.595c-0.652,0.977-1.67,1.908-3.054,2.792
			c-1.385,0.884-2.764,1.326-4.136,1.326c-0.907,0-1.85-0.187-2.827-0.558c-0.978-0.372-1.891-0.89-2.739-1.553
			c-0.85-0.663-1.571-1.541-2.164-2.635c-0.594-1.094-0.948-2.292-1.064-3.595c-0.14-1.815,0.11-3.513,0.75-5.096
			c0.64-1.582,1.629-2.861,2.967-3.839c1.338-0.977,2.867-1.466,4.589-1.466c1.001,0,1.955,0.157,2.862,0.471
			c0.907,0.314,1.681,0.722,2.32,1.222c0.64,0.5,1.146,0.942,1.519,1.326s0.698,0.774,0.978,1.169V176.28h1.744V201.757z
			 M391.289,189.577c-0.373-0.768-0.635-1.268-0.785-1.5c-0.152-0.232-0.437-0.552-0.855-0.96c-0.419-0.407-0.867-0.732-1.344-0.977
			c-0.478-0.244-1.123-0.459-1.937-0.646c-0.815-0.186-1.723-0.279-2.723-0.279c-1.489,0-2.774,0.483-3.856,1.448
			c-1.082,0.966-1.82,2.129-2.216,3.49c-0.396,1.361-0.501,2.787-0.314,4.275c0.187,1.489,0.698,2.734,1.536,3.734
			c1.116,1.326,2.507,2.152,4.17,2.478c1.663,0.326,3.264,0.14,4.799-0.559c1.536-0.698,2.71-1.78,3.525-3.246v-3.525V189.577z"/>
		<path style="fill:#BAB9B9;" d="M423.152,202.176c-1.326,0-2.543-0.25-3.647-0.75c-1.105-0.5-2.065-1.169-2.879-2.007
			c-0.814-0.837-1.448-1.814-1.902-2.932c-0.453-1.117-0.681-2.303-0.681-3.56v-0.07c0-1.256,0.228-2.443,0.681-3.56
			c0.454-1.117,1.094-2.105,1.92-2.967c0.825-0.86,1.797-1.541,2.914-2.042c1.116-0.5,2.338-0.75,3.664-0.75s2.542,0.25,3.647,0.75
			c1.104,0.5,2.064,1.169,2.879,2.007c0.814,0.837,1.448,1.815,1.902,2.932c0.453,1.117,0.681,2.303,0.681,3.56v0.07
			c0,1.256-0.228,2.443-0.681,3.56c-0.454,1.117-1.095,2.106-1.92,2.967c-0.826,0.861-1.797,1.542-2.914,2.042
			S424.479,202.176,423.152,202.176z M423.222,200.57c1.047,0,2.019-0.204,2.914-0.611c0.896-0.407,1.663-0.954,2.304-1.64
			c0.64-0.686,1.14-1.495,1.501-2.426c0.36-0.93,0.54-1.919,0.54-2.966v-0.07c0-1.07-0.187-2.077-0.558-3.019
			c-0.373-0.942-0.891-1.763-1.554-2.46c-0.663-0.698-1.442-1.245-2.338-1.641c-0.896-0.395-1.855-0.593-2.879-0.593
			c-1.047,0-2.02,0.204-2.914,0.611c-0.896,0.407-1.664,0.954-2.304,1.64c-0.641,0.687-1.141,1.496-1.501,2.426
			c-0.36,0.931-0.541,1.919-0.541,2.966v0.07c0,1.07,0.187,2.077,0.559,3.019c0.372,0.942,0.89,1.762,1.553,2.46
			c0.663,0.698,1.442,1.245,2.339,1.64C421.238,200.373,422.197,200.57,423.222,200.57z"/>
		<path style="fill:#BAB9B9;" d="M440.671,183.993h1.745v3.699c0.651-0.977,1.669-1.908,3.054-2.792
			c1.384-0.884,2.763-1.326,4.136-1.326c0.931,0,1.879,0.187,2.845,0.558c0.965,0.373,1.872,0.896,2.722,1.571
			s1.57,1.553,2.164,2.635c0.593,1.082,0.947,2.274,1.064,3.577c0.232,2.792-0.442,5.224-2.024,7.294
			c-1.582,2.071-3.677,3.106-6.282,3.106c-1,0-1.954-0.157-2.861-0.471c-0.907-0.314-1.682-0.721-2.321-1.222
			c-0.64-0.5-1.146-0.942-1.518-1.326s-0.698-0.773-0.978-1.169v9.178h-1.745V183.993z M442.416,196.278
			c0,0.023,0.093,0.221,0.279,0.593s0.354,0.68,0.506,0.925c0.151,0.244,0.437,0.564,0.855,0.959
			c0.419,0.396,0.866,0.715,1.344,0.96c0.477,0.244,1.122,0.459,1.937,0.646c0.814,0.187,1.722,0.279,2.723,0.279
			c1.488,0,2.774-0.483,3.856-1.448s1.826-2.123,2.233-3.473c0.406-1.349,0.512-2.774,0.313-4.275
			c-0.197-1.5-0.715-2.751-1.553-3.751c-1.094-1.303-2.478-2.123-4.153-2.46c-1.675-0.337-3.28-0.157-4.815,0.541
			c-1.536,0.698-2.711,1.78-3.525,3.246v3.525V196.278z"/>
		<path style="fill:#BAB9B9;" d="M468.66,193.556c0.07,0.814,0.244,1.594,0.523,2.338c0.372,0.931,0.89,1.745,1.553,2.443
			c0.663,0.698,1.442,1.245,2.339,1.64c0.896,0.396,1.854,0.593,2.879,0.593c1.047,0,2.024-0.209,2.932-0.628
			c0.581-0.255,1.104-0.57,1.57-0.942v1.954c-0.303,0.163-0.605,0.314-0.907,0.454c-1.117,0.512-2.338,0.768-3.664,0.768
			s-2.543-0.25-3.647-0.75c-1.105-0.5-2.065-1.169-2.879-2.007c-0.814-0.837-1.448-1.814-1.902-2.932
			c-0.453-1.117-0.681-2.303-0.681-3.56v-0.07c0-1.256,0.228-2.443,0.681-3.56c0.454-1.117,1.094-2.105,1.92-2.967
			c0.825-0.86,1.797-1.541,2.914-2.042c1.116-0.5,2.338-0.75,3.664-0.75c0.559,0,1.14,0.093,1.745,0.279
			c0.604,0.187,1.262,0.523,1.972,1.012s1.338,1.088,1.885,1.797c0.546,0.71,1,1.669,1.361,2.879c0.36,1.21,0.528,2.56,0.506,4.049
			H468.66z M475.885,185.144c-1.047,0-2.02,0.204-2.914,0.611c-0.896,0.407-1.664,0.954-2.304,1.64
			c-0.641,0.687-1.135,1.496-1.483,2.426c-0.279,0.698-0.453,1.431-0.523,2.199h12.982c-0.023-0.442-0.197-1.222-0.523-2.338
			c-0.232-0.745-0.535-1.401-0.907-1.972c-0.372-0.57-0.722-1-1.047-1.292c-0.326-0.291-0.722-0.535-1.187-0.733
			c-0.466-0.197-0.809-0.319-1.029-0.366c-0.222-0.046-0.507-0.093-0.855-0.14C476.001,185.157,475.931,185.144,475.885,185.144z"/>
		<path style="fill:#BAB9B9;" d="M501.012,185.563c-0.372,0-0.762,0.023-1.169,0.07c-0.407,0.047-0.954,0.215-1.64,0.506
			c-0.687,0.292-1.31,0.681-1.867,1.169c-0.559,0.488-1.111,1.233-1.658,2.233c-0.547,1-0.948,2.187-1.204,3.56v8.655h-1.71v-17.799
			h1.71v3.315v1.605c1.07-2.07,2.28-3.432,3.63-4.083c1.232-0.674,2.535-1.035,3.908-1.082V185.563z"/>
		<path style="fill:#BAB9B9;" d="M506.352,185.249c1.885-1.024,3.99-1.536,6.317-1.536c4.955,0,7.434,2.501,7.434,7.503v10.54
			h-1.676v-2.966l-0.104,0.104c-0.047,0.093-0.128,0.204-0.244,0.332c-0.117,0.128-0.25,0.279-0.401,0.454
			c-0.151,0.175-0.344,0.361-0.576,0.559c-0.232,0.198-0.483,0.396-0.75,0.593c-0.268,0.198-0.576,0.384-0.925,0.559
			c-0.35,0.174-0.71,0.326-1.082,0.454c-0.372,0.127-0.791,0.232-1.257,0.314c-0.465,0.081-0.941,0.122-1.431,0.122
			c-2.188,0-3.892-0.57-5.112-1.71c-1.222-1.14-1.833-2.559-1.833-4.258c0-1.628,0.692-2.96,2.077-3.996
			c1.384-1.035,3.193-1.553,5.427-1.553h6.177c0-2.722-1.059-4.444-3.176-5.166c-0.651-0.209-1.378-0.314-2.181-0.314
			s-1.542,0.041-2.217,0.122c-0.675,0.082-1.233,0.192-1.675,0.332c-0.442,0.14-0.803,0.274-1.082,0.401
			c-0.279,0.128-0.529,0.262-0.75,0.401c-0.222,0.14-0.344,0.209-0.366,0.209L506.352,185.249z M518.497,194.288
			c0-1.023,0-1.663,0-1.919c-0.419,0-0.879-0.005-1.379-0.017c-0.501-0.012-0.989-0.018-1.466-0.018s-1.064,0-1.763,0
			c-1.513,0-2.821,0.099-3.926,0.296c-1.105,0.198-1.96,0.623-2.565,1.274c-0.232,0.233-0.425,0.559-0.575,0.978
			c-0.152,0.418-0.251,0.878-0.297,1.378c-0.047,0.5,0.018,1,0.191,1.5c0.175,0.5,0.442,0.96,0.803,1.378
			c0.36,0.419,0.901,0.763,1.623,1.03c0.721,0.268,1.582,0.401,2.583,0.401c0.674,0,1.297-0.058,1.867-0.175
			c0.569-0.116,1.064-0.267,1.482-0.454c0.419-0.186,0.803-0.395,1.152-0.628c0.349-0.232,0.634-0.483,0.854-0.75
			c0.221-0.267,0.413-0.535,0.576-0.803c0.162-0.267,0.291-0.523,0.384-0.768c0.093-0.245,0.169-0.459,0.227-0.646
			c0.059-0.186,0.11-0.384,0.157-0.593C518.45,195.754,518.474,195.266,518.497,194.288z"/>
		<path style="fill:#BAB9B9;" d="M529.908,183.958h6.142v1.536h-6.142v8.446v0.14v0.174c0,0.163-0.006,0.466-0.018,0.907
			c-0.012,0.442-0.018,0.763-0.018,0.96c0,0.198,0.012,0.483,0.035,0.855c0.022,0.373,0.069,0.669,0.14,0.89
			c0.069,0.221,0.168,0.471,0.296,0.75c0.128,0.279,0.285,0.523,0.472,0.733c1.14,1.303,2.908,1.513,5.305,0.628l0.069,1.57
			l-0.244,0.07c-0.163,0.047-0.297,0.087-0.401,0.122c-0.104,0.035-0.268,0.075-0.488,0.122c-0.222,0.046-0.425,0.082-0.61,0.105
			c-0.187,0.023-0.419,0.04-0.698,0.052c-0.279,0.012-0.536,0.005-0.768-0.018c-0.233-0.023-0.495-0.064-0.786-0.122
			s-0.563-0.145-0.819-0.262c-0.257-0.116-0.53-0.267-0.82-0.454c-0.291-0.186-0.564-0.396-0.82-0.628
			c-0.512-0.465-0.896-1.169-1.151-2.111c-0.257-0.942-0.391-1.646-0.401-2.111c-0.013-0.465-0.018-1.152-0.018-2.059v-0.314v-8.446
			h-2.583v-1.536h2.583v-5.688h1.745V183.958z"/>
		<path style="fill:#BAB9B9;" d="M543.938,178.479h2.338v2.966h-2.338V178.479z M545.962,187.273v-3.315h-1.711v17.799h1.711
			V187.273z"/>
		<path style="fill:#BAB9B9;" d="M563.376,202.176c-1.326,0-2.543-0.25-3.647-0.75c-1.105-0.5-2.065-1.169-2.879-2.007
			c-0.814-0.837-1.448-1.814-1.902-2.932c-0.453-1.117-0.681-2.303-0.681-3.56v-0.07c0-1.256,0.228-2.443,0.681-3.56
			c0.454-1.117,1.094-2.105,1.92-2.967c0.825-0.86,1.797-1.541,2.914-2.042c1.116-0.5,2.338-0.75,3.664-0.75s2.542,0.25,3.647,0.75
			c1.104,0.5,2.064,1.169,2.879,2.007c0.814,0.837,1.448,1.815,1.902,2.932c0.453,1.117,0.681,2.303,0.681,3.56v0.07
			c0,1.256-0.228,2.443-0.681,3.56c-0.454,1.117-1.095,2.106-1.92,2.967c-0.826,0.861-1.797,1.542-2.914,2.042
			S564.702,202.176,563.376,202.176z M563.445,200.57c1.047,0,2.019-0.204,2.914-0.611c0.896-0.407,1.663-0.954,2.304-1.64
			c0.64-0.686,1.14-1.495,1.501-2.426c0.36-0.93,0.54-1.919,0.54-2.966v-0.07c0-1.07-0.187-2.077-0.558-3.019
			c-0.373-0.942-0.891-1.763-1.554-2.46c-0.663-0.698-1.442-1.245-2.338-1.641c-0.896-0.395-1.855-0.593-2.879-0.593
			c-1.047,0-2.02,0.204-2.914,0.611c-0.896,0.407-1.664,0.954-2.304,1.64c-0.641,0.687-1.141,1.496-1.501,2.426
			c-0.36,0.931-0.541,1.919-0.541,2.966v0.07c0,1.07,0.187,2.077,0.559,3.019c0.372,0.942,0.89,1.762,1.553,2.46
			c0.663,0.698,1.442,1.245,2.339,1.64C561.462,200.373,562.421,200.57,563.445,200.57z"/>
		<path style="fill:#BAB9B9;" d="M582.604,201.757h-1.71v-17.799h1.71v3.036c1.442-2.303,3.443-3.455,6.003-3.455
			c2.443,0,4.304,0.675,5.584,2.024c1.279,1.35,1.92,3.258,1.92,5.724v10.47H594.4v-9.772c0-4.513-2.023-6.793-6.072-6.84
			c-2.676,0-4.584,1.524-5.724,4.572V201.757z"/>
		<path style="fill:#BAB9B9;" d="M615.969,186.994c-0.163-0.116-0.39-0.255-0.681-0.418c-0.291-0.163-0.85-0.401-1.675-0.716
			c-0.826-0.314-1.605-0.523-2.339-0.628c-0.732-0.105-1.523-0.035-2.373,0.209c-0.85,0.244-1.553,0.739-2.111,1.483
			c-0.488,0.908-0.553,1.693-0.191,2.356c0.36,0.663,0.953,1.146,1.779,1.448c0.826,0.303,1.774,0.64,2.845,1.012
			c1.069,0.373,2.076,0.739,3.019,1.099c0.942,0.361,1.71,0.919,2.304,1.675c0.593,0.756,0.831,1.67,0.715,2.74
			c-0.14,1.419-0.646,2.53-1.518,3.333c-0.873,0.803-1.896,1.268-3.071,1.396c-1.175,0.127-2.368,0.099-3.577-0.087
			c-1.21-0.186-2.286-0.489-3.229-0.907c-0.942-0.419-1.576-0.838-1.901-1.257l0.837-1.5c0.232,0.163,0.553,0.373,0.96,0.628
			c0.407,0.256,1.163,0.599,2.269,1.029c1.104,0.431,2.123,0.646,3.054,0.646c1.512,0,2.629-0.337,3.351-1.012
			c0.721-0.675,1.082-1.571,1.082-2.688c0-0.651-0.32-1.239-0.96-1.762c-0.641-0.523-1.367-0.925-2.182-1.204
			s-1.85-0.559-3.105-0.838c-1.652-0.372-2.914-1.099-3.787-2.181c-0.872-1.082-1.1-2.286-0.681-3.612
			c0.419-1.303,1.274-2.28,2.565-2.932s2.658-0.873,4.101-0.663c0.814,0.117,1.669,0.343,2.565,0.681
			c0.896,0.337,1.588,0.646,2.076,0.925l0.733,0.418L615.969,186.994z"/>
	</g>
</g>
<g id="Layer_5">
	<circle style="fill:#FF9517;" cx="592.293" cy="17.105" r="17.105"/>
	<circle style="fill:#BAB9B9;" cx="592.293" cy="139.885" r="9.209"/>
	<circle style="fill:#BAB9B9;" cx="546.36" cy="104.093" r="9.209"/>
	<circle style="fill:#BAB9B9;" cx="505.413" cy="63.245" r="9.209"/>
	<circle style="fill:#BAB9B9;" cx="469.568" cy="17.182" r="9.209"/>
	<circle style="fill:#BAB9B9;" cx="505.414" cy="17.182" r="12.02"/>
	<circle style="fill:#BAB9B9;" cx="546.36" cy="63.245" r="12.02"/>
	<circle style="fill:#BAB9B9;" cx="592.293" cy="104.093" r="12.02"/>
	<circle style="fill:#BAB9B9;" cx="546.36" cy="17.182" r="14.264"/>
	<circle style="fill:#BAB9B9;" cx="592.293" cy="63.245" r="14.264"/>
</g>
<g id="Layer_2" style="display:none;">
	<g style="display:inline;">
		<rect x="564.187" y="122.972" style="opacity:0.28;fill:#FF1AFF;" width="14.564" height="155.774"/>
		<rect x="520.997" y="122.972" style="opacity:0.28;fill:#FF1AFF;" width="14.564" height="155.774"/>
		<rect x="482.34" y="122.972" style="opacity:0.28;fill:#FF1AFF;" width="14.564" height="155.774"/>
		
			<rect x="525.862" y="87.325" transform="matrix(4.708706e-11 -1 1 4.708706e-11 366.0025 700.2859)" style="opacity:0.28;fill:#FF1AFF;" width="14.564" height="159.634"/>
		
			<rect x="525.862" y="130.623" transform="matrix(4.708706e-11 -1 1 4.708706e-11 322.7037 743.5847)" style="opacity:0.28;fill:#FF1AFF;" width="14.564" height="159.634"/>
		
			<rect x="525.862" y="169.227" transform="matrix(4.721185e-11 -1 1 4.721185e-11 284.1005 782.1879)" style="opacity:0.28;fill:#FF1AFF;" width="14.564" height="159.634"/>
		
			<rect x="532.527" y="63.014" transform="matrix(5.566022e-10 -1 1 5.566022e-10 390.3132 675.9752)" style="opacity:0.32;fill:#FF1AFF;" width="1.235" height="159.634"/>
		
			<rect x="532.527" y="109.077" transform="matrix(5.566022e-10 -1 1 5.566022e-10 344.2497 722.0387)" style="opacity:0.32;fill:#FF1AFF;" width="1.235" height="159.634"/>
		
			<rect x="532.527" y="149.925" transform="matrix(5.566022e-10 -1 1 5.566022e-10 303.4021 762.8863)" style="opacity:0.32;fill:#FF1AFF;" width="1.235" height="159.634"/>
		
			<rect x="595.238" y="123.234" transform="matrix(-1 -5.875244e-10 5.875244e-10 -1 1191.712 401.6763)" style="opacity:0.32;fill:#FF1AFF;" width="1.235" height="155.208"/>
		
			<rect x="549.305" y="123.234" transform="matrix(-1 -5.875244e-10 5.875244e-10 -1 1099.8458 401.6763)" style="opacity:0.32;fill:#FF1AFF;" width="1.235" height="155.208"/>
		
			<rect x="508.359" y="123.234" transform="matrix(-1 -5.875244e-10 5.875244e-10 -1 1017.9539 401.6763)" style="opacity:0.32;fill:#FF1AFF;" width="1.235" height="155.208"/>
	</g>
</g>
</svg>
