<svg width="51" height="40" viewBox="0 0 51 40" fill="none" xmlns="http://www.w3.org/2000/svg">
<path fill-rule="evenodd" clip-rule="evenodd" d="M9.9388 0.175059C9.7956 0.271411 7.70669 3.69023 5.29675 7.7726C2.88697 11.855 0.709303 15.525 0.457686 15.9282C0.205913 16.3314 0 16.7878 0 16.9423C0 17.1239 1.9769 19.0209 5.58472 22.3013C8.65638 25.0941 14.2054 30.1519 17.916 33.5409C21.6266 36.9299 24.8394 39.786 25.0556 39.8877C25.389 40.0444 25.5048 40.0398 25.8156 39.8569C26.0173 39.7383 31.6808 34.627 38.4012 28.4985C47.8216 19.9076 50.6304 17.268 50.666 16.9725C50.7 16.6915 49.4486 14.4495 45.9748 8.56722C43.3691 4.15505 41.1203 0.422521 40.9773 0.272531C40.723 0.00602157 40.3839 0 25.4583 0C13.4939 0 10.143 0.0378128 9.9388 0.175059ZM20.6886 2.48583C19.7873 4.08166 14.0124 13.8041 13.9123 13.8943C13.8255 13.9726 11.67 2.34536 11.6936 1.92564C11.6969 1.86794 13.8067 1.82061 16.382 1.82061H21.0644L20.6886 2.48583ZM31.639 8.86552C33.9042 12.7017 35.7257 15.869 35.6869 15.9039C35.6481 15.9389 30.9789 15.9512 25.3112 15.9313L15.0061 15.8953L19.1635 8.85516L23.321 1.81501L25.4207 1.85282L27.5205 1.89063L31.639 8.86552ZM39.0935 2.20574C39.0464 2.41749 38.5803 5.04869 38.0575 8.05269C37.535 11.0567 37.059 13.6228 36.9999 13.7553C36.9241 13.925 35.848 12.2276 33.3436 7.98715C31.3918 4.68232 29.7947 1.94287 29.7947 1.89945C29.7947 1.85604 31.9062 1.82061 34.4868 1.82061H39.1791L39.0935 2.20574ZM11.0832 9.89557C11.67 13.1911 12.1297 15.906 12.1045 15.9285C12.0793 15.951 9.95752 15.9529 7.38925 15.9324L2.71974 15.8953L6.29979 9.83829C8.26874 6.50699 9.91041 3.80885 9.94785 3.8426C9.98529 3.87621 10.4962 6.60012 11.0832 9.89557ZM44.4581 9.74782C46.3885 13.0251 47.9913 15.7646 48.0199 15.8358C48.0511 15.9132 46.1779 15.9653 43.3586 15.9653H38.6455L38.7261 15.5102C38.7704 15.2598 39.2535 12.5185 39.7995 9.41829C40.3455 6.31821 40.8273 3.78336 40.8702 3.78546C40.9131 3.78742 42.5277 6.47058 44.4581 9.74782ZM17.1221 25.8871C19.54 30.3428 21.5622 34.0906 21.6155 34.2155C21.669 34.3405 19.478 32.4123 16.7467 29.9307C14.0154 27.4489 9.88639 23.7012 7.57114 21.6022L3.36134 17.7859H8.04364H12.7258L17.1221 25.8871ZM34.9492 19.5015C33.0852 23.0205 25.571 36.7589 25.452 36.8658C25.3617 36.9469 15.3482 18.7906 15.0014 17.9169C14.9694 17.8365 18.9841 17.7859 25.4037 17.7859H35.858L34.9492 19.5015ZM45.0995 19.8516C40.0995 24.5414 29.0144 34.4913 29.2241 34.1014C29.3483 33.8703 30.8708 31.0659 32.6074 27.8693C34.344 24.6727 36.2801 21.0962 36.91 19.9217L38.0553 17.7859H42.6787H47.3019L45.0995 19.8516Z" fill="#595959"/>
</svg>
