<svg width="64" height="64" viewBox="0 0 64 64" fill="none" xmlns="http://www.w3.org/2000/svg">
<rect width="64" height="64" fill="white"/>
<path fill-rule="evenodd" clip-rule="evenodd" d="M18.0464 19.9367C8.87737 23.9081 4.29249 25.9459 4.17226 26.1032C3.94258 26.4041 3.94258 26.8811 4.17226 27.1696C4.28818 27.3151 6.31437 28.1845 9.89118 29.6232L15.4306 31.8515L15.4831 36.7416C15.5282 40.9467 15.5594 41.6948 15.7052 42.0826C16.943 45.3735 22.0011 48.1515 28.5097 49.1155C29.8061 49.3075 34.1925 49.3071 35.4853 49.1149C41.7186 48.1882 46.6311 45.6082 48.0619 42.5099L48.4618 41.6436L48.5131 36.7986L48.5644 31.9536L51.4367 30.7698C53.0164 30.1187 54.3435 29.5857 54.3859 29.5854C54.4283 29.5851 54.4628 31.1292 54.4628 33.0168V36.4487L54.0635 36.6653C53.5548 36.9411 52.9912 37.6386 52.8381 38.1821C52.5539 39.1898 52.7639 40.093 53.4607 40.8614C53.7298 41.158 53.9499 41.4134 53.9499 41.4287C53.9499 41.4442 53.673 41.924 53.3344 42.4951C52.5748 43.7765 52.5302 44.2461 53.1367 44.5793C53.3614 44.7029 53.8658 44.7388 55.3753 44.7388C57.2773 44.7388 57.3304 44.7327 57.6063 44.4805C58.0593 44.0664 57.986 43.6594 57.2467 42.4841C56.9004 41.9335 56.6171 41.4645 56.6171 41.4419C56.6171 41.4192 56.8448 41.1496 57.1231 40.8428C57.6518 40.2598 57.8465 39.7721 57.8474 39.0279C57.8488 38.0575 57.3036 37.0992 56.5035 36.6653L56.1041 36.4487V32.6431V28.8374L56.6427 28.6206C59.8071 27.3466 59.9952 27.2349 60 26.6261C60.0012 26.4678 59.9214 26.2325 59.8227 26.1032C59.6217 25.84 32.3483 13.9911 31.9639 14C31.8414 14.0028 25.5785 16.6743 18.0464 19.9367ZM44.5383 21.2696C51.4498 24.2562 56.7663 26.6114 56.6938 26.6545C56.3777 26.8424 32.4596 36.6715 32.3143 36.6731C32.2247 36.6741 26.5249 34.4075 19.648 31.6364C10.4432 27.9271 7.19564 26.5744 7.33823 26.5091C10.1185 25.2343 31.992 15.8691 32.1001 15.9071C32.1847 15.9369 37.7819 18.35 44.5383 21.2696ZM24.8168 35.6342C28.7944 37.2404 32.1642 38.5557 32.3052 38.557C32.4463 38.5583 35.7285 37.2515 39.5991 35.6529C43.4696 34.0544 46.6662 32.7465 46.7029 32.7465C46.7394 32.7465 46.7692 34.6688 46.7692 37.0184C46.7692 41.9482 46.8 41.7724 45.7403 42.9035C43.7836 44.9922 39.8375 46.6728 35.3827 47.3144C33.6465 47.5645 30.3445 47.564 28.6123 47.3137C24.0993 46.6612 20.3256 45.0591 18.2784 42.9265C17.1948 41.7974 17.2306 42.0009 17.228 36.9583C17.2259 32.8716 17.2365 32.6151 17.4053 32.663C17.5041 32.691 20.8392 34.028 24.8168 35.6342ZM55.9069 38.4072C56.2269 38.7473 56.2798 39.0473 56.0874 39.4312C55.9063 39.7926 55.6791 39.9349 55.2835 39.9349C54.4232 39.9349 54.0683 38.8703 54.741 38.3079C55.1213 37.99 55.5486 38.0264 55.9069 38.4072Z" fill="#595959" stroke="#595959" stroke-width="0.3"/>
</svg>
