<svg width="169" height="169" viewBox="0 0 169 169" fill="none" xmlns="http://www.w3.org/2000/svg">
<path d="M27.7677 117.674L26.0492 121.653L22.3408 120.206L18.3611 124.096L20.0796 126.809L16.0999 128.708V133.683L20.0796 135.221L18.3611 139.291L20.8936 145.351H24.7829L27.7677 151.773H32.9233L35.0036 145.351H37.5362L43.5962 148.064L46.3097 144.356L44.4103 139.291L46.3097 135.221L50.0181 133.683V128.708L45.4052 127.623L43.5962 122.467L45.4052 119.121L41.6968 115.232L37.5362 117.674L35.0036 122.467H34.1896L32.9233 117.674H27.7677Z" fill="#72CBFE"/>
<circle cx="32.0188" cy="130.427" r="7.95948" fill="#F5F9FF"/>
<path d="M140.467 9.3162L138.748 13.2959L135.04 11.8488L131.06 15.7381L132.779 18.4515L128.799 20.3509V25.3256L132.779 26.8632L131.06 30.9334L133.593 36.9935H137.482L140.467 43.4153H145.622L147.703 36.9935H150.235L156.295 39.7069L159.009 35.9985L157.109 30.9334L159.009 26.8632L162.717 25.3256V20.3509L158.104 19.2655L156.295 14.11L158.104 10.7634L154.396 6.87408L150.235 9.3162L147.703 14.11H146.889L145.622 9.3162H140.467Z" fill="#72CBFE"/>
<circle cx="143.813" cy="22.2504" r="7.95948" fill="#F5F9FF"/>
<path d="M73.3883 148.431C69.8413 155.122 71.2949 168 71.2949 168H165.86C165.86 168 166.175 162.998 165.86 159.822L165.851 159.738C165.401 155.212 165.124 152.424 163.038 148.431C160.363 143.31 157.499 141.074 152.662 138.306C147.607 135.413 144.076 135.338 138.373 134.704C133.742 134.188 126.45 134.704 126.45 134.704L124.63 136.359L124.476 136.485C120.966 139.361 118.434 141.435 113.981 141.227C109.193 141.003 107.986 135.926 103.332 134.704C97.6408 133.209 93.925 134.251 88.4058 136.359C81.4966 138.997 77.0069 141.605 73.3883 148.431Z" fill="#6BDA74"/>
<path d="M92.6194 64.7741C89.4226 68.7539 88.4587 77.1656 88.4587 77.1656C88.4587 77.1656 98.6427 72.97 105.373 73.5477C110.193 73.9614 112.544 75.9306 117.221 77.1656C122.708 78.614 125.758 80.5848 131.422 80.2409C135.853 79.9717 138.816 79.8311 142.366 77.1656C146.004 74.4341 149.742 71.5713 148.426 67.2163C147.507 64.1751 144.788 63.8458 142.366 61.7893C140.491 60.1967 139.806 58.6184 137.482 57.8096C135.247 57.0317 133.747 57.3699 131.422 57.8096C129.192 58.2313 128.227 59.4776 125.995 59.8899C121.614 60.6991 119.219 58.1783 114.779 57.8096C111.118 57.5055 108.976 57.0966 105.373 57.8096C99.8058 58.911 96.1731 60.35 92.6194 64.7741Z" fill="#FFE144"/>
<path fill-rule="evenodd" clip-rule="evenodd" d="M47.7768 0.311892C47.5091 0.528607 46.752 2.37557 45.3853 6.14583C44.2855 9.18002 43.3052 11.908 43.2071 12.2079C43.0461 12.6999 42.8397 12.8195 41.098 13.4304C40.0364 13.8027 38.1921 14.5623 37 15.1182C35.8077 15.674 34.7046 16.1675 34.5485 16.2148C34.3924 16.262 31.6397 15.0738 28.4313 13.5746C25.2229 12.0753 22.4231 10.8486 22.2097 10.8486C21.9419 10.8486 20.1194 12.5472 16.3424 16.3168C11.8822 20.7683 10.8634 21.875 10.8634 22.2696C10.8634 22.7347 11.1476 23.4344 12.5434 26.4058C12.894 27.152 13.915 29.3285 14.8122 31.2426L16.4437 34.7225L15.5649 36.6695C15.0816 37.7403 14.3755 39.5635 13.9958 40.7213L13.3055 42.8264L6.92529 45.1431C3.41625 46.4174 0.426194 47.5912 0.280752 47.7518C0.0580677 47.9979 0.0148352 49.2612 0.00579034 55.7896C-0.00651067 64.5668 -0.114871 63.9427 1.52659 64.5453C2.03545 64.7321 4.97992 65.7989 8.07019 66.9159L13.6885 68.9468L14.3021 70.6049C14.6397 71.517 15.3435 73.1357 15.8663 74.2021L16.8169 76.1408L13.8401 82.4848C12.1205 86.15 10.8634 89.0518 10.8634 89.3569C10.8634 89.8079 11.6558 90.6787 16.2885 95.3198C20.7346 99.7739 21.8019 100.755 22.2037 100.755C22.4734 100.755 25.6516 99.3707 29.2666 97.6793L35.8392 94.604L36.777 95.0793C37.8571 95.6265 41.3057 97.0263 41.9837 97.1923C42.4676 97.311 42.5025 97.3984 46.3112 108.025C46.8707 109.585 47.4803 111.03 47.6659 111.236C47.9967 111.601 48.1563 111.608 55.7339 111.608C64.5845 111.608 63.9325 111.735 64.5706 109.89C64.777 109.293 65.8752 106.24 67.011 103.106L69.0762 97.4079L71.2198 96.58C72.3989 96.1247 73.9139 95.4984 74.5867 95.1885L75.8097 94.6248L78.476 95.8971C83.7165 98.3978 84.2301 98.6042 84.7336 98.413C85.4094 98.156 85.8122 97.4479 85.6648 96.7766C85.5635 96.3153 85.3379 96.1181 84.3374 95.6165C81.6934 94.2911 76.0092 91.7097 75.7345 91.7097C75.5738 91.7097 74.6845 92.0709 73.7581 92.5125C71.96 93.37 70.2173 94.0642 68.5092 94.6039C67.9287 94.7873 67.3093 95.068 67.133 95.2278C66.9564 95.3875 65.7252 98.529 64.3967 102.209L61.9814 108.899L55.7515 108.852L49.5215 108.804L48.5782 106.181C45.324 97.1328 44.684 95.4259 44.4736 95.2334C44.3446 95.1153 43.3435 94.7147 42.2491 94.3432C41.1547 93.9718 39.3316 93.2272 38.1977 92.6887C37.0639 92.1503 35.9908 91.7097 35.813 91.7097C35.6351 91.7097 33.8359 92.487 31.8144 93.4369C29.7931 94.3868 26.8931 95.7451 25.3703 96.4553L22.6013 97.7466L18.2701 93.4181C15.8878 91.0373 13.9387 89.019 13.9387 88.9329C13.9387 88.847 15.2055 86.0785 16.7538 82.7811C18.3023 79.4836 19.6109 76.5822 19.6619 76.3334C19.7274 76.014 19.3915 75.137 18.5188 73.3486C17.8392 71.9557 17.0119 70.0283 16.6807 69.0655C16.3493 68.1028 15.9825 67.184 15.8654 67.0239C15.7482 66.8636 12.7636 65.6891 9.233 64.4137L2.8135 62.0946L2.76592 55.8276C2.73969 52.3808 2.7415 49.5606 2.7699 49.5606C2.7983 49.5606 5.6165 48.5467 9.03275 47.3074C12.7433 45.9611 15.3394 44.9235 15.481 44.7299C15.6113 44.5516 15.8931 43.7951 16.1071 43.0487C16.5848 41.3826 17.9338 37.9528 18.7554 36.3144C19.091 35.6453 19.3647 34.9534 19.3636 34.7768C19.3625 34.6002 18.1415 31.86 16.6501 28.6876C15.1588 25.5152 13.9387 22.8282 13.9387 22.7166C13.9387 22.6049 15.8877 20.5661 18.2697 18.1854L22.6008 13.8573L24.5559 14.7822C32.3591 18.4736 34.2768 19.3508 34.5434 19.3508C34.6619 19.3508 35.3453 19.0293 36.0619 18.6362C37.8158 17.6746 41.2019 16.2354 43.1123 15.6397C43.9703 15.3723 44.7954 15.0599 44.9457 14.9456C45.0961 14.8314 46.191 12.0516 47.3786 8.7683L49.5382 2.79869L55.7549 2.75111L61.9714 2.70372L62.502 4.19666C63.0874 5.84427 63.6085 6.50708 64.3186 6.50708C64.8998 6.50708 65.676 5.76034 65.6731 5.20372C65.6697 4.54236 64.1037 0.529149 63.742 0.254909C63.4761 0.0533897 61.9723 0.00527548 55.7913 0.000572151C48.7909 -0.00467387 48.1364 0.0206477 47.7768 0.311892ZM139.566 1.87575C139.376 2.01486 138.851 3.12629 138.4 4.34554C137.607 6.487 137.556 6.57003 136.91 6.7938C136.542 6.92134 135.968 7.15506 135.634 7.31316C135.037 7.59662 135.003 7.58903 133.411 6.81587C131.103 5.69594 130.697 5.55303 130.234 5.69974C130.009 5.77137 128.863 6.80502 127.689 7.99677C125.937 9.77408 125.552 10.2594 125.552 10.6958C125.552 10.9883 125.959 12.0905 126.457 13.1451C126.954 14.1997 127.361 15.1898 127.361 15.3454C127.361 15.5009 127.18 16.0952 126.959 16.6661L126.556 17.7039L125.195 18.1927C121.969 19.351 121.935 19.3676 121.66 19.8985C121.456 20.2945 121.392 21.1046 121.392 23.3016C121.392 25.7842 121.436 26.2394 121.71 26.578C121.899 26.8113 122.982 27.3293 124.373 27.8517L126.718 28.7323L127.155 29.7441L127.592 30.7558L126.572 32.928C126.003 34.1395 125.552 35.3542 125.552 35.6746C125.552 36.1677 125.866 36.5623 127.776 38.4727C129.48 40.1764 130.11 40.6967 130.47 40.6967C130.729 40.6967 131.98 40.2061 133.251 39.6064L135.561 38.5159L136.498 38.9042L137.435 39.2925L138.291 41.6977C138.762 43.0208 139.29 44.2321 139.465 44.3899C139.729 44.6292 140.321 44.6764 143.055 44.6764C146.969 44.6764 146.608 44.9146 147.797 41.5485L148.605 39.2594L149.523 38.8868L150.441 38.5141L152.75 39.6055C154.02 40.2055 155.275 40.6967 155.538 40.6967C155.91 40.6967 156.516 40.1983 158.242 38.4727C160.132 36.5825 160.465 36.1645 160.465 35.6867C160.465 35.3776 160.009 34.1337 159.451 32.9226L158.436 30.7205L158.896 29.7037L159.356 28.6869L161.628 27.8578C162.877 27.402 164.043 26.8857 164.218 26.7108C164.497 26.4309 164.536 26.0018 164.536 23.1272C164.536 19.2339 164.753 19.5794 161.599 18.4635L159.451 17.7032L159.026 16.4792L158.602 15.2553L159.554 13.1876C160.077 12.0505 160.507 10.9306 160.508 10.6988C160.511 10.2236 156.988 6.45137 155.999 5.87105L155.423 5.53241L153.174 6.56352L150.926 7.59445L149.952 7.16374C149.417 6.92676 148.849 6.68943 148.69 6.63642C148.514 6.57781 148.097 5.68038 147.625 4.34572C147.133 2.95516 146.71 2.05448 146.471 1.88715C145.936 1.51215 140.077 1.50256 139.566 1.87575ZM145.459 6.41772C145.883 7.56244 146.32 8.56588 146.429 8.64764C146.538 8.72959 147.034 8.94449 147.531 9.12539C148.029 9.30647 148.902 9.68671 149.471 9.97072C150.04 10.2545 150.662 10.4868 150.854 10.4868C151.045 10.4868 152.08 10.0767 153.154 9.57546L155.105 8.6641L156.248 9.79634C156.876 10.4192 157.39 10.9979 157.39 11.0827C157.39 11.1674 156.983 12.1125 156.486 13.1829C155.988 14.2535 155.581 15.2298 155.581 15.3522C155.581 15.4749 155.794 16.038 156.054 16.6037C156.315 17.1693 156.645 18.0234 156.788 18.5015C157.136 19.6621 157.44 19.926 159.125 20.5266C159.912 20.807 160.821 21.1415 161.144 21.2697L161.732 21.5031L161.729 23.1856L161.727 24.8682L159.568 25.6574C157.609 26.3738 156.848 26.8088 156.848 27.212C156.848 27.2916 156.519 28.1254 156.118 29.0648L155.388 30.7728L156.423 33.0308L157.459 35.2886L156.283 36.4642L155.107 37.64L152.97 36.6357C151.795 36.0834 150.66 35.6314 150.448 35.6312C150.112 35.6306 148.227 36.339 146.898 36.9655C146.536 37.1361 146.269 37.6563 145.558 39.5708L144.671 41.9629H142.999H141.327L140.827 40.561C139.912 37.9964 139.566 37.2044 139.296 37.0597C138.496 36.6299 135.885 35.6315 135.562 35.6315C135.355 35.6315 134.224 36.0829 133.05 36.6348L130.915 37.6379L129.764 36.4991C128.429 35.1784 128.435 35.3208 129.626 32.8906C130.072 31.9818 130.437 31.0172 130.437 30.7469C130.437 30.326 129.691 28.4403 128.94 26.9629C128.769 26.6263 128.196 26.3323 126.457 25.6887L124.196 24.8521V23.1617V21.4714L126.363 20.69C127.556 20.2602 128.636 19.7652 128.764 19.5899C128.892 19.4148 129.084 18.9479 129.19 18.5523C129.297 18.1569 129.633 17.275 129.939 16.5928L130.493 15.3526L129.559 13.3267C129.045 12.2124 128.625 11.2171 128.626 11.1147C128.627 11.0123 129.141 10.4201 129.768 9.79833L130.908 8.66826L132.851 9.57745C133.919 10.0776 134.941 10.4868 135.122 10.4868C135.303 10.4868 136.146 10.1612 136.996 9.76323C137.845 9.36526 138.652 9.03964 138.789 9.03964C139.413 9.03964 139.831 8.42387 140.565 6.42134L141.33 4.33632H143.009H144.688L145.459 6.41772ZM65.1907 8.16935C64.974 8.27409 64.7061 8.57854 64.5953 8.84572C64.422 9.26396 64.5232 9.69449 65.3231 11.9441C65.8339 13.3812 66.3868 14.6885 66.5516 14.8493C66.7164 15.01 67.9094 15.4962 69.2028 15.93C70.4962 16.3636 72.754 17.3106 74.22 18.0346C75.6861 18.7585 76.977 19.3508 77.0887 19.3508C77.2003 19.3508 78.4023 18.8298 79.7596 18.1932C81.1169 17.5565 83.7303 16.3325 85.5673 15.4734L88.907 13.9112L93.3021 18.3063L97.697 22.7012L95.0085 28.3975C93.5299 31.5306 92.2623 34.2759 92.1918 34.4982C92.099 34.7911 92.3101 35.4146 92.9569 36.7594C93.9117 38.7437 94.8846 41.2453 95.5194 43.3483C95.7343 44.0605 96.047 44.7618 96.2142 44.9071C96.5888 45.2323 104.051 47.9326 104.575 47.9326C105.567 47.9326 106.15 46.9691 105.743 46.0009C105.538 45.5147 105.276 45.3672 103.457 44.7187C102.327 44.3157 100.691 43.7271 99.8218 43.4105L98.2413 42.8349L97.8933 41.7205C97.3734 40.0557 96.54 37.8864 95.8106 36.3C95.4537 35.5234 95.1615 34.8197 95.1615 34.7363C95.1615 34.6529 96.1874 32.3984 97.441 29.7263C98.6948 27.0543 99.9607 24.3484 100.254 23.7133C100.614 22.9349 100.753 22.4022 100.682 22.0791C100.522 21.3517 89.9277 10.8484 89.3546 10.8493C89.116 10.8497 87.7809 11.3859 86.388 12.0407C84.9951 12.6958 83.4078 13.4385 82.8605 13.6914C82.3133 13.9443 80.8562 14.6292 79.6223 15.2133C78.3886 15.7976 77.2809 16.2755 77.161 16.2755C77.0411 16.2755 75.934 15.7942 74.701 15.2059C73.4678 14.6176 71.6069 13.8408 70.5655 13.4798C69.5241 13.1187 68.6105 12.7251 68.5353 12.6048C68.46 12.4847 68.1046 11.5722 67.7453 10.5773C66.8895 8.2077 66.2865 7.6395 65.1907 8.16935ZM139.923 13.7193C136.016 15.0767 133.622 18.2296 133.382 22.3356C133.206 25.3313 134.117 27.775 136.158 29.7889C141.423 34.9814 150.179 32.7278 152.353 25.6207C152.669 24.5888 152.718 24.063 152.647 22.455C152.554 20.3441 152.116 18.9879 151.008 17.3768C148.586 13.8577 143.938 12.324 139.923 13.7193ZM145.749 16.5358C147.034 17.1241 147.858 17.7741 148.601 18.7866C151.16 22.2723 149.927 27.2423 146.028 29.1601C144.91 29.7099 144.693 29.7524 143.007 29.7524C141.319 29.7524 141.106 29.7104 139.982 29.157C138.515 28.4342 137.13 26.9655 136.543 25.5094C136.229 24.7316 136.138 24.1408 136.137 22.8783C136.135 21.4226 136.196 21.122 136.709 20.038C137.631 18.0916 139.407 16.6086 141.425 16.0986C142.526 15.8204 144.657 16.0358 145.749 16.5358ZM54.1883 17.6652C49.1102 17.8739 43.8428 19.2274 39.1738 21.523C36.4593 22.8578 33.1451 25.0339 32.9182 25.6301C32.5725 26.5393 33.2164 27.4912 34.1769 27.4912C34.419 27.4912 35.3982 26.9724 36.3528 26.3383C39.6657 24.1379 42.5742 22.7839 46.3193 21.6983C49.7144 20.7142 51.2735 20.5255 55.9068 20.538C59.8209 20.5485 60.3443 20.5887 62.5096 21.0443C65.7053 21.7173 68.2129 22.5756 71.0118 23.9552C79.5091 28.1433 85.7809 35.3041 88.7189 44.1722C89.6257 46.9096 89.9924 48.5975 90.3423 51.6469C90.5527 53.4794 90.6458 53.832 90.9953 54.1149C91.5687 54.5793 92.3037 54.5313 92.8059 53.9968C93.2035 53.5737 93.2207 53.4559 93.1161 51.8712C92.5541 43.3472 88.3363 34.4962 81.8347 28.1972C74.479 21.0708 64.4345 17.2442 54.1883 17.6652ZM29.9481 28.0244C29.5022 28.2077 27.1413 30.7934 25.9987 32.3501C25.0624 33.6257 24.9309 34.3227 25.5161 34.908C25.8768 35.2687 26.8712 35.3978 27.2354 35.1314C27.3352 35.0583 27.8719 34.4286 28.4278 33.7321C28.9837 33.0357 29.9806 31.8754 30.6431 31.1536C31.6382 30.0693 31.8475 29.7337 31.8475 29.222C31.8475 28.2298 30.9011 27.633 29.9481 28.0244ZM61.0903 35.1106C59.9626 35.371 59.0469 36.1444 58.4381 37.3501C57.7822 38.6496 47.2477 65.0887 46.9902 66.0816C46.4074 68.3305 48.4939 70.9065 50.8982 70.9065C52.33 70.9065 53.82 69.9895 54.4752 68.705C54.6771 68.3095 57.3327 61.7441 60.3765 54.1151C66.1422 39.6643 66.3225 39.1247 65.8578 37.7166C65.2422 35.8515 63.0561 34.6565 61.0903 35.1106ZM23.3453 36.9501C22.1113 37.5648 19.6952 43.8989 18.7809 48.9165C18.2171 52.0109 18.2192 58.4199 18.7853 61.4998C20.2746 69.6044 23.9955 76.5532 29.8793 82.2182C34.8544 87.0082 40.9242 90.2517 47.7665 91.7761C55.2439 93.442 63.8866 92.5762 70.9231 89.4564C74.2227 87.9933 77.9921 85.6064 80.1787 83.595C81.0568 82.7873 81.2325 82.5257 81.2325 82.0254C81.2325 81.3436 80.5599 80.675 79.8739 80.675C79.6426 80.675 78.7799 81.2274 77.8633 81.9624C72.8647 85.9709 67.7084 88.3137 61.3902 89.4469C59.1739 89.8445 54.4097 89.9951 52.2889 89.7348C44.0143 88.7191 37.0774 85.4501 31.4857 79.9313C25.3526 73.8781 21.8446 66.3347 21.1266 57.6556C20.6621 52.0396 21.9009 45.3665 24.3376 40.36C25.22 38.5471 25.3312 37.866 24.8377 37.2954C24.4092 36.7998 23.8888 36.6795 23.3453 36.9501ZM62.9618 38.1641C63.1608 38.3631 63.3236 38.6939 63.3236 38.8994C63.3236 39.1048 60.9973 45.1084 58.1539 52.2406C51.4318 69.103 52.011 67.7526 51.3884 68.0105C50.6684 68.3086 50.131 68.0869 49.8303 67.3674C49.5787 66.7654 49.6351 66.608 54.2871 54.9483C60.7319 38.7942 60.9892 38.1735 61.3169 37.9818C61.8034 37.6974 62.5814 37.7837 62.9618 38.1641ZM41.5948 41.9564C40.8839 42.1715 28.4103 48.6371 27.7305 49.1429C26.8151 49.8238 26.3437 50.8881 26.343 52.2741C26.3423 53.5749 26.6104 54.2381 27.4814 55.089C27.9566 55.5534 35.0022 59.512 39.9624 62.1017C41.5896 62.9512 41.7037 62.9828 42.8942 62.9155C44.5042 62.8247 45.4664 62.2023 46.1836 60.7878C46.8339 59.5055 46.8405 58.4537 46.2061 57.1806C45.6599 56.0845 45.1863 55.7392 41.4642 53.7222C40.1371 53.0031 39.1196 52.3477 39.203 52.2658C39.2865 52.1838 40.6087 51.4635 42.1413 50.665C45.1626 49.0908 45.8253 48.5879 46.3381 47.4803C47.7053 44.5275 44.6925 41.0188 41.5948 41.9564ZM69.6507 42.0501C67.4009 42.7696 66.3224 45.4193 67.3665 47.6618C67.8681 48.739 68.2791 49.0359 71.7354 50.8182C73.1283 51.5364 74.3359 52.1894 74.4191 52.269C74.5024 52.3486 73.252 53.1279 71.6406 54.0006C70.0291 54.8732 68.4817 55.7797 68.2021 56.0152C66.564 57.3935 66.5324 60.39 68.1398 61.8973C68.8875 62.5983 69.8528 62.947 71.0458 62.947C72.0575 62.947 72.2757 62.8439 78.9177 59.2256C86.3898 55.1552 86.7999 54.8553 87.2059 53.1627C87.4785 52.0261 87.206 50.7877 86.4598 49.773C85.9372 49.0624 83.3841 47.6605 73.6348 42.7312C71.886 41.847 70.8435 41.6688 69.6507 42.0501ZM43.2504 44.7701C43.5425 44.9212 43.8307 45.2408 43.8907 45.4803C44.1331 46.4459 43.7173 46.7694 39.2665 49.0765C34.6196 51.4856 34.2987 51.747 34.7254 52.777C34.9193 53.245 35.6047 53.6831 39.2017 55.6377C43.288 57.8582 43.9676 58.3354 43.9676 58.9832C43.9676 59.5022 43.2531 60.2336 42.7458 60.2336C42.3461 60.2336 38.3786 58.1645 30.943 54.078C29.1758 53.1068 28.7724 52.6046 29.1082 51.794C29.2771 51.3859 29.7109 51.07 30.9946 50.4201C31.9114 49.9559 34.8594 48.436 37.5458 47.0425C40.2321 45.6491 42.4951 44.5058 42.5747 44.5022C42.6541 44.4986 42.9582 44.6191 43.2504 44.7701ZM73.9061 45.9383C75.1995 46.612 77.9673 48.0391 80.0566 49.1097C82.146 50.1804 84.0114 51.2037 84.2022 51.3839C84.6105 51.7696 84.6617 52.7271 84.2927 53.0767C84.1516 53.2102 82.1641 54.3372 79.8757 55.5812C77.5874 56.8253 74.7383 58.3808 73.5443 59.038C72.3504 59.6952 71.165 60.2332 70.9103 60.2332C69.8148 60.2339 69.2581 58.8468 70.0621 58.1194C70.2858 57.9168 72.2193 56.799 74.3584 55.6355C76.4975 54.472 78.4036 53.3664 78.5944 53.1784C79.0078 52.7712 79.0505 51.8237 78.6726 51.4456C78.5248 51.298 76.5373 50.2115 74.2556 49.0313C69.8086 46.7312 69.4172 46.4206 69.7545 45.4613C69.9602 44.8765 70.6686 44.4563 71.1927 44.6084C71.3916 44.6663 72.6127 45.2647 73.9061 45.9383ZM132.336 48.8602C130.628 49.0737 128.82 49.6317 127.161 50.457L125.786 51.1415L123.543 50.6268C119.194 49.6286 117.725 49.4762 112.437 49.4731C106.966 49.4698 105.61 49.6357 101.855 50.7685C98.0271 51.9228 95.0181 53.478 92.159 55.7795C87.3529 59.6485 83.542 65.6491 82.3036 71.2974C81.1315 76.6428 82.1836 82.7994 85.0981 87.6482C85.7746 88.7741 85.9702 89.3094 86.2042 90.6791C87.1464 96.1889 89.4647 102.291 92.1154 106.236C94.3028 109.492 97.2272 112.594 99.8238 114.412L101.115 115.317L101.123 120.673L101.131 126.029L96.9253 126.13C90.3739 126.289 86.4374 127.175 81.5642 129.591C73.9986 133.341 68.1301 139.885 65.1648 147.878C63.5192 152.314 63.3066 153.753 63.1988 161.193L63.108 167.452L63.602 167.841C64.2509 168.351 64.8651 168.332 65.4121 167.785L65.8562 167.341L65.8595 162.223C65.8636 155.857 66.1225 153.688 67.3235 149.959C68.1104 147.515 69.4573 144.771 71.0528 142.361C72.7969 139.727 76.5137 135.943 79.0346 134.236C83.0054 131.547 88.0338 129.631 92.5668 129.08L93.4995 128.967L93.7129 130.282C94.5561 135.479 96.3793 139.26 99.792 142.887C104.697 148.101 112.002 150.64 118.885 149.523C120.742 149.221 121.09 149.058 121.381 148.356C121.563 147.916 121.551 147.729 121.312 147.266C120.94 146.548 120.412 146.426 118.798 146.686C115.885 147.156 112.302 146.872 109.564 145.954C104.125 144.13 99.3206 139.323 97.3873 133.768C96.9012 132.372 96.2193 129.166 96.36 128.938C96.4486 128.794 101.131 128.726 101.131 128.868C101.131 129.332 101.732 131.841 102.046 132.683C104.228 138.55 110.103 142.37 116.29 141.943C122.906 141.487 128.281 136.661 129.424 130.15L129.646 128.884L132.236 128.834L134.826 128.783L134.701 129.885C134.438 132.21 133.51 135.037 132.317 137.148C131.606 138.407 131.559 138.873 132.078 139.533C132.589 140.182 133.513 140.188 134.109 139.544C135.431 138.119 137.492 132.004 137.492 129.507V128.92L139.255 129.035C142.397 129.241 146.609 130.371 149.435 131.768C151.314 132.697 152.217 132.589 152.581 131.392C152.798 130.677 152.336 130.091 151.092 129.503C148.157 128.117 145.384 127.221 142.104 126.599C140.488 126.293 139.139 126.205 134.914 126.128L129.713 126.034V121.035V116.036L131.205 115.054C133.038 113.849 137.156 109.768 138.607 107.719C142.483 102.244 145.133 95.8188 146.44 88.7249C147.02 85.5791 147.247 82.8866 147.271 78.8783L147.291 75.5442L147.974 74.5368C149.363 72.4894 150.293 70.2285 150.7 67.9076C151.012 66.1312 150.843 62.7059 150.354 60.8667C149.895 59.1431 148.52 56.3202 147.76 55.5431C146.923 54.6873 145.888 54.8369 145.458 55.8757C145.249 56.3797 145.295 56.5228 146.148 58.0082C146.65 58.8839 147.282 60.2517 147.552 61.0476C147.988 62.3343 148.044 62.7755 148.058 65.0273C148.072 67.2088 148.015 67.7473 147.649 68.9121C146.383 72.9434 143.773 75.9539 140.1 77.6196C138.051 78.5483 136.838 78.7399 133.783 78.6167C130.522 78.4852 129.318 78.2298 123.985 76.5369C114.4 73.4946 108.888 72.3521 103.806 72.3548C98.6753 72.3575 94.3848 73.7573 91.4074 76.4004C89.0161 78.523 87.9559 80.2055 86.5481 84.112C86.4197 84.468 85.6617 82.6216 85.2113 80.8559C84.4264 77.7792 84.3399 74.8915 84.9454 71.9825C85.8421 67.6753 88.7055 62.7479 92.3372 59.2629C99.0597 52.8123 109.023 50.5158 120.578 52.7536C121.871 53.0042 122.959 53.2392 122.996 53.2757C123.033 53.3124 122.728 53.6923 122.319 54.1198C120.984 55.5159 120.768 56.6308 121.733 57.1473C122.568 57.5945 123.101 57.3909 124.099 56.2441C126.48 53.5062 130.365 51.5505 133.423 51.5505C133.94 51.5505 134.611 51.4638 134.915 51.3578C135.987 50.9841 136.122 49.4355 135.128 48.9212C134.567 48.6312 134.227 48.6238 132.336 48.8602ZM138.678 50.1437C138.338 50.6283 138.313 51.37 138.622 51.7849C138.747 51.9521 139.499 52.4034 140.295 52.788C141.091 53.1728 142.137 53.7895 142.618 54.1585C143.892 55.1346 144.226 55.2553 144.838 54.9617C145.434 54.6762 145.736 53.9796 145.563 53.2909C145.408 52.6751 143.667 51.3729 141.752 50.4411C140.06 49.6174 139.11 49.5255 138.678 50.1437ZM133.647 54.2567C132.643 55.0552 133.255 56.6156 134.573 56.6156C136.49 56.6156 138.982 57.6949 140.511 59.1864C141.84 60.4832 142.918 62.993 142.918 64.7889C142.918 66.2012 144.071 66.9895 145.06 66.2535C145.47 65.9481 145.55 65.7368 145.601 64.828C145.685 63.334 145.367 62.0337 144.457 60.1375C142.789 56.6632 139.311 54.2884 135.42 53.9669C134.29 53.8736 134.088 53.9065 133.647 54.2567ZM108.367 54.5373C105.04 54.9942 102.187 55.9121 99.4387 57.4103C97.7847 58.3119 94.8967 60.4563 94.2791 61.2415C93.5841 62.125 93.8645 63.0997 94.9302 63.5049C95.4919 63.7184 95.8567 63.521 97.2956 62.2254C100.864 59.0121 106.671 56.9774 112.272 56.9774C113.088 56.9774 113.348 56.8973 113.712 56.5333C114.281 55.9637 114.292 55.1788 113.737 54.6572C113.368 54.3105 113.127 54.2661 111.702 54.2826C110.813 54.2929 109.312 54.4074 108.367 54.5373ZM90.1371 66.9738C89.3341 67.8285 87.8488 71.7725 88.0259 72.5793C88.2238 73.4801 89.4083 73.925 90.1364 73.372C90.3077 73.2419 90.7037 72.4101 91.0163 71.5235C91.3289 70.637 91.7789 69.5275 92.0163 69.0583C92.2538 68.589 92.4481 67.9989 92.4481 67.7468C92.4481 66.6628 90.9121 66.1491 90.1371 66.9738ZM109.633 75.6167C112.808 76.1659 118.118 77.5449 122.477 78.9521C128.901 81.0257 130.755 81.3967 134.704 81.3978C136.639 81.3984 137.584 81.3137 138.629 81.0465C140.205 80.6435 142.336 79.7023 143.525 78.8841C143.974 78.5756 144.399 78.3233 144.472 78.3233C144.544 78.3233 144.551 79.6869 144.487 81.3533C143.9 96.7522 136.286 110.387 125.688 115.019C119.428 117.755 112.139 117.596 105.518 114.578C98.8605 111.545 93.3054 104.861 90.5686 96.5939C88.8453 91.3879 88.3869 87.9335 89.0807 85.3783C89.5443 83.6702 90.816 81.1013 91.7795 79.9264C93.2587 78.1225 95.9304 76.4096 98.2368 75.7864C101.249 74.9725 105.541 74.9085 109.633 75.6167ZM27.4703 109.912C27.3088 110.074 26.8289 111.156 26.4041 112.316L25.6319 114.424L24.4329 114.916C23.7735 115.186 23.1489 115.407 23.045 115.407C22.941 115.407 21.9931 115 20.9385 114.503C19.8839 114.005 18.7969 113.598 18.523 113.598C18.127 113.598 17.5686 114.054 15.8008 115.822C13.9665 117.657 13.5763 118.14 13.5738 118.581C13.572 118.875 13.9937 120.036 14.5105 121.16L15.4503 123.205L15.1201 124.145C14.9385 124.662 14.7234 125.217 14.6424 125.377C14.5611 125.538 13.5148 126.016 12.3113 126.442C9.33502 127.495 9.41625 127.367 9.41625 130.998C9.41625 134.785 9.36903 134.698 11.8969 135.585C14.6943 136.567 14.7372 136.595 15.2013 137.739L15.6078 138.741L14.5923 140.871C14.0338 142.042 13.5769 143.245 13.5769 143.543C13.5769 143.996 13.9403 144.445 15.7929 146.28C17.0118 147.488 18.1789 148.526 18.3866 148.587C18.6395 148.661 19.5353 148.339 21.1 147.611C22.3848 147.014 23.5271 146.524 23.6389 146.523C23.7505 146.522 24.2098 146.684 24.6594 146.883C25.4694 147.242 25.4825 147.261 26.1597 149.189C26.9973 151.574 27.4016 152.412 27.7844 152.559C27.9461 152.621 29.4399 152.672 31.1042 152.672C33.4314 152.672 34.2111 152.613 34.481 152.415C34.6843 152.267 35.2131 151.114 35.7375 149.676L36.6431 147.194L37.5798 146.838L38.5165 146.482L40.7446 147.523C41.97 148.095 43.2021 148.565 43.4825 148.567C43.896 148.571 44.4175 148.148 46.2411 146.328C48.1051 144.469 48.4901 143.993 48.4901 143.551C48.4901 143.257 48.0369 142.052 47.4832 140.872L46.4761 138.729L46.8944 137.651C47.1243 137.057 47.3672 136.572 47.4343 136.572C47.5015 136.572 48.5834 136.196 49.8386 135.736C52.7867 134.657 52.6939 134.819 52.6174 130.878C52.568 128.331 52.5152 127.876 52.2321 127.564C52.0516 127.365 50.9238 126.855 49.7259 126.431L47.5479 125.66L47.1916 124.83C46.5758 123.395 46.5923 123.235 47.574 121.143C48.0778 120.069 48.4901 118.933 48.4901 118.619C48.4901 118.128 48.1737 117.73 46.2661 115.822C44.561 114.117 43.9324 113.598 43.5715 113.598C43.3126 113.598 42.229 114.005 41.1637 114.503C40.0984 115 39.1382 115.407 39.0299 115.407C38.9217 115.407 38.2884 115.184 37.6228 114.911L36.4124 114.415L35.6498 112.3C35.2303 111.137 34.7462 110.058 34.5742 109.902C34.1006 109.473 27.9003 109.483 27.4703 109.912ZM33.5414 114.496L34.2896 116.57L35.5559 117.041C36.2524 117.3 37.2285 117.731 37.7252 117.997C38.222 118.264 38.7444 118.482 38.8862 118.482C39.028 118.482 40.0374 118.067 41.1292 117.56L43.1143 116.638L44.2931 117.816L45.472 118.995L44.5203 121.1C43.9969 122.258 43.6105 123.344 43.6615 123.512C43.7388 123.768 44.1791 124.876 45.2274 127.454C45.3412 127.734 45.9526 128.035 47.5751 128.609L49.7688 129.385L49.7174 131.107L49.6659 132.829L47.7665 133.526C45.2292 134.455 45.0964 134.535 44.8481 135.289C44.7301 135.646 44.3636 136.503 44.0336 137.191C43.3336 138.652 43.3428 138.741 44.4222 140.914C45.6026 143.29 45.604 143.128 44.3935 144.363C43.8142 144.953 43.2288 145.436 43.0928 145.436C42.9568 145.436 41.8669 144.977 40.6708 144.415L38.4962 143.393L37.5687 143.797C37.0586 144.019 36.275 144.324 35.8272 144.475C35.3795 144.626 34.8444 144.933 34.638 145.156C34.4316 145.38 33.9128 146.552 33.4852 147.761L32.7075 149.959H31.0355H29.3634L28.9635 148.828C27.6038 144.984 27.5642 144.92 26.3301 144.53C25.9322 144.404 25.2225 144.109 24.7533 143.874C24.284 143.639 23.7956 143.446 23.6679 143.446C23.5402 143.446 22.424 143.939 21.1876 144.54L18.9394 145.633L17.7958 144.5C17.1668 143.876 16.6521 143.271 16.6521 143.154C16.6521 143.037 17.0592 142.069 17.5566 141.004C18.0541 139.939 18.4609 138.893 18.4607 138.679C18.4602 138.21 17.0872 134.958 16.7377 134.598C16.6011 134.457 15.5695 134.009 14.4452 133.603L12.4011 132.864L12.3495 131.124L12.2981 129.385L13.4349 128.97C14.0602 128.741 14.9881 128.403 15.4969 128.218C16.6286 127.806 16.8783 127.533 17.2871 126.261C17.4629 125.714 17.7988 124.882 18.0338 124.413C18.2688 123.944 18.4611 123.455 18.4611 123.327C18.4611 123.199 18.0541 122.24 17.5566 121.196C17.0592 120.152 16.6521 119.214 16.6521 119.111C16.6521 119.008 17.1776 118.403 17.82 117.767L18.9879 116.609L20.9602 117.546C22.0449 118.061 22.9942 118.482 23.0698 118.482C23.1453 118.482 23.9097 118.169 24.7686 117.785C25.6275 117.401 26.5517 117.034 26.8225 116.969C27.4045 116.829 27.9768 116.261 28.1227 115.679C28.1802 115.451 28.4801 114.601 28.7893 113.792L29.3515 112.319L31.0724 112.371L32.7931 112.422L33.5414 114.496ZM105.714 117.672C109.144 119.055 112.437 119.648 116.598 119.633C120.05 119.62 122.188 119.273 124.866 118.29C125.691 117.987 126.516 117.692 126.698 117.634C127.016 117.532 127.027 117.771 126.955 123.477C126.894 128.339 126.824 129.625 126.575 130.512C125.417 134.635 122.19 137.836 118.175 138.844C116.781 139.193 114.434 139.235 112.98 138.936C111.194 138.569 109.065 137.436 107.647 136.098C106.057 134.598 105.187 133.285 104.491 131.334L103.939 129.789L103.878 123.412C103.843 119.793 103.885 117.035 103.976 117.035C104.064 117.035 104.846 117.322 105.714 117.672ZM29.6679 121.2C25.8529 121.789 22.8397 124.408 21.6918 128.132C21.373 129.166 21.3242 129.686 21.3942 131.297C21.4656 132.939 21.5626 133.427 22.0483 134.582C23.2759 137.503 25.8813 139.681 28.9738 140.372C30.3822 140.686 32.9287 140.526 34.2896 140.036C37.2249 138.981 39.6691 136.345 40.4313 133.414C40.7889 132.038 40.7903 129.715 40.4345 128.349C39.2216 123.692 34.3721 120.472 29.6679 121.2ZM33.8907 124.508C35.3537 125.17 36.9106 126.763 37.4615 128.162C37.7945 129.007 37.8906 129.606 37.898 130.882C37.907 132.417 37.8656 132.604 37.2301 133.89C36.4278 135.515 35.5318 136.389 33.8596 137.178C32.7965 137.68 32.4783 137.744 31.0335 137.746C29.635 137.748 29.2565 137.678 28.3497 137.253C26.9137 136.581 25.9427 135.776 25.2384 134.675C22.7006 130.708 24.5318 125.644 29.0436 124.152C30.2238 123.762 32.6319 123.939 33.8907 124.508ZM155.185 133.814C154.794 134.268 154.669 134.711 154.818 135.11C154.89 135.301 156.065 136.522 157.43 137.824C160.105 140.374 160.517 140.584 161.336 139.821C162.073 139.134 161.879 138.437 160.54 136.971C158.696 134.95 156.829 133.497 156.076 133.497C155.71 133.497 155.345 133.627 155.185 133.814ZM128.836 141.703C127.706 142.707 125.941 143.959 124.588 144.716C123.489 145.331 123.099 145.903 123.308 146.591C123.511 147.258 123.952 147.607 124.591 147.607C125.645 147.607 128.692 145.698 130.648 143.812C131.376 143.111 131.522 142.861 131.522 142.317C131.522 141.827 131.403 141.57 131.045 141.289C130.332 140.728 129.828 140.822 128.836 141.703ZM162.664 143.039C161.995 143.605 162.012 144.167 162.739 145.537C163.633 147.221 164.391 149.136 165.009 151.276C165.966 154.588 166.106 155.799 166.229 161.869L166.345 167.538L166.772 167.884C167.333 168.338 168.076 168.322 168.588 167.845L169 167.461L168.919 161.378C168.843 155.664 168.81 155.163 168.366 153.112C167.575 149.459 165.716 144.685 164.55 143.311C163.979 142.637 163.261 142.534 162.664 143.039Z" fill="#595959"/>
</svg>
