<svg width="64" height="64" viewBox="0 0 64 64" fill="none" xmlns="http://www.w3.org/2000/svg">
<rect width="64" height="64" fill="white"/>
<path fill-rule="evenodd" clip-rule="evenodd" d="M31.6886 12.0535C31.6234 12.0788 31.5079 12.215 31.4321 12.3563C31.3203 12.5644 31.2942 13.0748 31.2942 15.0491V17.4851L31.5668 17.7476C31.7529 17.9268 31.9329 18.0101 32.1336 18.0101C32.3343 18.0101 32.5143 17.9268 32.7003 17.7476L32.973 17.4851V14.9759C32.973 12.5733 32.9648 12.4566 32.7796 12.23C32.6235 12.0388 32.5115 11.9947 32.1967 12.0005C31.9825 12.0043 31.7538 12.0282 31.6886 12.0535ZM21.4673 16.6304C21.2937 16.7975 21.2214 16.9612 21.2214 17.1868C21.2214 17.4814 21.3558 17.6364 22.9401 19.1682C24.5515 20.7261 24.6805 20.8299 25.0038 20.8299C25.2745 20.8299 25.4065 20.7677 25.6168 20.5411C26.106 20.0138 26.066 19.9475 24.1392 18.0828C22.5101 16.5063 22.371 16.3937 22.0534 16.3937C21.8102 16.3937 21.6431 16.4611 21.4673 16.6304ZM40.272 18.0325C38.3474 19.8887 38.264 20.0242 38.7344 20.5311C38.9538 20.7676 39.0835 20.8299 39.3566 20.8299C39.6799 20.8299 39.8089 20.7261 41.4203 19.1682C43.0359 17.6061 43.139 17.4863 43.139 17.1705C43.139 16.7095 42.8085 16.3937 42.3262 16.3937C41.9901 16.3937 41.8807 16.481 40.272 18.0325ZM30.7346 21.7365C28.4068 22.2383 26.449 24.1731 25.9265 26.4881C25.5672 28.0801 25.9981 30.1639 27.0725 32.0291C27.0899 32.0593 26.6304 32.3089 26.0514 32.5839C23.7245 33.6889 22.0386 35.0679 20.576 37.0625L20.2691 37.4811L19.6019 37.0625C19.2349 36.8323 18.7611 36.569 18.5487 36.4773L18.1627 36.3106L18.3899 35.8158C19.3015 33.831 18.9416 31.7553 17.4561 30.4311C16.4213 29.5087 15.1051 29.1035 13.8466 29.3201C12.0845 29.6232 10.6074 30.9081 10.1724 32.5162C9.90085 33.52 10.0778 35.0054 10.5822 35.9575L10.7734 36.3182L10.5646 36.3802C10.1729 36.4965 9.101 37.1431 8.40029 37.6859C6.53357 39.1318 5.25675 41.5052 5.03627 43.939C4.96977 44.6723 4.96986 44.6727 5.25405 44.9463L5.53832 45.22H32.2113H58.8844L59.1375 44.9304C59.3796 44.6534 59.388 44.6106 59.3306 43.9473C59.2496 43.0126 58.8956 41.7094 58.4968 40.8785C57.614 39.0388 55.8323 37.2786 54.0609 36.4961L53.6101 36.2969L53.8342 35.809C55.0496 33.1627 53.9454 30.4184 51.2922 29.4924C50.4934 29.2136 49.1768 29.2182 48.4085 29.5026C45.7407 30.4902 44.6264 33.2825 45.8875 35.8198C46.0127 36.0717 46.1065 36.2845 46.096 36.2927C46.0854 36.3009 45.888 36.3987 45.6572 36.51C45.4263 36.6214 44.9599 36.8846 44.6207 37.095L44.0039 37.4775L43.5015 36.7921C42.8239 35.8678 41.3192 34.4353 40.2942 33.7389C39.8326 33.4252 38.9451 32.927 38.3219 32.6316L37.1888 32.0946L37.5935 31.2711C38.266 29.9023 38.4277 29.2177 38.4244 27.7536C38.4219 26.6264 38.3951 26.42 38.1658 25.7586C37.544 23.9654 36.0504 22.5379 34.1379 21.9092C33.2156 21.6061 31.6971 21.529 30.7346 21.7365ZM33.4468 23.3832C35.1062 23.8003 36.466 25.2187 36.8022 26.8833C37.1421 28.5669 36.2584 31.0031 34.7906 32.4278C33.8727 33.3189 33.2734 33.5907 32.2268 33.5907C31.54 33.5907 31.3593 33.5556 30.8745 33.3278C29.4566 32.6619 28.1205 30.7618 27.7037 28.8186C27.3372 27.1103 27.746 25.7157 28.9523 24.5596C30.1734 23.3893 31.7889 22.9665 33.4468 23.3832ZM16.8803 26.3127C16.5924 26.5898 16.5679 27.1405 16.8295 27.4518L17.0077 27.6638L19.6772 27.6902L22.3468 27.7166L22.6235 27.4501C22.7898 27.29 22.9002 27.0896 22.9002 26.9478C22.9002 26.6489 22.6733 26.2208 22.4763 26.148C22.3933 26.1174 21.1517 26.0922 19.7173 26.0922H17.1092L16.8803 26.3127ZM41.5992 26.3792C41.3954 26.6123 41.3582 26.7258 41.4011 26.9853C41.4317 27.1706 41.5552 27.3893 41.6954 27.5066C41.9335 27.7058 41.974 27.7087 44.5474 27.7087H47.1579L47.3868 27.4882C47.5553 27.326 47.6158 27.1708 47.6158 26.9005C47.6158 26.6302 47.5553 26.4749 47.3868 26.3127L47.1579 26.0922H44.5038H41.8499L41.5992 26.3792ZM15.6885 31.1231C16.5753 31.4912 17.2479 32.388 17.3677 33.3619C17.5114 34.5301 16.6386 36.2122 15.5408 36.8825C14.6869 37.4038 13.6738 37.1528 12.9062 36.2294C12.4365 35.6644 12.2169 35.2832 11.996 34.6487C11.6223 33.5754 11.8011 32.6081 12.5147 31.8438C13.3784 30.9189 14.5535 30.652 15.6885 31.1231ZM51.0314 31.121C52.2704 31.6351 52.9454 32.9492 52.657 34.2864C52.4313 35.3336 51.5555 36.5806 50.7777 36.9627C50.3087 37.1931 49.6481 37.1882 49.1385 36.9507C48.3757 36.5952 47.5138 35.3786 47.2437 34.2761C46.7106 32.1006 48.9322 30.25 51.0314 31.121ZM28.642 33.8226C28.7926 33.9749 29.222 34.2972 29.5962 34.5386C31.5736 35.8153 33.8296 35.577 35.7293 33.891C36.148 33.5194 36.1601 33.5153 36.4991 33.6282C37.9473 34.1108 39.7294 35.2092 40.9395 36.3649C42.9263 38.2626 43.9377 40.2462 44.4815 43.3117L44.5333 43.6036H32.2171H19.9009L19.9519 43.3566C19.9799 43.2208 20.0496 42.8488 20.1068 42.5299C20.6731 39.3703 22.9603 36.2269 25.9079 34.557C26.5732 34.1801 28.0046 33.5576 28.2223 33.5505C28.3025 33.5479 28.4913 33.6703 28.642 33.8226ZM12.2686 37.9915C12.5136 38.1646 12.9596 38.4146 13.2596 38.5468C14.3036 39.007 15.5785 38.8291 16.5995 38.0807C16.8076 37.9282 17.0298 37.7728 17.0934 37.7354C17.2309 37.6543 18.7009 38.3649 19.1611 38.7348L19.477 38.9887L19.1852 39.717C18.7508 40.8018 18.4588 41.8422 18.3275 42.7729L18.2104 43.6036H12.5326H6.85487L6.91036 43.3566C7.37035 41.3104 8.42323 39.6901 9.99673 38.6073C10.4467 38.2976 11.5946 37.7042 11.789 37.6808C11.8078 37.6785 12.0236 37.8184 12.2686 37.9915ZM47.7098 37.9915C47.9548 38.1646 48.4008 38.4146 48.7008 38.5468C49.7447 39.007 51.0197 38.8291 52.0407 38.0807C52.2488 37.9282 52.4697 37.7736 52.5317 37.7371C52.6961 37.6403 53.8963 38.2442 54.6838 38.82C55.0574 39.0932 55.5955 39.5841 55.8796 39.9111C56.4655 40.5852 57.2429 42.0519 57.4083 42.7954C57.4688 43.067 57.5384 43.36 57.5631 43.4464C57.6053 43.5949 57.2918 43.6036 51.918 43.6036H46.2282L46.1671 43.177C45.987 41.9186 45.589 40.4691 45.0829 39.2272C44.948 38.8961 44.9422 38.9028 45.8437 38.3284C46.2508 38.069 47.0288 37.7057 47.2302 37.6809C47.2489 37.6785 47.4648 37.8184 47.7098 37.9915Z" fill="#595959"/>
</svg>
