<svg width="64" height="64" viewBox="0 0 64 64" fill="none" xmlns="http://www.w3.org/2000/svg">
<rect width="64" height="64" fill="white"/>
<path d="M23.7547 30.6591C23.5576 30.6591 23.3605 30.5846 23.2087 30.438C23.1928 30.4236 21.0762 28.4768 15.5933 28.3374C15.2848 28.329 15.0119 28.1427 14.8968 27.8615C14.7817 27.5803 14.8503 27.2594 15.0682 27.0455C20.8559 21.3649 28.9609 22.2879 29.3025 22.3299C29.7248 22.3816 30.0247 22.7601 29.9721 23.1747C29.9194 23.5893 29.5351 23.8838 29.1115 23.8321C29.0417 23.8237 22.626 23.1062 17.5189 26.9458C22.2955 27.4541 24.2113 29.2808 24.2994 29.3673C24.6005 29.6629 24.6005 30.1424 24.2994 30.438C24.1488 30.5846 23.9517 30.6591 23.7547 30.6591Z" fill="#595959" stroke="#595959" stroke-width="0.3"/>
<path d="M36.4214 50.0001C36.3265 50.0001 36.2317 49.9807 36.1416 49.9419C35.8606 49.8218 35.6732 49.5323 35.666 49.2066C35.5267 43.4187 33.5823 41.1844 33.5619 41.1625C33.2665 40.8446 33.2689 40.3315 33.5643 40.0137C33.8598 39.6958 34.3414 39.6983 34.6368 40.0162C34.7233 40.1093 36.5487 42.1303 37.0567 47.174C40.8938 41.7827 40.1768 35.0101 40.1684 34.9364C40.118 34.4906 40.4122 34.0836 40.8265 34.0293C41.2385 33.9724 41.618 34.2903 41.6708 34.7348C41.7129 35.0967 42.6352 43.6526 36.9583 49.761C36.8117 49.9174 36.6184 50.0001 36.4214 50.0001Z" fill="#595959" stroke="#595959" stroke-width="0.3"/>
<path d="M37.9672 30.6591C36.7818 30.6591 35.5976 30.2487 34.6944 29.4288C32.8906 27.7892 32.8906 25.1198 34.6944 23.4802C36.4982 21.8394 39.4349 21.8405 41.2387 23.4802C43.0426 25.1198 43.0426 27.7892 41.2387 29.4288C40.3368 30.2487 39.1527 30.6591 37.9672 30.6591ZM37.9672 23.7181C37.1962 23.7181 36.4251 23.9851 35.8375 24.5181C34.6636 25.5851 34.6636 27.3216 35.8375 28.3886C37.0114 29.4557 38.9217 29.4557 40.0956 28.3886C41.2695 27.3216 41.2695 25.5851 40.0956 24.5181C39.5093 23.9851 38.7383 23.7181 37.9672 23.7181Z" fill="#595959" stroke="#595959" stroke-width="0.3"/>
<path d="M33.2955 41.5911C32.5457 41.5911 31.8009 41.3017 31.2383 40.739L23.2603 32.7607C22.2723 31.7726 22.1263 30.2206 22.9135 29.0703C24.3469 26.9744 26.5351 24.4643 29.6015 21.3977C35.5111 15.4879 43.2109 12.3864 50.1959 13.1013C50.5664 13.1387 50.8596 13.4319 50.8982 13.8037C51.6131 20.7901 48.5105 28.489 42.6021 34.3988C39.5357 37.4653 37.0269 39.6523 34.9298 41.0871C34.4332 41.4252 33.8631 41.5911 33.2955 41.5911ZM48.1836 14.5722C42.1742 14.5722 35.7681 17.4541 30.7118 22.5105C27.7153 25.5072 25.5882 27.9438 24.2097 29.9586C23.8491 30.4851 23.9178 31.1962 24.3706 31.6503L32.3486 39.6286C32.8027 40.0828 33.5138 40.1501 34.0403 39.7896C36.055 38.411 38.4915 36.2839 41.4881 33.2872C46.8824 27.8926 49.8029 20.9598 49.3862 14.6109C48.9883 14.5847 48.5866 14.5722 48.1836 14.5722Z" fill="#595959" stroke="#595959" stroke-width="0.3"/>
<path d="M28.8362 41.5914C27.1579 41.5914 25.5225 41.0345 24.2946 39.9956C22.5961 38.5587 21.9875 36.4616 22.7034 34.5234L23.3254 32.8426C23.4648 32.466 23.9393 32.2562 24.383 32.3741C24.8281 32.4921 25.0761 32.8925 24.9367 33.269L24.3147 34.9498C23.7865 36.38 24.2356 37.9258 25.4876 38.9851C26.7396 40.0444 28.5681 40.4243 30.2572 39.9775L32.2438 39.4524C32.6888 39.3344 33.162 39.5442 33.3015 39.9208C33.4409 40.2973 33.1929 40.6977 32.7478 40.8156L30.7612 41.3407C30.1285 41.5097 29.4797 41.5914 28.8362 41.5914Z" fill="#595959" stroke="#595959" stroke-width="0.3"/>
<path d="M47.732 24.7725C47.7191 24.7725 47.7061 24.7725 47.6932 24.7713C47.5896 24.7666 45.1384 24.61 42.3117 21.7821C39.4968 18.9659 39.2391 16.4369 39.2297 16.331C39.1932 15.9236 39.4933 15.5622 39.9016 15.5257C40.3076 15.488 40.6665 15.787 40.7066 16.1932C40.7113 16.2368 40.969 18.3407 43.3614 20.7342C45.7503 23.1242 47.7567 23.2902 47.7767 23.2914C48.1851 23.3126 48.4969 23.6611 48.4757 24.0696C48.4545 24.4641 48.1239 24.7725 47.732 24.7725Z" fill="#595959" stroke="#595959" stroke-width="0.3"/>
<path d="M14.8216 49.9998C14.5999 49.9998 14.3861 49.9098 14.2297 49.7482C14.0549 49.567 13.9728 49.3154 14.008 49.0664C14.2166 47.5555 15.0563 42.4663 17.1124 40.4093C17.9781 39.5437 19.128 39.0679 20.3523 39.0679C21.5766 39.0679 22.7265 39.545 23.5922 40.4093C25.3784 42.1952 25.3784 45.1009 23.5922 46.8868C21.956 48.5228 17.9833 49.6882 14.9037 49.9945C14.875 49.9985 14.849 49.9998 14.8216 49.9998ZM20.3523 40.7104C19.5674 40.7104 18.8295 41.0154 18.274 41.5708C17.2766 42.568 16.3392 45.1165 15.8007 48.223C18.364 47.8189 21.291 46.8646 22.4292 45.7253C23.5753 44.5794 23.5753 42.7153 22.4292 41.5695C21.8751 41.0167 21.1372 40.7104 20.3523 40.7104Z" fill="#595959" stroke="#595959" stroke-width="0.3"/>
</svg>
