<svg width="58" height="39" viewBox="0 0 58 39" fill="none" xmlns="http://www.w3.org/2000/svg">
<path fill-rule="evenodd" clip-rule="evenodd" d="M43.163 1.19312C42.9639 1.31496 38.7429 5.67758 33.7829 10.8878C28.8228 16.0979 24.3929 20.7084 23.9385 21.1333C23.0026 22.0084 22.403 22.8615 22.0534 23.8152C21.8445 24.3849 21.8144 24.6484 21.8183 25.8692C21.8223 27.1342 21.8495 27.3419 22.0999 28.0165C22.8485 30.0333 24.505 31.5694 26.6476 32.2337C27.4246 32.4745 27.6281 32.4979 28.9474 32.4979C30.2656 32.4979 30.4766 32.4737 31.3103 32.227C33.6924 31.5219 35.4591 29.7704 36.1692 27.4097C36.3005 26.9732 38.4861 21.2681 41.0261 14.7318C44.3641 6.14169 45.6442 2.73583 45.6442 2.4451C45.6442 1.69083 44.9704 1.07632 44.0718 1.01125C43.6214 0.978571 43.4609 1.01069 43.163 1.19312ZM27.0152 1.82723C20.9379 2.25726 15.2922 4.33289 10.7515 7.80643C9.67385 8.63091 7.70808 10.4531 6.87706 11.3981C5.46874 12.9995 3.93522 15.2909 3.09697 17.0465C2.17405 18.9794 1.36289 21.464 1.08106 23.2212C0.95875 23.9843 0.96361 24.0496 1.17348 24.441C1.72701 25.4735 3.58516 25.5688 4.14386 24.5931C4.23132 24.4404 4.37265 23.9508 4.45794 23.5052C5.30147 19.0958 7.57151 15.0272 10.981 11.8142C15.0376 7.99119 19.9638 5.73762 25.8975 4.99035C27.3409 4.80857 31.0437 4.83163 32.4428 5.03105C33.5924 5.1949 35.2253 5.50048 35.5286 5.60859C35.6575 5.65452 35.991 5.36398 36.8727 4.43783C37.5177 3.76039 38.0428 3.17968 38.0397 3.14747C38.0317 3.06512 36.3574 2.63006 34.9719 2.35044C32.6551 1.88278 29.3251 1.66385 27.0152 1.82723ZM46.2885 7.5002C46.2337 7.64136 45.9733 8.30433 45.7099 8.97336L45.2309 10.1899L46.6534 11.4941C47.4358 12.2115 48.4408 13.2396 48.8868 13.7788C51.2539 16.6405 52.8754 20.0298 53.5403 23.5052C53.6256 23.9508 53.7703 24.4463 53.8619 24.6063C54.1067 25.0338 54.5872 25.2616 55.245 25.262C55.9998 25.2624 56.5332 24.9849 56.8257 24.4393C57.0346 24.0494 57.0406 23.9779 56.9235 23.2661C56.5066 20.7325 55.3818 17.7149 53.953 15.2971C52.7114 13.1959 51.1765 11.3107 49.269 9.54427C48.2152 8.56826 46.5865 7.24345 46.4404 7.24345C46.4116 7.24345 46.3433 7.35904 46.2885 7.5002ZM37.0575 15.7535C35.7958 19.0064 34.7513 21.6805 34.7365 21.6958C34.7217 21.7112 34.4687 21.512 34.1744 21.2531C33.2283 20.4209 32.0464 19.8087 30.8601 19.5365C30.5473 19.4647 30.2914 19.3663 30.2914 19.3179C30.2914 19.2184 39.2679 9.76348 39.3188 9.80942C39.3369 9.82576 38.3193 12.5006 37.0575 15.7535ZM30.5962 22.6807C31.4041 23.0147 32.216 23.7383 32.5789 24.4481C32.8436 24.9656 32.8761 25.1311 32.8761 25.9648C32.8761 26.8325 32.8516 26.9456 32.539 27.5185C31.9893 28.5266 31.0226 29.1782 29.7082 29.4265C28.8593 29.5869 28.324 29.5473 27.4786 29.2617C26.7471 29.0145 25.8656 28.2738 25.4512 27.5579C25.1395 27.0195 25.1222 26.9355 25.1222 25.9626C25.1222 25.0204 25.1461 24.8932 25.4132 24.4221C25.9485 23.4775 26.986 22.7046 28.0424 22.4635C28.7167 22.3097 29.9532 22.4148 30.5962 22.6807ZM19.2415 35.3477C18.8798 35.4467 18.4885 35.7646 18.2776 36.1306C18.0567 36.5144 18.1383 37.3728 18.4311 37.7441C18.9205 38.3647 18.3528 38.3331 28.9991 38.3331C37.6749 38.3331 38.6696 38.3179 38.9881 38.1815C39.5265 37.9508 39.7894 37.5496 39.8342 36.89C39.8665 36.4167 39.8338 36.2745 39.6311 36.0076C39.4981 35.8326 39.2581 35.6016 39.0975 35.4941C38.8067 35.2995 38.7709 35.2987 29.1725 35.2825C23.8743 35.2736 19.4053 35.3029 19.2415 35.3477Z" fill="#595959" stroke="white"/>
</svg>
